<?xml version="1.0" encoding="UTF-8"?><svg width="26px" height="22px" viewBox="0 0 26 22" version="1.1" xmlns="http://www.w3.org/2000/svg" xmlns:xlink="http://www.w3.org/1999/xlink"><g id="AdressBook" stroke="none" stroke-width="1" fill="none" fill-rule="evenodd"><g id="Adressbook-S3-new" transform="translate(-695.000000, -403.000000)" fill="#89929E" fill-rule="nonzero" stroke="#89929E" stroke-width="0.2"><g id="Group-12" transform="translate(641.000000, 398.000000)"><g id="home" transform="translate(55.000000, 5.000000)"><path d="M23.7452632,8.30206114 L12.3910643,0.154382096 C12.172117,-0.00270524017 11.8746667,-0.00270524017 11.6558129,0.154382096 L0.301520468,8.30206114 C0.0241871345,8.50110262 -0.0360701754,8.88277074 0.167017544,9.1545786 C0.370105263,9.42638646 0.759578947,9.48535153 1.0368655,9.28640175 L12.0233918,1.40250655 L23.0099181,9.2863559 C23.1207018,9.3659083 23.2494503,9.40419432 23.377076,9.40419432 C23.5687018,9.40419432 23.7578012,9.31776419 23.8797193,9.15453275 C24.0828538,8.88277074 24.0225965,8.50110262 23.7452632,8.30206114 Z" id="Path"/><path d="M20.736655,9.4244607 C20.3929825,9.4244607 20.1142924,9.6975524 20.1142924,10.0344236 L20.1142924,19.7434389 L15.1354854,19.7434389 L15.1354854,14.4436441 C15.1354854,12.76181 13.7393684,11.3936004 12.0234386,11.3936004 C10.3075088,11.3936004 8.91139181,12.7619017 8.91139181,14.4436441 L8.91139181,19.7434847 L3.93253801,19.7434847 L3.93253801,10.0344694 C3.93253801,9.69759825 3.65384795,9.42450655 3.31017544,9.42450655 C2.96650292,9.42450655 2.68781287,9.69759825 2.68781287,10.0344694 L2.68781287,20.3534934 C2.68781287,20.6903646 2.96650292,20.9634563 3.31017544,20.9634563 L9.53375439,20.9634563 C9.86105263,20.9634563 10.1288889,20.7156288 10.1536842,20.4009956 C10.1551813,20.3867358 10.156117,20.3711463 10.156117,20.3534934 L10.156117,14.44369 C10.156117,13.4345437 10.9937778,12.6135721 12.0234386,12.6135721 C13.0530994,12.6135721 13.8907602,13.4345895 13.8907602,14.44369 L13.8907602,20.3534934 C13.8907602,20.3710546 13.8916959,20.386369 13.893193,20.4004454 C13.9177076,20.7153079 14.1856374,20.9634563 14.5131228,20.9634563 L20.7367018,20.9634563 C21.0804211,20.9634563 21.3590643,20.6903646 21.3590643,20.3534934 L21.3590643,10.0344694 C21.3590175,9.6975524 21.0803743,9.4244607 20.736655,9.4244607 Z" id="Path"/></g></g></g></g></svg>