<?xml version="1.0" encoding="utf-8"?>
<!-- Generator: Adobe Illustrator 22.0.1, SVG Export Plug-In . SVG Version: 6.00 Build 0)  -->
<!DOCTYPE svg PUBLIC "-//W3C//DTD SVG 1.1//EN" "http://www.w3.org/Graphics/SVG/1.1/DTD/svg11.dtd">
<svg version="1.1" id="Слой_1" xmlns="http://www.w3.org/2000/svg" xmlns:xlink="http://www.w3.org/1999/xlink" x="0px" y="0px"
	 viewBox="0 0 30 29" style="enable-background:new 0 0 30 29;" xml:space="preserve">
<title>Shape</title>
<desc>Created with Sketch.</desc>
<g id="Account-Copy">
	<g id="Account-9" transform="translate(-477.000000, -303.000000)">
		<g id="Group-Copy-2" transform="translate(416.000000, 264.000000)">
			<g id="cloud-computing-2" transform="translate(61.000000, 39.000000)">
				<g id="Group" transform="translate(0.084433, 0.714998)">
					<g id="Shape">
						<g>
							<path id="path-2" d="M26,0H3.5C1.7,0,0.1,1.4,0.1,3.2v14.9c0,1.8,1.5,3.2,3.4,3.2h6.8v4.3H8v2.1h13.5v-2.1h-2.3v-4.3H26
								c1.9,0,3.4-1.4,3.4-3.2V3.2C29.4,1.4,27.9,0,26,0z M3.5,2.1H26c0.6,0,1.1,0.5,1.1,1.1v11.7H2.4V3.2C2.4,2.6,2.9,2.1,3.5,2.1z
								 M17,25.6h-4.5v-4.3H17V25.6z M26,19.2H3.5c-0.6,0-1.1-0.5-1.1-1.1v-1.1h24.8v1.1C27.2,18.7,26.7,19.2,26,19.2z"/>
						</g>
					</g>
				</g>
			</g>
		</g>
	</g>
</g>
</svg>
