<?xml version="1.0" encoding="utf-8"?>
<!-- Generator: Adobe Illustrator 23.0.2, SVG Export Plug-In . SVG Version: 6.00 Build 0)  -->
<svg version="1.1" id="Layer_1" xmlns="http://www.w3.org/2000/svg" xmlns:xlink="http://www.w3.org/1999/xlink" x="0px" y="0px"
	 viewBox="0 0 23 32" style="enable-background:new 0 0 23 32;" xml:space="preserve">
<style type="text/css">
	.st0{fill:#AB47BC;}
</style>
<g>
	<path class="st0" d="M11.5,20.4c-0.4,0-0.8,0.3-0.8,0.8v3.5c0,0.4,0.3,0.8,0.8,0.8s0.8-0.3,0.8-0.8v-3.5
		C12.3,20.7,11.9,20.4,11.5,20.4z"/>
	<path class="st0" d="M20.8,15.2h-1.7V9.1c0-4.2-3.4-7.7-7.6-7.7c-4.2,0-7.6,3.4-7.6,7.7v6.1H2.2c-0.4,0-0.8,0.3-0.8,0.8v13.8
		c0,0.4,0.3,0.8,0.8,0.8h18.7c0.4,0,0.8-0.3,0.8-0.8V16C21.6,15.6,21.3,15.2,20.8,15.2z M5.4,9.1c0-3.4,2.7-6.1,6.1-6.1
		s6.1,2.8,6.1,6.1v6.1H5.4V9.1z M20.1,29.1H2.9V16.8h17.1V29.1z"/>
</g>
</svg>
