<?xml version="1.0" encoding="UTF-8"?>
<svg width="14px" height="24px" viewBox="0 0 14 24" version="1.1" xmlns="http://www.w3.org/2000/svg" xmlns:xlink="http://www.w3.org/1999/xlink">
    <!-- Generator: Sketch 51.3 (57544) - http://www.bohemiancoding.com/sketch -->
    <title>Path_51</title>
    <desc>Created with Sketch.</desc>
    <defs></defs>
    <g id="Symbols" stroke="none" stroke-width="1" fill="none" fill-rule="evenodd">
        <g id="Header/ic_mobile2-Copy" transform="translate(-13.000000, -8.000000)" fill="#89929E" fill-rule="nonzero">
            <g id="Preview">
                <path d="M25.321,8 L14.621,8 C13.726886,8.00274523 13.0027452,8.726886 13,9.621 L13,30.378 C13.0021963,31.2725045 13.726497,31.9972521 14.621,32 L25.321,32 C26.2153412,31.9978012 26.9398012,31.2733412 26.942,30.379 L26.942,9.621 C26.9392548,8.726886 26.215114,8.00274523 25.321,8 Z M18.259,9.168 L21.682,9.168 C21.7764101,9.18589828 21.8447475,9.26840832 21.8447475,9.3645 C21.8447475,9.46059168 21.7764101,9.54310172 21.682,9.561 L18.259,9.561 C18.1645899,9.54310172 18.0962525,9.46059168 18.0962525,9.3645 C18.0962525,9.26840832 18.1645899,9.18589828 18.259,9.168 Z M19.966,31.189 C19.6379811,31.189 19.3422611,30.9914062 19.2167337,30.6883563 C19.0912063,30.3853063 19.160592,30.0364808 19.3925364,29.8045364 C19.6244808,29.572592 19.9733063,29.5032063 20.2763563,29.6287337 C20.5794062,29.7542611 20.777,30.0499811 20.777,30.378 C20.7772658,30.593172 20.6919068,30.7996074 20.5397571,30.9517571 C20.3876074,31.1039068 20.181172,31.1892658 19.966,31.189 Z M25.814,29 L14.128,29 L14.128,10.571 L25.814,10.571 L25.814,29 Z" id="Path_51"></path>
            </g>
        </g>
    </g>
</svg>