<?xml version="1.0" encoding="UTF-8"?>
<svg width="28px" height="23px" viewBox="0 0 28 23" version="1.1" xmlns="http://www.w3.org/2000/svg" xmlns:xlink="http://www.w3.org/1999/xlink">
    <!-- Generator: Sketch 53.2 (72643) - https://sketchapp.com -->
    <title>Shape</title>
    <desc>Created with Sketch.</desc>
    <g id="Page-1-Copy-5" stroke="none" stroke-width="1" fill="none" fill-rule="evenodd">
        <g id="Account-new-2" transform="translate(-238.000000, -480.000000)" fill="#FF4578" fill-rule="nonzero" stroke="#FFFFFF" stroke-width="0.3">
            <g id="Group-25" transform="translate(195.000000, 238.000000)">
                <g id="Group-17">
                    <g id="Header/ic_mobile2-Copy-2" transform="translate(44.000000, 243.000000)">
                        <g id="Preview">
                            <path d="M25.9820732,1.76775813 C25.9810068,0.792450283 25.3837674,0 24.6502309,0 C24.6498247,0 16.8764025,0.0141975051 1.32996456,0.0425925152 C0.974241238,0.0432000154 0.639947643,0.227947581 0.388732328,0.562747701 C0.137567795,0.897615321 -0.000455900725,1.34250798 1.13138148e-06,1.81521065 L0.0180285089,19.2321744 C0.018485541,19.705012 0.157474083,20.1493647 0.409349555,20.4832873 C0.660767994,20.8166024 0.994655339,21 1.34976929,21 C1.35017554,21 9.12359765,20.9858025 24.6700356,20.9574075 C25.4042323,20.9560575 26.0008623,20.1609747 25.9999991,19.1847894 L25.9820732,1.76775813 Z M23.1873219,1.77288813 L13.0010411,11.1853615 L2.79500637,1.81014815 L23.1873219,1.77288813 Z M17.3086195,12.9617596 L23.3501269,19.1896494 L2.63275997,19.2274494 L8.71108386,12.9617596 C9.00165472,12.662127 9.05456888,12.1061968 8.82920127,11.7198267 C8.60378288,11.3335915 8.18554772,11.2632565 7.8948753,11.5628216 L1.34880444,18.3107315 L1.33255441,2.61866344 L12.6234818,12.9905146 C12.7374352,13.0952072 12.8697206,13.1474522 13.0020567,13.1474522 C13.1349515,13.1474522 13.2679479,13.0945997 13.3821551,12.9890971 L24.651145,2.57627342 L24.6682075,18.308234 L18.1247265,11.5628891 C17.834308,11.2633915 17.4158697,11.333659 17.1905021,11.7198942 C16.9650837,12.1061293 17.0179471,12.6621945 17.3086195,12.9617596 Z" id="Shape"></path>
                        </g>
                    </g>
                </g>
            </g>
        </g>
    </g>
</svg>