<?xml version="1.0" encoding="utf-8"?>
<!-- Generator: Adobe Illustrator 22.0.1, SVG Export Plug-In . SVG Version: 6.00 Build 0)  -->
<!DOCTYPE svg PUBLIC "-//W3C//DTD SVG 1.1//EN" "http://www.w3.org/Graphics/SVG/1.1/DTD/svg11.dtd">
<svg version="1.1" id="Слой_1" xmlns="http://www.w3.org/2000/svg" xmlns:xlink="http://www.w3.org/1999/xlink" x="0px" y="0px"
	 viewBox="0 0 18 18" style="enable-background:new 0 0 18 18;" xml:space="preserve">
<title>close</title>
<desc>Created with Sketch.</desc>
<g id="Account-Copy">
	<g id="Account-17" transform="translate(-1269.000000, -114.000000)">
		<g id="Group-2" transform="translate(347.000000, 110.000000)">
			<g id="close" transform="translate(922.000000, 4.000000)">
				<g>
					<g id="Line">
						<path d="M0.9,17.6c-0.1,0-0.3,0-0.4-0.1c-0.2-0.2-0.2-0.5,0-0.7L16.7,0.5c0.2-0.2,0.5-0.2,0.7,0s0.2,0.5,0,0.7
							L1.3,17.5C1.2,17.6,1,17.6,0.9,17.6z"/>
					</g>
					<g id="Line-Copy">
						<path d="M17.1,17.6c-0.1,0-0.3,0-0.4-0.1L0.5,1.3c-0.2-0.2-0.2-0.5,0-0.7s0.5-0.2,0.7,0l16.2,16.2
							c0.2,0.2,0.2,0.5,0,0.7C17.4,17.6,17.2,17.6,17.1,17.6z"/>
					</g>
				</g>
			</g>
		</g>
	</g>
</g>
</svg>
