<?xml version="1.0" encoding="utf-8"?>
<!-- Generator: Adobe Illustrator 22.0.1, SVG Export Plug-In . SVG Version: 6.00 Build 0)  -->
<!DOCTYPE svg PUBLIC "-//W3C//DTD SVG 1.1//EN" "http://www.w3.org/Graphics/SVG/1.1/DTD/svg11.dtd">
<svg version="1.1" id="Слой_1" xmlns="http://www.w3.org/2000/svg" xmlns:xlink="http://www.w3.org/1999/xlink" x="0px" y="0px"
	 viewBox="0 0 24 26" style="enable-background:new 0 0 24 26;" xml:space="preserve">
<title>Group</title>
<desc>Created with Sketch.</desc>
<g id="Account-9" transform="translate(-865.000000, -301.000000)">
	<g id="Group-Copy-2" transform="translate(416.000000, 264.000000)">
		<g id="cloud-computing" transform="translate(449.000000, 37.000000)">
			<g id="Group" transform="translate(0.000000, 0.224138)">
				<g id="Shape">
					<g>
						<path id="path-2" d="M17.3,14.8c-3.3-1.5-7.2-1.5-10.6,0c-4.1,1.8-6.7,5.7-6.7,9.8c0,0.5,0.4,0.9,1,0.9H23c0.5,0,1-0.4,1-0.9
							C24,20.5,21.4,16.6,17.3,14.8z"/>
					</g>
				</g>
				<g id="Shape_1_">
					<g>
						<path id="path-3" d="M12.1,12.8c3.8,0,7-2.9,7-6.4S15.9,0,12.1,0s-7,2.9-7,6.4C5.1,9.9,8.2,12.8,12.1,12.8z"/>
					</g>
				</g>
			</g>
		</g>
	</g>
</g>
</svg>
