<?xml version="1.0" encoding="UTF-8"?>
<svg width="18px" height="28px" viewBox="0 0 18 28" version="1.1" xmlns="http://www.w3.org/2000/svg" xmlns:xlink="http://www.w3.org/1999/xlink">
    <!-- Generator: Sketch 53.2 (72643) - https://sketchapp.com -->
    <title>Path_51</title>
    <desc>Created with Sketch.</desc>
    <g id="Page-1-Copy-5" stroke="none" stroke-width="1" fill="none" fill-rule="evenodd">
        <g id="Account-new-2" transform="translate(-244.000000, -619.000000)" fill="#879BFF" fill-rule="nonzero">
            <g id="Group-25" transform="translate(195.000000, 238.000000)">
                <g id="Group-17">
                    <path d="M64.9071869,381 L51.0928131,381 C49.9384556,381.003203 49.0035443,381.848034 49,382.891167 L49,407.107667 C49.0028355,408.151255 49.9379534,408.996794 51.0928131,409 L64.9071869,409 C66.0618378,408.997435 66.9971613,408.152231 67,407.108833 L67,382.891167 C66.9964557,381.848034 66.0615444,381.003203 64.9071869,381 Z M55.7897002,382.362667 L60.2090088,382.362667 C60.3308981,382.383548 60.419126,382.47981 60.419126,382.591917 C60.419126,382.704024 60.3308981,382.800285 60.2090088,382.821167 L55.7897002,382.821167 C55.6678108,382.800285 55.5795829,382.704024 55.5795829,382.591917 C55.5795829,382.47981 55.6678108,382.383548 55.7897002,382.362667 L55.7897002,382.362667 Z M57.9935447,408.053833 C57.5700517,408.053833 57.1882585,407.823307 57.0261947,407.469749 C56.8641309,407.116191 56.9537123,406.709228 57.2531671,406.438626 C57.5526219,406.168024 58.0029776,406.087074 58.3942342,406.233523 C58.7854907,406.379971 59.0405968,406.724978 59.0405968,407.107667 C59.0409399,407.358701 58.930736,407.599542 58.7343012,407.77705 C58.5378665,407.954558 58.2713452,408.054143 57.9935447,408.053833 L57.9935447,408.053833 Z M65.543681,405.5 L50.456319,405.5 L50.456319,383.9995 L65.543681,383.9995 L65.543681,405.5 Z" id="Path_51"></path>
                </g>
            </g>
        </g>
    </g>
</svg>