<?xml version="1.0" encoding="utf-8"?>
<!-- Generator: Adobe Illustrator 23.0.2, SVG Export Plug-In . SVG Version: 6.00 Build 0)  -->
<svg version="1.1" id="Layer_1" xmlns="http://www.w3.org/2000/svg" xmlns:xlink="http://www.w3.org/1999/xlink" x="0px" y="0px"
	 viewBox="0 0 20 20" style="enable-background:new 0 0 20 20;" xml:space="preserve">
<style type="text/css">
	.st0{fill:#89929E;}
</style>
<title>id-file-in-a-circle-outline</title>
<desc>Created with Sketch.</desc>
<g id="Page-1-Copy-5">
	<g id="Account-new-1" transform="translate(-418.000000, -308.000000)">
		<g transform="translate(30.000000, 80.000000)">
			<g id="Group-17" transform="translate(346.000000, 142.000000)">
				<g id="Group-15" transform="translate(42.000000, 26.000000)">
					<g id="Group-14" transform="translate(0.000000, 3.000000)">
						<g id="id-file-in-a-circle-outline" transform="translate(1.000000, 58.000000)">
							<g id="Group" transform="translate(6.352941, 6.676471)">
								<g id="Shape">
									<path class="st0" d="M0,0.6c0-0.1,0.1-0.2,0.2-0.2h0.2c0.1,0,0.2,0.1,0.2,0.2v4.9c0,0.1-0.1,0.2-0.2,0.2H0.3
										C0.1,5.7,0,5.6,0,5.5L0,0.6L0,0.6z"/>
									<path class="st0" d="M0.4,5.9H0.3C0,5.9-0.2,5.7-0.2,5.5l0-4.9c0-0.2,0.2-0.4,0.4-0.4h0.2c0.2,0,0.4,0.2,0.4,0.4v4.9
										C0.9,5.7,0.7,5.9,0.4,5.9z M0.3,0.6C0.2,0.6,0.2,0.6,0.3,0.6l0,4.9c0,0,0,0,0,0h0.2c0,0,0,0,0,0V0.6c0,0,0,0,0,0H0.3z"/>
								</g>
								<g>
									<path class="st0" d="M4.8,5.3c0-0.1,0-0.2,0-0.2S4.7,5.2,4.7,5.3c0,0-0.1,0.2-0.4,0.3C4,5.8,3.8,5.8,3.4,5.8
										c-0.2,0-0.5,0-0.7-0.1C2.5,5.6,2.3,5.5,2.2,5.3C2,5.1,1.9,4.9,1.8,4.7C1.7,4.5,1.7,4.2,1.7,4s0-0.5,0.1-0.7
										C1.9,3,2,2.8,2.2,2.6c0.2-0.2,0.4-0.3,0.6-0.4C3,2.1,3.3,2.1,3.5,2.1c0.3,0,0.5,0.1,0.7,0.2c0.2,0.1,0.4,0.3,0.4,0.3
										c0.1,0.1,0.2,0.2,0.2,0.2c0,0,0-0.1,0-0.2V0.3C4.8,0.1,4.9,0,5.1,0h0.1c0.1,0,0.2,0.1,0.2,0.2v5.2c0,0.1-0.1,0.2-0.2,0.2
										H5.1c-0.1,0-0.2-0.1-0.2-0.2L4.8,5.3L4.8,5.3z M4.8,4c0-0.2,0-0.4-0.1-0.5C4.7,3.3,4.6,3.1,4.5,3C4.4,2.9,4.2,2.8,4.1,2.7
										C3.9,2.7,3.8,2.6,3.6,2.6c-0.2,0-0.4,0-0.5,0.1C2.9,2.8,2.8,2.9,2.6,3C2.5,3.1,2.5,3.3,2.4,3.4C2.3,3.6,2.3,3.8,2.3,4
										c0,0.2,0,0.4,0.1,0.5c0.1,0.2,0.1,0.3,0.3,0.4C2.8,5,2.9,5.1,3,5.2c0.2,0.1,0.3,0.1,0.5,0.1c0.2,0,0.4,0,0.5-0.1
										C4.2,5.1,4.4,5,4.5,4.9c0.1-0.1,0.2-0.3,0.3-0.4C4.8,4.3,4.8,4.1,4.8,4z"/>
									<path class="st0" d="M3.4,6C3.2,6,2.9,6,2.7,5.9C2.4,5.8,2.2,5.6,2,5.4C1.9,5.2,1.7,5,1.6,4.8C1.5,4.5,1.5,4.3,1.5,4
										c0-0.3,0.1-0.6,0.2-0.8C1.7,2.9,1.9,2.7,2,2.5c0.2-0.2,0.4-0.3,0.7-0.4c0.5-0.2,1.1-0.2,1.6,0c0.1,0.1,0.2,0.1,0.3,0.2v-2
										c0-0.2,0.2-0.4,0.4-0.4h0.1c0.2,0,0.4,0.2,0.4,0.4v5.2c0,0.2-0.2,0.4-0.4,0.4H5.1c-0.2,0-0.4-0.1-0.4-0.3
										C4.6,5.7,4.5,5.7,4.4,5.8C4.1,5.9,3.8,6,3.4,6z M3.5,2.3c-0.2,0-0.5,0-0.7,0.1C2.6,2.5,2.5,2.6,2.3,2.8
										C2.2,2.9,2.1,3.1,2,3.3C1.9,3.5,1.9,3.7,1.9,4s0,0.5,0.1,0.7C2.1,4.8,2.2,5,2.3,5.2c0.1,0.1,0.3,0.3,0.5,0.3
										c0.4,0.2,1,0.2,1.4-0.1c0.2-0.1,0.3-0.3,0.3-0.3c0,0,0,0,0-0.1C4.4,5.2,4.3,5.3,4.2,5.4C3.8,5.5,3.3,5.5,3,5.4
										C2.8,5.3,2.6,5.2,2.5,5C2.4,4.9,2.3,4.7,2.2,4.6C2.1,4.4,2.1,4.2,2.1,4c0-0.2,0-0.4,0.1-0.6C2.3,3.2,2.4,3,2.5,2.9
										C2.6,2.8,2.8,2.6,3,2.6c0.4-0.2,0.8-0.2,1.2,0c0.2,0.1,0.3,0.2,0.5,0.3C4.8,3,4.9,3.2,4.9,3.4C5,3.6,5,3.8,5,4
										c0,0.2,0,0.4-0.1,0.6C4.9,4.7,4.8,4.8,4.7,4.9c0,0,0.1,0,0.1,0C5,4.9,5,5.1,5,5.3v0.2c0,0,0,0,0,0h0.1c0,0,0,0,0,0V0.3
										c0,0,0,0,0,0H5.1c0,0,0,0,0,0v2.2c0,0.3,0,0.4-0.2,0.4c-0.1,0-0.1,0-0.3-0.2c0,0-0.2-0.2-0.3-0.2C4,2.3,3.8,2.3,3.5,2.3z
										 M3.6,2.8c-0.2,0-0.3,0-0.4,0.1C3,3,2.9,3.1,2.8,3.2C2.7,3.3,2.6,3.4,2.6,3.5c0,0.1-0.1,0.3-0.1,0.4c0,0.2,0,0.3,0.1,0.5
										c0,0.1,0.1,0.2,0.2,0.3C2.9,4.9,3,4.9,3.1,5C3.4,5.1,3.7,5.1,4,5c0.1-0.1,0.2-0.1,0.3-0.2c0.1-0.1,0.2-0.2,0.2-0.3
										C4.6,4.3,4.6,4.1,4.6,4c0-0.2,0-0.3-0.1-0.4c0-0.1-0.1-0.3-0.2-0.4C4.2,3.1,4.1,3,4,2.9C3.9,2.9,3.7,2.8,3.6,2.8z"/>
								</g>
							</g>
							<g>
								<path class="st0" d="M9,18c-5,0-9-4-9-9c0-5,4-9,9-9s9,4,9,9C18,14,14,18,9,18z M9,0.8C4.5,0.8,0.8,4.5,0.8,9
									c0,4.5,3.7,8.2,8.2,8.2c4.5,0,8.2-3.7,8.2-8.2C17.2,4.5,13.5,0.8,9,0.8z"/>
								<path class="st0" d="M9,18.2c-5.1,0-9.2-4.1-9.2-9.2c0-5.1,4.1-9.2,9.2-9.2s9.2,4.1,9.2,9.2C18.2,14.1,14.1,18.2,9,18.2z
									 M9,0.2C4.1,0.2,0.2,4.1,0.2,9c0,4.9,3.9,8.8,8.8,8.8c4.9,0,8.8-3.9,8.8-8.8C17.8,4.1,13.9,0.2,9,0.2z M9,17.4
									c-4.6,0-8.4-3.8-8.4-8.4c0-4.6,3.8-8.4,8.4-8.4c4.6,0,8.4,3.8,8.4,8.4C17.4,13.6,13.6,17.4,9,17.4z M9,1C4.6,1,1,4.6,1,9
									c0,4.4,3.6,8,8,8c4.4,0,8-3.6,8-8C17,4.6,13.4,1,9,1z"/>
							</g>
						</g>
					</g>
				</g>
			</g>
		</g>
	</g>
</g>
</svg>
