<?xml version="1.0" encoding="UTF-8"?>
<svg width="25px" height="32px" viewBox="0 0 25 32" version="1.1" xmlns="http://www.w3.org/2000/svg" xmlns:xlink="http://www.w3.org/1999/xlink">
    <!-- Generator: Sketch 53.2 (72643) - https://sketchapp.com -->
    <title>sms-message</title>
    <desc>Created with Sketch.</desc>
    <g id="Page-1-Copy-5" stroke="none" stroke-width="1" fill="none" fill-rule="evenodd">
        <g id="Account-new-2" transform="translate(-821.000000, -337.000000)" fill="#FA8540" fill-rule="nonzero">
            <g id="Group-25" transform="translate(195.000000, 238.000000)">
                <g id="Group-15" transform="translate(581.000000, 57.000000)">
                    <g id="Group-19">
                        <g id="sms-message" transform="translate(45.000000, 42.000000)">
                            <path d="M15.0393768,20.1313758 C14.7459632,20.1313758 14.5082153,20.3675429 14.5082153,20.6588484 L14.5082153,25.9738022 L1.10793201,25.9738022 L1.10793201,12.666022 L5.19716714,12.666022 C5.49058074,12.666022 5.72832861,12.4298549 5.72832861,12.1385495 C5.72832861,11.847244 5.49058074,11.6110769 5.19716714,11.6110769 L1.10793201,11.6110769 L1.10793201,9.37684396 C1.10793201,8.44933626 1.8677762,7.69476923 2.80184136,7.69476923 L3.56664306,7.69476923 C3.86005666,7.69476923 4.09780453,7.4586022 4.09780453,7.1672967 C4.09780453,6.87599121 3.86005666,6.63982418 3.56664306,6.63982418 L2.80184136,6.63982418 C1.28208215,6.63982418 0.0456090652,7.86763956 0.0456090652,9.37684396 L0.0456090652,29.2629099 C0.0456090652,30.7721143 1.28208215,31.9999297 2.80184136,31.9999297 L12.8143768,31.9999297 C14.334136,31.9999297 15.5706091,30.7721143 15.5706091,29.2629099 L15.5706091,20.6588484 C15.5705382,20.3675429 15.3327904,20.1313758 15.0393768,20.1313758 Z M12.8143059,30.9450549 L2.80184136,30.9450549 C1.86784703,30.9450549 1.10793201,30.1904879 1.10793201,29.2629802 L1.10793201,27.0287473 L14.5082861,27.0287473 L14.5082861,29.2629802 C14.5082153,30.1904879 13.7483711,30.9450549 12.8143059,30.9450549 Z" id="Shape"></path>
                            <path d="M10.2383853,7.4074022 C9.46600567,7.28193407 9.43342776,7.20696264 9.43342776,7.04949451 C9.43342776,6.77105934 9.90403683,6.69749451 10.1528329,6.69749451 C10.5526204,6.69749451 10.8104816,6.83126154 10.858711,6.96341099 C10.9586402,7.23727473 11.2632436,7.37898901 11.5390227,7.27961319 C11.8148725,7.18037802 11.9574363,6.87789011 11.8575071,6.60402637 C11.6410765,6.01093626 10.9878895,5.64254945 10.1528329,5.64254945 C9.10375354,5.64254945 8.37110482,6.22108132 8.37110482,7.04949451 C8.37110482,8.17308132 9.43264873,8.34552967 10.0668555,8.44856264 C10.8397309,8.5741011 10.8723088,8.64921319 10.8723088,8.8071033 C10.8723088,9.08553846 10.4016289,9.1591033 10.1528329,9.1591033 C9.75304533,9.1591033 9.49511331,9.02526593 9.44695467,8.89304615 C9.34716714,8.61904176 9.0424221,8.47753846 8.7667847,8.57649231 C8.49093484,8.67558681 8.34822946,8.9780044 8.448017,9.25193846 C8.66423513,9.84538022 9.3174221,10.2140484 10.1528329,10.2140484 C11.2019122,10.2140484 11.9346317,9.63551648 11.9346317,8.8071033 C11.9347025,7.68295385 10.8728045,7.51043516 10.2383853,7.4074022 Z" id="Shape"></path>
                            <path d="M20.0114731,7.4074022 C19.2390935,7.28193407 19.2065156,7.20696264 19.2065156,7.04949451 C19.2065156,6.77105934 19.6771246,6.69749451 19.9259207,6.69749451 C20.3256374,6.69749451 20.5835694,6.83133187 20.6318697,6.96348132 C20.7317989,7.23734505 21.0363314,7.37912967 21.3121813,7.27961319 C21.5880312,7.18030769 21.7305241,6.87781978 21.6305241,6.60395604 C21.4140227,6.01093626 20.7609065,5.64254945 19.9259207,5.64254945 C18.8768414,5.64254945 18.1441926,6.22108132 18.1441926,7.04949451 C18.1441926,8.17308132 19.2057365,8.34552967 19.8399433,8.44856264 C20.6128187,8.5741011 20.6453966,8.64921319 20.6453966,8.8071033 C20.6453966,9.08553846 20.1747167,9.1591033 19.9259207,9.1591033 C19.5260623,9.1591033 19.2681303,9.0251956 19.2199008,8.89297582 C19.1201133,8.61911209 18.8157224,8.47718681 18.5397309,8.57649231 C18.263881,8.67565714 18.1212465,8.97807473 18.2211048,9.25200879 C18.4373938,9.84545055 19.0905807,10.2140484 19.9259207,10.2140484 C20.975,10.2140484 21.7077195,9.63551648 21.7077195,8.8071033 C21.7077195,7.68295385 20.6458924,7.51043516 20.0114731,7.4074022 Z" id="Shape"></path>
                            <path d="M16.7344193,5.67511209 C16.5255666,5.59866374 16.2910765,5.65956923 16.1466714,5.82751648 L15.0393768,7.11574505 L13.9320822,5.82751648 C13.7876771,5.6594989 13.5529745,5.59859341 13.3443343,5.67511209 C13.1356232,5.75149011 12.9969547,5.94904615 12.9969547,6.17002198 L12.9969547,9.68650549 C12.9969547,9.97781099 13.2347025,10.213978 13.5281161,10.213978 C13.8215297,10.213978 14.0592776,9.97781099 14.0592776,9.68650549 L14.0592776,7.60045714 L14.6354108,8.2706989 C14.7363314,8.38807912 14.8839235,8.45573626 15.0393768,8.45573626 C15.19483,8.45573626 15.3424221,8.38814945 15.4433428,8.2706989 L16.0194759,7.60045714 L16.0194759,9.68650549 C16.0194759,9.97781099 16.2572238,10.213978 16.5506374,10.213978 C16.844051,10.213978 17.0817989,9.97781099 17.0817989,9.68650549 L17.0817989,6.17002198 C17.0817989,5.94904615 16.9431303,5.75156044 16.7344193,5.67511209 Z" id="Shape"></path>
                            <path d="M22.0050283,2.28205714 C20.1390227,0.810408791 17.6652975,0 15.0393059,0 C12.4133144,0 9.93944759,0.810479121 8.07358357,2.28205714 C6.17174221,3.78204835 5.12436261,5.78721758 5.12436261,7.92826374 C5.12436261,11.6864703 8.37981586,14.8915341 12.9252833,15.6761319 C13.0080028,16.8478242 12.5812323,18.0109363 11.7468839,18.847367 C11.5959632,18.9986462 11.5514873,19.2251077 11.6339943,19.4216088 C11.7165014,19.6180396 11.9098442,19.7460396 12.124221,19.7460396 C14.5532578,19.7460396 16.6391643,18.0240879 17.1308782,15.6799297 C21.6883144,14.9020132 24.9543201,11.6928 24.9543201,7.92826374 C24.9543909,5.78728791 23.9069405,3.78204835 22.0050283,2.28205714 Z M16.5848442,14.6965099 C16.3082153,14.7344879 16.1083569,14.9785319 16.1275496,15.2552088 C16.1276912,15.2576703 16.1279037,15.2600615 16.1281161,15.2625231 C15.8836402,16.8153319 14.7672805,18.0573538 13.3244334,18.5082374 C13.8785411,17.5335385 14.1062323,16.3896264 13.9490793,15.2580923 C13.9491501,15.2570374 13.949221,15.2560527 13.9492918,15.2550681 C13.9684844,14.9784615 13.7686261,14.7343473 13.492068,14.6963692 C9.25906516,14.1153758 6.18675637,11.2689934 6.18675637,7.92833407 C6.18675637,4.13833846 10.1580028,1.05501538 15.0393768,1.05501538 C19.9208215,1.05501538 23.8921388,4.13833846 23.8921388,7.92833407 C23.892068,11.269556 20.8189802,14.1160791 16.5848442,14.6965099 Z" id="Shape"></path>
                        </g>
                    </g>
                </g>
            </g>
        </g>
    </g>
</svg>