<?xml version="1.0" encoding="utf-8"?>
<!-- Generator: Adobe Illustrator 23.0.2, SVG Export Plug-In . SVG Version: 6.00 Build 0)  -->
<svg version="1.1" id="Layer_1" xmlns="http://www.w3.org/2000/svg" xmlns:xlink="http://www.w3.org/1999/xlink" x="0px" y="0px"
	 viewBox="0 0 31 30" style="enable-background:new 0 0 31 30;" xml:space="preserve">
<style type="text/css">
	.st0{fill:#2C334C;}
</style>
<g id="Page-1-Copy-5">
	<g id="Account-new-2" transform="translate(-818.000000, -478.000000)">
		<g id="Group-25" transform="translate(195.000000, 238.000000)">
			<g id="Group-15" transform="translate(581.000000, 57.000000)">
				<g id="Group-19" transform="translate(0.000000, 140.000000)">
					<g id="computer" transform="translate(42.000000, 43.000000)">
						<path id="Shape" class="st0" d="M11.7,22.1l-0.2,2.3c0,0.2,0,0.4,0.2,0.5c0.1,0.1,0.3,0.2,0.5,0.2h7c0.2,0,0.4-0.1,0.5-0.2
							c0.1-0.1,0.2-0.3,0.2-0.5l-0.2-2.3h8.7c1.4,0,2.4-1.1,2.4-2.5V2.5c0-1.4-1.1-2.5-2.4-2.5H2.5C1.2,0,0.1,1.1,0.1,2.5v17.2
							c0,1.4,1.1,2.5,2.4,2.5H11.7z M18.4,23.8h-5.5l0.2-1.7h5.1L18.4,23.8z M2.5,1.3h25.7c0.6,0,1.1,0.5,1.1,1.1v15.1H1.4V2.5
							C1.4,1.8,1.9,1.3,2.5,1.3z M1.4,19.6v-0.7h27.9v0.7c0,0.6-0.5,1.1-1.1,1.1H2.5C1.9,20.8,1.4,20.3,1.4,19.6z"/>
						<path class="st0" d="M28.2,29.6c0.1-0.2,0.1-0.4,0-0.7l-1.3-2.5c-0.1-0.2-0.3-0.4-0.6-0.4H4.4c-0.2,0-0.5,0.1-0.6,0.4L2.5,29
							c-0.1,0.2-0.1,0.5,0,0.7C2.7,29.8,2.9,30,3.1,30h24.5C27.8,30,28,29.8,28.2,29.6z M4.2,28.6l0.6-1.2h21.1l0.6,1.2H4.2z"/>
					</g>
				</g>
			</g>
		</g>
	</g>
</g>
</svg>
