<?xml version="1.0" encoding="UTF-8"?>
<svg width="10px" height="8px" viewBox="0 0 10 8" version="1.1" xmlns="http://www.w3.org/2000/svg" xmlns:xlink="http://www.w3.org/1999/xlink">
    <!-- Generator: Sketch 51.3 (57544) - http://www.bohemiancoding.com/sketch -->
    <title>Path</title>
    <desc>Created with Sketch.</desc>
    <defs></defs>
    <g id="Account-Copy" stroke="none" stroke-width="1" fill="none" fill-rule="evenodd">
        <g id="Account-17" transform="translate(-812.000000, -371.000000)" fill="#D8D8D8" stroke="#18AC72" stroke-width="0.703999954">
            <g id="Check-Copy-5" transform="translate(810.000000, 368.000000)">
                <g id="Group-5">
                    <path d="M10.9072464,4.4754717 C10.9683877,4.42464623 10.9993056,4.36049528 11,4.28301887 C10.9993056,4.20554245 10.9683877,4.13761792 10.9072464,4.07924528 C10.8551932,4.02709316 10.7894928,4.00067807 10.7101449,4 C10.6307669,4.00064858 10.5612017,4.02706368 10.5014493,4.07924528 L5.14492754,9.32075472 L3.48695652,7.70188679 C3.43490338,7.64970519 3.3692029,7.62329009 3.28985507,7.62264151 C3.21050725,7.62331958 3.14094203,7.64973467 3.08115942,7.70188679 C3.02774758,7.76025943 3.00069444,7.82818396 3,7.90566038 C3.00066425,7.98313679 3.02771739,8.04728774 3.08115942,8.09811321 L4.93623188,9.90943396 C4.9959843,9.96913325 5.06554952,9.99932193 5.14492754,10 C5.22427536,9.99932193 5.28997585,9.96913325 5.34202899,9.90943396 L10.9072464,4.4754717 Z" id="Path"></path>
                </g>
            </g>
        </g>
    </g>
</svg>