<?xml version="1.0" encoding="UTF-8"?>
<svg width="30px" height="30px" viewBox="0 0 30 30" version="1.1" xmlns="http://www.w3.org/2000/svg" xmlns:xlink="http://www.w3.org/1999/xlink">
    <!-- Generator: Sketch 53.2 (72643) - https://sketchapp.com -->
    <title>usb-2</title>
    <desc>Created with Sketch.</desc>
    <g id="Page-1-Copy-5" stroke="none" stroke-width="1" fill="none" fill-rule="evenodd">
        <g id="Account-new-2" transform="translate(-818.000000, -618.000000)" fill="#18A3AC" fill-rule="nonzero">
            <g id="Group-25" transform="translate(195.000000, 238.000000)">
                <g id="Group-15" transform="translate(581.000000, 57.000000)">
                    <g id="Group-19" transform="translate(0.000000, 280.000000)">
                        <g id="usb-2" transform="translate(42.000000, 43.000000)">
                            <path d="M28.9736385,5.80764773 L24.1438231,0.96862793 C23.5204222,0.344009414 22.6891447,0 21.8030427,0 C20.9169408,0 20.0856634,0.344009414 19.4624909,0.96862793 L13.5327577,6.90994266 L13.1192891,6.4956665 C12.7766356,6.15257262 12.2213085,6.15257262 11.878655,6.4956665 L1.6783169,16.7156982 C0.595988655,17.8001404 0,19.2471313 0,20.7900238 C0,22.3326874 0.595988655,23.7796784 1.6783169,24.8641205 L5.12449743,28.3170319 C6.20682567,29.401474 7.65099596,29.9986267 9.19088082,29.9986267 C10.7307657,29.9986267 12.1747076,29.401474 13.2570358,28.3170319 L23.4571455,18.0967712 C23.7997989,17.7534485 23.7997989,17.1970368 23.4571455,16.8539429 L23.0436769,16.4394379 L28.9736385,10.4978943 C30.2643001,9.20471191 30.2643001,7.10060121 28.9736385,5.80764773 L28.9736385,5.80764773 Z M12.0166301,27.0742035 C11.2655336,27.8265381 10.2620157,28.2408142 9.19088082,28.2408142 C8.11951754,28.2408142 7.11599965,27.8265381 6.36490316,27.0742035 L2.91895099,23.6212921 C2.1678545,22.8689575 1.75438596,21.8632507 1.75438596,20.7900238 C1.75438596,19.716568 2.1678545,18.7110901 2.91895099,17.9587555 L12.4990863,8.36013797 L21.5965369,17.4753571 L12.0166301,27.0742035 Z M27.7330044,9.25506592 L21.8032712,15.1966095 L14.7731634,8.15299986 L20.703125,2.21145633 C20.9950658,1.91871645 21.3856908,1.7578125 21.8030427,1.7578125 C22.2206232,1.7578125 22.6112482,1.91894531 22.9034174,2.21145633 L27.7332328,7.05047607 C28.3397295,7.65815736 28.3397295,8.64715576 27.7330044,9.25506592 Z" id="Shape"></path>
                            <path d="M20.149397,5.80490109 L19.4602065,6.49543764 C19.117553,6.83876039 19.117553,7.39517215 19.4602065,7.73849484 C19.6313048,7.90992738 19.8558571,7.99575809 20.0804094,7.99575809 C20.3047332,7.99575809 20.5292854,7.90992738 20.7006122,7.73849484 L21.3898026,7.04795836 C21.7322277,6.70463561 21.7322277,6.14822391 21.3898026,5.80490109 C21.0471491,5.46180727 20.491822,5.46180727 20.149397,5.80490109 Z" id="Shape"></path>
                            <path d="M22.9059302,8.56704715 L22.2167398,9.25758363 C21.8740863,9.60090639 21.8740863,10.1573181 22.2167398,10.500412 C22.3880665,10.6720734 22.6126188,10.757904 22.8369426,10.757904 C23.0614949,10.757904 23.2858187,10.6720734 23.4571455,10.500412 L24.1463359,9.80987549 C24.4889894,9.4667816 24.4889894,8.91036984 24.1463359,8.56704715 C23.8039108,8.22395326 23.2483553,8.22395326 22.9059302,8.56704715 Z" id="Shape"></path>
                        </g>
                    </g>
                </g>
            </g>
        </g>
    </g>
</svg>