<svg version="1.1" xmlns="http://www.w3.org/2000/svg" xmlns:xlink="http://www.w3.org/1999/xlink" width="16" height="18" viewBox="0 0 16 18"><path id="compte" d="M15.385,17.072 C15.385,17.072 0.616,17.072 0.616,17.072 C0.276,17.072 0.000,16.800 0.000,16.465 C0.000,16.465 0.000,14.645 0.000,14.645 L0.000,14.645 C0.000,14.645 0.000,14.645 0.000,14.645 C0.000,14.555 0.024,14.470 0.060,14.393 C0.068,14.376 0.082,14.363 0.092,14.346 C0.126,14.288 0.165,14.237 0.215,14.193 C0.220,14.189 0.222,14.182 0.227,14.179 C1.667,12.636 3.758,11.548 6.154,11.170 C6.154,11.170 6.154,9.319 6.154,9.319 C4.700,8.539 3.693,6.874 3.693,4.939 C3.693,2.258 5.621,0.085 8.000,0.085 C10.379,0.085 12.308,2.258 12.308,4.939 C12.308,6.874 11.300,8.539 9.846,9.319 C9.846,9.319 9.846,11.170 9.846,11.170 C12.243,11.548 14.333,12.636 15.773,14.179 C15.778,14.182 15.781,14.189 15.786,14.193 C15.836,14.237 15.875,14.288 15.909,14.346 C15.919,14.363 15.932,14.376 15.941,14.393 C15.977,14.470 16.000,14.555 16.000,14.645 C16.000,14.645 16.000,14.645 16.000,14.645 L16.000,14.645 C16.000,14.645 16.000,16.465 16.000,16.465 C16.000,16.800 15.725,17.072 15.385,17.072 zM11.077,4.939 C11.077,2.928 9.700,1.299 8.000,1.299 C6.301,1.299 4.923,2.928 4.923,4.939 C4.923,6.949 6.301,8.579 8.000,8.579 C9.700,8.579 11.077,6.949 11.077,4.939 zM13.766,14.039 C13.766,14.039 13.797,14.039 13.797,14.039 C12.510,13.088 10.653,12.550 9.045,12.276 C9.045,12.276 9.011,12.175 9.011,12.175 C8.781,12.087 8.616,11.870 8.616,11.612 C8.616,11.612 8.616,9.737 8.616,9.737 C8.414,9.770 8.210,9.792 8.000,9.792 C7.791,9.792 7.586,9.770 7.385,9.737 C7.385,9.737 7.385,11.612 7.385,11.612 C7.385,11.947 7.109,12.219 6.770,12.219 C5.283,12.474 3.852,12.960 2.637,13.746 C1.268,14.536 1.231,15.252 1.231,15.252 L1.231,15.252 L1.231,15.859 L14.770,15.859 L14.770,15.252 C14.770,15.252 14.770,15.252 14.770,15.252 C14.770,14.746 14.295,14.342 13.766,14.039 z" fill="#BBBBBB" /></svg>