<?xml version="1.0" encoding="utf-8"?>
<!-- Generator: Adobe Illustrator 22.0.1, SVG Export Plug-In . SVG Version: 6.00 Build 0)  -->
<!DOCTYPE svg PUBLIC "-//W3C//DTD SVG 1.1//EN" "http://www.w3.org/Graphics/SVG/1.1/DTD/svg11.dtd">
<svg version="1.1" id="Слой_1" xmlns="http://www.w3.org/2000/svg" xmlns:xlink="http://www.w3.org/1999/xlink" x="0px" y="0px"
	 viewBox="0 0 30 26" style="enable-background:new 0 0 30 26;" xml:space="preserve">
<title>Group</title>
<desc>Created with Sketch.</desc>
<g id="Account-Copy">
	<g id="Account-9" transform="translate(-669.000000, -301.000000)">
		<g id="Group-Copy-2" transform="translate(416.000000, 264.000000)">
			<g id="cloud-computing-3" transform="translate(253.000000, 37.000000)">
				<g id="Group" transform="translate(0.083919, 0.733770)">
					<g id="Shape">
						<g>
							<polygon id="path-2" points="4.6,4.5 11.3,4.5 11.3,6.7 4.6,6.7 							"/>
						</g>
					</g>
					<g id="Shape_1_">
						<g>
							<polygon id="path-3" points="4.6,8.9 11.3,8.9 11.3,11.1 4.6,11.1 							"/>
						</g>
					</g>
					<g id="Shape_2_">
						<g>
							<polygon id="path-4" points="4.6,13.3 11.3,13.3 11.3,15.5 4.6,15.5 							"/>
						</g>
					</g>
					<g id="Shape_3_">
						<g>
							<path id="path-5" d="M28.1,0.1H16.9c-0.8,0-1.6,0.3-2.2,0.9c-0.6-0.5-1.4-0.9-2.2-0.9H1.3c-0.6,0-1.1,0.5-1.1,1.1v21.9
								c0,0.6,0.5,1.1,1.1,1.1h26.9c0.6,0,1.1-0.5,1.1-1.1V1.2C29.2,0.6,28.7,0.1,28.1,0.1z M2.4,2.3h10.1c0.6,0,1.1,0.5,1.1,1.1
								v18.7H2.4V2.3z M27,22.1H15.8V3.4c0-0.6,0.5-1.1,1.1-1.1H27V22.1z"/>
						</g>
					</g>
					<g id="Shape_4_">
						<g>
							<polygon id="path-6" points="18,4.5 24.8,4.5 24.8,6.7 18,6.7 							"/>
						</g>
					</g>
					<g id="Shape_5_">
						<g>
							<polygon id="path-7" points="18,8.9 24.8,8.9 24.8,11.1 18,11.1 							"/>
						</g>
					</g>
					<g id="Shape_6_">
						<g>
							<polygon id="path-8" points="18,13.3 24.8,13.3 24.8,15.5 18,15.5 							"/>
						</g>
					</g>
					<g id="Shape_7_">
						<g>
							<polygon id="path-9" points="4.6,17.7 11.3,17.7 11.3,19.9 4.6,19.9 							"/>
						</g>
					</g>
					<g id="Shape_8_">
						<g>
							<polygon id="path-10" points="18,17.7 24.8,17.7 24.8,19.9 18,19.9 							"/>
						</g>
					</g>
				</g>
			</g>
		</g>
	</g>
</g>
</svg>
