<?xml version="1.0" encoding="utf-8"?>
<!-- Generator: Adobe Illustrator 23.0.2, SVG Export Plug-In . SVG Version: 6.00 Build 0)  -->
<svg version="1.1" id="Layer_1" xmlns="http://www.w3.org/2000/svg" xmlns:xlink="http://www.w3.org/1999/xlink" x="0px" y="0px"
	 viewBox="0 0 20 20" style="enable-background:new 0 0 20 20;" xml:space="preserve">
<style type="text/css">
	.st0{fill:#89929E;}
</style>
<title>user</title>
<desc>Created with Sketch.</desc>
<g id="Page-1-Copy-5">
	<g id="Account-new-1" transform="translate(-418.000000, -250.000000)">
		<g transform="translate(30.000000, 80.000000)">
			<g id="Group-17" transform="translate(346.000000, 142.000000)">
				<g id="Group-15" transform="translate(42.000000, 26.000000)">
					<g id="Group-14" transform="translate(0.000000, 3.000000)">
						<g id="user" transform="translate(1.000000, 0.000000)">
							<g id="Shape">
								<path class="st0" d="M9,18.2c-0.3,0-0.5,0-0.8,0l-0.1,0c-0.2,0-0.5-0.1-0.7-0.1l-0.1,0c-0.8-0.1-1.5-0.4-2.2-0.7l0,0
									c-0.2-0.1-0.4-0.2-0.6-0.3l-0.1-0.1c-0.2-0.1-0.4-0.2-0.5-0.4c-0.1,0-0.1-0.1-0.2-0.1c-0.2-0.1-0.3-0.2-0.5-0.4l-0.1,0
									l-0.5-0.4l0,0C0.8,13.9-0.2,11.5-0.2,9c0-5.1,4.1-9.2,9.2-9.2c5.1,0,9.2,4.1,9.2,9.2c0,2.5-1,4.9-2.9,6.7l0,0l-0.5,0.5
									c-0.2,0.1-0.3,0.2-0.5,0.4c-0.1,0.1-0.1,0.1-0.2,0.1c-0.2,0.1-0.3,0.2-0.5,0.3L13.5,17c-0.2,0.1-0.4,0.2-0.6,0.3l0,0l-0.1,0
									c-0.7,0.3-1.4,0.6-2.2,0.7l-0.1,0c-0.2,0-0.5,0.1-0.7,0.1l-0.1,0C9.5,18.2,9.3,18.2,9,18.2z M9.7,17.8L9.8,18L9.7,17.8
									c0.3,0,0.6-0.1,0.8-0.1l0.1,0.2l0-0.2c0.7-0.1,1.4-0.4,2.1-0.7l0.2,0.1L12.7,17c0.2-0.1,0.4-0.2,0.6-0.3l0.1-0.1
									c0.2-0.1,0.3-0.2,0.5-0.3c0.1,0,0.1-0.1,0.2-0.1c0.2-0.1,0.3-0.2,0.4-0.3l0.4-0.3c1.8-1.7,2.9-4,2.9-6.5
									c0-4.9-3.9-8.8-8.8-8.8S0.2,4.1,0.2,9c0,2.5,1,4.8,2.9,6.5l0.2,0.1l0,0l0.1,0.1l-0.1,0.2l0.1-0.2c0.2,0.1,0.3,0.2,0.5,0.4
									c0.1,0,0.1,0.1,0.2,0.1c0.2,0.1,0.3,0.2,0.5,0.3l0.1,0.1c0.2,0.1,0.4,0.2,0.6,0.3l0,0c0.7,0.3,1.4,0.5,2.1,0.7l0.1,0
									c0.2,0,0.5,0.1,0.7,0.1l0.1,0C8.8,17.8,9.2,17.8,9.7,17.8z M9,17.5c-0.2,0-0.4,0-0.6,0l-0.1,0c-0.2,0-0.4,0-0.6-0.1
									c-0.5-0.1-0.9-0.2-1.3-0.3c-0.2-0.1-0.4-0.2-0.6-0.2h0l-0.1,0c-0.2-0.1-0.4-0.2-0.5-0.3l0-0.2L5,16.5
									c-0.2-0.1-0.3-0.2-0.5-0.3l-0.1-0.1C4.2,16,4,15.9,3.9,15.8l-0.2-0.2l0.2-0.2L6.5,14c0.4-0.2,0.6-0.6,0.6-1l0-1.1l0,0l0,0
									c0,0-0.7-0.9-1-2.1l0-0.1l0,0C5.8,9.5,5.6,9.3,5.6,9V7.9c0-0.2,0.1-0.4,0.2-0.5l0,0V5.6c0-0.1-0.1-0.9,0.5-1.6
									C7,3.4,7.8,3.1,9,3.1c1.2,0,2,0.3,2.6,0.9c0.6,0.7,0.5,1.6,0.5,1.6l0,1.7l0,0c0.2,0.1,0.2,0.3,0.2,0.5V9
									c0,0.3-0.2,0.6-0.5,0.7l-0.1,0l0,0.1c-0.2,0.6-0.5,1.2-0.8,1.7c-0.1,0.1-0.2,0.2-0.3,0.3l0,0V13c0,0.5,0.3,0.9,0.7,1.1
									l3.1,1.5l-0.3,0.3l-0.1-0.1l0,0l0.1,0.1c-0.1,0.1-0.2,0.2-0.4,0.2l-0.2,0.1c-0.2,0.1-0.3,0.2-0.5,0.3l-0.1,0.1
									c-0.4,0.2-0.8,0.4-1.2,0.5l-0.1,0c-0.2,0.1-0.4,0.1-0.6,0.2l0,0l-0.1,0c-0.2,0-0.4,0.1-0.6,0.1c-0.2,0-0.4,0.1-0.6,0.1
									l-0.1,0C9.4,17.5,9.2,17.5,9,17.5z M5.8,16.5L5.8,16.5c0.2,0.1,0.4,0.2,0.6,0.2C6.8,16.9,7.2,17,7.7,17
									c0.2,0,0.4,0.1,0.6,0.1l0.1,0c0.5,0,0.8,0,1.2,0l0.1,0c0.2,0,0.4,0,0.6-0.1c0.2,0,0.4-0.1,0.6-0.1l0,0l0.1,0
									c0.2,0,0.4-0.1,0.6-0.2c0.4-0.1,0.8-0.3,1.2-0.5l0.1-0.1c0.2-0.1,0.3-0.2,0.5-0.3l0.1-0.1c0.1-0.1,0.1-0.1,0.2-0.1l-2.5-1.3
									c-0.5-0.3-0.9-0.8-0.9-1.4v-1.3l0.1-0.1c0.1-0.1,0.1-0.2,0.2-0.3c0.3-0.5,0.6-1,0.8-1.6l0.1-0.3l0.3-0.1
									C11.9,9.3,12,9.2,12,9V7.9c0-0.1,0-0.2-0.1-0.3l-0.2-0.2l0-2c0,0,0.1-0.8-0.4-1.3C10.8,3.7,10.1,3.5,9,3.5
									c-1.1,0-1.8,0.3-2.3,0.7C6.3,4.8,6.3,5.5,6.3,5.5l0,0.1l0,1.9L6.2,7.6C6.1,7.7,6,7.8,6,7.9V9c0,0.1,0.1,0.2,0.2,0.3l0.2,0.1
									l0,0.2c0.3,1.1,0.9,1.9,0.9,1.9l0.1,0.1l0,1.3c0,0.6-0.3,1.1-0.8,1.4l-2.3,1.3c0.1,0.1,0.1,0.1,0.2,0.1l0.1,0.1
									C4.8,16,5,16.1,5.2,16.2l0,0.2l0.1-0.2C5.4,16.3,5.6,16.4,5.8,16.5L5.8,16.5z M13.9,15.8L13.9,15.8L13.9,15.8L13.9,15.8
									L13.9,15.8z M14.5,15.5l-0.1-0.1c-0.1-0.1-0.2-0.1-0.3-0.2l-2.8-1.4c-0.3-0.2-0.5-0.5-0.5-0.8v-1l0-0.1
									c0.1-0.1,0.1-0.2,0.2-0.3c0.3-0.5,0.6-1,0.8-1.6l0-0.1l0.1,0c0.4-0.2,0.6-0.5,0.6-0.9V7.9c0-0.2-0.1-0.5-0.2-0.6l0-0.1V5.6
									c0-0.2,0.1-1.1-0.6-1.8c-0.6-0.6-1.5-1-2.8-1s-2.2,0.3-2.8,1C5.6,4.5,5.7,5.4,5.7,5.6l0,1.6l0,0.1C5.5,7.4,5.4,7.6,5.4,7.9
									V9c0,0.3,0.1,0.6,0.4,0.8l0.1,0l0,0.1c0.3,1,0.8,1.7,1,2l0,0.1v1c0,0.3-0.2,0.7-0.5,0.8l-2.6,1.4c-0.1,0-0.2,0.1-0.2,0.1
									l-0.1,0.1l-0.1-0.1C1.5,13.7,0.5,11.4,0.5,9c0-4.7,3.8-8.5,8.5-8.5s8.5,3.8,8.5,8.5c0,2.4-1,4.8-2.9,6.4L14.5,15.5z
									 M11.3,12.1V13c0,0.2,0.1,0.4,0.3,0.5l2.8,1.4c0.1,0,0.1,0.1,0.2,0.1c1.7-1.5,2.6-3.7,2.6-6c0-4.5-3.7-8.1-8.1-8.1
									S0.9,4.5,0.9,9c0,2.3,0.9,4.4,2.6,6c0,0,0.1-0.1,0.1-0.1l2.6-1.4c0.2-0.1,0.3-0.3,0.3-0.5v-0.9c-0.2-0.3-0.7-1.1-1-2
									C5.2,9.8,5,9.4,5,9V7.9C5,7.6,5.1,7.3,5.3,7V5.6c0-0.2-0.1-1.2,0.7-2.1C6.6,2.8,7.6,2.4,9,2.4s2.4,0.4,3.1,1.1
									c0.7,0.8,0.7,1.9,0.7,2.1l0,1.4C12.9,7.3,13,7.6,13,7.9V9c0,0.5-0.3,1-0.7,1.2c-0.2,0.6-0.5,1.2-0.9,1.7
									C11.4,12,11.3,12.1,11.3,12.1z"/>
							</g>
						</g>
					</g>
				</g>
			</g>
		</g>
	</g>
</g>
</svg>
