<svg version="1.1" xmlns="http://www.w3.org/2000/svg" xmlns:xlink="http://www.w3.org/1999/xlink" width="44" height="31" viewBox="0 0 44 31"><path id="analyse" d="M40.000,-0.009 C37.795,-0.009 36.001,1.774 36.001,3.965 C36.001,5.225 36.605,6.335 37.527,7.064 C37.527,7.064 27.716,24.312 27.716,24.312 C26.985,23.535 25.954,23.041 24.802,23.041 C24.014,23.041 23.285,23.276 22.665,23.668 C22.665,23.668 15.301,14.155 15.301,14.155 C15.742,13.516 16.002,12.745 16.002,11.914 C16.002,9.722 14.208,7.940 12.003,7.940 C9.797,7.940 8.003,9.722 8.003,11.914 C8.003,12.739 8.258,13.505 8.693,14.142 C8.693,14.142 5.088,18.440 5.088,18.440 C4.741,18.342 4.382,18.272 4.003,18.272 C1.798,18.272 0.004,20.055 0.004,22.247 C0.004,24.438 1.798,26.221 4.003,26.221 C6.209,26.221 8.003,24.438 8.003,22.247 C8.003,21.015 7.424,19.926 6.536,19.196 C6.536,19.196 9.845,15.250 9.845,15.250 C10.469,15.650 11.207,15.888 12.003,15.888 C12.789,15.888 13.519,15.653 14.139,15.261 C14.139,15.261 21.503,24.774 21.503,24.774 C21.062,25.413 20.802,26.184 20.802,27.016 C20.802,29.207 22.596,30.990 24.801,30.990 C27.007,30.990 28.801,29.207 28.801,27.016 C28.801,26.630 28.728,26.265 28.625,25.912 C28.650,25.881 28.677,25.853 28.698,25.817 C28.698,25.817 38.955,7.784 38.955,7.784 C39.290,7.875 39.636,7.939 40.000,7.939 C42.205,7.939 44.000,6.156 44.000,3.965 C44.000,1.774 42.205,-0.009 40.000,-0.009 zM4.003,24.631 C2.680,24.631 1.604,23.562 1.604,22.247 C1.604,20.932 2.680,19.862 4.003,19.862 C5.327,19.862 6.403,20.932 6.403,22.247 C6.403,23.562 5.327,24.631 4.003,24.631 zM12.003,14.298 C10.679,14.298 9.603,13.229 9.603,11.914 C9.603,10.599 10.679,9.529 12.003,9.529 C13.326,9.529 14.402,10.599 14.402,11.914 C14.402,13.229 13.326,14.298 12.003,14.298 zM24.802,29.400 C23.478,29.400 22.402,28.331 22.402,27.016 C22.402,25.701 23.478,24.631 24.802,24.631 C26.125,24.631 27.201,25.701 27.201,27.016 C27.201,28.331 26.125,29.400 24.802,29.400 zM40.000,6.350 C38.677,6.350 37.600,5.280 37.600,3.965 C37.600,2.650 38.677,1.581 40.000,1.581 C41.324,1.581 42.400,2.650 42.400,3.965 C42.400,5.280 41.324,6.350 40.000,6.350 z" fill="#FFFFFF" /></svg>