<?xml version="1.0" encoding="utf-8"?>
<!-- Generator: Adobe Illustrator 21.0.0, SVG Export Plug-In . SVG Version: 6.00 Build 0)  -->
<svg version="1.1" id="Слой_1" xmlns="http://www.w3.org/2000/svg" xmlns:xlink="http://www.w3.org/1999/xlink" x="0px" y="0px"
	 viewBox="0 0 100 100" style="enable-background:new 0 0 100 100;" xml:space="preserve">
<title>Animation 1.2</title>
<desc>Created with Sketch.</desc>
<g>
	<path d="M44,76.1c-1.3,1.3-1.3,3.5,0,4.8l0.1,0.1c0.8,0.6,1.6,0.9,2.3,0.9c1,0,1.9-0.4,2.4-1c1.3-1.3,1.3-3.5,0-4.9
		C47.6,74.8,45.3,74.9,44,76.1z"/>
	<path d="M50.8,69.2C50.8,69.2,50.8,69.2,50.8,69.2L50.8,69.2c-1.3,1.3-1.3,3.5,0,4.9c0.7,0.7,1.5,1,2.4,1c1,0,1.9-0.4,2.4-1
		c1.3-1.3,1.3-3.5,0-4.9C54.4,67.9,52.2,67.9,50.8,69.2z"/>
	<path d="M45.2,73.6c0.9,0,1.8-0.4,2.5-1c0.7-0.7,1-1.5,1-2.5c0-1.1-0.6-2.1-1.5-2.7c-1.6-1.2-3.4-0.7-4.4,0.4c-1,1-1.5,2.8-0.4,4.4
		C43.1,73,44.1,73.5,45.2,73.6C45.2,73.6,45.2,73.6,45.2,73.6z"/>
	<path d="M45.3,48.6c-1.8,0-3.5,1.6-3.5,3.5c0,1.8,1.6,3.5,3.5,3.5s3.5-1.6,3.5-3.5C48.8,50.2,47.2,48.6,45.3,48.6z"/>
	<path d="M69.6,55c-1.6-1.1-3.5-1.2-4.9,0.2c-0.6,0.7-0.9,1.5-0.9,2.4c0,0.9,0.3,1.7,1.1,2.5c0.7,0.6,1.6,0.9,2.4,0.9
		c1,0,1.9-0.4,2.4-1C70.9,58.6,70.9,56.4,69.6,55L69.6,55z"/>
	<path d="M45.2,45.7l0.5,0c1-0.2,1.8-0.7,2.4-1.5c0.5-0.7,0.7-1.5,0.5-2.4c-0.1-0.9-0.6-1.7-1.3-2.3c-0.7-0.6-1.6-0.8-2.6-0.7
		c-0.9,0.1-1.7,0.6-2.3,1.3c-0.6,0.7-0.8,1.6-0.7,2.6C41.9,44.4,43.3,45.7,45.2,45.7z"/>
	<path d="M71.5,48.1L71.5,48.1c-1.3,1.3-1.3,3.5,0,4.9c0.7,0.7,1.5,1,2.3,1c1,0,1.9-0.4,2.4-1c1.3-1.3,1.3-3.5,0-4.9
		C75.1,46.9,72.8,46.9,71.5,48.1z"/>
	<path d="M57.8,62.2c-1.4,1.4-1.4,3.5,0,4.9c0.7,0.6,1.6,0.9,2.4,0.9c1,0,1.9-0.4,2.4-1c0.7-0.7,1-1.5,1-2.4s-0.4-1.8-1-2.4
		C61.3,60.8,59.1,60.8,57.8,62.2z"/>
	<path d="M2.7,42.5c-0.9,0.1-1.8,0.5-2.4,1.2c-0.6,0.7-0.9,1.6-0.8,2.5c0.1,1.8,1.6,3.2,3.4,3.2H3l0,0c0.9-0.1,1.8-0.5,2.4-1.1
		c0.6-0.7,0.9-1.5,0.8-2.4c0-0.9-0.3-1.7-1-2.4C4.6,42.8,3.7,42.4,2.7,42.5z"/>
	<path d="M5.4,33L5.4,33c-1.1-0.3-2-0.2-2.8,0.2c-0.8,0.5-1.4,1.2-1.6,1.9C0.6,36,0.7,37,1.2,37.8c0.5,0.8,1.2,1.4,2,1.6
		c0.5,0.1,0.8,0.1,1.1,0.1c1.5,0,2.8-0.9,3.2-2.3C8.1,35.6,7.2,33.7,5.4,33z"/>
	<path d="M45.3,58.5c-1.8,0-3.5,1.6-3.5,3.5c0,1.8,1.6,3.5,3.5,3.5c1.9,0,3.5-1.6,3.5-3.6C48.7,59.9,47.2,58.5,45.3,58.5z"/>
	<path d="M11.5,25.2C10,24,8,24.1,6.6,25.4C6,26.1,5.6,26.9,5.7,28c0.1,1,0.5,1.8,1.1,2.2c0.6,0.6,1.4,0.9,2.3,0.9
		c0.9,0,1.8-0.4,2.6-1.1c0.6-0.6,0.9-1.5,0.9-2.6C12.6,26.6,12.2,25.8,11.5,25.2L11.5,25.2z"/>
	<path d="M15.9,19L15.9,19c-1.8,0.7-2.7,2.7-2.1,4.4c0.5,1.3,1.8,2.2,3.2,2.2c0.4,0,0.8-0.1,1-0.2l0.2,0c1.7-0.7,2.6-2.6,2.1-4.4
		C19.7,19.3,17.7,18.4,15.9,19z"/>
	<path d="M43.7,35.8c0.7-0.3,1.3-0.9,1.6-1.7c0.3-0.9,0.3-1.9-0.1-2.9l0,0c-0.5-0.8-1.2-1.4-2.1-1.6c-0.9-0.2-1.8-0.1-2.6,0.2
		c-0.8,0.5-1.4,1.2-1.6,2.1c-0.2,0.9-0.1,1.8,0.2,2.5c0.6,1.1,1.7,1.7,3,1.7C42.6,36.3,43.2,36.1,43.7,35.8z"/>
	<path d="M39,25.2c-0.1-0.9-0.6-1.7-1.3-2.3c-0.7-0.6-1.6-0.8-2.6-0.7c-0.9,0.1-1.7,0.6-2.3,1.3c-0.6,0.7-0.8,1.6-0.7,2.6
		c0.1,0.9,0.6,1.7,1.3,2.3c0.5,0.4,1.3,0.7,2.1,0.7c1,0,2.1-0.5,2.8-1.3C38.9,27.1,39.1,26.2,39,25.2z"/>
	<path d="M27.5,18.2c-1.8-0.5-3.7,0.7-4.2,2.6c-0.2,0.9-0.1,1.8,0.5,2.6c0.5,0.7,1.3,1.3,2.2,1.5l0.3,0c0.1,0,0.2,0.1,0.5,0.1
		c1.7,0,3.1-1.2,3.3-2.7c0.2-0.8,0.1-1.7-0.4-2.4C29.3,19,28.5,18.4,27.5,18.2z"/>
	<path d="M87,22.7c-7.1,0-13,5.8-13,13s5.8,13,13,13s13-5.8,13-13S94.2,22.7,87,22.7z"/>
</g>
</svg>
