<?xml version="1.0" encoding="utf-8"?>
<svg width="22" height="19" viewBox="0 0 22 19" fill="none" xmlns="http://www.w3.org/2000/svg">
<g id="ap-member-action-menu">
  <path fill-rule="evenodd" clip-rule="evenodd" d="M1.54386 0.808511H20.4561C20.8825 0.808511 21.2281 1.17049 21.2281 1.61702V13.3404C21.2281 13.787 20.8825 14.1489 20.4561 14.1489C20.4561 14.4723 20.3204 14.8227 20.2526 14.9574H20.4561C21.3088 14.9574 22 14.2335 22 13.3404V1.61702C22 0.723965 21.3088 0 20.4561 0H1.54386C0.69121 0 0 0.723965 0 1.61702V13.3404C0 14.2335 0.691209 14.9574 1.54386 14.9574H10.614C10.4596 14.7957 10.4211 14.3511 10.4211 14.1489H1.54386C1.11753 14.1489 0.77193 13.787 0.77193 13.3404V1.61702C0.77193 1.17049 1.11753 0.808511 1.54386 0.808511Z" fill="#89929E"/>
  <path fill-rule="evenodd" clip-rule="evenodd" d="M2.97415 9.26875C3.36823 8.856 3.90272 8.62411 4.46004 8.62411H7.89084C8.44816 8.62411 8.98265 8.856 9.37673 9.26875C9.77081 9.68151 9.9922 10.2413 9.9922 10.8251V11.7234C9.9922 11.9467 9.8194 12.1277 9.60624 12.1277C9.39308 12.1277 9.22027 11.9467 9.22027 11.7234V10.8251C9.22027 10.4558 9.08021 10.1016 8.83089 9.84046C8.58157 9.57933 8.24343 9.43262 7.89084 9.43262H4.46004C4.10745 9.43262 3.76931 9.57933 3.51999 9.84046C3.27067 10.1016 3.13061 10.4558 3.13061 10.8251V11.7234C3.13061 11.9467 2.9578 12.1277 2.74464 12.1277C2.53148 12.1277 2.35868 11.9467 2.35868 11.7234V10.8251C2.35868 10.2413 2.58007 9.68151 2.97415 9.26875Z" fill="#89929E"/>
  <path fill-rule="evenodd" clip-rule="evenodd" d="M6.17544 4.04255C5.44121 4.04255 4.846 4.66597 4.846 5.43499C4.846 6.20401 5.44121 6.82742 6.17544 6.82742C6.90967 6.82742 7.50487 6.20401 7.50487 5.43499C7.50487 4.66597 6.90967 4.04255 6.17544 4.04255ZM4.07408 5.43499C4.07408 4.21944 5.01489 3.23404 6.17544 3.23404C7.33599 3.23404 8.2768 4.21944 8.2768 5.43499C8.2768 6.65054 7.33599 7.63593 6.17544 7.63593C5.01489 7.63593 4.07408 6.65054 4.07408 5.43499Z" fill="#89929E"/>
  <path d="M11.9649 4.04255C11.9649 3.81929 12.1377 3.6383 12.3509 3.6383H19.2982C19.5114 3.6383 19.6842 3.81929 19.6842 4.04255C19.6842 4.26582 19.5114 4.44681 19.2982 4.44681H12.3509C12.1377 4.44681 11.9649 4.26582 11.9649 4.04255Z" fill="#89929E"/>
  <path d="M11.9649 6.46809C11.9649 6.24482 12.1377 6.06383 12.3509 6.06383H19.2982C19.5114 6.06383 19.6842 6.24482 19.6842 6.46809C19.6842 6.69135 19.5114 6.87234 19.2982 6.87234H12.3509C12.1377 6.87234 11.9649 6.69135 11.9649 6.46809Z" fill="#89929E"/>
  <path fill-rule="evenodd" clip-rule="evenodd" d="M15.4386 10.1064C15.3362 10.1064 15.2381 10.149 15.1657 10.2248C15.0933 10.3006 15.0526 10.4034 15.0526 10.5106V10.581C15.0518 10.7899 14.9927 10.994 14.8826 11.1682C14.7725 11.3424 14.6161 11.4791 14.4327 11.5614C14.4001 11.576 14.3658 11.5858 14.3307 11.5906C14.1641 11.6517 13.9848 11.6668 13.8102 11.6336C13.6091 11.5955 13.4236 11.495 13.2775 11.3454L13.2744 11.3423L13.2513 11.318C13.2154 11.2804 13.1727 11.2504 13.1259 11.2301C13.079 11.2097 13.0288 11.1993 12.9781 11.1993C12.9273 11.1993 12.8771 11.2097 12.8303 11.2301C12.7834 11.2504 12.7408 11.2802 12.705 11.3178L12.7047 11.3181C12.6688 11.3557 12.6403 11.4003 12.6209 11.4493C12.6015 11.4984 12.5915 11.551 12.5915 11.6041C12.5915 11.6573 12.6015 11.7099 12.6209 11.759C12.6403 11.808 12.6688 11.8526 12.7047 11.8902L12.731 11.9177C12.8739 12.0707 12.9698 12.2651 13.0062 12.4757C13.042 12.6821 13.019 12.8949 12.9404 13.0877C12.8688 13.2844 12.7434 13.4547 12.5798 13.5773C12.4128 13.7023 12.2139 13.7719 12.0087 13.7769L11.9996 13.777H11.9649C11.8625 13.777 11.7644 13.8196 11.692 13.8954C11.6196 13.9712 11.5789 14.0741 11.5789 14.1813C11.5789 14.2885 11.6196 14.3913 11.692 14.4671C11.7644 14.5429 11.8625 14.5855 11.9649 14.5855H12.0321C12.2315 14.5864 12.4264 14.6483 12.5927 14.7636C12.7585 14.8786 12.8886 15.0416 12.9673 15.2328C13.0491 15.4281 13.0734 15.6446 13.0371 15.8545C13.0006 16.0651 12.9048 16.2595 12.7619 16.4125L12.7589 16.4157L12.7357 16.4399C12.6998 16.4774 12.6712 16.5222 12.6518 16.5713C12.6324 16.6203 12.6224 16.6729 12.6224 16.7261C12.6224 16.7792 12.6324 16.8318 12.6518 16.8809C12.6712 16.9299 12.6997 16.9745 12.7356 17.0121L12.7359 17.0124C12.7717 17.05 12.8143 17.0798 12.8611 17.1001C12.908 17.1205 12.9582 17.131 13.0089 17.131C13.0597 17.131 13.1099 17.1205 13.1567 17.1001C13.2036 17.0798 13.2462 17.05 13.282 17.0124L13.3083 16.9848C13.4544 16.8351 13.64 16.7348 13.8411 16.6966C14.0382 16.6591 14.2413 16.6832 14.4253 16.7655C14.6131 16.8405 14.7758 16.9719 14.8928 17.1432C15.0122 17.3181 15.0786 17.5265 15.0834 17.7414L15.0835 17.7509V17.7872C15.0835 17.8944 15.1242 17.9973 15.1966 18.0731C15.2689 18.1489 15.3671 18.1915 15.4695 18.1915C15.5718 18.1915 15.67 18.1489 15.7424 18.0731C15.8148 17.9973 15.8554 17.8944 15.8554 17.7872V17.7185L15.8554 17.7169C15.8562 17.508 15.9153 17.3039 16.0255 17.1297C16.1352 16.9561 16.2909 16.8197 16.4735 16.7374C16.6599 16.6516 16.8666 16.6262 17.067 16.6642C17.2681 16.7024 17.4536 16.8028 17.5997 16.9525L17.6028 16.9556L17.6259 16.9799C17.6617 17.0175 17.7045 17.0475 17.7513 17.0678C17.7982 17.0881 17.8484 17.0986 17.8991 17.0986C17.9498 17.0986 18.0001 17.0881 18.0469 17.0678C18.0938 17.0475 18.1363 17.0176 18.1722 16.9801L18.1725 16.9797C18.2084 16.9422 18.2368 16.8976 18.2563 16.8485C18.2757 16.7995 18.2857 16.7468 18.2857 16.6937C18.2857 16.6406 18.2757 16.588 18.2563 16.5389C18.2368 16.4898 18.2084 16.4453 18.1725 16.4077L18.1462 16.3801C18.0033 16.2271 17.9074 16.0328 17.871 15.8221C17.8346 15.6123 17.8589 15.3958 17.9408 15.2005C18.0194 15.0093 18.1496 14.8463 18.3153 14.7313C18.4816 14.6159 18.6765 14.554 18.876 14.5532L18.8775 14.5532L18.9123 14.5532C19.0146 14.5532 19.1128 14.5106 19.1852 14.4348C19.2576 14.359 19.2982 14.2562 19.2982 14.1489C19.2982 14.0417 19.2576 13.9389 19.1852 13.8631C19.1128 13.7873 19.0146 13.7447 18.9123 13.7447H18.8467L18.8451 13.7447C18.6457 13.7438 18.4508 13.6819 18.2845 13.5666C18.1182 13.4512 17.9877 13.2875 17.9091 13.0954C17.8951 13.0612 17.8857 13.0253 17.8811 12.9886C17.8228 12.8141 17.8084 12.6262 17.8401 12.4434C17.8765 12.2328 17.9724 12.0384 18.1153 11.8854L18.1183 11.8822L18.1415 11.858C18.1774 11.8204 18.206 11.7757 18.2254 11.7266C18.2448 11.6775 18.2548 11.6249 18.2548 11.5718C18.2548 11.5187 18.2448 11.4661 18.2254 11.417C18.206 11.3679 18.1775 11.3233 18.1416 11.2858L18.1413 11.2855C18.1055 11.2479 18.0629 11.2181 18.016 11.1977C17.9692 11.1774 17.919 11.1669 17.8682 11.1669C17.8175 11.1669 17.7673 11.1774 17.7204 11.1977C17.6736 11.2181 17.631 11.2479 17.5952 11.2855L17.5689 11.313C17.4228 11.4627 17.2372 11.5631 17.0361 11.6013C16.8357 11.6394 16.629 11.6139 16.4425 11.5282C16.26 11.4458 16.1044 11.3095 15.9946 11.1359C15.8845 10.9617 15.8254 10.7576 15.8246 10.5486L15.8246 10.547V10.5106C15.8246 10.4034 15.7839 10.3006 15.7115 10.2248C15.6391 10.149 15.541 10.1064 15.4386 10.1064ZM14.6198 9.65308C14.837 9.42565 15.1315 9.29787 15.4386 9.29787C15.7457 9.29787 16.0402 9.42565 16.2574 9.65308C16.4745 9.88052 16.5965 10.189 16.5965 10.5106V10.546C16.5968 10.597 16.6113 10.6469 16.6382 10.6894C16.6652 10.7322 16.7036 10.7657 16.7485 10.7859L16.7523 10.7876C16.7982 10.8088 16.8491 10.8151 16.8984 10.8058C16.9472 10.7965 16.9922 10.7723 17.0279 10.7363L17.049 10.7141C17.1566 10.6013 17.2843 10.5119 17.4248 10.4509C17.5654 10.3898 17.7161 10.3584 17.8682 10.3584C18.0204 10.3584 18.1711 10.3898 18.3116 10.4509C18.4522 10.5119 18.5799 10.6013 18.6875 10.7141C18.795 10.8267 18.8803 10.9603 18.9385 11.1074C18.9968 11.2546 19.0267 11.4124 19.0267 11.5718C19.0267 11.7312 18.9968 11.889 18.9385 12.0362C18.8802 12.1834 18.7949 12.3171 18.6873 12.4297C18.6873 12.4297 18.6874 12.4296 18.6873 12.4297L18.666 12.452C18.6316 12.4893 18.6085 12.5365 18.5996 12.5876C18.5907 12.6393 18.5967 12.6926 18.617 12.7406C18.6279 12.7665 18.6361 12.7934 18.6416 12.821C18.6599 12.8492 18.6833 12.8735 18.7107 12.8925C18.7513 12.9207 18.7989 12.9359 18.8476 12.9362H18.9123C19.2194 12.9362 19.5139 13.0639 19.731 13.2914C19.9482 13.5188 20.0702 13.8273 20.0702 14.1489C20.0702 14.4706 19.9482 14.7791 19.731 15.0065C19.5139 15.2339 19.2194 15.3617 18.9123 15.3617H18.8785C18.8298 15.362 18.7822 15.3772 18.7416 15.4054C18.7008 15.4337 18.6688 15.4739 18.6495 15.521L18.6479 15.5249C18.6276 15.573 18.6216 15.6262 18.6305 15.6779C18.6394 15.729 18.6624 15.7762 18.6969 15.8135L18.718 15.8357C18.7181 15.8357 18.718 15.8356 18.718 15.8357C18.8256 15.9483 18.9111 16.0821 18.9694 16.2293C19.0276 16.3765 19.0576 16.5343 19.0576 16.6937C19.0576 16.8531 19.0276 17.0109 18.9694 17.1581C18.9111 17.3054 18.8257 17.4391 18.718 17.5518L18.4453 17.2657L18.7183 17.5514C18.6108 17.6642 18.4831 17.7536 18.3425 17.8147C18.202 17.8757 18.0513 17.9071 17.8991 17.9071C17.747 17.9071 17.5963 17.8757 17.4557 17.8147C17.3152 17.7537 17.1876 17.6643 17.0801 17.5516C17.08 17.5515 17.0801 17.5516 17.0801 17.5516L17.0587 17.5293C17.0231 17.4932 16.978 17.469 16.9293 17.4598C16.8799 17.4504 16.8291 17.4567 16.7832 17.4779L16.7794 17.4797C16.7344 17.4999 16.6961 17.5334 16.6691 17.5761C16.6422 17.6186 16.6277 17.6685 16.6274 17.7195V17.7872C16.6274 18.1089 16.5054 18.4174 16.2882 18.6448C16.0711 18.8722 15.7766 19 15.4695 19C15.1624 19 14.8679 18.8722 14.6507 18.6448C14.4336 18.4174 14.3116 18.1089 14.3116 17.7872V17.7567C14.3097 17.7052 14.2935 17.6555 14.2649 17.6136C14.2356 17.5707 14.1947 17.538 14.1475 17.5198C14.1398 17.5169 14.1323 17.5137 14.1249 17.5103C14.079 17.4891 14.0281 17.4827 13.9788 17.4921C13.93 17.5014 13.885 17.5256 13.8493 17.5616L13.8282 17.5838C13.8281 17.5838 13.8282 17.5837 13.8282 17.5838C13.7206 17.6965 13.5929 17.786 13.4524 17.847C13.3118 17.9081 13.1611 17.9395 13.0089 17.9395C12.8568 17.9395 12.7061 17.9081 12.5655 17.847C12.4251 17.786 12.2975 17.6967 12.19 17.5841C12.0824 17.4715 11.997 17.3377 11.9387 17.1905C11.8804 17.0433 11.8504 16.8854 11.8504 16.7261C11.8504 16.5667 11.8804 16.4089 11.9387 16.2616C11.997 16.1144 12.0824 15.9807 12.19 15.868L12.2112 15.8459C12.2456 15.8085 12.2687 15.7613 12.2776 15.7102C12.2865 15.6586 12.2805 15.6053 12.2602 15.5573L12.2586 15.5533C12.2393 15.5062 12.2073 15.466 12.1665 15.4377C12.1259 15.4095 12.0783 15.3944 12.0296 15.394H11.9649C11.6578 15.394 11.3633 15.2663 11.1462 15.0388C10.929 14.8114 10.807 14.5029 10.807 14.1813C10.807 13.8596 10.929 13.5512 11.1462 13.3237C11.3633 13.0963 11.6578 12.9685 11.9649 12.9685H11.9941C12.0432 12.9666 12.0907 12.9496 12.1307 12.9197C12.1716 12.889 12.2028 12.8461 12.2202 12.7966C12.223 12.7886 12.2261 12.7807 12.2294 12.7729C12.2496 12.7249 12.2556 12.6716 12.2467 12.62C12.2378 12.5689 12.2147 12.5217 12.1803 12.4843L12.1592 12.4622C12.0515 12.3495 11.9661 12.2158 11.9078 12.0686C11.8496 11.9213 11.8196 11.7635 11.8196 11.6041C11.8196 11.4448 11.8496 11.287 11.9078 11.1397C11.9661 10.9926 12.0514 10.8589 12.159 10.7463C12.2665 10.6336 12.3942 10.5442 12.5347 10.4832C12.6752 10.4222 12.8259 10.3907 12.9781 10.3907C13.1302 10.3907 13.2809 10.4222 13.4215 10.4832C13.562 10.5442 13.6897 10.6337 13.7973 10.7464L13.8184 10.7686C13.8541 10.8046 13.8991 10.8288 13.9479 10.8381C13.9973 10.8475 14.0481 10.8411 14.094 10.8199C14.1187 10.8085 14.1444 10.7999 14.1707 10.7941C14.1976 10.775 14.2209 10.7505 14.239 10.7218C14.2659 10.6792 14.2804 10.6294 14.2807 10.5784V10.5106C14.2807 10.189 14.4027 9.88052 14.6198 9.65308Z" fill="#89929E"/>
  <path fill-rule="evenodd" clip-rule="evenodd" d="M15.4386 13.3404C15.0123 13.3404 14.6667 13.7024 14.6667 14.1489C14.6667 14.5955 15.0123 14.9574 15.4386 14.9574C15.8649 14.9574 16.2105 14.5955 16.2105 14.1489C16.2105 13.7024 15.8649 13.3404 15.4386 13.3404ZM13.8947 14.1489C13.8947 13.2559 14.5859 12.5319 15.4386 12.5319C16.2912 12.5319 16.9825 13.2559 16.9825 14.1489C16.9825 15.042 16.2912 15.766 15.4386 15.766C14.5859 15.766 13.8947 15.042 13.8947 14.1489Z" fill="#89929E"/>
</g>
</svg>
