<svg width="25" height="21" viewBox="0 0 25 21" fill="none" xmlns="http://www.w3.org/2000/svg">
<path d="M19.4832 7.53113L19.7193 7.13831L19.3485 6.86899C19.0318 6.63896 18.6473 6.35528 18.3535 6.03075C18.0506 5.69606 17.9316 5.41396 17.9608 5.18087C17.9913 4.93734 18.1704 4.67006 18.4496 4.39721C18.5818 4.26807 18.7203 4.15289 18.8469 4.05108L18.9099 4.00075C19.006 3.92421 19.1141 3.83813 19.1809 3.77141C19.3549 3.59765 19.9601 3.03041 20.2474 2.76271L20.2537 2.75683L20.2598 2.75074C20.2854 2.7252 20.3678 2.65728 20.4893 2.59745C20.6084 2.53883 20.7407 2.5 20.8719 2.5C21.2768 2.5 21.7133 2.70633 22.029 3.06668C22.2479 3.31645 22.5071 3.55918 22.7175 3.74762C22.8154 3.83519 22.9054 3.91341 22.9774 3.976L22.9954 3.99166C23.0334 4.02468 23.0644 4.05174 23.0893 4.07381C23.1016 4.08474 23.1113 4.09354 23.1189 4.10051L23.1276 4.10866C23.1298 4.11074 23.1307 4.11166 23.1307 4.11166C23.222 4.20279 23.5342 4.57225 23.4968 5.02048C23.4832 5.18414 23.4762 5.30512 23.4702 5.40887C23.4619 5.55313 23.4555 5.66408 23.4357 5.81015C23.4056 6.03279 23.3437 6.31439 23.1777 6.83927C22.8955 7.73163 21.821 9.75866 20.5186 11.0592C19.8725 11.7043 18.8059 12.5149 17.6579 13.2634C16.5112 14.0111 15.3202 14.6729 14.4367 15.0327C13.2856 15.5016 12.4154 15.4461 12.0183 15.3966C11.8958 15.3813 11.6135 15.2823 11.2572 15.0583C10.9139 14.8425 10.5464 14.538 10.2455 14.1625C10.0688 13.9419 9.92879 13.78 9.81962 13.6548L9.80022 13.6325C9.69787 13.5152 9.63975 13.4485 9.59706 13.3908C9.55999 13.3408 9.54785 13.3145 9.53902 13.2881C9.52722 13.2528 9.51393 13.1931 9.50103 13.0643C9.49393 12.9934 9.52272 12.8695 9.62136 12.7047C9.71474 12.5487 9.83515 12.4159 9.90746 12.3503L11.8108 10.6225L11.8356 10.5915C11.8531 10.5696 11.9293 10.4982 12.0673 10.4321C12.1981 10.3694 12.3564 10.3253 12.5243 10.3253C12.8276 10.3253 12.9335 10.3647 12.9803 10.3891C13.0356 10.4179 13.0681 10.4506 13.1899 10.5726L13.2499 10.6327C13.4925 10.8749 14.1326 11.4361 14.4118 11.6777L14.6733 11.904L14.9773 11.7392C15.0496 11.7 15.1305 11.6574 15.2184 11.6112C15.8956 11.2549 16.9931 10.6777 17.8423 9.69939C18.7447 8.65964 19.2961 7.84248 19.4832 7.53113Z" fill="#89929E"/>
<path fill-rule="evenodd" clip-rule="evenodd" d="M0 10.2C0 4.5 4.5 0 10.05 0C13.1204 0 15.9154 1.42319 17.7999 3.63462C17.7836 3.65015 17.7672 3.66592 17.7508 3.68193C17.4691 3.95714 17.1333 4.35535 17.0072 4.85257C15.9446 3.5479 14.471 2.55423 12.9 1.95L12 1.65L12.45 2.4C13.05 3.6 13.5 4.8 13.95 6.15V6.45H17.404C17.4712 6.53986 17.5417 6.62393 17.6122 6.7018C17.8514 6.96614 18.1292 7.2007 18.3789 7.39394C18.3257 7.47109 18.2654 7.55671 18.198 7.65H14.25V8.1C14.4 9 14.4 9.6 14.4 10.2C14.4 10.2442 14.4 10.2893 14.3999 10.3351C14.2163 10.1706 14.0488 10.0172 13.9566 9.9251C13.9493 9.91788 13.9419 9.91033 13.9342 9.90249C13.9263 9.89447 13.9181 9.88615 13.9098 9.87757C13.8002 9.76551 13.6473 9.60912 13.4427 9.50243C13.3159 9.4363 13.1792 9.39189 13.0269 9.36406C12.9957 8.96167 12.9223 8.53083 12.75 8.1V7.8H7.2V8.1C7.05 8.85 7.05 9.6 7.05 10.2C7.05 10.5959 7.0918 10.9918 7.13126 11.3656C7.16656 11.7 7.2 12.0167 7.2 12.3V12.6H8.57391C8.51799 12.7716 8.48592 12.9631 8.50604 13.164C8.52153 13.3187 8.54374 13.4646 8.5905 13.6047C8.64023 13.7537 8.70971 13.8728 8.79332 13.9858C8.82078 14.0229 8.85112 14.061 8.88345 14.1H7.5L7.65 14.55C8.1 16.05 8.85 17.4 9.75 18.75L10.05 19.2L10.2 18.75C10.74 18.03 11.226 17.202 11.6256 16.3309C11.7201 16.3586 11.8104 16.3783 11.8945 16.3888C12.1657 16.4227 12.5891 16.4549 13.129 16.3954C12.9293 16.9111 12.703 17.4072 12.45 17.85L12 18.75L12.9 18.45C15 17.7 16.65 16.35 17.7 14.55L17.7377 14.3991C17.894 14.3013 18.0497 14.2017 18.2041 14.1011C18.7901 13.719 19.366 13.3145 19.885 12.9161C18.6865 17.266 14.6816 20.4 10.05 20.4C4.5 20.4 0 15.75 0 10.2ZM10.35 1.65L10.05 1.2L9.75 1.65C8.85 2.85 8.1 4.35 7.65 5.85L7.5 6.3H12.6L12.45 5.85C12 4.35 11.25 3 10.35 1.65ZM7.2 1.95C5.1 2.7 3.45 4.05 2.4 5.85L2.1 6.45H6.3V6.15C6.6 4.8 7.05 3.6 7.65 2.4L8.1 1.65L7.2 1.95ZM1.2 10.2C1.2 10.95 1.35 11.7 1.5 12.45L1.65 12.75H5.85V12.3C5.85 12.0167 5.81656 11.7 5.78126 11.3656C5.7418 10.9918 5.7 10.5959 5.7 10.2C5.7 9.94418 5.71745 9.68837 5.7345 9.4385C5.76742 8.95582 5.79884 8.49535 5.7 8.1V7.65H1.5V7.95C1.35 8.7 1.2 9.45 1.2 10.2ZM2.4 14.55C3.45 16.35 5.25 17.7 7.2 18.45L7.95 18.75L7.5 17.85C6.9 16.8 6.45 15.6 6.15 14.25V13.95H2.1L2.4 14.55Z" fill="#89929E"/>
<path d="M18.4153 4.43119C19.5683 6.08185 20.25 8.07495 20.25 10.2C20.25 10.5981 20.2273 10.9903 20.1832 11.3755C19.7156 11.7955 19.1125 12.2633 18.45 12.7279V12.45C18.6 11.7 18.75 10.95 18.75 10.2C18.75 9.72352 18.6895 9.24704 18.6068 8.77057C19.0631 8.18426 19.3566 7.74186 19.4832 7.53113L19.7193 7.13831L19.3485 6.86899C19.0318 6.63896 18.6473 6.35528 18.3535 6.03075C18.0506 5.69606 17.9316 5.41396 17.9608 5.18087C17.99 4.94746 18.1558 4.69222 18.4153 4.43119Z" fill="#89929E"/>
<path d="M14.3491 11.6233C14.0462 11.3602 13.4758 10.8582 13.2499 10.6327L13.1899 10.5726C13.1187 10.5013 13.0781 10.4605 13.0455 10.4331C13.0337 10.7506 13.0005 11.0652 12.9687 11.3656C12.9334 11.7 12.9 12.0167 12.9 12.3V12.6H9.69007C9.66634 12.6333 9.64311 12.6683 9.62136 12.7047C9.52272 12.8695 9.49393 12.9934 9.50103 13.0643C9.51393 13.1931 9.52722 13.2528 9.53902 13.2881C9.54785 13.3145 9.55999 13.3408 9.59706 13.3908C9.63975 13.4485 9.69787 13.5152 9.80022 13.6325L9.81962 13.6548C9.91822 13.7679 10.042 13.9109 10.1952 14.1H12.45L12.3 14.55C12.2152 14.8327 12.1197 15.1154 12.0146 15.3961L12.0183 15.3966C12.2988 15.4316 12.8154 15.4695 13.5003 15.3235C13.6129 14.9604 13.7128 14.5989 13.8 14.25V13.95H16.5511C16.9169 13.7348 17.2897 13.5035 17.6579 13.2634C17.9169 13.0946 18.1717 12.9226 18.4185 12.75H14.25V12.3C14.2954 12.0731 14.327 11.8461 14.3491 11.6233Z" fill="#89929E"/>
</svg>
