<?xml version="1.0" encoding="utf-8"?>
<!-- Generator: Adobe Illustrator 21.0.0, SVG Export Plug-In . SVG Version: 6.00 Build 0)  -->
<svg version="1.1" id="Слой_1" xmlns="http://www.w3.org/2000/svg" xmlns:xlink="http://www.w3.org/1999/xlink" x="0px" y="0px"
	 viewBox="0 0 100 100" style="enable-background:new 0 0 100 100;" xml:space="preserve">
<style type="text/css">
	.st0{fill:#BBBBBB;}
</style>
<path id="select-bas" class="st0" d="M66.7,4.3c1.2-1.2,2.4-1.8,4.2-1.8c3.5,0,5.9,2.3,5.9,5.9c0,1.8-0.6,3-1.8,4.2l0,0L37.6,50
	L75,87.4l0,0c1.2,1.2,1.8,2.4,1.8,4.2c0,3.5-2.3,5.9-5.9,5.9c-1.8,0-3-0.6-4.2-1.8l0,0L25.1,54.3l0,0c-1.2-1.2-1.8-2.4-1.8-4.2
	s0.6-3,1.8-4.2l0,0L66.7,4.3L66.7,4.3z"/>
</svg>
