<svg version="1.1" xmlns="http://www.w3.org/2000/svg" xmlns:xlink="http://www.w3.org/1999/xlink" width="16" height="10" viewBox="0 0 16 10"><path id="select-bas" d="M15.707,1.806 L8.707,8.803 C8.707,8.803 8.707,8.803 8.707,8.803 C8.526,8.984 8.276,9.097 8.000,9.097 C7.724,9.097 7.474,8.984 7.293,8.803 C7.293,8.803 7.293,8.803 7.293,8.803 L0.293,1.806 C0.293,1.806 0.293,1.806 0.293,1.806 C0.112,1.625 0.000,1.375 0.000,1.099 C0.000,0.547 0.448,0.099 1.000,0.099 C1.276,0.099 1.526,0.211 1.707,0.392 C1.707,0.392 1.707,0.392 1.707,0.392 L8.000,6.683 L14.293,0.392 C14.293,0.392 14.293,0.392 14.293,0.392 C14.474,0.211 14.724,0.099 15.000,0.099 C15.553,0.099 16.000,0.547 16.000,1.099 C16.000,1.375 15.888,1.625 15.707,1.806 C15.707,1.806 15.707,1.806 15.707,1.806 z" fill="#BBBBBB" /></svg>