<?xml version="1.0" encoding="utf-8"?>
<!-- Generator: Adobe Illustrator 21.0.0, SVG Export Plug-In . SVG Version: 6.00 Build 0)  -->
<svg version="1.1" id="Слой_1" xmlns="http://www.w3.org/2000/svg" xmlns:xlink="http://www.w3.org/1999/xlink" x="0px" y="0px"
	 viewBox="0 0 100 100" style="enable-background:new 0 0 100 100;" xml:space="preserve">
<style type="text/css">
	.st0{fill:#BBBBBB;}
</style>
<path id="select-bas" class="st0" d="M33.4,4.3L75,45.9l0,0c1.2,1.2,1.8,2.4,1.8,4.2s-0.6,3-1.8,4.2l0,0L33.4,95.7l0,0
	c-1.2,1.2-2.4,1.8-4.2,1.8c-3.6,0-5.9-2.4-5.9-5.9c0-1.8,0.6-3,1.8-4.2l0,0L62.5,50L25.1,12.6l0,0c-1.2-1.2-1.8-2.4-1.8-4.2
	c0-3.6,2.4-5.9,5.9-5.9C31,2.5,32.2,3.1,33.4,4.3L33.4,4.3z"/>
</svg>
