<svg version="1.1" xmlns="http://www.w3.org/2000/svg" xmlns:xlink="http://www.w3.org/1999/xlink" width="40" height="22" viewBox="0 0 40 22"><path id="back-fleche" d="M12.010,20.987 C12.010,20.730 11.912,20.475 11.717,20.280 C11.717,20.280 3.406,11.967 3.406,11.967 C3.406,11.967 38.986,11.967 38.986,11.967 C39.538,11.967 39.985,11.520 39.985,10.967 C39.985,10.414 39.538,9.967 38.986,9.967 C38.986,9.967 3.406,9.967 3.406,9.967 C3.406,9.967 11.676,1.696 11.676,1.696 C12.067,1.305 12.067,0.673 11.676,0.282 C11.285,-0.109 10.654,-0.109 10.263,0.282 C10.263,0.282 0.286,10.259 0.286,10.259 C0.193,10.351 0.120,10.462 0.069,10.586 C-0.032,10.830 -0.032,11.105 0.069,11.350 C0.120,11.473 0.194,11.584 0.286,11.676 C0.286,11.676 10.304,21.693 10.304,21.693 C10.694,22.084 11.326,22.084 11.717,21.693 C11.913,21.499 12.010,21.242 12.010,20.987 z" fill="#5D5D5D" /></svg>