<svg width="16" height="16" viewBox="0 0 16 16" fill="none" xmlns="http://www.w3.org/2000/svg">
<path d="M13.0306 6.4706L8.5306 1.9706C8.46092 1.90068 8.37813 1.8452 8.28696 1.80734C8.1958 1.76949 8.09806 1.75 7.99935 1.75C7.90064 1.75 7.8029 1.76949 7.71173 1.80734C7.62057 1.8452 7.53778 1.90068 7.4681 1.9706L2.9681 6.4706C2.8272 6.61149 2.74805 6.80259 2.74805 7.00185C2.74805 7.2011 2.8272 7.3922 2.9681 7.5331C3.10899 7.67399 3.30009 7.75315 3.49935 7.75315C3.69861 7.75315 3.8897 7.67399 4.0306 7.5331L7.24997 4.31372V13.5012C7.24997 13.7001 7.32899 13.8909 7.46964 14.0316C7.61029 14.1722 7.80106 14.2512 7.99997 14.2512C8.19888 14.2512 8.38965 14.1722 8.5303 14.0316C8.67095 13.8909 8.74997 13.7001 8.74997 13.5012V4.31372L11.9693 7.53372C12.1102 7.67462 12.3013 7.75377 12.5006 7.75377C12.6999 7.75377 12.891 7.67462 13.0318 7.53372C13.1727 7.39282 13.2519 7.20173 13.2519 7.00247C13.2519 6.80321 13.1727 6.61212 13.0318 6.47122L13.0306 6.4706Z" fill="#0A0C11"/>
</svg>
