<svg version="1.1" xmlns="http://www.w3.org/2000/svg" xmlns:xlink="http://www.w3.org/1999/xlink" width="16" height="9" viewBox="0 0 16 9"><path id="select-haut" d="M0.293,7.288 L7.293,0.290 C7.293,0.290 7.293,0.290 7.293,0.290 C7.474,0.110 7.724,-0.003 8.000,-0.003 C8.276,-0.003 8.526,0.110 8.707,0.290 C8.707,0.290 8.707,0.290 8.707,0.290 L15.707,7.288 C15.707,7.288 15.707,7.288 15.707,7.288 C15.888,7.469 16.000,7.719 16.000,7.995 C16.000,8.547 15.552,8.995 15.000,8.995 C14.724,8.995 14.474,8.883 14.293,8.702 C14.293,8.702 14.293,8.702 14.293,8.702 L8.000,2.411 L1.707,8.702 C1.707,8.702 1.707,8.702 1.707,8.702 C1.526,8.883 1.276,8.995 1.000,8.995 C0.447,8.995 -0.000,8.547 -0.000,7.995 C-0.000,7.719 0.112,7.469 0.293,7.288 C0.293,7.288 0.293,7.288 0.293,7.288 z" fill="#BBBBBB" /></svg>