<svg width="16" height="14" viewBox="0 0 16 14" fill="none" xmlns="http://www.w3.org/2000/svg">
<path d="M9.72578 12.8532L15.3508 7.22819C15.4382 7.14109 15.5075 7.0376 15.5548 6.92364C15.6022 6.80969 15.6265 6.68751 15.6265 6.56413C15.6265 6.44074 15.6022 6.31856 15.5548 6.20461C15.5075 6.09065 15.4382 5.98716 15.3508 5.90006L9.72578 0.275064C9.54966 0.0989439 9.31079 4.04363e-07 9.06172 3.961e-07C8.81265 3.87837e-07 8.57378 0.0989439 8.39766 0.275064C8.22154 0.451185 8.12259 0.690055 8.12259 0.939127C8.12259 1.1882 8.22154 1.42707 8.39766 1.60319L12.4219 5.62741L0.9375 5.62741C0.688859 5.62741 0.450402 5.72618 0.274587 5.90199C0.0987718 6.07781 -2.76093e-07 6.31627 -2.86961e-07 6.56491C-2.9783e-07 6.81355 0.0987717 7.052 0.274587 7.22782C0.450402 7.40364 0.688859 7.50241 0.9375 7.50241L12.4219 7.50241L8.39687 11.5266C8.22075 11.7027 8.12181 11.9416 8.12181 12.1907C8.12181 12.4398 8.22075 12.6786 8.39687 12.8548C8.57299 13.0309 8.81186 13.1298 9.06094 13.1298C9.31001 13.1298 9.54888 13.0309 9.725 12.8548L9.72578 12.8532Z" fill="#110945"/>
</svg>
