<svg version="1.1" xmlns="http://www.w3.org/2000/svg" xmlns:xlink="http://www.w3.org/1999/xlink" width="15" height="11" viewBox="0 0 15 11"><path id="checked" d="M0.969,6.050 C0.862,5.940 0.808,5.775 0.808,5.665 C0.808,5.555 0.862,5.390 0.969,5.280 C0.969,5.280 1.722,4.510 1.722,4.510 C1.937,4.290 2.260,4.290 2.475,4.510 C2.475,4.510 2.529,4.565 2.529,4.565 C2.529,4.565 5.487,7.810 5.487,7.810 C5.595,7.920 5.756,7.920 5.864,7.810 C5.864,7.810 13.071,0.164 13.071,0.164 L13.125,0.164 L13.125,0.164 C13.125,0.164 13.125,0.164 13.125,0.164 C13.340,-0.055 13.663,-0.055 13.878,0.164 C13.878,0.164 14.631,0.935 14.631,0.935 C14.846,1.155 14.846,1.485 14.631,1.705 C14.631,1.705 14.631,1.705 14.631,1.705 L14.631,1.705 C14.631,1.705 6.025,10.835 6.025,10.835 C5.918,10.945 5.810,11.000 5.649,11.000 C5.487,11.000 5.380,10.945 5.272,10.835 C5.272,10.835 1.077,6.215 1.077,6.215 C1.077,6.215 0.969,6.050 0.969,6.050 z" fill="#56D9BF" /></svg>