<svg width="28" height="32" viewBox="0 0 28 32" fill="none" xmlns="http://www.w3.org/2000/svg">
<path fill-rule="evenodd" clip-rule="evenodd" d="M16.4706 24.4211V22.0609C17.1974 22.4908 18.0412 22.7368 18.9412 22.7368C21.6701 22.7368 23.8824 20.4747 23.8824 17.6842C23.8824 14.8937 21.6701 12.6316 18.9412 12.6316C18.0412 12.6316 17.1974 12.8776 16.4706 13.3075V0H0V32H9.88235V31.1579C9.88235 29.4494 10.5043 27.8894 11.5294 26.7018V22.1607H4.94118V30.3158H1.64706V1.68421H14.8235V14.8903C14.3032 15.6905 14 16.6512 14 17.6842C14 18.7173 14.3032 19.6779 14.8235 20.4781V24.6333C15.35 24.4947 15.9019 24.4211 16.4706 24.4211ZM9.88235 30.3158V23.8449H6.58824V30.3158H9.88235ZM18.9412 21.0526C17.9573 21.0526 17.0742 20.6116 16.4706 19.9123C15.9581 19.3185 15.6471 18.5385 15.6471 17.6842C15.6471 16.8299 15.9581 16.0499 16.4706 15.4561C17.0742 14.7568 17.9573 14.3158 18.9412 14.3158C20.7605 14.3158 22.2353 15.8239 22.2353 17.6842C22.2353 19.5445 20.7605 21.0526 18.9412 21.0526Z" fill="#89929E"/>
<path d="M4.94118 5.76177V7.40166H11.5294V5.76177H4.94118Z" fill="#89929E"/>
<path d="M4.94118 12.3213V10.6814H11.5294V12.3213H4.94118Z" fill="#89929E"/>
<path d="M4.94118 15.6011V17.241H11.5294V15.6011H4.94118Z" fill="#89929E"/>
<path fill-rule="evenodd" clip-rule="evenodd" d="M21.4118 26.1053H16.4706C14.0222 26.1053 11.9898 27.9261 11.5977 30.3158H26.2846C25.8926 27.9261 23.8601 26.1053 21.4118 26.1053ZM27.949 30.3158C27.5438 26.9926 24.7714 24.4211 21.4118 24.4211H16.4706C13.1109 24.4211 10.3386 26.9926 9.93332 30.3158C9.89968 30.5917 9.88235 30.8727 9.88235 31.1579V32H28V31.1579C28 30.8727 27.9827 30.5917 27.949 30.3158Z" fill="#89929E"/>
<path fill-rule="evenodd" clip-rule="evenodd" d="M19.7647 26.1053H18.1176L18.4471 27.0409H19.4353L19.7647 26.1053Z" fill="#89929E"/>
<path fill-rule="evenodd" clip-rule="evenodd" d="M19.4353 27.3528H18.4471L18.1176 29.5361L18.9412 30.3158L19.7647 29.5361L19.4353 27.3528Z" fill="#89929E"/>
</svg>
