<?xml version="1.0" encoding="utf-8"?>
<!-- Generator: Adobe Illustrator 21.0.0, SVG Export Plug-In . SVG Version: 6.00 Build 0)  -->
<svg version="1.1" id="Слой_1" xmlns="http://www.w3.org/2000/svg" xmlns:xlink="http://www.w3.org/1999/xlink" x="0px" y="0px"
	 viewBox="0 0 20 24" style="enable-background:new 0 0 20 24;" xml:space="preserve">
<style type="text/css">
	.st0{fill:#89929E;}
</style>
<g>
	<path class="st0" d="M3.9,23.9l10.3,0c1.3,0,2.5-0.7,3.1-1.9c-3.9,0-12.7,0-16.6,0C1.4,23.2,2.6,23.9,3.9,23.9z"/>
	<path class="st0" d="M6.6,5.3C6.8,5.6,7.1,5.8,7.2,6c0,0.2,0,0.2,0,0.3c0,0.1,0,0.1,0.1,0c0.8-0.3,1.7-1.7,0-2.6
		C7,3.6,6.9,3.2,7,2.9c0-0.1,0-0.2,0-0.3c0.1-0.4,0-0.2-0.2,0.1c-0.5,1-0.6,1.6-0.5,1.9C6.3,4.9,6.5,5.1,6.6,5.3z"/>
	<path class="st0" d="M8.2,6.7C8.2,6.8,8.2,6.8,8.2,6.7c0,0.1,0.1,0.1,0.1,0.1l0,0c0,0,0,0,0.1,0c1.6-1,1.9-1.3,2.1-1.6
		c0.9-0.9,0.9-2.7-0.9-3.5c-1.3-0.7-1.2-1.3-1-1.6C8.7,0,8.5,0,8.4,0.1c-0.3,0.3-0.7,1-0.6,1.6C8,2.6,9.1,3,9.3,4.4
		C9.5,5.2,9.1,5.8,8.2,6.7z"/>
	<path class="st0" d="M17.9,10.2h-1.5V9.2c0-0.8-0.7-1.5-1.5-1.5H3.2c-0.8,0-1.5,0.7-1.5,1.5V17c0,1.9,1.5,3.4,3.4,3.4H13
		c1.9,0,3.4-1.5,3.4-3.4V16c0.1,0,0.1,0,0.2,0l1.9-0.6c0.8-0.3,1.3-1,1.3-1.9v-1.3C19.8,11.1,19,10.2,17.9,10.2z M18.8,13.5
		c0,0.4-0.3,0.8-0.7,0.9L16.4,15v-3.8h1.5c0.5,0,1,0.4,1,1V13.5z"/>
</g>
</svg>
