<?xml version="1.0" encoding="utf-8"?>
<!-- Generator: Adobe Illustrator 21.0.0, SVG Export Plug-In . SVG Version: 6.00 Build 0)  -->
<svg version="1.1" id="Capa_1" xmlns="http://www.w3.org/2000/svg" xmlns:xlink="http://www.w3.org/1999/xlink" x="0px" y="0px"
	 viewBox="0 0 100 100" style="enable-background:new 0 0 100 100;" xml:space="preserve">
<style type="text/css">
	.st0{fill:#DD4B39;}
</style>
<path class="st0" d="M0,0v100h100V0H0z M58.3,54.2c-1.7,11.2-10.1,17.7-20.9,17.7c-12.2,0-22.1-9.9-22.1-22.1
	c0-12.2,9.9-22.1,22.1-22.1c5.9,0,11.1,2.1,14.8,5.8l-6.3,6.3c-2.1-2.2-5.1-3.3-8.5-3.3c-7.2,0-13,6.1-13,13.3
	c0,7.2,5.8,13.1,13,13.1c6,0,10.6-2.9,11.9-8.7H37.4v-8.9h20.9c0.3,1.4,0.4,2.9,0.4,4.5C58.6,51.4,58.5,52.8,58.3,54.2z M84.8,51.5
	h-7.7v7.7h-5.5v-7.7h-7.7V46h7.7v-7.7h5.5V46h7.7V51.5z"/>
</svg>
