<?xml version="1.0" encoding="utf-8"?>
<!-- Generator: Adobe Illustrator 21.0.0, SVG Export Plug-In . SVG Version: 6.00 Build 0)  -->
<svg version="1.1" id="Слой_1" xmlns="http://www.w3.org/2000/svg" xmlns:xlink="http://www.w3.org/1999/xlink" x="0px" y="0px"
	 viewBox="0 0 5 25" style="enable-background:new 0 0 5 25;" xml:space="preserve">
<style type="text/css">
	.st0{opacity:0.6017;}
</style>
<title>Shape</title>
<desc>Created with Sketch.</desc>
<path id="Symbols" class="st0" d="M2.5,5C1.1,5,0,3.9,0,2.5S1.1,0,2.5,0S5,1.1,5,2.5S3.9,5,2.5,5z M2.5,15C1.1,15,0,13.9,0,12.5
	S1.1,10,2.5,10S5,11.1,5,12.5S3.9,15,2.5,15z M2.5,25C1.1,25,0,23.9,0,22.5C0,21.1,1.1,20,2.5,20S5,21.1,5,22.5
	C5,23.9,3.9,25,2.5,25z M2.5,5C1.1,5,0,3.9,0,2.5S1.1,0,2.5,0S5,1.1,5,2.5S3.9,5,2.5,5z M2.5,15C1.1,15,0,13.9,0,12.5S1.1,10,2.5,10
	S5,11.1,5,12.5S3.9,15,2.5,15z M2.5,25C1.1,25,0,23.9,0,22.5C0,21.1,1.1,20,2.5,20S5,21.1,5,22.5C5,23.9,3.9,25,2.5,25z"/>
</svg>
