<?xml version="1.0" encoding="utf-8"?>
<!-- Generator: Adobe Illustrator 21.0.0, SVG Export Plug-In . SVG Version: 6.00 Build 0)  -->
<svg version="1.1" id="Слой_1" xmlns="http://www.w3.org/2000/svg" xmlns:xlink="http://www.w3.org/1999/xlink" x="0px" y="0px"
	 viewBox="0 0 16 16" style="enable-background:new 0 0 16 16;" xml:space="preserve">
<style type="text/css">
	.st0{fill:#89929E;}
</style>
<title>pen</title>
<desc>Created with Sketch.</desc>
<g id="Account-Copy">
	<g>
		<path class="st0" d="M15.5,3.4l-2-2.3c-0.6-0.6-1.5-0.7-2.2-0.2L1.8,9.1c0,0-0.1,0-0.1,0.1c0,0,0,0,0,0L1.6,9.2l0,0
			C1.4,9.5,1.3,9.8,1.3,9.9L0,15.1l3.2-0.5l2-0.4c0.4-0.1,0.8-0.3,1-0.7l9.1-7.9C15.9,5,16,4,15.5,3.4z M1.8,13.4l0.8-3.2
			c0-0.1,0.1-0.2,0.2-0.2l0.1,0l2.2,2.6l0,0.1c0,0.1-0.1,0.1-0.2,0.2L3,13.3L1.8,13.4z"/>
	</g>
</g>
</svg>
