<?xml version="1.0" encoding="utf-8"?>
<!-- Generator: Adobe Illustrator 21.0.0, SVG Export Plug-In . SVG Version: 6.00 Build 0)  -->
<svg version="1.1" id="Слой_1" xmlns="http://www.w3.org/2000/svg" xmlns:xlink="http://www.w3.org/1999/xlink" x="0px" y="0px"
	 viewBox="0 0 100 100" style="enable-background:new 0 0 100 100;" xml:space="preserve">
<style type="text/css">
	.st0{fill:#89929E;}
</style>
<title>eye</title>
<desc>Created with Sketch.</desc>
<g id="Login-Page">
	<g id="Group-4-Copy-2" transform="translate(-753.000000, -367.000000)">
		<g transform="translate(523.000000, 176.000000)">
			<g id="Group-2" transform="translate(74.000000, 50.000000)">
				<g id="Group-3">
					<g id="Group-4" transform="translate(0.000000, 97.000000)">
						<g id="eye" transform="translate(155.000000, 39.000000)">
							<g id="Group-6" transform="translate(1.000000, 5.000000)">
								<g>
									<path id="Shape" class="st0" d="M87.6,32.2C78.8,46,64.9,54.1,50,54.1c-14.9,0-28.8-8.2-37.6-21.9h-6L6.9,33
										C16.5,49.8,32.6,59.8,50,59.8c17.4,0,33.5-10,43.1-26.8l0.5-0.9H87.6z"/>
									<polygon id="Shape_1_" class="st0" points="48.1,59.4 48.1,74 52.7,74 52.7,59.4 									"/>
									<polygon id="Shape_2_" class="st0" points="66,55.7 71.4,70.3 75.6,68.2 70.2,53.6 									"/>
									<polygon id="Shape_3_" class="st0" points="81.1,46.4 89.5,58.8 93.1,55.6 84.7,43.1 									"/>
									<polygon id="Shape_4_" class="st0" points="30.3,53.5 25.4,68.8 29.8,70.6 34.6,55.3 									"/>
									<polygon id="Shape_5_" class="st0" points="16,43.5 7.5,56.1 11.1,59.3 19.6,46.8 									"/>
								</g>
							</g>
						</g>
					</g>
				</g>
			</g>
		</g>
	</g>
</g>
</svg>
