<?xml version="1.0" encoding="utf-8"?>
<!-- Generator: Adobe Illustrator 21.0.0, SVG Export Plug-In . SVG Version: 6.00 Build 0)  -->
<svg version="1.1" id="Слой_1" xmlns="http://www.w3.org/2000/svg" xmlns:xlink="http://www.w3.org/1999/xlink" x="0px" y="0px"
	 viewBox="0 0 18 22" style="enable-background:new 0 0 18 22;" xml:space="preserve">
<style type="text/css">
	.st0{fill:#89929E;}
</style>
<title>Group 8</title>
<desc>Created with Sketch.</desc>
<g>
	<path class="st0" d="M12,4.5v1.6c2.6,1.2,4.5,3.8,4.5,6.9c0,4.1-3.4,7.5-7.5,7.5S1.5,17.1,1.5,13c0-3.1,1.9-5.7,4.5-6.9V4.5
		C2.5,5.8,0,9.1,0,13c0,5,4,9,9,9c5,0,9-4,9-9C18,9.1,15.5,5.8,12,4.5z"/>
	<path class="st0" d="M8,13c0,0.6,0.4,1,1,1s1-0.4,1-1V3c0-0.6-0.4-1-1-1S8,2.4,8,3V13z"/>
</g>
</svg>
