<?xml version="1.0" encoding="utf-8"?>
<!-- Generator: Adobe Illustrator 21.0.0, SVG Export Plug-In . SVG Version: 6.00 Build 0)  -->
<svg version="1.1" id="Слой_1" xmlns="http://www.w3.org/2000/svg" xmlns:xlink="http://www.w3.org/1999/xlink" x="0px" y="0px"
	 viewBox="0 0 16 16" style="enable-background:new 0 0 16 16;" xml:space="preserve">
<style type="text/css">
	.st0{fill:#6D4A4A;}
</style>
<title>Shape Copy 2</title>
<desc>Created with Sketch.</desc>
<g>
	<path class="st0" d="M8,1.2c-3.7,0-6.7,3-6.7,6.8c0,3.7,3,6.8,6.7,6.8c3.7,0,6.8-3,6.8-6.8C14.8,4.3,11.7,1.2,8,1.2z M9.9,2.5
		c1.3,0.5,2.5,1.4,3.2,2.6l0.2,0.4h-2.7l0-0.2C10.3,4.4,10,3.6,9.6,2.8L9.3,2.3L9.9,2.5z M10,8c0,0.5-0.1,1-0.1,1.4l0,0.2H6.1l0-0.2
		C6.1,9,6,8.5,6,8c0-0.4,0-0.9,0.1-1.4l0-0.2h3.7l0,0.2C10,7.1,10,7.6,10,8z M8,2l0.2,0.3c0.6,0.9,1.1,1.8,1.4,2.8l0.1,0.3H6.3
		l0.1-0.3c0.3-1,0.8-2,1.4-2.8L8,2z M2.9,5.1c0.7-1.2,1.8-2.1,3.2-2.6l0.6-0.2L6.4,2.8C6,3.6,5.7,4.4,5.5,5.3l0,0.2H2.7L2.9,5.1z
		 M2.3,9.5C2.2,9,2.1,8.5,2.1,8s0.1-1,0.2-1.5l0-0.2h2.8l0,0.3C5.2,7,5.1,7.5,5.1,8s0.1,1,0.1,1.4l0,0.3H2.4L2.3,9.5z M6.1,13.5
		c-1.3-0.5-2.5-1.4-3.2-2.6l-0.2-0.4h2.7l0,0.2c0.2,0.9,0.5,1.7,0.9,2.4l0.3,0.6L6.1,13.5z M8,14l-0.2-0.3c-0.6-0.9-1.1-1.8-1.4-2.8
		l-0.1-0.3h3.3l-0.1,0.3c-0.3,1-0.8,2-1.4,2.8L8,14z M13.1,10.9c-0.7,1.2-1.8,2.1-3.2,2.6l-0.6,0.2l0.3-0.6c0.4-0.7,0.7-1.6,0.9-2.4
		l0-0.2h2.7L13.1,10.9z M13.6,9.7h-2.8l0-0.3c0.1-0.5,0.1-1,0.1-1.4c0-0.4,0-0.8-0.1-1.4l0-0.3h2.8l0,0.2c0.1,0.5,0.2,1,0.2,1.5
		s-0.1,1-0.2,1.5L13.6,9.7z"/>
</g>
</svg>
