<?xml version="1.0" encoding="utf-8"?>
<!-- Generator: Adobe Illustrator 21.0.0, SVG Export Plug-In . SVG Version: 6.00 Build 0)  -->
<svg version="1.1" id="Слой_1" xmlns="http://www.w3.org/2000/svg" xmlns:xlink="http://www.w3.org/1999/xlink" x="0px" y="0px"
	 viewBox="0 0 14 14" style="enable-background:new 0 0 14 14;" xml:space="preserve">
<style type="text/css">
	.st0{fill:#879BFF;}
</style>
<title>checkbox</title>
<desc>Created with Sketch.</desc>
<g>
	<path class="st0" d="M11.5,0h-9C1.1,0,0,1.1,0,2.5v9C0,12.9,1.1,14,2.5,14h9c1.4,0,2.5-1.1,2.5-2.5v-9C14,1.1,12.9,0,11.5,0z
		 M13,11.5c0,0.8-0.7,1.5-1.5,1.5h-9C1.7,13,1,12.3,1,11.5v-9C1,1.7,1.7,1,2.5,1h9C12.3,1,13,1.7,13,2.5V11.5z"/>
	<path class="st0" d="M11.7,3.6c-0.2,0-0.3,0.1-0.5,0.2L5.4,9.7L3.8,8.1C3.7,7.9,3.5,7.9,3.3,7.9C3.1,7.9,3,7.9,2.8,8.1
		C2.7,8.2,2.6,8.4,2.6,8.6c0,0.2,0.1,0.3,0.2,0.5l2.1,2.1c0.1,0.1,0.3,0.2,0.5,0.2c0.2,0,0.4-0.1,0.5-0.2l6.3-6.3
		c0.1-0.1,0.2-0.3,0.2-0.5c0-0.2-0.1-0.4-0.2-0.5C12,3.7,11.9,3.6,11.7,3.6z"/>
</g>
</svg>
