<svg version="1.1" xmlns="http://www.w3.org/2000/svg" xmlns:xlink="http://www.w3.org/1999/xlink" width="19" height="14" viewBox="0 0 19 14"><path id="liste" d="M17.754,7.917 C17.754,7.917 1.256,7.917 1.256,7.917 C0.552,7.917 0.001,7.511 0.001,6.992 C0.001,6.474 0.552,6.068 1.256,6.068 C1.256,6.068 17.724,6.068 17.724,6.068 C18.427,6.068 18.979,6.474 19.009,6.992 C19.009,7.511 18.458,7.917 17.754,7.917 zM17.754,1.850 C17.754,1.850 1.256,1.850 1.256,1.850 C0.552,1.850 0.001,1.444 0.001,0.925 C0.001,0.407 0.552,0.001 1.256,0.001 C1.256,0.001 17.724,0.001 17.724,0.001 C18.427,0.001 18.979,0.407 19.009,0.925 C19.009,1.444 18.458,1.850 17.754,1.850 zM1.256,12.157 C1.256,12.157 17.724,12.157 17.724,12.157 C18.427,12.157 18.979,12.563 19.009,13.082 C19.009,13.601 18.458,14.007 17.754,14.007 C17.754,14.007 1.256,14.007 1.256,14.007 C0.552,14.007 0.001,13.601 0.001,13.082 C0.001,12.563 0.552,12.157 1.256,12.157 z" fill="#000000" opacity="0.200" /></svg>