<?xml version="1.0" encoding="UTF-8"?>
<svg width="14px" height="14px" viewBox="0 0 14 14" version="1.1" xmlns="http://www.w3.org/2000/svg" xmlns:xlink="http://www.w3.org/1999/xlink">
    <title>Rectangle</title>
    <g id="Tchat-06/2020" stroke="none" stroke-width="1" fill="none" fill-rule="evenodd">
        <g id="Tchat-S21" transform="translate(-685.000000, -476.000000)" fill="#FFFFFF" fill-rule="nonzero">
            <g id="Group-16" transform="translate(445.000000, 146.000000)">
                <g id="Group-6" transform="translate(0.000000, 166.000000)">
                    <g id="Group-14" transform="translate(0.000000, 111.000000)">
                        <path d="M252,53 C253.104569,53 254,53.8954305 254,55 L254,65 C254,66.1045695 253.104569,67 252,67 L242,67 C240.895431,67 240,66.1045695 240,65 L240,55 C240,53.8954305 240.895431,53 242,53 L252,53 Z M252,54 L242,54 C241.487164,54 241.064493,54.3860402 241.006728,54.8833789 L241,55 L241,65 C241,65.5128358 241.38604,65.9355072 241.883379,65.9932723 L242,66 L252,66 C252.512836,66 252.935507,65.6139598 252.993272,65.1166211 L253,65 L253,55 C253,54.4871642 252.61396,54.0644928 252.116621,54.0067277 L252,54 Z" id="Rectangle"></path>
                    </g>
                </g>
            </g>
        </g>
    </g>
</svg>