<?xml version="1.0" encoding="utf-8"?>
<!-- Generator: Adobe Illustrator 21.0.0, SVG Export Plug-In . SVG Version: 6.00 Build 0)  -->
<svg version="1.1" id="Слой_1" xmlns="http://www.w3.org/2000/svg" xmlns:xlink="http://www.w3.org/1999/xlink" x="0px" y="0px"
	 viewBox="0 0 14 24" style="enable-background:new 0 0 14 24;" xml:space="preserve">
<title>Path_51</title>
<desc>Created with Sketch.</desc>
<g id="Tunnel-Final">
	<g id="Slide-11.1" transform="translate(-1331.000000, -73.000000)">
		<g id="Path_51">
			<g>
				<path id="path-1_1_" d="M1343.3,73h-10.7c-0.9,0-1.6,0.7-1.6,1.6v20.8c0,0.9,0.7,1.6,1.6,1.6h10.7
					c0.9,0,1.6-0.7,1.6-1.6V74.6C1344.9,73.7,1344.2,73,1343.3,73z M1336.3,74.2h3.4c0.1,0,0.2,0.1,0.2,0.2s-0.1,0.2-0.2,0.2h-3.4
					c-0.1,0-0.2-0.1-0.2-0.2S1336.2,74.2,1336.3,74.2z M1338,96.2c-0.3,0-0.6-0.2-0.7-0.5c-0.1-0.3-0.1-0.7,0.2-0.9
					c0.2-0.2,0.6-0.3,0.9-0.2c0.3,0.1,0.5,0.4,0.5,0.7c0,0.2-0.1,0.4-0.2,0.6C1338.4,96.1,1338.2,96.2,1338,96.2z M1343.8,94h-11.7
					V75.6h11.7V94z"/>
			</g>
		</g>
	</g>
</g>
</svg>
