<?xml version="1.0" encoding="UTF-8"?>
<svg width="19px" height="16px" viewBox="0 0 19 16" version="1.1" xmlns="http://www.w3.org/2000/svg" xmlns:xlink="http://www.w3.org/1999/xlink">
    <title>973F5253-DC7F-4515-AF6C-78229FB0AEFC</title>
    <g id="Tchat-06/2020" stroke="none" stroke-width="1" fill="none" fill-rule="evenodd">
        <g id="Tchat-S9" transform="translate(-1302.000000, -134.000000)" fill="#89929E" fill-rule="nonzero">
            <g id="Messagerie/Fill" transform="translate(31.000000, 80.000000)">
                <g id="Group-2">
                    <g id="Group-7" transform="translate(1271.000000, 54.000000)">
                        <g id="Group-4">
                            <g id="phone-call" transform="translate(0.000000, 2.000000)">
                                <path d="M5.80408866,8.19693523 C4.46641562,6.85927541 4.164376,5.52161559 4.09623587,4.9856818 C4.07719543,4.83749471 4.1281912,4.68888505 4.23420756,4.58361064 L5.31671754,3.50159463 C5.47595611,3.34245597 5.50421476,3.09444345 5.38485767,2.9035621 L3.66129882,0.227275949 C3.52925104,0.0159103934 3.25812127,-0.060373531 3.03523111,0.051128188 L0.268306621,1.35423502 C0.088063595,1.44298739 -0.0179528433,1.63448974 0.00251176134,1.83435244 C0.147490776,3.21163946 0.747945527,6.59734925 4.07521391,9.92482637 C7.40248229,13.2523035 10.7877423,13.8525107 12.1657678,13.9974883 C12.3656325,14.0179527 12.5571367,13.9119373 12.64589,13.731696 L13.9490097,10.9647989 C14.0600952,10.7423918 13.9843155,10.4719915 13.7738267,10.3397039 L11.0975141,8.61664533 C10.9067396,8.49716474 10.6587359,8.52522145 10.4994757,8.68430153 L9.41744896,9.76680081 C9.31217351,9.87281612 9.16356238,9.92381138 9.01537382,9.90477114 C8.47943473,9.83663168 7.1417617,9.53459505 5.80408866,8.19693523 Z" id="Shape"></path>
                            </g>
                            <g id="play" transform="translate(8.000000, 0.000000)">
                                <path d="M10.8858415,0.624336754 C10.8150159,0.581954283 10.7274398,0.580299448 10.6551576,0.62010769 L8.13128972,2.01183347 L8.13128972,1.17677962 C8.13056144,0.527160506 7.60929223,0.00073548726 6.96603549,0 L1.16525424,0 C0.521997496,0.00073548726 0.000728283898,0.527160506 0,1.17677962 L0,5.82322038 C0.000728283898,6.47283952 0.521997496,6.99926451 1.16525424,7 L6.96603549,7 C7.60929223,6.99926451 8.13056144,6.47283952 8.13128972,5.82322038 L8.13128972,5.00333597 L10.6552486,6.39506173 C10.7274398,6.43486997 10.8151069,6.43330707 10.8858415,6.39092462 C10.9566671,6.34845022 11,6.27149987 11,6.18848174 L11,0.826687681 C11,0.74357762 10.9565761,0.666719201 10.8858415,0.624336754 Z" id="Shape"></path>
                            </g>
                        </g>
                    </g>
                </g>
            </g>
        </g>
    </g>
</svg>