<?xml version="1.0" encoding="UTF-8"?>
<svg width="12px" height="12px" viewBox="0 0 12 12" version="1.1" xmlns="http://www.w3.org/2000/svg" xmlns:xlink="http://www.w3.org/1999/xlink">
    <title>Shape</title>
    <g id="Tchat-06/2020" stroke="none" stroke-width="1" fill="none" fill-rule="evenodd">
        <g id="Tchat-S6.2" transform="translate(-43.000000, -200.000000)" fill="#FFFFFF" fill-rule="nonzero">
            <path d="M50.875,206.375 L47.125,206.375 C46.918,206.375 46.75,206.543 46.75,206.75 C46.75,206.957 46.918,207.125 47.125,207.125 L50.875,207.125 C51.082,207.125 51.25,206.957 51.25,206.75 C51.25,206.543 51.082,206.375 50.875,206.375 Z M51.625,204.125 L46.375,204.125 C46.168,204.125 46,204.293 46,204.5 C46,204.707 46.168,204.875 46.375,204.875 L51.625,204.875 C51.832,204.875 52,204.707 52,204.5 C52,204.293 51.832,204.125 51.625,204.125 Z M49,200 C45.6865098,200 43,202.35049 43,205.25 C43,206.907137 43.8793725,208.382373 45.25,209.344627 L45.25,212 L47.8783725,210.405118 C48.2421373,210.465137 48.6163725,210.5 49,210.5 C52.3138824,210.5 55,208.14951 55,205.25 C55,202.35049 52.3138824,200 49,200 Z M49,209.75 C48.562,209.75 48.139,209.699 47.7324902,209.612373 L45.9669804,210.673608 L45.9906078,208.934373 C44.6372549,208.120255 43.75,206.774765 43.75,205.25 C43.75,202.764882 46.1004902,200.75 49,200.75 C51.8995098,200.75 54.25,202.764882 54.25,205.25 C54.25,207.735118 51.8995098,209.75 49,209.75 Z" id="Shape" transform="translate(49.000000, 206.000000) scale(-1, 1) translate(-49.000000, -206.000000) "></path>
        </g>
    </g>
</svg>