<?xml version="1.0" encoding="UTF-8"?>
<svg width="18px" height="18px" viewBox="0 0 18 18" version="1.1" xmlns="http://www.w3.org/2000/svg" xmlns:xlink="http://www.w3.org/1999/xlink">
    <title>280798A7-CB85-4438-A796-5FDF3D6D963C</title>
    <g id="Tchat-06/2020" stroke="none" stroke-width="1" fill="none" fill-rule="evenodd">
        <g id="Tchat-S9" transform="translate(-1160.000000, -599.000000)" fill="#89929E" fill-rule="nonzero">
            <g id="Group-2" transform="translate(1148.000000, 588.000000)">
                <g id="Group-6">
                    <g id="email-2" transform="translate(12.000000, 11.000000)">
                        <path d="M14.625,0 C15.66075,0 16.5,0.83925 16.5,1.875 L16.5,1.875 L16.5,8.625 C16.5,9.5205 15.8715,10.266 15.03225,10.45275 C14.547,10.23075 14.03625,10.0515 13.5,9.933 L13.5,9.933 L13.5,9.5625 C13.5,8.7135 12.99,7.96125 12.1965,7.64475 C11.9535,7.54875 11.6985,7.5 11.4375,7.5 C10.872,7.5 10.32525,7.7355 9.93975,8.14425 L9.93975,8.14425 L7.7085,10.5 L1.875,10.5 C0.83925,10.5 0,9.66075 0,8.625 L0,8.625 L0,1.875 C0,0.83925 0.83925,0 1.875,0 L1.875,0 Z M4,4 C3.44771525,4 3,4.44771525 3,5 C3,5.55228475 3.44771525,6 4,6 C4.55228475,6 5,5.55228475 5,5 C5,4.44771525 4.55228475,4 4,4 Z M8,4 C7.44771525,4 7,4.44771525 7,5 C7,5.55228475 7.44771525,6 8,6 C8.55228475,6 9,5.55228475 9,5 C9,4.44771525 8.55228475,4 8,4 Z M12,4 C11.4477153,4 11,4.44771525 11,5 C11,5.55228475 11.4477153,6 12,6 C12.5522847,6 13,5.55228475 13,5 C13,4.44771525 12.5522847,4 12,4 Z" id="Shape"></path>
                        <path d="M12,11.253 L12,9.5625 C12,9.33225 11.85975,9.12525 11.646,9.03975 C11.4315,8.955 11.18775,9.00825 11.0295,9.1755 L7.6545,12.738 C7.449,12.95475 7.449,13.2945 7.6545,13.51125 L11.0295,17.07375 C11.18775,17.24175 11.43225,17.2935 11.646,17.2095 C11.85975,17.12475 12,16.91775 12,16.6875 L12,14.99999 L12.44475,14.99999 C14.202,14.99999 15.80625,15.8895 16.73775,17.37975 L16.9605,17.736 C17.0655,17.90325 17.247,17.99999 17.4375,17.99999 C17.48925,17.99999 17.541,17.99325 17.59275,17.97825 C17.8335,17.9085 18,17.688 18,17.4375 C18,14.08875 15.3255,11.352 12,11.253 L12,11.253 Z" id="Path"></path>
                    </g>
                </g>
            </g>
        </g>
    </g>
</svg>