<?xml version="1.0" encoding="UTF-8"?>
<svg width="22px" height="17px" viewBox="0 0 22 17" version="1.1" xmlns="http://www.w3.org/2000/svg" xmlns:xlink="http://www.w3.org/1999/xlink">
    <title>C31066AC-F0F9-47AF-9827-047C30D94192</title>
    <g id="Tchat-06/2020" stroke="none" stroke-width="1" fill="none" fill-rule="evenodd">
        <g id="Tchat-S9" transform="translate(-1245.000000, -600.000000)" fill-rule="nonzero">
            <g id="Group-2" transform="translate(1148.000000, 588.000000)">
                <g id="Group-6">
                    <g id="Group-5" transform="translate(97.000000, 12.000000)">
                        <g id="Group-8" transform="translate(0.200000, 0.000000)">
                            <g id="man-user" transform="translate(7.800000, 0.000000)">
                                <path d="M6.12571429,7.82505143 C7.90464,7.82505143 9.34688,6.07337143 9.34688,3.91254857 C9.34688,1.75168 8.87337143,0 6.12571429,0 C3.37805714,0 2.90445714,1.75168 2.90445714,3.91254857 C2.90445714,6.07337143 4.34669714,7.82505143 6.12571429,7.82505143 Z" id="Path" fill="#89929E"></path>
                                <path d="M0.0690732453,13.8312871 C0.0678732453,13.6367014 0.0666732453,13.7764628 0.0690732453,13.8312871 L0.0690732453,13.8312871 Z" id="Path" fill="#000000"></path>
                                <path d="M12.2361956,13.9018971 C12.2399956,13.8658286 12.2374956,13.6516571 12.2361956,13.9018971 L12.2361956,13.9018971 Z" id="Path" fill="#000000"></path>
                                <path d="M7.88950857,8.12525714 C11.6514743,8.80420571 12.1430857,9.8768 12.2027429,13.6410057 C12.2065371,13.8817829 12.2085486,13.9234286 12.2095543,13.9019429 L12.2091851,13.9032571 L12.2093257,14.1944686 C12.2093257,14.1944686 11.3505331,15.9255532 6.44435619,15.9976817 L6.12566857,16 C4.73958876,16 3.65989695,15.8711223 2.82181577,15.6822312 L4.65221483,13.7499503 C5.51558678,12.8393137 5.51558678,11.4107062 4.65173965,10.4995682 L2.75818392,8.50247075 C3.21264049,8.35926423 3.74294773,8.23693497 4.36173714,8.12525714 C4.36173714,8.12525714 4.89138286,8.80004571 6.12566857,8.80004571 C7.35995429,8.80004571 7.88950857,8.12525714 7.88950857,8.12525714 Z" id="Path-3" fill="#89929E"></path>
                            </g>
                            <path d="M7.154,8.03975995 C7.33785714,7.96711709 7.54320408,7.99586199 7.69777843,8.11088094 L7.7705,8.17550995 L11.1455,11.73801 C11.3281667,11.9306766 11.348463,12.2211211 11.2063889,12.4355161 L11.1455,12.51201 L7.7705,16.07451 C7.6625,16.18851 7.514,16.25001 7.3625,16.25001 C7.29275,16.25001 7.2215,16.23651 7.154,16.21026 C6.97078571,16.1369742 6.84157143,15.9744232 6.80839213,15.7844786 L6.8,15.68751 L6.8,14 L1.3625,14 C1.08305,14 0.850985,13.7958881 0.8073665,13.5287112 L0.8,13.43751 L0.8,10.81251 C0.8,10.53306 1.00412,10.300995 1.2712985,10.2573765 L1.3625,10.25001 L6.8,10.25001 L6.8,8.56250995 C6.8,8.33225995 6.94025,8.12525995 7.154,8.03975995 Z" id="Path" fill="#89929E"></path>
                        </g>
                    </g>
                </g>
            </g>
        </g>
    </g>
</svg>