<?xml version="1.0" encoding="UTF-8"?>
<svg width="19px" height="18px" viewBox="0 0 19 18" version="1.1" xmlns="http://www.w3.org/2000/svg" xmlns:xlink="http://www.w3.org/1999/xlink">
    <title>0736EF05-D7E5-4B71-B6B3-CF7B81E35D61</title>
    <g id="Tchat-06/2020" stroke="none" stroke-width="1" fill="none" fill-rule="evenodd">
        <g id="Tchat-S9" transform="translate(-1203.000000, -599.000000)" fill="#89929E" stroke="#89929E" stroke-width="1.16095361">
            <g id="Group-2" transform="translate(1148.000000, 588.000000)">
                <g id="Group-6">
                    <g id="Group-3" transform="translate(55.000000, 11.000000)">
                        <rect id="Rectangle-8" x="5.104325" y="5.03503743" width="12.5857946" height="12.3752485"></rect>
                        <g id="Group-2">
                            <rect id="Rectangle-2" x="0.580476804" y="0.580476804" width="1" height="1"></rect>
                            <rect id="Rectangle-2-Copy-12" x="0.580476804" y="2.83651049" width="1" height="1"></rect>
                            <rect id="Rectangle-2-Copy-13" x="0.580476804" y="5.09254417" width="1" height="1"></rect>
                            <rect id="Rectangle-2-Copy-14" x="0.580476804" y="7.34857786" width="1" height="1"></rect>
                            <rect id="Rectangle-2-Copy-15" x="0.580476804" y="9.60461154" width="1" height="1"></rect>
                            <rect id="Rectangle-2-Copy-19" x="12.0361003" y="2.83651049" width="1" height="1"></rect>
                            <rect id="Rectangle-2-Copy-18" x="12.0361003" y="5.09254417" width="1" height="1"></rect>
                            <rect id="Rectangle-2-Copy-17" x="12.0361003" y="7.34857786" width="1" height="1"></rect>
                            <rect id="Rectangle-2-Copy-16" x="12.0361003" y="9.60461154" width="1" height="1"></rect>
                            <rect id="Rectangle-2-Copy" x="2.87160151" y="0.580476804" width="1" height="1"></rect>
                            <rect id="Rectangle-2-Copy-2" x="5.16272622" y="0.580476804" width="1" height="1"></rect>
                            <rect id="Rectangle-2-Copy-3" x="7.45385092" y="0.580476804" width="1" height="1"></rect>
                            <rect id="Rectangle-2-Copy-4" x="9.74497563" y="0.580476804" width="1" height="1"></rect>
                            <rect id="Rectangle-2-Copy-5" x="12.0361003" y="0.580476804" width="1" height="1"></rect>
                            <rect id="Rectangle-2-Copy-11" x="0.580476804" y="11.8606452" width="1" height="1"></rect>
                            <rect id="Rectangle-2-Copy-10" x="2.87160151" y="11.8606452" width="1" height="1"></rect>
                            <rect id="Rectangle-2-Copy-9" x="5.16272622" y="11.8606452" width="1" height="1"></rect>
                            <rect id="Rectangle-2-Copy-8" x="7.45385092" y="11.8606452" width="1" height="1"></rect>
                            <rect id="Rectangle-2-Copy-7" x="9.74497563" y="11.8606452" width="1" height="1"></rect>
                            <rect id="Rectangle-2-Copy-6" x="12.0361003" y="11.8606452" width="1" height="1"></rect>
                        </g>
                    </g>
                </g>
            </g>
        </g>
    </g>
</svg>