<?xml version="1.0" encoding="UTF-8"?>
<svg width="12px" height="12px" viewBox="0 0 12 12" version="1.1" xmlns="http://www.w3.org/2000/svg" xmlns:xlink="http://www.w3.org/1999/xlink">
    <title>32927335-736B-4B42-B3D3-A1D20DFCAC6B</title>
    <g id="Tchat-06/2020" stroke="none" stroke-width="1" fill="none" fill-rule="evenodd">
        <g id="Tchat-S2" transform="translate(-43.000000, -230.000000)" fill="#FFFFFF" fill-rule="nonzero" stroke="#FFFFFF" stroke-width="1.07142857">
            <g id="Messagerie/Fill" transform="translate(31.000000, 80.000000)">
                <g id="Group" transform="translate(12.000000, 150.000000)">
                    <path d="M6.00397843,0.535714286 C4.48862675,0.535714286 3.11178057,1.07639434 2.11522919,1.95619053 C1.14466684,2.81304254 0.535714286,3.99377803 0.535714286,5.30055693 C0.535714286,6.60733583 1.14466684,7.78807132 2.11522919,8.64492333 C3.11178057,9.52471952 4.48862675,10.0653996 6.00397843,10.0653996 C6.7136559,10.0653996 7.40133161,9.95180808 8.04212166,9.71685998 L10.3270734,10.6255822 L9.99142954,8.5577621 C10.9391998,7.67953437 11.4642857,6.52108298 11.4642857,5.30055693 C11.4642857,3.99367319 10.8562478,2.81278668 9.88689384,1.95586588 C8.89190566,1.07628406 7.51718599,0.535714286 6.00397843,0.535714286 Z" id="Shape"></path>
                </g>
            </g>
        </g>
    </g>
</svg>