<?xml version="1.0" encoding="UTF-8"?>
<svg width="18px" height="18px" viewBox="0 0 18 18" version="1.1" xmlns="http://www.w3.org/2000/svg" xmlns:xlink="http://www.w3.org/1999/xlink">
    <title>813B5B02-C282-4889-AD2D-E622D4414D91</title>
    <g id="Tchat-06/2020" stroke="none" stroke-width="1" fill="none" fill-rule="evenodd">
        <g id="Tchat-S9" transform="translate(-1291.000000, -599.000000)" fill="#89929E" fill-rule="nonzero">
            <g id="Group-2" transform="translate(1148.000000, 588.000000)">
                <g id="Group-6">
                    <g id="Group-2" transform="translate(143.000000, 11.000000)">
                        <g id="poubelle">
                            <path d="M1.71428571,16.3068783 C1.71428571,17.2380952 2.47233691,18 3.39884393,18 L14.6011561,18 C15.5276631,18 16.2857143,17.2380952 16.2857143,16.3068783 L16.2857143,4.28571429 L1.71428571,4.28571429 L1.71428571,16.3068783 Z M5.92568126,14.1058201 L5.92568126,7.24867725 L6.76796036,7.24867725 L6.76796036,14.1058201 L5.92568126,14.1058201 Z M11.9900908,14.1058201 L11.1478117,14.1058201 L11.1478117,7.24867725 L11.9900908,7.24867725 L11.9900908,14.1058201 Z" id="Shape"></path>
                            <path d="M12,1.76785714 L12,0 L6,0 L6,1.76785714 L0,1.76785714 L0,2.57142857 L18,2.57142857 L18,1.76785714 L12,1.76785714 Z M6.85714286,0.803571429 L11.0571429,0.803571429 L11.0571429,1.76785714 L6.85714286,1.76785714 L6.85714286,0.803571429 Z" id="Shape"></path>
                        </g>
                    </g>
                </g>
            </g>
        </g>
    </g>
</svg>