<?xml version="1.0" encoding="UTF-8"?>
<svg width="13px" height="7px" viewBox="0 0 13 7" version="1.1" xmlns="http://www.w3.org/2000/svg" xmlns:xlink="http://www.w3.org/1999/xlink">
    <title>Group 10</title>
    <g id="Tchat-06/2020" stroke="none" stroke-width="1" fill="none" fill-rule="evenodd">
        <g id="Tchat-S9" transform="translate(-1302.000000, -492.000000)" fill="#89929E" fill-rule="nonzero">
            <g id="Messagerie/Fill" transform="translate(31.000000, 80.000000)">
                <g id="Group-43" transform="translate(434.000000, 102.000000)">
                    <g id="Group-39" transform="translate(36.000000, 259.000000)">
                        <g id="Group-10" transform="translate(802.000000, 52.000000)">
                            <path d="M6.26059669,-0.325206018 C6.44020301,-0.534958681 6.75584084,-0.559397117 6.9655935,-0.379790792 C7.15204031,-0.220140726 7.192066,0.046991018 7.07251553,0.251698638 L7.02017827,0.325206018 L2.80271796,5.25055335 C2.64023923,5.44030361 2.36716368,5.47792932 2.16181488,5.3518633 L2.08833206,5.2968929 L-0.334595111,3.1149275 C-0.539794064,2.93013572 -0.556337349,2.61398577 -0.371545572,2.40878681 C-0.207286215,2.22638774 0.0607623183,2.19304994 0.262418549,2.31767855 L0.334595111,2.37183635 L2.377,4.21 L6.26059669,-0.325206018 Z" id="Path-2"></path>
                            <path d="M10.2174618,-0.325206018 C10.3970682,-0.534958681 10.712706,-0.559397117 10.9224587,-0.379790792 C11.1089055,-0.220140726 11.1489312,0.046991018 11.0293807,0.251698638 L10.9770434,0.325206018 L6.75958312,5.25055335 C6.59539102,5.44230457 6.31871053,5.47841894 6.11306396,5.34838047 L6.03963465,5.29180709 L3.78484232,3.19884899 C3.58245219,3.01098509 3.57067634,2.69462169 3.75854024,2.49223155 C3.92553037,2.31232921 4.19405098,2.28303569 4.39380568,2.41068985 L4.46515768,2.46592947 L6.338,4.205 L10.2174618,-0.325206018 Z" id="Path-2"></path>
                        </g>
                    </g>
                </g>
            </g>
        </g>
    </g>
</svg>