<svg width="16" height="16" viewBox="0 0 16 16" fill="none" xmlns="http://www.w3.org/2000/svg">
<g clip-path="url(#clip0_15751_684)">
<path d="M11.334 2.22676C12.3395 2.80733 13.1759 3.64044 13.7605 4.64362C14.3451 5.64681 14.6576 6.78527 14.6669 7.94632C14.6763 9.10736 14.3823 10.2507 13.814 11.2632C13.2457 12.2757 12.4228 13.1222 11.4268 13.719C10.4308 14.3157 9.29623 14.642 8.13538 14.6655C6.97454 14.689 5.82768 14.4089 4.80835 13.8529C3.78902 13.297 2.93256 12.4844 2.32376 11.4958C1.71496 10.5071 1.37492 9.37656 1.33732 8.21609L1.33398 8.00009L1.33732 7.78409C1.37465 6.63275 1.70968 5.51073 2.30974 4.52742C2.90981 3.54411 3.75442 2.73306 4.76125 2.17335C5.76807 1.61363 6.90275 1.32436 8.05465 1.33372C9.20656 1.34308 10.3364 1.65076 11.334 2.22676ZM10.472 6.19543C10.3572 6.08064 10.2045 6.01169 10.0424 6.0015C9.88042 5.99131 9.72025 6.04059 9.59198 6.14009L9.52932 6.19543L7.33398 8.39009L6.47198 7.52876L6.40932 7.47342C6.28104 7.37399 6.1209 7.32477 5.95892 7.33499C5.79694 7.34521 5.64426 7.41417 5.52949 7.52893C5.41473 7.6437 5.34577 7.79638 5.33555 7.95836C5.32533 8.12034 5.37455 8.28048 5.47398 8.40876L5.52932 8.47142L6.86265 9.80476L6.92532 9.86009C7.04223 9.9508 7.18601 10 7.33398 10C7.48196 10 7.62574 9.9508 7.74265 9.86009L7.80532 9.80476L10.472 7.13809L10.5273 7.07542C10.6268 6.94715 10.6761 6.78699 10.6659 6.62497C10.6557 6.46295 10.5868 6.31022 10.472 6.19543Z" fill="#10B667"/>
</g>
<defs>
<clipPath id="clip0_15751_684">
<rect width="16" height="16" fill="white"/>
</clipPath>
</defs>
</svg>
