<?xml version="1.0" encoding="utf-8"?>
<!-- Generator: Adobe Illustrator 21.0.0, SVG Export Plug-In . SVG Version: 6.00 Build 0)  -->
<svg version="1.1" id="Слой_1" xmlns="http://www.w3.org/2000/svg" xmlns:xlink="http://www.w3.org/1999/xlink" x="0px" y="0px"
	 viewBox="0 0 12 12" style="enable-background:new 0 0 12 12;" xml:space="preserve">
<style type="text/css">
	.st0{fill:#89929E;}
</style>
<title>Picker</title>
<desc>Created with Sketch.</desc>
<g id="Symbols">
	<g id="Button_x2F_picker_x5F_normal" transform="translate(-6.000000, -5.000000)">
		<g id="Picker" transform="translate(6.000000, 5.911243)">
			<path id="Shape" class="st0" d="M12,0.8c-0.1-0.8-0.5-1.2-0.9-1.4C10.7-0.9,10.2-1,9.8-0.8C9.3-0.6,9-0.3,8.6,0.1
				C8.2,0.5,7.8,0.9,7.4,1.3C7,1,6.8,1.1,6.4,1.4C6.2,1.6,6,1.8,5.8,2c-0.2,0.2-0.2,0.6,0,0.8C5.9,2.8,6,2.9,6.2,3
				C6,3.1,6,3.2,5.9,3.2c-1.5,1.5-3,3-4.5,4.5C1,8.1,0.7,8.5,0.6,9C0.5,9.3,0.4,9.5,0.2,9.8c0,0-0.1,0.1-0.1,0.1
				c-0.2,0.3-0.2,0.7,0.1,1c0,0,0,0,0,0c0.3,0.3,0.7,0.3,1,0.1c0,0,0,0,0,0c0.2-0.2,0.4-0.4,0.7-0.4c0.6-0.1,1-0.4,1.4-0.8
				c1.5-1.5,3.1-3,4.6-4.5C7.9,5.1,8,5.1,8.1,5c0.1,0.1,0.1,0.2,0.2,0.2c0.3,0.3,0.6,0.3,0.9,0C9.4,5,9.5,4.9,9.7,4.7
				c0.4-0.4,0.5-0.6,0.1-1c0.3-0.3,0.6-0.6,1-0.9c0.4-0.5,1-0.8,1.2-1.5C12,1.1,12,0.9,12,0.8z M7.6,4.7C6,6.3,4.4,7.9,2.9,9.4
				c-0.3,0.3-0.6,0.5-1,0.6c-0.3,0.1-0.6,0.3-0.9,0.4c0,0-0.1,0-0.1,0.1c-0.1,0.1-0.2,0.1-0.3,0l0,0c-0.1-0.1-0.1-0.2,0-0.3
				c0.1-0.1,0.2-0.2,0.3-0.4C1,9.7,1.1,9.5,1.1,9.3c0.1-0.4,0.3-0.7,0.5-1c1.6-1.6,3.2-3.2,4.8-4.8C6.9,3.8,7.2,4.2,7.6,4.7
				C7.6,4.6,7.6,4.7,7.6,4.7z"/>
		</g>
	</g>
</g>
</svg>
