<?xml version="1.0" encoding="utf-8"?>
<!-- Generator: Adobe Illustrator 21.0.0, SVG Export Plug-In . SVG Version: 6.00 Build 0)  -->
<svg version="1.1" id="Слой_1" xmlns="http://www.w3.org/2000/svg" xmlns:xlink="http://www.w3.org/1999/xlink" x="0px" y="0px"
	 viewBox="0 0 14 14" style="enable-background:new 0 0 14 14;" xml:space="preserve">
<style type="text/css">
	.st0{fill:#89929E;}
</style>
<g>
	<path class="st0" d="M13.8,7.9l-1.1-0.3c0-0.1,0-0.3,0-0.4c0-3.3-2.8-6.1-6.3-6.1c-0.2,0-0.3,0-0.5,0L5.6,0l-3,1L3,2.2
		C1.3,3.3,0.2,5.1,0.2,7.2c0,1.6,0.7,3.1,1.7,4.2l-0.6,1L3.9,14l0.6-1c0.6,0.2,1.3,0.3,2,0.3c2.2,0,4.1-1.1,5.2-2.7L13,11L13.8,7.9z
		 M6.5,2.2c2.9,0,5.3,2.3,5.3,5.1c0,0,0,0.1,0,0.1l-0.9-0.2l-0.2,0.9L6.8,6.7L5.6,3.2l0.9-0.3L6.3,2.2C6.4,2.2,6.4,2.2,6.5,2.2z
		 M1.2,7.2c0-1.7,0.9-3.1,2.2-4.1l0.2,0.7l1.1-0.4l1.3,3.6l-2.1,3.1L2.9,9.7l-0.5,0.8C1.7,9.6,1.2,8.5,1.2,7.2z M6.5,12.3
		c-0.5,0-1-0.1-1.4-0.2l0.5-0.8l-0.8-0.5l2-3L10.4,9l-0.3,1.2l0.5,0.1C9.7,11.5,8.2,12.3,6.5,12.3z"/>
</g>
</svg>
