<?xml version="1.0" encoding="utf-8"?>
<!-- Generator: Adobe Illustrator 21.0.0, SVG Export Plug-In . SVG Version: 6.00 Build 0)  -->
<svg version="1.1" id="Слой_1" xmlns="http://www.w3.org/2000/svg" xmlns:xlink="http://www.w3.org/1999/xlink" x="0px" y="0px"
	 viewBox="0 0 14 12" style="enable-background:new 0 0 14 12;" xml:space="preserve">
<style type="text/css">
	.st0{fill:#89929E;}
</style>
<g>
	<path class="st0" d="M13.5,2.6c0.6-1.1,0.7-1.8,0.3-2.2c-0.2-0.2-0.4-0.3-0.7-0.3c-1,0-2.7,1.1-4.3,2.8C8.3,3.4,7.9,3.8,7.6,4.3
		l0,0L7,5l0,0C6.7,5.4,6.5,5.7,6.4,6H2.5C2.1,6,1.7,6.3,1.5,6.7l-1.5,3.8C0,10.6,0,10.7,0,10.9c0,0.6,0.4,1,1,1h8.9
		c0.4,0,0.8-0.3,0.9-0.6l1.5-3.8c0-0.1,0.1-0.2,0.1-0.4c0-0.6-0.4-1-1-1h-0.7c0.2-0.2,0.4-0.3,0.6-0.5C12.2,4.5,13,3.5,13.5,2.6z
		 M8.6,6.6C8.2,6.9,7.8,7.1,7.4,7.3L7,6.8C7.1,6.5,7.3,6,7.6,5.6L8.6,6.6z M1.1,10.8l1.4-3.7l2.4,0c-0.2,0.3-0.3,0.6-0.3,1
		c0,0,0,0.1,0,0.1c0,0.2-0.2,0.3-0.5,0.5C3.8,8.8,3.5,8.9,3.6,9.3c0.1,0.4,0.5,0.5,1,0.6c0.3,0,0.6,0.1,0.9,0.1
		c1.1,0,1.6-0.4,1.6-0.5c0.5-0.3,0.7-0.8,0.7-1.4c0,0,0,0,0,0c0.4-0.2,0.9-0.5,1.4-0.8l0,0l0.2-0.1h1.9l-1.4,3.7H1.1z M5.4,8.1
		c0-0.4,0.3-0.8,0.8-0.8c0,0,0.1,0,0.1,0L6.9,8c0,0,0,0.1,0,0.1c0,0.3-0.1,0.5-0.3,0.6L6.4,8.9C6.2,9,5.9,9.1,5.4,9.1
		c-0.1,0-0.3,0-0.4,0C5.3,8.8,5.4,8.6,5.4,8.1L5.4,8.1z M8.2,4.9C8.5,4.4,8.9,4,9.3,3.6C11.2,1.7,12.6,1,13.1,1c0,0,0,0,0.1,0
		c0,0.1,0,0.5-0.4,1.2C12.3,3,11.5,4,10.6,4.9c-0.4,0.4-0.9,0.8-1.3,1.2L8.2,4.9z"/>
</g>
</svg>
