<svg width="19" height="19" viewBox="0 0 19 19" fill="none" xmlns="http://www.w3.org/2000/svg">
<path fill-rule="evenodd" clip-rule="evenodd" d="M18 1H10V18H18V1ZM9 0V19H19V0H9Z" fill="#89929E"/>
<path fill-rule="evenodd" clip-rule="evenodd" d="M9 7H1V18H9V7ZM0 6V19H10V6H0Z" fill="#89929E"/>
<path fill-rule="evenodd" clip-rule="evenodd" d="M15 14H13V18H15V14ZM12 13V19H16V13H12Z" fill="#89929E"/>
<path fill-rule="evenodd" clip-rule="evenodd" d="M12 3V4H16V3H12Z" fill="#89929E"/>
<path fill-rule="evenodd" clip-rule="evenodd" d="M12 6V7H16V6H12Z" fill="#89929E"/>
<path fill-rule="evenodd" clip-rule="evenodd" d="M12 9V10H16V9H12Z" fill="#89929E"/>
<path fill-rule="evenodd" clip-rule="evenodd" d="M3 9V10H7V9H3Z" fill="#89929E"/>
<path fill-rule="evenodd" clip-rule="evenodd" d="M3 12V13H7V12H3Z" fill="#89929E"/>
</svg>
