<?xml version="1.0" encoding="utf-8"?>
<!-- Generator: Adobe Illustrator 23.0.3, SVG Export Plug-In . SVG Version: 6.00 Build 0)  -->
<svg version="1.1" id="Layer_1" xmlns="http://www.w3.org/2000/svg" xmlns:xlink="http://www.w3.org/1999/xlink" x="0px" y="0px"
	 viewBox="0 0 28 19" style="enable-background:new 0 0 28 19;" xml:space="preserve">
<style type="text/css">
	.st0{fill:#89929E;}
</style>
<title>group-2</title>
<desc>Created with Sketch.</desc>
<g>
	<path class="st0" d="M23.7,7.6h-3.6c-0.7,0-1.5,0.2-2.1,0.7c-0.6,0.4-1,0.9-1.4,1.5c-0.2-0.1-0.5-0.1-0.7-0.1h-3.6
		c-0.2,0-0.5,0-0.7,0.1c-0.4-0.6-0.8-1.1-1.4-1.5C9.4,7.8,8.7,7.6,7.9,7.6H4.3C1.9,7.6,0,9.9,0,12.7v2.9c0,0.3,0.2,0.5,0.5,0.5h7.4
		v1.5c0,0.3,0.2,0.5,0.5,0.5h11.4c0.3,0,0.5-0.2,0.5-0.5v-1.5h7.4c0.3,0,0.5-0.2,0.5-0.5v-2.9C28,9.9,26.1,7.6,23.7,7.6z"/>
	<path class="st0" d="M6.4,6.8c1.9,0,3.4-1.5,3.4-3.4c0-0.9-0.4-1.8-1-2.4C8.2,0.4,7.3,0,6.4,0C4.6,0,3,1.5,3,3.4
		C3,5.3,4.5,6.8,6.4,6.8z"/>
	<path class="st0" d="M21.6,6.8c1.9,0,3.4-1.5,3.4-3.4C25,1.5,23.5,0,21.6,0s-3.4,1.5-3.4,3.4c0,0.9,0.4,1.8,1,2.4
		C19.8,6.5,20.7,6.8,21.6,6.8z"/>
	<path class="st0" d="M16.4,7.3c1.3-1.3,1.3-3.5,0-4.8c-0.6-0.6-1.5-1-2.4-1c-0.9,0-1.8,0.4-2.4,1c-1.3,1.3-1.3,3.5,0,4.8
		C12.9,8.7,15.1,8.7,16.4,7.3z"/>
</g>
</svg>
