<?xml version="1.0" encoding="utf-8"?>
<!-- Generator: Adobe Illustrator 21.0.0, SVG Export Plug-In . SVG Version: 6.00 Build 0)  -->
<svg version="1.1" id="Слой_1" xmlns="http://www.w3.org/2000/svg" xmlns:xlink="http://www.w3.org/1999/xlink" x="0px" y="0px"
	 viewBox="0 0 152 199" style="enable-background:new 0 0 152 199;" xml:space="preserve">
<title>Group</title>
<desc>Created with Sketch.</desc>
<g>
	<path d="M137,78l11.7-11.7l0.3,0V66l0.6-0.6l-2.2-4c-0.8-1.4-1.8-2.8-3-3.9c-1-1-2.1-1.8-3.3-2.4l-4-2.3l-4.3,4.3l0,0
		c-1.7,1.7-3.4,3.5-7.9,7.9c-8.1-6.9-17.2-11.9-27.1-14.8C106.5,45.1,112,37,112,28c0-15.4-16.1-28-36-28S40,12.6,40,28
		c0,9,5.5,17.1,14.1,22.2C22.9,59.6,0,88.7,0,123c0,41.9,34.1,76,76,76c41.9,0,76-34.1,76-76C152,106.7,146.8,91.1,137,78z M49,28
		C49,17.5,61.1,9,76,9s27,8.5,27,19c0,8.1-7.3,15.1-17.5,17.8c2.4-3.3,6.5-3.5,6.7-7.4c0.2-4.3-1.2-8-7-9.5c-4.1-1-6.9-0.8-9.5-0.8
		c-2.6,0-5.1-0.2-9,0.8c-5.6,1.5-8.1,5.3-7.4,9.5c0.7,4,4.3,4.2,7.3,7.4C56.2,43,49,36.1,49,28z M76,187c-35.3,0-64-28.7-64-64
		c0-35.3,28.7-64,64-64c15.3,0,29.6,5.2,41.2,15.1l5.3,4.5l4.9,6.6c8.4,11.2,12.6,23.9,12.6,37.8C140,158.3,111.3,187,76,187z"/>
	<path d="M76.2,84c2.5,0,4.5-2,4.5-4.5V71c0-2.5-2-4.5-4.5-4.5s-4.5,2-4.5,4.5v8.5C71.8,82,73.8,84,76.2,84z"/>
	<path d="M36,125c0-2.5-2-4.5-4.5-4.5H23c-2.5,0-4.5,2-4.5,4.5s2,4.5,4.5,4.5h8.5C34,129.5,36,127.5,36,125z"/>
	<path d="M129.5,120.5H121c-2.5,0-4.5,2-4.5,4.5s2,4.5,4.5,4.5h8.5c2.5,0,4.5-2,4.5-4.5S132,120.5,129.5,120.5z"/>
	<path d="M76.2,163.5c-2.5,0-4.5,2-4.5,4.5v8.5c0,2.5,2,4.5,4.5,4.5s4.5-2,4.5-4.5V168C80.8,165.5,78.7,163.5,76.2,163.5z"/>
	<path d="M108.4,96.9c1.1,0,2.2-0.4,3.1-1.3l6.1-5.9c1.8-1.7,1.9-4.6,0.1-6.4c-1.7-1.8-4.6-1.9-6.4-0.1l-6.1,5.9
		c-1.8,1.7-1.9,4.6-0.1,6.4C106,96.4,107.2,96.9,108.4,96.9z"/>
	<path d="M41,152.8l-6.1,5.9c-1.8,1.7-1.9,4.6-0.1,6.4c0.9,0.9,2.1,1.4,3.2,1.4c1.1,0,2.2-0.4,3.1-1.3l6.1-5.9
		c1.8-1.7,1.9-4.6,0.1-6.4C45.7,151.1,42.8,151,41,152.8z"/>
	<path d="M40.6,95.3c0.9,0.9,2.1,1.4,3.2,1.4c1.1,0,2.2-0.4,3.1-1.3c1.8-1.7,1.9-4.6,0.1-6.4l-5.9-6.1c-1.7-1.8-4.6-1.9-6.4-0.1
		c-1.8,1.7-1.9,4.6-0.1,6.4L40.6,95.3z"/>
	<path d="M110.2,152.9c-1.7-1.8-4.6-1.9-6.4-0.1c-1.8,1.7-1.9,4.6-0.1,6.4l5.9,6.1c0.9,0.9,2.1,1.4,3.2,1.4c1.1,0,2.2-0.4,3.1-1.3
		c1.8-1.7,1.9-4.6,0.1-6.4L110.2,152.9z"/>
	<path d="M52.4,114c0.4-0.5,0.9-0.8,1.6-0.8c0.7,0,1.2,0.2,1.6,0.6s0.5,0.9,0.5,1.6h1.6l0,0c0-1-0.3-1.9-1-2.5
		c-0.7-0.6-1.6-0.9-2.8-0.9c-1.1,0-2.1,0.4-2.8,1.2c-0.7,0.8-1.1,1.8-1.1,3v1.9c0,1.2,0.4,2.2,1.1,3c0.7,0.8,1.7,1.2,2.8,1.2
		c1.1,0,2.1-0.3,2.7-0.9c0.7-0.6,1-1.5,1-2.5l0,0h-1.6c0,0.7-0.2,1.2-0.5,1.6s-0.9,0.6-1.6,0.6c-0.7,0-1.2-0.3-1.7-0.8
		s-0.6-1.2-0.6-2v-1.9C51.8,115.3,52,114.6,52.4,114z"/>
	<path d="M67.2,116.1c0-1.2-0.4-2.2-1.1-3s-1.8-1.2-3-1.2c-1.2,0-2.2,0.4-2.9,1.2s-1.1,1.8-1.1,3v1.8c0,1.2,0.4,2.2,1.1,3
		c0.7,0.8,1.7,1.2,2.9,1.2c1.2,0,2.2-0.4,3-1.2c0.8-0.8,1.1-1.8,1.1-3V116.1z M65.5,117.9c0,0.8-0.2,1.5-0.7,2.1s-1,0.8-1.8,0.8
		c-0.7,0-1.3-0.3-1.7-0.8c-0.4-0.5-0.6-1.2-0.6-2.1v-1.8c0-0.8,0.2-1.5,0.6-2s1-0.8,1.7-0.8c0.8,0,1.4,0.3,1.8,0.8s0.7,1.2,0.7,2
		V117.9z"/>
	<polygon points="70.6,118.6 70.5,114.3 70.5,114.3 73.4,122 74.6,122 77.5,114.3 77.6,114.3 77.4,118.6 77.4,122 79,122 79,112 
		76.9,112 74,119.7 74,119.7 71.1,112 69,112 69,122 70.6,122 	"/>
	<rect x="81.3" y="112" width="1.7" height="10"/>
	<polygon points="86.9,114.7 87,114.7 91.4,122 93,122 93,112 91.4,112 91.4,119.3 91.3,119.3 86.9,112 85.3,112 85.3,122 86.9,122 
			"/>
	<path d="M102.6,116.9H99v1.2h2v2c-0.1,0.2-0.4,0.3-0.7,0.4s-0.7,0.2-1.3,0.2c-0.7,0-1.3-0.3-1.8-0.8c-0.5-0.5-0.7-1.2-0.7-2V116
		c0-0.8,0.2-1.4,0.6-2c0.4-0.5,1-0.8,1.7-0.8c0.7,0,1.2,0.2,1.5,0.5c0.4,0.3,0.5,0.8,0.6,1.3h1.6l0,0c0-0.9-0.3-1.7-1-2.3
		c-0.7-0.6-1.6-0.9-2.7-0.9c-1.2,0-2.1,0.4-2.8,1.1c-0.7,0.8-1.1,1.7-1.1,2.9v2.1c0,1.2,0.4,2.2,1.2,2.9c0.8,0.8,1.8,1.1,3,1.1
		c0.9,0,1.7-0.2,2.3-0.5c0.6-0.3,1-0.7,1.3-1V116.9z"/>
	<path d="M62.4,135.3c-0.8-0.2-1.4-0.5-1.8-0.7s-0.5-0.6-0.5-0.9c0-0.4,0.2-0.8,0.5-1s0.8-0.4,1.4-0.4c0.6,0,1.1,0.2,1.5,0.5
		c0.3,0.3,0.5,0.7,0.5,1.2h1.6l0,0c0-0.8-0.3-1.5-1-2.1c-0.7-0.6-1.5-0.9-2.6-0.9c-1,0-1.9,0.3-2.6,0.8s-1,1.2-1,2
		c0,0.8,0.3,1.4,0.9,1.9c0.6,0.5,1.5,0.9,2.6,1.2c0.8,0.2,1.3,0.4,1.6,0.7c0.3,0.3,0.5,0.6,0.5,1c0,0.4-0.2,0.8-0.5,1
		s-0.8,0.4-1.4,0.4c-0.7,0-1.2-0.1-1.6-0.4c-0.4-0.3-0.6-0.8-0.6-1.4h-1.6l0,0c0,1,0.4,1.7,1.1,2.3c0.8,0.6,1.7,0.8,2.7,0.8
		c1.1,0,2-0.2,2.6-0.7c0.7-0.5,1-1.1,1-2c0-0.8-0.3-1.4-0.8-1.9S63.5,135.6,62.4,135.3z"/>
	<path d="M75.2,136.9v-1.8c0-1.2-0.4-2.2-1.1-3s-1.8-1.2-3-1.2c-1.2,0-2.2,0.4-2.9,1.2s-1.1,1.8-1.1,3v1.8c0,1.2,0.4,2.2,1.1,3
		c0.7,0.8,1.7,1.2,2.9,1.2c1.2,0,2.2-0.4,3-1.2C74.8,139.1,75.2,138.1,75.2,136.9z M73.6,136.9c0,0.8-0.2,1.5-0.7,2.1
		s-1,0.8-1.8,0.8c-0.7,0-1.3-0.3-1.7-0.8c-0.4-0.5-0.6-1.2-0.6-2.1v-1.8c0-0.8,0.2-1.5,0.6-2s1-0.8,1.7-0.8c0.8,0,1.4,0.3,1.8,0.8
		s0.7,1.2,0.7,2V136.9z"/>
	<path d="M80.6,130.9c-1.2,0-2.2,0.4-2.9,1.2c-0.7,0.8-1.1,1.8-1.1,3v1.8c0,1.2,0.4,2.2,1.1,3c0.7,0.8,1.7,1.2,2.9,1.2
		c1.2,0,2.2-0.4,3-1.2c0.8-0.8,1.1-1.8,1.1-3v-1.8c0-1.2-0.4-2.2-1.1-3S81.9,130.9,80.6,130.9z M83.1,136.9c0,0.8-0.2,1.5-0.7,2.1
		c-0.4,0.5-1,0.8-1.8,0.8c-0.7,0-1.3-0.3-1.7-0.8c-0.4-0.5-0.6-1.2-0.6-2.1v-1.8c0-0.8,0.2-1.5,0.6-2s1-0.8,1.7-0.8
		c0.8,0,1.4,0.3,1.8,0.8c0.4,0.5,0.7,1.2,0.7,2V136.9z"/>
	<polygon points="92.7,138.3 92.6,138.3 88.2,131 86.6,131 86.6,141 88.2,141 88.2,133.7 88.3,133.7 92.7,141 94.3,141 94.3,131 
		92.7,131 	"/>
</g>
</svg>
