<?xml version="1.0" encoding="utf-8"?>
<!-- Generator: Adobe Illustrator 21.0.0, SVG Export Plug-In . SVG Version: 6.00 Build 0)  -->
<svg version="1.1" id="Слой_1" xmlns="http://www.w3.org/2000/svg" xmlns:xlink="http://www.w3.org/1999/xlink" x="0px" y="0px"
	 viewBox="0 0 17 17" style="enable-background:new 0 0 17 17;" xml:space="preserve">
<title>Shape</title>
<desc>Created with Sketch.</desc>
<g>
	<path d="M15.2,1.2H1.7c-0.1,0-0.3,0.1-0.3,0.2l0,0.1c0,0-0.1,0.2,0,0.3l5.3,6.8v4.9c0,0.1,0,0.3,0.1,0.3l2.6,2.3
		c0.2,0.1,0.4,0.1,0.4,0.1c0.3-0.1,0.3-0.3,0.3-0.4V8.7l0.1-0.1l5.4-6.7c0.1-0.1,0.1-0.3,0.1-0.4C15.5,1.3,15.3,1.2,15.2,1.2z
		 M9.5,8.1C9.4,8.3,9.3,8.4,9.3,8.5V15l-1.9-1.6V8.5c0-0.1-0.1-0.2-0.1-0.3L2.5,2h11.9L9.5,8.1z"/>
</g>
</svg>
