<?xml version="1.0" encoding="utf-8"?>
<!-- Generator: Adobe Illustrator 21.0.0, SVG Export Plug-In . SVG Version: 6.00 Build 0)  -->
<svg version="1.1" id="Слой_1" xmlns="http://www.w3.org/2000/svg" xmlns:xlink="http://www.w3.org/1999/xlink" x="0px" y="0px"
	 viewBox="0 0 37 23" style="enable-background:new 0 0 37 23;" xml:space="preserve">
<style type="text/css">
	.st0{fill:#FFFFFF;}
</style>
<title>group-2</title>
<desc>Created with Sketch.</desc>
<g>
	<path class="st0" d="M31.3,9.4h-4.8c-1,0-1.9,0.3-2.8,0.8c-0.7,0.5-1.4,1.1-1.8,1.9c-0.3-0.1-0.7-0.1-1-0.1h-4.8
		c-0.3,0-0.7,0-1,0.1c-0.5-0.8-1.1-1.4-1.8-1.9c-0.9-0.6-1.8-0.8-2.8-0.8H5.7C2.6,9.4,0,12.3,0,15.9v3.7c0,0.4,0.3,0.7,0.6,0.7h9.8
		v1.9c0,0.4,0.3,0.7,0.6,0.7h15c0.3,0,0.6-0.3,0.6-0.7v-1.9h9.8c0.3,0,0.6-0.3,0.6-0.7v-3.7C37,12.3,34.4,9.4,31.3,9.4z M10.4,17.9
		v0.2c0,0.1,0,0.1,0,0.2v0.3v0.3H1.2v-3c0-2.8,2-5.1,4.5-5.1h4.8c0.8,0,1.5,0.2,2.2,0.7c0.4,0.3,0.9,0.7,1.2,1.1
		C12,13.5,10.6,15.6,10.4,17.9z M25.4,18.6v3H11.6v-3c0-0.1,0-0.1,0-0.2c0-0.1,0-0.2,0-0.3V18c0,0,0-0.1,0-0.1v-0.2v0v-0.1v-0.1
		l0-0.1l0-0.2l0-0.1c0.6-2.1,2.3-3.5,4.3-3.5l0.1-0.1h4.8c2.3,0,4.2,1.9,4.5,4.5c0,0.1,0,0.2,0,0.3C25.4,18.4,25.4,18.5,25.4,18.6z
		 M35.7,18.9h-9.2v-0.4c0-0.1,0-0.1,0-0.2c0-0.1,0-0.1,0-0.2c0-0.1,0-0.2,0-0.2v-0.1v-0.1v-0.2v0v-0.1v-0.1v0v-0.1v-0.1v0v0v0v0
		v-0.1v0v-0.1v-0.1l0-0.1v0v0v0v0v-0.1l-0.1-0.2c-0.6-1.7-1.7-3-3.1-3.7c0.3-0.4,0.6-0.8,0.9-1.1c0.7-0.4,1.4-0.7,2.2-0.7h4.8
		c2.5,0,4.5,2.3,4.5,5.1V18.9z"/>
	<path class="st0" d="M8.1,8.4c2.4,0,4.3-1.9,4.3-4.2c0-1.1-0.5-2.2-1.3-3C10.4,0.5,9.2,0,8.1,0C5.7,0,3.8,1.9,3.8,4.2
		C3.8,6.5,5.7,8.4,8.1,8.4z M5.9,2.1c1.2-1.2,3.2-1.2,4.4,0c0.6,0.6,0.9,1.3,0.9,2.1c0,0.8-0.3,1.6-0.9,2.1c-1.2,1.2-3.2,1.2-4.4,0
		C4.7,5.1,4.7,3.3,5.9,2.1z"/>
	<path class="st0" d="M28.9,8.4c2.4,0,4.3-1.9,4.3-4.2S31.3,0,28.9,0c-2.4,0-4.3,1.9-4.3,4.2c0,1.1,0.5,2.2,1.3,3
		C26.6,7.9,27.7,8.4,28.9,8.4z M26.7,2.1c1.2-1.2,3.2-1.2,4.4,0c1.2,1.2,1.2,3.1,0,4.2c-1.2,1.2-3.2,1.2-4.4,0
		c-0.6-0.6-0.9-1.3-0.9-2.1C25.8,3.4,26.1,2.6,26.7,2.1z"/>
	<path class="st0" d="M21.6,9.4c1.7-1.6,1.7-4.3,0-5.9c-0.8-0.8-1.9-1.2-3.1-1.2c-1.1,0-2.3,0.4-3.1,1.2c-1.7,1.6-1.7,4.3,0,5.9
		S19.9,11,21.6,9.4z M18.5,3.4c0.8,0,1.6,0.3,2.2,0.9c0.6,0.6,0.9,1.3,0.9,2.1c0,1.7-1.4,3-3.1,3c-1.7,0-3.1-1.3-3.1-3
		C15.4,4.8,16.8,3.4,18.5,3.4z"/>
</g>
</svg>
