<?xml version="1.0" encoding="UTF-8"?>
<svg width="22px" height="13px" viewBox="0 0 22 13" version="1.1" xmlns="http://www.w3.org/2000/svg" xmlns:xlink="http://www.w3.org/1999/xlink">
    <!-- Generator: Sketch 53 (72520) - https://sketchapp.com -->
    <title>Shape</title>
    <desc>Created with Sketch.</desc>
    <g id="Page-1-Copy-5" stroke="none" stroke-width="1" fill="none" fill-rule="evenodd">
        <g id="Login-8" transform="translate(-802.000000, -408.000000)" fill="#89929E" fill-rule="nonzero" stroke="#89929E" stroke-width="0.5">
            <path d="M813.000986,409 C808.645468,409 804.872526,411.170126 803.02958,414.363522 C802.99014,414.443082 802.99014,414.557547 803.02958,414.627987 C804.872808,417.830189 808.645468,420 813.000986,420 C817.356222,420 821.129164,417.838679 822.964505,414.627673 C823.011832,414.557233 823.011832,414.442767 822.964505,414.363208 C821.129164,411.161006 817.356504,409 813.000986,409 L813.000986,409 Z M813.000986,409.494025 C817.159589,409.494025 820.735615,411.549371 822.499683,414.495912 C820.735615,417.450943 817.15987,419.506289 813.000986,419.506289 C808.842102,419.506289 805.266357,417.450943 803.494119,414.495597 C805.266638,411.549371 808.842383,409.494025 813.000986,409.494025 L813.000986,409.494025 Z M813.000986,410.993711 C811.276076,410.993711 809.866399,412.563836 809.866399,414.495912 C809.866399,416.436478 811.276076,418.006604 813.000986,418.006604 C814.725896,418.006604 816.135573,416.436478 816.135573,414.495912 C816.135855,412.563836 814.725896,410.993711 813.000986,410.993711 L813.000986,410.993711 Z M813.000986,411.487421 C814.489542,411.487421 815.686809,412.837107 815.686809,414.495597 C815.686809,416.162893 814.489542,417.512579 813.000986,417.512579 C811.51243,417.512579 810.315163,416.162893 810.315163,414.495597 C810.315163,412.837421 811.51243,411.487421 813.000986,411.487421 L813.000986,411.487421 Z" id="Shape"></path>
        </g>
    </g>
</svg>