<?xml version="1.0" encoding="UTF-8"?>
<svg width="19px" height="20px" viewBox="0 0 19 20" version="1.1" xmlns="http://www.w3.org/2000/svg" xmlns:xlink="http://www.w3.org/1999/xlink">
    <!-- Generator: Sketch 55.2 (78181) - https://sketchapp.com -->
    <title>Group 2</title>
    <desc>Created with Sketch.</desc>
    <g id="Share-Box-Version-Mai-19-Copy" stroke="none" stroke-width="1" fill="none" fill-rule="evenodd">
        <g id="Share-box-New-V" transform="translate(-786.000000, -366.000000)" fill-rule="nonzero">
            <g id="Popups/share_Search_name" transform="translate(534.000000, 288.000000)">
                <g id="Group-6">
                    <g id="Group-2" transform="translate(253.000000, 79.000000)">
                        <path d="M9.24277299,3.55842447 C7.94774425,3.55941732 6.89877586,4.57549606 6.89980097,5.82793701 C6.90029023,6.42826772 7.14688793,7.00388976 7.58556609,7.42866142 C8.02585632,7.85499213 8.6234454,8.09433071 9.24648563,8.09385897 C10.5415144,8.09286614 11.5904828,7.0767874 11.5894576,5.82434646 C11.5883822,4.57195276 10.5377529,3.55743307 9.24277299,3.55842447 Z" id="Shape" fill="#89929E"></path>
                        <path d="M10.5693103,8.7703937 L7.92356322,8.7703937 C6.1968908,8.7703937 4.79712644,10.124126 4.79712644,11.7940157 L4.79712644,13.5269291 C4.79712644,13.678252 4.92399138,13.8009449 5.08045977,13.8009449 L13.4124138,13.8009449 C13.5688822,13.8009449 13.6957471,13.678252 13.6957471,13.5269291 L13.6957471,11.7940157 C13.6957471,10.124126 12.2959828,8.7703937 10.5693103,8.7703937 Z" id="Shape" fill="#89929E"></path>
                        <path d="M16.5818391,0.353385827 C16.3494569,0.127653543 16.0338333,0.000519685039 15.7044828,-3.82804899e-13 L2.79034483,-3.82804899e-13 C2.1033592,0.00103937008 1.5467069,0.539385827 1.54563218,1.20377953 L1.54563218,2.73448819 L1.06689655,2.73448819 C0.478100575,2.73552756 0.00107471264,3.19686614 -3.35376171e-12,3.76629921 L-3.35376171e-12,3.83433071 C0.00107471264,4.40376378 0.478100575,4.86510236 1.06689655,4.86614173 L1.54172414,4.86614173 L1.54172414,7.93322835 L1.06689655,7.93322835 C0.478100575,7.93426772 0.00107471264,8.3956063 -3.35376171e-12,8.96503937 L-3.35376171e-12,9.03307087 C0.00107471264,9.60250394 0.478100575,10.0638425 1.06689655,10.0648819 L1.54172414,10.0648819 L1.54172414,13.1319685 L1.06689655,13.1319685 C0.478100575,13.1330079 0.00107471264,13.5943465 -3.35376171e-12,14.1637795 L-3.35376171e-12,14.231811 C-3.35376171e-12,14.8019528 0.477367816,15.2644724 1.06689655,15.2655118 L1.54172414,15.2655118 L1.54172414,16.7773228 C1.54226149,17.0958425 1.67371839,17.4010866 1.90712644,17.6258268 C2.13950862,17.8515591 2.45513218,17.9786929 2.78448276,17.9792126 L15.7025287,17.9792126 C16.3895144,17.9781732 16.9461667,17.4398268 16.9472414,16.7754331 L16.9472414,1.20188976 C16.9469483,0.883322835 16.8154425,0.577984252 16.5818391,0.353385827 Z M1.06689655,4.2992126 C0.801442529,4.2992126 0.586202872,4.09105512 0.586202872,3.83433071 L0.586202872,3.76629921 C0.585132184,3.5095748 0.799439655,3.30056693 1.06494253,3.29952756 C1.06557759,3.29952756 1.06626149,3.29952756 1.06689655,3.29952756 L2.55390805,3.29952756 C2.81941092,3.29952756 3.0345977,3.50768504 3.0345977,3.76440945 L3.0345977,3.83244094 C3.0345977,4.0892126 2.81936207,4.29732283 2.55390805,4.29732283 L1.06689655,4.2992126 Z M1.06689655,9.49984252 C0.801442529,9.49984252 0.586202872,9.29168504 0.586202872,9.03496063 L0.586202872,8.96692913 C0.585132184,8.71020472 0.799439655,8.50119685 1.06494253,8.50015748 C1.06557759,8.50015748 1.06626149,8.50015748 1.06689655,8.50015748 L2.55390805,8.50015748 C2.81941092,8.50015748 3.0345977,8.70831496 3.0345977,8.96503937 L3.0345977,9.03307087 C3.0345977,9.28979528 2.81936207,9.49795276 2.55390805,9.49795276 L1.06689655,9.49984252 Z M1.06689655,14.6985827 C0.801442529,14.6985827 0.586202872,14.4904252 0.586202872,14.2337008 L0.586202872,14.1656693 C0.585132184,13.9089449 0.799439655,13.699937 1.06494253,13.6988976 C1.06557759,13.6988976 1.06626149,13.6988976 1.06689655,13.6988976 L2.55390805,13.6988976 C2.81941092,13.6988976 3.0345977,13.9070551 3.0345977,14.1637795 L3.0345977,14.231811 C3.0345977,14.4885827 2.81936207,14.6966929 2.55390805,14.6966929 L1.06689655,14.6985827 Z M16.3766667,16.7773228 C16.3745172,17.1386457 16.0722299,17.4309921 15.6986207,17.4330787 L2.79034483,17.4330787 C2.61116092,17.4339213 2.43901149,17.365937 2.3116092,17.2440945 C2.18562356,17.1208819 2.11532759,16.9543937 2.1162069,16.7811024 L2.1162069,15.2692913 L2.56367816,15.2692913 C3.15247414,15.268252 3.6295,14.8069134 3.63057471,14.2374803 L3.63057471,14.1694488 C3.6295,13.6000157 3.15247414,13.1386772 2.56367816,13.1376378 L2.11034483,13.1376378 L2.11034483,10.0648819 L2.55781609,10.0648819 C3.14661207,10.0638425 3.62363793,9.60250394 3.62471264,9.03307087 L3.62471264,8.96503937 C3.62363793,8.3956063 3.14661207,7.93426772 2.55781609,7.93322835 L2.11034483,7.93322835 L2.11034483,4.86614173 L2.55781609,4.86614173 C3.14661207,4.86510236 3.62363793,4.40376378 3.62471264,3.83433071 L3.62471264,3.76629921 C3.62363793,3.19686614 3.14661207,2.73552756 2.55781609,2.73448819 L2.11034483,2.73448819 L2.11034483,1.20377953 C2.11249425,0.842456693 2.41478161,0.550110236 2.7883908,0.548031496 L15.7025287,0.548031496 C16.0765776,0.549070866 16.3795,0.842031496 16.3805747,1.20377953 L16.3766667,16.7773228 Z" id="Shape" stroke="#89929E" stroke-width="0.767045455" fill="#879BFF"></path>
                    </g>
                </g>
            </g>
        </g>
    </g>
</svg>