<?xml version="1.0" encoding="utf-8"?>
<!-- Generator: Adobe Illustrator 21.0.0, SVG Export Plug-In . SVG Version: 6.00 Build 0)  -->
<svg version="1.1" id="Слой_1" xmlns="http://www.w3.org/2000/svg" xmlns:xlink="http://www.w3.org/1999/xlink" x="0px" y="0px"
	 viewBox="0 0 29 28" style="enable-background:new 0 0 29 28;" xml:space="preserve">
<style type="text/css">
	.st0{fill:#4A90E2;}
</style>
<title>folders</title>
<desc>Created with Sketch.</desc>
<g>
	<path class="st0" d="M1.5,4.5c0.4,0,0.8-0.4,0.8-0.8c0-0.7,0.6-1.3,1.3-1.3h4.8l3.8,4.1c0.2,0.2,0.4,0.3,0.6,0.3h12.5
		c0.7,0,1.3,0.6,1.3,1.3c0,0.4,0.4,0.8,0.8,0.8s0.8-0.4,0.8-0.8c0-1.6-1.3-2.9-2.9-2.9H13.2L9.4,1.1C9.2,0.9,9,0.8,8.8,0.8H3.6
		C2,0.8,0.8,2.1,0.8,3.7C0.8,4.2,1.1,4.5,1.5,4.5z"/>
	<path class="st0" d="M25.4,8.9H13.2L9.4,4.8C9.2,4.6,9,4.5,8.8,4.5H3.6C2,4.5,0.8,5.8,0.8,7.4v17c0,1.6,1.3,2.9,2.9,2.9h21.7
		c1.6,0,2.9-1.3,2.9-2.9V11.8C28.2,10.2,26.9,8.9,25.4,8.9z"/>
</g>
</svg>
