<?xml version="1.0" encoding="utf-8"?>
<!-- Generator: Adobe Illustrator 21.0.0, SVG Export Plug-In . SVG Version: 6.00 Build 0)  -->
<svg version="1.1" id="Слой_1" xmlns="http://www.w3.org/2000/svg" xmlns:xlink="http://www.w3.org/1999/xlink" x="0px" y="0px"
	 viewBox="0 0 13 12" style="enable-background:new 0 0 13 12;" xml:space="preserve">
<title>Group 3</title>
<desc>Created with Sketch.</desc>
<g>
	<path  d="M12.6,2.5L11,0.7c-0.4-0.5-1.2-0.5-1.6-0.1L2.1,6.9c0,0,0,0,0,0L2,7l0,0C1.9,7.1,1.8,7.3,1.7,7.5l-1.2,4
		L3,11.1l1.5-0.3c0.2,0,0.4-0.2,0.5-0.3l0,0l7.4-6.4c0.2-0.2,0.4-0.5,0.4-0.8S12.8,2.7,12.6,2.5z M4.3,9.8l-1.5,0.3l-0.4,0.1
		L2.1,9.8l0.6-2.1c0,0,0,0,0,0L4.3,9.8C4.4,9.8,4.4,9.8,4.3,9.8z"/>
</g>
</svg>
