<?xml version="1.0" encoding="UTF-8"?>
<svg width="26px" height="18px" viewBox="0 0 26 18" version="1.1" xmlns="http://www.w3.org/2000/svg" xmlns:xlink="http://www.w3.org/1999/xlink">
    <!-- Generator: Sketch 51.3 (57544) - http://www.bohemiancoding.com/sketch -->
    <title>Shape</title>
    <desc>Created with Sketch.</desc>
    <defs>
        <path d="M20.0909091,13.7142857 C22.2036364,13.7142857 23.8963636,11.9914286 23.8963636,9.85714286 C23.8963636,7.72285714 22.2036364,6 20.0909091,6 C17.9781818,6 16.2727273,7.72285714 16.2727273,9.85714286 C16.2727273,11.9914286 17.9781818,13.7142857 20.0909091,13.7142857 Z M9.90909091,13.7142857 C12.0218182,13.7142857 13.7145455,11.9914286 13.7145455,9.85714286 C13.7145455,7.72285714 12.0218182,6 9.90909091,6 C7.79636364,6 6.09090909,7.72285714 6.09090909,9.85714286 C6.09090909,11.9914286 7.79636364,13.7142857 9.90909091,13.7142857 Z M9.90909091,16.2857143 C6.94363636,16.2857143 2,17.79 2,20.7857143 C2,21.7698413 2,22.5079365 2,23 C2,23 2,23 2,23 L2,23 C2,23.5522847 2.44771525,24 3,24 L17,24 L17,24 C17.5522847,24 18,23.5522847 18,23 C18,23 18,23 18,23 C18,22.5079365 18,21.7698413 18,20.7857143 C18,17.79 12.8745455,16.2857143 9.90909091,16.2857143 Z M20.0909091,16.2857143 C19.7218182,16.2857143 19.3018182,16.3114286 18.8563636,16.35 C20.3327273,17.43 21.3636364,18.8828571 21.3636364,20.7857143 L21.3636364,24 L27,24 L27,24 C27.5522847,24 28,23.5522847 28,23 C28,23 28,23 28,23 C28,22.5079365 28,21.7698413 28,20.7857143 C28,17.79 23.0563636,16.2857143 20.0909091,16.2857143 Z" id="path-1"></path>
    </defs>
    <g id="Symbols">
        <g id="Header/desk_no-search" transform="translate(-1078.000000, -28.000000)">
            <g id="Contacts" transform="translate(1067.000000, 22.000000)">
                <g id="Group-4" transform="translate(9.000000, 0.000000)">
                    <g id="Shape">
                        <path d="M20.0909091,13.7142857 C22.2036364,13.7142857 23.8963636,11.9914286 23.8963636,9.85714286 C23.8963636,7.72285714 22.2036364,6 20.0909091,6 C17.9781818,6 16.2727273,7.72285714 16.2727273,9.85714286 C16.2727273,11.9914286 17.9781818,13.7142857 20.0909091,13.7142857 Z M9.90909091,13.7142857 C12.0218182,13.7142857 13.7145455,11.9914286 13.7145455,9.85714286 C13.7145455,7.72285714 12.0218182,6 9.90909091,6 C7.79636364,6 6.09090909,7.72285714 6.09090909,9.85714286 C6.09090909,11.9914286 7.79636364,13.7142857 9.90909091,13.7142857 Z M9.90909091,16.2857143 C6.94363636,16.2857143 2,17.79 2,20.7857143 C2,21.7698413 2,22.5079365 2,23 C2,23 2,23 2,23 L2,23 C2,23.5522847 2.44771525,24 3,24 L17,24 L17,24 C17.5522847,24 18,23.5522847 18,23 C18,23 18,23 18,23 C18,22.5079365 18,21.7698413 18,20.7857143 C18,17.79 12.8745455,16.2857143 9.90909091,16.2857143 Z M20.0909091,16.2857143 C19.7218182,16.2857143 19.3018182,16.3114286 18.8563636,16.35 C20.3327273,17.43 21.3636364,18.8828571 21.3636364,20.7857143 L21.3636364,24 L27,24 L27,24 C27.5522847,24 28,23.5522847 28,23 C28,23 28,23 28,23 C28,22.5079365 28,21.7698413 28,20.7857143 C28,17.79 23.0563636,16.2857143 20.0909091,16.2857143 Z" id="path-1"></path>
                        <path d="M20.0909091,13.7142857 C22.2036364,13.7142857 23.8963636,11.9914286 23.8963636,9.85714286 C23.8963636,7.72285714 22.2036364,6 20.0909091,6 C17.9781818,6 16.2727273,7.72285714 16.2727273,9.85714286 C16.2727273,11.9914286 17.9781818,13.7142857 20.0909091,13.7142857 Z M9.90909091,13.7142857 C12.0218182,13.7142857 13.7145455,11.9914286 13.7145455,9.85714286 C13.7145455,7.72285714 12.0218182,6 9.90909091,6 C7.79636364,6 6.09090909,7.72285714 6.09090909,9.85714286 C6.09090909,11.9914286 7.79636364,13.7142857 9.90909091,13.7142857 Z M9.90909091,16.2857143 C6.94363636,16.2857143 2,17.79 2,20.7857143 C2,21.7698413 2,22.5079365 2,23 C2,23 2,23 2,23 L2,23 C2,23.5522847 2.44771525,24 3,24 L17,24 L17,24 C17.5522847,24 18,23.5522847 18,23 C18,23 18,23 18,23 C18,22.5079365 18,21.7698413 18,20.7857143 C18,17.79 12.8745455,16.2857143 9.90909091,16.2857143 Z M20.0909091,16.2857143 C19.7218182,16.2857143 19.3018182,16.3114286 18.8563636,16.35 C20.3327273,17.43 21.3636364,18.8828571 21.3636364,20.7857143 L21.3636364,24 L27,24 L27,24 C27.5522847,24 28,23.5522847 28,23 C28,23 28,23 28,23 C28,22.5079365 28,21.7698413 28,20.7857143 C28,17.79 23.0563636,16.2857143 20.0909091,16.2857143 Z" id="path-1"></path>
                    </g>
                </g>
            </g>
        </g>
    </g>
</svg>