<?xml version="1.0" encoding="utf-8"?>
<!-- Generator: Adobe Illustrator 21.0.0, SVG Export Plug-In . SVG Version: 6.00 Build 0)  -->
<svg version="1.1" id="Слой_1" xmlns="http://www.w3.org/2000/svg" xmlns:xlink="http://www.w3.org/1999/xlink" x="0px" y="0px"
	 viewBox="0 0 28 28" style="enable-background:new 0 0 28 28;" xml:space="preserve">
<title>calendar-2</title>
<desc>Created with Sketch.</desc>
<g>
	<path  d="M17.9,16.4c0.1-0.1,0.2-0.3,0.2-0.5s-0.1-0.4-0.2-0.5c-0.3-0.3-0.8-0.3-1.1,0l-4,4l-1.6-1.6
		c-0.1-0.1-0.3-0.2-0.5-0.2c-0.2,0-0.4,0.1-0.5,0.2c-0.3,0.3-0.3,0.8,0,1.1l2.1,2.1c0.3,0.3,0.8,0.3,1.1,0L17.9,16.4z"/>
	<path d="M26,4.9h-5.1V2c0-0.4-0.3-0.8-0.8-0.8S19.3,1.6,19.3,2v2.9H8.7V2c0-0.4-0.3-0.8-0.8-0.8S7.1,1.6,7.1,2v2.9H2
		c-0.4,0-0.8,0.3-0.8,0.8V26c0,0.4,0.3,0.8,0.8,0.8h24c0.4,0,0.8-0.3,0.8-0.8V5.7C26.8,5.2,26.4,4.9,26,4.9z M25.2,25.2H2.8V11h22.4
		V25.2z M25.2,9.5H2.8v-3h22.4V9.5z"/>
</g>
</svg>
