<?xml version="1.0" encoding="utf-8"?>
<!-- Generator: Adobe Illustrator 21.0.0, SVG Export Plug-In . SVG Version: 6.00 Build 0)  -->
<svg version="1.1" id="Слой_1" xmlns="http://www.w3.org/2000/svg" xmlns:xlink="http://www.w3.org/1999/xlink" x="0px" y="0px"
	 viewBox="0 0 39 25" style="enable-background:new 0 0 39 25;" xml:space="preserve">
<title>Shape</title>
<desc>Created with Sketch.</desc>
<g id="Page-1-Copy">
	<g id="Desktop-S2" transform="translate(-602.000000, -146.000000)">
		<g id="Group-4" transform="translate(574.000000, 125.000000)">
			<g id="Documents_x2F_Music">
				<g id="DocIcon_x2F_music" transform="translate(28.000000, 13.000000)">
					<g id="video-camera" transform="translate(1.000000, 9.000000)">
						<g id="Shape">
							<path d="M35.8,1.8c-0.7-0.3-1.5-0.2-2.1,0.4l-8,7.3V3.4c0-1.9-1.6-3.4-3.5-3.4H3.5C1.6,0,0,1.5,0,3.4v16.2
								C0,21.5,1.5,23,3.4,23h7.4h11.4c2,0,3.6-1.6,3.6-3.6v-5.6l7.9,7.5c0.4,0.4,0.9,0.6,1.3,0.6c0.2,0,0.5,0,0.7-0.1
								c0.7-0.3,1.2-1,1.2-1.8V3.6C37,2.8,36.6,2.1,35.8,1.8z M24.4,19.4c0,1.2-1,2.2-2.2,2.2H11.9c0,0-2.9,0-8.5,0
								c-1.1,0-2-0.9-2-1.9V3.4c0-1.1,0.9-2.1,2.1-2.1h18.8c1.1,0,2.1,0.9,2.1,2.1V19.4z M35.6,20c0,0.3-0.3,0.5-0.3,0.5
								c-0.1,0-0.3,0.1-0.6-0.1L25.9,12c-0.1-0.1-0.2-0.2-0.2-0.4c0-0.1,0.1-0.3,0.2-0.4l8.8-8.1c0.1-0.1,0.2-0.1,0.3-0.1
								c0.1,0,0.2,0,0.2,0c0.1,0,0.3,0.2,0.3,0.5V20z"/>
						</g>
					</g>
				</g>
			</g>
		</g>
	</g>
</g>
</svg>
