<?xml version="1.0" encoding="UTF-8"?>
<svg width="26px" height="25px" viewBox="0 0 26 25" version="1.1" xmlns="http://www.w3.org/2000/svg" xmlns:xlink="http://www.w3.org/1999/xlink">
    <!-- Generator: Sketch 55.2 (78181) - https://sketchapp.com -->
    <title>chat</title>
    <desc>Created with Sketch.</desc>
    <g id="Desktop-Entier" stroke="none" stroke-width="1" fill="none" fill-rule="evenodd">
        <g id="Desktop-1" transform="translate(-1309.000000, -270.000000)" fill="#18A3AC" fill-rule="nonzero">
            <g id="chat" transform="translate(1309.000000, 270.000000)">
                <path d="M9.88,8.95520833 C9.568,8.95520833 9.25496,8.875 8.97728,8.71666667 L0.39312,3.803125 C0.01872,3.58854167 -0.11128,3.11145833 0.10296,2.7375 C0.31824,2.3625 0.7956,2.234375 1.16688,2.446875 L9.75104,7.359375 C9.83008,7.40520833 9.92992,7.40520833 10.00896,7.359375 L18.59312,2.446875 C18.96544,2.234375 19.4428,2.3625 19.65704,2.7375 C19.87128,3.1125 19.74128,3.58958333 19.36688,3.803125 L10.78272,8.715625 C10.50504,8.87604167 10.192,8.95520833 9.88,8.95520833 L9.88,8.95520833 Z" id="Path"></path>
                <path d="M16.9,14.5833333 L2.86,14.5833333 C1.28232,14.5833333 0,13.2989583 0,11.71875 L0,2.86458333 C0,1.284375 1.28232,0 2.86,0 L16.9,0 C18.47768,0 19.76,1.284375 19.76,2.86458333 L19.76,11.71875 C19.76,13.2989583 18.47768,14.5833333 16.9,14.5833333 Z M2.86,1.5625 C2.14344,1.5625 1.56,2.146875 1.56,2.86458333 L1.56,11.71875 C1.56,12.4364583 2.14344,13.0208333 2.86,13.0208333 L16.9,13.0208333 C17.61656,13.0208333 18.2,12.4364583 18.2,11.71875 L18.2,2.86458333 C18.2,2.146875 17.61656,1.5625 16.9,1.5625 L2.86,1.5625 Z" id="Shape"></path>
                <path d="M9.36,21.875 L8.06,21.875 C6.48232,21.875 5.2,20.590625 5.2,19.0104167 L5.2,16.40625 C5.2,15.975 5.54944,15.625 5.98,15.625 C6.41056,15.625 6.76,15.975 6.76,16.40625 L6.76,19.0104167 C6.76,19.728125 7.34344,20.3125 8.06,20.3125 L10.14,20.3125 C10.57056,20.3125 10.92,20.6625 10.92,21.09375 L12.42488,20.565625 M23.66,19.0104167 L23.66,10.15625 C23.66,9.43854167 23.07656,8.85416667 22.36,8.85416667 L21.58,8.85416667 C21.14944,8.85416667 20.8,8.50416667 20.8,8.07291667 C20.8,7.64166667 21.14944,7.29166667 21.58,7.29166667 L22.36,7.29166667 C23.93768,7.29166667 25.22,8.57604167 25.22,10.15625 L25.22,19.0104167" id="Shape"></path>
                <path d="M11.6584414,25 C11.5638014,25 11.4670814,24.9822917 11.3755614,24.946875 C11.0760414,24.8302083 10.8784414,24.540625 10.8784414,24.21875 L10.8784414,21.875 L9.57844139,21.875 C8.00076139,21.875 6.71844139,20.590625 6.71844139,19.0104167 L6.71844139,16.40625 C6.71844139,15.975 7.06788139,15.625 7.49844139,15.625 C7.92900139,15.625 8.27844139,15.975 8.27844139,16.40625 L8.27844139,19.0104167 C8.27844139,19.728125 8.86188139,20.3125 9.57844139,20.3125 L11.6584414,20.3125 C12.0890014,20.3125 12.4384414,20.6625 12.4384414,21.09375 L12.4384414,22.2104167 L13.9433214,20.565625 C14.0910014,20.4041667 14.3000414,20.3125 14.5184414,20.3125 L23.8784414,20.3125 C24.5950014,20.3125 25.1784414,19.728125 25.1784414,19.0104167 C25.3635614,20.9201389 24.9302281,21.875 23.8784414,21.875 L14.8616414,21.875 L12.2335614,24.746875 C12.0827614,24.9114583 11.8726814,25 11.6584414,25 Z" id="Path" transform="translate(15.969221, 20.312500) scale(-1, 1) translate(-15.969221, -20.312500) "></path>
            </g>
        </g>
    </g>
</svg>