<?xml version="1.0" encoding="utf-8"?>
<!-- Generator: Adobe Illustrator 21.0.0, SVG Export Plug-In . SVG Version: 6.00 Build 0)  -->
<svg version="1.1" id="Слой_1" xmlns="http://www.w3.org/2000/svg" xmlns:xlink="http://www.w3.org/1999/xlink" x="0px" y="0px"
	 viewBox="0 0 16 16" style="enable-background:new 0 0 16 16;" xml:space="preserve">
<title>Pencil</title>
<desc>Created with Sketch.</desc>
<g>
	<path d="M15.5,2.9c0-0.7-0.3-1.3-0.7-1.7c-1-0.9-2.5-0.9-3.4,0l-9.7,9.7h0L1.5,11c-0.6,0.6-0.7,1-0.9,2.7l-0.3,1.9l1.9-0.3
		c1.6-0.2,2.1-0.3,2.7-0.9l0.8-0.7h0l9.1-9.1C15.3,4.2,15.5,3.5,15.5,2.9z M2.1,14.3c-0.2,0-0.3,0-0.5,0.1l0.1-0.5
		c0.2-1.6,0.3-1.8,0.6-2.1l1.9,1.9C3.9,14,3.7,14.1,2.1,14.3z M5.1,12.8l-1.9-1.9l8-8l1.9,1.9L5.1,12.8z M14.1,3.9L14.1,3.9l-2-1.9
		l0.1-0.1c0.5-0.5,1.4-0.5,1.9,0C14.6,2.5,14.6,3.3,14.1,3.9z"/>
</g>
</svg>
