<?xml version="1.0" encoding="utf-8"?>
<!-- Generator: Adobe Illustrator 21.0.0, SVG Export Plug-In . SVG Version: 6.00 Build 0)  -->
<svg version="1.1" id="Слой_1" xmlns="http://www.w3.org/2000/svg" xmlns:xlink="http://www.w3.org/1999/xlink" x="0px" y="0px"
	 viewBox="0 0 14 14" style="enable-background:new 0 0 14 14;" xml:space="preserve">
<title>time-left</title>
<desc>Created with Sketch.</desc>
<g>
	<path d="M8.4,12.8c-0.1,0-0.2,0.1-0.3,0.1c-0.3,0.1-0.5,0.4-0.5,0.7c0,0.2,0.1,0.3,0.2,0.4C7.9,14,8.1,14,8.3,14
		c0.1,0,0.3-0.1,0.4-0.1c0.3-0.1,0.5-0.4,0.4-0.7C9,12.9,8.7,12.7,8.4,12.8z"/>
	<path d="M12.6,5.2c0,0.1,0.1,0.2,0.2,0.3c0.1,0.1,0.3,0.1,0.5,0.1c0.3-0.1,0.5-0.4,0.4-0.7c0-0.1-0.1-0.3-0.1-0.4
		C13.4,4.2,13,4,12.7,4.1c-0.3,0.1-0.4,0.4-0.3,0.7C12.5,5,12.5,5.1,12.6,5.2z"/>
	<path d="M10.2,12c-0.1,0.1-0.2,0.1-0.3,0.2c-0.3,0.2-0.4,0.5-0.2,0.8c0,0.1,0.1,0.1,0.2,0.2c0.2,0.1,0.4,0.1,0.6,0
		c0.1-0.1,0.2-0.1,0.4-0.2c0.3-0.2,0.3-0.5,0.2-0.8C10.8,11.9,10.5,11.8,10.2,12z"/>
	<path d="M14,6.8c0-0.3-0.3-0.6-0.6-0.5c-0.3,0-0.6,0.3-0.5,0.6c0,0.1,0,0.2,0,0.4c0,0.2,0.1,0.4,0.2,0.5
		c0.1,0.1,0.2,0.1,0.3,0.1c0.3,0,0.6-0.2,0.6-0.6C14,7.1,14,6.9,14,6.8z"/>
	<path d="M11.7,10.6c-0.1,0.1-0.1,0.2-0.2,0.3c-0.2,0.2-0.2,0.6,0.1,0.8c0,0,0,0,0,0c0.2,0.2,0.6,0.1,0.8-0.1
		c0.1-0.1,0.2-0.2,0.3-0.3c0.2-0.2,0.1-0.6-0.1-0.8C12.2,10.3,11.9,10.4,11.7,10.6z"/>
	<path d="M13.3,8.4c-0.3-0.1-0.6,0.1-0.7,0.4c0,0.1-0.1,0.2-0.1,0.3c-0.1,0.2,0,0.5,0.2,0.7c0,0,0.1,0,0.1,0.1
		c0.3,0.1,0.6,0,0.7-0.3c0.1-0.1,0.1-0.3,0.1-0.4C13.7,8.9,13.6,8.5,13.3,8.4z"/>
	<path d="M5.9,12.9c-0.5-0.1-1-0.2-1.4-0.5c0,0,0,0,0,0c-0.1-0.1-0.2-0.1-0.3-0.2c0,0,0,0,0,0C4,12.1,3.8,12,3.6,11.9
		C1,10,0.3,6.3,2.2,3.7c0.4-0.6,0.9-1.1,1.4-1.4c0,0,0,0,0,0c1.9-1.3,4.5-1.4,6.6-0.1L9.8,2.8C9.7,3,9.8,3.1,10,3.1l1.9-0.2
		c0.2,0,0.3-0.2,0.3-0.4l-0.5-1.9c-0.1-0.2-0.2-0.2-0.3-0.1l-0.4,0.6c-1.5-1-3.3-1.4-5.1-1.1c-0.2,0-0.4,0.1-0.5,0.1c0,0,0,0,0,0
		c0,0,0,0,0,0C3.7,0.6,2.4,1.5,1.4,2.8c0,0,0,0,0,0c0,0-0.1,0.1-0.1,0.1C1.2,3.1,1.2,3.1,1.1,3.2c0,0,0,0,0,0C0.3,4.5-0.1,5.9,0,7.4
		c0,0,0,0,0,0c0,0.1,0,0.3,0,0.4c0,0,0,0,0,0c0,0.1,0,0.3,0.1,0.4C0.4,9.7,1,11,2.1,12c0,0,0,0,0,0c0,0,0,0,0,0
		c0.3,0.3,0.6,0.5,0.9,0.8c0.8,0.6,1.8,1,2.8,1.2c0.3,0.1,0.6-0.1,0.7-0.5C6.5,13.2,6.3,12.9,5.9,12.9z"/>
	<path d="M6.6,2.5c-0.3,0-0.5,0.2-0.5,0.5v4.6l4.1,2.2c0.1,0,0.1,0.1,0.2,0.1c0.2,0,0.3-0.1,0.4-0.2
		c0.1-0.2,0-0.5-0.2-0.6L7.1,6.9v-4C7.1,2.7,6.9,2.5,6.6,2.5z"/>
</g>
</svg>
