<?xml version="1.0" encoding="utf-8"?>
<!-- Generator: Adobe Illustrator 21.0.0, SVG Export Plug-In . SVG Version: 6.00 Build 0)  -->
<svg version="1.1" id="Слой_1" xmlns="http://www.w3.org/2000/svg" xmlns:xlink="http://www.w3.org/1999/xlink" x="0px" y="0px"
	 viewBox="0 0 15 14" style="enable-background:new 0 0 15 14;" xml:space="preserve">
<title>Shape</title>
<desc>Created with Sketch.</desc>
<g>
	<path d="M15,3.1l-0.1-0.5H7.7c-0.2,0-0.4-0.1-0.5-0.2L4.3,0H0.2L0,0.5c0,0.1,0,0.2,0,0.3v12.4c0,0.1,0,0.2,0,0.3L0.2,14h14.7
		l0.1-0.5c0-0.1,0-0.2,0-0.3V3.4C15,3.3,15,3.2,15,3.1z M1.4,12.6l0-11.3h2.4l2.5,2.1C6.7,3.8,7.2,4,7.7,4h5.9l0,8.7H1.4z"/>
</g>
</svg>
