<?xml version="1.0" encoding="utf-8"?>
<!-- Generator: Adobe Illustrator 21.0.0, SVG Export Plug-In . SVG Version: 6.00 Build 0)  -->
<svg version="1.1" id="Слой_1" xmlns="http://www.w3.org/2000/svg" xmlns:xlink="http://www.w3.org/1999/xlink" x="0px" y="0px"
	 viewBox="0 0 25 28" style="enable-background:new 0 0 25 28;" xml:space="preserve">
<title>database</title>
<desc>Created with Sketch.</desc>
<g>
	<path d="M24.2,4.9c-0.6-2.1-4.4-4.2-11.7-4.2S1.4,2.8,0.8,4.9C0.8,5,0.7,5.1,0.7,5.3v17.5c0,0.1,0,0.2,0.1,0.3
		c0.6,2.4,5.5,4.2,11.7,4.2c6.2,0,11.1-1.8,11.7-4.2c0-0.1,0.1-0.2,0.1-0.3V5.3C24.3,5.1,24.2,5,24.2,4.9z M12.5,25.8
		c-6.3,0-10.1-1.9-10.3-3.2l0-0.1v-3.4c2,1.5,5.8,2.4,10.3,2.4c4.6,0,8.3-0.9,10.3-2.4v3.4c0,0,0,0,0,0.1
		C22.6,23.9,18.8,25.8,12.5,25.8z M2.2,16.4v-2.9c2,1.5,5.8,2.4,10.3,2.4c4.6,0,8.3-0.9,10.3-2.4v2.9c0,0.1,0,0.2,0,0.3
		c0,0,0,0.1,0,0.1c0,0,0,0.1,0,0.2l0,0c0,0,0,0.1,0,0.1c0,0,0,0.1-0.1,0.1c0,0-0.1,0.1-0.1,0.2c0,0-0.1,0.1-0.1,0.1
		c0,0.1-0.1,0.1-0.2,0.2c0,0-0.1,0.1-0.1,0.1c-0.1,0.1-0.1,0.1-0.2,0.2l-0.1,0.1c-0.1,0.1-0.2,0.1-0.3,0.2l-0.1,0.1
		c-0.1,0.1-0.3,0.2-0.5,0.3c-0.2,0.1-0.3,0.2-0.5,0.2c-1.1,0.4-2.4,0.8-3.9,1c-0.3,0-0.6,0.1-0.9,0.1l-0.2,0c-0.3,0-0.6,0.1-0.8,0.1
		l-0.5,0c-0.2,0-0.4,0-0.6,0c-0.7,0-1.5,0-2.2,0c-0.2,0-0.3,0-0.5,0l-0.6,0C10,20,9.8,20,9.4,20l-0.1,0c-0.3,0-0.6-0.1-0.9-0.1
		c-1.5-0.2-2.8-0.6-3.9-1c-0.2-0.1-0.4-0.2-0.5-0.2l-0.1,0.2c0,0,0,0,0,0l0.1-0.3c-0.1-0.1-0.3-0.2-0.4-0.2l-0.1,0.2c0,0,0,0,0,0
		l0-0.3C3.3,18.2,3.2,18.1,3,18L3,18c-0.1-0.1-0.2-0.1-0.2-0.2l-0.1-0.1c-0.1-0.1-0.1-0.1-0.1-0.2c0,0-0.1-0.1-0.1-0.1
		c0,0-0.1-0.1-0.1-0.1c0,0,0-0.1-0.1-0.1c0,0,0-0.1,0-0.1c0-0.1,0-0.1,0-0.2c0,0,0-0.1,0-0.1C2.2,16.6,2.2,16.5,2.2,16.4z M4,8.6
		C4,8.6,4,8.6,4,8.6L4,8.6L4,8.6z M2.2,10.8V7.8C2.3,7.9,2.4,8,2.5,8.1l0.1,0.1c0.1,0.1,0.3,0.2,0.4,0.3l0.2,0.1
		c0.2,0.1,0.4,0.2,0.5,0.3l0.1,0C4.1,8.9,4.3,9,4.6,9.1l0.2,0.1C5,9.2,5.2,9.3,5.4,9.3l0.2,0.1c0.3,0.1,0.6,0.2,0.9,0.2l0.1,0
		c0.3,0.1,0.5,0.1,0.8,0.2l0.3,0c0.3,0,0.5,0.1,0.8,0.1l0.2,0c0.3,0,0.7,0.1,1.1,0.1l0.3,0c0.3,0,0.6,0,0.9,0.1l0.3,0
		c0.8,0,1.7,0,2.5,0l0.3,0c0.3,0,0.6,0,0.9-0.1l0.3,0c0.4,0,0.7-0.1,1.1-0.1l0.2,0c0.3,0,0.5-0.1,0.8-0.1l0.3,0
		c0.3-0.1,0.5-0.1,0.9-0.2l0.1,0c0.3-0.1,0.6-0.1,0.8-0.2l0.2-0.1c0.2-0.1,0.4-0.1,0.6-0.2l0.2-0.1c0.2-0.1,0.5-0.2,0.7-0.3l0.1,0
		c0.2-0.1,0.4-0.2,0.5-0.3l0.2-0.1c0.2-0.1,0.3-0.2,0.5-0.3l0.1,0c0.1-0.1,0.2-0.2,0.3-0.2v2.9c0,0.1,0,0.2,0,0.3c0,0,0,0.1,0,0.1
		c0,0,0,0.1,0,0.2c0,0,0,0.1,0,0.1c0,0,0,0.1-0.1,0.1c0,0-0.1,0.1-0.1,0.1c0,0-0.1,0.1-0.1,0.1c0,0.1-0.1,0.1-0.2,0.2
		c0,0-0.1,0.1-0.1,0.1c-0.1,0.1-0.1,0.1-0.2,0.2l-0.1,0.1c-0.1,0.1-0.2,0.1-0.3,0.2l0.1,0.2l0,0l-0.2-0.2c-0.1,0.1-0.3,0.2-0.4,0.2
		l0.1,0.2L21,12.9c-0.2,0.1-0.3,0.2-0.5,0.2c-1.1,0.4-2.4,0.8-3.9,1c-0.3,0-0.6,0.1-0.9,0.1l-0.2,0c-0.3,0-0.6,0.1-0.8,0.1l-0.5,0
		c-0.2,0-0.3,0-0.5,0c-0.7,0-1.5,0-2.2,0c-0.2,0-0.3,0-0.5,0l-0.6,0c-0.3,0-0.6,0-0.8-0.1l-0.2,0c-0.3,0-0.6-0.1-0.9-0.1
		c-1.5-0.2-2.8-0.6-3.9-1C4.3,13.1,4.1,13,4,12.9l-0.1,0.2l0,0l0.1-0.3c-0.1-0.1-0.3-0.1-0.5-0.2l-0.1,0c-0.1-0.1-0.2-0.1-0.4-0.2
		L3,12.3c-0.1-0.1-0.2-0.1-0.2-0.2c0,0-0.1-0.1-0.1-0.1c-0.1-0.1-0.1-0.1-0.2-0.2c0,0-0.1-0.1-0.1-0.1c0,0-0.1-0.1-0.1-0.1
		c0,0,0-0.1-0.1-0.1c0,0,0-0.1,0-0.2c0-0.1,0-0.1,0-0.2c0,0,0-0.1,0-0.1C2.2,11,2.2,10.9,2.2,10.8z M12.5,8.8
		C6.1,8.8,2.2,6.9,2.2,5.5s3.9-3.3,10.3-3.3s10.3,1.9,10.3,3.3S18.9,8.8,12.5,8.8z"/>
</g>
</svg>
