<?xml version="1.0" encoding="utf-8"?>
<!-- Generator: Adobe Illustrator 23.0.3, SVG Export Plug-In . SVG Version: 6.00 Build 0)  -->
<svg version="1.1" id="Layer_1" xmlns="http://www.w3.org/2000/svg" xmlns:xlink="http://www.w3.org/1999/xlink" x="0px" y="0px"
	 viewBox="0 0 18 18" style="enable-background:new 0 0 18 18;" xml:space="preserve">
<style type="text/css">
	.st0{fill:#89929E;}
</style>
<title>information</title>
<desc>Created with Sketch.</desc>
<g>
	<path class="st0" d="M9,0C4,0,0,4,0,9s4,9,9,9s9-4,9-9S14,0,9,0z M9,16.4c-4.1,0-7.4-3.3-7.4-7.4S4.9,1.6,9,1.6s7.4,3.3,7.4,7.4
		S13.1,16.4,9,16.4z"/>
	<path class="st0" d="M9,3.8c-0.6,0-1.1,0.5-1.1,1.1C7.9,5.5,8.4,6,9,6c0.6,0,1.1-0.5,1.1-1.1C10.1,4.3,9.6,3.8,9,3.8z"/>
	<path class="st0" d="M9,7.6C8.5,7.6,8.2,8,8.2,8.5v4.9c0,0.5,0.4,0.8,0.8,0.8s0.8-0.4,0.8-0.8V8.5C9.8,8,9.5,7.6,9,7.6z"/>
</g>
</svg>
