<?xml version="1.0" encoding="utf-8"?>
<!-- Generator: Adobe Illustrator 21.0.0, SVG Export Plug-In . SVG Version: 6.00 Build 0)  -->
<svg version="1.1" id="Слой_1" xmlns="http://www.w3.org/2000/svg" xmlns:xlink="http://www.w3.org/1999/xlink" x="0px" y="0px"
	 viewBox="0 0 17 17" style="enable-background:new 0 0 17 17;" xml:space="preserve">
<title>BO</title>
<desc>Created with Sketch.</desc>
<g>
	<path d="M15.5,8l-1.7-0.6c0-0.3-0.1-0.5-0.2-0.8l1.2-1.4c0.3-0.4,0.3-1-0.1-1.4l-1.6-1.6c-0.4-0.4-1-0.4-1.4-0.1l-1.4,1.2
		C10,3.2,9.7,3.1,9.5,3.1L8.8,1.4C8.7,0.9,8.1,0.6,7.6,0.7L5.4,1.4C4.8,1.5,4.5,2,4.6,2.6l0.3,1.8C4.6,4.6,4.4,4.7,4.3,5L2.4,4.7
		C1.9,4.6,1.4,5,1.3,5.5L0.6,7.7C0.5,8.2,0.8,8.8,1.3,9L3,9.6c0,0.3,0.1,0.5,0.2,0.8L2,11.8c-0.3,0.4-0.3,1,0.1,1.4l1.6,1.6
		c0.4,0.4,1,0.4,1.4,0.1l1.4-1.2c0.3,0.1,0.5,0.2,0.8,0.2l0.6,1.7c0.2,0.4,0.5,0.7,1,0.7c0.1,0,0.2,0,0.3,0l2.2-0.6
		c0.5-0.1,0.9-0.7,0.8-1.2l-0.3-1.8c0.2-0.2,0.4-0.4,0.6-0.6l1.8,0.3c0.5,0.1,1-0.3,1.2-0.8l0.6-2.2C16.3,8.8,16,8.2,15.5,8z
		 M10.4,12.3l0.3,1.8l-1.6,0.5l-0.6-1.6c-0.1-0.3-0.4-0.5-0.7-0.5c-0.3,0-0.7-0.1-1-0.2C6.7,12,6.6,12,6.5,12
		c-0.2,0-0.4,0.1-0.5,0.2l-1.4,1.1l-1.1-1.1l1.1-1.4c0.2-0.2,0.3-0.6,0.1-0.9C4.6,9.6,4.5,9.3,4.4,9c0-0.3-0.2-0.6-0.5-0.7L2.3,7.7
		l0.5-1.6l1.8,0.3c0.3,0,0.6-0.1,0.8-0.3C5.5,5.7,5.7,5.5,6,5.2c0.3-0.2,0.4-0.5,0.3-0.8L6.1,2.7l1.6-0.5l0.6,1.6
		C8.4,4.2,8.7,4.4,9,4.4c0.3,0,0.7,0.1,1,0.2c0.3,0.1,0.6,0.1,0.9-0.1l1.4-1.1l1.1,1.1l-1.1,1.4C12,6.2,12,6.5,12.1,6.8
		c0.1,0.3,0.2,0.6,0.2,1c0,0.3,0.2,0.6,0.5,0.7l1.6,0.6l-0.5,1.6l-1.8-0.3c-0.3,0-0.6,0.1-0.8,0.3c-0.2,0.3-0.4,0.5-0.7,0.7
		C10.5,11.7,10.4,12,10.4,12.3z"/>
	<path d="M8.4,6.3c-1.2,0-2.2,1-2.2,2.2c0,1.2,1,2.2,2.2,2.2c1.2,0,2.2-1,2.2-2.2C10.6,7.3,9.6,6.3,8.4,6.3z M8.4,9.5
		c-0.6,0-1-0.4-1-1s0.4-1,1-1c0.6,0,1,0.4,1,1S9,9.5,8.4,9.5z"/>
</g>
</svg>
