<?xml version="1.0" encoding="utf-8"?>
<!-- Generator: Adobe Illustrator 21.0.0, SVG Export Plug-In . SVG Version: 6.00 Build 0)  -->
<svg version="1.1" id="Слой_1" xmlns="http://www.w3.org/2000/svg" xmlns:xlink="http://www.w3.org/1999/xlink" x="0px" y="0px"
	 viewBox="0 0 24 25" style="enable-background:new 0 0 24 25;" xml:space="preserve">
<style type="text/css">
	.st0{fill:#4A90E2;}
</style>
<title>Group</title>
<desc>Created with Sketch.</desc>
<g>
	<polygon class="st0" points="17.9,15.4 17.9,8.9 8.5,8.9 8.5,18.2 8.5,18.2 8.5,25 23.8,25 23.8,15.4 	"/>
	<polygon class="st0" points="7.3,7.7 7.7,7.7 7.7,7.7 18.7,7.7 18.7,7.8 19.1,7.7 19.1,1.1 13.2,1.1 13.2,3.3 12,3.3 6.1,3.3 
		4.9,3.3 4.9,1.1 0.2,1.1 0.2,22.1 7.3,22.1 7.3,22.1 	"/>
	<polygon class="st0" points="6.1,2.2 12,2.2 12,1.1 10.8,1.1 10.8,0 9.6,0 8.5,0 7.3,0 7.3,1.1 6.1,1.1 	"/>
	<polygon class="st0" points="19.1,8.8 19.1,14.3 23.8,14.3 	"/>
</g>
</svg>
