<?xml version="1.0" encoding="utf-8"?>
<!-- Generator: Adobe Illustrator 21.0.0, SVG Export Plug-In . SVG Version: 6.00 Build 0)  -->
<svg version="1.1" id="Слой_1" xmlns="http://www.w3.org/2000/svg" xmlns:xlink="http://www.w3.org/1999/xlink" x="0px" y="0px"
	 viewBox="0 0 31 20" style="enable-background:new 0 0 31 20;" xml:space="preserve">
<title>Group 11</title>
<desc>Created with Sketch.</desc>
<g>
	<path d="M9.9,11.4c-4.5,0-9.2,2.4-9.2,6.9c0,0.5,0.4,0.9,0.9,0.9s0.9-0.4,0.9-0.9c0-3.3,3.7-5.1,7.4-5.1
		c3.6,0,7.4,1.8,7.4,5.1c0,0.5,0.4,0.9,0.9,0.9s0.9-0.4,0.9-0.9C19.1,13.8,14.4,11.4,9.9,11.4z"/>
	<path d="M9.9,9.6c2.5,0,4.5-2,4.5-4.5c0-2.5-2-4.5-4.5-4.5s-4.5,2-4.5,4.5C5.4,7.6,7.4,9.6,9.9,9.6z M7.2,5.2
		c0-1.5,1.2-2.7,2.7-2.7s2.7,1.2,2.7,2.7s-1.2,2.7-2.7,2.7S7.2,6.6,7.2,5.2z"/>
	<path d="M21.6,11.4c-1.5,0-3,0.3-4.3,0.8l-0.4,0.2l0.3,0.3c0.3,0.3,0.5,0.6,0.5,0.8c0.1,0.1,0.2,0.4,0.5,0.3
		c4.4-1.5,10.8,0.2,10.8,4.5c0,0.5,0.4,0.9,0.9,0.9s0.9-0.4,0.9-0.9C30.8,13.8,26.1,11.4,21.6,11.4z"/>
	<path d="M21.6,9.6c2.5,0,4.5-2,4.5-4.5c0-2.5-2-4.5-4.5-4.5s-4.5,2-4.5,4.5C17.2,7.6,19.2,9.6,21.6,9.6z M19,5.2
		c0-1.5,1.2-2.7,2.7-2.7c1.5,0,2.7,1.2,2.7,2.7s-1.2,2.7-2.7,2.7C20.2,7.8,19,6.6,19,5.2z"/>
</g>
</svg>
