<?xml version="1.0" encoding="utf-8"?>
<!-- Generator: Adobe Illustrator 21.0.0, SVG Export Plug-In . SVG Version: 6.00 Build 0)  -->
<svg version="1.1" id="Слой_1" xmlns="http://www.w3.org/2000/svg" xmlns:xlink="http://www.w3.org/1999/xlink" x="0px" y="0px"
	 viewBox="0 0 16 16" style="enable-background:new 0 0 16 16;" xml:space="preserve">
<style type="text/css">
	.st0{fill:#B6BFCA;}
</style>
<title>noun_1576825_cc</title>
<desc>Created with Sketch.</desc>
<g>
	<polygon class="st0" points="5.9,1 5.8,1 5.8,4.6 1.6,0.4 1.5,0.5 0.5,1.5 0.4,1.6 4.6,5.8 1,5.8 1,5.9 1,7.3 1,7.4 7.4,7.4 7.4,1 
		7.3,1 	"/>
	<polygon class="st0" points="11.4,10.2 15,10.2 15,10.1 15,8.7 15,8.6 8.6,8.6 8.6,15 8.7,15 10.1,15 10.2,15 10.2,11.4 14.4,15.6 
		14.5,15.5 15.5,14.5 15.6,14.4 	"/>
</g>
</svg>
