<?xml version="1.0" encoding="utf-8"?>
<!-- Generator: Adobe Illustrator 21.0.0, SVG Export Plug-In . SVG Version: 6.00 Build 0)  -->
<svg version="1.1" id="Слой_1" xmlns="http://www.w3.org/2000/svg" xmlns:xlink="http://www.w3.org/1999/xlink" x="0px" y="0px"
	 viewBox="0 0 30 28" style="enable-background:new 0 0 30 28;" xml:space="preserve">
<title>Group 12</title>
<desc>Created with Sketch.</desc>
<g>
	<path d="M10.8,17.4c0-4.5,4.3-8.7,9.1-8.7c1.1,0,2.1,0.1,2.8,0.2l1.5,0.2l-0.5-1.4C21.9,3.2,17.2,0,12.1,0
		C5.4,0,0,4.7,0,10.6c0,2.6,1.1,5,3,6.9l-1.2,7.2l6.1-4.2c0.3,0.1,0.4,0.1,1,0.4c0.5,0.2,0.8,0.3,1.2,0.4l1.5,0.4l-0.4-1.5
		C10.9,19.3,10.8,18.2,10.8,17.4z M9.2,19.1c-0.4-0.1-0.5-0.2-0.7-0.3l-0.8-0.3L4.1,21l0.7-4.1l-0.6-0.6c-1.6-1.6-2.5-3.6-2.5-5.7
		c0-4.9,4.7-8.9,10.4-8.9c3.8,0,7.5,2.2,9.3,5.3c-0.5,0-1,0-1.5,0C14.1,7,9,11.8,9,17.4C9,17.9,9.1,18.5,9.2,19.1z"/>
	<path d="M30,18c0-4.4-4-8-9-8c-5,0-9,3.6-9,8c0,4.4,4,8,9,8c1.1,0,2.1-0.2,3-0.5l2.8,1.9l0.2,0.1l-0.2,0.1l0.2,0l0.1,0
		l-0.3,0.1l0.3-0.1l1.6,1.1l-0.9-5.6C29.2,21.7,30,19.9,30,18z M26.6,21.9L26,22.5l0.4,2.4l-2.1-1.4l-0.8,0.3
		c-0.8,0.3-1.6,0.4-2.5,0.4c-4,0-7.3-2.8-7.3-6.2c0-3.4,3.3-6.2,7.3-6.2c4,0,7.3,2.8,7.3,6.2C28.3,19.4,27.7,20.8,26.6,21.9z"/>
</g>
</svg>
