<?xml version="1.0" encoding="utf-8"?>
<!-- Generator: Adobe Illustrator 21.0.0, SVG Export Plug-In . SVG Version: 6.00 Build 0)  -->
<svg version="1.1" id="Слой_1" xmlns="http://www.w3.org/2000/svg" xmlns:xlink="http://www.w3.org/1999/xlink" x="0px" y="0px"
	 viewBox="0 0 19 14" style="enable-background:new 0 0 19 14;" xml:space="preserve">
<style type="text/css">
	.st0{fill:#FA8540;}
</style>
<title>Group 8</title>
<desc>Created with Sketch.</desc>
<g>
	<path class="st0" d="M4.3,7.4c-1.7,0-3.6,1.3-3.6,3.7c0,0.3,0.2,0.6,0.5,0.6h6.3l0,0c0.2-0.1,0.3-0.3,0.3-0.5
		C7.9,8.7,6.1,7.4,4.3,7.4z"/>
	<ellipse class="st0" cx="4.3" cy="4.2" rx="2.2" ry="2.5"/>
	<path class="st0" d="M16.2,8.6C16.2,8.6,16.2,8.6,16.2,8.6c-0.6,0-1.1,0.2-1.5,0.7c-0.1,0.1-0.2,0.2-0.3,0.4l-2.9-1.9l-0.8-0.5
		c0,0,0,0,0,0c0,0-0.1-0.1-0.1-0.1c0,0,0-0.1,0-0.1c0,0,0,0,0,0c0,0,0-0.1,0-0.1c0,0,0-0.1,0-0.1c0,0,0,0,0,0c0,0,0.1-0.1,0.1-0.1
		c0,0,0,0,0,0l3.7-2.4c0.4,0.5,1.1,1.2,1.8,1.2c1.2,0,2.2-1,2.2-2.3s-1-2.3-2.2-2.3c-1.2,0-2.2,1-2.2,2.3c0,0.2,0,0.4,0.1,0.6
		l-2.9,1.9l-0.8,0.5c0,0-0.1,0-0.1,0.1C10.1,6.3,10,6.5,9.9,6.6c0,0.1,0,0.1,0,0.2c0,0.2,0,0.4,0.1,0.6c0.1,0.2,0.2,0.3,0.4,0.4
		l3.8,2.5c0,0.2-0.1,0.4-0.1,0.6c0,0.6,0.2,1.2,0.6,1.6c0.4,0.4,1,0.7,1.5,0.7c0.6,0,1.1-0.2,1.5-0.7c0.4-0.4,0.6-1,0.6-1.6
		c0-0.6-0.2-1.2-0.6-1.6C17.3,8.8,16.8,8.6,16.2,8.6z"/>
</g>
</svg>
