<?xml version="1.0" encoding="utf-8"?>
<!-- Generator: Adobe Illustrator 21.0.0, SVG Export Plug-In . SVG Version: 6.00 Build 0)  -->
<svg version="1.1" id="Слой_1" xmlns="http://www.w3.org/2000/svg" xmlns:xlink="http://www.w3.org/1999/xlink" x="0px" y="0px"
	 viewBox="0 0 28 31" style="enable-background:new 0 0 28 31;" xml:space="preserve">
<style type="text/css">
	.st0{fill:#879BFF;}
</style>
<title>Shape</title>
<desc>Created with Sketch.</desc>
<g>
	<path class="st0" d="M27.5,19.7L27.5,19.7c0-0.3,0-0.8,0-1.4l0-15.8c0-0.6-0.2-1.1-0.7-1.5c-0.4-0.4-1-0.6-1.6-0.5l-14.9,2
		c-1,0.1-1.7,1-1.7,2v15.1c-0.7-0.2-1.4-0.3-2.1-0.3c-3.3,0-6.1,2.5-6.1,5.7c0,3.1,2.7,5.7,6.1,5.7s6.1-2.5,6.1-5.7
		c0-0.1,0-0.3,0-0.4c0-0.1,0-0.2,0-0.3v-13l10.9-1.4v4.8c-0.7-0.2-1.4-0.3-2.1-0.3c-3.3,0-6.1,2.5-6.1,5.7c0,3.1,2.7,5.7,6.1,5.7
		c3.3,0,6.1-2.5,6.1-5.7c0-0.1,0-0.1,0-0.1L27.5,19.7z M26,19.9c0,2.3-2,4.2-4.6,4.2s-4.6-1.9-4.6-4.2c0-2.3,2-4.2,4.6-4.2
		c0.9,0,1.7,0.2,2.5,0.7l1.1,0.7v-9L11.1,9.9l0,14.4l0,0.1l0,0.1c0,0.1,0,0.2,0,0.4c0,2.3-2,4.2-4.6,4.2S2,27.1,2,24.8
		c0-2.3,2-4.2,4.6-4.2c0.9,0,1.7,0.2,2.5,0.7l1.1,0.7V4.5c0-0.2,0.2-0.5,0.4-0.5l14.9-2c0.1,0,0.3,0,0.4,0.1C25.9,2.2,26,2.4,26,2.5
		l0,6.9c0,8.9,0,10.3,0,10.4L26,19.9z"/>
</g>
</svg>
