<?xml version="1.0" encoding="UTF-8"?>
<svg width="12px" height="12px" viewBox="0 0 12 12" version="1.1" xmlns="http://www.w3.org/2000/svg" xmlns:xlink="http://www.w3.org/1999/xlink">
    <!-- Generator: Sketch 51 (57462) - http://www.bohemiancoding.com/sketch -->
    <title>Shape</title>
    <desc>Created with Sketch.</desc>
    <defs></defs>
    <g id="Page-1-Copy-5" stroke="none" stroke-width="1" fill="none" fill-rule="evenodd">
        <g id="Desktop-33" transform="translate(-392.000000, -227.000000)">
            <g id="Documents/Music" transform="translate(30.000000, 80.000000)" fill="#FA8540" fill-rule="nonzero">
                <path d="M367.550723,155.663342 C367.670415,155.543641 367.730261,155.304239 367.670415,155.244389 L368.627952,154.286783 C369.10672,155.004988 368.987028,156.022444 368.388567,156.620948 L366.593185,158.416459 C365.815187,159.194514 364.678111,159.194514 363.900113,158.416459 L362.583499,157.099751 C361.8055,156.321696 361.8055,155.184539 362.583499,154.406484 L364.378881,152.610973 C365.097034,151.892768 366.114417,151.832918 366.892416,152.431421 L365.994725,153.329177 C365.815187,153.209476 365.515956,153.269327 365.336418,153.448878 L363.541036,155.244389 C363.301652,155.543641 363.301652,155.902743 363.541036,156.142145 L364.85765,157.458853 C365.15688,157.698254 365.515956,157.698254 365.755341,157.458853 L367.550723,155.663342 Z M369.884719,151.234414 C370.124103,151.533666 370.124103,151.832918 369.944565,152.072319 L367.251492,154.765586 C367.012108,154.945137 366.653032,154.945137 366.413647,154.705736 C366.114417,154.466334 366.114417,154.107232 366.353801,153.86783 L369.046874,151.174564 C369.286258,150.995012 369.645335,150.995012 369.884719,151.234414 Z M373.475483,148.900249 C374.193636,149.618454 374.193636,150.815461 373.355791,151.593516 L371.560409,153.389027 C370.961948,154.047382 370.004411,154.107232 369.226412,153.628429 L370.124103,152.790524 L370.183949,152.730673 C370.363488,152.730673 370.602872,152.670823 370.722564,152.551122 L372.517946,150.755611 C372.75733,150.456359 372.75733,150.097257 372.517946,149.857855 L371.201332,148.541147 C370.902102,148.301746 370.543026,148.301746 370.303641,148.541147 L368.50826,150.336658 C368.328721,150.516209 368.268875,150.755611 368.388567,150.995012 L367.490876,151.892768 C366.892416,151.114713 367.012108,150.037406 367.670415,149.379052 L369.465797,147.583541 C370.243795,146.805486 371.380871,146.805486 372.158869,147.583541 L373.475483,148.900249 Z" id="Shape"></path>
            </g>
        </g>
    </g>
</svg>