<?xml version="1.0" encoding="utf-8"?>
<!-- Generator: Adobe Illustrator 21.0.0, SVG Export Plug-In . SVG Version: 6.00 Build 0)  -->
<svg version="1.1" id="Слой_1" xmlns="http://www.w3.org/2000/svg" xmlns:xlink="http://www.w3.org/1999/xlink" x="0px" y="0px"
	 viewBox="0 0 23 29" style="enable-background:new 0 0 23 29;" xml:space="preserve">
<title>Group 16</title>
<desc>Created with Sketch.</desc>
<g>
	<path d="M14.8,6.1v1.7c3.8,1.4,6.5,5.1,6.5,9.5c0,5.6-4.4,10.1-9.9,10.1s-9.9-4.5-9.9-10.1c0-4.4,2.7-8.1,6.5-9.5V6.1
		C3.4,7.6,0,12,0,17.3C0,23.8,5.2,29,11.5,29C17.8,29,23,23.8,23,17.3C23,12,19.6,7.6,14.8,6.1z"/>
	<path d="M10.7,17.8c0,0.5,0.4,0.8,0.8,0.8c0.5,0,0.8-0.4,0.8-0.8v-14C12.3,3.4,12,3,11.5,3c-0.5,0-0.8,0.4-0.8,0.8
		V17.8z"/>
</g>
</svg>
