<?xml version="1.0" encoding="UTF-8"?>
<svg width="26px" height="26px" viewBox="0 0 26 26" version="1.1" xmlns="http://www.w3.org/2000/svg" xmlns:xlink="http://www.w3.org/1999/xlink">
    <!-- Generator: Sketch 53.2 (72643) - https://sketchapp.com -->
    <title>Shape</title>
    <desc>Created with Sketch.</desc>
    <g id="Chat" stroke="none" stroke-width="1" fill="none" fill-rule="evenodd">
        <g id="Question-2" transform="translate(-12.000000, -710.000000)" fill="#FFFFFF" fill-rule="nonzero">
            <g id="question-mark" transform="translate(12.000000, 710.000000)">
                <path d="M12.8263358,0.00118144505 C5.64717349,0.0972680503 -0.0943476215,5.99557257 0.00117483065,13.1749376 C0.0972625044,20.351194 5.99506739,26.0943469 13.1739471,25.9988255 C20.3516963,25.9021737 26.0943478,20.0038692 25.9988254,12.8250693 C25.9027377,5.64824775 20.0046502,-0.0946225525 12.8263358,0.00118144505 Z M12.7879007,20.913018 L12.7161176,20.9118876 C11.6105441,20.8791051 10.8311035,20.0646298 10.8624733,18.9754599 C10.8932779,17.9049421 11.6916534,17.127771 12.7607701,17.127771 L12.8249227,17.1289014 C13.9613008,17.1625317 14.7319804,17.9688114 14.7000454,19.0893508 C14.668393,20.1629773 13.8824524,20.913018 12.7879007,20.913018 Z M17.4382615,11.6833344 C17.1782596,12.0527026 16.6065379,12.5113748 15.886163,13.0726337 L15.0928744,13.6203273 C14.6573712,13.9588913 14.3945431,14.2773901 14.295912,14.590802 C14.218194,14.8375185 14.1800415,14.9028009 14.1732589,15.4047121 L14.1721284,15.5321681 L11.1431058,15.5321681 L11.1518668,15.275843 C11.1888888,14.2222816 11.214889,13.602523 11.6515227,13.0904379 C12.3365712,12.2861365 13.8476912,11.3131183 13.9118439,11.2718576 C14.1283238,11.108793 14.3108903,10.9231198 14.4468261,10.7247292 C14.7647633,10.2864047 14.9055035,9.94134075 14.9055035,9.60221156 C14.9055035,9.1316698 14.7658937,8.696454 14.489783,8.3089989 C14.2244114,7.93510896 13.7202337,7.74576182 12.9910979,7.74576182 C12.2678968,7.74576182 11.7727627,7.97523925 11.4765866,8.44606361 C11.1719321,8.93017054 11.0179092,9.43858172 11.0179092,9.95801461 L11.0179092,10.0871663 L7.89477723,10.0871663 L7.90042944,9.95236245 C7.98097352,8.03939119 8.66376123,6.66196144 9.9290098,5.85822525 C10.723994,5.34642277 11.7131318,5.08698894 12.8673143,5.08698894 C14.3781517,5.08698894 15.6535743,5.45409629 16.6576905,6.17813712 C17.6750894,6.91178661 18.1911367,8.0105652 18.1911367,9.44395127 C18.1911367,10.2457092 17.9379174,10.9988586 17.4382615,11.6833344 Z" id="Shape"></path>
            </g>
        </g>
    </g>
</svg>