<?xml version="1.0" encoding="utf-8"?>
<!-- Generator: Adobe Illustrator 21.0.0, SVG Export Plug-In . SVG Version: 6.00 Build 0)  -->
<svg version="1.1" id="Слой_1" xmlns="http://www.w3.org/2000/svg" xmlns:xlink="http://www.w3.org/1999/xlink" x="0px" y="0px"
	 viewBox="0 0 21 21" style="enable-background:new 0 0 21 21;" xml:space="preserve">
<title>Group 3</title>
<desc>Created with Sketch.</desc>
<g>
	<path d="M19.4,2.7l-1.1-1.1C17.9,1.2,17.4,1,16.9,1c-0.4,0-0.9,0.2-1.2,0.5l-2,1.7c0,0,0,0,0,0l-2,3.3L10.4,7
		c-0.1,0-0.1,0.1-0.1,0.1c0,0.1,0,0.1,0,0.2l3.4,3.4c0,0,0.1,0.1,0.2,0c0.1,0,0.1-0.1,0.1-0.1l0.4-1.3l3.3-2c0,0,0,0,0,0l1.7-2
		C20.1,4.6,20.1,3.4,19.4,2.7z"/>
	<path d="M18.4,14c-0.9-0.9-2.2-1.2-3.5-0.8l-0.1,0l-0.1-0.1l-7-7l0-0.1C8.2,4.8,7.9,3.5,7,2.6c-1-1-2.4-1.3-3.7-0.8
		c-0.1,0-0.1,0.1-0.1,0.1s0,0.1,0,0.2l2.2,2.2L3.8,5.9L1.7,3.7c0,0-0.1-0.1-0.2,0c-0.1,0-0.1,0.1-0.1,0.1C0.9,5,1.2,6.5,2.2,7.4
		c0.9,0.9,2.2,1.2,3.5,0.8l0.1,0L8.5,11l-3.4,3.3l-2,1.1c0,0-0.1,0-0.1,0.1l-1.4,2.7c0,0.1,0,0.1,0,0.2L2.3,19
		c0.1,0.1,0.1,0.1,0.2,0l2.7-1.3c0,0,0.1,0,0.1-0.1l1.2-1.9l3.3-3.3l2.9,2.9l0,0.1c-0.4,1.2-0.1,2.6,0.8,3.5c0.6,0.6,1.5,1,2.4,1
		c0.4,0,0.8-0.1,1.2-0.2c0.1,0,0.1-0.1,0.1-0.1c0-0.1,0-0.1,0-0.2l-2.2-2.2l1.6-1.6l2.2,2.2c0,0,0.1,0.1,0.2,0
		c0.1,0,0.1-0.1,0.1-0.1C19.7,16.4,19.4,15,18.4,14z"/>
</g>
</svg>
