<?xml version="1.0" encoding="utf-8"?>
<!-- Generator: Adobe Illustrator 23.0.3, SVG Export Plug-In . SVG Version: 6.00 Build 0)  -->
<svg version="1.1" id="Layer_1" xmlns="http://www.w3.org/2000/svg" xmlns:xlink="http://www.w3.org/1999/xlink" x="0px" y="0px"
	 viewBox="0 0 15 15" style="enable-background:new 0 0 15 15;" xml:space="preserve">
<g>
	<path d="M14,0h-4C9.4,0,9,0.4,9,1v4c0,0.6,0.4,1,1,1h4c0.6,0,1-0.4,1-1V1C15,0.4,14.6,0,14,0z M13.5,4.5h-3v-3h3V4.5z"
		/>
	<path d="M14,9h-4c-0.6,0-1,0.4-1,1v4c0,0.6,0.4,1,1,1h4c0.6,0,1-0.4,1-1v-4C15,9.4,14.6,9,14,9z M13.5,13.5h-3v-3h3
		V13.5z"/>
	<path d="M5,9H1c-0.6,0-1,0.4-1,1v4c0,0.6,0.4,1,1,1h4c0.6,0,1-0.4,1-1v-4C6,9.4,5.6,9,5,9z M4.5,13.5h-3v-3h3V13.5z"/>
	<path d="M5,0H1C0.4,0,0,0.4,0,1v4c0,0.6,0.4,1,1,1h4c0.6,0,1-0.4,1-1V1C6,0.4,5.6,0,5,0z M4.5,4.5h-3v-3h3V4.5z"/>
</g>
</svg>
