<?xml version="1.0" encoding="UTF-8"?>
<svg width="22px" height="22px" viewBox="0 0 22 22" version="1.1" xmlns="http://www.w3.org/2000/svg" xmlns:xlink="http://www.w3.org/1999/xlink">
    <!-- Generator: Sketch 51 (57462) - http://www.bohemiancoding.com/sketch -->
    <title>clock-3</title>
    <desc>Created with Sketch.</desc>
    <defs></defs>
    <g id="Page-1-Copy-5" stroke="none" stroke-width="1" fill="none" fill-rule="evenodd">
        <g id="Desktop-33" transform="translate(-672.000000, -436.000000)">
            <g id="Popups/share_Search_name" transform="translate(533.000000, 293.000000)" fill="#89929E" fill-rule="nonzero" stroke="#89929E" stroke-width="0.5">
                <g id="Group-6">
                    <g id="Group-3" transform="translate(90.000000, 144.000000)">
                        <g id="clock-3" transform="translate(50.000000, 0.000000)">
                            <path d="M10,0 C4.486,0 0,4.486 0,10 C0,15.514 4.486,20 10,20 C15.514,20 20,15.514 20,10 C20,4.486 15.514,0 10,0 Z M10,19.3333333 C4.85366667,19.3333333 0.666666667,15.1463333 0.666666667,10 C0.666666667,4.85366667 4.85366667,0.666666667 10,0.666666667 C15.1463333,0.666666667 19.3333333,4.85366667 19.3333333,10 C19.3333333,15.1463333 15.1463333,19.3333333 10,19.3333333 Z" id="Shape"></path>
                            <path d="M10.3333333,8.67366667 L10.3333333,5.293 C10.3333333,5.10866667 10.184,4.95966667 10,4.95966667 C9.816,4.95966667 9.66666667,5.10866667 9.66666667,5.293 L9.66666667,8.67366667 C9.20033333,8.795 8.83533333,9.16 8.714,9.62633333 L6.33333333,9.62633333 C6.14933333,9.62633333 6,9.77533333 6,9.95966667 C6,10.144 6.14933333,10.293 6.33333333,10.293 L8.714,10.293 C8.863,10.8663333 9.38066667,11.293 10,11.293 C10.7353333,11.293 11.3333333,10.695 11.3333333,9.95966667 C11.3333333,9.34 10.9066667,8.82266667 10.3333333,8.67366667 Z M10,10.6263333 C9.63233333,10.6263333 9.33333333,10.3273333 9.33333333,9.95966667 C9.33333333,9.592 9.63233333,9.293 10,9.293 C10.3676667,9.293 10.6666667,9.592 10.6666667,9.95966667 C10.6666667,10.3273333 10.3676667,10.6263333 10,10.6263333 Z" id="Shape"></path>
                            <path d="M10,3.293 C10.184,3.293 10.3333333,3.144 10.3333333,2.95966667 L10.3333333,2.62633333 C10.3333333,2.442 10.184,2.293 10,2.293 C9.816,2.293 9.66666667,2.442 9.66666667,2.62633333 L9.66666667,2.95966667 C9.66666667,3.144 9.816,3.293 10,3.293 Z" id="Shape"></path>
                            <path d="M10,16.6263333 C9.816,16.6263333 9.66666667,16.7753333 9.66666667,16.9596667 L9.66666667,17.293 C9.66666667,17.4773333 9.816,17.6263333 10,17.6263333 C10.184,17.6263333 10.3333333,17.4773333 10.3333333,17.293 L10.3333333,16.9596667 C10.3333333,16.7753333 10.184,16.6263333 10,16.6263333 Z" id="Shape"></path>
                            <path d="M17.3333333,9.62633333 L17,9.62633333 C16.816,9.62633333 16.6666667,9.77533333 16.6666667,9.95966667 C16.6666667,10.144 16.816,10.293 17,10.293 L17.3333333,10.293 C17.5173333,10.293 17.6666667,10.144 17.6666667,9.95966667 C17.6666667,9.77533333 17.5173333,9.62633333 17.3333333,9.62633333 Z" id="Shape"></path>
                            <path d="M3,9.62633333 L2.66666667,9.62633333 C2.48266667,9.62633333 2.33333333,9.77533333 2.33333333,9.95966667 C2.33333333,10.144 2.48266667,10.293 2.66666667,10.293 L3,10.293 C3.184,10.293 3.33333333,10.144 3.33333333,9.95966667 C3.33333333,9.77533333 3.184,9.62633333 3,9.62633333 Z" id="Shape"></path>
                            <path d="M14.9496667,4.53833333 L14.714,4.774 C14.5836667,4.90433333 14.5836667,5.115 14.714,5.24533333 C14.779,5.31033333 14.8643333,5.343 14.9496667,5.343 C15.035,5.343 15.1203333,5.31033333 15.1853333,5.24533333 L15.421,5.00966667 C15.5513333,4.87933333 15.5513333,4.66866667 15.421,4.53833333 C15.2906667,4.408 15.08,4.40833333 14.9496667,4.53833333 Z" id="Shape"></path>
                            <path d="M4.81466667,14.6736667 L4.579,14.9093333 C4.44866667,15.0396667 4.44866667,15.2503333 4.579,15.3806667 C4.644,15.4456667 4.72933333,15.4783333 4.81466667,15.4783333 C4.9,15.4783333 4.98533333,15.4456667 5.05033333,15.3806667 L5.286,15.145 C5.41633333,15.0146667 5.41633333,14.804 5.286,14.6736667 C5.15566667,14.5433333 4.94466667,14.5436667 4.81466667,14.6736667 Z" id="Shape"></path>
                            <path d="M15.1853333,14.6736667 C15.055,14.5433333 14.8443333,14.5433333 14.714,14.6736667 C14.5836667,14.804 14.5836667,15.0146667 14.714,15.145 L14.9496667,15.3806667 C15.0146667,15.4456667 15.1,15.4783333 15.1853333,15.4783333 C15.2706667,15.4783333 15.356,15.4456667 15.421,15.3806667 C15.5513333,15.2503333 15.5513333,15.0396667 15.421,14.9093333 L15.1853333,14.6736667 Z" id="Shape"></path>
                            <path d="M5.05033333,4.53833333 C4.92,4.408 4.70933333,4.408 4.579,4.53833333 C4.44866667,4.66866667 4.44866667,4.87933333 4.579,5.00966667 L4.81466667,5.24533333 C4.87966667,5.31033333 4.965,5.343 5.05033333,5.343 C5.13566667,5.343 5.221,5.31033333 5.286,5.24533333 C5.41633333,5.115 5.41633333,4.90433333 5.286,4.774 L5.05033333,4.53833333 Z" id="Shape"></path>
                        </g>
                    </g>
                </g>
            </g>
        </g>
    </g>
</svg>