<?xml version="1.0" encoding="UTF-8"?>
<svg width="15px" height="16px" viewBox="0 0 15 16" version="1.1" xmlns="http://www.w3.org/2000/svg" xmlns:xlink="http://www.w3.org/1999/xlink">
    <!-- Generator: Sketch 53.2 (72643) - https://sketchapp.com -->
    <title>pause-symbol</title>
    <desc>Created with Sketch.</desc>
    <g id="Page-1-Copy-5" stroke="none" stroke-width="1">
        <g id="Music-player" transform="translate(-707.000000, -547.000000)">
            <g id="Group-5" transform="translate(525.000000, 519.000000)">
                <g id="Player" transform="translate(0.000000, 8.000000)">
                    <g id="Group-7" transform="translate(132.000000, 20.000000)">
                        <g id="pause-symbol" transform="translate(50.000000, 0.000000)">
                            <path d="M5.61912301,0 L0.624464692,0 C0.455261959,0 0.308917995,0.0658587699 0.185364465,0.197685649 C0.0617767654,0.329476082 3.41685649e-05,0.485539863 3.41685649e-05,0.66591344 L3.41685649e-05,15.3170661 C3.41685649e-05,15.4974032 0.0617767654,15.6535763 0.185364465,15.7852938 C0.309020501,15.9171207 0.455364465,15.9831253 0.624464692,15.9831253 L5.61925968,15.9831253 C5.78835991,15.9831253 5.9346697,15.9171207 6.05822323,15.7852938 C6.18181093,15.6536128 6.24355353,15.4974396 6.24355353,15.3170661 L6.24355353,0.66591344 C6.24355353,0.485430524 6.18181093,0.329476082 6.05808656,0.197685649 C5.9345672,0.0658587699 5.78822323,0 5.61912301,0 Z" id="Path"></path>
                            <path d="M14.7988497,0.197685649 C14.675262,0.0658587699 14.5289863,0 14.3599203,0 L9.36512528,0 C9.19602506,0 9.04951025,0.0658587699 8.92616173,0.197685649 C8.80243736,0.329439636 8.74055809,0.485539863 8.74055809,0.66591344 L8.74055809,15.3170661 C8.74055809,15.4974032 8.80243736,15.6535763 8.92616173,15.7852938 C9.04947608,15.9171207 9.19599089,15.9831253 9.36512528,15.9831253 L14.3599203,15.9831253 C14.5289863,15.9831253 14.675262,15.9171207 14.7988838,15.7852938 C14.922369,15.6536128 14.9841116,15.4974396 14.9841116,15.3170661 L14.9841116,0.66591344 C14.9840774,0.485430524 14.9224374,0.329476082 14.7988497,0.197685649 Z" id="Path"></path>
                        </g>
                    </g>
                </g>
            </g>
        </g>
    </g>
</svg>