<?xml version="1.0" encoding="UTF-8"?>
<svg width="13px" height="14px" viewBox="0 0 13 14" version="1.1" xmlns="http://www.w3.org/2000/svg" xmlns:xlink="http://www.w3.org/1999/xlink">
    <!-- Generator: Sketch 51.3 (57544) - http://www.bohemiancoding.com/sketch -->
    <title>Shape</title>
    <desc>Created with Sketch.</desc>
    <defs></defs>
    <g id="Page-1-Copy" stroke="none" stroke-width="1" fill="none" fill-rule="evenodd">
        <g id="Desktop-S2" transform="translate(-649.000000, -242.000000)" fill="#FA8540" fill-rule="nonzero">
            <g id="Documents/Music" transform="translate(448.000000, 238.000000)">
                <path d="M209.96511,13.9500975 C209.841257,14.074447 209.734659,14.2111365 209.642479,14.3556573 L205.55819,11.8665311 C205.666206,11.5950504 205.727423,11.299839 205.727423,10.9901517 C205.727423,10.6804644 205.666206,10.385253 205.558426,10.1137724 L209.643661,7.64363082 C210.063199,8.30524621 210.798749,8.74616493 211.636407,8.74616493 C212.939692,8.74616493 214,7.68160014 214,6.37308246 C214,5.06456479 212.939692,4 211.636407,4 C210.333121,4 209.272813,5.06456479 209.272813,6.37308246 C209.272813,6.67114162 209.330249,6.9554369 209.430465,7.21837444 L205.339794,9.69183829 C204.917183,9.04541063 204.189669,8.61706924 203.363593,8.61706924 C202.060308,8.61706924 201,9.68163404 201,10.9901517 C201,12.2986694 202.060308,13.3632342 203.363593,13.3632342 C204.189669,13.3632342 204.916947,12.9348928 205.339557,12.2884651 L209.429519,14.7809136 C209.327885,15.0481227 209.272577,15.3336045 209.272577,15.6281041 C209.272577,16.2619544 209.518391,16.8580727 209.964873,17.3061107 C210.425538,17.7686245 211.030854,18 211.63617,18 C212.241487,18 212.846803,17.7686245 213.307467,17.3061107 C213.75395,16.8578354 213.999764,16.2619544 213.999764,15.6281041 C213.999764,14.9942538 213.75395,14.3981354 213.307467,13.9500975 C212.385902,13.0245953 210.886675,13.0245953 209.96511,13.9500975 Z" id="Shape"></path>
            </g>
        </g>
    </g>
</svg>