<?xml version="1.0" encoding="utf-8"?>
<!-- Generator: Adobe Illustrator 21.0.0, SVG Export Plug-In . SVG Version: 6.00 Build 0)  -->
<svg version="1.1" id="Слой_1" xmlns="http://www.w3.org/2000/svg" xmlns:xlink="http://www.w3.org/1999/xlink" x="0px" y="0px"
	 viewBox="0 0 25 26" style="enable-background:new 0 0 25 26;" xml:space="preserve">
<style type="text/css">
	.st0{fill:#FA8540;}
</style>
<title>notes</title>
<desc>Created with Sketch.</desc>
<g>
	<path class="st0" d="M19.1,3.4l-2.9-2.7c-0.3-0.3-0.6-0.4-1-0.5v4.5h4.5C19.7,4.1,19.4,3.7,19.1,3.4z"/>
	<path class="st0" d="M18.3,23.1l-2.8,1.2c-0.8,0.3-1.7,0.2-2.4-0.3c-0.7-0.6-1-1.4-0.8-2.3l0.7-3c0.1-0.6,0.4-1.1,0.8-1.6l5.9-7v-4
		h-5.3c-0.4,0-0.8-0.3-0.8-0.8V0H2.3C1,0,0,1,0,2.3v21.4C0,25,1,26,2.3,26h15.2c1.3,0,2.3-1,2.3-2.3v-1.8L19.7,22
		C19.3,22.5,18.9,22.8,18.3,23.1z M3.8,4.6h7.6c0.4,0,0.8,0.3,0.8,0.8s-0.3,0.8-0.8,0.8H3.8C3.4,6.1,3,5.8,3,5.3S3.4,4.6,3.8,4.6z
		 M3.8,9.2H16c0.4,0,0.8,0.3,0.8,0.8s-0.3,0.8-0.8,0.8H3.8C3.4,10.7,3,10.4,3,10S3.4,9.2,3.8,9.2z M3.8,13.8H13
		c0.4,0,0.8,0.3,0.8,0.8s-0.3,0.8-0.8,0.8H3.8c-0.4,0-0.8-0.3-0.8-0.8S3.4,13.8,3.8,13.8z M9.9,19.9H3.8c-0.4,0-0.8-0.3-0.8-0.8
		s0.3-0.8,0.8-0.8h6.1c0.4,0,0.8,0.3,0.8,0.8S10.3,19.9,9.9,19.9z"/>
	<path class="st0" d="M24,12.8l-1.7-1.5c-0.5-0.4-1.3-0.4-1.7,0.1l-6,6.9c-0.3,0.2-0.5,0.5-0.5,0.9l-0.3,2.9h0l0,0.2l0,0.1
		c0.1,0.3,0.4,0.5,0.7,0.5c0.1,0,0.1,0,0.2,0l1.3-0.4l1.4-0.5c0.1,0,0.3-0.1,0.4-0.2l0,0l0-0.1c0.1-0.1,0.1-0.1,0.2-0.2l6.2-7.1
		c0.2-0.2,0.3-0.5,0.3-0.9C24.4,13.3,24.2,13,24,12.8z M17.1,21c0,0.1-0.1,0.1-0.1,0.1l-1.4,0.5l-0.9,0.3l0.3-2.5
		c0-0.1,0.1-0.1,0.1-0.1l0.1,0L17.1,21L17.1,21z"/>
</g>
</svg>
