<?xml version="1.0" encoding="utf-8"?>
<!-- Generator: Adobe Illustrator 21.0.0, SVG Export Plug-In . SVG Version: 6.00 Build 0)  -->
<svg version="1.1" id="Слой_1" xmlns="http://www.w3.org/2000/svg" xmlns:xlink="http://www.w3.org/1999/xlink" x="0px" y="0px"
	 viewBox="0 0 36 36" style="enable-background:new 0 0 36 36;" xml:space="preserve">
<title>Shape</title>
<desc>Created with Sketch.</desc>
<g>
	<path d="M34.5,18c0-9.1-7.4-16.5-16.5-16.5C8.9,1.5,1.5,8.9,1.5,18c0,9.1,7.4,16.5,16.5,16.5C27.1,34.5,34.5,27.1,34.5,18z
		 M31.6,15.5c0.3,1.2,0.5,2.4,0.5,3.5c0,1.1-0.1,2.3-0.5,3.5l-0.1,0.4h-6.7l0.1-0.6c0.1-0.9,0.2-2.1,0.2-3.3c0-1.2-0.1-2.4-0.2-3.3
		l-0.1-0.6h6.7L31.6,15.5z M22.6,4.7c3.2,1.1,5.9,3.3,7.6,6.3l0.4,0.8h-6.3l-0.1-0.4c-0.5-2.1-1.3-4.1-2.3-5.9l-0.6-1.1L22.6,4.7z
		 M22.8,18c0,1-0.1,2.1-0.3,3.5l-0.1,0.4h-8.8l-0.1-0.4c-0.2-1.4-0.3-2.5-0.3-3.5c0-1.3,0.1-2.5,0.3-3.5l0.1-0.4h8.8l0.1,0.4
		C22.6,15.5,22.8,16.7,22.8,18z M18,3.6l0.4,0.6c1.5,2.1,2.6,4.4,3.3,6.9l0.2,0.6h-7.8l0.2-0.6c0.7-2.4,1.8-4.8,3.3-6.9L18,3.6z
		 M5.8,10.9c1.7-2.9,4.4-5.2,7.6-6.3l1.2-0.4L14,5.4c-1,1.8-1.8,3.8-2.3,5.9l-0.1,0.4H5.4L5.8,10.9z M4.4,21.5
		c-0.3-1.2-0.5-2.4-0.5-3.5c0-1.1,0.2-2.3,0.5-3.5l0.1-0.4h6.7l-0.1,0.6c-0.1,0.9-0.2,2.1-0.2,3.3c0,1.2,0.1,2.4,0.2,3.3l0.1,0.6
		H4.5L4.4,21.5z M13.4,31.3C10.2,30.2,7.5,28,5.8,25l-0.4-0.8h6.3l0.1,0.4c0.5,2.1,1.3,4.1,2.3,5.9l0.6,1.1L13.4,31.3z M18,32.4
		l-0.4-0.6c-1.5-2.1-2.6-4.4-3.3-6.9l-0.2-0.6h7.8l-0.2,0.6c-0.7,2.4-1.8,4.8-3.3,6.9L18,32.4z M22.6,31.3l-1.2,0.4l0.6-1.1
		c1-1.8,1.8-3.8,2.3-5.9l0.1-0.4h6.3l-0.4,0.8C28.5,28,25.8,30.2,22.6,31.3z"/>
</g>
</svg>
