<?xml version="1.0" encoding="utf-8"?>
<!-- Generator: Adobe Illustrator 21.0.0, SVG Export Plug-In . SVG Version: 6.00 Build 0)  -->
<svg version="1.1" id="Слой_1" xmlns="http://www.w3.org/2000/svg" xmlns:xlink="http://www.w3.org/1999/xlink" x="0px" y="0px"
	 viewBox="0 0 14 14" style="enable-background:new 0 0 14 14;" xml:space="preserve">
<title>noun_1576825_cc</title>
<desc>Created with Sketch.</desc>
<g>
	<polygon points="13.6,8.2 12.4,8.2 12.3,8.2 12.3,11.3 8.7,7.7 8.6,7.8 7.8,8.6 7.7,8.7 11.3,12.3 8.2,12.3 8.2,12.4 
		8.2,13.6 8.2,13.7 13.7,13.7 13.7,8.2 	"/>
	<polygon points="5.8,1.7 5.8,1.6 5.8,0.4 5.8,0.3 0.3,0.3 0.3,5.8 0.4,5.8 1.6,5.8 1.7,5.8 1.7,2.7 5.3,6.3 5.4,6.2 
		6.2,5.4 6.3,5.3 2.7,1.7 	"/>
</g>
</svg>
