<?xml version="1.0" encoding="UTF-8"?>
<svg width="8px" height="8px" viewBox="0 0 8 8" version="1.1" xmlns="http://www.w3.org/2000/svg" xmlns:xlink="http://www.w3.org/1999/xlink">
    <!-- Generator: Sketch 53.2 (72643) - https://sketchapp.com -->
    <title>Line 2</title>
    <desc>Created with Sketch.</desc>
    <g id="Page-1-Copy-5" stroke="none" stroke-width="1">
        <g id="Desktop-33" transform="translate(-965.000000, -362.000000)">
            <g id="Popups/share_Search_name" transform="translate(702.000000, 264.000000)">
                <g id="Group-6">
                    <g id="Group-9" transform="translate(260.000000, 95.000000)">
                        <path d="M7.75,6.25 L10.2941176,6.25 C11.2941176,6.25 11.2941176,7.75 10.2941176,7.75 L7,7.75 C6.58578644,7.75 6.25,7.41421356 6.25,7 L6.25,3.70588235 C6.25,2.70588235 7.75,2.70588235 7.75,3.70588235 L7.75,6.25 Z M3.70588235,7.75 C2.70588235,7.75 2.70588235,6.25 3.70588235,6.25 L7,6.25 C7.41421356,6.25 7.75,6.58578644 7.75,7 L7.75,10.2941176 C7.75,11.2941176 6.25,11.2941176 6.25,10.2941176 L6.25,7.75 L3.70588235,7.75 Z" id="Line-2"></path>
                    </g>
                </g>
            </g>
        </g>
    </g>
</svg>