<?xml version="1.0" encoding="utf-8"?>
<!-- Generator: Adobe Illustrator 21.0.0, SVG Export Plug-In . SVG Version: 6.00 Build 0)  -->
<svg version="1.1" id="Слой_1" xmlns="http://www.w3.org/2000/svg" xmlns:xlink="http://www.w3.org/1999/xlink" x="0px" y="0px"
	 viewBox="0 0 14 14" style="enable-background:new 0 0 14 14;" xml:space="preserve">
<style type="text/css">
	.desktop_information{fill:#89929E;}
</style>
<g>
	<path class=".desktop_information" d="M7,0.1C3.2,0.1,0.1,3.2,0.1,7s3.1,6.9,6.9,6.9s6.9-3.1,6.9-6.9S10.8,0.1,7,0.1z M7,13c-3.3,0-6-2.7-6-6
		s2.7-6,6-6s6,2.7,6,6S10.3,13,7,13z"/>
	<path class=".desktop_information" d="M8.7,3C8.5,3,8.3,3.1,8,3.4S7.7,4,7.7,4.2c0,0.2,0.1,0.3,0.2,0.4s0.2,0.1,0.4,0.1c0.2,0,0.5-0.1,0.7-0.4
		s0.3-0.5,0.3-0.7c0-0.2-0.1-0.3-0.2-0.4S8.9,3,8.7,3z"/>
	<path class=".desktop_information" d="M6.8,9.3c-0.2,0-0.4-0.1-0.5-0.2S6.1,8.9,6.1,8.7c0-0.2,0.1-0.4,0.2-0.6s0.4-0.5,0.9-0.9
		C7.3,7,7.5,6.8,7.7,6.4S8,5.8,8,5.6c0-0.2-0.2-0.4-0.5-0.4c-0.6,0-1.3,0.6-2,1.7C5.4,7.3,5.3,7.4,5.2,7.6S5.1,7.8,5.1,8
		S5,8.4,5,8.6c0,0.5,0.1,1,0.3,1.5s0.5,0.7,1,0.7c0.3,0,0.7-0.2,1.1-0.5s0.9-0.8,1.4-1.5V8.2C8.3,8.6,7.9,8.9,7.7,9.1
		S7.1,9.3,6.8,9.3z"/>
</g>
</svg>
