<?xml version="1.0" encoding="utf-8"?>
<!-- Generator: Adobe Illustrator 21.0.0, SVG Export Plug-In . SVG Version: 6.00 Build 0)  -->
<svg version="1.1" id="Слой_1" xmlns="http://www.w3.org/2000/svg" xmlns:xlink="http://www.w3.org/1999/xlink" x="0px" y="0px"
	 viewBox="0 0 9 13" style="enable-background:new 0 0 9 13;" xml:space="preserve">
<title>automatic-rotation</title>
<desc>Created with Sketch.</desc>
<g>
	<path d="M1.7,3.5c0.1,0.1,0.3,0.1,0.4,0c0.6-0.6,2.3-1.1,3.2-1c0,0-0.1,0.2-0.4,0.7c0,0.1,0,0.2,0,0.3
		C4.9,3.5,5,3.5,5.1,3.5l2.4,0c0.1,0,0.1,0,0.2-0.1c0,0,0,0,0-0.1c0-0.1,0-0.2,0-0.3L6.5,1C6.4,0.9,6.3,0.9,6.2,0.9C6.1,0.9,6,1,6,1
		C5.7,1.7,5.5,2,5.5,2C3.9,1.9,2.8,2.2,1.6,3.1c0,0.1-0.1,0.1-0.1,0.2S1.6,3.4,1.7,3.5L1.7,3.5z"/>
	<path d="M8.5,5.2C8.5,5.1,8.4,5,8.2,5H1C0.8,5,0.7,5.1,0.7,5.2v7.5C0.7,12.9,0.8,13,1,13h2.8c2,0,3.5,0,4.4,0
		c0.1,0,0.3,0,0.3-0.2c0-0.3,0-1.1,0-2.5V5.2z M7.5,10.1c0,0.9,0,1.6,0,2c0,0-2,0-5.9,0V5.9h5.9V10.1z"/>
</g>
</svg>
