<?xml version="1.0" encoding="utf-8"?>
<!-- Generator: Adobe Illustrator 21.0.0, SVG Export Plug-In . SVG Version: 6.00 Build 0)  -->
<svg version="1.1" id="Слой_1" xmlns="http://www.w3.org/2000/svg" xmlns:xlink="http://www.w3.org/1999/xlink" x="0px" y="0px"
	 viewBox="0 0 28 25" style="enable-background:new 0 0 28 25;" xml:space="preserve">
<title>Shape</title>
<desc>Created with Sketch.</desc>
<g>
	<path d="M24.9,0.7H3.1C1.8,0.7,0.7,2,0.7,3.5v15c0,1.5,1.1,2.8,2.4,2.8h5.2v1.4H6.6v1.6h14.8v-1.6h-1.7v-1.4h5.2
		c1.3,0,2.4-1.2,2.4-2.8v-15C27.3,2,26.2,0.7,24.9,0.7z M9.1,22.8v-1.2h9.8v1.2H9.1z M25.9,18.1V19c0,0.5-0.4,0.9-1,0.9H3.1
		c-0.5,0-1-0.4-1-0.9v-0.9H25.9z M25.9,3.4v13.3H2.1V3.4c0-0.7,0.4-1.2,1-1.2h21.8C25.4,2.2,25.9,2.7,25.9,3.4z"/>
</g>
</svg>
