<?xml version="1.0" encoding="UTF-8"?>
<svg width="22px" height="11px" viewBox="0 0 22 11" version="1.1" xmlns="http://www.w3.org/2000/svg" xmlns:xlink="http://www.w3.org/1999/xlink">
    <!-- Generator: Sketch 53.2 (72643) - https://sketchapp.com -->
    <title>Shape</title>
    <desc>Created with Sketch.</desc>
    <g id="AdressBook" stroke="none" stroke-width="1" fill="none" fill-rule="evenodd">
        <g id="Adressbook-1" transform="translate(-1083.000000, -314.000000)" fill="#FFFFFF" fill-rule="nonzero" stroke="#FFFFFF" stroke-width="0.714285714">
            <g id="table" transform="translate(157.000000, 209.000000)">
                <g id="BUTTONS" transform="translate(927.000000, 103.000000)">
                    <g id="Preview">
                        <path d="M10.000986,2.4375 C5.64546799,2.4375 1.87252623,4.36102058 0.0295795479,7.19153087 C-0.00985984929,7.26204974 -0.00985984929,7.36350772 0.0295795479,7.4259434 C1.87280794,10.2642581 5.64546799,12.1875 10.000986,12.1875 C14.3562223,12.1875 18.129164,10.2717839 19.9645045,7.42566467 C20.0118318,7.36322899 20.0118318,7.26177101 19.9645045,7.19125214 C18.129164,4.35293739 14.356504,2.4375 10.000986,2.4375 L10.000986,2.4375 Z M10.000986,2.87538593 C14.1595887,2.87538593 17.7356152,4.69716981 19.4996831,7.3088765 C17.7356152,9.92810892 14.1598704,11.7498928 10.000986,11.7498928 C5.84210156,11.7498928 2.26635679,9.92810892 0.494119304,7.30859777 C2.2666385,4.69716981 5.84238327,2.87538593 10.000986,2.87538593 L10.000986,2.87538593 Z M10.000986,4.20465266 C8.27607578,4.20465266 6.86639904,5.59635506 6.86639904,7.3088765 C6.86639904,9.02892367 8.27607578,10.4206261 10.000986,10.4206261 C11.7258962,10.4206261 13.1355729,9.02892367 13.1355729,7.3088765 C13.1358546,5.59635506 11.7258962,4.20465266 10.000986,4.20465266 L10.000986,4.20465266 Z M10.000986,4.64225986 C11.4895415,4.64225986 12.6868089,5.83857204 12.6868089,7.30859777 C12.6868089,8.78642796 11.4895415,9.98274014 10.000986,9.98274014 C8.51243045,9.98274014 7.31516304,8.78642796 7.31516304,7.30859777 C7.31516304,5.83885077 8.51243045,4.64225986 10.000986,4.64225986 L10.000986,4.64225986 Z" id="Shape"></path>
                    </g>
                </g>
            </g>
        </g>
    </g>
</svg>