<?xml version="1.0" encoding="iso-8859-1"?>
<!-- Generator: Adobe Illustrator 22.0.1, SVG Export Plug-In . SVG Version: 6.00 Build 0)  -->
<svg version="1.1" id="Layer_1_1_" xmlns="http://www.w3.org/2000/svg" xmlns:xlink="http://www.w3.org/1999/xlink" x="0px" y="0px"
	 viewBox="0 0 64 64" style="enable-background:new 0 0 64 64;" xml:space="preserve">
<g id="Guide">
</g>
<path d="M61,17h-8c-0.553,0-1,0.448-1,1v3H42v-3c0-0.552-0.447-1-1-1h-3v-5h3c0.553,0,1-0.448,1-1V3c0-0.552-0.447-1-1-1h-8
	c-0.553,0-1,0.448-1,1v8c0,0.552,0.447,1,1,1h3v5h-3c-0.553,0-1,0.448-1,1v8c0,0.552,0.447,1,1,1h3v1.279l-14,4.667L8,28.279V27h3
	c0.553,0,1-0.448,1-1v-8c0-0.552-0.447-1-1-1H3c-0.553,0-1,0.448-1,1v8c0,0.552,0.447,1,1,1h3v2c0,0.431,0.275,0.812,0.684,0.949
	L21,34.721V37h-3c-0.553,0-1,0.448-1,1v8c0,0.552,0.447,1,1,1h3v5h-3c-0.553,0-1,0.448-1,1v8c0,0.552,0.447,1,1,1h8
	c0.553,0,1-0.448,1-1v-8c0-0.552-0.447-1-1-1h-3v-5h3c0.553,0,1-0.448,1-1v-8c0-0.552-0.447-1-1-1h-3v-2.279l14.316-4.772
	C37.724,29.813,38,29.431,38,29v-2h3c0.553,0,1-0.448,1-1v-3h10v3c0,0.552,0.447,1,1,1h3v10h-3c-0.553,0-1,0.448-1,1v8
	c0,0.552,0.447,1,1,1h8c0.553,0,1-0.448,1-1v-8c0-0.552-0.447-1-1-1h-3V27h3c0.553,0,1-0.448,1-1v-8C62,17.448,61.553,17,61,17z
	 M34,4h6v6h-6V4z M4,19h6v6H4V19z M25,60h-6v-6h6V60z M25,45h-6v-6h6V45z M40,25h-6v-6h6V25z M60,45h-6v-6h6V45z M60,25h-6v-6h6V25z
	"/>
</svg>
