<svg width="32" height="32" viewBox="0 0 32 32" fill="none" xmlns="http://www.w3.org/2000/svg">
<path fill-rule="evenodd" clip-rule="evenodd" d="M6.14346 9C5.86556 9 5.59904 9.10536 5.40254 9.29289C5.20603 9.48043 5.09564 9.73478 5.09564 10V24C5.09564 24.2652 5.20603 24.5196 5.40254 24.7071C5.59904 24.8946 5.86556 25 6.14346 25H22.9086C23.1865 25 23.453 24.8946 23.6495 24.7071C23.846 24.5196 23.9564 24.2652 23.9564 24V13C23.9564 12.7348 23.846 12.4804 23.6495 12.2929C23.453 12.1054 23.1865 12 22.9086 12H13.4782C13.1279 12 12.8007 11.8329 12.6064 11.5547L10.8218 9H6.14346ZM3.9207 7.87868C4.51021 7.31607 5.30976 7 6.14346 7H11.3826C11.7329 7 12.0601 7.1671 12.2544 7.4453L14.039 10H22.9086C23.7423 10 24.5418 10.3161 25.1313 10.8787C25.7208 11.4413 26.052 12.2043 26.052 13V24C26.052 24.7957 25.7208 25.5587 25.1313 26.1213C24.5418 26.6839 23.7423 27 22.9086 27H6.14346C5.30976 27 4.51021 26.6839 3.9207 26.1213C3.33118 25.5587 3 24.7957 3 24V10C3 9.20435 3.33118 8.44129 3.9207 7.87868Z" />
<path d="M8.7077 17.1056C9.06268 16.428 9.78832 16 10.5821 16H26.8525C28.4103 16 29.4236 17.5646 28.7269 18.8944L25.5834 24.8944C25.2284 25.572 24.5028 26 23.709 26H7.43863C5.88077 26 4.86754 24.4354 5.56424 23.1056L8.7077 17.1056Z" />
<path fill-rule="evenodd" clip-rule="evenodd" d="M7.7705 16.6584C8.30297 15.642 9.39144 15 10.5821 15H26.8525C29.1893 15 30.7091 17.3469 29.6641 19.3416L26.5206 25.3416C25.9881 26.358 24.8997 27 23.709 27H7.43863C5.10184 27 3.58199 24.6531 4.62704 22.6584L7.7705 16.6584ZM10.5821 17C10.1852 17 9.82238 17.214 9.64489 17.5528L6.50144 23.5528C6.15309 24.2177 6.6597 25 7.43863 25H23.709C24.1059 25 24.4687 24.786 24.6462 24.4472L27.7897 18.4472C28.138 17.7823 27.6314 17 26.8525 17H10.5821Z" />
</svg>