<svg version="1.1" xmlns="http://www.w3.org/2000/svg" xmlns:xlink="http://www.w3.org/1999/xlink" width="20" height="17" viewBox="0 0 20 17"><path id="drive" d="M16.120,16.403 C16.093,16.450 16.041,16.479 15.985,16.479 C15.985,16.479 4.668,16.479 4.668,16.479 C4.612,16.479 4.561,16.450 4.533,16.404 C4.505,16.358 4.505,16.301 4.532,16.254 C4.532,16.254 7.472,11.235 7.472,11.235 C7.500,11.188 7.552,11.159 7.608,11.159 C7.608,11.159 18.925,11.159 18.925,11.159 C18.981,11.159 19.032,11.187 19.060,11.234 C19.088,11.280 19.088,11.337 19.061,11.384 C19.061,11.384 16.120,16.403 16.120,16.403 zM18.491,10.628 C18.491,10.628 12.619,10.628 12.619,10.628 C12.563,10.628 12.512,10.599 12.484,10.552 C12.484,10.552 6.524,0.514 6.524,0.514 C6.496,0.468 6.496,0.410 6.524,0.364 C6.552,0.317 6.603,0.289 6.659,0.289 C6.659,0.289 12.530,0.289 12.530,0.289 C12.586,0.289 12.638,0.317 12.665,0.364 C12.665,0.364 18.626,10.402 18.626,10.402 C18.653,10.449 18.653,10.506 18.625,10.553 C18.598,10.599 18.546,10.628 18.491,10.628 zM9.038,6.786 C9.038,6.786 3.335,16.403 3.335,16.403 C3.307,16.450 3.255,16.479 3.200,16.479 C3.199,16.479 3.199,16.479 3.199,16.479 C3.143,16.479 3.092,16.449 3.064,16.402 C3.064,16.402 0.128,11.384 0.128,11.384 C0.102,11.338 0.101,11.281 0.128,11.235 C0.128,11.235 5.743,1.619 5.743,1.619 C5.770,1.572 5.821,1.543 5.877,1.542 C5.878,1.542 5.878,1.542 5.878,1.542 C5.933,1.542 5.985,1.571 6.013,1.617 C6.013,1.617 9.037,6.636 9.037,6.636 C9.065,6.682 9.065,6.740 9.038,6.786 z" fill="#2B88D8" /></svg>