<svg xmlns="http://www.w3.org/2000/svg" width="14" height="18" viewBox="0 0 14 18">
  <metadata><?xpacket begin="﻿" id="W5M0MpCehiHzreSzNTczkc9d"?>
<x:xmpmeta xmlns:x="adobe:ns:meta/" x:xmptk="Adobe XMP Core 5.6-c138 79.159824, 2016/09/14-01:09:01        ">
   <rdf:RDF xmlns:rdf="http://www.w3.org/1999/02/22-rdf-syntax-ns#">
      <rdf:Description rdf:about=""/>
   </rdf:RDF>
</x:xmpmeta>
                                                                                                    
                                                                                                    
                                                                                                    
                                                                                                    
                                                                                                    
                                                                                                    
                                                                                                    
                                                                                                    
                                                                                                    
                                                                                                    
                                                                                                    
                                                                                                    
                                                                                                    
                                                                                                    
                                                                                                    
                                                                                                    
                                                                                                    
                                                                                                    
                                                                                                    
                                                                                                    
                           
<?xpacket end="w"?></metadata>
<defs>
    <style>
      .cls-1 {
        fill: #fff;
        fill-rule: evenodd;
      }
    </style>
  </defs>
  <path id="Rectangle_arrondi_1_copie" data-name="Rectangle arrondi 1 copie" class="cls-1" d="M11.745,8.167H3.989a0.943,0.943,0,0,1-.922-0.961V3.016a0.943,0.943,0,0,1,.922-0.961h7.756a0.943,0.943,0,0,1,.922.961v4.19A0.943,0.943,0,0,1,11.745,8.167ZM1.322,9.833H11.745a0.943,0.943,0,0,1,.922.961v4.19a0.943,0.943,0,0,1-.922.961H1.322A0.943,0.943,0,0,1,.4,14.984v-4.19A0.943,0.943,0,0,1,1.322,9.833ZM0.933,14.984a0.4,0.4,0,0,0,.389.4H11.745a0.4,0.4,0,0,0,.389-0.4v-4.19a0.4,0.4,0,0,0-.389-0.405H1.322a0.4,0.4,0,0,0-.389.405v4.19h0Zm12.8-14.317A0.272,0.272,0,0,1,14,.944V17.056a0.267,0.267,0,1,1-.533,0V0.944A0.273,0.273,0,0,1,13.733.667Z"/>
</svg>
