<svg width="26" height="32" viewBox="0 0 26 32" fill="none" xmlns="http://www.w3.org/2000/svg">
<path fill-rule="evenodd" clip-rule="evenodd" d="M0 2C0 0.895432 0.895429 0 2 0H24C25.1046 0 26 0.89543 26 2V30C26 31.1046 25.1046 32 24 32H2C0.895432 32 0 31.1046 0 30V2ZM24 2L2 2V30H24V2Z" fill="#89929E"/>
<path fill-rule="evenodd" clip-rule="evenodd" d="M5.25 15C5.25 14.0335 6.0335 13.25 7 13.25H9C9.9665 13.25 10.75 14.0335 10.75 15V17C10.75 17.9665 9.9665 18.75 9 18.75H7C6.0335 18.75 5.25 17.9665 5.25 17V15ZM7 14.75C6.86193 14.75 6.75 14.8619 6.75 15V17C6.75 17.1381 6.86193 17.25 7 17.25H9C9.13807 17.25 9.25 17.1381 9.25 17V15C9.25 14.8619 9.13807 14.75 9 14.75H7Z" fill="#89929E"/>
<path fill-rule="evenodd" clip-rule="evenodd" d="M5.25 7C5.25 6.0335 6.0335 5.25 7 5.25H9C9.9665 5.25 10.75 6.0335 10.75 7V9C10.75 9.9665 9.9665 10.75 9 10.75H7C6.0335 10.75 5.25 9.9665 5.25 9V7ZM7 6.75C6.86193 6.75 6.75 6.86193 6.75 7V9C6.75 9.13807 6.86193 9.25 7 9.25H9C9.13807 9.25 9.25 9.13807 9.25 9V7C9.25 6.86193 9.13807 6.75 9 6.75H7Z" fill="#89929E"/>
<path fill-rule="evenodd" clip-rule="evenodd" d="M5.25 23C5.25 22.0335 6.0335 21.25 7 21.25H9C9.9665 21.25 10.75 22.0335 10.75 23V25C10.75 25.9665 9.9665 26.75 9 26.75H7C6.0335 26.75 5.25 25.9665 5.25 25V23ZM7 22.75C6.86193 22.75 6.75 22.8619 6.75 23V25C6.75 25.1381 6.86193 25.25 7 25.25H9C9.13807 25.25 9.25 25.1381 9.25 25V23C9.25 22.8619 9.13807 22.75 9 22.75H7Z" fill="#89929E"/>
<path d="M13 8C13 7.44772 13.4477 7 14 7H20C20.5523 7 21 7.44772 21 8C21 8.55228 20.5523 9 20 9H14C13.4477 9 13 8.55228 13 8Z" fill="#89929E"/>
<path d="M13 16C13 15.4477 13.4477 15 14 15H20C20.5523 15 21 15.4477 21 16C21 16.5523 20.5523 17 20 17H14C13.4477 17 13 16.5523 13 16Z" fill="#89929E"/>
<path d="M13 24C13 23.4477 13.4477 23 14 23H20C20.5523 23 21 23.4477 21 24C21 24.5523 20.5523 25 20 25H14C13.4477 25 13 24.5523 13 24Z" fill="#89929E"/>
</svg>