<svg width="24" height="24" viewBox="0 0 24 24" fill="none" xmlns="http://www.w3.org/2000/svg">
<path fill-rule="evenodd" clip-rule="evenodd" d="M4 1.5C3.49848 1.5 2.73431 1.60374 2.03728 1.98014C1.27525 2.39164 0.5 3.20646 0.5 4.5C0.5 6.19149 1.02008 8.68645 3.15 11.5721V17.2857C3.15 18.7108 4.31548 19.85 5.73333 19.85H15.2667C16.6845 19.85 17.85 18.7108 17.85 17.2857V14.5882L22.5285 17.7072C22.7893 17.8811 23.1247 17.8973 23.4011 17.7494C23.6775 17.6015 23.85 17.3135 23.85 17V9C23.85 8.68652 23.6775 8.39849 23.4011 8.25058C23.1247 8.10266 22.7893 8.11887 22.5285 8.29276L17.85 11.4118V8.71429C17.85 7.28924 16.6845 6.15 15.2667 6.15H8.5858C8.55666 5.88439 8.48107 5.60804 8.34164 5.32918C8.2131 5.07209 8.12399 4.78431 8.06819 4.51771C8.01114 4.24515 8 4.04889 8 4C8 3.09911 7.38711 2.42968 6.72846 2.06376C6.04899 1.68628 5.14155 1.5 4 1.5ZM7.05999 6.15C7.04475 6.09984 7.0249 6.04979 7 6C6.6 5.2 6.5 4.33333 6.5 4C6.5 3.66667 6 3 4 3C3.33333 3 2 3.3 2 4.5C2 5.51443 2.22868 6.98621 3.15 8.76071C3.59101 9.6101 4.19071 10.5289 5 11.5C7.5 14.5 12 16 13.5 16C15 16 15 15 15 14.5C15 14.3024 15.0227 14.0658 15.0469 13.8132C15.1452 12.7877 15.2687 11.5 14 11.5C13.5265 11.5 13.2772 11.5 13.0397 11.4469C12.7758 11.3879 12.5265 11.2632 12 11C11.7002 10.8501 10.9688 10.808 10.2426 11.6745C10.0907 11.8557 9.84217 11.9381 9.63288 11.8281C8.74166 11.3597 7.25338 10.2501 6.2071 8.39013C6.08348 8.17035 6.15953 7.89686 6.3477 7.729C6.78061 7.34281 7.23874 6.73859 7.05999 6.15Z" fill="#FA8540"/>
</svg>