<svg width="32" height="32" viewBox="0 0 32 32" fill="none" xmlns="http://www.w3.org/2000/svg">
<path d="M17.7162 12.5022C16.7366 12.5022 15.7747 12.349 14.8633 12.0478C14.4167 11.8954 13.8676 12.0352 13.595 12.3151L11.796 13.6732C9.70963 12.5595 8.42446 11.2747 7.32596 9.20404L8.64408 7.45188C8.98654 7.10988 9.10938 6.61029 8.96221 6.14154C8.65971 5.22529 8.50604 4.26392 8.50604 3.28392C8.50608 2.57596 7.93013 2 7.22221 2H4.28387C3.57596 2 3 2.57596 3 3.28387C3 11.3985 9.60158 18 17.7162 18C18.4241 18 19 17.424 19 16.7161V13.786C19 13.0781 18.424 12.5022 17.7162 12.5022Z"/>
<path d="M9.01436 6.38452C9.06077 6.77704 8.9278 7.16854 8.64408 7.45188L7.32596 9.20404C8.42446 11.2747 9.70963 12.5595 11.796 13.6732L13.595 12.3151C13.8676 12.0352 14.4167 11.8954 14.8633 12.0478C15.7747 12.349 16.7366 12.5022 17.7162 12.5022C18.424 12.5022 19 13.0781 19 13.786V16.7161C19 17.424 18.4241 18 17.7162 18C12.4049 18 7.74179 15.1718 5.15381 10.9422V9.84606C5.15381 8.928 5.51851 8.04755 6.16767 7.39838C6.81683 6.74922 7.69729 6.38452 8.61535 6.38452H9.01436Z"/>
<path d="M11.0198 6.38452H25.8461C26.7642 6.38452 27.6446 6.74922 28.2938 7.39838C28.943 8.04755 29.3077 8.928 29.3077 9.84606V22.1538C29.3077 23.0718 28.943 23.9523 28.2938 24.6014C27.6446 25.2506 26.7642 25.6153 25.8461 25.6153H11.4911L6.86092 30.2455C6.57492 30.5315 6.1448 30.617 5.77113 30.4622C5.39745 30.3075 5.15381 29.9428 5.15381 29.5384V14.302C8.21952 17.7933 12.7144 20 17.7162 20C19.5287 20 21 18.5286 21 16.7161V13.786C20.9999 11.9737 19.5286 10.5022 17.7162 10.5022C16.9476 10.5022 16.2001 10.3824 15.497 10.1508C14.8762 9.94186 14.2514 9.95015 13.7267 10.0677C13.2634 10.1715 12.7439 10.3913 12.3049 10.7832L11.6684 11.2636C10.8808 10.7198 10.2717 10.1111 9.73308 9.33114L10.1766 8.74158C10.7651 8.08918 11.0597 7.2411 11.0198 6.38452Z"/>
</svg>