<svg width="20" height="20" viewBox="0 0 20 20" fill="none" xmlns="http://www.w3.org/2000/svg">
<path fill-rule="evenodd" clip-rule="evenodd" d="M3.33366 3.5C3.15685 3.5 2.98728 3.57024 2.86225 3.69526C2.73723 3.82029 2.66699 3.98986 2.66699 4.16667V14.5C2.66699 14.6768 2.73723 14.8464 2.86225 14.9714C2.98728 15.0964 3.15685 15.1667 3.33366 15.1667H4.16699C4.71928 15.1667 5.16699 15.6144 5.16699 16.1667C5.16699 16.719 4.71928 17.1667 4.16699 17.1667H3.33366C2.62641 17.1667 1.94814 16.8857 1.44804 16.3856C0.947944 15.8855 0.666992 15.2072 0.666992 14.5V4.16667C0.666992 3.45942 0.947944 2.78115 1.44804 2.28105C1.94814 1.78095 2.62642 1.5 3.33366 1.5H16.667C17.3742 1.5 18.0525 1.78095 18.5526 2.28105C19.0527 2.78115 19.3337 3.45942 19.3337 4.16667V14.5C19.3337 15.2072 19.0527 15.8855 18.5526 16.3856C18.0525 16.8857 17.3742 17.1667 16.667 17.1667H15.8337C15.2814 17.1667 14.8337 16.719 14.8337 16.1667C14.8337 15.6144 15.2814 15.1667 15.8337 15.1667H16.667C16.8438 15.1667 17.0134 15.0964 17.1384 14.9714C17.2634 14.8464 17.3337 14.6768 17.3337 14.5V4.16667C17.3337 3.98986 17.2634 3.82029 17.1384 3.69526C17.0134 3.57024 16.8438 3.5 16.667 3.5H3.33366Z" fill="white"/>
<path fill-rule="evenodd" clip-rule="evenodd" d="M15.5 12.5C15.5 12.8069 15.3591 13.0967 15.1178 13.2863L8.11782 18.7863C7.8168 19.0228 7.40717 19.0667 7.06286 18.8994C6.71855 18.732 6.5 18.3828 6.5 18L6.5 7C6.5 6.61718 6.71855 6.26795 7.06286 6.10061C7.40717 5.93326 7.8168 5.97717 8.11782 6.21368L15.1178 11.7137C15.3591 11.9033 15.5 12.1931 15.5 12.5ZM8.5 9.05746L8.5 15.9425L12.8814 12.5L8.5 9.05746Z" fill="white"/>
</svg>