<svg width="31" height="29" viewBox="0 0 31 29" fill="none" xmlns="http://www.w3.org/2000/svg">
<path fill-rule="evenodd" clip-rule="evenodd" d="M16 14C16 13.1716 16.6716 12.5 17.5 12.5L26.5 12.5C27.3284 12.5 28 13.1716 28 14C28 14.8284 27.3284 15.5 26.5 15.5L17.5 15.5C16.6716 15.5 16 14.8284 16 14Z" fill="white"/>
<path d="M29.9667 13.6L23.3 8.6C22.9704 8.35279 22.5 8.58798 22.5 9V19C22.5 19.412 22.9704 19.6472 23.3 19.4L29.9667 14.4C30.2333 14.2 30.2333 13.8 29.9667 13.6Z" fill="white"/>
<path d="M2 23V2H18V11L20 11V1C20 0.447715 19.5523 0 19 0H1C0.447715 0 0 0.447716 0 1V24C0 24.5523 0.447716 25 1 25H19C19.5523 25 20 24.5523 20 24V17H18V23H2Z" fill="white"/>
<path fill-rule="evenodd" clip-rule="evenodd" d="M12.2249 3.82113C12.6786 3.92583 13 4.32986 13 4.79552V27.743C13 28.386 12.4018 28.8619 11.7751 28.7173L0.775141 26.1789C0.32141 26.0742 0 25.6701 0 25.2045V2.25705C0 1.61397 0.598243 1.13806 1.22486 1.28266L12.2249 3.82113ZM10 16C10.5523 16 11 15.5523 11 15C11 14.4477 10.5523 14 10 14C9.44771 14 9 14.4477 9 15C9 15.5523 9.44771 16 10 16Z" fill="white"/>
</svg>
