<svg width="31" height="29" viewBox="0 0 31 29" fill="none" xmlns="http://www.w3.org/2000/svg">
<path d="M13.9667 12.6L7.3 7.6C6.97038 7.35279 6.5 7.58798 6.5 8V18C6.5 18.412 6.97038 18.6472 7.3 18.4L8.96667 17.15L10.6333 15.9L13.9667 13.4C14.2333 13.2 14.2333 12.8 13.9667 12.6Z" fill="white"/>
<path d="M12.5 9.625V2H28.5V23H12.5V16.375L10.5 17.875V24C10.5 24.5523 10.9477 25 11.5 25H29.5C30.0523 25 30.5 24.5523 30.5 24V1C30.5 0.447715 30.0523 0 29.5 0H11.5C10.9477 0 10.5 0.447716 10.5 1V8.125L12.5 9.625Z" fill="white"/>
<path fill-rule="evenodd" clip-rule="evenodd" d="M0 13C-7.24234e-08 12.1716 0.671573 11.5 1.5 11.5L10.5 11.5C11.3284 11.5 12 12.1716 12 13C12 13.8284 11.3284 14.5 10.5 14.5L1.5 14.5C0.671573 14.5 7.24234e-08 13.8284 0 13Z" fill="white"/>
<path fill-rule="evenodd" clip-rule="evenodd" d="M18.2751 3.82113C17.8214 3.92583 17.5 4.32986 17.5 4.79552V27.743C17.5 28.386 18.0982 28.8619 18.7249 28.7173L29.7249 26.1789C30.1786 26.0742 30.5 25.6701 30.5 25.2045V2.25705C30.5 1.61397 29.9018 1.13806 29.2751 1.28266L18.2751 3.82113ZM21 16C21.5523 16 22 15.5523 22 15C22 14.4477 21.5523 14 21 14C20.4477 14 20 14.4477 20 15C20 15.5523 20.4477 16 21 16Z" fill="white"/>
</svg>