<svg width="40" height="40" viewBox="0 0 40 40" fill="none" xmlns="http://www.w3.org/2000/svg">
<path fill-rule="evenodd" clip-rule="evenodd" d="M18 8C14.6863 8 12 10.6863 12 14C12 17.3137 14.6863 20 18 20C21.3137 20 24 17.3137 24 14C24 10.6863 21.3137 8 18 8ZM14 14C14 11.7909 15.7909 10 18 10C20.2091 10 22 11.7909 22 14C22 16.2091 20.2091 18 18 18C15.7909 18 14 16.2091 14 14Z" fill="#2F2F2F"/>
<path fill-rule="evenodd" clip-rule="evenodd" d="M13 23C11.4301 23 9.91182 23.5814 8.78215 24.6358C7.65014 25.6923 7 27.1406 7 28.6667V31C7 31.5523 7.44772 32 8 32C8.55228 32 9 31.5523 9 31V28.6667C9 27.7173 9.40342 26.7917 10.1468 26.0979C10.8925 25.4019 11.9177 25 13 25H23C24.0823 25 25.1075 25.4019 25.8532 26.0979C26.1844 26.407 26.4481 26.7621 26.6387 27.1448C25.7209 27.8723 25.1038 28.7338 24.7022 29.6443C24.0305 31.1673 24.0023 32.744 24.0002 33.798C23.9988 34.4634 24.5384 35 25.2 35H33.7992C34.4609 35 35.0004 34.4634 34.9991 33.798C34.9969 32.744 34.9688 31.1673 34.297 29.6443C33.8231 28.5698 33.0491 27.5635 31.8348 26.7652C33.0754 26.0166 33.8677 25.1028 34.3471 24.0964C35.0071 22.711 35.0028 21.2751 34.9998 20.2693L34.9996 20.1972C34.9977 19.5366 34.4619 19 33.7992 19H25.2C24.5385 19 23.9987 19.5365 24.0002 20.2021C24.002 21.0325 24.0204 22.0705 24.3945 23.1551C23.9405 23.0527 23.4726 23 23 23H13ZM26.5076 23.0253C26.9303 23.8485 27.7691 24.7713 29.5513 25.657C31.3429 24.9621 32.1453 24.068 32.5416 23.2362C32.8792 22.5274 32.9697 21.777 32.9926 21H26.0186C26.0568 21.7042 26.1713 22.3701 26.5076 23.0253ZM26.5321 30.4514C26.9684 29.4621 27.7966 28.474 29.4996 27.8062C31.2026 28.474 32.0308 29.4621 32.4671 30.4514C32.8337 31.2826 32.9486 32.1673 32.9839 33H26.0153C26.0506 32.1673 26.1655 31.2826 26.5321 30.4514Z" fill="#2F2F2F"/>
</svg>