<?xml version="1.0" encoding="utf-8"?>
<!-- Generator: Adobe Illustrator 21.0.0, SVG Export Plug-In . SVG Version: 6.00 Build 0)  -->
<svg version="1.1" id="Слой_1" xmlns="http://www.w3.org/2000/svg" xmlns:xlink="http://www.w3.org/1999/xlink" x="0px" y="0px"
	 viewBox="0 0 16 16" style="enable-background:new 0 0 16 16;" xml:space="preserve">
<style type="text/css">
	.st0{fill:#89929E;}
</style>
<title>pin</title>
<desc>Created with Sketch.</desc>
<g>
	<path class="st0" d="M15.7,5.6l-5.4-5.4C9.9,0,9.5-0.1,9.1,0s-0.8,0.4-1,0.7L5.4,5.1H2.8c-0.5,0-1,0.3-1.2,0.8
		C1.4,6.5,1.5,7,1.9,7.4l2.4,2.4l-4.1,4.8c-0.2,0.2-0.3,0.6-0.1,0.9S0.5,16,0.8,16c0.2,0,0.4-0.1,0.5-0.2l4.8-4.1l2.4,2.4
		c0.3,0.2,0.6,0.4,0.9,0.4c0.2,0,0.3,0,0.5-0.1c0.5-0.2,0.8-0.7,0.8-1.2v-2.5l4.4-2.7c0.4-0.2,0.6-0.6,0.7-1
		C16.1,6.5,16,6.1,15.7,5.6z M15,6.7c0,0.1-0.1,0.3-0.3,0.4l-4.9,3v3.1c0,0.1-0.1,0.2-0.2,0.3c-0.1,0-0.3,0-0.3-0.1L2.6,6.7
		C2.5,6.6,2.5,6.5,2.5,6.3c0.1-0.1,0.2-0.2,0.3-0.2h3.1l3-4.9C9,1.1,9.1,1,9.3,1c0.2,0,0.3,0,0.4,0l5.3,5.2C15,6.4,15,6.6,15,6.7z"
		/>
</g>
</svg>
