<?xml version="1.0" encoding="UTF-8"?>
<svg width="18px" height="15px" viewBox="0 0 18 15" version="1.1" xmlns="http://www.w3.org/2000/svg" xmlns:xlink="http://www.w3.org/1999/xlink">
    <title>contact</title>
    <g id="Tchat-06/2020" stroke="none" stroke-width="1" fill="none" fill-rule="evenodd">
        <g id="Tchat-S2.3" transform="translate(-703.000000, -95.000000)" fill="#FFFFFF" fill-rule="nonzero">
            <g id="contact" transform="translate(703.000000, 95.000000)">
                <circle id="Oval" cx="6.16272186" cy="4.15714532" r="3.40008943"></circle>
                <path d="M1.49951256,14.3574774 L10.8259312,14.3574774 C11.6294623,14.3574774 12.2829211,13.6521882 12.2829211,12.7849049 L12.2829211,12.349287 C12.2829211,11.2130338 11.719799,10.1750862 10.8139458,9.64046132 C9.7274829,9.00026298 8.03805291,8.23727814 6.16272186,8.23727814 C4.28732706,8.23727814 2.59789707,9.00032673 1.51149795,9.64046132 C0.605708467,10.1750225 0.0425226342,11.2130338 0.0425226342,12.349287 L0.0425226342,12.7849049 C0.0425226342,13.6522519 0.695981406,14.3574774 1.49951256,14.3574774 Z" id="Path"></path>
                <path d="M17.0999789,6.300738 L15.3000211,6.300738 L15.3000211,4.49968371 C15.3000211,4.00239908 14.8974711,3.6 14.4,3.6 C13.9025289,3.6 13.4999789,4.00239908 13.4999789,4.49968371 L13.4999789,6.300738 L11.7000211,6.300738 C11.20255,6.300738 10.8,6.70313708 10.8,7.20042171 C10.8,7.69770635 11.20255,8.10010543 11.7000211,8.10010543 L13.4999789,8.10010543 L13.4999789,9.90031629 C13.4999789,10.3976009 13.9025289,10.8 14.4,10.8 C14.8974711,10.8 15.3000211,10.3976009 15.3000211,9.90031629 L15.3000211,8.10002109 L17.0999789,8.10002109 C17.59745,8.10002109 18,7.697622 18,7.20033737 C18,6.70313708 17.59745,6.300738 17.0999789,6.300738 Z" id="Path"></path>
            </g>
        </g>
    </g>
</svg>