<svg width="34" height="34" viewBox="0 0 34 34" fill="none" xmlns="http://www.w3.org/2000/svg">
<path d="M28.3955 9.71431C30.0932 12.2053 31.0857 15.2153 31.0857 18.4572C31.0857 27.0412 24.1269 34 15.5428 34C6.95877 34 0 27.0412 0 18.4572C0 9.87308 6.95877 2.91431 15.5428 2.91431C18.7847 2.91431 21.7947 3.90682 24.2857 5.60454V8.03934C21.9217 6.05334 18.872 4.85717 15.5428 4.85717C8.03178 4.85717 1.94286 10.9461 1.94286 18.4572C1.94286 25.9682 8.03178 32.0571 15.5428 32.0571C23.0539 32.0571 29.1428 25.9682 29.1428 18.4572C29.1428 15.128 27.9467 12.0783 25.9607 9.71431H28.3955Z" fill="#89929E"/>
<path fill-rule="evenodd" clip-rule="evenodd" d="M25.6595 9.71431H24.2857V8.3405L22.3808 10.2454C20.5278 8.70074 18.1438 7.77145 15.5428 7.77145C9.64129 7.77145 4.85714 12.5556 4.85714 18.4572C4.85714 24.3587 9.64129 29.1429 15.5428 29.1429C21.4444 29.1429 26.2285 24.3587 26.2285 18.4572C26.2285 15.8562 25.2993 13.4722 23.7546 11.6192L25.6595 9.71431ZM21 11.6262C19.5043 10.4297 17.6071 9.71431 15.5428 9.71431C10.7143 9.71431 6.79999 13.6286 6.79999 18.4572C6.79999 23.2857 10.7143 27.2 15.5428 27.2C20.3714 27.2 24.2857 23.2857 24.2857 18.4572C24.2857 16.3929 23.5703 14.4957 22.3738 13L20.2939 15.08C20.9724 16.0327 21.3714 17.1983 21.3714 18.4572C21.3714 21.6762 18.7619 24.2857 15.5428 24.2857C12.3238 24.2857 9.71428 21.6762 9.71428 18.4572C9.71428 15.2381 12.3238 12.6286 15.5428 12.6286C16.8016 12.6286 17.9672 13.0276 18.92 13.7061L21 11.6262ZM17.5168 15.1094C16.9383 14.7676 16.2635 14.5714 15.5428 14.5714C13.3968 14.5714 11.6571 16.3111 11.6571 18.4572C11.6571 20.6032 13.3968 22.3429 15.5428 22.3429C17.6889 22.3429 19.4286 20.6032 19.4286 18.4572C19.4286 17.7365 19.2324 17.0617 18.8906 16.4832L16.2297 19.1441C15.8504 19.5234 15.2353 19.5234 14.8559 19.1441C14.4766 18.7647 14.4766 18.1496 14.8559 17.7703L17.5168 15.1094Z" fill="#89929E"/>
<path fill-rule="evenodd" clip-rule="evenodd" d="M29.0289 0.0739739C29.3919 0.224332 29.6285 0.57855 29.6285 0.971456V4.37145H33.0285C33.4214 4.37145 33.7757 4.60813 33.926 4.97113C34.0764 5.33413 33.9933 5.75196 33.7154 6.02978L29.344 10.4012C29.1618 10.5834 28.9148 10.6857 28.6571 10.6857H24.2857C23.7492 10.6857 23.3143 10.2508 23.3143 9.71431V5.34288C23.3143 5.08524 23.4166 4.83816 23.5988 4.65598L27.9702 0.284553C28.248 0.0067266 28.6659 -0.0763846 29.0289 0.0739739ZM25.2571 5.74526V8.74288H28.2547L30.6833 6.31431H28.6571C28.1206 6.31431 27.6857 5.87939 27.6857 5.34288V3.31669L25.2571 5.74526Z" fill="#89929E"/>
</svg>