<svg width="18" height="18" viewBox="0 0 18 18" fill="none" xmlns="http://www.w3.org/2000/svg">
<path fill-rule="evenodd" clip-rule="evenodd" d="M2.47191 3.21717C2.47191 1.44038 3.82763 0 5.5 0C7.17237 0 8.52809 1.44038 8.52809 3.21717C8.52809 4.99397 7.17237 6.43435 5.5 6.43435C3.82763 6.43435 2.47191 4.99397 2.47191 3.21717ZM5.5 1.18182C4.44197 1.18182 3.58427 2.09308 3.58427 3.21717C3.58427 4.34127 4.44197 5.25253 5.5 5.25253C6.55803 5.25253 7.41573 4.34127 7.41573 3.21717C7.41573 2.09308 6.55803 1.18182 5.5 1.18182Z" fill="#89929E"/>
<path d="M0.886907 8.82108C1.45478 8.21774 2.22499 7.87879 3.02809 7.87879H7.95954C7.93859 7.89803 7.91804 7.91774 7.89789 7.93789C7.71213 8.12356 7.56474 8.34399 7.46417 8.58662C7.40101 8.73897 7.35709 8.89819 7.33313 9.06061H3.02809C2.52001 9.06061 2.03273 9.27505 1.67346 9.65675C1.31419 10.0385 1.11236 10.5562 1.11236 11.096V12.4091C1.11236 12.7354 0.863349 13 0.55618 13C0.24901 13 0 12.7354 0 12.4091V11.096C0 10.2427 0.31903 9.42441 0.886907 8.82108Z" fill="#89929E"/>
<path fill-rule="evenodd" clip-rule="evenodd" d="M16.143 14.4803C16.1136 14.3181 16.1334 14.1508 16.2 14C16.2634 13.8521 16.3686 13.726 16.5028 13.6372C16.6369 13.5483 16.7941 13.5006 16.955 13.5H17C17.2652 13.5 17.5196 13.3946 17.7071 13.2071C17.8946 13.0196 18 12.7652 18 12.5C18 12.2348 17.8946 11.9804 17.7071 11.7929C17.5196 11.6054 17.2652 11.5 17 11.5H16.915C16.7541 11.4994 16.5969 11.4517 16.4628 11.3628C16.3286 11.274 16.2234 11.1479 16.16 11V10.96C16.0934 10.8092 16.0736 10.6419 16.103 10.4797C16.1324 10.3175 16.2097 10.1678 16.325 10.05L16.355 10.02C16.448 9.92713 16.5217 9.81684 16.5721 9.69544C16.6224 9.57404 16.6483 9.44392 16.6483 9.3125C16.6483 9.18108 16.6224 9.05096 16.5721 8.92956C16.5217 8.80816 16.448 8.69787 16.355 8.605C16.2621 8.51202 16.1518 8.43826 16.0304 8.38794C15.909 8.33762 15.7789 8.31171 15.6475 8.31171C15.5161 8.31171 15.386 8.33762 15.2646 8.38794C15.1432 8.43826 15.0329 8.51202 14.94 8.605L14.91 8.635C14.7922 8.75027 14.6425 8.82759 14.4803 8.857C14.3181 8.88641 14.1508 8.86656 14 8.8C13.8521 8.73662 13.726 8.63138 13.6372 8.49723C13.5483 8.36309 13.5006 8.20589 13.5 8.045V8C13.5 7.73478 13.3946 7.48043 13.2071 7.29289C13.0196 7.10536 12.7652 7 12.5 7C12.2348 7 11.9804 7.10536 11.7929 7.29289C11.6054 7.48043 11.5 7.73478 11.5 8V8.085C11.4994 8.24589 11.4517 8.40309 11.3628 8.53723C11.274 8.67138 11.1479 8.77662 11 8.84H10.96C10.8092 8.90656 10.6419 8.92641 10.4797 8.897C10.3175 8.86759 10.1678 8.79027 10.05 8.675L10.02 8.645C9.92713 8.55202 9.81684 8.47826 9.69544 8.42794C9.57404 8.37762 9.44392 8.35171 9.3125 8.35171C9.18108 8.35171 9.05096 8.37762 8.92956 8.42794C8.80816 8.47826 8.69787 8.55202 8.605 8.645C8.51202 8.73787 8.43826 8.84816 8.38794 8.96956C8.33762 9.09096 8.31171 9.22108 8.31171 9.3525C8.31171 9.48392 8.33762 9.61404 8.38794 9.73544C8.43826 9.85684 8.51202 9.96713 8.605 10.06L8.635 10.09C8.75027 10.2078 8.82759 10.3575 8.857 10.5197C8.88641 10.6819 8.86656 10.8492 8.8 11C8.74286 11.1554 8.6403 11.29 8.50565 11.3863C8.371 11.4826 8.2105 11.5361 8.045 11.54H8C7.73478 11.54 7.48043 11.6454 7.29289 11.8329C7.10536 12.0204 7 12.2748 7 12.54C7 12.8052 7.10536 13.0596 7.29289 13.2471C7.48043 13.4346 7.73478 13.54 8 13.54H8.085C8.24589 13.5406 8.40309 13.5883 8.53723 13.6772C8.67138 13.766 8.77662 13.8921 8.84 14.04C8.90656 14.1908 8.92641 14.3581 8.897 14.5203C8.86759 14.6825 8.79027 14.8322 8.675 14.95L8.645 14.98C8.55202 15.0729 8.47826 15.1832 8.42794 15.3046C8.37762 15.426 8.35171 15.5561 8.35171 15.6875C8.35171 15.8189 8.37762 15.949 8.42794 16.0704C8.47826 16.1918 8.55202 16.3021 8.645 16.395C8.73787 16.488 8.84816 16.5617 8.96956 16.6121C9.09096 16.6624 9.22108 16.6883 9.3525 16.6883C9.48392 16.6883 9.61404 16.6624 9.73544 16.6121C9.85684 16.5617 9.96713 16.488 10.06 16.395L10.09 16.365C10.2078 16.2497 10.3575 16.1724 10.5197 16.143C10.6819 16.1136 10.8492 16.1334 11 16.2C11.1554 16.2571 11.29 16.3597 11.3863 16.4944C11.4826 16.629 11.5361 16.7895 11.54 16.955V17C11.54 17.2652 11.6454 17.5196 11.8329 17.7071C12.0204 17.8946 12.2748 18 12.54 18C12.8052 18 13.0596 17.8946 13.2471 17.7071C13.4346 17.5196 13.54 17.2652 13.54 17V16.915C13.5406 16.7541 13.5883 16.5969 13.6772 16.4628C13.766 16.3286 13.8921 16.2234 14.04 16.16C14.1908 16.0934 14.3581 16.0736 14.5203 16.103C14.6825 16.1324 14.8322 16.2097 14.95 16.325L14.98 16.355C15.0729 16.448 15.1832 16.5217 15.3046 16.5721C15.426 16.6224 15.5561 16.6483 15.6875 16.6483C15.8189 16.6483 15.949 16.6224 16.0704 16.5721C16.1918 16.5217 16.3021 16.448 16.395 16.355C16.488 16.2621 16.5617 16.1518 16.6121 16.0304C16.6624 15.909 16.6883 15.7789 16.6883 15.6475C16.6883 15.5161 16.6624 15.386 16.6121 15.2646C16.5617 15.1432 16.488 15.0329 16.395 14.94L16.365 14.91C16.2497 14.7922 16.1724 14.6425 16.143 14.4803ZM12.5 15C13.8807 15 15 13.8807 15 12.5C15 11.1193 13.8807 10 12.5 10C11.1193 10 10 11.1193 10 12.5C10 13.8807 11.1193 15 12.5 15Z" fill="#89929E"/>
</svg>