<svg width="32" height="32" viewBox="0 0 32 32" fill="none" xmlns="http://www.w3.org/2000/svg">
<path fill-rule="evenodd" clip-rule="evenodd" d="M21.3331 1.43604C22.0129 1.43604 22.5639 1.98707 22.5639 2.6668V8.00014C22.5639 8.67987 22.0129 9.23091 21.3331 9.23091C20.6534 9.23091 20.1024 8.67987 20.1024 8.00014V2.6668C20.1024 1.98707 20.6534 1.43604 21.3331 1.43604Z" fill="white"/>
<path fill-rule="evenodd" clip-rule="evenodd" d="M10.6665 1.43604C11.3462 1.43604 11.8972 1.98707 11.8972 2.6668V8.00014C11.8972 8.67987 11.3462 9.23091 10.6665 9.23091C9.98674 9.23091 9.43571 8.67987 9.43571 8.00014V2.6668C9.43571 1.98707 9.98674 1.43604 10.6665 1.43604Z" fill="white"/>
<path d="M2.76904 8.00004C2.76904 5.84754 4.51398 4.1026 6.66648 4.1026H25.3331C27.4856 4.1026 29.2306 5.84754 29.2306 8.00004V9.43613H2.76904V8.00004Z" fill="white"/>
<path fill-rule="evenodd" clip-rule="evenodd" d="M2.76904 11.8977V26.6667C2.76904 28.8192 4.51399 30.5641 6.66648 30.5641H25.3331C27.4856 30.5641 29.2306 28.8192 29.2306 26.6667V11.8977H2.76904ZM22.2437 16.5055C22.7009 17.0084 22.6638 17.7868 22.1609 18.2441L14.8275 24.9107C14.3581 25.3375 13.6412 25.3375 13.1717 24.9107L9.83838 21.8804C9.33542 21.4232 9.29835 20.6448 9.75559 20.1418C10.2128 19.6389 10.9912 19.6018 11.4942 20.059L13.9996 22.3367L20.5051 16.4227C21.008 15.9654 21.7864 16.0025 22.2437 16.5055Z" fill="white"/>
</svg>