<svg xmlns="http://www.w3.org/2000/svg" width="26" height="19" viewBox="0 0 26 19" fill="none">
<path fill-rule="evenodd" clip-rule="evenodd" d="M24.6951 11.3312C24.894 10.5877 25 9.80623 25 9C25 4.02944 20.9706 0 16 0C13.3313 0 10.9338 1.16156 9.2857 3.00668C9.19102 3.00225 9.09578 3 9 3C5.68629 3 3 5.68629 3 9C3 9.41611 3.04236 9.82233 3.123 10.2146C1.31126 10.7963 0 12.495 0 14.5C0 16.9853 2.01472 19 4.5 19H21.5C23.9853 19 26 16.9853 26 14.5C26 13.2641 25.5017 12.1445 24.6951 11.3312ZM8.97504 10.4999C8.97504 13.3499 11.225 15.5999 14 15.5999C16.775 15.5999 19.1 13.2749 19.1 10.4999C19.1 7.64985 16.775 5.39985 14 5.39985C11.225 5.39985 8.97504 7.72485 8.97504 10.4999ZM17.825 12.6749C17.3 13.5749 16.4 14.2499 15.425 14.6249L14.975 14.7749L15.2 14.3999C15.5 13.7999 15.725 13.1999 15.95 12.5249V12.3749H17.975L17.825 12.6749ZM15.4594 9.91704C15.4791 10.104 15.5 10.3019 15.5 10.4999C15.5 10.7999 15.5 11.1749 15.35 11.5499V11.6999H12.575V11.5499C12.5 11.1749 12.5 10.7999 12.5 10.4999C12.5 10.3019 12.5209 10.104 12.5407 9.91704C12.5583 9.74985 12.575 9.59149 12.575 9.44985V9.29985H15.425V9.44985C15.425 9.59149 15.4418 9.74985 15.4594 9.91704ZM14.15 14.7749L14 14.9999L13.85 14.7749C13.4 14.1749 13.025 13.4249 12.8 12.6749L12.725 12.4499H15.275L15.2 12.6749C14.975 13.4249 14.6 14.0999 14.15 14.7749ZM12.575 14.6249C11.525 14.2499 10.7 13.5749 10.175 12.6749L10.025 12.3749H12.125V12.5249C12.275 13.1999 12.5 13.7999 12.8 14.3999L13.025 14.7749L12.575 14.6249ZM9.57504 10.4999C9.57504 10.1249 9.65004 9.74985 9.72504 9.37485L9.80004 9.22485H11.9V9.44985C11.9 9.59149 11.8833 9.74985 11.8657 9.91704C11.8459 10.104 11.825 10.3019 11.825 10.4999C11.825 10.6278 11.8338 10.7557 11.8423 10.8806C11.8587 11.1219 11.8745 11.3522 11.825 11.5499V11.7749H9.72504V11.6249C9.65004 11.2499 9.57504 10.8749 9.57504 10.4999ZM10.175 8.32485C10.7 7.42485 11.6 6.74985 12.575 6.37485L12.95 6.22485L12.725 6.67485C12.425 7.19985 12.2 7.79985 12.05 8.47485V8.62485H10.025L10.175 8.32485ZM13.85 6.22485L14 5.99985L14.075 6.22485C14.525 6.82485 14.9 7.57485 15.125 8.32485L15.2 8.54985H12.725L12.8 8.32485C13.025 7.57485 13.4 6.89985 13.85 6.22485ZM15.425 6.37485C16.475 6.74985 17.3 7.42485 17.825 8.32485L17.9 8.62485H15.875V8.47485C15.725 7.87485 15.5 7.19985 15.2 6.67485L14.975 6.22485L15.425 6.37485ZM16.1 9.22485H18.2V9.37485L18.2 9.37488C18.275 9.74987 18.35 10.1249 18.35 10.4999C18.35 10.8748 18.275 11.2498 18.2 11.6248L18.2 11.6249V11.7749H16.1V11.5499C16.175 11.0999 16.175 10.7999 16.175 10.4999C16.175 10.1999 16.175 9.82485 16.1 9.44985V9.22485Z" fill="#18A3AC"/>
</svg>