<svg width="40" height="40" viewBox="0 0 40 40" fill="none" xmlns="http://www.w3.org/2000/svg">
<path fill-rule="evenodd" clip-rule="evenodd" d="M9 20C9 19.4477 9.44772 19 10 19H16C16.3344 19 16.6466 19.1671 16.8321 19.4453L18.5352 22H21.4648L23.1679 19.4453C23.3534 19.1671 23.6656 19 24 19H30C30.5523 19 31 19.4477 31 20C31 20.5523 30.5523 21 30 21H24.5352L22.8321 23.5547C22.6466 23.8329 22.3344 24 22 24H18C17.6656 24 17.3534 23.8329 17.1679 23.5547L15.4648 21H10C9.44772 21 9 20.5523 9 20Z" fill="#89929E"/>
<path fill-rule="evenodd" clip-rule="evenodd" d="M15.24 11L24.76 11C25.3181 11.0003 25.8656 11.1563 26.34 11.4504C26.8139 11.7443 27.1965 12.1644 27.4449 12.6637L27.4455 12.665L30.8942 19.5523C30.9638 19.6913 31 19.8446 31 20V26C31 26.7957 30.6839 27.5587 30.1213 28.1213C29.5587 28.6839 28.7957 29 28 29H12C11.2044 29 10.4413 28.6839 9.87868 28.1213C9.31607 27.5587 9 26.7956 9 26V20C9 19.8446 9.03624 19.6913 9.10583 19.5523L12.5545 12.665L12.5552 12.6635C12.8036 12.1644 13.1862 11.7443 13.66 11.4504C14.1344 11.1563 14.6819 11.0003 15.24 11ZM13.45 13.11L14.3442 13.5577L11 20.2364V26C11 26.2652 11.1054 26.5196 11.2929 26.7071C11.4804 26.8946 11.7348 27 12 27H28C28.2652 27 28.5196 26.8946 28.7071 26.7071C28.8946 26.5196 29 26.2652 29 26V20.2364L25.6558 13.5577L25.6545 13.555C25.5717 13.3884 25.4441 13.2482 25.2859 13.1501C25.1279 13.0521 24.9456 13.0001 24.7597 13H15.2403C15.0544 13.0001 14.8721 13.0521 14.7141 13.1501C14.5559 13.2482 14.4283 13.3884 14.3455 13.555L13.45 13.11Z" fill="#89929E"/>
</svg> 