<svg width="22" height="19" viewBox="0 0 22 19" fill="none" xmlns="http://www.w3.org/2000/svg">
<g clip-path="url(#clip0)">
<path d="M7.53225 9.57254C9.82736 9.57254 11.6879 7.64433 11.6879 5.26576C11.6879 2.8872 9.82736 0.958984 7.53225 0.958984C5.23714 0.958984 3.37659 2.8872 3.37659 5.26576C3.37659 7.64433 5.23714 9.57254 7.53225 9.57254Z" fill="#18AC72"/>
<path d="M1.83277 18.1861H13.2317C14.2138 18.1861 15.0125 17.2927 15.0125 16.1942V15.6424C15.0125 14.2031 14.3242 12.8884 13.2171 12.2112C11.8892 11.4003 9.82432 10.4338 7.53225 10.4338C5.2401 10.4338 3.17524 11.4004 1.84742 12.2112C0.74034 12.8883 0.052002 14.2031 0.052002 15.6424V16.1942C0.052002 17.2928 0.850674 18.1861 1.83277 18.1861Z" fill="#18AC72"/>
<path d="M20.9 7.98087H18.7V5.69954C18.7 5.06964 18.208 4.55994 17.6 4.55994C16.992 4.55994 16.5 5.06964 16.5 5.69954V7.98087H14.3C13.692 7.98087 13.2 8.49058 13.2 9.12047C13.2 9.75036 13.692 10.2601 14.3 10.2601H16.5V12.5403C16.5 13.1702 16.992 13.6799 17.6 13.6799C18.208 13.6799 18.7 13.1702 18.7 12.5403V10.26H20.9C21.508 10.26 22 9.75026 22 9.12036C22 8.49058 21.508 7.98087 20.9 7.98087Z" fill="#18AC72"/>
</g>
<defs>
<clipPath id="clip0">
<rect width="22" height="19" fill="white"/>
</clipPath>
</defs>
</svg>