<svg width="33" height="32" viewBox="0 0 33 32" fill="none" xmlns="http://www.w3.org/2000/svg">
<path fill-rule="evenodd" clip-rule="evenodd" d="M3.5 8.00006C3.5 7.44778 3.94772 7.00006 4.5 7.00006H28.5C29.0523 7.00006 29.5 7.44778 29.5 8.00006C29.5 8.55235 29.0523 9.00006 28.5 9.00006H4.5C3.94772 9.00006 3.5 8.55235 3.5 8.00006Z" fill="white"/>
<path fill-rule="evenodd" clip-rule="evenodd" d="M13.8333 3.66675C13.3913 3.66675 12.9673 3.84234 12.6548 4.1549C12.3422 4.46746 12.1666 4.89139 12.1666 5.33341V7.00008H20.8333V5.33341C20.8333 4.89139 20.6577 4.46746 20.3451 4.1549C20.0326 3.84234 19.6087 3.66675 19.1666 3.66675H13.8333ZM22.8333 7.00008V5.33341C22.8333 4.36095 22.447 3.42832 21.7594 2.74069C21.0717 2.05306 20.1391 1.66675 19.1666 1.66675H13.8333C12.8608 1.66675 11.9282 2.05306 11.2406 2.74069C10.5529 3.42832 10.1666 4.36095 10.1666 5.33341V7.00008H7.16663C6.61434 7.00008 6.16663 7.4478 6.16663 8.00008V26.6667C6.16663 27.6392 6.55294 28.5718 7.24057 29.2595C7.9282 29.9471 8.86083 30.3334 9.8333 30.3334H23.1666C24.1391 30.3334 25.0717 29.9471 25.7594 29.2595C26.447 28.5718 26.8333 27.6392 26.8333 26.6667V8.00008C26.8333 7.4478 26.3856 7.00008 25.8333 7.00008H22.8333ZM8.16663 9.00008V26.6667C8.16663 27.1088 8.34222 27.5327 8.65478 27.8453C8.96735 28.1578 9.39127 28.3334 9.8333 28.3334H23.1666C23.6087 28.3334 24.0326 28.1578 24.3451 27.8453C24.6577 27.5327 24.8333 27.1088 24.8333 26.6667V9.00008H8.16663Z" fill="white"/>
<path fill-rule="evenodd" clip-rule="evenodd" d="M13.8334 13.6667C14.3857 13.6667 14.8334 14.1145 14.8334 14.6667V22.6667C14.8334 23.219 14.3857 23.6667 13.8334 23.6667C13.2811 23.6667 12.8334 23.219 12.8334 22.6667V14.6667C12.8334 14.1145 13.2811 13.6667 13.8334 13.6667Z" fill="white"/>
<path fill-rule="evenodd" clip-rule="evenodd" d="M19.1666 13.6667C19.7189 13.6667 20.1666 14.1145 20.1666 14.6667V22.6667C20.1666 23.219 19.7189 23.6667 19.1666 23.6667C18.6143 23.6667 18.1666 23.219 18.1666 22.6667V14.6667C18.1666 14.1145 18.6143 13.6667 19.1666 13.6667Z" fill="white"/>
</svg>