<?xml version="1.0" encoding="utf-8"?>
<!-- Generator: Adobe Illustrator 21.0.0, SVG Export Plug-In . SVG Version: 6.00 Build 0)  -->
<svg version="1.1" id="Слой_1" xmlns="http://www.w3.org/2000/svg" xmlns:xlink="http://www.w3.org/1999/xlink" x="0px" y="0px"
	 viewBox="0 0 11 14" style="enable-background:new 0 0 11 14;" xml:space="preserve">
<style type="text/css">
	.st0{enable-background:new    ;}
</style>
<title>Group 2</title>
<desc>Created with Sketch.</desc>
<g id="Button_x2F_underlined_x5F_hover" transform="translate(-9.000000, -8.000000)">
	<g id="Group" transform="translate(-0.345000, -0.345000)">
		<g id="Group-2" transform="translate(10.000000, 3.000000)">
			<g class="st0">
				<g>
					<path d="M9.3,5.3v8c0,1.3-0.4,2.3-1.3,3c-0.8,0.7-1.9,1-3.3,1c-1.3,0-2.4-0.3-3.2-1c-0.8-0.7-1.2-1.7-1.2-3v-8h1v8
						c0,1,0.3,1.8,1,2.3c0.6,0.5,1.5,0.8,2.5,0.8c1,0,1.9-0.3,2.5-0.8c0.6-0.5,1-1.3,1-2.3v-8H9.3z"/>
				</g>
			</g>
		</g>
	</g>
</g>
<g>
	<rect y="13" width="11" height="1"/>
</g>
</svg>
