<?xml version="1.0" encoding="utf-8"?>
<!-- Generator: Adobe Illustrator 21.0.0, SVG Export Plug-In . SVG Version: 6.00 Build 0)  -->
<svg version="1.1" id="Слой_1" xmlns="http://www.w3.org/2000/svg" xmlns:xlink="http://www.w3.org/1999/xlink" x="0px" y="0px"
	 viewBox="0 0 14 10" style="enable-background:new 0 0 14 10;" xml:space="preserve">
<style type="text/css">
	.st0{fill:#1C334C;}
</style>
<title>Shape</title>
<desc>Created with Sketch.</desc>
<g>
	<path class="st0" d="M3.9,8.1H2.7c-0.2,0-0.4,0.2-0.4,0.4c0,0.2,0.2,0.4,0.4,0.4h1.3c0.2,0,0.4-0.2,0.4-0.4
		C4.4,8.3,4.2,8.1,3.9,8.1z"/>
	<path class="st0" d="M2.7,1.9h1.3c0.2,0,0.4-0.2,0.4-0.4S4.2,1.1,3.9,1.1H2.7c-0.2,0-0.4,0.2-0.4,0.4S2.4,1.9,2.7,1.9z"/>
	<path class="st0" d="M3.4,6.7c0-0.2-0.2-0.4-0.4-0.4H1.2c-0.2,0-0.4,0.2-0.4,0.4s0.2,0.4,0.4,0.4H3C3.2,7.2,3.4,7,3.4,6.7z"/>
	<path class="st0" d="M8.9,0c-2.8,0-5,2.2-5,5c0,2.7,2.2,5,5,5s5-2.2,5-5C13.9,2.3,11.7,0,8.9,0z M8.9,9.1C6.6,9.1,4.7,7.3,4.7,5
		c0-2.3,1.9-4.1,4.2-4.1c2.3,0,4.2,1.9,4.2,4.1C13.1,7.3,11.2,9.1,8.9,9.1z"/>
	<path class="st0" d="M9.3,4.8V1.9c0-0.2-0.2-0.4-0.4-0.4c-0.2,0-0.4,0.2-0.4,0.4V5c0,0.1,0,0.1,0,0.2c0,0,0,0,0,0
		c0,0.1,0.1,0.1,0.1,0.1L10,6.7c0.1,0.1,0.2,0.1,0.3,0.1c0.1,0,0.2,0,0.3-0.1c0.2-0.2,0.2-0.4,0-0.6L9.3,4.8z"/>
	<path class="st0" d="M3.1,5c0-0.2-0.2-0.4-0.4-0.4H0.5C0.3,4.6,0.1,4.8,0.1,5s0.2,0.4,0.4,0.4h2.1C2.9,5.4,3.1,5.2,3.1,5z"/>
	<path class="st0" d="M1.2,3.7H3c0.2,0,0.4-0.2,0.4-0.4C3.4,3,3.2,2.8,3,2.8H1.2C0.9,2.8,0.7,3,0.7,3.3C0.7,3.5,0.9,3.7,1.2,3.7z"/>
</g>
</svg>
