<?xml version="1.0" encoding="UTF-8"?>
<svg width="18px" height="20px" viewBox="0 0 18 20" version="1.1" xmlns="http://www.w3.org/2000/svg" xmlns:xlink="http://www.w3.org/1999/xlink">
    <!-- Generator: Sketch 49.3 (51167) - http://www.bohemiancoding.com/sketch -->
    <title>Shape</title>
    <desc>Created with Sketch.</desc>
    <defs></defs>
    <g id="Symbols" stroke="none" stroke-width="1" fill="none" fill-rule="evenodd">
        <g id="Insert/tab/button" transform="translate(-14.000000, -13.000000)" fill="#FFFFFF" fill-rule="nonzero">
            <g id="touch_app_24px" transform="translate(14.000000, 13.000000)">
                <path d="M5.0625,7.84761905 L5.0625,4.28571429 C5.0625,2.97142857 6.39661765,1.9047619 8.04044118,1.9047619 C9.68426471,1.9047619 11.0183824,2.97142857 11.0183824,4.28571429 L11.0183824,7.84761905 C12.4597059,7.07619048 13.4007353,5.77142857 13.4007353,4.28571429 C13.4007353,1.91428571 11.0064706,0 8.04044118,0 C5.07441176,0 2.68014706,1.91428571 2.68014706,4.28571429 C2.68014706,5.77142857 3.62117647,7.07619048 5.0625,7.84761905 Z M16.7836765,12.2571429 L11.3757353,10.1047619 C11.1732353,10.0380952 10.9588235,10 10.7325,10 L9.82720588,10 L9.82720588,4.28571429 C9.82720588,3.4952381 9.02911765,2.85714286 8.04044118,2.85714286 C7.05176471,2.85714286 6.25367647,3.4952381 6.25367647,4.28571429 L6.25367647,14.5142857 L2.16794118,13.8285714 C2.07264706,13.8190476 1.98926471,13.8 1.88205882,13.8 C1.51279412,13.8 1.17926471,13.9238095 0.941029412,14.1142857 L0,14.8761905 L5.88441176,19.5809524 C6.20602941,19.8380952 6.65867647,20 7.14705882,20 L15.2351471,20 C16.1285294,20 16.8194118,19.4761905 16.9504412,18.7809524 L17.8438235,13.7619048 C17.8557353,13.6952381 17.8676471,13.6285714 17.8676471,13.5714286 C17.8676471,12.9809524 17.415,12.4666667 16.7836765,12.2571429 Z" id="Shape"></path>
            </g>
        </g>
    </g>
</svg>