<?xml version="1.0" encoding="utf-8"?>
<!-- Generator: Adobe Illustrator 21.0.0, SVG Export Plug-In . SVG Version: 6.00 Build 0)  -->
<svg version="1.1" id="Слой_1" xmlns="http://www.w3.org/2000/svg" xmlns:xlink="http://www.w3.org/1999/xlink" x="0px" y="0px"
	 viewBox="0 0 14 14" style="enable-background:new 0 0 14 14;" xml:space="preserve">
<style type="text/css">
	.st0{enable-background:new    ;}
	.st1{fill:#89929E;}
</style>
<title>Group 3</title>
<desc>Created with Sketch.</desc>
<g id="Icon_x2F_tracking" transform="translate(-8.000000, -11.000000)">
	<g id="Group-3" transform="translate(8.000000, 8.000000)">
		<g class="st0">
			<path class="st1" d="M4,4.5H5l2.5,7.2h-1L5.8,9.6H3.1l-0.8,2.2h-1L4,4.5z M5.5,8.8L4.5,5.6L3.3,8.8H5.5z"/>
		</g>
		<g>
		</g>
		<g class="st0">
			<path class="st1" d="M7.3,4.5l2,6.2l2-6.2h1.1l-2.6,7.2h-1L6.3,4.5H7.3z"/>
		</g>
		<g id="Line">
			<rect x="1.2" y="13.3" class="st1" width="11.7" height="1"/>
		</g>
		<g id="Line-2">
			<polygon class="st1" points="0.7,14.5 0,13.8 1.7,12.1 2.3,12.8 			"/>
		</g>
		<g id="Line-2_1_">
			<polygon class="st1" points="12.3,15.5 11.7,14.8 13.3,13.1 14,13.8 			"/>
		</g>
		<g id="Line-2_2_">
			<polygon class="st1" points="1.7,15.5 0,13.8 0.7,13.1 2.3,14.8 			"/>
		</g>
		<g id="Line-2_3_">
			<polygon class="st1" points="13.3,14.5 11.7,12.8 12.3,12.1 14,13.8 			"/>
		</g>
	</g>
</g>
</svg>
