<?xml version="1.0" encoding="utf-8"?>
<!-- Generator: Adobe Illustrator 21.0.0, SVG Export Plug-In . SVG Version: 6.00 Build 0)  -->
<svg version="1.1" id="Слой_1" xmlns="http://www.w3.org/2000/svg" xmlns:xlink="http://www.w3.org/1999/xlink" x="0px" y="0px"
	 viewBox="0 0 16 16" style="enable-background:new 0 0 16 16;" xml:space="preserve">
<style type="text/css">
	.st0{fill:#89929E;}
</style>
<g>
	<polygon class="st0" points="0,0 0,16 1,16 1,15 1,1 15,1 16,1 16,0 	"/>
	<polygon class="st0" points="10,15 9,16 11,16 12,15 15,12 16,11 16,9 15,10 	"/>
	<polygon class="st0" points="14,15 13,16 15,16 16,16 16,15 16,13 15,14 	"/>
	<polygon class="st0" points="2,15 1,16 3,16 4,15 15,4 16,3 16,1 15,2 	"/>
	<polygon class="st0" points="6,15 5,16 7,16 8,15 15,8 16,7 16,5 15,6 	"/>
</g>
</svg>
