<?xml version="1.0" encoding="UTF-8"?>
<svg width="11px" height="9px" viewBox="0 0 11 9" version="1.1" xmlns="http://www.w3.org/2000/svg" xmlns:xlink="http://www.w3.org/1999/xlink">
    <!-- Generator: Sketch 49.3 (51167) - http://www.bohemiancoding.com/sketch -->
    <title>Path</title>
    <desc>Created with Sketch.</desc>
    <defs></defs>
    <g id="Pages-(general-functions)" stroke="none" stroke-width="1" fill="none" fill-rule="evenodd">
        <g id="Pages_structure-ver-1.2" transform="translate(-1155.000000, -620.000000)" fill="#FFFFFF" fill-rule="nonzero">
            <g id="Panel" transform="translate(954.000000, 53.000000)">
                <g id="pop-up" transform="translate(184.000000, 549.000000)">
                    <g id="Rename" transform="translate(0.000000, 10.000000)">
                        <g id="Name">
                            <path d="M20.9042069,16.1208668 C20.7798283,16.2687988 20.6088343,16.3502787 20.4099254,16.3519862 C20.2239639,16.3503388 20.056365,16.2749134 19.9278086,16.1416807 L17.8441301,14.0317491 C17.7163477,13.905722 17.6495156,13.7413737 17.6480132,13.5535615 C17.6495276,13.3783482 17.7112937,13.2175231 17.8551557,13.0578357 C17.9860543,12.9394153 18.1471291,12.8759872 18.3290706,12.8744278 C18.5115925,12.8759749 18.6762586,12.9446315 18.7982784,13.0715268 L20.4127891,14.7063458 L26.2028428,8.83154643 C26.3337662,8.71297685 26.4949551,8.64950378 26.6770323,8.64801384 C26.8594665,8.64963057 27.0240481,8.7182519 27.1433096,8.84231327 C27.2768958,8.97457394 27.3503866,9.1420082 27.3519868,9.33323097 C27.3503761,9.51959228 27.2754239,9.6861187 27.1378472,9.81041713 L20.9042069,16.1208668 Z M20.3843303,15.6469985 C20.3726174,15.6591788 20.3957853,15.6481391 20.4099242,15.6480138 C20.4235225,15.648079 20.4345997,15.6530642 20.4315374,15.6498913 L20.4065056,15.6245443 L20.3843303,15.6469985 Z M26.6420352,9.33654791 C26.6427547,9.33729548 26.6435424,9.33803176 26.6443877,9.33875288 C26.6442686,9.33871608 26.6432566,9.33777487 26.6420352,9.33654791 Z" id="Path"></path>
                        </g>
                    </g>
                </g>
            </g>
        </g>
    </g>
</svg>