<?xml version="1.0" encoding="utf-8"?>
<!-- Generator: Adobe Illustrator 21.0.0, SVG Export Plug-In . SVG Version: 6.00 Build 0)  -->
<svg version="1.1" id="Слой_1" xmlns="http://www.w3.org/2000/svg" xmlns:xlink="http://www.w3.org/1999/xlink" x="0px" y="0px"
	 viewBox="0 0 20 20" style="enable-background:new 0 0 20 20;" xml:space="preserve">
<title>Group</title>
<desc>Created with Sketch.</desc>
<g id="Tab_x2F_link-Copy-1" transform="translate(-14.000000, -10.000000)">
	<g>
		<path d="M33.1,13.2l-2.2-2.2c-1.3-1.3-3.2-1.3-4.5,0l-3,3c-1.1,1.1-1.3,2.9-0.3,4.2l1.5-1.5c-0.2-0.4-0.1-0.8,0.2-1.1l3-3
			c0.4-0.4,1-0.4,1.5,0l2.2,2.2c0.4,0.4,0.4,1,0,1.5l-3,3c-0.2,0.2-0.6,0.3-0.9,0.3l-0.1,0.1L26,21.1c1.3,0.8,2.9,0.7,3.9-0.4l3-3
			C34.3,16.4,34.3,14.4,33.1,13.2z"/>
		<path d="M23.2,24.5l-3,3c-0.4,0.4-1,0.4-1.5,0l-2.2-2.2c-0.4-0.4-0.4-1,0-1.5l3-3c0.3-0.3,0.8-0.4,1.1-0.2l1.5-1.5
			c-1.3-1-3-0.9-4.2,0.3l-3,3c-1.3,1.3-1.3,3.2,0,4.5l2.2,2.2c1.3,1.3,3.2,1.3,4.5,0l3-3c1-1,1.2-2.7,0.4-3.9l-1.6,1.6
			C23.5,23.9,23.4,24.3,23.2,24.5z"/>
		<path d="M27.1,17.1c-0.4-0.4-1-0.4-1.4-0.1l-4.5,4.5c-0.4,0.4-0.4,1,0.1,1.4c0.4,0.4,1,0.4,1.4,0.1l4.5-4.5
			C27.5,18.1,27.5,17.6,27.1,17.1z"/>
	</g>
</g>
<g>
	<rect x="9" y="-3.5" transform="matrix(0.7071 -0.7071 0.7071 0.7071 -4.0775 9.9758)" width="2" height="26.8"/>
</g>
</svg>
