<?xml version="1.0" encoding="utf-8"?>
<!-- Generator: Adobe Illustrator 21.0.0, SVG Export Plug-In . SVG Version: 6.00 Build 0)  -->
<svg version="1.1" id="Слой_1" xmlns="http://www.w3.org/2000/svg" xmlns:xlink="http://www.w3.org/1999/xlink" x="0px" y="0px"
	 viewBox="0 0 16 16" style="enable-background:new 0 0 16 16;" xml:space="preserve">
<style type="text/css">
	.st0{fill:#6B3434;}
</style>
<title>Group 2</title>
<desc>Created with Sketch.</desc>
<g>
	<path class="st0" d="M15.6,3.6l-2.1-2.4C13,0.6,12,0.5,11.3,1.1L1.7,9.4l0,0c-0.2,0.2-0.3,0.4-0.4,0.7L0,15.3l3.2-0.5l2-0.4
		c0.2,0,0.4-0.1,0.6-0.3l0,0l9.6-8.4C16.1,5.2,16.2,4.2,15.6,3.6z M5.1,12.9c0,0.1-0.1,0.1-0.2,0.2L3,13.5l-0.3,0.1L2,12.8l0.6-2.3
		c0-0.1,0.1-0.2,0.2-0.2l0.1,0L5.1,12.9L5.1,12.9z M14.6,4.8l-8.4,7.3L3.9,9.3l8.3-7.2c0.1-0.1,0.2-0.1,0.3,0l2.1,2.4
		C14.7,4.6,14.7,4.7,14.6,4.8z"/>
</g>
</svg>
