<?xml version="1.0" encoding="utf-8"?>
<!-- Generator: Adobe Illustrator 21.0.0, SVG Export Plug-In . SVG Version: 6.00 Build 0)  -->
<svg version="1.1" id="Capa_1" xmlns="http://www.w3.org/2000/svg" xmlns:xlink="http://www.w3.org/1999/xlink" x="0px" y="0px"
	 viewBox="0 0 24.7 24.7" style="enable-background:new 0 0 24.7 24.7;" xml:space="preserve">
<g>
	<path d="M23.1,18.6c-0.4,0.6-1,1-1.7,1c-0.3,0-0.7-0.1-1-0.3l-6-3.5v6.9c0,1.1-0.9,2-2,2s-2-0.9-2-2v-6.9l-6,3.5
		c-0.3,0.2-0.7,0.3-1,0.3c-0.7,0-1.4-0.4-1.7-1c-0.6-1-0.2-2.2,0.7-2.7l6-3.5l-6-3.5c-1-0.6-1.3-1.8-0.7-2.7s1.8-1.3,2.7-0.7l6,3.5
		V2c0-1.1,0.9-2,2-2s2,0.9,2,2v6.9l6-3.5c1-0.6,2.2-0.2,2.7,0.7c0.6,1,0.2,2.2-0.7,2.7l-6,3.5l6,3.5C23.3,16.4,23.6,17.6,23.1,18.6z
		"/>
</g>
</svg>
