<?xml version="1.0" encoding="utf-8"?>
<!-- Generator: Adobe Illustrator 21.0.0, SVG Export Plug-In . SVG Version: 6.00 Build 0)  -->
<svg version="1.1" id="Слой_1" xmlns="http://www.w3.org/2000/svg" xmlns:xlink="http://www.w3.org/1999/xlink" x="0px" y="0px"
	 viewBox="0 0 19 17" style="enable-background:new 0 0 19 17;" xml:space="preserve">
<style type="text/css">
	.st0{fill:#FFFFFF;}
</style>
<title>Group 2</title>
<desc>Created with Sketch.</desc>
<g id="Tab_x2F_change_x5F_normal2" transform="translate(-13.000000, -15.000000)">
	<g id="Group-2" transform="translate(14.000000, 16.000000)">
		<g id="Oval-5">
			<path class="st0" d="M9,15.8c-3.5,0-6.6-2.2-7.7-5.5c-0.1-0.4,0.1-0.8,0.5-1c0.4-0.1,0.8,0.1,1,0.5c0.9,2.7,3.5,4.5,6.3,4.5
				c2.7,0,5.2-1.8,6.2-4.4c0.1-0.4,0.6-0.6,1-0.4c0.4,0.1,0.6,0.6,0.4,1C15.4,13.6,12.4,15.8,9,15.8z M16,5.8
				c-0.3,0-0.6-0.2-0.7-0.5C14.4,2.6,11.8,0.8,9,0.8c-2.8,0-5.4,1.8-6.3,4.5c-0.1,0.4-0.6,0.6-1,0.5c-0.4-0.1-0.6-0.6-0.5-1
				C2.4,1.5,5.5-0.8,9-0.8c3.5,0,6.6,2.2,7.7,5.6c0.1,0.4-0.1,0.8-0.5,0.9C16.2,5.8,16.1,5.8,16,5.8z"/>
		</g>
		<g id="Line">
			<rect x="0.6" y="1" transform="matrix(0.9363 -0.3511 0.3511 0.9363 -1.0298 0.664)" class="st0" width="1.5" height="4.3"/>
		</g>
		<g id="Line_1_">
			<rect x="15.8" y="9.8" transform="matrix(0.9363 -0.3511 0.3511 0.9363 -3.1445 6.5712)" class="st0" width="1.5" height="4.3"/>
		</g>
		<g id="Line_2_">
			
				<rect x="1.9" y="4.2" transform="matrix(0.9977 -6.770724e-02 6.770724e-02 0.9977 -0.3236 0.2765)" class="st0" width="4" height="1.5"/>
		</g>
		<g id="Line_3_">
			<rect x="12" y="9.7" transform="matrix(0.9881 -0.1536 0.1536 0.9881 -1.439 2.2764)" class="st0" width="4" height="1.5"/>
		</g>
	</g>
</g>
</svg>
