<?xml version="1.0" encoding="utf-8"?>
<!-- Generator: Adobe Illustrator 21.0.0, SVG Export Plug-In . SVG Version: 6.00 Build 0)  -->
<svg version="1.1" id="Слой_1" xmlns="http://www.w3.org/2000/svg" xmlns:xlink="http://www.w3.org/1999/xlink" x="0px" y="0px"
	 viewBox="0 0 16 16" style="enable-background:new 0 0 16 16;" xml:space="preserve">
<title>Group</title>
<desc>Created with Sketch.</desc>
<g>
	<path d="M14,8.4l-0.3-0.3l0,0l0,0L7,1.5L5.9,0.4L4,1.2l1.6,1.6L0,8.3l7,7l4.1-4.1L14,8.4z M10.6,7.8H3.3l3.6-3.6L10.6,7.8z"/>
	<path d="M14.4,10.9l-0.4-0.4l-0.3,0.4c-1.1,1.1-1.6,2-1.6,2.7c0,1.2,0.7,1.9,1.9,1.9c1.2,0,1.9-0.7,1.9-1.9
		C16,12.9,15.5,12,14.4,10.9z"/>
</g>
</svg>
