<?xml version="1.0" encoding="UTF-8"?>
<svg width="14px" height="16px" viewBox="0 0 14 16" version="1.1" xmlns="http://www.w3.org/2000/svg" xmlns:xlink="http://www.w3.org/1999/xlink">
    <!-- Generator: Sketch 48.1 (47250) - http://www.bohemiancoding.com/sketch -->
    <title>Group 3</title>
    <desc>Created with Sketch.</desc>
    <defs></defs>
    <g id="Button/bulletsnumbers_active" stroke="none" stroke-width="1" fill="none" fill-rule="evenodd" transform="translate(-13.000000, -11.000000)">
        <g id="Group-3" transform="translate(13.000000, 11.000000)" fill="#89929E">
            <polygon id="Line-2" fill-rule="nonzero" points="5 3 5 2 14 2 14 3"></polygon>
            <polygon id="Line-2" fill-rule="nonzero" points="5 9 5 8 14 8 14 9"></polygon>
            <polygon id="Line-2" fill-rule="nonzero" points="5 15 5 14 14 14 14 15"></polygon>
            <polygon id="1" points="1.81743308 4 0.892244338 4 0.892244338 0.933424846 0 0.933424846 0 0.280027454 1.81743308 0"></polygon>
            <path d="M2.82512135,10 L0.0654734181,10 L0.0654734181,9.4041977 L1.33290741,8.0717671 C1.49359428,7.8876091 1.61185083,7.72331374 1.68768059,7.5788761 C1.76351036,7.43443846 1.80142467,7.30896014 1.80142467,7.20243737 C1.80142467,7.05077785 1.763059,6.92981313 1.6863265,6.83953961 C1.609594,6.74926608 1.49449698,6.70412999 1.34103198,6.70412999 C1.20381622,6.70412999 1.09594097,6.76235555 1.01740301,6.8788084 C0.938865036,6.99526125 0.899596641,7.14375897 0.899596641,7.32430603 L0.00589318786,7.32430603 L0.000476803292,7.30805687 C-0.00855054945,6.94335182 0.110608719,6.63416963 0.357958184,6.38050102 C0.60530765,6.1268324 0.932995639,6 1.34103198,6 C1.77434491,6 2.1124142,6.10652116 2.35524999,6.31956669 C2.59808578,6.53261221 2.71950185,6.82419133 2.71950185,7.1943128 C2.71950185,7.44346773 2.65495725,7.66373183 2.52586611,7.85511171 C2.39677496,8.04649159 2.15890779,8.33084894 1.81225744,8.70819228 L1.27874356,9.27962085 L1.28686814,9.29587001 L2.82512135,9.29587001 L2.82512135,10 Z" id="2"></path>
            <path d="M0.91630903,13.623498 L1.34087512,13.623498 C1.5028697,13.623498 1.62747904,13.5798847 1.71470689,13.4926569 C1.80193474,13.405429 1.84554802,13.2843799 1.84554802,13.129506 C1.84554802,13.006675 1.80638508,12.9034272 1.72805803,12.8197597 C1.64973098,12.7360921 1.53580243,12.694259 1.38626898,12.694259 C1.2687784,12.694259 1.16553066,12.7280815 1.07652265,12.7957276 C0.987514637,12.8633737 0.9430113,12.9506003 0.9430113,13.0574099 L0.0671768536,13.0574099 L0.0618363996,13.0413885 C0.0511554384,12.7316406 0.173094584,12.4806418 0.427657494,12.2883845 C0.682220405,12.0961272 0.991073569,12 1.35422625,12 C1.77612422,12 2.11345952,12.0965722 2.36624227,12.2897196 C2.61902502,12.482867 2.7454145,12.7565625 2.7454145,13.1108144 C2.7454145,13.2870503 2.6906754,13.4494875 2.58119555,13.5981308 C2.47171569,13.7467742 2.32529971,13.8629279 2.14194321,13.9465955 C2.35022195,14.0231423 2.51310417,14.1392961 2.63059474,14.2950601 C2.74808532,14.4508241 2.80682972,14.6372931 2.80682972,14.8544726 C2.80682972,15.2105047 2.67064951,15.4904307 2.398285,15.694259 C2.12592049,15.8980874 1.77790438,16 1.35422625,16 C0.989293409,16 0.670204477,15.9043178 0.396949884,15.7129506 C0.123695291,15.5215834 -0.00847962172,15.2443276 0.000421179347,14.8811749 L0.00576163329,14.8651535 L0.886936533,14.8651535 C0.886936533,14.9897648 0.935445171,15.0943476 1.0324639,15.1789052 C1.12948263,15.2634628 1.24741648,15.305741 1.38626898,15.305741 C1.54470324,15.305741 1.67109271,15.2612377 1.76544121,15.1722296 C1.8597897,15.0832216 1.90696324,14.9710732 1.90696324,14.835781 C1.90696324,14.6470841 1.85756453,14.5095687 1.75876564,14.423231 C1.65996675,14.3368932 1.5206713,14.293725 1.34087512,14.293725 L0.91630903,14.293725 L0.91630903,13.623498 Z" id="3"></path>
        </g>
    </g>
</svg>