<?xml version="1.0" encoding="UTF-8"?>
<svg width="20px" height="2px" viewBox="0 0 20 2" version="1.1" xmlns="http://www.w3.org/2000/svg" xmlns:xlink="http://www.w3.org/1999/xlink">
    <!-- Generator: Sketch 48.1 (47250) - http://www.bohemiancoding.com/sketch -->
    <title>Line 6 Copy 3</title>
    <desc>Created with Sketch.</desc>
    <defs></defs>
    <g id="Text_panel/border" stroke="none" stroke-width="1" fill="none" fill-rule="evenodd" transform="translate(-320.000000, -330.000000)">
        <g id="Text_editor/fill_color-Copy" transform="translate(181.000000, 210.000000)" fill="#979797" fill-rule="nonzero">
            <g id="Border-Style">
                <g id="Group-8" transform="translate(8.000000, 114.000000)">
                    <g id="Group-Copy-3" transform="translate(126.500000, 0.000000)">
                        <path d="M5,7.25 C4.86192881,7.25 4.75,7.13807119 4.75,7 C4.75,6.86192881 4.86192881,6.75 5,6.75 L6,6.75 C6.13807119,6.75 6.25,6.86192881 6.25,7 C6.25,7.13807119 6.13807119,7.25 6,7.25 L5,7.25 Z M7,7.25 C6.86192881,7.25 6.75,7.13807119 6.75,7 C6.75,6.86192881 6.86192881,6.75 7,6.75 L8,6.75 C8.13807119,6.75 8.25,6.86192881 8.25,7 C8.25,7.13807119 8.13807119,7.25 8,7.25 L7,7.25 Z M9,7.25 C8.86192881,7.25 8.75,7.13807119 8.75,7 C8.75,6.86192881 8.86192881,6.75 9,6.75 L10,6.75 C10.1380712,6.75 10.25,6.86192881 10.25,7 C10.25,7.13807119 10.1380712,7.25 10,7.25 L9,7.25 Z M11,7.25 C10.8619288,7.25 10.75,7.13807119 10.75,7 C10.75,6.86192881 10.8619288,6.75 11,6.75 L12,6.75 C12.1380712,6.75 12.25,6.86192881 12.25,7 C12.25,7.13807119 12.1380712,7.25 12,7.25 L11,7.25 Z M13,7.25 C12.8619288,7.25 12.75,7.13807119 12.75,7 C12.75,6.86192881 12.8619288,6.75 13,6.75 L14,6.75 C14.1380712,6.75 14.25,6.86192881 14.25,7 C14.25,7.13807119 14.1380712,7.25 14,7.25 L13,7.25 Z M15,7.25 C14.8619288,7.25 14.75,7.13807119 14.75,7 C14.75,6.86192881 14.8619288,6.75 15,6.75 L16,6.75 C16.1380712,6.75 16.25,6.86192881 16.25,7 C16.25,7.13807119 16.1380712,7.25 16,7.25 L15,7.25 Z M17,7.25 C16.8619288,7.25 16.75,7.13807119 16.75,7 C16.75,6.86192881 16.8619288,6.75 17,6.75 L18,6.75 C18.1380712,6.75 18.25,6.86192881 18.25,7 C18.25,7.13807119 18.1380712,7.25 18,7.25 L17,7.25 Z M19,7.25 C18.8619288,7.25 18.75,7.13807119 18.75,7 C18.75,6.86192881 18.8619288,6.75 19,6.75 L20,6.75 C20.1380712,6.75 20.25,6.86192881 20.25,7 C20.25,7.13807119 20.1380712,7.25 20,7.25 L19,7.25 Z M21,7.25 C20.8619288,7.25 20.75,7.13807119 20.75,7 C20.75,6.86192881 20.8619288,6.75 21,6.75 L22,6.75 C22.1380712,6.75 22.25,6.86192881 22.25,7 C22.25,7.13807119 22.1380712,7.25 22,7.25 L21,7.25 Z M23,7.25 C22.8619288,7.25 22.75,7.13807119 22.75,7 C22.75,6.86192881 22.8619288,6.75 23,6.75 L24,6.75 C24.1380712,6.75 24.25,6.86192881 24.25,7 C24.25,7.13807119 24.1380712,7.25 24,7.25 L23,7.25 Z" id="Line-6-Copy-3"></path>
                    </g>
                </g>
            </g>
        </g>
    </g>
</svg>