<?xml version="1.0" encoding="UTF-8"?>
<svg width="14px" height="11px" viewBox="0 0 14 11" version="1.1" xmlns="http://www.w3.org/2000/svg" xmlns:xlink="http://www.w3.org/1999/xlink">
    <!-- Generator: Sketch 48.1 (47250) - http://www.bohemiancoding.com/sketch -->
    <title>Desktop Copy</title>
    <desc>Created with Sketch.</desc>
    <defs></defs>
    <g id="Icon/bullet_distance" stroke="none" stroke-width="1" fill="none" fill-rule="evenodd" transform="translate(-8.000000, -10.000000)">
        <g id="Desktop-Copy" transform="translate(8.000000, 10.000000)" fill="#89929E">
            <g id="Group-2">
                <circle id="Oval" fill-rule="nonzero" cx="1.09090909" cy="1.09090909" r="1.09090909"></circle>
                <circle id="Oval" fill-rule="nonzero" cx="1.09090909" cy="9.81818182" r="1.09090909"></circle>
                <circle id="Oval" fill-rule="nonzero" cx="1.09090909" cy="5.45454545" r="1.09090909"></circle>
                <polygon id="Line-4" fill-rule="nonzero" points="4.3787447 5.81048868 3.67163792 5.1033819 5.52866385 3.24635597 6.23577063 3.95346275"></polygon>
                <polygon id="Line-4" fill-rule="nonzero" points="3.67576087 5.10397964 4.38286765 4.39687286 6.23989358 6.25389879 5.5327868 6.96100557"></polygon>
                <polygon id="Path-12" fill-rule="nonzero" points="4.71077781 5.59090909 4.71077781 4.59090909 8.38169146 4.59090909 8.38169146 5.59090909"></polygon>
                <path d="M12.6894531,1.10742188 L12.6894531,2.66015625 L13.7558594,2.66015625 L13.7558594,3.86132812 L12.6894531,3.86132812 L12.6894531,7.08984375 C12.6894531,7.33593873 12.7402339,7.51171822 12.8417969,7.6171875 C12.9433599,7.72265678 13.0800773,7.77539062 13.2519531,7.77539062 C13.3417973,7.77539062 13.418945,7.77050786 13.4833984,7.76074219 C13.5478519,7.75097651 13.6230464,7.73437512 13.7089844,7.7109375 L13.8554688,8.94726562 C13.6835929,9.00585967 13.5156258,9.04980454 13.3515625,9.07910156 C13.1874992,9.10839858 13.0097666,9.12304688 12.8183594,9.12304688 C12.2285127,9.12304688 11.7744157,8.96093912 11.4560547,8.63671875 C11.1376937,8.31249838 10.9785156,7.79883164 10.9785156,7.09570312 L10.9785156,3.86132812 L10.0527344,3.86132812 L10.0527344,2.66015625 L10.9785156,2.66015625 L10.9785156,1.10742188 L12.6894531,1.10742188 Z" id="t"></path>
            </g>
        </g>
    </g>
</svg>