<?xml version="1.0" encoding="utf-8"?>
<!-- Generator: Adobe Illustrator 21.1.0, SVG Export Plug-In . SVG Version: 6.00 Build 0)  -->
<svg version="1.1" id="Слой_1" xmlns="http://www.w3.org/2000/svg" xmlns:xlink="http://www.w3.org/1999/xlink" x="0px" y="0px"
	 width="100px" height="100px" viewBox="0 0 100 100" style="enable-background:new 0 0 100 100;" xml:space="preserve">
<style type="text/css">
	.st0{fill:#35424B;}
</style>
<path class="st0" d="M94.6,6.8H5.4c-1.2,0-2.2-1-2.2-2.2s1-2.2,2.2-2.2h89.2c1.2,0,2.2,1,2.2,2.2S95.8,6.8,94.6,6.8L94.6,6.8z
	 M94.6,29.5c1.2,0,2.2-1,2.2-2.2c0-1.2-1-2.2-2.2-2.2H25.2c-1.2,0-2.2,1-2.2,2.2c0,1.2,1,2.2,2.2,2.2H94.6L94.6,29.5z M94.6,52.2
	c1.2,0,2.2-1,2.2-2.2s-1-2.2-2.2-2.2H5.4c-1.2,0-2.2,1-2.2,2.2s1,2.2,2.2,2.2H94.6L94.6,52.2z M94.6,74.8c1.2,0,2.2-1,2.2-2.2
	c0-1.2-1-2.2-2.2-2.2H18.7c-1.2,0-2.2,1-2.2,2.2c0,1.2,1,2.2,2.2,2.2H94.6L94.6,74.8z M94.6,97.5c1.2,0,2.2-1,2.2-2.2
	c0-1.2-1-2.2-2.2-2.2H57.6c-1.2,0-2.2,1-2.2,2.2c0,1.2,1,2.2,2.2,2.2H94.6L94.6,97.5z"/>
</svg>
