<?xml version="1.0" encoding="utf-8"?>
<!-- Generator: Adobe Illustrator 21.0.0, SVG Export Plug-In . SVG Version: 6.00 Build 0)  -->
<svg version="1.1" id="Слой_1" xmlns="http://www.w3.org/2000/svg" xmlns:xlink="http://www.w3.org/1999/xlink" x="0px" y="0px"
	 viewBox="0 0 100 100" style="enable-background:new 0 0 100 100;" xml:space="preserve">
<g>
	<path d="M91.8,76.2l-6.4-6.4c-0.9-0.9-2.3-0.9-3.1,0c-0.8,0.9-0.9,2.3,0,3.1l2.5,2.5H15.2l2.5-2.5c0.9-0.9,0.9-2.3,0-3.1
		c-0.8-0.8-2.3-0.8-3.1,0l-6.4,6.4c-0.4,0.4-0.6,0.8-0.6,1.3l-0.1,0.2L7.6,78c0,0.5,0.3,1.1,0.6,1.4l6.4,6.4c0.8,0.8,2.3,0.8,3.1,0
		c0.4-0.4,0.6-1,0.6-1.6c0-0.6-0.3-1.2-0.6-1.6l-2.5-2.5h69.6l-2.5,2.5c-0.9,0.9-0.9,2.3,0,3.1c0.4,0.4,1,0.6,1.6,0.6
		s1.2-0.3,1.6-0.6l6.4-6.4c0.2-0.2,0.4-0.4,0.4-0.7c0.1-0.2,0.2-0.4,0.2-0.7c0-0.1,0-0.1,0-0.2C92.5,77.2,92.2,76.7,91.8,76.2z"/>
	<path d="M28.8,60.6c0.4,0.9,1.3,1.5,2.1,1.5s1.7-0.5,2.1-1.5l19.5-43.1c0.6-1.3,0.2-3-1-3.7c-0.5-0.4-1.2-0.4-1.8-0.3
		s-1.3,0.7-1.5,1.4L30.9,53.4L13.7,15c-0.4-0.9-1.3-1.4-2.1-1.4c-0.4,0-0.8,0.1-1.2,0.4c-1.2,0.7-1.6,2.3-1,3.7L28.8,60.6z"/>
	<path d="M48.5,61.8c0.5,0.4,1.2,0.4,1.8,0.3c0.7-0.2,1.3-0.7,1.5-1.3L58,47h22.2l6.2,13.8c0.3,0.7,0.9,1.2,1.5,1.4
		c0.2,0.1,0.4,0.1,0.6,0.1c0.4,0,0.8-0.1,1.2-0.4c1.2-0.7,1.6-2.3,1-3.7L71.2,15c-0.4-0.9-1.3-1.5-2.1-1.5S67.4,14,66.9,15
		L47.5,58.1C46.9,59.5,47.3,61.1,48.5,61.8z M60.5,41.4l8.6-19.1l8.7,19.1H60.5z"/>
</g>
</svg>
