<?xml version="1.0" encoding="UTF-8"?>
<svg width="10px" height="18px" viewBox="0 0 10 18" version="1.1" xmlns="http://www.w3.org/2000/svg" xmlns:xlink="http://www.w3.org/1999/xlink">
    <!-- Generator: Sketch 48.1 (47250) - http://www.bohemiancoding.com/sketch -->
    <title>Group</title>
    <desc>Created with Sketch.</desc>
    <defs></defs>
    <g id="Icon/crop_free" stroke="none" stroke-width="1" fill="none" fill-rule="evenodd" transform="translate(-11.000000, -6.000000)">
        <g id="scissors" transform="translate(11.000000, 7.000000)" fill="#89929E" fill-rule="nonzero">
            <g id="Group">
                <rect id="Rectangle-path-Copy" stroke="#89929E" stroke-width="0.5" x="8.37813462" y="5.19999981" width="1" height="3"></rect>
                <rect id="Rectangle-path" stroke="#89929E" stroke-width="0.5" x="8.37813462" y="12.3301333" width="1" height="1.04568889"></rect>
                <rect id="Rectangle-path" stroke="#89929E" stroke-width="0.5" x="8.37813462" y="9.70542222" width="1" height="1.04568889"></rect>
                <rect id="Rectangle-path" stroke="#89929E" stroke-width="0.5" x="8.37813462" y="0" width="1" height="1.04586667"></rect>
                <rect id="Rectangle-path" stroke="#89929E" stroke-width="0.5" x="8.37813462" y="2.47000027" width="1" height="1.04586667"></rect>
                <rect id="Rectangle-path" stroke="#89929E" stroke-width="0.5" x="8.37813462" y="14.9543111" width="1" height="1.04568889"></rect>
                <path d="M8.37813462,5.31484444 L8.88732692,5.31484444 L8.88732692,8.13688889 L8.37813462,8.13688889 L8.37813462,7.544 C7.81753846,7.95075556 6.62175,8.76533333 5.67380769,9.11733333 L5.67380769,10.1804444 C6.11982692,10.1118222 6.45248077,10.3029333 6.76194231,10.6200889 C7.05703846,10.9232 7.21765385,11.5205333 7.22890385,12.1068444 C7.23980769,12.6849778 7.074,13.2392889 6.81369231,13.5696 C6.64078846,13.7895111 6.12190385,14.0231111 5.84446154,14.0231111 C5.50488462,14.0231111 5.16911538,13.8721778 4.87557692,13.5706667 C4.09223077,12.7672889 4.49826923,11.2382222 4.65646154,10.2892444 C4.71080769,9.9648 4.75459615,9.63111111 4.78990385,9.29368889 C4.52319231,9.49368889 4.26340385,9.69973333 4.01676923,9.90986667 C3.29555769,10.5258667 2.20967308,11.6506667 1.14023077,11.3559111 C0.739730769,11.2453333 0.444288462,11.0220444 0.274846154,10.72 C0.105230769,10.4184889 0.0647307692,10.0440889 0.172038462,9.63164444 C0.279865385,9.22133333 0.704942308,8.80995556 1.19838462,8.53048889 C1.69788462,8.24746667 2.28184615,8.09137778 2.68511538,8.20231111 C3.10742308,8.31911111 3.43488462,8.51928889 3.59982692,8.95075556 L4.49619231,8.41902222 C4.31463462,7.37546667 4.41225,5.85777778 4.47490385,5.1776 C4.57390385,4.10826667 4.62963462,2.08053333 5.67398077,1.51448889 L5.67380769,7.72053333 L8.37796154,6.1168 L8.37796154,5.31484444 L8.37813462,5.31484444 Z M4.96401923,8.59164444 C4.91123077,8.68533333 4.94255769,8.80515556 5.03376923,8.85937778 C5.12515385,8.9136 5.24180769,8.88142222 5.29459615,8.78755556 C5.34721154,8.69386667 5.31588462,8.57404444 5.22467308,8.51982222 C5.13328846,8.46577778 5.01663462,8.49777778 4.96401923,8.59164444 Z M2.84486538,9.25671111 C2.78290385,9.14666667 2.65898077,9.06151111 2.47275,9.01351111 C2.23148077,8.95164444 1.82025,9.13795556 1.61082692,9.25351111 C1.29011538,9.4304 1.00990385,9.6624 0.961788462,9.84977778 C0.864346154,10.2298667 0.982557692,10.4421333 1.35294231,10.5445333 C1.54298077,10.5973333 1.89969231,10.4803556 2.22646154,10.2976 C2.54319231,10.1212444 3.105,9.71768889 2.84486538,9.25671111 Z M5.79323077,11.0049778 C5.26984615,11.0042667 5.21376923,11.7184 5.22467308,12.0894222 C5.23575,12.4663111 5.31536538,12.8350222 5.45313462,12.9761778 C5.72278846,13.2526222 5.96059615,13.2554667 6.23198077,12.9792 C6.40298077,12.8051556 6.41976923,12.3331556 6.41267308,12.1013333 C6.40159615,11.7283556 6.32786538,11.3591111 6.18888462,11.2195556 C6.08451923,11.1143111 5.94675,11.0051556 5.79323077,11.0049778 Z" id="Shape"></path>
            </g>
        </g>
    </g>
</svg>