<?xml version="1.0" encoding="utf-8"?>
<!-- Generator: Adobe Illustrator 21.0.0, SVG Export Plug-In . SVG Version: 6.00 Build 0)  -->
<svg version="1.1" id="Слой_1" xmlns="http://www.w3.org/2000/svg" xmlns:xlink="http://www.w3.org/1999/xlink" x="0px" y="0px"
	 viewBox="0 0 16 16" style="enable-background:new 0 0 16 16;" xml:space="preserve">
<style type="text/css">
	.st0{fill:#3A1C1C;}
</style>
<title>Group 2</title>
<desc>Created with Sketch.</desc>
<g>
	<path class="st0" d="M16,0H3v5H0v11h11v-3h5V0z M10,15H1V6h2v7h7V15z M15,12H4V1h11V12z"/>
	<polygon class="st0" points="13,10 13,3 6,3 	"/>
	<path class="st0" d="M8.9,7.1C8.7,6.9,8.5,6.8,8.3,6.7c-0.3-0.1-0.7-0.1-1,0.1C7.1,6.8,7,6.9,6.8,7.1c0,0-0.1,0.1-0.1,0.2
		C6.3,7.7,6.3,8.3,6.6,8.8C6.7,9,6.7,9.1,6.8,9.2C7,9.3,7.1,9.4,7.3,9.5c0.5,0.2,1.2,0.1,1.6-0.3c0.6-0.6,0.6-1.4,0.1-2
		C9,7.1,9,7.1,8.9,7.1z"/>
</g>
</svg>
