<?xml version="1.0" encoding="utf-8"?>
<!-- Generator: Adobe Illustrator 21.0.0, SVG Export Plug-In . SVG Version: 6.00 Build 0)  -->
<svg version="1.1" id="Слой_1" xmlns="http://www.w3.org/2000/svg" xmlns:xlink="http://www.w3.org/1999/xlink" x="0px" y="0px"
	 viewBox="0 0 20 20" style="enable-background:new 0 0 20 20;" xml:space="preserve">
<style type="text/css">
	.st0{fill:#89929E;}
</style>
<title>Group</title>
<desc>Created with Sketch.</desc>
<g>
	<polygon class="st0" points="4,6 2,6 2,16 2,18 4,18 14,18 14,16 4,16 	"/>
	<polygon class="st0" points="20,16 18,16 18,4 18,2 16,2 4,2 4,0 2,0 2,2 0,2 0,4 16,4 16,20 18,20 18,18 20,18 	"/>
	<path class="st0" d="M9,7.5C9,6.7,8.3,6,7.5,6S6,6.7,6,7.5S6.7,9,7.5,9S9,8.3,9,7.5z M7,7.5C7,7.2,7.2,7,7.5,7S8,7.2,8,7.5
		S7.8,8,7.5,8S7,7.8,7,7.5z"/>
	<polygon class="st0" points="6,15 8.9,15 7.5,12.6 	"/>
	<polygon class="st0" points="8.9,15 14,15 11.8,9 	"/>
</g>
</svg>
