<?xml version="1.0" encoding="UTF-8"?>
<svg width="6px" height="17px" viewBox="0 0 6 17" version="1.1" xmlns="http://www.w3.org/2000/svg" xmlns:xlink="http://www.w3.org/1999/xlink">
    <!-- Generator: Sketch 49.3 (51167) - http://www.bohemiancoding.com/sketch -->
    <title>scroll</title>
    <desc>Created with Sketch.</desc>
    <defs></defs>
    <g id="Symbols" stroke="none" stroke-width="1" fill="none" fill-rule="evenodd">
        <g id="Button/scroll" transform="translate(-12.000000, -7.000000)" fill="#89929E" fill-rule="nonzero">
            <g id="scroll" transform="translate(12.000000, 7.000000)">
                <path d="M2.9056,7.87504688 C2.608,6.79895747 1.5748,6 0.3334,6 C-0.9076,6 -1.9414,6.79895747 -2.2388,7.87504688 L-5,7.87504688 L-5,9.12514063 L-2.2388,9.12514063 C-1.9414,10.201605 -0.9076,11 0.3334,11 C1.5748,11 2.6088,10.201605 2.9062,9.12514063 L11,9.12514063 L11,7.87504688 L2.9056,7.87504688 Z M0.3334,9.75009375 C-0.4024,9.75009375 -1,9.19039226 -1,8.5 C-1,7.80998275 -0.4024,7.25009375 0.3334,7.25009375 C1.0704,7.25009375 1.6666,7.80998275 1.6666,8.5 C1.6666,9.19039226 1.0704,9.75009375 0.3334,9.75009375 Z" id="Shape" transform="translate(3.000000, 8.500000) rotate(90.000000) translate(-3.000000, -8.500000) "></path>
            </g>
        </g>
    </g>
</svg>