<?xml version="1.0" encoding="utf-8"?>
<!-- Generator: Adobe Illustrator 21.0.0, SVG Export Plug-In . SVG Version: 6.00 Build 0)  -->
<svg version="1.1" id="Layer_1" xmlns="http://www.w3.org/2000/svg" xmlns:xlink="http://www.w3.org/1999/xlink" x="0px" y="0px"
	 viewBox="0 0 100 100" style="enable-background:new 0 0 100 100;" xml:space="preserve">
<g>
	<path d="M85.4,14.6c-19.5-19.5-51.2-19.5-70.7,0c-19.5,19.5-19.5,51.2,0,70.7c9.4,9.4,22,14.6,35.4,14.6s25.9-5.2,35.4-14.6
		C104.9,65.9,104.9,34.1,85.4,14.6z M50,5.8c10.8,0,21.1,3.9,29.2,11L16.7,79.2c-15.4-17.5-14.6-43.9,2-60.5
		C27.1,10.4,38.2,5.8,50,5.8z M81.3,81.3c-16.6,16.6-43,17.4-60.5,2l62.5-62.5C98.7,38.3,97.9,64.7,81.3,81.3z"/>
	<path d="M25.6,34.2H32v6.4c0,1.6,1.3,2.9,2.9,2.9s2.9-1.3,2.9-2.9v-6.4h6.6c1.6,0,2.9-1.3,2.9-2.9c0-1.6-1.3-2.9-2.9-2.9h-6.6v-6.7
		c0-1.6-1.3-2.9-2.9-2.9S32,20.1,32,21.7v6.7h-6.4c-1.6,0-2.9,1.3-2.9,2.9C22.7,32.9,24,34.2,25.6,34.2z"/>
	<path d="M74.5,64.1H55.7c-1.6,0-2.9,1.3-2.9,2.9s1.3,2.9,2.9,2.9h18.9c1.6,0,2.9-1.3,2.9-2.9S76.1,64.1,74.5,64.1z"/>
</g>
</svg>
