<?xml version="1.0" encoding="UTF-8"?>
<svg width="15px" height="11px" viewBox="0 0 15 11" version="1.1" xmlns="http://www.w3.org/2000/svg" xmlns:xlink="http://www.w3.org/1999/xlink">
    <!-- Generator: Sketch 48.1 (47250) - http://www.bohemiancoding.com/sketch -->
    <title>Group 2</title>
    <desc>Created with Sketch.</desc>
    <defs></defs>
    <g id="Icon/bullet_padding" stroke="none" stroke-width="1" fill="none" fill-rule="evenodd" transform="translate(-7.000000, -10.000000)">
        <g id="Desktop-Copy" transform="translate(7.000000, 10.000000)" fill="#89929E">
            <g id="Group-2">
                <circle id="Oval" fill-rule="nonzero" cx="8.09090909" cy="1.09090909" r="1.09090909"></circle>
                <circle id="Oval" fill-rule="nonzero" cx="8.09090909" cy="9.81818182" r="1.09090909"></circle>
                <circle id="Oval" fill-rule="nonzero" cx="8.09090909" cy="5.45454545" r="1.09090909"></circle>
                <polygon id="Line-4" fill-rule="nonzero" points="1.01510833 6.17412504 0.308001553 5.46701826 2.16502748 3.60999233 2.87213426 4.31709911"></polygon>
                <polygon id="Line-4" fill-rule="nonzero" points="0.312124507 5.46761601 1.01923129 4.76050923 2.87625722 6.61753516 2.16915044 7.32464194"></polygon>
                <polygon id="Path-12" fill-rule="nonzero" points="1.34714145 5.95454545 1.34714145 4.95454545 5.0180551 4.95454545 5.0180551 5.95454545"></polygon>
                <path d="M13.6894531,1.10742188 L13.6894531,2.66015625 L14.7558594,2.66015625 L14.7558594,3.86132812 L13.6894531,3.86132812 L13.6894531,7.08984375 C13.6894531,7.33593873 13.7402339,7.51171822 13.8417969,7.6171875 C13.9433599,7.72265678 14.0800773,7.77539062 14.2519531,7.77539062 C14.3417973,7.77539062 14.418945,7.77050786 14.4833984,7.76074219 C14.5478519,7.75097651 14.6230464,7.73437512 14.7089844,7.7109375 L14.8554688,8.94726562 C14.6835929,9.00585967 14.5156258,9.04980454 14.3515625,9.07910156 C14.1874992,9.10839858 14.0097666,9.12304688 13.8183594,9.12304688 C13.2285127,9.12304688 12.7744157,8.96093912 12.4560547,8.63671875 C12.1376937,8.31249838 11.9785156,7.79883164 11.9785156,7.09570312 L11.9785156,3.86132812 L11.0527344,3.86132812 L11.0527344,2.66015625 L11.9785156,2.66015625 L11.9785156,1.10742188 L13.6894531,1.10742188 Z" id="t"></path>
            </g>
        </g>
    </g>
</svg>