<?xml version="1.0" encoding="utf-8"?>
<!-- Generator: Adobe Illustrator 21.0.0, SVG Export Plug-In . SVG Version: 6.00 Build 0)  -->
<svg version="1.1" id="Слой_1" xmlns="http://www.w3.org/2000/svg" xmlns:xlink="http://www.w3.org/1999/xlink" x="0px" y="0px"
	 viewBox="0 0 27 23" style="enable-background:new 0 0 27 23;" xml:space="preserve">
<style type="text/css">
	.st0{fill:#89929E;enable-background:new    ;}
</style>
<title>Group</title>
<desc>Created with Sketch.</desc>
<path class="st0" d="M14.5,20.6h1.4V23h-2.4v-1.4h1V20.6z M8.7,22.2h2.4v-0.8H8.7V22.2z M4,7.9h2.4V7.1H4V7.9z M0.8,11.9H0v2.4h0.8
	V11.9z M14.3,18.2h0.8v-2h-0.8V18.2z M1.4,20.6H0V23h2.4v-1.4h-1V20.6z M4,22.2h2.4v-0.8H4V22.2z M0.8,15.9H0v2.4h0.8V15.9z M0,9.5
	h1.4v-1h1V7.1H0V9.5z M11.1,6.3C9.8,6.3,8.7,5.3,8.7,4c0-1.3,1.1-2.4,2.4-2.4c1.3,0,2.4,1.1,2.4,2.4C13.5,5.3,12.4,6.3,11.1,6.3z
	 M12.3,4c0-0.7-0.5-1.2-1.2-1.2c-0.7,0-1.2,0.5-1.2,1.2c0,0.7,0.5,1.2,1.2,1.2C11.8,5.2,12.3,4.6,12.3,4z M24.8,15.9l1.9,1.9
	l-2.4,2.5l-1.9-1.9l-2.2,2.3l-1.1-4.3h-4v-0.4h-0.8v0.4H7.1V0h15.7v12.4l4.2,1.2L24.8,15.9z M8.3,13.4l3-5.5l1.5,2.7l3.6-6.5
	l4.3,7.7l0.8,0.2V1.2H8.3V13.4z M19.2,11.4l-2.7-4.8l-3.6,6.5l-1.5-2.7l-2.6,4.7h10l-1-4L19.2,11.4z M23.1,15.9l1.6-1.6l-5.3-1.5
	l1.4,5.5l1.6-1.6l1.9,1.9l0.7-0.8L23.1,15.9z M14.3,15.9v0.4h0.8v-0.4H14.3z"/>
</svg>
