<?xml version="1.0" encoding="utf-8"?>
<!-- Generator: Adobe Illustrator 21.0.0, SVG Export Plug-In . SVG Version: 6.00 Build 0)  -->
<svg version="1.1" id="Слой_1" xmlns="http://www.w3.org/2000/svg" xmlns:xlink="http://www.w3.org/1999/xlink" x="0px" y="0px"
	 viewBox="0 0 16 16" style="enable-background:new 0 0 16 16;" xml:space="preserve">
<title>Group 3</title>
<desc>Created with Sketch.</desc>
<g>
	<rect x="0.5" y="0.5" width="1" height="1"/>
	<rect x="0.5" y="2.5" width="1" height="1"/>
	<rect x="0.5" y="4.5" width="1" height="1"/>
	<rect x="0.5" y="6.5" width="1" height="1"/>
	<rect x="0.5" y="8.5" width="1" height="1"/>
	<rect x="10.5" y="2.5" width="1" height="1"/>
	<rect x="2.5" y="0.5" width="1" height="1"/>
	<rect x="4.5" y="0.5" width="1" height="1"/>
	<rect x="6.5" y="0.5" width="1" height="1"/>
	<rect x="8.5" y="0.5" width="1" height="1"/>
	<rect x="10.5" y="0.5" width="1" height="1"/>
	<rect x="0.5" y="10.5" width="1" height="1"/>
	<rect x="2.5" y="10.5" width="1" height="1"/>
	<polygon points="11.5,5.5 11.5,4.5 10.5,4.5 10.5,5.5 5.5,5.5 5.5,10.5 4.5,10.5 4.5,11.5 5.5,11.5 5.5,16 16,16 16,5.5 	"/>
</g>
</svg>
