<?xml version="1.0" encoding="utf-8"?>
<!-- Generator: Adobe Illustrator 21.0.0, SVG Export Plug-In . SVG Version: 6.00 Build 0)  -->
<svg version="1.1" id="Слой_1" xmlns="http://www.w3.org/2000/svg" xmlns:xlink="http://www.w3.org/1999/xlink" x="0px" y="0px"
	 viewBox="0 0 20 20" style="enable-background:new 0 0 20 20;" xml:space="preserve">
<style type="text/css">
	.st0{fill:#89929E;}
</style>
<title>Oval</title>
<desc>Created with Sketch.</desc>
<g id="Insert_x5F_panel_x2F_sections">
	<g id="shape_x5F_editor_x2F_-S1" transform="translate(-368.000000, -259.000000)">
		<g id="Group-2-_x2B_-Group-2-Copy-2-Mask-Copy" transform="translate(174.000000, 121.000000)">
			<g id="Group-2" transform="translate(0.000000, 30.000000)">
				<g id="Oval">
					<path class="st0" d="M204,128c-5.5,0-10-4.5-10-10c0-5.5,4.5-10,10-10c5.5,0,10,4.5,10,10C214,123.5,209.5,128,204,128z
						 M204,109c-5,0-9,4-9,9c0,5,4,9,9,9c5,0,9-4,9-9C213,113,209,109,204,109z"/>
				</g>
			</g>
		</g>
	</g>
</g>
</svg>
