<?xml version="1.0" encoding="UTF-8"?>
<svg width="16px" height="13px" viewBox="0 0 16 13" version="1.1" xmlns="http://www.w3.org/2000/svg" xmlns:xlink="http://www.w3.org/1999/xlink">
    <!-- Generator: Sketch 48.1 (47250) - http://www.bohemiancoding.com/sketch -->
    <title>right-2</title>
    <desc>Created with Sketch.</desc>
    <defs></defs>
    <g id="Button/alignR_normal" stroke="none" stroke-width="1" fill="none" fill-rule="evenodd" transform="translate(-12.000000, -13.000000)">
        <g id="R" fill="#89929E">
            <path d="M12,26 L28,26 L28,25 L12,25 L12,26 Z M15,23 L25,23 L25,22 L15,22 L15,23 Z M12,20 L28,20 L28,19 L12,19 L12,20 Z M15,17 L25,17 L25,16 L15,16 L15,17 Z M12,13 L12,14 L28,14 L28,13 L12,13 Z" id="right-2" transform="translate(20.000000, 19.500000) scale(-1, 1) translate(-20.000000, -19.500000) "></path>
        </g>
    </g>
</svg>