<?xml version="1.0" encoding="utf-8"?>
<!-- Generator: Adobe Illustrator 21.0.0, SVG Export Plug-In . SVG Version: 6.00 Build 0)  -->
<svg version="1.1" id="Слой_1" xmlns="http://www.w3.org/2000/svg" xmlns:xlink="http://www.w3.org/1999/xlink" x="0px" y="0px"
	 viewBox="0 0 20 17" style="enable-background:new 0 0 20 17;" xml:space="preserve">
<style type="text/css">
	.st0{fill:#FFFFFF;}
	.st1{opacity:0;}
</style>
<title>Group</title>
<desc>Created with Sketch.</desc>
<g id="Tab_x2F_image_x5F_normal" transform="translate(-13.000000, -14.000000)">
	<g id="Group" transform="translate(13.000000, 13.000000)">
		<g id="Rectangle-11">
			<path class="st0" d="M19.8,17.1H0.2V2h19.7V17.1z M1.7,15.6h16.7V3.5H1.7V15.6z"/>
		</g>
		<g id="Oval">
			<circle class="st0" cx="5" cy="6.8" r="1.4"/>
		</g>
		<g id="Triangle">
			<polygon class="st0" points="5.9,10.9 10,15.5 1.8,15.5 			"/>
			<path class="st0" d="M10,16H1.8c-0.2,0-0.4-0.1-0.5-0.3c-0.1-0.2,0-0.4,0.1-0.5l4.1-4.5c0.2-0.2,0.6-0.2,0.7,0l4.1,4.5
				c0.1,0.1,0.2,0.4,0.1,0.5C10.4,15.8,10.2,16,10,16z M2.9,15h5.9l-3-3.3L2.9,15z"/>
		</g>
		<g id="Triangle_1_">
			<polygon class="st0" points="13.2,9.1 19.1,15.5 7.3,15.5 			"/>
			<path class="st0" d="M19.1,16H7.3c-0.2,0-0.4-0.1-0.5-0.3c-0.1-0.2,0-0.4,0.1-0.5l5.9-6.4c0.2-0.2,0.5-0.2,0.7,0l5.9,6.4
				c0.1,0.1,0.2,0.4,0.1,0.5C19.5,15.8,19.3,16,19.1,16z M8.4,15h9.5l-4.8-5.1L8.4,15z"/>
		</g>
		<g id="Rectangle-6-Copy-9" class="st1">
			<path class="st0" d="M19.2,19.1H0.5V0.5h18.6V19.1z M1.5,18.1h16.6V1.5H1.5V18.1z"/>
		</g>
	</g>
</g>
</svg>
