<?xml version="1.0" encoding="utf-8"?>
<!-- Generator: Adobe Illustrator 21.0.0, SVG Export Plug-In . SVG Version: 6.00 Build 0)  -->
<svg version="1.1" id="Слой_1" xmlns="http://www.w3.org/2000/svg" xmlns:xlink="http://www.w3.org/1999/xlink" x="0px" y="0px"
	 viewBox="0 0 100 100" style="enable-background:new 0 0 100 100;" xml:space="preserve">
<path d="M47.5,25.4L3.7,69.1c-1.5,1.5-1.5,3.8,0,5.3c0.7,0.7,1.6,1.1,2.6,1.1s1.9-0.4,2.6-1.1l41.2-41.1l41.1,41.1
	c0.7,0.7,1.6,1.1,2.6,1.1s1.9-0.4,2.6-1.1c0.7-0.7,1.1-1.6,1.1-2.6s-0.4-1.9-1.1-2.6L52.6,25.4c-0.7-0.7-1.6-1.1-2.6-1.1
	C49.1,24.3,48.2,24.7,47.5,25.4z"/>
</svg>
