<?xml version="1.0" encoding="UTF-8"?>
<svg width="17px" height="11px" viewBox="0 0 17 11" version="1.1" xmlns="http://www.w3.org/2000/svg" xmlns:xlink="http://www.w3.org/1999/xlink">
    <!-- Generator: Sketch 48.1 (47250) - http://www.bohemiancoding.com/sketch -->
    <title>Group 2 Copy</title>
    <desc>Created with Sketch.</desc>
    <defs></defs>
    <g id="Button/filter_normal" stroke="none" stroke-width="1" fill="none" fill-rule="evenodd" transform="translate(-7.000000, -10.000000)">
        <g id="Group" transform="translate(6.000000, 7.000000)" fill="#89929E" fill-rule="nonzero">
            <g id="Group-2-Copy" transform="translate(0.842105, 3.000000)">
                <polygon id="Line" points="0.157894737 1 0.157894737 0 17.1578947 0 17.1578947 1"></polygon>
                <polygon id="Line-Copy" points="2.15789474 6 2.15789474 5 3.15789474 5 3.15789474 6"></polygon>
                <polygon id="Line-Copy" points="0.157894737 6 0.157894737 5 1.15789474 5 1.15789474 6"></polygon>
                <polygon id="Line-Copy" points="0.157894737 11 0.157894737 10 2.15789474 10 2.15789474 11"></polygon>
                <polygon id="Line-Copy" points="3.15789474 11 3.15789474 10 5.15789474 10 5.15789474 11"></polygon>
                <polygon id="Line-Copy" points="9.15789474 11 9.15789474 10 11.1578947 10 11.1578947 11"></polygon>
                <polygon id="Line-Copy" points="12.1578947 11 12.1578947 10 14.1578947 10 14.1578947 11"></polygon>
                <polygon id="Line-Copy" points="6.15789474 11 6.15789474 10 8.15789474 10 8.15789474 11"></polygon>
                <polygon id="Line-Copy" points="15.1578947 11 15.1578947 10 17.1578947 10 17.1578947 11"></polygon>
                <polygon id="Line-Copy" points="4.15789474 6 4.15789474 5 5.15789474 5 5.15789474 6"></polygon>
                <polygon id="Line-Copy" points="6.15789474 6 6.15789474 5 7.15789474 5 7.15789474 6"></polygon>
                <polygon id="Line-Copy" points="8.15789474 6 8.15789474 5 9.15789474 5 9.15789474 6"></polygon>
                <polygon id="Line-Copy" points="10.1578947 6 10.1578947 5 11.1578947 5 11.1578947 6"></polygon>
                <polygon id="Line-Copy" points="12.1578947 6 12.1578947 5 13.1578947 5 13.1578947 6"></polygon>
                <polygon id="Line-Copy" points="14.1578947 6 14.1578947 5 15.1578947 5 15.1578947 6"></polygon>
                <polygon id="Line-Copy" points="16.1578947 6 16.1578947 5 17.1578947 5 17.1578947 6"></polygon>
            </g>
        </g>
    </g>
</svg>