<?xml version="1.0" encoding="UTF-8"?>
<svg width="15px" height="10px" viewBox="0 0 15 10" version="1.1" xmlns="http://www.w3.org/2000/svg" xmlns:xlink="http://www.w3.org/1999/xlink">
    <!-- Generator: Sketch 48.1 (47250) - http://www.bohemiancoding.com/sketch -->
    <title>Group</title>
    <desc>Created with Sketch.</desc>
    <defs></defs>
    <g id="Icon/padding_normal" stroke="none" stroke-width="1" fill="none" fill-rule="evenodd" transform="translate(-7.000000, -10.000000)">
        <g id="Group" transform="translate(7.000000, 9.000000)" fill="#89929E" fill-rule="nonzero">
            <polygon id="Line-7" points="4 2 4 1 15 1 15 2"></polygon>
            <polygon id="Line-7" points="4 11 4 10 15 10 15 11"></polygon>
            <polygon id="Line-7" points="8 8 8 7 15 7 15 8"></polygon>
            <polygon id="Line-7" points="8 5 8 4 15 4 15 5"></polygon>
            <polygon id="Line" points="0.62605768 6.5409554 0.62605768 5.5409554 4.53758703 5.5409554 4.53758703 6.5409554"></polygon>
            <polygon id="Line-2" points="2.79289322 4.5 3.5 3.79289322 5.78824561 6.08113883 5.08113883 6.78824561"></polygon>
            <polygon id="Line-2" points="3.56300888 8.31175012 2.8559021 7.60464333 4.56300888 5.89753655 5.27011567 6.60464333"></polygon>
        </g>
    </g>
</svg>