<?xml version="1.0" encoding="UTF-8"?>
<svg width="11px" height="12px" viewBox="0 0 11 12" version="1.1" xmlns="http://www.w3.org/2000/svg" xmlns:xlink="http://www.w3.org/1999/xlink">
    <!-- Generator: Sketch 51.3 (57544) - http://www.bohemiancoding.com/sketch -->
    <title>anchor</title>
    <desc>Created with Sketch.</desc>
    <defs></defs>
    <g id="Symbols" stroke="none" stroke-width="1" fill="none" fill-rule="evenodd">
        <g id="Button-Text/list_active" transform="translate(-226.000000, -8.000000)" fill="#FFFFFF" fill-rule="nonzero" stroke="#FFFFFF" stroke-width="0.5">
            <g id="Editbox/ic/anchor_active" transform="translate(226.000000, 9.000000)">
                <g id="anchor">
                    <g id="Group" transform="translate(0.528000, 0.092308)">
                        <g transform="translate(0.000000, -0.000000)" id="Shape">
                            <path d="M9.1375872,8.62295858 C8.1854976,9.51546746 6.681408,10.1336095 5.303616,10.1944438 L5.303616,3.26627219 L6.186816,3.26627219 L6.186816,2.85798817 L5.303616,2.85798817 L5.303616,2.02059763 C5.8074816,1.92628402 6.186816,1.51432544 6.186816,1.02071006 C6.186816,0.457278107 5.6926656,0 5.082816,0 C4.473408,0 3.978816,0.457278107 3.978816,1.02071006 C3.978816,1.51432544 4.3581504,1.92628402 4.862016,2.02059763 L4.862016,2.85798817 L3.978816,2.85798817 L3.978816,3.26627219 L4.862016,3.26627219 L4.862016,10.1944438 C3.4837824,10.1340178 1.9796928,9.51587574 1.0276032,8.62336686 L1.5606144,8.3106213 L0,7.55529586 L0.072864,9.18230769 L0.646944,8.84588166 C1.7235648,9.89313018 3.5076288,10.6149763 5.082816,10.6149763 C6.6584448,10.6149763 8.441184,9.89272189 9.5182464,8.84588166 L10.092768,9.18230769 L10.165632,7.55529586 L8.6050176,8.3106213 L9.1375872,8.62295858 Z M4.420416,1.02071006 C4.420416,0.683059172 4.7176128,0.408284024 5.082816,0.408284024 C5.4480192,0.408284024 5.745216,0.683059172 5.745216,1.02071006 C5.745216,1.35836095 5.4480192,1.63313609 5.082816,1.63313609 C4.7176128,1.63313609 4.420416,1.35836095 4.420416,1.02071006 Z"></path>
                        </g>
                    </g>
                </g>
            </g>
        </g>
    </g>
</svg>