<?xml version="1.0" encoding="utf-8"?>
<!-- Generator: Adobe Illustrator 21.0.0, SVG Export Plug-In . SVG Version: 6.00 Build 0)  -->
<svg version="1.1" id="Слой_1" xmlns="http://www.w3.org/2000/svg" xmlns:xlink="http://www.w3.org/1999/xlink" x="0px" y="0px"
	 viewBox="0 0 24 20" style="enable-background:new 0 0 24 20;" xml:space="preserve">
<style type="text/css">
	.st0{fill:#89929E;}
</style>
<title>Group</title>
<desc>Created with Sketch.</desc>
<g>
	<polygon class="st0" points="4,6 2,6 2,16 2,17 2,18 18,18 18,16 4,16 	"/>
	<polygon class="st0" points="24,16 22,16 22,4 22,2 4,2 4,0 2,0 2,2 0,2 0,4 2,4 4,4 20,4 20,16 20,18 20,20 22,20 22,18 24,18 	
		"/>
	<path class="st0" d="M11,7.5C11,6.7,10.3,6,9.5,6S8,6.7,8,7.5S8.7,9,9.5,9S11,8.3,11,7.5z M9,7.5C9,7.2,9.2,7,9.5,7S10,7.2,10,7.5
		S9.8,8,9.5,8S9,7.8,9,7.5z"/>
	<polygon class="st0" points="10.9,15 9.5,12.6 8,15 	"/>
	<polygon class="st0" points="13.8,9 10.9,15 16,15 	"/>
</g>
</svg>
