<?xml version="1.0" encoding="utf-8"?>
<!-- Generator: Adobe Illustrator 21.0.0, SVG Export Plug-In . SVG Version: 6.00 Build 0)  -->
<svg version="1.1" id="Слой_1" xmlns="http://www.w3.org/2000/svg" xmlns:xlink="http://www.w3.org/1999/xlink" x="0px" y="0px"
	 viewBox="0 0 15 20" style="enable-background:new 0 0 15 20;" xml:space="preserve">
<style type="text/css">
	.st0{fill:#89929E;}
</style>
<title>scissors</title>
<desc>Created with Sketch.</desc>
<g>
	<rect x="13" y="15" class="st0" width="2" height="2"/>
	<rect x="13" y="12" class="st0" width="2" height="2"/>
	<rect x="13" y="3" class="st0" width="2" height="2"/>
	<rect x="13" class="st0" width="2" height="2"/>
	<path class="st0" d="M13,7.8L13,7.8L8.9,9.9l0-9.9C7.2,0.9,7.1,4.1,7,5.9C6.9,6.9,6.7,9.4,7,11l-1.4,0.9c-0.3-0.7-0.8-1-1.5-1.2
		c-0.6-0.2-1.6,0.1-2.4,0.5c-0.8,0.4-1.5,1.1-1.6,1.8c-0.2,0.7-0.1,1.3,0.2,1.7c0.3,0.5,0.7,0.8,1.4,1c1.7,0.5,3.4-1.3,4.6-2.3
		c0.4-0.3,0.8-0.7,1.2-1C7.4,13,7.3,13.5,7.2,14c-0.3,1.5-0.9,4,0.3,5.2c0.5,0.5,1,0.7,1.5,0.7c0.4,0,1.3-0.4,1.5-0.7
		c0.4-0.5,0.7-1.4,0.7-2.3c0-0.9-0.3-1.9-0.7-2.4c-0.5-0.5-1-0.8-1.7-0.7v-1.7c1.5-0.6,3.2-1.5,4.1-2.2l0.1,0v1h2V9V8V7.8V6h-2V7.8z
		 M3.4,14c-0.5,0.3-1.1,0.5-1.4,0.4c-0.6-0.2-0.8-0.5-0.6-1.1c0.1-0.3,0.5-0.7,1-1c0.3-0.2,1-0.5,1.4-0.4c0.3,0.1,0.5,0.2,0.6,0.4
		C4.8,13.1,3.9,13.8,3.4,14z M7.9,11.7c-0.1-0.1-0.2-0.3-0.1-0.4c0.1-0.2,0.3-0.2,0.4-0.1c0.1,0.1,0.2,0.3,0.1,0.4
		C8.2,11.8,8,11.8,7.9,11.7z M9.1,15.2c0.2,0,0.5,0.2,0.6,0.3c0.2,0.2,0.3,0.8,0.4,1.4c0,0.4,0,1.1-0.3,1.4c-0.4,0.4-0.8,0.4-1.2,0
		c-0.2-0.2-0.3-0.8-0.4-1.4C8.1,16.3,8.2,15.2,9.1,15.2z"/>
	<rect x="13" y="18" class="st0" width="2" height="2"/>
</g>
</svg>
