<?xml version="1.0" encoding="utf-8"?>
<!-- Generator: Adobe Illustrator 21.0.0, SVG Export Plug-In . SVG Version: 6.00 Build 0)  -->
<svg version="1.1" id="Слой_1" xmlns="http://www.w3.org/2000/svg" xmlns:xlink="http://www.w3.org/1999/xlink" x="0px" y="0px"
	 viewBox="0 0 13 14" style="enable-background:new 0 0 13 14;" xml:space="preserve">
<style type="text/css">
	.st0{fill:#879BFF;}
</style>
<title>Group</title>
<desc>Created with Sketch.</desc>
<g id="Symbols">
	<g id="Button_x2F_trash_x5F_whitebg" transform="translate(-7.000000, -6.000000)">
		<g>
			<path class="st0" d="M8.1,18.2c0,1,0.8,1.8,1.8,1.8h7.1c1,0,1.8-0.8,1.8-1.8V9.3H8.1V18.2z M9,10.1H18v8c0,0.5-0.4,0.9-0.9,0.9
				H9.9c-0.5,0-0.9-0.4-0.9-0.9V10.1z"/>
			<path class="st0" d="M16.2,7.7V6h-5.4v1.8H7v0.9h3.8h5.4H20V7.7H16.2z M11.7,6.9h3.6v0.9h-3.6V6.9z"/>
			<rect x="11.1" y="12.8" class="st0" width="1.2" height="4.4"/>
			<rect x="14.7" y="12.8" class="st0" width="1.2" height="4.4"/>
		</g>
	</g>
</g>
</svg>
