<?xml version="1.0" encoding="UTF-8"?>
<svg width="20px" height="16px" viewBox="0 0 20 16" version="1.1" xmlns="http://www.w3.org/2000/svg" xmlns:xlink="http://www.w3.org/1999/xlink">
    <!-- Generator: Sketch 48.1 (47250) - http://www.bohemiancoding.com/sketch -->
    <title>Group 2</title>
    <desc>Created with Sketch.</desc>
    <defs></defs>
    <g id="Button/margin_normal" stroke="none" stroke-width="1" fill="none" fill-rule="evenodd" transform="translate(-5.000000, -7.000000)">
        <g id="Group-2" transform="translate(5.000000, 7.000000)" fill="#89929E">
            <rect id="Rectangle-37" x="3" y="3" width="1" height="3"></rect>
            <rect id="Rectangle-37" x="16" y="3" width="1" height="3"></rect>
            <rect id="Rectangle-37" transform="translate(4.500000, 3.500000) rotate(90.000000) translate(-4.500000, -3.500000) " x="4" y="2" width="1" height="3"></rect>
            <rect id="Rectangle-37" transform="translate(4.500000, 12.500000) rotate(90.000000) translate(-4.500000, -12.500000) " x="4" y="11" width="1" height="3"></rect>
            <rect id="Rectangle-37" x="3" y="10" width="1" height="3"></rect>
            <rect id="Rectangle-37" x="16" y="10" width="1" height="3"></rect>
            <rect id="Rectangle-37" transform="translate(15.500000, 12.500000) rotate(90.000000) translate(-15.500000, -12.500000) " x="15" y="11" width="1" height="3"></rect>
            <rect id="Rectangle-37" transform="translate(15.500000, 3.500000) rotate(90.000000) translate(-15.500000, -3.500000) " x="15" y="2" width="1" height="3"></rect>
            <path d="M1,1 L1,15 L19,15 L19,1 L1,1 Z M0,0 L20,0 L20,16 L0,16 L0,0 Z" id="Rectangle-38" fill-rule="nonzero"></path>
        </g>
    </g>
</svg>