<?xml version="1.0" encoding="utf-8"?>
<!-- Generator: Adobe Illustrator 21.0.0, SVG Export Plug-In . SVG Version: 6.00 Build 0)  -->
<svg version="1.1" id="Слой_1" xmlns="http://www.w3.org/2000/svg" xmlns:xlink="http://www.w3.org/1999/xlink" x="0px" y="0px"
	 viewBox="0 0 14 14" style="enable-background:new 0 0 14 14;" xml:space="preserve">
<style type="text/css">
	.st0{fill:#89929E;}
</style>
<title>Polygon</title>
<desc>Created with Sketch.</desc>
<g>
	<path class="st0" d="M14,8.1V5.9l-2-0.4c-0.1-0.3-0.2-0.6-0.3-0.8l1.1-1.7l-1.6-1.6L9.4,2.4C9.1,2.2,8.9,2.1,8.6,2L8.1,0H5.9L5.4,2
		C5.2,2.1,5,2.2,4.7,2.3l0,0l-1.9-1L1.2,2.9l1,1.9l0,0C2.2,4.9,2.1,5.1,2.1,5.2h0L0,5.9v2.3l2,0.6h0C2.2,9,2.3,9.2,2.4,9.4l-1.1,1.7
		l1.6,1.6l1.7-1.1c0.3,0.1,0.6,0.3,0.9,0.4l0.4,2h2.3l0.4-2c0.3-0.1,0.6-0.2,0.8-0.3l1.7,1.1l1.6-1.6l-1.1-1.7
		c0.1-0.3,0.2-0.5,0.3-0.8L14,8.1z M10.5,7c0,1.9-1.6,3.5-3.5,3.5S3.5,8.9,3.5,7S5.1,3.5,7,3.5S10.5,5.1,10.5,7z"/>
	<circle class="st0" cx="7" cy="7" r="1.8"/>
</g>
</svg>
