<?xml version="1.0" encoding="UTF-8"?>
<svg width="16px" height="15px" viewBox="0 0 16 15" version="1.1" xmlns="http://www.w3.org/2000/svg" xmlns:xlink="http://www.w3.org/1999/xlink">
    <!-- Generator: Sketch 48.1 (47250) - http://www.bohemiancoding.com/sketch -->
    <title>Link+</title>
    <desc>Created with Sketch.</desc>
    <defs></defs>
    <g id="Button/new-page_normal" stroke="none" stroke-width="1" fill="none" fill-rule="evenodd" transform="translate(-4.000000, -4.000000)">
        <g id="Link+" transform="translate(4.000000, 4.000000)" fill="#787B7F" fill-rule="nonzero">
            <path d="M2.00888889,1.77777778 C1.88124975,1.77777778 1.77777778,1.88124975 1.77777778,2.00888889 L1.77777778,12.96 C1.77777778,13.0876391 1.88124975,13.1911111 2.00888889,13.1911111 L13.7422222,13.1911111 C13.8698614,13.1911111 13.9733333,13.0876391 13.9733333,12.96 L13.9733333,2.00888889 C13.9733333,1.88124975 13.8698614,1.77777778 13.7422222,1.77777778 L2.00888889,1.77777778 Z M2.00888889,0.444444444 L13.7422222,0.444444444 C14.606241,0.444444444 15.3066667,1.14487008 15.3066667,2.00888889 L15.3066667,12.96 C15.3066667,13.8240188 14.606241,14.5244444 13.7422222,14.5244444 L2.00888889,14.5244444 C1.14487008,14.5244444 0.444444444,13.8240188 0.444444444,12.96 L0.444444444,2.00888889 C0.444444444,1.14487008 1.14487008,0.444444444 2.00888889,0.444444444 Z" id="Rectangle-6"></path>
            <path d="M1.33333333,1.33333333 L13.7777778,1.33333333 C14.2686976,1.33333333 14.6666667,1.73130244 14.6666667,2.22222222 L14.6666667,4 L0.444444444,4 L0.444444444,2.22222222 C0.444444444,1.73130244 0.842413556,1.33333333 1.33333333,1.33333333 Z" id="Rectangle"></path>
            <path d="M5.33333333,9.55555556 C4.9651435,9.55555556 4.66666667,9.25707872 4.66666667,8.88888889 C4.66666667,8.52069906 4.9651435,8.22222222 5.33333333,8.22222222 L10.6666667,8.22222222 C11.0348565,8.22222222 11.3333333,8.52069906 11.3333333,8.88888889 C11.3333333,9.25707872 11.0348565,9.55555556 10.6666667,9.55555556 L5.33333333,9.55555556 Z" id="Line"></path>
            <path d="M7.33333333,6.22222222 C7.33333333,5.85403239 7.63181017,5.55555556 8,5.55555556 C8.36818983,5.55555556 8.66666667,5.85403239 8.66666667,6.22222222 L8.66666667,11.5555556 C8.66666667,11.9237454 8.36818983,12.2222222 8,12.2222222 C7.63181017,12.2222222 7.33333333,11.9237454 7.33333333,11.5555556 L7.33333333,6.22222222 Z" id="Line"></path>
        </g>
    </g>
</svg>