<?xml version="1.0" encoding="UTF-8"?>
<svg width="14px" height="14px" viewBox="0 0 14 14" version="1.1" xmlns="http://www.w3.org/2000/svg" xmlns:xlink="http://www.w3.org/1999/xlink">
    <!-- Generator: Sketch 48.1 (47250) - http://www.bohemiancoding.com/sketch -->
    <title>Group</title>
    <desc>Created with Sketch.</desc>
    <defs></defs>
    <g id="Button/animation_T+icon_normal" stroke="none" stroke-width="1" fill="none" fill-rule="evenodd" transform="translate(-7.000000, -7.000000)">
        <g id="Group-2" transform="translate(7.000000, 7.000000)" fill="#89929E">
            <g id="Group">
                <polygon id="Line" fill-rule="nonzero" points="5 7 4 7 4 2.52631579 5 2.52631579"></polygon>
                <polygon id="Line-2" fill-rule="nonzero" points="2 3 2 2 7 2 7 3"></polygon>
                <path d="M1,1 L1,13 L13,13 L13,1 L1,1 Z M0,0 L14,0 L14,14 L0,14 L0,0 Z" id="Rectangle-3" fill-rule="nonzero"></path>
                <polygon id="Shape" points="9.5 7 10.2725 8.64563617 12 8.90964398 10.75 10.1908142 11.045 12 9.5 11.1461995 7.955 12 8.25 10.1908142 7 8.90964398 8.7275 8.64563617"></polygon>
            </g>
        </g>
    </g>
</svg>