<?xml version="1.0" encoding="utf-8"?>
<!-- Generator: Adobe Illustrator 21.0.0, SVG Export Plug-In . SVG Version: 6.00 Build 0)  -->
<svg version="1.1" id="Capa_1" xmlns="http://www.w3.org/2000/svg" xmlns:xlink="http://www.w3.org/1999/xlink" x="0px" y="0px"
	 viewBox="0 0 100 100" style="enable-background:new 0 0 100 100;" xml:space="preserve">
<g>
	<path d="M92.5,12.4l-0.6-0.7C87,6.2,80.4,3.2,73.3,3.2c-7,0-13.6,3-18.6,8.5L50,17l-4.7-5.2c-4.9-5.5-11.5-8.5-18.6-8.5
		c-7,0-13.6,3-18.6,8.5l-0.6,0.7C2.7,17.8,0,24.9,0,32.5s2.7,14.7,7.5,20l0,0l40,43.1c0.6,0.7,1.5,1.1,2.5,1.1
		c0.9,0,1.8-0.4,2.5-1.1l40-43.1l0,0c4.9-5.4,7.5-12.5,7.5-20C100,24.9,97.3,17.8,92.5,12.4z M87.5,48L50,88.4L12.5,48
		c-7.7-8.6-7.7-22.5,0-31l0.6-0.7c3.6-4,8.4-6.2,13.5-6.2s9.9,2.2,13.5,6.2l7.2,8c0.6,0.7,1.6,1.1,2.5,1.1c1,0,1.9-0.4,2.5-1.1
		l7.2-8c3.6-4,8.4-6.2,13.5-6.2s9.9,2.2,13.5,6.2l0.6,0.7C95.2,25.5,95.2,39.4,87.5,48z"/>
</g>
</svg>
