<?xml version="1.0" encoding="UTF-8"?>
<svg width="14px" height="14px" viewBox="0 0 14 14" version="1.1" xmlns="http://www.w3.org/2000/svg" xmlns:xlink="http://www.w3.org/1999/xlink">
    <!-- Generator: Sketch 48.1 (47250) - http://www.bohemiancoding.com/sketch -->
    <title>Group</title>
    <desc>Created with Sketch.</desc>
    <defs></defs>
    <g id="Button/animation_size_normal" stroke="none" stroke-width="1" fill="none" fill-rule="evenodd" transform="translate(-8.000000, -8.000000)">
        <g id="size-zoom-copy" transform="translate(8.000000, 8.000000)" fill="#89929E" fill-rule="nonzero">
            <g id="Group">
                <rect id="Rectangle-path" transform="translate(9.351107, 9.351107) rotate(45.000000) translate(-9.351107, -9.351107) " x="6.40113579" y="8.9761111" width="5.89994342" height="1"></rect>
                <polygon id="Shape" points="12 12 8 12 8 11 11 11 11 8 12 8"></polygon>
                <rect id="Rectangle-path" transform="translate(4.351107, 4.351107) rotate(45.000000) translate(-4.351107, -4.351107) " x="1.40113579" y="3.9761111" width="5.89994342" height="1"></rect>
                <polygon id="Shape" points="3 6 2 6 2 2 6 2 6 3 3 3"></polygon>
                <path d="M1,1 L1,13 L13,13 L13,1 L1,1 Z M0,0 L14,0 L14,14 L0,14 L0,0 Z" id="Rectangle-2"></path>
            </g>
        </g>
    </g>
</svg>