<?xml version="1.0" encoding="utf-8"?>
<!-- Generator: Adobe Illustrator 21.0.0, SVG Export Plug-In . SVG Version: 6.00 Build 0)  -->
<svg version="1.1" id="Слой_1" xmlns="http://www.w3.org/2000/svg" xmlns:xlink="http://www.w3.org/1999/xlink" x="0px" y="0px"
	 viewBox="0 0 20 24" style="enable-background:new 0 0 20 24;" xml:space="preserve">
<style type="text/css">
	.st0{fill:#89929E;}
</style>
<title>Group</title>
<desc>Created with Sketch.</desc>
<g>
	<polygon class="st0" points="4,6 2,6 2,20 2,21 2,22 14,22 14,20 4,20 	"/>
	<polygon class="st0" points="20,20 18,20 18,4 18,3 18,2 4,2 4,0 2,0 2,2 0,2 0,4 2,4 4,4 16,4 16,20 16,22 16,24 18,24 18,22 
		20,22 	"/>
	<path class="st0" d="M9,11.3c0-0.8-0.7-1.5-1.5-1.5S6,10.5,6,11.3s0.7,1.5,1.5,1.5S9,12.2,9,11.3z M7,11.3c0-0.3,0.2-0.5,0.5-0.5
		S8,11.1,8,11.3s-0.2,0.5-0.5,0.5S7,11.6,7,11.3z"/>
	<polygon class="st0" points="8.9,18.8 14,18.8 11.8,12.8 	"/>
	<polygon class="st0" points="6,18.8 8.9,18.8 7.5,16.4 	"/>
</g>
</svg>
