<?xml version="1.0" encoding="UTF-8"?>
<svg width="10px" height="14px" viewBox="0 0 10 14" version="1.1" xmlns="http://www.w3.org/2000/svg" xmlns:xlink="http://www.w3.org/1999/xlink">
    <!-- Generator: Sketch 49.3 (51167) - http://www.bohemiancoding.com/sketch -->
    <title>B</title>
    <desc>Created with Sketch.</desc>
    <defs></defs>
    <g id="Symbols" stroke="none" stroke-width="1" fill="none" fill-rule="evenodd">
        <g id="Button/bold_normal" transform="translate(-10.000000, -8.000000)" fill="#89929E">
            <path d="M10,22 L10,8 L14.5137615,8 C16.0856348,8 17.3119222,8.32050962 18.1926606,8.96153846 C19.0733989,9.60256731 19.5137615,10.5608911 19.5137615,11.8365385 C19.5137615,12.4839776 19.3501545,13.0624975 19.0229358,13.5721154 C18.695717,14.0817333 18.2201866,14.4647423 17.5963303,14.7211538 C18.3975575,14.9006419 18.9984689,15.2852535 19.3990826,15.875 C19.7996962,16.4647465 20,17.147432 20,17.9230769 C20,19.2628272 19.5779859,20.2772401 18.733945,20.9663462 C17.889904,21.6554522 16.6941973,22 15.146789,22 L10,22 Z M12.6788991,15.8076923 L12.6788991,19.8461538 L15.146789,19.8461538 C15.8562727,19.8461538 16.3975517,19.6842965 16.7706422,19.3605769 C17.1437328,19.0368574 17.3302752,18.5576955 17.3302752,17.9230769 C17.3302752,17.2371761 17.1712554,16.7131428 16.853211,16.3509615 C16.5351666,15.9887802 16.0336426,15.8076923 15.3486239,15.8076923 L12.6788991,15.8076923 Z M12.6788991,13.8653846 L14.6055046,13.8653846 C15.3211045,13.8653846 15.8715577,13.71154 16.2568807,13.4038462 C16.6422038,13.0961523 16.8348624,12.6474388 16.8348624,12.0576923 C16.8348624,11.4102532 16.6406747,10.9326938 16.2522936,10.625 C15.8639124,10.3173062 15.2844075,10.1634615 14.5137615,10.1634615 L12.6788991,10.1634615 L12.6788991,13.8653846 Z" id="B"></path>
        </g>
    </g>
</svg>