<?xml version="1.0" encoding="UTF-8"?>
<svg width="15px" height="11px" viewBox="0 0 15 11" version="1.1" xmlns="http://www.w3.org/2000/svg" xmlns:xlink="http://www.w3.org/1999/xlink">
    <!-- Generator: Sketch 49.3 (51167) - http://www.bohemiancoding.com/sketch -->
    <title>Group 2</title>
    <desc>Created with Sketch.</desc>
    <defs>
        <rect id="path-1" x="0" y="10" width="1" height="1"></rect>
        <rect id="path-2" x="2" y="10" width="1" height="1"></rect>
        <rect id="path-3" x="4" y="10" width="1" height="1"></rect>
        <rect id="path-4" x="6" y="10" width="1" height="1"></rect>
        <rect id="path-5" x="8" y="10" width="1" height="1"></rect>
        <rect id="path-6" x="10" y="10" width="1" height="1"></rect>
        <rect id="path-7" x="12" y="10" width="1" height="1"></rect>
        <rect id="path-8" x="14" y="10" width="1" height="1"></rect>
    </defs>
    <g id="Symbols" stroke="none" stroke-width="1" fill="none" fill-rule="evenodd">
        <g id="Button/line_normal" transform="translate(-7.000000, -9.000000)">
            <g id="Group-2" transform="translate(7.000000, 9.000000)">
                <path d="M0,1 L0,0 L3,0 L3,1 L0,1 Z M4,1 L4,0 L7,0 L7,1 L4,1 Z M8,1 L8,0 L11,0 L11,1 L8,1 Z M12,1 L12,0 L15,0 L15,1 L12,1 Z" id="Line" fill="#89929E" fill-rule="nonzero"></path>
                <polygon id="Line-Copy" fill="#89929E" fill-rule="nonzero" points="0 6 0 5 15 5 15 6"></polygon>
                <g id="Rectangle-2">
                    <use fill="#D8D8D8" fill-rule="evenodd" xlink:href="#path-1"></use>
                    <rect stroke="#89929E" stroke-width="1" x="0.5" y="10.5" width="1" height="1"></rect>
                </g>
                <g id="Rectangle-2-Copy">
                    <use fill="#D8D8D8" fill-rule="evenodd" xlink:href="#path-2"></use>
                    <rect stroke="#89929E" stroke-width="1" x="2.5" y="10.5" width="1" height="1"></rect>
                </g>
                <g id="Rectangle-2-Copy-2">
                    <use fill="#D8D8D8" fill-rule="evenodd" xlink:href="#path-3"></use>
                    <rect stroke="#89929E" stroke-width="1" x="4.5" y="10.5" width="1" height="1"></rect>
                </g>
                <g id="Rectangle-2-Copy-3">
                    <use fill="#D8D8D8" fill-rule="evenodd" xlink:href="#path-4"></use>
                    <rect stroke="#89929E" stroke-width="1" x="6.5" y="10.5" width="1" height="1"></rect>
                </g>
                <g id="Rectangle-2-Copy-4">
                    <use fill="#D8D8D8" fill-rule="evenodd" xlink:href="#path-5"></use>
                    <rect stroke="#89929E" stroke-width="1" x="8.5" y="10.5" width="1" height="1"></rect>
                </g>
                <g id="Rectangle-2-Copy-5">
                    <use fill="#D8D8D8" fill-rule="evenodd" xlink:href="#path-6"></use>
                    <rect stroke="#89929E" stroke-width="1" x="10.5" y="10.5" width="1" height="1"></rect>
                </g>
                <g id="Rectangle-2-Copy-6">
                    <use fill="#D8D8D8" fill-rule="evenodd" xlink:href="#path-7"></use>
                    <rect stroke="#89929E" stroke-width="1" x="12.5" y="10.5" width="1" height="1"></rect>
                </g>
                <g id="Rectangle-2-Copy-7">
                    <use fill="#D8D8D8" fill-rule="evenodd" xlink:href="#path-8"></use>
                    <rect stroke="#89929E" stroke-width="1" x="14.5" y="10.5" width="1" height="1"></rect>
                </g>
            </g>
        </g>
    </g>
</svg>