<?xml version="1.0" encoding="UTF-8"?>
<svg width="18px" height="17px" viewBox="0 0 18 17" version="1.1" xmlns="http://www.w3.org/2000/svg" xmlns:xlink="http://www.w3.org/1999/xlink">
    <!-- Generator: Sketch 48.1 (47250) - http://www.bohemiancoding.com/sketch -->
    <title>Group</title>
    <desc>Created with Sketch.</desc>
    <defs></defs>
    <g id="Tab/paragraph_normal" stroke="none" stroke-width="1" fill="none" fill-rule="evenodd" transform="translate(-14.000000, -16.000000)">
        <g id="Group" transform="translate(14.000000, 16.000000)" fill="#FFFFFF" fill-rule="nonzero">
            <polygon id="Line" points="0 11.5 0 10 8 10 8 11.5"></polygon>
            <polygon id="Line" points="0 16.5 0 15 8 15 8 16.5"></polygon>
            <polygon id="Line" points="0 6.5 0 5 8 5 8 6.5"></polygon>
            <g id="Group-2">
                <polygon id="Line" points="0 1.5 0 0 8 0 8 1.5"></polygon>
                <polygon id="Line" points="10 1.5 10 0 18 0 18 1.5"></polygon>
            </g>
            <polygon id="Line" points="10 11.5 10 10 18 10 18 11.5"></polygon>
            <polygon id="Line" points="10 16.5 10 15 18 15 18 16.5"></polygon>
            <polygon id="Line" points="10 6.5 10 5 18 5 18 6.5"></polygon>
        </g>
    </g>
</svg>