<?xml version="1.0" encoding="UTF-8"?>
<svg width="11px" height="12px" viewBox="0 0 11 12" version="1.1" xmlns="http://www.w3.org/2000/svg" xmlns:xlink="http://www.w3.org/1999/xlink">
    <!-- Generator: Sketch 51.3 (57544) - http://www.bohemiancoding.com/sketch -->
    <title>Shape</title>
    <desc>Created with Sketch.</desc>
    <defs></defs>
    <g id="Editbox_text" stroke="none" stroke-width="1" fill="none" fill-rule="evenodd">
        <g id="Text_panel/color_new" transform="translate(-850.000000, -636.000000)" fill="#89929E" fill-rule="nonzero">
            <path d="M851.692308,636 C850.757731,636 850,636.767571 850,637.714286 C850,638.661 850.757731,639.428571 851.692308,639.428571 C852.626885,639.428571 853.384615,638.661 853.384615,637.714286 C853.384615,636.767571 852.626885,636 851.692308,636 Z M851.692308,640.285714 C850.757731,640.285714 850,641.053286 850,642 C850,642.946714 850.757731,643.714286 851.692308,643.714286 C852.626885,643.714286 853.384615,642.946714 853.384615,642 C853.384615,641.053286 852.626885,640.285714 851.692308,640.285714 Z M851.692308,644.571429 C850.757731,644.571429 850,645.339 850,646.285714 C850,647.232429 850.757731,648 851.692308,648 C852.626885,648 853.384615,647.232429 853.384615,646.285714 C853.384615,645.339 852.626885,644.571429 851.692308,644.571429 Z M855.5,636.428571 C854.798962,636.428571 854.230769,637.004143 854.230769,637.714286 C854.230769,638.424429 854.798962,639 855.5,639 C856.201038,639 856.769231,638.424429 856.769231,637.714286 C856.769231,637.004143 856.201038,636.428571 855.5,636.428571 Z M858.461538,636.857143 C857.994038,636.857143 857.615385,637.240714 857.615385,637.714286 C857.615385,638.187857 857.994038,638.571429 858.461538,638.571429 C858.929038,638.571429 859.307692,638.187857 859.307692,637.714286 C859.307692,637.240714 858.929038,636.857143 858.461538,636.857143 Z M860.576923,638.142857 C860.810462,638.142857 861,637.950857 861,637.714286 C861,637.477714 860.810462,637.285714 860.576923,637.285714 C860.343385,637.285714 860.153846,637.477714 860.153846,637.714286 C860.153846,637.950857 860.343385,638.142857 860.576923,638.142857 Z M855.5,640.714286 C854.798962,640.714286 854.230769,641.289857 854.230769,642 C854.230769,642.710143 854.798962,643.285714 855.5,643.285714 C856.201038,643.285714 856.769231,642.710143 856.769231,642 C856.769231,641.289857 856.201038,640.714286 855.5,640.714286 Z M858.461538,641.142857 C857.994038,641.142857 857.615385,641.526429 857.615385,642 C857.615385,642.473571 857.994038,642.857143 858.461538,642.857143 C858.929038,642.857143 859.307692,642.473571 859.307692,642 C859.307692,641.526429 858.929038,641.142857 858.461538,641.142857 Z M860.576923,641.571429 C860.343385,641.571429 860.153846,641.763429 860.153846,642 C860.153846,642.236571 860.343385,642.428571 860.576923,642.428571 C860.810462,642.428571 861,642.236571 861,642 C861,641.763429 860.810462,641.571429 860.576923,641.571429 Z M855.5,645 C854.798962,645 854.230769,645.575571 854.230769,646.285714 C854.230769,646.995857 854.798962,647.571429 855.5,647.571429 C856.201038,647.571429 856.769231,646.995857 856.769231,646.285714 C856.769231,645.575571 856.201038,645 855.5,645 Z M858.461538,645.428571 C857.994038,645.428571 857.615385,645.812143 857.615385,646.285714 C857.615385,646.759286 857.994038,647.142857 858.461538,647.142857 C858.929038,647.142857 859.307692,646.759286 859.307692,646.285714 C859.307692,645.812143 858.929038,645.428571 858.461538,645.428571 Z M860.576923,645.857143 C860.343385,645.857143 860.153846,646.049143 860.153846,646.285714 C860.153846,646.522286 860.343385,646.714286 860.576923,646.714286 C860.810462,646.714286 861,646.522286 861,646.285714 C861,646.049143 860.810462,645.857143 860.576923,645.857143 Z" id="Shape"></path>
        </g>
    </g>
</svg>