<?xml version="1.0" encoding="utf-8"?>
<!-- Generator: Adobe Illustrator 21.0.0, SVG Export Plug-In . SVG Version: 6.00 Build 0)  -->
<svg version="1.1" id="Слой_1" xmlns="http://www.w3.org/2000/svg" xmlns:xlink="http://www.w3.org/1999/xlink" x="0px" y="0px"
	 viewBox="0 0 100 100" style="enable-background:new 0 0 100 100;" xml:space="preserve">
<style type="text/css">
	.st0{fill:#89929E;}
</style>
<path class="st0" d="M42.8,81.5c-2.4-4.2-4.3-8.7-5.7-13.5h17.5c-0.9,3.2-2.1,6.2-3.5,9.2c6-3.5,11.3-7.4,14.7-11.2l-9.6-7.3H35.2
	c-0.4-3.1-0.7-6.2-0.7-9.3c0-3.2,0.3-6.3,0.7-9.3h21.5c0.3,2.3,0.5,4.8,0.6,7.2l9.2-0.9c-0.1-2.1-0.3-4.2-0.5-6.3h15.5
	c0.4,1.6,0.7,3.2,0.9,4.9l9.2-0.9c-2.6-23.3-22-41.4-45.6-41.4C20.5,2.6,0,23.6,0,49.3c0,16.8,8.8,31.5,21.9,39.8l12.7-4.3
	C37.3,83.9,40.1,82.7,42.8,81.5z M77.7,30.7H64.1c-1.5-5.8-3.6-11.4-6.3-16.6C66.2,17,73.3,22.9,77.7,30.7z M45.9,12.2
	c3.8,5.6,6.8,11.8,8.8,18.5H37.1C39.1,24,42.1,17.8,45.9,12.2z M10.4,58.7c-0.7-3-1.2-6.1-1.2-9.3c0-3.2,0.5-6.4,1.2-9.3h15.5
	c-0.4,3.1-0.6,6.2-0.6,9.3c0,3.2,0.3,6.3,0.6,9.3H10.4z M14.1,68h13.5c1.5,5.8,3.6,11.4,6.3,16.6C25.6,81.7,18.5,75.8,14.1,68z
	 M27.7,30.7H14.1C18.5,22.9,25.6,17,34,14C31.3,19.2,29.1,24.8,27.7,30.7z M58.3,53l15.6,11.9C67.4,76.6,46.2,87,36.4,90.3l-8.8,3
	l8.9,2.6c3.4,1,6.9,1.5,10.2,1.5c16.4,0,31.3-10.7,39.5-20.3L100,91.6V49L58.3,53z M80.4,66.4c0.5-0.7,0.9-1.4,1.4-2.1
	c-2.7-2.3-5.4-4.6-8.2-7l20.6-1.9v21.7l-8.5-8.9l-2,2.7c-6.2,8.4-20,19.5-35,20.5c4.8-2,11.3-5.3,18-10.6
	C73,75.8,77.5,70.5,80.4,66.4z"/>
</svg>
