<?xml version="1.0" encoding="utf-8"?>
<!-- Generator: Adobe Illustrator 21.0.0, SVG Export Plug-In . SVG Version: 6.00 Build 0)  -->
<svg version="1.1" id="Слой_1" xmlns="http://www.w3.org/2000/svg" xmlns:xlink="http://www.w3.org/1999/xlink" x="0px" y="0px"
	 viewBox="0 0 16 16" style="enable-background:new 0 0 16 16;" xml:space="preserve">
<style type="text/css">
	.st0{fill:#89929E;}
</style>
<g>
	<path class="st0" d="M9,14.6l2.1-1.2l2.1,1.2l-0.4-2.5l1.7-1.8L12.2,10l-1.1-2.3L10.1,10l-2.4,0.4l1.7,1.8L9,14.6z M10.6,10.8
		l0.5-1.1l0.5,1.1l1.2,0.2L12,11.8l0.2,1.2l-1-0.6l-1,0.6l0.2-1.2L9.4,11L10.6,10.8z"/>
	<polygon class="st0" points="3.7,8 4.6,8 4.6,2.3 6.6,2.3 6.6,1.6 1.7,1.6 1.7,2.3 3.7,2.3 	"/>
	<path class="st0" d="M0,0v16h16V0H0z M15,15H1V1h14V15z"/>
</g>
</svg>
