<svg version="1.1" xmlns="http://www.w3.org/2000/svg" xmlns:xlink="http://www.w3.org/1999/xlink" width="15" height="13" viewBox="0 0 15 13"><path id="email" d="M14.063,12.077 C14.063,12.077 0.938,12.077 0.938,12.077 C0.420,12.077 0.000,11.630 0.000,11.077 C0.000,11.077 0.000,1.080 0.000,1.080 C0.000,0.528 0.420,0.081 0.938,0.081 C0.938,0.081 14.063,0.081 14.063,0.081 C14.581,0.081 15.000,0.528 15.000,1.080 C15.000,1.080 15.000,11.077 15.000,11.077 C15.000,11.630 14.581,12.077 14.063,12.077 zM1.601,1.080 L7.500,7.371 L13.400,1.080 L1.601,1.080 zM14.063,1.788 L7.832,8.432 C7.832,8.432 7.832,8.432 7.832,8.432 C7.747,8.522 7.630,8.578 7.500,8.578 C7.371,8.578 7.254,8.522 7.169,8.432 C7.169,8.432 7.169,8.432 7.169,8.432 L0.938,1.788 L0.938,10.371 L3.888,7.225 L4.550,7.932 L1.601,11.077 L13.400,11.077 L10.450,7.932 L11.113,7.225 L14.063,10.371 L14.063,1.788 z" fill="#BBBBBB" /></svg>