<svg version="1.1" xmlns="http://www.w3.org/2000/svg" xmlns:xlink="http://www.w3.org/1999/xlink" width="22" height="16" viewBox="0 0 22 16"><path id="voir-oeil" d="M21.819,8.963 C21.770,9.035 20.589,10.733 18.675,12.448 C16.115,14.741 13.456,15.953 10.985,15.953 C8.514,15.953 5.855,14.741 3.295,12.448 C1.382,10.733 0.200,9.035 0.151,8.963 C-0.051,8.670 -0.051,8.236 0.151,7.943 C0.200,7.871 1.382,6.173 3.295,4.458 C5.855,2.165 8.514,0.953 10.985,0.953 C13.456,0.953 16.115,2.165 18.675,4.458 C20.589,6.173 21.770,7.871 21.819,7.943 C22.021,8.236 22.021,8.670 21.819,8.963 zM17.928,5.705 C16.296,4.248 13.767,2.512 10.985,2.512 C8.203,2.512 5.674,4.248 4.042,5.705 C2.852,6.768 1.950,7.842 1.473,8.453 C1.950,9.064 2.852,10.139 4.042,11.201 C5.674,12.658 8.203,14.395 10.985,14.395 C13.767,14.395 16.296,12.658 17.928,11.201 C19.118,10.139 20.020,9.064 20.498,8.453 C20.020,7.842 19.118,6.768 17.928,5.705 zM9.642,8.453 C9.642,7.708 10.251,7.102 10.999,7.102 C11.748,7.102 12.357,7.708 12.357,8.453 C12.357,9.198 11.748,9.804 10.999,9.804 C10.251,9.804 9.642,9.198 9.642,8.453 zM10.999,12.641 C8.679,12.641 6.792,10.762 6.792,8.453 C6.792,6.144 8.679,4.265 10.999,4.265 C12.020,4.265 13.004,4.633 13.771,5.302 C14.053,5.548 14.081,5.974 13.834,6.255 C13.587,6.536 13.158,6.564 12.876,6.318 C12.357,5.865 11.691,5.616 10.999,5.616 C9.428,5.616 8.149,6.889 8.149,8.453 C8.149,10.018 9.428,11.290 10.999,11.290 C12.571,11.290 13.850,10.018 13.850,8.453 C13.850,8.080 14.154,7.778 14.528,7.778 C14.903,7.778 15.207,8.080 15.207,8.453 C15.207,10.762 13.319,12.641 10.999,12.641 z" fill="#5D5D5D" /></svg>