<svg version="1.1" xmlns="http://www.w3.org/2000/svg" xmlns:xlink="http://www.w3.org/1999/xlink" width="46" height="58" viewBox="0 0 46 58"><g id="document-pdf"><path id="Rectangle-1" d="M45.000,13.585 C45.000,27.204 45.000,47.000 45.000,47.000 L2.000,47.000 L2.000,1.000 C2.000,1.000 19.780,1.000 32.473,1.000 " fill="#FFFFFF" /><path id="Forma-1" d="M43.819,57.910 C43.769,57.923 43.721,57.942 43.669,57.952 C43.513,57.983 43.354,58.000 43.194,58.000 C43.194,58.000 3.111,58.000 3.111,58.000 C2.951,58.000 2.792,57.983 2.636,57.952 C2.584,57.942 2.536,57.923 2.486,57.910 C1.490,57.653 0.648,56.837 0.648,56.000 C0.648,56.000 0.648,55.537 0.648,55.537 L0.648,39.000 C0.648,39.000 0.648,2.926 0.648,2.926 C0.648,0.916 1.925,0.000 3.111,0.000 C3.111,0.000 32.140,0.000 32.140,0.000 C32.635,0.000 33.119,0.201 33.468,0.550 C33.468,0.550 34.239,1.321 34.239,1.321 L44.336,11.416 C44.336,11.416 45.108,12.187 45.108,12.187 C45.566,12.645 45.658,13.211 45.658,13.978 C45.658,13.978 45.658,39.000 45.658,39.000 L45.658,55.537 C45.658,55.537 45.658,56.000 45.658,56.000 C45.658,56.837 44.816,57.653 43.819,57.910 zM33.655,3.565 L33.655,12.000 L42.092,12.000 L33.655,3.565 zM43.657,13.978 C43.657,13.963 43.656,13.957 43.656,13.942 C43.530,13.975 43.401,14.000 43.266,14.000 C43.266,14.000 31.655,14.000 31.655,14.000 C31.655,14.000 31.655,2.391 31.655,2.391 C31.655,2.256 31.680,2.126 31.713,2.000 C31.713,2.000 3.111,2.000 3.111,2.000 C2.681,2.000 2.648,2.709 2.648,2.926 C2.648,2.926 2.648,39.000 2.648,39.000 L43.657,39.000 C43.657,39.000 43.657,13.978 43.657,13.978 zM43.657,41.000 L2.648,41.000 C2.648,41.000 2.648,55.537 2.648,55.537 C2.648,55.721 2.757,55.877 2.913,55.951 C2.976,55.974 3.040,56.000 3.111,56.000 C3.111,56.000 43.194,56.000 43.194,56.000 C43.265,56.000 43.329,55.974 43.392,55.951 C43.548,55.876 43.657,55.721 43.657,55.537 C43.657,55.537 43.657,41.000 43.657,41.000 zM18.569,26.686 C20.073,23.390 21.504,19.329 22.358,15.936 C21.359,13.764 20.389,10.946 21.096,9.293 C21.344,8.714 21.654,8.270 22.231,8.078 C22.460,8.002 23.036,7.906 23.247,7.906 C23.751,7.906 24.194,8.555 24.508,8.955 C24.803,9.331 25.472,10.128 24.135,15.757 C25.483,18.541 27.394,21.377 29.224,23.319 C30.535,23.081 31.664,22.961 32.583,22.961 C34.149,22.961 35.098,23.327 35.484,24.076 C35.805,24.699 35.673,25.425 35.093,26.236 C34.537,27.015 33.769,27.427 32.873,27.427 C31.657,27.427 30.241,26.659 28.661,25.142 C25.823,25.735 22.510,26.793 19.831,27.964 C18.995,29.738 18.194,31.167 17.447,32.215 C16.424,33.652 15.540,34.322 14.665,34.322 C14.317,34.322 13.983,34.209 13.698,33.996 C12.656,33.215 12.516,32.346 12.582,31.754 C12.764,30.127 14.778,28.422 18.569,26.686 zM32.515,25.700 C32.749,25.700 33.417,25.690 33.725,25.259 C33.874,25.050 33.932,24.916 33.954,24.845 C33.831,24.779 33.668,24.648 32.779,24.648 C32.274,24.648 31.640,24.670 30.968,24.756 C31.783,25.383 31.982,25.700 32.515,25.700 zM22.889,9.712 C22.791,9.745 21.558,11.469 22.985,12.928 C23.934,10.813 22.932,9.698 22.889,9.712 zM27.319,23.718 C25.968,22.150 24.619,20.192 23.496,18.174 C22.781,20.648 21.836,23.319 20.821,25.738 C22.912,24.926 25.184,24.219 27.319,23.718 zM14.687,32.634 C14.836,32.587 15.706,32.190 17.326,29.198 C15.189,30.399 14.318,31.386 14.256,31.942 C14.246,32.033 14.219,32.275 14.687,32.634 z" fill="#000000" /><path id="Forma-1" d="M32.583,22.961 C31.664,22.961 30.535,23.081 29.224,23.319 C27.394,21.377 25.483,18.541 24.135,15.757 C25.472,10.128 24.803,9.331 24.508,8.955 C24.194,8.555 23.751,7.906 23.247,7.906 C23.036,7.906 22.460,8.002 22.231,8.078 C21.654,8.270 21.344,8.714 21.096,9.293 C20.389,10.946 21.359,13.764 22.358,15.936 C21.504,19.329 20.073,23.390 18.569,26.686 C14.778,28.422 12.764,30.127 12.582,31.754 C12.516,32.346 12.656,33.215 13.698,33.996 C13.983,34.209 14.317,34.322 14.665,34.322 C14.665,34.322 14.665,34.322 14.665,34.322 C15.540,34.322 16.424,33.652 17.447,32.215 C18.194,31.167 18.995,29.738 19.831,27.964 C22.510,26.793 25.823,25.735 28.661,25.142 C30.241,26.659 31.657,27.427 32.873,27.427 C33.769,27.427 34.537,27.015 35.093,26.236 C35.673,25.425 35.805,24.699 35.484,24.076 C35.098,23.327 34.149,22.961 32.583,22.961 zM14.687,32.634 C14.219,32.275 14.246,32.033 14.256,31.942 C14.318,31.386 15.189,30.399 17.326,29.198 C15.706,32.190 14.836,32.587 14.687,32.634 zM22.889,9.712 C22.932,9.698 23.934,10.813 22.985,12.928 C21.558,11.469 22.791,9.745 22.889,9.712 zM20.821,25.738 C21.836,23.319 22.781,20.648 23.496,18.174 C24.619,20.192 25.968,22.150 27.319,23.718 C25.184,24.219 22.912,24.926 20.821,25.738 zM33.725,25.259 C33.417,25.690 32.749,25.700 32.515,25.700 C31.982,25.700 31.783,25.383 30.968,24.756 C31.640,24.670 32.274,24.648 32.779,24.648 C33.668,24.648 33.831,24.779 33.954,24.845 C33.932,24.916 33.874,25.050 33.725,25.259 z" fill="#000000" /><path id="Forma-1" d="M3.111,56.000 C3.040,56.000 2.976,55.974 2.913,55.951 C2.757,55.877 2.648,55.721 2.648,55.537 C2.648,55.537 2.648,41.000 2.648,41.000 L43.657,41.000 C43.657,41.000 43.657,55.537 43.657,55.537 C43.657,55.721 43.548,55.876 43.392,55.951 C43.329,55.974 43.265,56.000 43.194,56.000 C43.194,56.000 3.111,56.000 3.111,56.000 z" fill="#ED3B3B" /><path id="Forma-1" d="M31.421,45.168 L31.421,48.340 L35.633,48.340 L35.656,50.000 L31.655,50.000 L31.421,54.000 L29.752,54.000 L29.752,43.924 L36.056,43.924 L36.056,45.168 L31.421,45.168 zM26.429,52.283 C26.154,52.680 25.847,52.992 25.505,53.220 C25.163,53.448 24.833,53.619 24.514,53.733 C24.195,53.848 23.903,53.920 23.639,53.952 C23.374,53.984 23.178,54.000 23.051,54.000 C23.051,54.000 19.236,54.000 19.236,54.000 L19.236,43.924 C19.236,43.924 22.272,43.924 22.272,43.924 C23.119,43.924 23.864,44.059 24.507,44.327 C25.150,44.595 25.683,44.954 26.107,45.400 C26.532,45.847 26.848,46.355 27.059,46.923 C27.268,47.492 27.373,48.078 27.373,48.680 C27.373,49.509 27.284,50.218 27.106,50.806 C26.928,51.394 26.702,51.886 26.429,52.283 zM25.499,47.396 C25.398,46.986 25.205,46.615 24.918,46.282 C24.631,45.949 24.241,45.680 23.749,45.475 C23.257,45.270 22.619,45.167 21.835,45.167 C21.835,45.167 20.877,45.167 20.877,45.167 L20.877,52.796 C20.877,52.796 22.505,52.796 22.505,52.796 C23.617,52.796 24.419,52.441 24.911,51.730 C25.403,51.020 25.649,49.989 25.649,48.640 C25.649,48.221 25.599,47.806 25.499,47.396 zM16.324,49.475 C16.014,49.757 15.640,49.976 15.203,50.131 C14.766,50.286 14.282,50.363 13.754,50.363 C13.754,50.363 12.536,50.363 12.536,50.363 L12.536,54.000 L10.895,54.000 L10.895,43.924 C10.895,43.924 13.794,43.924 13.794,43.924 C14.222,43.924 14.646,43.992 15.065,44.129 C15.484,44.265 15.860,44.471 16.193,44.744 C16.526,45.018 16.796,45.347 17.001,45.735 C17.206,46.123 17.309,46.558 17.309,47.041 C17.309,47.552 17.222,48.014 17.049,48.429 C16.875,48.844 16.634,49.193 16.324,49.475 zM15.653,46.473 C15.607,46.259 15.514,46.054 15.373,45.858 C15.231,45.662 15.033,45.498 14.778,45.366 C14.522,45.234 14.185,45.168 13.766,45.168 C13.766,45.168 12.535,45.168 12.535,45.168 L12.535,49.160 C12.535,49.160 14.040,49.160 14.040,49.160 C14.240,49.160 14.439,49.125 14.635,49.057 C14.831,48.989 15.011,48.877 15.175,48.722 C15.339,48.567 15.470,48.351 15.571,48.073 C15.671,47.795 15.721,47.451 15.721,47.040 C15.721,46.876 15.698,46.687 15.653,46.473 z" fill="#FFFFFF" /></g></svg>