<svg version="1.1" xmlns="http://www.w3.org/2000/svg" xmlns:xlink="http://www.w3.org/1999/xlink" width="46" height="58" viewBox="0 0 46 58"><g id="document-DOC-cop"><path id="Forma-1" d="M43.329,14.000 C43.464,14.000 43.593,13.975 43.719,13.942 C43.719,13.957 43.720,13.963 43.720,13.978 C43.720,13.978 43.720,39.000 43.720,39.000 L2.711,39.000 C2.711,39.000 2.711,2.926 2.711,2.926 C2.711,2.709 2.744,2.000 3.174,2.000 C3.174,2.000 31.775,2.000 31.775,2.000 C31.742,2.126 31.717,2.256 31.717,2.391 " fill="#FFFFFF" /><path id="Forma-1" d="M43.882,57.910 C43.832,57.923 43.784,57.942 43.732,57.952 C43.576,57.983 43.417,58.000 43.257,58.000 C43.257,58.000 3.174,58.000 3.174,58.000 C3.014,58.000 2.855,57.983 2.699,57.952 C2.646,57.942 2.599,57.923 2.549,57.910 C1.552,57.653 0.710,56.837 0.710,56.000 C0.710,56.000 0.710,55.537 0.710,55.537 L0.710,39.000 C0.710,39.000 0.710,2.926 0.710,2.926 C0.710,0.916 1.987,0.000 3.174,0.000 C3.174,0.000 32.202,0.000 32.202,0.000 C32.697,0.000 33.181,0.201 33.531,0.550 C33.531,0.550 34.302,1.321 34.302,1.321 L44.399,11.416 C44.399,11.416 45.170,12.187 45.170,12.187 C45.628,12.645 45.720,13.211 45.720,13.978 C45.720,13.978 45.720,39.000 45.720,39.000 L45.720,55.537 C45.720,55.537 45.720,56.000 45.720,56.000 C45.720,56.837 44.878,57.653 43.882,57.910 zM33.718,3.565 L33.718,12.000 L42.155,12.000 L33.718,3.565 zM43.720,13.978 C43.720,13.963 43.719,13.957 43.719,13.942 C43.593,13.975 43.464,14.000 43.329,14.000 C43.329,14.000 31.717,14.000 31.717,14.000 C31.717,14.000 31.717,2.391 31.717,2.391 C31.717,2.256 31.742,2.126 31.775,2.000 C31.775,2.000 3.174,2.000 3.174,2.000 C2.744,2.000 2.711,2.709 2.711,2.926 C2.711,2.926 2.711,39.000 2.711,39.000 L43.720,39.000 C43.720,39.000 43.720,13.978 43.720,13.978 zM43.720,41.000 L2.711,41.000 C2.711,41.000 2.711,55.537 2.711,55.537 C2.711,55.721 2.820,55.877 2.976,55.951 C3.039,55.974 3.103,56.000 3.174,56.000 C3.174,56.000 43.257,56.000 43.257,56.000 C43.328,56.000 43.392,55.974 43.455,55.951 C43.611,55.876 43.720,55.721 43.720,55.537 C43.720,55.537 43.720,41.000 43.720,41.000 zM7.712,12.000 C7.712,12.000 13.713,12.000 13.713,12.000 C14.265,12.000 14.713,12.448 14.713,13.000 C14.713,13.552 14.265,14.000 13.713,14.000 C13.713,14.000 7.712,14.000 7.712,14.000 C7.160,14.000 6.712,13.552 6.712,13.000 C6.712,12.448 7.160,12.000 7.712,12.000 zM7.712,17.000 C7.712,17.000 16.714,17.000 16.714,17.000 C17.266,17.000 17.714,17.448 17.714,18.000 C17.714,18.552 17.266,19.000 16.714,19.000 C16.714,19.000 7.712,19.000 7.712,19.000 C7.160,19.000 6.712,18.552 6.712,18.000 C6.712,17.448 7.160,17.000 7.712,17.000 zM7.712,22.000 C7.712,22.000 29.717,22.000 29.717,22.000 C30.269,22.000 30.717,22.448 30.717,23.000 C30.717,23.552 30.269,24.000 29.717,24.000 C29.717,24.000 7.712,24.000 7.712,24.000 C7.160,24.000 6.712,23.552 6.712,23.000 C6.712,22.448 7.160,22.000 7.712,22.000 zM7.712,27.000 C7.712,27.000 11.713,27.000 11.713,27.000 C12.265,27.000 12.713,27.448 12.713,28.000 C12.713,28.552 12.265,29.000 11.713,29.000 C11.713,29.000 7.712,29.000 7.712,29.000 C7.160,29.000 6.712,28.552 6.712,28.000 C6.712,27.448 7.160,27.000 7.712,27.000 zM8.422,32.290 C8.602,32.480 8.712,32.730 8.712,33.000 C8.712,33.260 8.602,33.520 8.422,33.710 C8.232,33.890 7.972,34.000 7.712,34.000 C7.452,34.000 7.192,33.890 7.002,33.710 C6.821,33.520 6.712,33.260 6.712,33.000 C6.712,32.740 6.821,32.480 7.002,32.290 C7.372,31.920 8.052,31.920 8.422,32.290 zM11.713,32.000 C11.713,32.000 19.714,32.000 19.714,32.000 C20.266,32.000 20.715,32.448 20.715,33.000 C20.715,33.552 20.266,34.000 19.714,34.000 C19.714,34.000 11.713,34.000 11.713,34.000 C11.160,34.000 10.712,33.552 10.712,33.000 C10.712,32.448 11.160,32.000 11.713,32.000 zM14.713,28.000 C14.713,27.448 15.161,27.000 15.713,27.000 C15.713,27.000 25.716,27.000 25.716,27.000 C26.268,27.000 26.716,27.448 26.716,28.000 C26.716,28.552 26.268,29.000 25.716,29.000 C25.716,29.000 15.713,29.000 15.713,29.000 C15.161,29.000 14.713,28.552 14.713,28.000 zM29.717,27.000 C29.717,27.000 38.719,27.000 38.719,27.000 C39.271,27.000 39.719,27.448 39.719,28.000 C39.719,28.552 39.271,29.000 38.719,29.000 C38.719,29.000 29.717,29.000 29.717,29.000 C29.165,29.000 28.716,28.552 28.716,28.000 C28.716,27.448 29.165,27.000 29.717,27.000 zM38.719,24.000 C38.719,24.000 32.717,24.000 32.717,24.000 C32.165,24.000 31.717,23.552 31.717,23.000 C31.717,22.448 32.165,22.000 32.717,22.000 C32.717,22.000 38.719,22.000 38.719,22.000 C39.271,22.000 39.719,22.448 39.719,23.000 C39.719,23.552 39.271,24.000 38.719,24.000 zM38.719,19.000 C38.719,19.000 36.718,19.000 36.718,19.000 C36.166,19.000 35.718,18.552 35.718,18.000 C35.718,17.448 36.166,17.000 36.718,17.000 C36.718,17.000 38.719,17.000 38.719,17.000 C39.271,17.000 39.719,17.448 39.719,18.000 C39.719,18.552 39.271,19.000 38.719,19.000 zM32.717,19.000 C32.717,19.000 24.716,19.000 24.716,19.000 C24.163,19.000 23.715,18.552 23.715,18.000 C23.715,17.448 24.163,17.000 24.716,17.000 C24.716,17.000 32.717,17.000 32.717,17.000 C33.269,17.000 33.718,17.448 33.718,18.000 C33.718,18.552 33.269,19.000 32.717,19.000 zM20.715,19.000 C20.455,19.000 20.194,18.890 20.005,18.710 C19.825,18.520 19.714,18.260 19.714,18.000 C19.714,17.740 19.825,17.480 20.005,17.290 C20.375,16.920 21.055,16.920 21.425,17.290 C21.605,17.480 21.715,17.740 21.715,18.000 C21.715,18.260 21.605,18.520 21.425,18.710 C21.235,18.890 20.975,19.000 20.715,19.000 z" fill="#000000" /><path id="Forma-1" d="M38.719,24.000 C38.719,24.000 32.717,24.000 32.717,24.000 C32.165,24.000 31.717,23.552 31.717,23.000 C31.717,22.448 32.165,22.000 32.717,22.000 C32.717,22.000 38.719,22.000 38.719,22.000 C39.271,22.000 39.719,22.448 39.719,23.000 C39.719,23.552 39.271,24.000 38.719,24.000 zM38.719,19.000 C38.719,19.000 36.718,19.000 36.718,19.000 C36.166,19.000 35.718,18.552 35.718,18.000 C35.718,17.448 36.166,17.000 36.718,17.000 C36.718,17.000 38.719,17.000 38.719,17.000 C39.271,17.000 39.719,17.448 39.719,18.000 C39.719,18.552 39.271,19.000 38.719,19.000 zM32.717,19.000 C32.717,19.000 24.716,19.000 24.716,19.000 C24.163,19.000 23.715,18.552 23.715,18.000 C23.715,17.448 24.163,17.000 24.716,17.000 C24.716,17.000 32.717,17.000 32.717,17.000 C33.269,17.000 33.718,17.448 33.718,18.000 C33.718,18.552 33.269,19.000 32.717,19.000 zM20.715,19.000 C20.455,19.000 20.194,18.890 20.005,18.710 C19.825,18.520 19.714,18.260 19.714,18.000 C19.714,17.740 19.825,17.480 20.005,17.290 C20.375,16.920 21.055,16.920 21.425,17.290 C21.605,17.480 21.715,17.740 21.715,18.000 C21.715,18.260 21.605,18.520 21.425,18.710 C21.235,18.890 20.975,19.000 20.715,19.000 zM16.714,19.000 C16.714,19.000 7.712,19.000 7.712,19.000 C7.160,19.000 6.712,18.552 6.712,18.000 C6.712,17.448 7.160,17.000 7.712,17.000 C7.712,17.000 16.714,17.000 16.714,17.000 C17.266,17.000 17.714,17.448 17.714,18.000 C17.714,18.552 17.266,19.000 16.714,19.000 zM13.713,14.000 C13.713,14.000 7.712,14.000 7.712,14.000 C7.160,14.000 6.712,13.552 6.712,13.000 C6.712,12.448 7.160,12.000 7.712,12.000 C7.712,12.000 13.713,12.000 13.713,12.000 C14.265,12.000 14.713,12.448 14.713,13.000 C14.713,13.552 14.265,14.000 13.713,14.000 zM7.712,22.000 C7.712,22.000 29.717,22.000 29.717,22.000 C30.269,22.000 30.717,22.448 30.717,23.000 C30.717,23.552 30.269,24.000 29.717,24.000 C29.717,24.000 7.712,24.000 7.712,24.000 C7.160,24.000 6.712,23.552 6.712,23.000 C6.712,22.448 7.160,22.000 7.712,22.000 zM7.712,27.000 C7.712,27.000 11.713,27.000 11.713,27.000 C12.265,27.000 12.713,27.448 12.713,28.000 C12.713,28.552 12.265,29.000 11.713,29.000 C11.713,29.000 7.712,29.000 7.712,29.000 C7.160,29.000 6.712,28.552 6.712,28.000 C6.712,27.448 7.160,27.000 7.712,27.000 zM8.422,32.290 C8.602,32.480 8.712,32.730 8.712,33.000 C8.712,33.260 8.602,33.520 8.422,33.710 C8.232,33.890 7.972,34.000 7.712,34.000 C7.452,34.000 7.192,33.890 7.002,33.710 C6.821,33.520 6.712,33.260 6.712,33.000 C6.712,32.740 6.821,32.480 7.002,32.290 C7.372,31.920 8.052,31.920 8.422,32.290 zM11.713,32.000 C11.713,32.000 19.714,32.000 19.714,32.000 C20.266,32.000 20.715,32.448 20.715,33.000 C20.715,33.552 20.266,34.000 19.714,34.000 C19.714,34.000 11.713,34.000 11.713,34.000 C11.160,34.000 10.712,33.552 10.712,33.000 C10.712,32.448 11.160,32.000 11.713,32.000 zM14.713,28.000 C14.713,27.448 15.161,27.000 15.713,27.000 C15.713,27.000 25.716,27.000 25.716,27.000 C26.268,27.000 26.716,27.448 26.716,28.000 C26.716,28.552 26.268,29.000 25.716,29.000 C25.716,29.000 15.713,29.000 15.713,29.000 C15.161,29.000 14.713,28.552 14.713,28.000 zM29.717,27.000 C29.717,27.000 38.719,27.000 38.719,27.000 C39.271,27.000 39.719,27.448 39.719,28.000 C39.719,28.552 39.271,29.000 38.719,29.000 C38.719,29.000 29.717,29.000 29.717,29.000 C29.165,29.000 28.716,28.552 28.716,28.000 C28.716,27.448 29.165,27.000 29.717,27.000 z" fill="#000000" /><path id="Forma-1" d="M3.174,56.000 C3.103,56.000 3.039,55.974 2.976,55.951 C2.820,55.877 2.711,55.721 2.711,55.537 C2.711,55.537 2.711,41.000 2.711,41.000 L43.720,41.000 C43.720,41.000 43.720,55.537 43.720,55.537 C43.720,55.721 43.611,55.876 43.455,55.951 C43.392,55.974 43.328,56.000 43.257,56.000 C43.257,56.000 3.174,56.000 3.174,56.000 z" fill="#46C84F" /><path id="Forma-1" d="M33.865,44.045 L33.865,53.000 L32.211,53.000 L32.211,44.045 L29.202,44.045 L29.202,42.924 L36.874,42.924 L36.874,44.045 L33.865,44.045 zM27.343,53.000 L25.442,53.000 L23.842,49.199 L23.705,49.199 L21.983,53.000 L20.081,53.000 L22.639,48.105 L19.917,42.924 L21.791,42.924 L23.569,47.025 L23.705,47.025 L25.634,42.924 L27.507,42.924 L24.785,48.105 L27.343,53.000 zM15.199,53.000 L13.545,53.000 L13.545,44.045 L10.536,44.045 L10.536,42.924 L18.208,42.924 L18.208,44.045 L15.199,44.045 L15.199,53.000 z" fill="#FFFFFF" /></g></svg>