<svg version="1.1" xmlns="http://www.w3.org/2000/svg" xmlns:xlink="http://www.w3.org/1999/xlink" width="46" height="58" viewBox="0 0 46 58"><g id="document-DOC"><path id="Forma-1" d="M43.329,14.000 C43.464,14.000 43.593,13.975 43.719,13.942 C43.719,13.957 43.720,13.963 43.720,13.978 C43.720,13.978 43.720,39.000 43.720,39.000 L2.711,39.000 C2.711,39.000 2.711,2.926 2.711,2.926 C2.711,2.709 2.744,2.000 3.174,2.000 C3.174,2.000 31.775,2.000 31.775,2.000 C31.742,2.126 31.717,2.256 31.717,2.391 " fill="#FFFFFF" /><path id="Forma-1" d="M43.882,57.910 C43.832,57.923 43.784,57.942 43.732,57.952 C43.576,57.983 43.417,58.000 43.257,58.000 C43.257,58.000 3.174,58.000 3.174,58.000 C3.014,58.000 2.855,57.983 2.699,57.952 C2.646,57.942 2.599,57.923 2.549,57.910 C1.552,57.653 0.710,56.837 0.710,56.000 C0.710,56.000 0.710,55.537 0.710,55.537 L0.710,39.000 C0.710,39.000 0.710,2.926 0.710,2.926 C0.710,0.916 1.987,0.000 3.174,0.000 C3.174,0.000 32.202,0.000 32.202,0.000 C32.697,0.000 33.181,0.201 33.531,0.550 C33.531,0.550 34.302,1.321 34.302,1.321 L44.399,11.416 C44.399,11.416 45.170,12.187 45.170,12.187 C45.628,12.645 45.720,13.211 45.720,13.978 C45.720,13.978 45.720,39.000 45.720,39.000 L45.720,55.537 C45.720,55.537 45.720,56.000 45.720,56.000 C45.720,56.837 44.878,57.653 43.882,57.910 zM33.718,3.565 L33.718,12.000 L42.155,12.000 L33.718,3.565 zM43.720,13.978 C43.720,13.963 43.719,13.957 43.719,13.942 C43.593,13.975 43.464,14.000 43.329,14.000 C43.329,14.000 31.717,14.000 31.717,14.000 C31.717,14.000 31.717,2.391 31.717,2.391 C31.717,2.256 31.742,2.126 31.775,2.000 C31.775,2.000 3.174,2.000 3.174,2.000 C2.744,2.000 2.711,2.709 2.711,2.926 C2.711,2.926 2.711,39.000 2.711,39.000 L43.720,39.000 C43.720,39.000 43.720,13.978 43.720,13.978 zM43.720,41.000 L2.711,41.000 C2.711,41.000 2.711,55.537 2.711,55.537 C2.711,55.721 2.820,55.877 2.976,55.951 C3.039,55.974 3.103,56.000 3.174,56.000 C3.174,56.000 43.257,56.000 43.257,56.000 C43.328,56.000 43.392,55.974 43.455,55.951 C43.611,55.876 43.720,55.721 43.720,55.537 C43.720,55.537 43.720,41.000 43.720,41.000 zM7.712,12.000 C7.712,12.000 13.713,12.000 13.713,12.000 C14.265,12.000 14.713,12.448 14.713,13.000 C14.713,13.552 14.265,14.000 13.713,14.000 C13.713,14.000 7.712,14.000 7.712,14.000 C7.160,14.000 6.712,13.552 6.712,13.000 C6.712,12.448 7.160,12.000 7.712,12.000 zM7.712,17.000 C7.712,17.000 16.714,17.000 16.714,17.000 C17.266,17.000 17.714,17.448 17.714,18.000 C17.714,18.552 17.266,19.000 16.714,19.000 C16.714,19.000 7.712,19.000 7.712,19.000 C7.160,19.000 6.712,18.552 6.712,18.000 C6.712,17.448 7.160,17.000 7.712,17.000 zM7.712,22.000 C7.712,22.000 29.717,22.000 29.717,22.000 C30.269,22.000 30.717,22.448 30.717,23.000 C30.717,23.552 30.269,24.000 29.717,24.000 C29.717,24.000 7.712,24.000 7.712,24.000 C7.160,24.000 6.712,23.552 6.712,23.000 C6.712,22.448 7.160,22.000 7.712,22.000 zM7.712,27.000 C7.712,27.000 11.713,27.000 11.713,27.000 C12.265,27.000 12.713,27.448 12.713,28.000 C12.713,28.552 12.265,29.000 11.713,29.000 C11.713,29.000 7.712,29.000 7.712,29.000 C7.160,29.000 6.712,28.552 6.712,28.000 C6.712,27.448 7.160,27.000 7.712,27.000 zM8.422,32.290 C8.602,32.480 8.712,32.730 8.712,33.000 C8.712,33.260 8.602,33.520 8.422,33.710 C8.232,33.890 7.972,34.000 7.712,34.000 C7.452,34.000 7.192,33.890 7.002,33.710 C6.821,33.520 6.712,33.260 6.712,33.000 C6.712,32.740 6.821,32.480 7.002,32.290 C7.372,31.920 8.052,31.920 8.422,32.290 zM11.713,32.000 C11.713,32.000 19.714,32.000 19.714,32.000 C20.266,32.000 20.715,32.448 20.715,33.000 C20.715,33.552 20.266,34.000 19.714,34.000 C19.714,34.000 11.713,34.000 11.713,34.000 C11.160,34.000 10.712,33.552 10.712,33.000 C10.712,32.448 11.160,32.000 11.713,32.000 zM14.713,28.000 C14.713,27.448 15.161,27.000 15.713,27.000 C15.713,27.000 25.716,27.000 25.716,27.000 C26.268,27.000 26.716,27.448 26.716,28.000 C26.716,28.552 26.268,29.000 25.716,29.000 C25.716,29.000 15.713,29.000 15.713,29.000 C15.161,29.000 14.713,28.552 14.713,28.000 zM29.717,27.000 C29.717,27.000 38.719,27.000 38.719,27.000 C39.271,27.000 39.719,27.448 39.719,28.000 C39.719,28.552 39.271,29.000 38.719,29.000 C38.719,29.000 29.717,29.000 29.717,29.000 C29.165,29.000 28.716,28.552 28.716,28.000 C28.716,27.448 29.165,27.000 29.717,27.000 zM38.719,24.000 C38.719,24.000 32.717,24.000 32.717,24.000 C32.165,24.000 31.717,23.552 31.717,23.000 C31.717,22.448 32.165,22.000 32.717,22.000 C32.717,22.000 38.719,22.000 38.719,22.000 C39.271,22.000 39.719,22.448 39.719,23.000 C39.719,23.552 39.271,24.000 38.719,24.000 zM38.719,19.000 C38.719,19.000 36.718,19.000 36.718,19.000 C36.166,19.000 35.718,18.552 35.718,18.000 C35.718,17.448 36.166,17.000 36.718,17.000 C36.718,17.000 38.719,17.000 38.719,17.000 C39.271,17.000 39.719,17.448 39.719,18.000 C39.719,18.552 39.271,19.000 38.719,19.000 zM32.717,19.000 C32.717,19.000 24.716,19.000 24.716,19.000 C24.163,19.000 23.715,18.552 23.715,18.000 C23.715,17.448 24.163,17.000 24.716,17.000 C24.716,17.000 32.717,17.000 32.717,17.000 C33.269,17.000 33.718,17.448 33.718,18.000 C33.718,18.552 33.269,19.000 32.717,19.000 zM20.715,19.000 C20.455,19.000 20.194,18.890 20.005,18.710 C19.825,18.520 19.714,18.260 19.714,18.000 C19.714,17.740 19.825,17.480 20.005,17.290 C20.375,16.920 21.055,16.920 21.425,17.290 C21.605,17.480 21.715,17.740 21.715,18.000 C21.715,18.260 21.605,18.520 21.425,18.710 C21.235,18.890 20.975,19.000 20.715,19.000 z" fill="#000000" /><path id="Forma-1" d="M38.719,24.000 C38.719,24.000 32.717,24.000 32.717,24.000 C32.165,24.000 31.717,23.552 31.717,23.000 C31.717,22.448 32.165,22.000 32.717,22.000 C32.717,22.000 38.719,22.000 38.719,22.000 C39.271,22.000 39.719,22.448 39.719,23.000 C39.719,23.552 39.271,24.000 38.719,24.000 zM38.719,19.000 C38.719,19.000 36.718,19.000 36.718,19.000 C36.166,19.000 35.718,18.552 35.718,18.000 C35.718,17.448 36.166,17.000 36.718,17.000 C36.718,17.000 38.719,17.000 38.719,17.000 C39.271,17.000 39.719,17.448 39.719,18.000 C39.719,18.552 39.271,19.000 38.719,19.000 zM32.717,19.000 C32.717,19.000 24.716,19.000 24.716,19.000 C24.163,19.000 23.715,18.552 23.715,18.000 C23.715,17.448 24.163,17.000 24.716,17.000 C24.716,17.000 32.717,17.000 32.717,17.000 C33.269,17.000 33.718,17.448 33.718,18.000 C33.718,18.552 33.269,19.000 32.717,19.000 zM20.715,19.000 C20.455,19.000 20.194,18.890 20.005,18.710 C19.825,18.520 19.714,18.260 19.714,18.000 C19.714,17.740 19.825,17.480 20.005,17.290 C20.375,16.920 21.055,16.920 21.425,17.290 C21.605,17.480 21.715,17.740 21.715,18.000 C21.715,18.260 21.605,18.520 21.425,18.710 C21.235,18.890 20.975,19.000 20.715,19.000 zM16.714,19.000 C16.714,19.000 7.712,19.000 7.712,19.000 C7.160,19.000 6.712,18.552 6.712,18.000 C6.712,17.448 7.160,17.000 7.712,17.000 C7.712,17.000 16.714,17.000 16.714,17.000 C17.266,17.000 17.714,17.448 17.714,18.000 C17.714,18.552 17.266,19.000 16.714,19.000 zM13.713,14.000 C13.713,14.000 7.712,14.000 7.712,14.000 C7.160,14.000 6.712,13.552 6.712,13.000 C6.712,12.448 7.160,12.000 7.712,12.000 C7.712,12.000 13.713,12.000 13.713,12.000 C14.265,12.000 14.713,12.448 14.713,13.000 C14.713,13.552 14.265,14.000 13.713,14.000 zM7.712,22.000 C7.712,22.000 29.717,22.000 29.717,22.000 C30.269,22.000 30.717,22.448 30.717,23.000 C30.717,23.552 30.269,24.000 29.717,24.000 C29.717,24.000 7.712,24.000 7.712,24.000 C7.160,24.000 6.712,23.552 6.712,23.000 C6.712,22.448 7.160,22.000 7.712,22.000 zM7.712,27.000 C7.712,27.000 11.713,27.000 11.713,27.000 C12.265,27.000 12.713,27.448 12.713,28.000 C12.713,28.552 12.265,29.000 11.713,29.000 C11.713,29.000 7.712,29.000 7.712,29.000 C7.160,29.000 6.712,28.552 6.712,28.000 C6.712,27.448 7.160,27.000 7.712,27.000 zM8.422,32.290 C8.602,32.480 8.712,32.730 8.712,33.000 C8.712,33.260 8.602,33.520 8.422,33.710 C8.232,33.890 7.972,34.000 7.712,34.000 C7.452,34.000 7.192,33.890 7.002,33.710 C6.821,33.520 6.712,33.260 6.712,33.000 C6.712,32.740 6.821,32.480 7.002,32.290 C7.372,31.920 8.052,31.920 8.422,32.290 zM11.713,32.000 C11.713,32.000 19.714,32.000 19.714,32.000 C20.266,32.000 20.715,32.448 20.715,33.000 C20.715,33.552 20.266,34.000 19.714,34.000 C19.714,34.000 11.713,34.000 11.713,34.000 C11.160,34.000 10.712,33.552 10.712,33.000 C10.712,32.448 11.160,32.000 11.713,32.000 zM14.713,28.000 C14.713,27.448 15.161,27.000 15.713,27.000 C15.713,27.000 25.716,27.000 25.716,27.000 C26.268,27.000 26.716,27.448 26.716,28.000 C26.716,28.552 26.268,29.000 25.716,29.000 C25.716,29.000 15.713,29.000 15.713,29.000 C15.161,29.000 14.713,28.552 14.713,28.000 zM29.717,27.000 C29.717,27.000 38.719,27.000 38.719,27.000 C39.271,27.000 39.719,27.448 39.719,28.000 C39.719,28.552 39.271,29.000 38.719,29.000 C38.719,29.000 29.717,29.000 29.717,29.000 C29.165,29.000 28.716,28.552 28.716,28.000 C28.716,27.448 29.165,27.000 29.717,27.000 z" fill="#000000" /><path id="Forma-1" d="M3.174,56.000 C3.103,56.000 3.039,55.974 2.976,55.951 C2.820,55.877 2.711,55.721 2.711,55.537 C2.711,55.537 2.711,41.000 2.711,41.000 L43.720,41.000 C43.720,41.000 43.720,55.537 43.720,55.537 C43.720,55.721 43.611,55.876 43.455,55.951 C43.392,55.974 43.328,56.000 43.257,56.000 C43.257,56.000 3.174,56.000 3.174,56.000 z" fill="#2C99D1" /><path id="Forma-1" d="M35.932,45.292 C35.654,45.174 35.365,45.114 35.064,45.114 C34.726,45.114 34.405,45.177 34.100,45.305 C33.795,45.433 33.521,45.648 33.279,45.954 C33.038,46.260 32.848,46.655 32.711,47.138 C32.574,47.621 32.501,48.213 32.492,48.915 C32.501,49.599 32.572,50.182 32.704,50.665 C32.836,51.149 33.019,51.542 33.252,51.848 C33.484,52.154 33.749,52.376 34.045,52.518 C34.341,52.660 34.654,52.730 34.982,52.730 C35.310,52.730 35.618,52.670 35.905,52.552 C36.192,52.434 36.454,52.243 36.691,51.978 C36.691,51.978 37.827,52.976 37.827,52.976 C37.453,53.340 37.029,53.613 36.555,53.796 C36.081,53.978 35.571,54.069 35.024,54.069 C34.423,54.069 33.869,53.960 33.363,53.741 C32.856,53.522 32.414,53.199 32.036,52.770 C31.657,52.342 31.361,51.804 31.147,51.157 C30.933,50.510 30.826,49.762 30.826,48.915 C30.826,48.068 30.933,47.323 31.147,46.680 C31.361,46.038 31.658,45.503 32.036,45.074 C32.414,44.645 32.858,44.320 33.369,44.096 C33.880,43.872 34.431,43.761 35.024,43.761 C35.571,43.761 36.081,43.851 36.555,44.034 C37.028,44.216 37.453,44.490 37.827,44.854 C37.827,44.854 36.691,45.866 36.691,45.866 C36.463,45.602 36.210,45.410 35.932,45.292 zM27.481,52.768 C27.103,53.197 26.661,53.520 26.155,53.739 C25.649,53.958 25.095,54.067 24.494,54.067 C23.892,54.067 23.338,53.958 22.832,53.739 C22.326,53.520 21.884,53.197 21.506,52.768 C21.127,52.340 20.831,51.802 20.617,51.155 C20.403,50.508 20.296,49.760 20.296,48.913 C20.296,48.066 20.403,47.321 20.617,46.678 C20.831,46.036 21.128,45.501 21.506,45.072 C21.884,44.643 22.326,44.318 22.832,44.094 C23.338,43.870 23.892,43.759 24.494,43.759 C25.095,43.759 25.649,43.870 26.155,44.094 C26.661,44.318 27.103,44.643 27.481,45.072 C27.859,45.501 28.155,46.036 28.370,46.678 C28.584,47.320 28.691,48.066 28.691,48.913 C28.691,49.760 28.584,50.508 28.370,51.155 C28.155,51.802 27.859,52.339 27.481,52.768 zM26.811,47.171 C26.679,46.692 26.496,46.298 26.264,45.988 C26.032,45.678 25.767,45.455 25.471,45.318 C25.174,45.181 24.862,45.113 24.534,45.113 C24.195,45.113 23.874,45.176 23.569,45.304 C23.264,45.432 22.990,45.647 22.749,45.953 C22.508,46.259 22.319,46.653 22.182,47.136 C22.045,47.619 21.972,48.211 21.963,48.913 C21.972,49.597 22.043,50.180 22.175,50.663 C22.307,51.147 22.490,51.540 22.722,51.846 C22.954,52.152 23.219,52.374 23.515,52.516 C23.811,52.658 24.124,52.728 24.452,52.728 C24.790,52.728 25.111,52.662 25.417,52.530 C25.722,52.399 25.995,52.182 26.237,51.881 C26.478,51.580 26.667,51.185 26.804,50.698 C26.941,50.211 27.013,49.616 27.023,48.914 C27.014,48.231 26.943,47.650 26.811,47.171 zM17.770,52.283 C17.496,52.680 17.189,52.992 16.847,53.220 C16.505,53.448 16.175,53.619 15.856,53.733 C15.537,53.848 15.244,53.920 14.980,53.952 C14.715,53.984 14.519,54.000 14.392,54.000 C14.392,54.000 10.577,54.000 10.577,54.000 L10.577,43.924 C10.577,43.924 13.613,43.924 13.613,43.924 C14.460,43.924 15.205,44.059 15.849,44.327 C16.492,44.595 17.025,44.954 17.449,45.400 C17.873,45.847 18.190,46.355 18.400,46.923 C18.609,47.492 18.714,48.078 18.714,48.680 C18.714,49.509 18.625,50.218 18.447,50.806 C18.269,51.394 18.044,51.886 17.770,52.283 zM16.841,47.396 C16.740,46.986 16.547,46.615 16.260,46.282 C15.973,45.949 15.583,45.680 15.090,45.475 C14.598,45.270 13.960,45.167 13.176,45.167 C13.176,45.167 12.219,45.167 12.219,45.167 L12.219,52.796 C12.219,52.796 13.846,52.796 13.846,52.796 C14.958,52.796 15.761,52.441 16.253,51.730 C16.745,51.020 16.991,49.989 16.991,48.640 C16.991,48.221 16.941,47.806 16.841,47.396 z" fill="#FFFFFF" /></g></svg>