<svg version="1.1" xmlns="http://www.w3.org/2000/svg" xmlns:xlink="http://www.w3.org/1999/xlink" width="21" height="20" viewBox="0 0 21 20"><path id="enregistrer" d="M20.683,4.683 C20.683,4.683 16.336,0.409 16.336,0.409 C16.234,0.308 16.102,0.265 15.958,0.265 C15.958,0.265 2.040,0.265 2.040,0.265 C1.418,0.265 0.884,0.740 0.884,1.356 C0.884,1.356 0.884,18.867 0.884,18.867 C0.884,19.484 1.418,20.013 2.040,20.013 C2.040,20.013 19.728,20.013 19.728,20.013 C20.351,20.013 20.831,19.484 20.831,18.867 C20.831,18.867 20.831,5.067 20.831,5.067 C20.831,4.923 20.786,4.785 20.683,4.683 zM13.180,1.347 L14.273,1.347 L14.273,6.216 L13.180,6.216 L13.180,1.347 zM6.895,1.347 L12.087,1.347 L12.087,6.216 L6.895,6.216 L6.895,1.347 L6.895,1.347 zM16.295,18.931 L5.365,18.931 L5.365,17.199 L16.295,17.199 L16.295,18.931 zM16.295,16.117 L5.365,16.117 L5.365,14.440 L16.295,14.440 L16.295,16.117 zM16.295,13.358 L5.365,13.358 L5.365,11.627 L16.295,11.627 L16.295,13.358 zM19.728,18.931 C19.728,18.931 17.388,18.931 17.388,18.931 C17.388,18.931 17.388,11.059 17.388,11.059 C17.388,10.760 17.170,10.545 16.868,10.545 C16.868,10.545 4.846,10.545 4.846,10.545 C4.544,10.545 4.272,10.760 4.272,11.059 C4.272,11.059 4.272,18.931 4.272,18.931 C4.272,18.931 2.040,18.931 2.040,18.931 C2.020,18.931 1.977,18.887 1.977,18.867 C1.977,18.867 1.977,1.356 1.977,1.356 C1.977,1.336 2.020,1.347 2.040,1.347 C2.040,1.347 5.802,1.347 5.802,1.347 C5.802,1.347 5.802,6.730 5.802,6.730 C5.802,7.029 6.074,7.298 6.376,7.298 C6.376,7.298 14.847,7.298 14.847,7.298 C15.148,7.298 15.366,7.029 15.366,6.730 C15.366,6.730 15.366,1.347 15.366,1.347 L15.732,1.347 L19.738,5.292 C19.738,5.292 19.738,18.867 19.738,18.867 C19.738,18.887 19.749,18.931 19.728,18.931 z" fill="#585858" /></svg>