<svg width="16" height="16" viewBox="0 0 16 16" fill="none" xmlns="http://www.w3.org/2000/svg">
<path fill-rule="evenodd" clip-rule="evenodd" d="M6.43068 1.04095C4.91401 0.97391 3.99066 0.991833 2.76899 1.07537C2.00755 1.12743 1.41465 1.708 1.32968 2.4263C0.975243 5.42247 0.855448 8.44639 1.22798 11.4764C1.38391 12.7446 2.44943 13.6419 3.68472 13.7726C6.60169 14.081 9.47666 14.073 12.3915 13.7649C13.632 13.6337 14.6268 12.6815 14.775 11.4764C15.0054 9.60267 15.066 7.68541 14.9236 5.34402C14.8499 4.13429 13.8729 3.1598 12.6281 3.05972C11.3892 2.9601 10.4757 2.94231 9.12487 2.91603C8.92673 2.91218 8.71897 2.90813 8.49962 2.90362C8.28716 2.89925 8.09823 2.7687 8.0242 2.57453L7.81532 2.02671C7.59962 1.46104 7.05737 1.06865 6.43068 1.04095Z" fill="#110945"/>
</svg>
