<svg version="1.1" xmlns="http://www.w3.org/2000/svg" xmlns:xlink="http://www.w3.org/1999/xlink" width="22" height="17" viewBox="0 0 22 17"><path id="dossier" d="M9.726,2.509 L8.033,0.197 L7.889,-0.000 L0.000,-0.000 L0.000,17.000 L22.000,17.000 L22.000,2.509 L9.726,2.509 zM21.267,3.226 L21.267,5.019 L11.563,5.019 L10.251,3.226 L21.267,3.226 zM0.733,16.283 L0.733,0.717 L7.511,0.717 L9.344,3.226 L9.349,3.226 C9.349,3.226 11.069,5.575 11.069,5.575 C11.140,5.672 11.252,5.724 11.367,5.725 C11.367,5.725 11.367,5.736 11.367,5.736 L21.267,5.736 L21.267,16.283 L0.733,16.283 z" fill="#686868" /></svg>