<svg width="24" height="24" viewBox="0 0 24 24" fill="none" xmlns="http://www.w3.org/2000/svg">
<path d="M12.5096 2C10.5143 2 8.912 2.01917 8.92254 2.04504C8.93213 2.06421 10.5594 4.921 12.5393 8.38921L16.1426 14.6893H19.746C21.7402 14.6893 23.3426 14.6701 23.332 14.6443C23.3272 14.6251 21.6952 11.7683 19.7143 8.30008L16.111 2H12.5096ZM7.94792 3.65792C6.77903 5.67113 5.61943 7.68972 4.46917 9.71363L1 15.7837L2.81125 18.9443L4.61771 22.1039L8.08687 16.0329L11.5541 9.96663L9.75246 6.81658C8.7625 5.08488 7.95271 3.66367 7.94792 3.65792ZM10.1128 15.7837L9.91825 16.1172C9.809 16.307 8.99825 17.7195 8.11658 19.2673C7.578 20.2182 7.03558 21.1669 6.48933 22.1135C6.47975 22.1384 9.59433 22.1537 13.4104 22.1537H20.3526L22.0737 19.1283C23.0244 17.4665 23.8467 16.0329 23.9003 15.9438L24 15.7837H17.053H10.1128Z" fill="#110945"/>
</svg>
