<svg version="1.1" xmlns="http://www.w3.org/2000/svg" xmlns:xlink="http://www.w3.org/1999/xlink" width="21" height="16" viewBox="0 0 21 16"><path id="graphiques" d="M20.501,-0.001 C20.501,-0.001 17.501,-0.001 17.501,-0.001 C17.224,-0.001 17.000,0.255 17.000,0.571 C17.000,0.886 17.224,1.142 17.501,1.142 C17.501,1.142 19.294,1.142 19.294,1.142 L11.001,10.620 C11.001,10.620 7.856,7.024 7.856,7.024 C7.766,6.921 7.640,6.857 7.502,6.857 C7.364,6.857 7.240,6.920 7.149,7.024 C7.149,7.024 0.150,15.024 0.150,15.024 C0.060,15.128 0.004,15.270 0.004,15.428 C0.004,15.744 0.227,16.000 0.503,16.000 C0.641,16.000 0.767,15.936 0.857,15.833 C0.857,15.833 7.502,8.236 7.502,8.236 C7.502,8.236 10.648,11.831 10.648,11.831 C10.738,11.935 10.864,12.000 11.001,12.000 C11.140,12.000 11.265,11.935 11.356,11.831 C11.356,11.831 20.000,1.950 20.000,1.950 C20.000,1.950 20.000,3.998 20.000,3.998 C20.000,3.999 20.000,3.999 20.000,3.999 C20.000,4.315 20.224,4.571 20.501,4.571 C20.776,4.571 21.000,4.315 21.000,3.999 C21.000,3.999 21.000,0.571 21.000,0.571 C21.000,0.255 20.776,-0.001 20.501,-0.001 z" fill="#828282" /></svg>