<?xml version="1.0" encoding="utf-8"?>
<!-- Generator: Adobe Illustrator 21.0.0, SVG Export Plug-In . SVG Version: 6.00 Build 0)  -->
<svg version="1.1" id="Слой_1" xmlns="http://www.w3.org/2000/svg" xmlns:xlink="http://www.w3.org/1999/xlink" x="0px" y="0px"
	 viewBox="0 0 24 24" style="enable-background:new 0 0 24 24;" xml:space="preserve">
<title>?</title>
<desc>Created with Sketch.</desc>
<g id="Header_x2F_ic_x5F_info" transform="translate(-14.000000, -9.000000)">
	<g id="Preview">
		<path id="_x3F_" d="M24.3,29.6h3.1V33h-3.1V29.6z M19,16.7c0-2.3,0.6-4.2,1.9-5.6c1.3-1.4,3-2.1,5.3-2.1c2.1,0,3.7,0.6,5,1.8
			c1.2,1.2,1.9,2.8,1.9,4.6c0,1.1-0.2,2.1-0.7,2.8c-0.5,0.7-1.4,1.8-2.8,3.1c-1,1-1.7,1.8-2,2.5c-0.3,0.7-0.4,1.7-0.4,3.1h-2.8
			c0-1.5,0.2-2.8,0.5-3.7s1.1-2,2.3-3.2l1.3-1.3c0.4-0.4,0.7-0.7,0.9-1.1c0.4-0.7,0.6-1.4,0.6-2.2c0-1.1-0.3-2-0.9-2.7
			c-0.6-0.8-1.6-1.2-3-1.2c-1.7,0-3,0.7-3.6,2c-0.4,0.7-0.6,1.8-0.6,3.2H19z"/>
	</g>
</g>
</svg>
