<?xml version="1.0" encoding="utf-8"?>
<!-- Generator: Adobe Illustrator 21.0.0, SVG Export Plug-In . SVG Version: 6.00 Build 0)  -->
<svg version="1.1" id="Слой_1" xmlns="http://www.w3.org/2000/svg" xmlns:xlink="http://www.w3.org/1999/xlink" x="0px" y="0px"
	 viewBox="0 0 24 24" style="enable-background:new 0 0 24 24;" xml:space="preserve">
<title>Path_7</title>
<desc>Created with Sketch.</desc>
<g id="Header_x2F_ic_x5F_save" transform="translate(-9.000000, -9.000000)">
	<g id="Preview">
		<path id="Path_7" d="M32.8,13.7l-4.6-4.6C28.1,9.1,27.9,9,27.8,9H10.6C9.7,9,9,9.7,9,10.6v20.8c0,0.4,0.2,0.8,0.5,1.1
			c0.3,0.3,0.7,0.5,1.1,0.5h20.8c0.9,0,1.6-0.7,1.6-1.6V14.2C33,14,32.9,13.8,32.8,13.7z M25.4,10.2v5.3c0,0,0,0,0,0l-1.7,0v-5.4
			H25.4z M22.5,10.2v5.4l-6,0c0,0,0,0,0,0c0,0,0,0,0,0l0-5.3H22.5z M14.6,31.8v-7.5c0-1.4,1.1-2.5,2.5-2.5h8.2
			c1.4,0,2.5,1.1,2.5,2.5v7.5L14.6,31.8L14.6,31.8z M31.8,31.4c0,0.2-0.2,0.4-0.4,0.4H29v-7.5c0-2.1-1.7-3.7-3.7-3.7h-8.1
			c-2.1,0-3.7,1.7-3.7,3.7v7.5h-2.8c-0.2,0-0.4-0.2-0.4-0.4V10.6c0-0.2,0.2-0.4,0.4-0.4h4.7v5.3c0,0.7,0.6,1.2,1.2,1.2h8.9
			c0.7,0,1.2-0.6,1.2-1.2v-5.3h0.9l4.2,4.2L31.8,31.4L31.8,31.4z M25.6,28.2c0,0.2-0.1,0.3-0.2,0.4c-0.1,0.1-0.3,0.2-0.4,0.2h-7.5
			c-0.3,0-0.6-0.3-0.6-0.6s0.3-0.6,0.6-0.6H25c0.2,0,0.3,0.1,0.4,0.2C25.5,27.9,25.6,28.1,25.6,28.2L25.6,28.2z M25.6,25.1
			c0,0.2-0.1,0.3-0.2,0.4c-0.1,0.1-0.3,0.2-0.4,0.2h-7.5c-0.3,0-0.6-0.3-0.6-0.6s0.3-0.6,0.6-0.6H25c0.2,0,0.3,0,0.4,0.1
			C25.5,24.8,25.6,24.9,25.6,25.1L25.6,25.1z"/>
	</g>
</g>
</svg>
