<?xml version="1.0" encoding="UTF-8"?>
<svg width="24px" height="22px" viewBox="0 0 24 22" version="1.1" xmlns="http://www.w3.org/2000/svg" xmlns:xlink="http://www.w3.org/1999/xlink">
    <!-- Generator: Sketch 48.1 (47250) - http://www.bohemiancoding.com/sketch -->
    <title>Shape Copy</title>
    <desc>Created with Sketch.</desc>
    <defs></defs>
    <g id="Header/ic_next" stroke="none" stroke-width="1" fill="none" fill-rule="evenodd" transform="translate(-8.000000, -9.000000)">
        <path d="M20.7275921,9 C19.5581062,9 19.73092,9.99655849 20.7279324,9.99655849 C26.3808115,9.99655849 30.9797525,14.4842264 30.9797525,20.0003321 C30.9797525,25.5164377 26.3804712,30.0037736 20.7275921,30.0037736 C15.4541579,30.0037736 11.0995591,26.0979019 10.5387292,21.0958491 L11.4351041,21.8031698 C11.6542633,21.9761811 11.9758557,21.9426415 12.1528166,21.729117 C12.3301178,21.5149283 12.2964271,21.2014491 12.0769276,21.0287698 L10.2831568,19.6128 C10.257974,19.5932075 10.2321104,19.5769358 10.2045454,19.5626566 C10.1681323,19.5447245 10.1449912,19.5357585 10.1215099,19.5284528 C10.072165,19.5145057 10.0537883,19.5118491 10.0343907,19.5091925 C9.95680015,19.5022189 9.94931334,19.5042113 9.94114592,19.5045434 C9.86763909,19.5128453 9.8570895,19.5148377 9.84585929,19.5174943 C9.82271825,19.5231396 9.79957722,19.5297811 9.7771168,19.5384151 C9.73185565,19.5570113 9.70735337,19.5699623 9.68387203,19.5849057 C9.65086202,19.6071547 9.62704036,19.6257509 9.60526056,19.6473358 C9.59505128,19.6572981 9.09785927,20.2540377 8.11368454,21.4375547 C7.93638335,21.6517434 7.97007398,21.9652226 8.18957353,22.1379019 C8.28383923,22.2126189 8.39750257,22.2488151 8.51014497,22.2488151 C8.65920048,22.2488151 8.80655444,22.1857208 8.90728602,22.0638491 L9.53651806,21.3050566 C10.2001214,26.7574038 14.9637721,31 20.7272518,31 C26.9433429,31 32,26.0656906 32,20 C32,13.9343094 26.9433388,9 20.7275921,9 Z" id="Shape-Copy" fill="#FFFFFF" fill-rule="nonzero" transform="translate(20.000000, 20.000000) scale(-1, -1) translate(-20.000000, -20.000000) "></path>
    </g>
</svg>