<?xml version="1.0" encoding="UTF-8"?>
<svg class="img-fluid" id="outputsvg" xmlns="http://www.w3.org/2000/svg" style="transform: matrix(0.769231, 0, 0, 0.769231, 0, 0); transform-origin: 50% 50%; cursor: move; max-height: none; transition: transform 200ms ease-in-out 0s;" width="20" height="20" viewBox="0 0 6550 9800">
  <g id="l3gttuAF4rGbpZL6Qlhy90r" fill="rgb(0,0,0)" style="transform: none;">
    <g>
      <path id="pCc3fTOZw" d="M203 9751 c-85 -60 -117 -97 -156 -180 -25 -53 -31 -80 -35 -161 -5 -96 -4 -99 33 -176 85 -177 236 -254 499 -254 l104 0 6 -122 c3 -68 8 -240 11 -383 7 -329 20 -489 50 -640 86 -429 266 -815 545 -1165 149 -186 315 -350 745 -736 409 -366 503 -472 609 -683 68 -136 80 -204 74 -396 -5 -120 -9 -150 -32 -210 -89 -234 -216 -383 -666 -788 -298 -268 -625 -594 -744 -742 -181 -226 -308 -449 -404 -705 -135 -361 -167 -573 -177 -1172 -3 -178 -8 -342 -11 -364 l-5 -42 -107 -7 c-142 -9 -246 -28 -309 -55 -66 -28 -155 -120 -190 -196 -47 -103 -46 -237 2 -342 29 -63 130 -168 195 -203 l45 -24 2998 -3 2997 -3 58 40 c83 56 139 117 175 190 26 53 32 78 35 151 7 138 -37 242 -140 334 -78 71 -168 96 -395 112 l-101 6 -6 142 c-3 77 -10 281 -16 451 -14 424 -37 583 -125 854 -173 534 -437 895 -1070 1459 -289 259 -586 554 -654 652 -204 292 -233 587 -86 885 24 50 68 122 97 160 71 94 250 272 498 495 426 383 608 566 784 785 211 264 346 528 455 890 68 225 88 374 101 775 6 173 13 379 16 458 l6 142 104 0 c263 0 411 75 499 252 37 76 37 78 33 175 -3 84 -8 108 -35 164 -38 82 -85 135 -166 188 l-63 41 -3006 0 -3005 0 -70 -49z m5367 -833 c-1 -171 -21 -736 -31 -833 -14 -146 -42 -282 -91 -433 -162 -507 -402 -826 -1073 -1422 -291 -259 -376 -341 -487 -465 -151 -169 -239 -312 -309 -500 l-34 -90 0 -260 c0 -218 3 -270 18 -324 28 -101 61 -176 129 -288 124 -205 244 -335 656 -705 342 -306 624 -591 737 -745 207 -282 320 -517 401 -836 54 -215 65 -333 79 -924 l7 -263 -2291 0 -2291 0 0 34 c0 143 22 763 30 851 14 144 50 305 111 489 85 259 203 472 389 706 113 142 427 454 695 692 442 392 621 598 727 838 68 156 78 213 78 465 0 263 -10 317 -94 490 -118 245 -298 444 -811 900 -237 210 -474 448 -584 585 -209 260 -349 526 -430 814 -84 298 -101 452 -101 929 l0 357 2285 0 2285 0 0 -62z"></path>
      <path id="pnMpHtA8" d="M1370 8813 c-41 -2 -85 -5 -97 -8 -51 -12 -45 -17 344 -298 639 -463 1508 -1064 1571 -1088 43 -17 123 -12 183 10 30 12 103 52 163 91 59 38 109 70 112 70 2 0 4 -22 4 -49 0 -60 33 -105 88 -120 46 -13 80 -5 114 26 36 34 52 76 44 116 -7 40 -27 60 -79 82 -20 8 -37 17 -37 20 0 19 160 136 690 505 378 263 609 428 754 538 83 64 96 77 82 87 -9 7 -75 15 -152 18 -131 7 -3629 6 -3784 0z"></path>
      <path id="pLOJuMvYm" d="M2894 7481 c-38 -23 -44 -32 -55 -80 -20 -86 31 -151 118 -151 63 0 104 39 110 106 11 112 -84 180 -173 125z"></path>
      <path id="pDPfEehT8" d="M3379 7143 c-23 -21 -48 -53 -56 -71 -13 -31 -12 -38 7 -77 32 -67 106 -93 170 -60 75 39 93 119 39 180 -33 38 -77 65 -103 65 -9 0 -35 -17 -57 -37z"></path>
      <path id="pJ2piCM7v" d="M3042 6734 c-48 -33 -65 -101 -38 -152 25 -49 53 -66 106 -66 60 0 97 23 124 78 18 36 18 39 0 78 -10 23 -32 49 -49 59 -37 23 -112 25 -143 3z"></path>
      <path id="pKDvwmLZW" d="M3383 6335 c-70 -30 -84 -143 -24 -197 39 -35 87 -44 134 -25 48 20 72 60 72 118 0 53 -21 84 -72 105 -40 17 -69 17 -110 -1z"></path>
      <path id="pGYC767BQ" d="M3048 5925 c-35 -19 -58 -63 -58 -109 0 -58 72 -126 134 -126 31 0 99 58 116 100 15 36 0 87 -35 120 -32 30 -117 38 -157 15z"></path>
      <path id="p1AZjWz7De" d="M3361 5664 c-57 -48 -51 -156 12 -194 110 -67 240 48 182 160 -33 63 -138 81 -194 34z"></path>
      <path id="pLQYrNS3G" d="M3230 5358 c-37 -20 -70 -75 -70 -118 0 -52 36 -102 87 -119 40 -14 42 -14 92 18 56 36 67 59 58 123 -11 79 -101 130 -167 96z"></path>
      <path id="paaTNx8PX" d="M3248 4980 c-24 -15 -44 -85 -72 -257 -28 -166 -57 -266 -112 -376 -137 -274 -285 -443 -781 -890 -525 -473 -689 -653 -842 -922 -55 -98 -190 -411 -198 -461 l-5 -31 173 -6 c226 -9 3511 -9 3737 0 139 5 172 9 172 20 0 8 -23 76 -51 151 -87 234 -193 422 -345 612 -94 117 -362 384 -584 581 -516 459 -712 676 -835 924 -64 130 -85 202 -125 427 -33 186 -42 211 -77 227 -29 13 -33 13 -55 1z"></path>
    </g>
  </g>
  
  <g id="l2KYH1xFCBTXu2OOoZOKMnR" fill="rgb(255,255,255)" style="transform: none;">
    <g>
      <path id="p11mAMzZMT" d="M6425 9690 c21 -22 41 -40 44 -40 3 0 -13 18 -34 40 -21 22 -41 40 -44 40 -3 0 13 -18 34 -40z"></path>
      <path id="pnj0qScZx" d="M124 9688 c-31 -34 -67 -81 -47 -63 21 20 85 95 81 95 -2 0 -18 -15 -34 -32z"></path>
      <path id="p10SgtYTWt" d="M6507 9235 c-15 -30 -25 -55 -22 -55 7 0 57 101 53 106 -2 2 -16 -21 -31 -51z"></path>
      <path id="pfOysaMs3" d="M30 9266 c0 -11 40 -86 45 -86 3 0 -4 19 -16 43 -23 45 -29 54 -29 43z"></path>
      <path id="pexv80l0a" d="M99 9142 c11 -16 28 -35 38 -43 9 -8 2 5 -17 29 -38 48 -52 57 -21 14z"></path>
      <path id="piyUMzHhs" d="M6424 9108 l-29 -33 33 29 c30 28 37 36 29 36 -2 0 -16 -15 -33 -32z"></path>
      <path id="pUChmA30l" d="M433 8983 c9 -2 25 -2 35 0 9 3 1 5 -18 5 -19 0 -27 -2 -17 -5z"></path>
      <path id="p16ErKIVMq" d="M6093 8983 c9 -2 25 -2 35 0 9 3 1 5 -18 5 -19 0 -27 -2 -17 -5z"></path>
      <path id="p13WXbKnoL" d="M653 8920 c0 -36 2 -50 4 -32 2 17 2 47 0 65 -2 17 -4 3 -4 -33z"></path>
      <path id="peyeEIkQ" d="M994 8655 c0 -181 2 -257 3 -168 2 89 2 237 0 330 -1 92 -3 20 -3 -162z"></path>
      <path id="pw6r9YA4I" d="M5903 8910 c0 -41 2 -58 4 -37 2 20 2 54 0 75 -2 20 -4 3 -4 -38z"></path>
      <path id="pBh7sgpWK" d="M1518 8813 c45 -2 119 -2 165 0 45 1 8 3 -83 3 -91 0 -128 -2 -82 -3z"></path>
      <path id="p129bMlB3z" d="M4878 8813 c46 -2 118 -2 160 0 42 1 5 3 -83 3 -88 0 -123 -2 -77 -3z"></path>
      <path id="ptCb5oJGY" d="M1314 8732 c8 -13 66 -56 66 -49 0 3 -17 17 -37 33 -20 15 -33 23 -29 16z"></path>
      <path id="pdyjQJ4MB" d="M5564 8630 c0 -58 1 -81 3 -52 2 28 2 76 0 105 -2 28 -3 5 -3 -53z"></path>
      <path id="puEmwdN4F" d="M664 8560 c0 -58 1 -81 3 -52 2 28 2 76 0 105 -2 28 -3 5 -3 -53z"></path>
      <path id="pq77LRtIo" d="M5075 8604 l-30 -26 33 22 c17 12 32 23 32 26 0 7 -4 5 -35 -22z"></path>
      <path id="p9Vg8eya5" d="M5894 8535 c0 -55 1 -76 3 -47 2 29 2 74 0 100 -2 26 -3 2 -3 -53z"></path>
      <path id="pXZ8pSq7P" d="M1470 8616 c0 -2 14 -14 30 -26 17 -12 30 -19 30 -16 0 2 -13 14 -30 26 -16 12 -30 19 -30 16z"></path>
      <path id="pFelfhFDH" d="M1580 8536 c0 -2 14 -14 30 -26 17 -12 30 -19 30 -16 0 2 -13 14 -30 26 -16 12 -30 19 -30 16z"></path>
      <path id="pwhlHw4rq" d="M1650 8486 c0 -2 14 -14 30 -26 17 -12 30 -19 30 -16 0 2 -13 14 -30 26 -16 12 -30 19 -30 16z"></path>
      <path id="pLKds2M0E" d="M4825 8424 l-30 -26 33 22 c17 12 32 23 32 26 0 7 -4 5 -35 -22z"></path>
      <path id="pLOV2WkHY" d="M1720 8436 c0 -2 14 -14 30 -26 17 -12 30 -19 30 -16 0 2 -13 14 -30 26 -16 12 -30 19 -30 16z"></path>
      <path id="pASyjAqt0" d="M4725 8354 l-30 -26 33 22 c17 12 32 23 32 26 0 7 -4 5 -35 -22z"></path>
      <path id="p1AUqijv7R" d="M1860 8336 c0 -2 14 -14 30 -26 17 -12 30 -19 30 -16 0 2 -13 14 -30 26 -16 12 -30 19 -30 16z"></path>
      <path id="pPtfbVd7B" d="M5553 8285 c0 -33 2 -45 4 -27 2 18 2 45 0 60 -2 15 -4 0 -4 -33z"></path>
      <path id="p14tvMHVWK" d="M4625 8284 l-30 -26 33 22 c17 12 32 23 32 26 0 7 -4 5 -35 -22z"></path>
      <path id="p11NfuQjxg" d="M1930 8286 c0 -2 14 -14 30 -26 17 -12 30 -19 30 -16 0 2 -13 14 -30 26 -16 12 -30 19 -30 16z"></path>
      <path id="p1EVf6Z1fY" d="M5883 8235 c0 -33 2 -45 4 -27 2 18 2 45 0 60 -2 15 -4 0 -4 -33z"></path>
      <path id="pkyih3n4z" d="M673 8220 c0 -36 2 -50 4 -32 2 17 2 47 0 65 -2 17 -4 3 -4 -33z"></path>
      <path id="piL16Lcpo" d="M2000 8236 c0 -2 14 -14 30 -26 17 -12 30 -19 30 -16 0 2 -13 14 -30 26 -16 12 -30 19 -30 16z"></path>
      <path id="pwJJCtmHn" d="M4525 8214 l-30 -26 33 22 c17 12 32 23 32 26 0 7 -4 5 -35 -22z"></path>
      <path id="pFxw0YOwn" d="M1002 8200 c0 -19 2 -27 5 -17 2 9 2 25 0 35 -3 9 -5 1 -5 -18z"></path>
      <path id="pD3qJAUMg" d="M4395 8124 l-30 -26 33 22 c17 12 32 23 32 26 0 7 -4 5 -35 -22z"></path>
      <path id="py0yKZU9d" d="M5543 8115 c0 -22 2 -30 4 -17 2 12 2 30 0 40 -3 9 -5 -1 -4 -23z"></path>
      <path id="pBkCfN1QB" d="M2170 8116 c0 -2 14 -14 30 -26 17 -12 30 -19 30 -16 0 2 -13 14 -30 26 -16 12 -30 19 -30 16z"></path>
      <path id="piWrHhjzs" d="M5873 8075 c0 -22 2 -30 4 -17 2 12 2 30 0 40 -3 9 -5 -1 -4 -23z"></path>
      <path id="p4aBgIB4B" d="M682 8060 c0 -19 2 -27 5 -17 2 9 2 25 0 35 -3 9 -5 1 -5 -18z"></path>
      <path id="pQ9EmY0GT" d="M4295 8054 l-30 -26 33 22 c17 12 32 23 32 26 0 7 -4 5 -35 -22z"></path>
      <path id="pFkdmzyjU" d="M2270 8046 c0 -2 14 -14 30 -26 17 -12 30 -19 30 -16 0 2 -13 14 -30 26 -16 12 -30 19 -30 16z"></path>
      <path id="pfcl7nneP" d="M2370 7976 c0 -2 14 -14 30 -26 17 -12 30 -19 30 -16 0 2 -13 14 -30 26 -16 12 -30 19 -30 16z"></path>
      <path id="p1XNuyY1b" d="M2440 7926 c0 -2 14 -14 30 -26 17 -12 30 -19 30 -16 0 2 -13 14 -30 26 -16 12 -30 19 -30 16z"></path>
      <path id="p1AivbGyaw" d="M4065 7894 l-30 -26 33 22 c17 12 32 23 32 26 0 7 -4 5 -35 -22z"></path>
      <path id="p1E1gDXFCM" d="M3995 7844 l-30 -26 33 22 c17 12 32 23 32 26 0 7 -4 5 -35 -22z"></path>
      <path id="ptNsJQB7b" d="M2570 7836 c0 -2 14 -14 30 -26 17 -12 30 -19 30 -16 0 2 -13 14 -30 26 -16 12 -30 19 -30 16z"></path>
      <path id="ppb34y1ou" d="M2700 7746 c0 -2 14 -14 30 -26 17 -12 30 -19 30 -16 0 2 -13 14 -30 26 -16 12 -30 19 -30 16z"></path>
      <path id="pW9w33fT3" d="M2800 7676 c0 -3 27 -24 60 -46 33 -22 60 -38 60 -36 0 3 -27 24 -60 46 -33 22 -60 38 -60 36z"></path>
      <path id="prBU6GzbL" d="M3892 7540 c0 -19 2 -27 5 -17 2 9 2 25 0 35 -3 9 -5 1 -5 -18z"></path>
      <path id="pWcK1QZKp" d="M2861 7454 c-12 -15 -21 -32 -21 -38 0 -6 6 -2 12 9 6 11 18 28 26 38 8 9 12 17 9 17 -3 0 -15 -12 -26 -26z"></path>
      <path id="pR6wS5evx" d="M3410 7455 c-25 -13 -41 -24 -37 -25 11 0 87 39 87 45 0 7 0 7 -50 -20z"></path>
      <path id="pVXq21osq" d="M1210 7376 c0 -10 60 -126 65 -126 3 0 -9 28 -26 63 -33 65 -39 75 -39 63z"></path>
      <path id="pGoa7Y1ZE" d="M2840 7323 c0 -6 9 -21 21 -34 l20 -24 -17 30 c-24 39 -24 40 -24 28z"></path>
      <path id="pA03MqtCz" d="M3031 7286 l-24 -31 28 27 c16 15 27 29 24 31 -2 3 -15 -10 -28 -27z"></path>
      <path id="p149Cg9jZR" d="M5642 7225 c-17 -37 -14 -45 4 -12 9 16 14 31 11 33 -2 2 -9 -7 -15 -21z"></path>
      <path id="peWBxMN4V" d="M3369 7131 c-27 -26 -49 -54 -49 -62 0 -8 8 0 19 16 26 42 63 75 97 85 27 8 27 8 5 9 -16 1 -40 -15 -72 -48z"></path>
      <path id="p5j8O3EkR" d="M1336 7138 c21 -36 85 -128 89 -128 3 0 -16 32 -41 70 -26 39 -49 70 -51 70 -2 0 -1 -6 3 -12z"></path>
      <path id="p02MmYQ3J" d="M5575 7090 c-9 -16 -13 -30 -11 -30 3 0 12 14 21 30 9 17 13 30 11 30 -3 0 -12 -13 -21 -30z"></path>
      <path id="pfaEc7hZ7" d="M5150 7040 c-12 -16 -19 -30 -16 -30 2 0 14 14 26 30 12 17 19 30 16 30 -2 0 -14 -13 -26 -30z"></path>
      <path id="p1FXRauGAy" d="M3560 7012 c0 -6 -12 -25 -27 -44 -22 -27 -23 -29 -4 -13 27 23 45 54 37 63 -3 3 -6 0 -6 -6z"></path>
      <path id="pCsOSFAP2" d="M5014 6863 c-27 -31 -44 -54 -37 -50 14 9 97 107 90 107 -2 0 -26 -26 -53 -57z"></path>
      <path id="p1xHyilIP" d="M5420 6840 c-12 -16 -19 -30 -16 -30 2 0 14 14 26 30 12 17 19 30 16 30 -2 0 -14 -13 -26 -30z"></path>
      <path id="pbVNzcb0N" d="M1160 6800 c12 -16 24 -30 26 -30 3 0 -4 14 -16 30 -12 17 -24 30 -26 30 -3 0 4 -13 16 -30z"></path>
      <path id="p19pxGh1G2" d="M1620 6768 c24 -27 45 -48 47 -48 8 0 0 9 -44 50 l-48 45 45 -47z"></path>
      <path id="pODqkLdpm" d="M4915 6748 l-50 -53 53 50 c48 46 57 55 49 55 -1 0 -25 -24 -52 -52z"></path>
      <path id="p1ZkWLrYE" d="M1770 6608 c57 -60 106 -108 107 -108 8 0 -5 13 -104 110 l-108 105 105 -107z"></path>
      <path id="p1CFEZEhtj" d="M4755 6578 l-100 -103 103 100 c95 93 107 105 99 105 -1 0 -47 -46 -102 -102z"></path>
      <path id="pEQYHgKeh" d="M5254 6628 l-29 -33 33 29 c30 28 37 36 29 36 -2 0 -16 -15 -33 -32z"></path>
      <path id="poZ4jvKhl" d="M3222 6585 c-6 -14 -26 -34 -44 -45 -18 -11 -28 -20 -22 -20 26 0 95 73 81 86 -2 2 -9 -7 -15 -21z"></path>
      <path id="p3SqywBgb" d="M5175 6538 l-50 -53 53 50 c48 46 57 55 49 55 -1 0 -25 -24 -52 -52z"></path>
      <path id="pdsxcC1fp" d="M3032 6545 c15 -16 29 -27 31 -24 3 2 -10 15 -27 28 l-31 24 27 -28z"></path>
      <path id="pAani1QQF" d="M1400 6505 c30 -30 57 -55 59 -55 3 0 -19 25 -49 55 -30 30 -57 55 -59 55 -3 0 19 -25 49 -55z"></path>
      <path id="p1FGtH6C8s" d="M1950 6435 c30 -30 57 -55 59 -55 3 0 -19 25 -49 55 -30 30 -57 55 -59 55 -3 0 19 -25 49 -55z"></path>
      <path id="pyELsQy3L" d="M4580 6413 l-65 -68 68 65 c37 35 67 66 67 67 0 8 -10 -2 -70 -64z"></path>
      <path id="ptvOz3bOR" d="M5005 6358 l-110 -113 113 110 c104 102 117 115 109 115 -1 0 -52 -51 -112 -112z"></path>
      <path id="pdpqalFNV" d="M2055 6340 c21 -22 41 -40 44 -40 3 0 -13 18 -34 40 -21 22 -41 40 -44 40 -3 0 13 -18 34 -40z"></path>
      <path id="pFb35ziMA" d="M1620 6285 c47 -47 87 -85 90 -85 2 0 -33 38 -80 85 -47 47 -87 85 -90 85 -2 0 33 -38 80 -85z"></path>
      <path id="p13P8Nmo9t" d="M3423 6343 c9 -2 25 -2 35 0 9 3 1 5 -18 5 -19 0 -27 -2 -17 -5z"></path>
      <path id="prL1oRtWe" d="M4465 6308 l-40 -43 43 40 c23 21 42 40 42 42 0 8 -9 0 -45 -39z"></path>
      <path id="p7DyoRwLo" d="M3359 6319 l-24 -20 30 17 c39 24 40 24 28 24 -6 0 -21 -9 -34 -21z"></path>
      <path id="p14oAR8tvx" d="M3531 6304 c13 -17 26 -30 28 -27 3 2 -8 16 -24 31 l-28 27 24 -31z"></path>
      <path id="pmfvWfIFh" d="M2145 6260 c21 -22 41 -40 44 -40 3 0 -13 18 -34 40 -21 22 -41 40 -44 40 -3 0 13 -18 34 -40z"></path>
      <path id="pIK72Raix" d="M3323 6230 c0 -25 2 -35 4 -22 2 12 2 32 0 45 -2 12 -4 2 -4 -23z"></path>
      <path id="pHnJaLLVR" d="M4375 6228 l-40 -43 43 40 c39 36 47 45 39 45 -2 0 -21 -19 -42 -42z"></path>
      <path id="pZH10iBFk" d="M3562 6230 c0 -19 2 -27 5 -17 2 9 2 25 0 35 -3 9 -5 1 -5 -18z"></path>
      <path id="ppDjyoaD6" d="M4805 6168 l-60 -63 63 60 c58 55 67 65 59 65 -1 0 -29 -28 -62 -62z"></path>
      <path id="pOTwu7gyE" d="M2240 6178 c24 -27 45 -48 47 -48 8 0 0 9 -44 50 l-48 45 45 -47z"></path>
      <path id="pIhdCDl9k" d="M1765 6150 c27 -27 51 -50 54 -50 3 0 -17 23 -44 50 -27 28 -51 50 -54 50 -3 0 17 -22 44 -50z"></path>
      <path id="pff3Cej7i" d="M3532 6152 l-23 -37 26 28 c14 15 25 32 25 38 0 14 -3 11 -28 -29z"></path>
      <path id="p1HCuPfB1N" d="M4285 6148 l-40 -43 43 40 c23 21 42 40 42 42 0 8 -9 0 -45 -39z"></path>
      <path id="pbkmC0U3" d="M3330 6173 c0 -5 12 -20 28 -34 l27 -24 -25 30 c-14 17 -26 32 -27 34 -2 2 -3 0 -3 -6z"></path>
      <path id="pwak5eoB8" d="M2360 6065 c35 -36 67 -65 69 -65 3 0 -24 29 -59 65 -35 36 -67 65 -69 65 -3 0 24 -29 59 -65z"></path>
      <path id="pAqNbmAUH" d="M4185 6058 l-50 -53 53 50 c48 46 57 55 49 55 -1 0 -25 -24 -52 -52z"></path>
      <path id="p1Fzl6JNNj" d="M1870 6058 c24 -27 45 -48 47 -48 8 0 0 9 -44 50 l-48 45 45 -47z"></path>
      <path id="pJlVLC7zZ" d="M4685 6058 l-40 -43 43 40 c23 21 42 40 42 42 0 8 -9 0 -45 -39z"></path>
      <path id="p1G6SSoXYv" d="M1965 5970 c21 -22 41 -40 44 -40 3 0 -13 18 -34 40 -21 22 -41 40 -44 40 -3 0 13 -18 34 -40z"></path>
      <path id="psIp5gRVr" d="M4010 5893 l-115 -118 118 115 c64 63 117 116 117 117 0 8 -13 -5 -120 -114z"></path>
      <path id="pJb63ehxw" d="M4585 5968 l-40 -43 43 40 c23 21 42 40 42 42 0 8 -9 0 -45 -39z"></path>
      <path id="pNm4NjN4B" d="M2525 5910 c38 -38 72 -70 74 -70 3 0 -26 32 -64 70 -38 39 -72 70 -74 70 -3 0 26 -31 64 -70z"></path>
      <path id="pQCg6ZPtz" d="M2055 5890 c21 -22 41 -40 44 -40 3 0 -13 18 -34 40 -21 22 -41 40 -44 40 -3 0 13 -18 34 -40z"></path>
      <path id="pnzP1nmL6" d="M3171 5928 c2 -2 18 -14 34 -28 l30 -25 -24 28 c-14 15 -29 27 -34 27 -6 0 -8 -1 -6 -2z"></path>
      <path id="pMsOXLYlQ" d="M4485 5878 l-40 -43 43 40 c23 21 42 40 42 42 0 8 -9 0 -45 -39z"></path>
      <path id="pdfWJ6tOt" d="M2150 5808 c24 -27 45 -48 47 -48 8 0 0 9 -44 50 l-48 45 45 -47z"></path>
      <path id="p1EWMnkUJX" d="M4370 5773 l-65 -68 68 65 c37 35 67 66 67 67 0 8 -10 -2 -70 -64z"></path>
      <path id="pVSoGq7H7" d="M2655 5770 c27 -27 51 -50 54 -50 3 0 -17 23 -44 50 -27 28 -51 50 -54 50 -3 0 17 -22 44 -50z"></path>
      <path id="pmKHd87w5" d="M2991 5797 c-1 -9 14 -32 32 -50 17 -18 22 -21 10 -7 -12 14 -26 36 -32 50 -7 18 -10 20 -10 7z"></path>
      <path id="pkYUGhCSC" d="M3189 5733 l-34 -38 38 34 c20 19 37 36 37 38 0 8 -8 0 -41 -34z"></path>
      <path id="pGPQjXZlk" d="M3859 5733 l-34 -38 38 34 c20 19 37 36 37 38 0 8 -8 0 -41 -34z"></path>
      <path id="pJkzI6y0n" d="M2305 5660 c55 -55 102 -100 105 -100 2 0 -40 45 -95 100 -55 55 -102 100 -105 100 -2 0 40 -45 95 -100z"></path>
      <path id="paUua8njs" d="M2744 5667 c21 -26 40 -47 43 -47 7 0 -56 78 -70 87 -6 4 6 -14 27 -40z"></path>
      <path id="pw0ajAhRO" d="M4225 5638 l-70 -73 73 70 c67 64 77 75 69 75 -1 0 -34 -33 -72 -72z"></path>
      <path id="p9xpyQaSg" d="M3350 5655 c-13 -14 -22 -27 -19 -29 2 -2 14 10 27 25 29 36 24 38 -8 4z"></path>
      <path id="p14ql7rI4S" d="M2810 5580 c12 -16 24 -30 26 -30 3 0 -4 14 -16 30 -12 17 -24 30 -26 30 -3 0 4 -13 16 -30z"></path>
      <path id="pMHtH7t5e" d="M3323 5575 c0 -22 2 -30 4 -17 2 12 2 30 0 40 -3 9 -5 -1 -4 -23z"></path>
      <path id="pnsTZMsjN" d="M3563 5575 c0 -22 2 -30 4 -17 2 12 2 30 0 40 -3 9 -5 -1 -4 -23z"></path>
      <path id="phhR6UGgR" d="M4109 5513 l-34 -38 38 34 c20 19 37 36 37 38 0 8 -8 0 -41 -34z"></path>
      <path id="pxH7vLnCy" d="M3340 5503 c6 -13 20 -27 33 -33 20 -10 21 -10 4 4 -10 8 -25 23 -33 33 -14 17 -14 16 -4 -4z"></path>
      <path id="p14YklfiGp" d="M2494 5447 c16 -20 30 -37 33 -37 7 0 -36 58 -49 66 -7 4 1 -9 16 -29z"></path>
      <path id="p12w2XWmDm" d="M4012 5393 c-26 -38 -34 -53 -29 -53 2 0 16 18 31 40 29 45 28 56 -2 13z"></path>
      <path id="px6fYApQL" d="M3263 5363 c9 -2 25 -2 35 0 9 3 1 5 -18 5 -19 0 -27 -2 -17 -5z"></path>
      <path id="pXZRDmd43" d="M3199 5333 l-24 -28 30 25 c17 14 32 26 34 28 2 1 0 2 -6 2 -5 0 -20 -12 -34 -27z"></path>
      <path id="pi0INz6EX" d="M3353 5327 c18 -18 34 -31 36 -30 6 4 -51 63 -60 63 -4 0 7 -15 24 -33z"></path>
      <path id="prnJgJ1uO" d="M2607 5265 c9 -19 18 -33 21 -31 4 5 -26 66 -33 66 -3 0 3 -16 12 -35z"></path>
      <path id="p154vPOI0Y" d="M3163 5240 c0 -25 2 -35 4 -22 2 12 2 32 0 45 -2 12 -4 2 -4 -23z"></path>
      <path id="pJjJvPG20" d="M3382 5188 c-10 -30 -10 -31 3 -14 13 17 21 46 12 46 -1 0 -8 -15 -15 -32z"></path>
      <path id="p9jSySsqV" d="M3208 5143 c13 -13 28 -23 35 -23 7 0 3 6 -8 12 -11 6 -27 16 -35 22 -9 6 -5 1 8 -11z"></path>
      <path id="pKvo2xm63" d="M3290 5124 c-24 -9 -29 -13 -14 -13 11 -1 29 6 40 14 22 17 20 17 -26 -1z"></path>
      <path id="p14SBQqCbR" d="M3543 4725 c0 -22 2 -30 4 -17 2 12 2 30 0 40 -3 9 -5 -1 -4 -23z"></path>
      <path id="ptxcOCdu7" d="M3012 4700 c0 -19 2 -27 5 -17 2 9 2 25 0 35 -3 9 -5 1 -5 -18z"></path>
      <path id="p1A83fGVgJ" d="M3930 4566 c0 -11 30 -66 36 -66 2 0 -3 15 -12 33 -19 36 -24 44 -24 33z"></path>
      <path id="pDF51Me61" d="M3600 4476 c0 -10 60 -126 65 -126 3 0 -9 28 -26 63 -33 65 -39 75 -39 63z"></path>
      <path id="peCWRY7SH" d="M3997 4439 c10 -17 24 -36 32 -42 8 -7 2 7 -14 31 -32 49 -45 57 -18 11z"></path>
      <path id="ppYlJnpmj" d="M2907 4385 c-15 -30 -25 -55 -22 -55 7 0 57 101 53 106 -2 2 -16 -21 -31 -51z"></path>
      <path id="p14wZVkDHd" d="M3480 4356 c0 -11 40 -86 45 -86 3 0 -4 19 -16 43 -23 45 -29 54 -29 43z"></path>
      <path id="pe5lB9k5a" d="M2300 4143 l-145 -148 148 145 c81 80 147 146 147 147 0 8 -16 -7 -150 -144z"></path>
      <path id="pbLTXGoGg" d="M4265 4130 c82 -82 152 -150 155 -150 2 0 -63 68 -145 150 -82 83 -152 150 -155 150 -2 0 63 -67 145 -150z"></path>
      <path id="pq0i3gFbA" d="M3556 4215 c25 -44 103 -153 114 -160 8 -5 -47 76 -113 165 -18 25 -18 25 -1 -5z"></path>
      <path id="po9nH6a2n" d="M3770 4180 c12 -16 24 -30 26 -30 3 0 -4 14 -16 30 -12 17 -24 30 -26 30 -3 0 4 -13 16 -30z"></path>
      <path id="pcsJcTkXJ" d="M2930 4120 c-12 -16 -19 -30 -16 -30 2 0 14 14 26 30 12 17 19 30 16 30 -2 0 -14 -13 -26 -30z"></path>
      <path id="pOchd9WlC" d="M3885 4040 c21 -22 41 -40 44 -40 3 0 -13 18 -34 40 -21 22 -41 40 -44 40 -3 0 13 -18 34 -40z"></path>
      <path id="psPmOsvYO" d="M2645 4018 l-50 -53 53 50 c48 46 57 55 49 55 -1 0 -25 -24 -52 -52z"></path>
      <path id="pn4xcEoWT" d="M2100 3955 c-24 -25 -42 -45 -39 -45 3 0 25 20 49 45 24 25 42 45 39 45 -3 0 -25 -20 -49 -45z"></path>
      <path id="pIbXv197u" d="M2795 3948 l-40 -43 43 40 c39 36 47 45 39 45 -2 0 -21 -19 -42 -42z"></path>
      <path id="p1G28wkFE8" d="M3790 3915 c35 -36 67 -65 69 -65 3 0 -24 29 -59 65 -35 36 -67 65 -69 65 -3 0 24 -29 59 -65z"></path>
      <path id="pEjodtRI5" d="M3980 3938 c24 -27 45 -48 47 -48 8 0 0 9 -44 50 l-48 45 45 -47z"></path>
      <path id="po6PG0WJ0" d="M4485 3920 c27 -27 51 -50 54 -50 3 0 -17 23 -44 50 -27 28 -51 50 -54 50 -3 0 17 -22 44 -50z"></path>
      <path id="pLqkjiYIZ" d="M2549 3913 l-34 -38 38 34 c20 19 37 36 37 38 0 8 -8 0 -41 -34z"></path>
      <path id="pyzGSJH5Z" d="M1995 3858 l-40 -43 43 40 c39 36 47 45 39 45 -2 0 -21 -19 -42 -42z"></path>
      <path id="p1CfqnjkkK" d="M2665 3808 l-80 -83 83 80 c76 74 87 85 79 85 -1 0 -38 -37 -82 -82z"></path>
      <path id="pRZjgJUJ6" d="M4040 3887 c0 -1 35 -36 78 -77 l77 -75 -75 78 c-69 71 -80 82 -80 74z"></path>
      <path id="pabAvzg1p" d="M2420 3793 l-65 -68 68 65 c62 60 72 70 64 70 -1 0 -32 -30 -67 -67z"></path>
      <path id="pVna5H27H" d="M4590 3825 c19 -19 36 -35 39 -35 3 0 -10 16 -29 35 -19 19 -36 35 -39 35 -3 0 10 -16 29 -35z"></path>
      <path id="pXvg8aCGb" d="M1900 3775 c-24 -25 -42 -45 -39 -45 3 0 25 20 49 45 24 25 42 45 39 45 -3 0 -25 -20 -49 -45z"></path>
      <path id="p3dVY3y2W" d="M4680 3745 c19 -19 36 -35 39 -35 3 0 -10 16 -29 35 -19 19 -36 35 -39 35 -3 0 10 -16 29 -35z"></path>
      <path id="pzMYMKuzJ" d="M4035 3670 c44 -44 82 -80 85 -80 2 0 -31 36 -75 80 -44 44 -82 80 -85 80 -2 0 31 -36 75 -80z"></path>
      <path id="p18w1trftD" d="M4245 3690 c27 -27 51 -50 54 -50 3 0 -17 23 -44 50 -27 28 -51 50 -54 50 -3 0 17 -22 44 -50z"></path>
      <path id="p1BV48Nu77" d="M1795 3678 l-50 -53 53 50 c48 46 57 55 49 55 -1 0 -25 -24 -52 -52z"></path>
      <path id="pzm5OoUfs" d="M2510 3663 l-65 -68 68 65 c62 60 72 70 64 70 -1 0 -32 -30 -67 -67z"></path>
      <path id="pHAdF2OOu" d="M2295 3678 l-40 -43 43 40 c39 36 47 45 39 45 -2 0 -21 -19 -42 -42z"></path>
      <path id="pMB2QoyTd" d="M4775 3660 c21 -22 41 -40 44 -40 3 0 -13 18 -34 40 -21 22 -41 40 -44 40 -3 0 13 -18 34 -40z"></path>
      <path id="pxU2ZJyfW" d="M2205 3598 l-40 -43 43 40 c39 36 47 45 39 45 -2 0 -21 -19 -42 -42z"></path>
      <path id="pxG2x6Owy" d="M4345 3600 c21 -22 41 -40 44 -40 3 0 -13 18 -34 40 -21 22 -41 40 -44 40 -3 0 13 -18 34 -40z"></path>
      <path id="p1FwodpNUq" d="M1550 3443 l-175 -178 178 175 c164 162 182 180 174 180 -1 0 -81 -80 -177 -177z"></path>
      <path id="p11KlvMUe0" d="M4915 3530 c44 -44 82 -80 85 -80 2 0 -31 36 -75 80 -44 44 -82 80 -85 80 -2 0 31 -36 75 -80z"></path>
      <path id="pe1Yjgkp3" d="M2380 3545 c-24 -25 -42 -45 -39 -45 3 0 25 20 49 45 24 25 42 45 39 45 -3 0 -25 -20 -49 -45z"></path>
      <path id="pBHNacatf" d="M4180 3538 c41 -45 50 -53 50 -45 0 2 -21 23 -47 47 l-48 45 45 -47z"></path>
      <path id="pibQq8FmX" d="M2119 3523 l-34 -38 38 34 c34 33 42 41 34 41 -2 0 -19 -17 -38 -37z"></path>
      <path id="piOQrzSei" d="M4440 3518 c41 -45 50 -53 50 -45 0 2 -21 23 -47 47 l-48 45 45 -47z"></path>
      <path id="pRkiJ5Reh" d="M2280 3455 c-24 -25 -42 -45 -39 -45 3 0 25 20 49 45 24 25 42 45 39 45 -3 0 -25 -20 -49 -45z"></path>
      <path id="pDXTOLAmQ" d="M2015 3428 l-50 -53 53 50 c48 46 57 55 49 55 -1 0 -25 -24 -52 -52z"></path>
      <path id="pKV9mKFFa" d="M4280 3445 c19 -19 36 -35 39 -35 3 0 -10 16 -29 35 -19 19 -36 35 -39 35 -3 0 10 -16 29 -35z"></path>
      <path id="pFwkkwJWi" d="M4550 3415 c30 -30 57 -55 59 -55 3 0 -19 25 -49 55 -30 30 -57 55 -59 55 -3 0 19 -25 49 -55z"></path>
      <path id="poIRyATaI" d="M5100 3345 c52 -52 97 -95 100 -95 2 0 -38 43 -90 95 -52 52 -97 95 -100 95 -2 0 38 -43 90 -95z"></path>
      <path id="p2OFNmuge" d="M2180 3365 c-24 -25 -42 -45 -39 -45 3 0 25 20 49 45 24 25 42 45 39 45 -3 0 -25 -20 -49 -45z"></path>
      <path id="pjPrnXzvC" d="M4370 3365 c19 -19 36 -35 39 -35 3 0 -10 16 -29 35 -19 19 -36 35 -39 35 -3 0 10 -16 29 -35z"></path>
      <path id="prijTeopW" d="M1790 3213 l-155 -158 158 155 c86 85 157 156 157 157 0 8 -16 -8 -160 -154z"></path>
      <path id="pafSFJAwa" d="M4780 3195 c91 -91 167 -165 170 -165 3 0 -69 74 -160 165 -91 91 -167 165 -170 165 -3 0 69 -74 160 -165z"></path>
      <path id="p19N8tLwr2" d="M2060 3253 l-65 -68 68 65 c62 60 72 70 64 70 -1 0 -32 -30 -67 -67z"></path>
      <path id="pVZwCV7H5" d="M4470 3278 c41 -45 50 -53 50 -45 0 2 -21 23 -47 47 l-48 45 45 -47z"></path>
      <path id="p13zQeh3lw" d="M1329 3213 l-34 -38 38 34 c34 33 42 41 34 41 -2 0 -19 -17 -38 -37z"></path>
      <path id="pScqZHhSp" d="M5230 3205 c19 -19 36 -35 39 -35 3 0 -10 16 -29 35 -19 19 -36 35 -39 35 -3 0 10 -16 29 -35z"></path>
      <path id="pdyMFRWAz" d="M4675 3080 c77 -77 142 -140 145 -140 2 0 -58 63 -135 140 -77 77 -142 140 -145 140 -2 0 58 -63 135 -140z"></path>
      <path id="p17bGBXvPQ" d="M1860 3063 l-125 -128 128 125 c118 116 132 130 124 130 -1 0 -58 -57 -127 -127z"></path>
      <path id="ptI8EWJ0U" d="M1599 3013 l-34 -38 38 34 c20 19 37 36 37 38 0 8 -8 0 -41 -34z"></path>
      <path id="pVtgKcsVo" d="M4950 3017 c0 -2 15 -16 33 -33 l32 -29 -29 33 c-28 30 -36 37 -36 29z"></path>
      <path id="pgmZSTIg" d="M1110 2935 c-17 -25 -29 -45 -26 -45 3 0 19 20 36 45 17 25 29 45 26 45 -3 0 -19 -20 -36 -45z"></path>
      <path id="p7yNTTKh6" d="M5455 2913 c15 -24 30 -43 32 -43 7 0 -31 61 -46 73 -8 7 -2 -7 14 -30z"></path>
      <path id="p8GBHUXRb" d="M1699 2893 l-34 -38 38 34 c34 33 42 41 34 41 -2 0 -19 -17 -38 -37z"></path>
      <path id="p8kDgwZna" d="M4850 2895 c19 -19 36 -35 39 -35 3 0 -10 16 -29 35 -19 19 -36 35 -39 35 -3 0 10 -16 29 -35z"></path>
      <path id="pEkKsS9yB" d="M1494 2888 c-30 -34 -47 -58 -42 -58 3 0 19 18 37 40 34 43 38 55 5 18z"></path>
      <path id="pzxi1tRwB" d="M5130 2790 c12 -16 24 -30 26 -30 3 0 -4 14 -16 30 -12 17 -24 30 -26 30 -3 0 4 -13 16 -30z"></path>
      <path id="p6PinKLTd" d="M1599 2773 c-29 -35 -41 -53 -36 -53 2 0 17 16 31 35 28 36 31 49 5 18z"></path>
      <path id="pTDakWetS" d="M995 2750 c-9 -16 -13 -30 -11 -30 3 0 12 14 21 30 9 17 13 30 11 30 -3 0 -12 -13 -21 -30z"></path>
      <path id="p1G2jPCO4V" d="M1382 2738 c-36 -54 -44 -68 -39 -68 2 0 21 25 41 55 20 30 34 55 32 55 -3 0 -18 -19 -34 -42z"></path>
      <path id="pbBTeuVkr" d="M5565 2730 c9 -16 18 -30 21 -30 2 0 -2 14 -11 30 -9 17 -18 30 -21 30 -2 0 2 -13 11 -30z"></path>
      <path id="p16qzFhiN1" d="M1522 2668 c-36 -54 -44 -68 -39 -68 2 0 21 25 41 55 20 30 34 55 32 55 -3 0 -18 -19 -34 -42z"></path>
      <path id="p1G1n8YYJk" d="M5036 2658 c20 -32 39 -58 41 -58 7 0 -29 58 -55 88 -13 15 -6 1 14 -30z"></path>
      <path id="p1Gr2sUghp" d="M902 2565 c-17 -37 -14 -45 4 -12 9 16 14 31 11 33 -2 2 -9 -7 -15 -21z"></path>
      <path id="pVHtUeXUQ" d="M1415 2490 c-9 -16 -13 -30 -11 -30 3 0 12 14 21 30 9 17 13 30 11 30 -3 0 -12 -13 -21 -30z"></path>
      <path id="pmVbp6cAH" d="M1382 2425 c-17 -37 -14 -45 4 -12 9 16 14 31 11 33 -2 2 -9 -7 -15 -21z"></path>
      <path id="p15Kzi9mMY" d="M5191 2385 c0 -5 6 -21 14 -35 8 -14 14 -20 14 -15 0 6 -6 21 -14 35 -8 14 -14 21 -14 15z"></path>
      <path id="pvrMN31Pv" d="M1803 2033 c185 -2 489 -2 675 0 185 1 33 2 -338 2 -371 0 -523 -1 -337 -2z"></path>
      <path id="pCPS48pbu" d="M4083 2033 c185 -2 489 -2 675 0 185 1 33 2 -338 2 -371 0 -523 -1 -337 -2z"></path>
      <path id="p1BpAPk1T5" d="M5873 1725 c0 -22 2 -30 4 -17 2 12 2 30 0 40 -3 9 -5 -1 -4 -23z"></path>
      <path id="pJRoLBv4v" d="M682 1710 c0 -19 2 -27 5 -17 2 9 2 25 0 35 -3 9 -5 1 -5 -18z"></path>
      <path id="p70X3Y8yW" d="M5542 1710 c0 -19 2 -27 5 -17 2 9 2 25 0 35 -3 9 -5 1 -5 -18z"></path>
      <path id="pZiCFZmDY" d="M1013 1695 c0 -22 2 -30 4 -17 2 12 2 30 0 40 -3 9 -5 -1 -4 -23z"></path>
      <path id="peznNmdTw" d="M5883 1570 c0 -30 2 -43 4 -27 2 15 2 39 0 55 -2 15 -4 2 -4 -28z"></path>
      <path id="p19gpc7TJT" d="M673 1560 c0 -30 2 -43 4 -27 2 15 2 39 0 55 -2 15 -4 2 -4 -28z"></path>
      <path id="p6AzUoAW6" d="M5553 1520 c0 -41 2 -58 4 -37 2 20 2 54 0 75 -2 20 -4 3 -4 -38z"></path>
      <path id="pp8hSjynw" d="M1003 1495 c0 -44 2 -61 4 -37 2 23 2 59 0 80 -2 20 -4 1 -4 -43z"></path>
      <path id="p1GdnBUFHI" d="M5894 1275 c0 -55 1 -76 3 -47 2 29 2 74 0 100 -2 26 -3 2 -3 -53z"></path>
      <path id="pNBRQlmN9" d="M664 1230 c0 -63 1 -89 3 -57 2 31 2 83 0 115 -2 31 -3 5 -3 -58z"></path>
      <path id="p1EwqF2eLJ" d="M5564 1170 c0 -58 1 -81 3 -52 2 28 2 76 0 105 -2 28 -3 5 -3 -53z"></path>
      <path id="pWSSCDAj6" d="M994 1145 c0 -60 1 -84 3 -52 2 32 2 81 0 110 -2 29 -3 3 -3 -58z"></path>
      <path id="pPtrxicv3" d="M5903 900 c0 -41 2 -58 4 -37 2 20 2 54 0 75 -2 20 -4 3 -4 -38z"></path>
      <path id="pDpXWECRi" d="M5571 852 l-1 -22 -2294 2 c-1262 2 -2292 0 -2289 -4 2 -5 1035 -8 2294 -8 2003 0 2290 2 2295 15 3 8 4 20 1 27 -3 7 -6 3 -6 -10z"></path>
      <path id="p1F9MPwncg" d="M558 823 c12 -2 30 -2 40 0 9 3 -1 5 -23 4 -22 0 -30 -2 -17 -4z"></path>
      <path id="phCenrNVT" d="M5958 823 c12 -2 32 -2 45 0 12 2 2 4 -23 4 -25 0 -35 -2 -22 -4z"></path>
      <path id="p10GXa3JQg" d="M137 698 l-62 -61 65 58 c36 33 67 60 69 62 2 2 1 3 -3 3 -5 0 -36 -28 -69 -62z"></path>
      <path id="pnLjkwTfT" d="M6420 698 c24 -27 45 -48 47 -48 8 0 0 9 -44 50 l-48 45 45 -47z"></path>
      <path id="pcTZFrjUA" d="M130 118 c41 -45 50 -53 50 -45 0 2 -21 23 -47 47 l-48 45 45 -47z"></path>
      <path id="p4p9IeviW" d="M548 3 c61 -2 163 -2 225 0 61 1 11 3 -113 3 -124 0 -174 -2 -112 -3z"></path>
    </g>
  </g>
</svg>