<svg width="35" height="33" viewBox="0 0 35 33" fill="none" xmlns="http://www.w3.org/2000/svg">
<path d="M16.75 5C16.75 4.30964 17.3096 3.75 18 3.75H33C33.6904 3.75 34.25 4.30964 34.25 5V28C34.25 28.6904 33.6904 29.25 33 29.25H18C17.3096 29.25 16.75 28.6904 16.75 28V5Z" stroke="#EA4D44" stroke-opacity="0.4" stroke-width="1.5"/>
<path d="M24 10C24 9.44772 24.4477 9 25 9H29C29.5523 9 30 9.44772 30 10C30 10.5523 29.5523 11 29 11H25C24.4477 11 24 10.5523 24 10Z" fill="#EA4D44" fill-opacity="0.4"/>
<path d="M24 17C24 16.4477 24.4477 16 25 16H29C29.5523 16 30 16.4477 30 17C30 17.5523 29.5523 18 29 18H25C24.4477 18 24 17.5523 24 17Z" fill="#EA4D44" fill-opacity="0.4"/>
<path d="M24 24C24 23.4477 24.4477 23 25 23H29C29.5523 23 30 23.4477 30 24C30 24.5523 29.5523 25 29 25H25C24.4477 25 24 24.5523 24 24Z" fill="#EA4D44" fill-opacity="0.4"/>
<path d="M0 5.34772C0 4.37587 0.698632 3.54468 1.656 3.37752L18.656 0.40927C19.8796 0.195623 21 1.13733 21 2.37946V30.6205C21 31.8627 19.8796 32.8044 18.656 32.5907L1.656 29.6225C0.698633 29.4553 0 28.6241 0 27.6523V5.34772Z" fill="#EA4D44"/>
<path d="M7.66878 21.0599C7.51678 21.0599 7.39678 21.0159 7.30878 20.9279C7.22078 20.8319 7.17678 20.7079 7.17678 20.5559V13.0199C7.17678 12.8759 7.22078 12.7599 7.30878 12.6719C7.40478 12.5839 7.52878 12.5399 7.68078 12.5399H10.5248C11.4128 12.5399 12.1008 12.7559 12.5888 13.1879C13.0848 13.6199 13.3328 14.2319 13.3328 15.0239C13.3328 15.8159 13.0848 16.4319 12.5888 16.8719C12.0928 17.3119 11.4048 17.5319 10.5248 17.5319H8.16078V20.5559C8.16078 20.7079 8.11678 20.8319 8.02878 20.9279C7.94078 21.0159 7.82078 21.0599 7.66878 21.0599ZM10.4288 16.7159C11.7168 16.7159 12.3608 16.1519 12.3608 15.0239C12.3608 13.9119 11.7168 13.3559 10.4288 13.3559H8.16078V16.7159H10.4288Z" fill="white"/>
<path fill-rule="evenodd" clip-rule="evenodd" d="M6.8753 21.343L6.86649 21.3334C6.66033 21.1085 6.57678 20.8313 6.57678 20.5559V13.0199C6.57678 12.7439 6.66621 12.466 6.88452 12.2477L6.89374 12.2385L6.90335 12.2297C7.12825 12.0235 7.4054 11.9399 7.68078 11.9399H10.5248C11.5049 11.9399 12.3528 12.1787 12.9847 12.7371C13.6369 13.3061 13.9328 14.098 13.9328 15.0239C13.9328 15.9511 13.6363 16.7448 12.987 17.3208C12.3495 17.8863 11.5027 18.1319 10.5248 18.1319H8.76078V20.5559C8.76078 20.8313 8.67724 21.1085 8.47107 21.3334L8.46227 21.343L8.45305 21.3522C8.22853 21.5767 7.94242 21.6599 7.66878 21.6599C7.39514 21.6599 7.10903 21.5767 6.88452 21.3522L6.8753 21.343ZM8.16078 17.5319H10.5248C11.4048 17.5319 12.0928 17.3119 12.5888 16.8719C13.0848 16.4319 13.3328 15.8159 13.3328 15.0239C13.3328 14.2319 13.0848 13.6199 12.5888 13.1879C12.1008 12.7559 11.4128 12.5399 10.5248 12.5399H7.68078C7.52878 12.5399 7.40478 12.5839 7.30878 12.6719C7.22078 12.7599 7.17678 12.8759 7.17678 13.0199V20.5559C7.17678 20.7079 7.22078 20.8319 7.30878 20.9279C7.39678 21.0159 7.51678 21.0599 7.66878 21.0599C7.82078 21.0599 7.94078 21.0159 8.02878 20.9279C8.11678 20.8319 8.16078 20.7079 8.16078 20.5559V17.5319ZM11.4825 15.8416C11.6362 15.7069 11.7608 15.4732 11.7608 15.0239C11.7608 14.5853 11.6379 14.3585 11.4857 14.2271C11.3166 14.0812 11.0001 13.9559 10.4288 13.9559H8.76078V16.1159H10.4288C10.9984 16.1159 11.3136 15.9895 11.4825 15.8416ZM8.16078 16.7159V13.3559H10.4288C11.7168 13.3559 12.3608 13.9119 12.3608 15.0239C12.3608 16.1519 11.7168 16.7159 10.4288 16.7159H8.16078Z" fill="white"/>
</svg>
