<?xml version="1.0" encoding="UTF-8"?>
<svg width="19px" height="20px" viewBox="0 0 19 20" version="1.1" xmlns="http://www.w3.org/2000/svg" xmlns:xlink="http://www.w3.org/1999/xlink">
    <!-- Generator: Sketch 61.2 (89653) - https://sketch.com -->
    <title>Group 18@3x</title>
    <desc>Created with Sketch.</desc>
    <g id="Desktop-Entier" stroke="none" stroke-width="1" fill="none" fill-rule="evenodd">
        <g id="Account-new-2" transform="translate(-1101.000000, -435.000000)" fill="#DDE2E8" fill-rule="nonzero">
            <g id="Group-25" transform="translate(195.000000, 218.000000)">
                <g id="Group-15" transform="translate(581.000000, 57.000000)">
                    <g id="Group-19" transform="translate(0.000000, 140.000000)">
                        <g id="Group-18" transform="translate(325.000000, 20.000000)">
                            <path d="M9.5,1.05572784 C14.1794845,1.05572784 17.9869278,5.02348454 17.9869278,9.9 C17.9869278,14.7765155 14.1794845,18.7442722 9.5,18.7442722 C4.82051546,18.7442722 1.01307216,14.7765155 1.01307216,9.9 C1.01307216,5.02348454 4.82051546,1.05572784 9.5,1.05572784 L9.5,1.05572784 Z M9.5,0 C4.2526701,0 0,4.43193402 0,9.9 C0,15.3682701 4.2526701,19.8 9.5,19.8 C14.7473299,19.8 19,15.3682701 19,9.9 C19,4.43193402 14.7473299,0 9.5,0 L9.5,0 Z" id="Shape"></path>
                            <path d="M9.74511719,6.44921875 C9.99121094,6.44921875 10.1780599,6.38085938 10.3056641,6.24414062 C10.4332682,6.10742188 10.4970703,5.93652344 10.4970703,5.73144531 C10.4970703,5.52636719 10.4332682,5.3531901 10.3056641,5.21191406 C10.1780599,5.07063802 9.99121094,5 9.74511719,5 C9.49902344,5 9.3133138,5.07063802 9.18798828,5.21191406 C9.06266276,5.3531901 9,5.52636719 9,5.73144531 C9,5.93652344 9.06266276,6.10742188 9.18798828,6.24414062 C9.3133138,6.38085938 9.49902344,6.44921875 9.74511719,6.44921875 Z M10.3671875,15.0898438 L10.3671875,7.69335938 L9.10253906,7.69335938 L9.10253906,15.0898438 L10.3671875,15.0898438 Z" id="i"></path>
                        </g>
                    </g>
                </g>
            </g>
        </g>
    </g>
</svg>