<svg width="16" height="16" viewBox="0 0 16 16" fill="none" xmlns="http://www.w3.org/2000/svg">
<g clip-path="url(#clip0_9319_2112)">
<path d="M8 2C6.81331 2 5.65328 2.35189 4.66658 3.01118C3.67989 3.67047 2.91085 4.60754 2.45673 5.7039C2.0026 6.80025 1.88378 8.00665 2.11529 9.17054C2.3468 10.3344 2.91825 11.4035 3.75736 12.2426C4.59648 13.0818 5.66557 13.6532 6.82946 13.8847C7.99335 14.1162 9.19975 13.9974 10.2961 13.5433C11.3925 13.0891 12.3295 12.3201 12.9888 11.3334C13.6481 10.3467 14 9.18669 14 8C14 7.21207 13.8448 6.43185 13.5433 5.7039C13.2417 4.97594 12.7998 4.31451 12.2426 3.75736C11.6855 3.20021 11.0241 2.75825 10.2961 2.45672C9.56815 2.15519 8.78793 2 8 2ZM8.6 10.4C8.6 10.5591 8.53679 10.7117 8.42427 10.8243C8.31174 10.9368 8.15913 11 8 11C7.84087 11 7.68826 10.9368 7.57574 10.8243C7.46322 10.7117 7.4 10.5591 7.4 10.4V7.4C7.4 7.24087 7.46322 7.08826 7.57574 6.97573C7.68826 6.86321 7.84087 6.8 8 6.8C8.15913 6.8 8.31174 6.86321 8.42427 6.97573C8.53679 7.08826 8.6 7.24087 8.6 7.4V10.4ZM8 6.2C7.88133 6.2 7.76533 6.16481 7.66666 6.09888C7.56799 6.03295 7.49109 5.93924 7.44567 5.82961C7.40026 5.71997 7.38838 5.59933 7.41153 5.48294C7.43468 5.36656 7.49183 5.25965 7.57574 5.17574C7.65965 5.09182 7.76656 5.03468 7.88295 5.01153C7.99934 4.98838 8.11998 5.00026 8.22961 5.04567C8.33925 5.09108 8.43295 5.16799 8.49888 5.26666C8.56481 5.36533 8.6 5.48133 8.6 5.6C8.6 5.75913 8.53679 5.91174 8.42427 6.02426C8.31174 6.13678 8.15913 6.2 8 6.2Z" fill="#0A0C11"/>
</g>
<defs>
<clipPath id="clip0_9319_2112">
<rect width="16" height="16" fill="white"/>
</clipPath>
</defs>
</svg>
