<svg version="1.1" xmlns="http://www.w3.org/2000/svg" xmlns:xlink="http://www.w3.org/1999/xlink" width="19" height="19" viewBox="0 0 19 19"><path id="informations" d="M9.500,19.000 C4.262,19.000 0.000,14.739 0.000,9.500 C0.000,4.262 4.262,0.000 9.500,0.000 C14.739,0.000 19.000,4.262 19.000,9.500 C19.000,14.739 14.739,19.000 9.500,19.000 zM9.500,0.997 C4.812,0.997 0.997,4.812 0.997,9.500 C0.997,14.188 4.812,18.003 9.500,18.003 C14.188,18.003 18.003,14.188 18.003,9.500 C18.003,4.812 14.188,0.997 9.500,0.997 zM8.515,13.955 L7.945,13.955 L7.945,12.447 L8.515,12.447 L8.515,9.880 L7.953,9.880 L7.953,8.372 L8.515,8.372 L10.202,8.372 L10.485,8.372 L10.485,12.447 L11.055,12.447 L11.055,13.955 L10.485,13.955 L8.515,13.955 zM9.357,7.302 C8.733,7.302 8.228,6.796 8.228,6.173 C8.228,5.550 8.733,5.045 9.357,5.045 C9.980,5.045 10.485,5.550 10.485,6.173 C10.485,6.796 9.980,7.302 9.357,7.302 z" fill="#444444" /></svg>