<svg version="1.1" xmlns="http://www.w3.org/2000/svg" xmlns:xlink="http://www.w3.org/1999/xlink" width="16" height="17" viewBox="0 0 16 17"><path id="recherche" d="M15.932,16.456 C15.932,16.456 11.264,11.497 11.264,11.497 C12.455,10.277 13.192,8.595 13.192,6.740 C13.192,3.024 10.233,0.000 6.596,0.000 C2.958,0.000 -0.001,3.024 -0.001,6.740 C-0.001,10.457 2.958,13.480 6.596,13.480 C8.193,13.480 9.658,12.897 10.800,11.929 C10.800,11.929 15.479,16.901 15.479,16.901 C15.541,16.967 15.623,17.000 15.705,17.000 C15.784,17.000 15.862,16.970 15.923,16.910 C16.048,16.787 16.052,16.584 15.932,16.456 zM6.596,12.838 C3.305,12.838 0.628,10.103 0.628,6.740 C0.628,3.378 3.305,0.642 6.596,0.642 C9.887,0.642 12.564,3.378 12.564,6.740 C12.564,10.103 9.887,12.838 6.596,12.838 z" fill="#686868" /></svg>