<svg version="1.1" xmlns="http://www.w3.org/2000/svg" xmlns:xlink="http://www.w3.org/1999/xlink" width="17" height="12" viewBox="0 0 17 12"><path id="list" d="M16.986,11.179 C16.986,11.646 16.623,12.018 16.167,12.018 C16.167,12.018 5.683,12.018 5.683,12.018 C5.227,12.018 4.864,11.646 4.864,11.179 C4.864,10.712 5.227,10.340 5.683,10.340 C5.683,10.340 16.163,10.340 16.163,10.340 C16.577,10.340 16.986,10.712 16.986,11.179 zM4.818,6.088 C4.818,5.621 5.181,5.249 5.636,5.249 C5.636,5.249 16.024,5.249 16.024,5.249 C16.480,5.249 16.843,5.621 16.843,6.088 C16.843,6.555 16.480,6.927 16.024,6.927 C16.024,6.927 5.641,6.927 5.641,6.927 C5.185,6.927 4.818,6.555 4.818,6.088 zM4.818,0.949 C4.818,0.482 5.181,0.110 5.636,0.110 C5.636,0.110 16.024,0.110 16.024,0.110 C16.480,0.110 16.843,0.482 16.843,0.949 C16.843,1.416 16.480,1.788 16.024,1.788 C16.024,1.788 5.641,1.788 5.641,1.788 C5.185,1.836 4.818,1.416 4.818,0.949 zM1.810,0.949 C1.810,1.464 1.400,1.883 0.898,1.883 C0.396,1.883 -0.013,1.464 -0.013,0.949 C-0.013,0.434 0.396,0.015 0.898,0.015 C1.401,0.015 1.810,0.434 1.810,0.949 zM1.810,6.088 C1.810,6.603 1.400,7.022 0.898,7.022 C0.396,7.022 -0.013,6.603 -0.013,6.088 C-0.013,5.573 0.396,5.154 0.898,5.154 C1.401,5.106 1.810,5.526 1.810,6.088 zM1.810,11.084 C1.810,11.599 1.400,12.018 0.898,12.018 C0.396,12.018 -0.013,11.599 -0.013,11.084 C-0.013,10.569 0.396,10.150 0.898,10.150 C1.401,10.106 1.810,10.526 1.810,11.084 z" fill="#747474" /></svg>