<svg xmlns="http://www.w3.org/2000/svg" width="24" height="24" fill="none" viewBox="0 0 24 24">
  <path fill="#222732" d="M12.203 2c2.756 0 5.058.989 6.826 2.6l-2.88 2.755c-.737-.677-2.03-1.489-3.946-1.489a6.158 6.158 0 0 0-5.816 4.153l.001.003A6.355 6.355 0 0 0 6.059 12c0 .69.125 1.356.34 1.978h-.001a6.132 6.132 0 0 0 5.805 4.156c1.52 0 2.676-.412 3.538-1 1.36-.934 1.973-2.323 2.086-3.245h-5.624v-3.711h9.581c.148.622.216 1.222.216 2.045 0 3.044-1.111 5.61-3.039 7.355C17.271 21.11 14.96 22 12.203 22c-3.99 0-7.437-2.244-9.116-5.51v-.003A9.846 9.846 0 0 1 2 12c0-1.61.397-3.133 1.088-4.488V7.51C4.765 4.244 8.211 2 12.202 2Z"/>
</svg>
