<svg xmlns="http://www.w3.org/2000/svg" width="24" height="24" fill="none" viewBox="0 0 24 24">
  <path fill="#222732" d="M11.648 6.609c-.922 0-2.347-1.033-3.849-.997C5.817 5.638 4 6.746 2.978 8.5c-2.058 3.522-.53 8.724 1.476 11.587.984 1.393 2.146 2.96 3.685 2.912 1.478-.062 2.032-.946 3.825-.946 1.78 0 2.284.946 3.848.909 1.591-.025 2.6-1.419 3.573-2.826 1.123-1.617 1.59-3.186 1.615-3.272-.038-.013-3.093-1.17-3.13-4.655-.025-2.913 2.41-4.307 2.524-4.369-1.388-2.003-3.52-2.227-4.266-2.277-1.944-.15-3.572 1.046-4.48 1.046ZM14.93 3.67c.819-.97 1.36-2.325 1.21-3.67-1.173.05-2.587.771-3.433 1.742-.758.859-1.413 2.24-1.237 3.56 1.3.1 2.639-.66 3.459-1.63"/>
</svg>
