<svg version="1.1" xmlns="http://www.w3.org/2000/svg" xmlns:xlink="http://www.w3.org/1999/xlink" width="25" height="19" viewBox="0 0 25 19"><path id="mail" d="M20.867,9.569 C20.867,9.569 20.867,17.350 20.867,17.350 C20.867,18.258 20.185,18.996 19.346,18.996 C19.346,18.996 1.523,18.996 1.523,18.996 C0.685,18.996 0.003,18.258 0.003,17.349 C0.003,17.349 0.003,6.120 0.003,6.120 C0.003,5.211 0.685,4.473 1.523,4.473 C1.523,4.473 16.161,4.473 16.161,4.473 C16.321,1.982 18.224,0.003 20.564,0.003 C23.009,0.003 24.997,2.157 24.997,4.803 C24.997,7.337 23.168,9.397 20.867,9.569 zM0.611,6.120 C0.611,6.120 0.611,17.350 0.611,17.350 C0.611,17.895 1.020,18.338 1.523,18.338 C1.523,18.338 19.346,18.338 19.346,18.338 C19.849,18.338 20.259,17.895 20.259,17.350 C20.259,17.350 20.259,9.569 20.259,9.569 C19.198,9.489 18.239,9.018 17.513,8.269 C17.513,8.269 11.553,12.956 11.553,12.956 C11.246,13.245 10.842,13.390 10.439,13.390 C10.033,13.390 9.626,13.244 9.318,12.952 C9.318,12.952 0.686,5.730 0.686,5.730 C0.638,5.850 0.611,5.981 0.611,6.120 zM16.161,5.131 C16.161,5.131 1.523,5.131 1.523,5.131 C1.372,5.131 1.235,5.182 1.108,5.253 C1.108,5.253 9.717,12.455 9.717,12.455 C10.108,12.823 10.765,12.824 11.155,12.458 C11.155,12.458 17.110,7.775 17.110,7.775 C16.567,7.037 16.225,6.129 16.161,5.131 zM20.564,0.661 C18.455,0.661 16.739,2.519 16.739,4.803 C16.739,7.086 18.455,8.943 20.564,8.943 C22.673,8.943 24.388,7.086 24.388,4.803 C24.388,2.520 22.672,0.661 20.564,0.661 zM22.431,5.133 C22.431,5.133 20.906,5.133 20.906,5.133 C20.906,5.133 20.906,6.785 20.906,6.785 C20.906,6.967 20.770,7.114 20.602,7.114 C20.434,7.114 20.298,6.966 20.298,6.784 C20.298,6.784 20.298,5.133 20.298,5.133 C20.298,5.133 18.772,5.133 18.772,5.133 C18.604,5.133 18.468,4.985 18.468,4.803 C18.468,4.622 18.604,4.474 18.772,4.474 C18.772,4.474 20.298,4.474 20.298,4.474 C20.298,4.474 20.298,2.823 20.298,2.823 C20.298,2.641 20.434,2.494 20.602,2.494 C20.770,2.494 20.906,2.641 20.906,2.823 C20.906,2.823 20.906,4.474 20.906,4.474 C20.906,4.474 22.431,4.474 22.431,4.474 C22.599,4.474 22.736,4.622 22.736,4.803 C22.736,4.985 22.599,5.133 22.431,5.133 zM3.802,15.600 C3.744,15.660 3.669,15.690 3.594,15.690 C3.513,15.690 3.432,15.655 3.373,15.586 C3.258,15.454 3.263,15.245 3.386,15.121 C3.386,15.121 6.886,11.564 6.886,11.564 C7.007,11.440 7.202,11.445 7.316,11.578 C7.431,11.711 7.425,11.920 7.302,12.043 C7.302,12.043 3.802,15.600 3.802,15.600 zM13.984,11.565 C13.984,11.565 17.484,15.121 17.484,15.121 C17.607,15.245 17.613,15.454 17.498,15.586 C17.439,15.655 17.357,15.690 17.276,15.690 C17.201,15.690 17.127,15.660 17.068,15.600 C17.068,15.600 13.568,12.045 13.568,12.045 C13.445,11.921 13.439,11.712 13.555,11.580 C13.669,11.446 13.863,11.441 13.984,11.565 z" fill="#747474" /></svg>