<svg version="1.1" xmlns="http://www.w3.org/2000/svg" xmlns:xlink="http://www.w3.org/1999/xlink" width="17" height="19" viewBox="0 0 17 19"><path id="maintenance" d="M15.614,16.250 C15.614,16.250 14.570,16.250 14.570,16.250 L9.672,0.000 L7.450,0.000 L2.440,16.250 C2.440,16.250 1.385,16.250 1.385,16.250 C0.621,16.250 -0.000,16.866 -0.000,17.624 C-0.000,18.382 0.621,18.999 1.385,18.999 C1.385,18.999 15.614,18.999 15.614,18.999 C16.378,18.999 17.000,18.382 17.000,17.624 C17.000,16.866 16.378,16.250 15.614,16.250 zM12.211,10.982 L4.836,10.982 L5.841,7.721 L11.228,7.721 L12.211,10.982 zM7.996,0.732 L9.122,0.732 L10.013,3.687 L7.085,3.687 L7.996,0.732 zM15.614,18.267 C15.614,18.267 1.385,18.267 1.385,18.267 C1.028,18.267 0.738,17.979 0.738,17.624 C0.738,17.270 1.028,16.982 1.385,16.982 C1.385,16.982 2.986,16.982 2.986,16.982 L3.592,15.015 L13.426,15.015 L14.019,16.982 C14.019,16.982 15.614,16.982 15.614,16.982 C15.971,16.982 16.262,17.270 16.262,17.624 C16.262,17.979 15.972,18.267 15.614,18.267 z" fill="#7F7F7F" opacity="0.800" /></svg>