<?xml version="1.0" encoding="UTF-8"?>
<svg width="3px" height="14px" viewBox="0 0 3 14" version="1.1" xmlns="http://www.w3.org/2000/svg" xmlns:xlink="http://www.w3.org/1999/xlink">
    <!-- Generator: Sketch 49.3 (51167) - http://www.bohemiancoding.com/sketch -->
    <title>Group</title>
    <desc>Created with Sketch.</desc>
    <defs></defs>
    <g id="Symbols" stroke="none" stroke-width="1" fill="none" fill-rule="evenodd">
        <g id="Button/menu100" transform="translate(-11.000000, -5.000000)" fill="#FFFFFF" fill-rule="nonzero">
            <g id="noun_424742_cc" transform="translate(11.000000, 5.000000)">
                <g id="Group">
                    <g id="a-link">
                        <g id="a">
                            <path d="M1.52163009,13.5076923 C1.9354232,13.5076923 2.28944619,13.3605659 2.58369906,13.066313 C2.87335423,12.7720601 3.01818182,12.420336 3.01818182,12.0111406 C3.01818182,11.5973475 2.87335423,11.2433245 2.58369906,10.9490716 C2.28944619,10.6548187 1.9354232,10.5076923 1.52163009,10.5076923 C1.10783699,10.5076923 0.753814002,10.6548187 0.459561129,10.9490716 C0.165308255,11.2433245 0.0181818182,11.5973475 0.0181818182,12.0111406 C0.0181818182,12.420336 0.165308255,12.7720601 0.459561129,13.066313 C0.753814002,13.3605659 1.10783699,13.5076923 1.52163009,13.5076923 Z M1.52163009,5.25384615 C1.10783699,5.25384615 0.753814002,5.39867374 0.459561129,5.68832891 C0.165308255,5.98258179 0.0181818182,6.33660477 0.0181818182,6.75039788 C0.0181818182,7.16419098 0.165308255,7.51821397 0.459561129,7.81246684 C0.753814002,8.10671972 1.10783699,8.25384615 1.52163009,8.25384615 C1.9354232,8.25384615 2.28944619,8.10671972 2.58369906,7.81246684 C2.87335423,7.51821397 3.01818182,7.16419098 3.01818182,6.75039788 C3.01818182,6.33660477 2.87335423,5.98258179 2.58369906,5.68832891 C2.28944619,5.39867374 1.9354232,5.25384615 1.52163009,5.25384615 Z M1.52163009,3 C1.9354232,3 2.28944619,2.85517241 2.58369906,2.56551724 C2.87335423,2.27126437 3.01818182,1.91724138 3.01818182,1.50344828 C3.01818182,1.08965517 2.87335423,0.735632184 2.58369906,0.44137931 C2.28944619,0.147126437 1.9354232,0 1.52163009,0 C1.10783699,0 0.753814002,0.147126437 0.459561129,0.44137931 C0.165308255,0.735632184 0.0181818182,1.08965517 0.0181818182,1.50344828 C0.0181818182,1.91724138 0.165308255,2.27126437 0.459561129,2.56551724 C0.753814002,2.85517241 1.10783699,3 1.52163009,3 Z" id="Shape"></path>
                        </g>
                    </g>
                </g>
            </g>
        </g>
    </g>
</svg>