<?xml version="1.0" encoding="UTF-8"?>
<svg width="9px" height="20px" viewBox="0 0 9 20" version="1.1" xmlns="http://www.w3.org/2000/svg" xmlns:xlink="http://www.w3.org/1999/xlink">
    <!-- Generator: Sketch 56.3 (81716) - https://sketch.com -->
    <title>Path</title>
    <desc>Created with Sketch.</desc>
    <g id="Messagerie" stroke="none" stroke-width="1" fill="none" fill-rule="evenodd">
        <g id="Tchat-5" transform="translate(-492.000000, -683.000000)" fill="#89929E" fill-rule="nonzero">
            <g id="Group-30" transform="translate(474.000000, 665.000000)">
                <path d="M26.3941461,23.7858081 C26.052667,23.7858081 25.7772381,24.0533586 25.7772381,24.3991919 L25.7772381,33.462601 C25.7772381,34.3880051 25.4468131,35.1459848 24.8077969,35.7926768 C24.1687807,36.4393687 23.4087684,36.7737626 22.4835436,36.7737626 C21.5801525,36.7737626 20.8090861,36.4505303 20.1700949,35.8038636 C19.5311037,35.1572222 19.2117079,34.3768687 19.2117079,33.4626263 L19.2117079,30.0401515 L19.2117079,28.2119192 L19.2117079,23.707803 L19.2117079,21.5451768 L19.2117079,21.522803 L19.2117079,21.5004545 C19.2117079,20.8873232 19.434736,20.3550505 19.8617532,19.9174242 C20.2941852,19.4743434 20.8198907,19.2374495 21.4480774,19.2374495 C22.0760395,19.2374495 22.6019946,19.4743434 23.0341521,19.9174242 C23.4611693,20.3550505 23.6842223,20.8873232 23.6842223,21.5004545 L23.6842223,21.522803 L23.6842223,21.567298 L23.6842223,31.6790909 C23.6842223,32.3143434 23.1996141,32.805 22.5716769,32.805 C21.965798,32.805 21.469936,32.2922222 21.469936,31.6790909 L21.469936,26.3834343 C21.469936,26.0378535 21.2055362,25.770303 20.8640821,25.770303 C20.522628,25.770303 20.2582282,26.0378535 20.2582282,26.3834343 L20.2582282,31.6790909 C20.2582282,32.3366919 20.4786612,32.8941667 20.9301322,33.3513131 C21.3818277,33.8084343 21.9216565,34.0312879 22.5717019,34.0312879 C23.2214977,34.0312879 23.7669409,33.8027273 24.2240512,33.3513131 C24.6703569,32.9106061 24.8959801,32.3590657 24.8959801,31.6790909 L24.8959801,21.522803 L24.8959801,21.5004545 C24.8959801,20.5417424 24.5516814,19.7195455 23.8825971,19.0367172 C23.2078485,18.3481818 22.3954103,18 21.4480774,18 C20.5005198,18 19.6880817,18.3481818 19.0133581,19.0367172 C18.3442987,19.7195455 18,20.5417424 18,21.5004545 L18,21.522803 L18,23.707803 L18,28.2119192 L18,30.0401515 L18,33.4625758 C18,34.722399 18.4406415,35.7926515 19.3108952,36.6733333 C20.181149,37.5540152 21.2386735,38 22.4835436,38 C23.7284138,38 24.8077969,37.5764394 25.6891048,36.6845202 C26.5703877,35.7926515 27,34.7002778 27,33.4625758 L27,24.3991919 C27,24.0533586 26.7356002,23.7858081 26.3941461,23.7858081 Z" id="Path"></path>
            </g>
        </g>
    </g>
</svg>