<?xml version="1.0" encoding="UTF-8"?>
<svg width="20px" height="20px" viewBox="0 0 20 20" version="1.1" xmlns="http://www.w3.org/2000/svg" xmlns:xlink="http://www.w3.org/1999/xlink">
    <!-- Generator: Sketch 56.3 (81716) - https://sketch.com -->
    <title>happy</title>
    <desc>Created with Sketch.</desc>
    <g id="Messagerie" stroke="none" stroke-width="1" fill="none" fill-rule="evenodd">
        <g id="Tchat-5" transform="translate(-1272.000000, -683.000000)" fill="#FA8540" fill-rule="nonzero">
            <g id="Group-30" transform="translate(474.000000, 665.000000)">
                <g id="happy" transform="translate(798.000000, 18.000000)">
                    <path d="M17.0710547,2.92894531 C15.1823438,1.04019531 12.6710938,0 10,0 C7.32890625,0 4.81765625,1.04019531 2.92894531,2.92894531 C1.04015625,4.81765625 0,7.32890625 0,10 C0,12.6710938 1.04015625,15.1823438 2.92894531,17.0710547 C4.81765625,18.9598047 7.32890625,20 10,20 C12.6710938,20 15.1823438,18.9598047 17.0710547,17.0710547 C18.9598438,15.1823438 20,12.6710938 20,10 C20,7.32890625 18.9598438,4.81765625 17.0710547,2.92894531 Z M10,18.8095312 C5.14242188,18.8095312 1.19046875,14.8575781 1.19046875,10 C1.19046875,5.14242188 5.14242188,1.19046875 10,1.19046875 C14.8575781,1.19046875 18.8095312,5.14242188 18.8095312,10 C18.8095312,14.8575781 14.8575781,18.8095312 10,18.8095312 Z" id="Shape"></path>
                    <path d="M7.83679688,7.35921875 C6.86207031,6.38441406 5.27601563,6.38449219 4.30128906,7.35921875 C4.06882813,7.59164062 4.06882813,7.96855469 4.30128906,8.20101563 C4.53378906,8.4334375 4.91070312,8.4334375 5.143125,8.20101563 C5.65375,7.69042969 6.48453125,7.69046875 6.99507813,8.20101563 C7.11132812,8.31726563 7.26363281,8.37539062 7.4159375,8.37539062 C7.56824219,8.37539062 7.720625,8.31726563 7.83679688,8.20101563 C8.06925781,7.96855469 8.06925781,7.59167969 7.83679688,7.35921875 Z" id="Path"></path>
                    <path d="M15.6985938,7.35921875 C14.7238672,6.38449219 13.1378125,6.38441406 12.1630859,7.35921875 C11.930625,7.59164062 11.930625,7.96855469 12.1630859,8.20101563 C12.3955859,8.4334375 12.7725,8.4334375 13.0049219,8.20101563 C13.5154688,7.69042969 14.34625,7.69039063 14.856875,8.20101563 C14.973125,8.31726563 15.1254297,8.37539062 15.2777344,8.37539062 C15.4300391,8.37539062 15.5824219,8.31726563 15.6985938,8.20101563 C15.9310547,7.96855469 15.9310547,7.59167969 15.6985938,7.35921875 Z" id="Path"></path>
                    <path d="M15.2777734,10.4365234 L4.72222656,10.4365234 C4.39347656,10.4365234 4.12699219,10.7030469 4.12699219,11.0317578 C4.12699219,14.2701172 6.76164063,16.9047656 10,16.9047656 C13.2383594,16.9047656 15.8730078,14.2701172 15.8730078,11.0317578 C15.8730078,10.7030078 15.6065234,10.4365234 15.2777734,10.4365234 Z M10,15.7142969 C7.61960937,15.7142969 5.64835938,13.9290234 5.35511719,11.6269922 L14.6449219,11.6269922 C14.3516406,13.9290234 12.3803906,15.7142969 10,15.7142969 Z" id="Shape"></path>
                </g>
            </g>
        </g>
    </g>
</svg>