<?xml version="1.0" encoding="UTF-8"?>
<svg width="11px" height="20px" viewBox="0 0 11 20" version="1.1" xmlns="http://www.w3.org/2000/svg" xmlns:xlink="http://www.w3.org/1999/xlink">
    <!-- Generator: Sketch 56.3 (81716) - https://sketch.com -->
    <title>microphone</title>
    <desc>Created with Sketch.</desc>
    <g id="Messagerie" stroke="none" stroke-width="1" fill="none" fill-rule="evenodd">
        <g id="Tchat-5" transform="translate(-1309.000000, -683.000000)" fill="#89929E" fill-rule="nonzero">
            <g id="Group-30" transform="translate(474.000000, 665.000000)">
                <g id="microphone" transform="translate(835.000000, 18.000000)">
                    <path d="M10.65625,9.65517241 C10.4665,9.65517241 10.3125,9.80931034 10.3125,10 L10.3125,12.0689655 C10.3125,14.7310345 8.15375,16.8965517 5.5,16.8965517 C2.84625,16.8965517 0.6875,14.7310345 0.6875,12.0689655 L0.6875,10 C0.6875,9.80931034 0.5335,9.65517241 0.34375,9.65517241 C0.154,9.65517241 0,9.80931034 0,10 L0,12.0689655 C0,14.9948276 2.283875,17.3893103 5.15625,17.5686207 L5.15625,19.3103448 L3.4375,19.3103448 C3.24775,19.3103448 3.09375,19.4644828 3.09375,19.6551724 C3.09375,19.8458621 3.24775,20 3.4375,20 L7.5625,20 C7.75225,20 7.90625,19.8458621 7.90625,19.6551724 C7.90625,19.4644828 7.75225,19.3103448 7.5625,19.3103448 L5.84375,19.3103448 L5.84375,17.5686207 C8.716125,17.3893103 11,14.9944828 11,12.0689655 L11,10 C11,9.80931034 10.846,9.65517241 10.65625,9.65517241 Z" id="Path"></path>
                    <path d="M5.5,15.862069 C7.58484375,15.862069 9.28125,14.1603448 9.28125,12.0689655 L9.28125,3.79310345 C9.28125,1.70172414 7.58484375,0 5.5,0 C3.41515625,0 1.71875,1.70172414 1.71875,3.79310345 L1.71875,12.0689655 C1.71875,14.1603448 3.41515625,15.862069 5.5,15.862069 Z M2.40625,3.79310345 C2.40625,2.08172414 3.7943125,0.689655172 5.5,0.689655172 C7.2056875,0.689655172 8.59375,2.08172414 8.59375,3.79310345 L8.59375,12.0689655 C8.59375,13.7803448 7.2056875,15.1724138 5.5,15.1724138 C3.7943125,15.1724138 2.40625,13.7803448 2.40625,12.0689655 L2.40625,3.79310345 Z" id="Shape"></path>
                </g>
            </g>
        </g>
    </g>
</svg>