<svg version="1.1" xmlns="http://www.w3.org/2000/svg" xmlns:xlink="http://www.w3.org/1999/xlink" width="38" height="28" viewBox="0 0 38 28"><path id="message" d="M34.937,27.988 C34.937,27.988 3.066,27.988 3.066,27.988 C1.378,27.988 0.003,26.564 0.003,24.813 C0.003,24.813 0.003,3.160 0.003,3.160 C0.003,1.408 1.378,-0.016 3.066,-0.016 C3.066,-0.016 34.937,-0.016 34.937,-0.016 C36.626,-0.016 38.001,1.408 38.001,3.160 C38.001,3.160 38.001,24.813 38.001,24.813 C38.001,26.564 36.626,27.988 34.937,27.988 zM1.228,24.813 C1.228,25.863 2.053,26.718 3.066,26.718 C3.066,26.718 34.937,26.718 34.937,26.718 C35.951,26.718 36.775,25.863 36.775,24.813 C36.775,24.813 36.775,3.160 36.775,3.160 C36.775,2.901 36.724,2.655 36.634,2.430 C36.634,2.430 24.174,13.694 24.174,13.694 C24.174,13.694 31.188,20.515 31.188,20.515 C31.434,20.754 31.447,21.157 31.215,21.412 C31.094,21.546 30.932,21.613 30.768,21.613 C30.617,21.613 30.466,21.556 30.349,21.440 C30.349,21.440 23.299,14.584 23.299,14.584 C23.280,14.566 23.273,14.542 23.257,14.523 C23.257,14.523 21.251,16.335 21.251,16.335 C20.630,16.897 19.817,17.177 19.002,17.177 C18.187,17.177 17.372,16.897 16.752,16.336 C16.752,16.336 14.747,14.523 14.747,14.523 C14.732,14.543 14.724,14.566 14.706,14.584 C14.706,14.584 7.654,21.440 7.654,21.440 C7.536,21.556 7.385,21.613 7.234,21.613 C7.072,21.613 6.909,21.546 6.787,21.412 C6.556,21.157 6.568,20.754 6.814,20.515 C6.814,20.515 13.830,13.694 13.830,13.694 C13.830,13.694 1.371,2.426 1.371,2.426 C1.280,2.652 1.228,2.900 1.228,3.160 C1.228,3.160 1.228,24.813 1.228,24.813 zM3.066,1.254 C2.751,1.254 2.459,1.344 2.199,1.490 C2.199,1.490 17.557,15.378 17.557,15.378 C18.340,16.085 19.663,16.085 20.445,15.378 C20.445,15.378 35.807,1.491 35.807,1.491 C35.547,1.345 35.254,1.254 34.937,1.254 C34.937,1.254 3.066,1.254 3.066,1.254 z" fill="#FFFFFF" /></svg>