<?xml version="1.0" encoding="UTF-8"?>
<svg width="10px" height="16px" viewBox="0 0 10 16" version="1.1" xmlns="http://www.w3.org/2000/svg" xmlns:xlink="http://www.w3.org/1999/xlink">
    <!-- Generator: Sketch 64 (93537) - https://sketch.com -->
    <title>radio</title>
    <desc>Created with Sketch.</desc>
    <g id="White-desk-Copy" stroke="none" stroke-width="1" fill="none" fill-rule="evenodd">
        <g id="School-10" transform="translate(-733.000000, -291.000000)" fill="#89929E" fill-rule="nonzero">
            <g id="Group-3" transform="translate(683.000000, 276.000000)">
                <g id="Group">
                    <g id="radio" transform="translate(50.000000, 15.000000)">
                        <path d="M4.55943079,11.2706473 C6.18680246,11.2706473 7.51074218,9.95689175 7.51074218,8.34207589 L7.51074218,2.95117186 C7.51074218,1.32128907 6.18945314,0 4.55943079,0 C2.929548,0 1.60825893,1.32128907 1.60825893,2.95117186 L1.60825893,8.31947543 C1.61007254,9.94852121 2.93038504,11.2688337 4.55943079,11.2706473 Z" id="Shape"></path>
                        <path d="M8.76185825,7.78208707 C8.56459264,7.78208707 8.40471539,7.94210379 8.40471539,8.13922993 L8.40471539,8.54827007 C8.40471539,10.671875 6.68317521,12.3934152 4.55943079,12.3934152 C2.43582589,12.3934152 0.714285714,10.671875 0.714285714,8.54827007 L0.714285714,8.13922993 C0.714285714,7.94210379 0.5544085,7.78208707 0.357142857,7.78208707 C0.159877214,7.78208707 0,7.94210379 0,8.13922993 L0,8.54827007 C0,10.9421038 1.85449218,12.9109933 4.20228793,13.09375 L4.20228793,15.2857143 L3.515904,15.2857143 C3.31863839,15.2857143 3.15876114,15.4455915 3.15876114,15.6428571 C3.15876114,15.8401228 3.31863839,16 3.515904,16 L5.60309711,16 C5.80036271,16 5.96023996,15.8401228 5.96023996,15.6428571 C5.96023996,15.4455915 5.80036271,15.2857143 5.60309711,15.2857143 L4.91657364,15.2857143 L4.91657364,13.0936105 C7.26450893,12.9108538 9.11900111,10.9421038 9.11900111,8.54813057 L9.11900111,8.13922993 C9.11900111,7.94210379 8.95912389,7.78208707 8.76185825,7.78208707 Z" id="Path"></path>
                    </g>
                </g>
            </g>
        </g>
    </g>
</svg>