<?xml version="1.0" encoding="utf-8"?>
<!-- Generator: Adobe Illustrator 21.1.0, SVG Export Plug-In . SVG Version: 6.00 Build 0)  -->
<svg version="1.1" id="Слой_1" xmlns:ev="http://www.w3.org/2001/xml-events"
	 xmlns="http://www.w3.org/2000/svg" xmlns:xlink="http://www.w3.org/1999/xlink" x="0px" y="0px" width="100px" height="100px"
	 viewBox="0 0 100 100" style="enable-background:new 0 0 100 100;" xml:space="preserve">
<path d="M74.1,71h-7.3v12.8c0,0.6-0.5,1.2-1.1,1.2s-1.1-0.5-1.1-1.2V71h-7.3c-2.1,0-3.9-1.8-3.9-4V33c0-2.2,1.7-4,3.9-4h7.3V16.2
	c0-0.6,0.5-1.2,1.1-1.2s1.1,0.5,1.1,1.2V29h7.3c2.1,0,3.9,1.8,3.9,4V67C78,69.2,76.3,71,74.1,71z M42.8,76.8h-7.3v7
	c0,0.6-0.5,1.2-1.1,1.2s-1.1-0.5-1.1-1.2v-7h-7.3c-2.1,0-3.9-1.8-3.9-4V27.2c0-2.2,1.7-4,3.9-4h7.3v-7c0-0.6,0.5-1.2,1.1-1.2
	s1.1,0.5,1.1,1.2v7h7.3c2.1,0,3.9,1.8,3.9,4v45.6C46.6,75,44.9,76.8,42.8,76.8z M44.4,27.2c0-0.9-0.7-1.7-1.6-1.7H25.9
	c-0.9,0-1.6,0.8-1.6,1.7v45.6c0,0.9,0.7,1.7,1.6,1.7h16.9c0.9,0,1.6-0.8,1.6-1.7V27.2z"/>
</svg>
