<?xml version="1.0" encoding="UTF-8" standalone="no"?>
<!-- Generator: Adobe Illustrator 21.0.2, SVG Export Plug-In . SVG Version: 6.00 Build 0)  -->

<svg
   xmlns:dc="http://purl.org/dc/elements/1.1/"
   xmlns:cc="http://creativecommons.org/ns#"
   xmlns:rdf="http://www.w3.org/1999/02/22-rdf-syntax-ns#"
   xmlns:svg="http://www.w3.org/2000/svg"
   xmlns="http://www.w3.org/2000/svg"
   xmlns:xlink="http://www.w3.org/1999/xlink"
   xmlns:sodipodi="http://sodipodi.sourceforge.net/DTD/sodipodi-0.dtd"
   xmlns:inkscape="http://www.inkscape.org/namespaces/inkscape"
   version="1.1"
   id="Calque_1"
   x="0px"
   y="0px"
   viewBox="0 0 9 16"
   xml:space="preserve"
   inkscape:version="0.91 r13725"
   sodipodi:docname="mini-arrow-left-new.svg"
   width="9"
   height="16"><metadata
     id="metadata10"><rdf:RDF><cc:Work
         rdf:about=""><dc:format>image/svg+xml</dc:format><dc:type
           rdf:resource="http://purl.org/dc/dcmitype/StillImage" /><dc:title></dc:title></cc:Work></rdf:RDF></metadata><defs
     id="defs8"><linearGradient
       inkscape:collect="always"
       id="linearGradient3338"><stop
         style="stop-color:#ffffff;stop-opacity:1;"
         offset="0"
         id="stop3340" /><stop
         style="stop-color:#ff00ff;stop-opacity:1"
         offset="1"
         id="stop3342" /></linearGradient><linearGradient
       inkscape:collect="always"
       xlink:href="#linearGradient3338"
       id="linearGradient3344"
       x1="-5.6375837"
       y1="5.0268455"
       x2="3.7046981"
       y2="1.8590604"
       gradientUnits="userSpaceOnUse"
       gradientTransform="matrix(0,1,-1,0,9.0637589,0.06375845)" /></defs><sodipodi:namedview
     pagecolor="#ffffff"
     bordercolor="#666666"
     borderopacity="1"
     objecttolerance="10"
     gridtolerance="10"
     guidetolerance="10"
     inkscape:pageopacity="0"
     inkscape:pageshadow="2"
     inkscape:window-width="640"
     inkscape:window-height="480"
     id="namedview6"
     showgrid="false"
     inkscape:zoom="18.625"
     inkscape:cx="8"
     inkscape:cy="8.795302"
     inkscape:window-x="449"
     inkscape:window-y="168"
     inkscape:window-maximized="0"
     inkscape:current-layer="Calque_1" /><style
     type="text/css"
     id="style3">
	.st0{fill:#FFFFFF;}
</style><path
     id="select-haut"
     class="st0"
     d="m 7.3637589,15.763759 -7.00000045,-7.0000007 0,0 c -0.2,-0.2 -0.3,-0.4 -0.3,-0.7 0,-0.3 0.1,-0.5 0.3,-0.7 l 0,0 7.00000045,-6.99999985 0,0 c 0.2,-0.2 0.4,-0.3 0.7,-0.3 0.6,0 1,0.4 1,0.99999995 0,0.3000001 -0.1,0.5 -0.3,0.7 l 0,0 -6.3000004,6.2999997 6.3000004,6.3000009 0,0 c 0.2,0.2 0.3,0.4 0.3,0.7 0,0.6 -0.4,1 -1,1 -0.3,0 -0.5,-0.1 -0.7,-0.3 l 0,0 z"
     style="fill:url(#linearGradient3344);fill-opacity:1"
     inkscape:connector-curvature="0" /></svg>