<svg version="1.1" xmlns="http://www.w3.org/2000/svg" xmlns:xlink="http://www.w3.org/1999/xlink" width="12" height="20" viewBox="0 0 12 20"><path id="mobile" d="M12.000,2.140 C12.000,2.140 12.000,18.763 12.000,18.763 C12.000,19.419 11.463,19.950 10.800,19.950 C10.800,19.950 1.200,19.950 1.200,19.950 C0.538,19.950 0.000,19.419 0.000,18.763 C0.000,18.763 0.000,2.140 0.000,2.140 C0.000,1.484 0.538,0.953 1.200,0.953 C1.200,0.953 10.800,0.953 10.800,0.953 C11.463,0.953 12.000,1.484 12.000,2.140 zM1.200,15.201 L1.200,18.763 L10.800,18.763 L10.800,15.201 L1.200,15.201 zM10.800,14.014 L10.800,4.515 L1.200,4.515 L1.200,14.014 L10.800,14.014 zM1.200,2.140 L1.200,3.327 L10.800,3.327 L10.800,2.140 L1.200,2.140 zM5.400,16.982 C5.400,16.654 5.669,16.388 6.000,16.388 C6.332,16.388 6.600,16.654 6.600,16.982 C6.600,17.310 6.332,17.576 6.000,17.576 C5.669,17.576 5.400,17.310 5.400,16.982 z" fill="#BBBBBB" /></svg>