<?xml version="1.0" encoding="utf-8"?>
<!-- Generator: Adobe Illustrator 21.0.2, SVG Export Plug-In . SVG Version: 6.00 Build 0)  -->
<svg version="1.1" xmlns="http://www.w3.org/2000/svg" xmlns:xlink="http://www.w3.org/1999/xlink" width="100" height="100" viewBox="0 0 100 100">
<path transform="matrix(3, 0, 0, 3, 25, 20)"
d="M12,2.1v16.6c0,0.7-0.5,1.2-1.2,1.2H1.2C0.5,20,0,19.4,0,18.8V2.1C0,1.5,0.5,1,1.2,1h9.6 C11.5,1,12,1.5,12,2.1z M1.2,15.2v3.6h9.6v-3.6H1.2z M10.8,14V4.5H1.2V14H10.8z M1.2,2.1v1.2h9.6V2.1H1.2z M5.4,17	c0-0.3,0.3-0.6,0.6-0.6c0.3,0,0.6,0.3,0.6,0.6S6.3,17.6,6,17.6C5.7,17.6,5.4,17.3,5.4,17z"/>
</svg>
