<svg xmlns="http://www.w3.org/2000/svg" width="16" height="5" viewBox="0 0 16 5">
  <metadata><?xpacket begin="﻿" id="W5M0MpCehiHzreSzNTczkc9d"?>
<x:xmpmeta xmlns:x="adobe:ns:meta/" x:xmptk="Adobe XMP Core 5.6-c138 79.159824, 2016/09/14-01:09:01        ">
   <rdf:RDF xmlns:rdf="http://www.w3.org/1999/02/22-rdf-syntax-ns#">
      <rdf:Description rdf:about=""/>
   </rdf:RDF>
</x:xmpmeta>
                                                                                                    
                                                                                                    
                                                                                                    
                                                                                                    
                                                                                                    
                                                                                                    
                                                                                                    
                                                                                                    
                                                                                                    
                                                                                                    
                                                                                                    
                                                                                                    
                                                                                                    
                                                                                                    
                                                                                                    
                                                                                                    
                                                                                                    
                                                                                                    
                                                                                                    
                                                                                                    
                           
<?xpacket end="w"?></metadata>
<defs>
    <style>
      .cls-1 {
        fill: #fff;
        fill-rule: evenodd;
        opacity: 0.5;
      }
    </style>
  </defs>
  <path id="Forma_1" data-name="Forma 1" class="cls-1" d="M1.917,0.667A1.965,1.965,0,0,0,0,2.667a1.965,1.965,0,0,0,1.917,2,1.965,1.965,0,0,0,1.917-2A1.965,1.965,0,0,0,1.917.667Zm11.5,0a1.965,1.965,0,0,0-1.917,2,1.918,1.918,0,1,0,3.833,0A1.965,1.965,0,0,0,13.417.667Zm-5.75,0a1.965,1.965,0,0,0-1.917,2,1.965,1.965,0,0,0,1.917,2,1.965,1.965,0,0,0,1.917-2A1.965,1.965,0,0,0,7.667.667Z"/>
</svg>
