<?xml version="1.0" encoding="UTF-8"?>
<svg xmlns="http://www.w3.org/2000/svg" viewBox="0 0 16 16">
    <path style="line-height:normal;text-indent:0;text-align:start;text-decoration-line:none;text-decoration-style:solid;text-decoration-color:#000;text-transform:none;block-progression:tb;isolation:auto;mix-blend-mode:normal" d="M 1.5 2 A 0.50005 0.50005 0 0 0 1 2.5 L 1 13.5 A 0.50005 0.50005 0 0 0 1.5 14 L 14.5 14 A 0.50005 0.50005 0 0 0 15 13.5 L 15 2.5 A 0.50005 0.50005 0 0 0 14.5 2 L 1.5 2 z M 2 3 L 6 3 L 6 13 L 2 13 L 2 3 z M 7 3 L 10 3 L 10 13 L 7 13 L 7 3 z M 11 3 L 14 3 L 14 13 L 11 13 L 11 3 z M 4 4 A 1 1 0 0 0 3 5 A 1 1 0 0 0 4 6 A 1 1 0 0 0 5 5 A 1 1 0 0 0 4 4 z M 8.5 4 A 0.5 0.5 0 0 0 8 4.5 A 0.5 0.5 0 0 0 8.5 5 A 0.5 0.5 0 0 0 9 4.5 A 0.5 0.5 0 0 0 8.5 4 z M 12.5 4 A 0.5 0.5 0 0 0 12 4.5 A 0.5 0.5 0 0 0 12.5 5 A 0.5 0.5 0 0 0 13 4.5 A 0.5 0.5 0 0 0 12.5 4 z M 4 7 A 1 1 0 0 0 3 8 A 1 1 0 0 0 4 9 A 1 1 0 0 0 5 8 A 1 1 0 0 0 4 7 z M 8 8 L 8 12 L 9 12 L 9 8 L 8 8 z M 12 8 L 12 12 L 13 12 L 13 8 L 12 8 z"/>
</svg>