<svg version="1.1" xmlns="http://www.w3.org/2000/svg" xmlns:xlink="http://www.w3.org/1999/xlink" width="29" height="35" viewBox="0 0 29 35"><g id="newsletter" ><path id="newsletter-stroke" d="M27.567,9.998 C27.567,9.998 27.567,31.220 27.567,31.220 C27.567,32.554 26.473,33.639 25.127,33.639 C25.127,33.639 3.786,33.639 3.786,33.639 C2.441,33.639 1.346,32.554 1.346,31.219 C1.346,31.219 1.346,3.838 1.346,3.838 C1.346,2.504 2.441,1.419 3.786,1.419 C3.786,1.419 19.104,1.419 19.104,1.419 C19.242,1.316 19.378,1.274 19.513,1.412 C19.513,1.412 27.589,9.467 27.589,9.467 C27.723,9.603 27.675,9.818 27.567,9.998 zM18.796,2.387 C18.796,2.387 3.786,2.387 3.786,2.387 C2.979,2.387 2.322,3.038 2.322,3.838 C2.322,3.838 2.322,31.219 2.322,31.219 C2.322,32.019 2.979,32.671 3.786,32.671 C3.786,32.671 25.127,32.671 25.127,32.671 C25.934,32.671 26.591,32.019 26.591,31.219 C26.591,31.219 26.591,10.326 26.591,10.326 C26.591,10.326 19.284,10.326 19.284,10.326 C19.014,10.326 18.796,10.109 18.796,9.842 C18.796,9.842 18.796,2.387 18.796,2.387 zM25.922,9.358 L19.772,3.094 L19.772,9.358 L25.922,9.358 z" fill="none" stroke="#FFFFFF" stroke-width="0.8" /></g></svg>