<svg width="24" height="24" viewBox="0 0 24 24" fill="none" xmlns="http://www.w3.org/2000/svg">
<path d="M4.63916 4.8571C5.32299 5.4126 5.57966 5.37043 6.86482 5.28426L18.9785 4.55735C19.2352 4.55735 19.0216 4.30068 18.9364 4.25852L16.9234 2.80377C16.5384 2.50494 16.0241 2.1621 15.0396 2.24735L3.31091 3.10352C2.88375 3.14568 2.79758 3.36018 2.96808 3.53068L4.63916 4.8571ZM5.36607 7.68043V20.4257C5.36607 21.1105 5.70799 21.3671 6.4789 21.3241L19.7916 20.5541C20.5625 20.5119 20.6487 20.0407 20.6487 19.4843V6.82426C20.6487 6.26876 20.4351 5.96901 19.963 6.01118L6.05082 6.82426C5.53749 6.86734 5.36607 7.12493 5.36607 7.68043ZM18.5083 8.36334C18.5935 8.74834 18.5083 9.13334 18.1233 9.17734L17.4816 9.30567V18.7143C16.9243 19.0141 16.411 19.1855 15.9829 19.1855C15.2972 19.1855 15.1258 18.971 14.6125 18.3302L10.4169 11.7431V18.1157L11.7442 18.4164C11.7442 18.4164 11.7442 19.1864 10.6736 19.1864L7.72007 19.3569C7.63482 19.1864 7.72007 18.7583 8.01982 18.6731L8.78982 18.4595V10.0326L7.7219 9.94642C7.63574 9.56142 7.85023 9.00592 8.44882 8.96284L11.6168 8.74926L15.9838 15.4217V9.51834L14.8701 9.39092C14.7848 8.91976 15.1267 8.57784 15.5548 8.53567L18.5083 8.36334ZM2.32641 1.94852L14.5272 1.05019C16.0251 0.921856 16.411 1.00711 17.3524 1.69185L21.2473 4.42902C21.889 4.89926 22.1035 5.0276 22.1035 5.54093V20.5541C22.1035 21.4946 21.7615 22.0519 20.5635 22.1362L6.39366 22.9924C5.49532 23.0355 5.06632 22.9071 4.59516 22.3076L1.72692 18.586C1.21358 17.9012 1 17.3888 1 16.7893V3.44452C1 2.67544 1.34283 2.03285 2.32641 1.94852Z" fill="#110945"/>
</svg>
