<svg version="1.1" xmlns="http://www.w3.org/2000/svg" xmlns:xlink="http://www.w3.org/1999/xlink" width="19" height="20" viewBox="0 0 19 20"><path id="notification" d="M18.575,17.447 C18.126,18.430 17.229,19.044 16.107,19.044 C16.107,19.044 2.867,19.044 2.867,19.044 C1.857,19.044 0.847,18.430 0.398,17.447 C-0.163,16.464 -0.163,15.235 0.398,14.252 C0.398,14.252 7.018,1.595 7.018,1.595 C7.579,0.612 8.477,-0.002 9.487,-0.002 C10.497,-0.002 11.506,0.612 11.955,1.595 C11.955,1.595 18.575,14.252 18.575,14.252 C19.136,15.235 19.136,16.464 18.575,17.447 zM17.678,14.989 C17.678,14.989 11.058,2.333 11.058,2.333 C10.721,1.718 10.160,1.349 9.487,1.349 C8.814,1.349 8.253,1.718 8.028,2.333 C8.028,2.333 1.408,14.989 1.408,14.989 C1.072,15.604 1.072,16.341 1.408,16.956 C1.745,17.570 2.306,17.939 2.867,17.939 C2.867,17.939 16.219,17.939 16.219,17.939 C16.892,17.939 17.453,17.570 17.678,16.956 C18.014,16.341 18.014,15.604 17.678,14.989 zM9.487,12.040 C9.150,12.040 8.926,11.794 8.926,11.426 C8.926,11.426 8.926,7.002 8.926,7.002 C8.926,6.633 9.150,6.388 9.487,6.388 C9.823,6.388 10.048,6.633 10.048,7.002 C10.048,7.002 10.048,11.426 10.048,11.426 C10.048,11.795 9.823,12.040 9.487,12.040 zM9.823,14.129 C9.936,14.252 9.936,14.375 9.935,14.621 C9.935,14.744 9.823,14.989 9.711,15.112 C9.823,15.235 9.599,15.235 9.487,15.235 C9.374,15.235 9.150,15.235 9.038,15.112 C8.926,14.989 8.926,14.866 8.926,14.621 C8.926,14.498 8.926,14.252 9.038,14.129 C9.262,13.884 9.599,13.884 9.823,14.129 z" fill="#FF3466" /></svg>