<svg version="1.1" xmlns="http://www.w3.org/2000/svg" xmlns:xlink="http://www.w3.org/1999/xlink" width="24" height="16" viewBox="0 0 24 16"><path id="onedrive" d="M19.414,5.835 C19.415,5.811 19.415,5.788 19.415,5.765 C19.415,2.777 16.925,0.345 13.866,0.345 C11.785,0.345 9.910,1.465 8.956,3.237 C8.505,2.983 7.990,2.847 7.463,2.847 C5.816,2.847 4.476,4.156 4.476,5.765 C4.476,5.817 4.477,5.869 4.480,5.921 C2.228,6.482 0.634,8.461 0.634,10.768 C0.634,13.526 2.932,15.770 5.756,15.770 C5.756,15.770 18.988,15.770 18.988,15.770 C19.044,15.770 19.098,15.759 19.146,15.738 C21.741,15.451 23.683,13.335 23.683,10.768 C23.683,8.328 21.839,6.236 19.414,5.835 zM18.351,13.984 C18.323,13.986 18.296,13.992 18.271,13.999 C18.271,13.999 5.988,13.999 5.988,13.999 C3.783,13.999 1.989,12.367 1.989,10.361 C1.989,8.586 3.382,7.078 5.301,6.776 C5.407,6.759 5.502,6.704 5.562,6.624 C5.623,6.543 5.646,6.443 5.625,6.347 C5.601,6.231 5.588,6.113 5.588,5.995 C5.588,4.992 6.485,4.176 7.588,4.176 C8.064,4.176 8.526,4.331 8.887,4.612 C8.984,4.687 9.115,4.716 9.241,4.689 C9.365,4.662 9.468,4.581 9.517,4.474 C10.198,2.967 11.796,1.993 13.587,1.993 C16.013,1.993 17.987,3.788 17.987,5.995 C17.987,6.112 17.981,6.228 17.971,6.342 C17.961,6.438 17.995,6.533 18.063,6.608 C18.131,6.682 18.228,6.728 18.334,6.736 C20.382,6.896 21.987,8.489 21.987,10.361 C21.987,12.257 20.423,13.814 18.351,13.984 z" fill="#2B88D8" /></svg>