<svg version="1.1" xmlns="http://www.w3.org/2000/svg" xmlns:xlink="http://www.w3.org/1999/xlink" width="13" height="19" viewBox="0 0 13 19"><path id="mot-de-passe" d="M11.917,18.516 C11.917,18.516 1.084,18.516 1.084,18.516 C0.486,18.516 0.001,18.023 0.001,17.415 C0.001,17.415 0.001,8.608 0.001,8.608 C0.001,8.000 0.486,7.507 1.084,7.507 C1.084,7.507 2.167,7.507 2.167,7.507 L2.167,7.507 L2.167,7.507 C2.167,7.507 2.167,5.305 2.167,5.305 C2.167,4.439 2.417,3.633 2.843,2.952 C3.611,1.721 4.960,0.902 6.501,0.902 C6.501,0.902 6.501,0.902 6.501,0.902 C6.501,0.902 6.501,0.902 6.501,0.902 C8.894,0.902 10.834,2.873 10.834,5.305 C10.834,5.305 10.834,7.507 10.834,7.507 L10.834,7.507 L10.834,7.507 C10.834,7.507 11.917,7.507 11.917,7.507 C12.515,7.507 13.000,8.000 13.000,8.608 C13.000,8.608 13.000,17.415 13.000,17.415 C13.000,18.023 12.515,18.516 11.917,18.516 zM9.750,5.305 C9.750,5.305 9.750,5.305 9.750,5.305 C9.750,3.481 8.295,2.002 6.501,2.002 C6.162,2.002 5.842,2.070 5.535,2.167 C4.991,2.340 4.509,2.646 4.130,3.060 C3.588,3.649 3.251,4.435 3.251,5.305 C3.251,5.305 3.251,7.507 3.251,7.507 L3.251,7.507 L3.251,7.507 L9.750,7.507 L9.750,6.956 L9.750,6.956 L9.750,5.305 zM11.917,8.608 L1.084,8.608 L1.084,17.415 L11.917,17.415 L11.917,8.608 zM4.334,13.011 C4.334,13.011 5.568,13.011 5.568,13.011 C5.755,12.684 6.101,12.461 6.501,12.461 C6.900,12.461 7.246,12.684 7.433,13.011 C7.433,13.011 8.667,13.011 8.667,13.011 C8.966,13.011 9.209,13.258 9.209,13.562 C9.209,13.866 8.966,14.113 8.667,14.113 C8.667,14.113 7.433,14.113 7.433,14.113 C7.246,14.440 6.900,14.663 6.501,14.663 C6.101,14.663 5.755,14.440 5.568,14.113 C5.568,14.113 4.334,14.113 4.334,14.113 C4.035,14.113 3.792,13.866 3.792,13.562 C3.792,13.258 4.035,13.011 4.334,13.011 zM6.501,18.516 C6.500,18.516 6.500,18.516 6.499,18.516 C6.499,18.516 6.502,18.516 6.502,18.516 C6.501,18.516 6.501,18.516 6.501,18.516 z" fill="#BBBBBB" /></svg>