<?xml version="1.0" encoding="UTF-8"?>
<svg width="16px" height="16px" viewBox="0 0 16 16" version="1.1" xmlns="http://www.w3.org/2000/svg" xmlns:xlink="http://www.w3.org/1999/xlink">
    <!-- Generator: Sketch 61.2 (89653) - https://sketch.com -->
    <title>play</title>
    <desc>Created with Sketch.</desc>
    <g id="White-desk-Copy" stroke="none" stroke-width="1" fill="none" fill-rule="evenodd">
        <g id="School-7" transform="translate(-607.000000, -358.000000)" fill="#FFFFFF" fill-rule="nonzero">
            <g id="Group-3" transform="translate(587.000000, 344.000000)">
                <g id="Group">
                    <g id="play" transform="translate(20.000000, 14.000000)">
                        <path d="M8,0 C3.58177083,0 0,3.58177083 0,8 C0,12.4182292 3.58177083,16 8,16 C12.4182292,16 16,12.4182292 16,8 C15.9950521,3.58385417 12.4161458,0.00494793333 8,0 Z M6.28541667,4.29270833 C6.3782552,4.2485677 6.48815103,4.26158853 6.56796873,4.3264323 L6.56796873,4.3264323 L10.8346354,7.79309897 C10.8970052,7.84375 10.9330729,7.91966147 10.9330729,8 C10.9330729,8.08033853 10.8970052,8.15625 10.8346354,8.20690103 L10.8346354,8.20690103 L6.56796873,11.6735677 C6.48815103,11.7384115 6.3782552,11.7514323 6.28541667,11.7072917 C6.19257813,11.663151 6.13333333,11.5695313 6.13333333,11.4666667 L6.13333333,11.4666667 L6.13333333,4.53333333 C6.13333333,4.43046873 6.19257813,4.33684897 6.28541667,4.29270833 Z" id="Shape"></path>
                    </g>
                </g>
            </g>
        </g>
    </g>
</svg>