<svg width="16" height="16" viewBox="0 0 16 16" fill="none" xmlns="http://www.w3.org/2000/svg">
<path fill-rule="evenodd" clip-rule="evenodd" d="M1.82503 1.82503C2.22511 1.42496 2.76773 1.2002 3.33353 1.2002H5.33353C5.77536 1.2002 6.13353 1.55837 6.13353 2.0002C6.13353 2.44202 5.77536 2.8002 5.33353 2.8002H3.33353C3.19208 2.8002 3.05642 2.85639 2.9564 2.9564C2.85639 3.05642 2.8002 3.19208 2.8002 3.33353V5.33353C2.8002 5.77536 2.44202 6.13353 2.0002 6.13353C1.55837 6.13353 1.2002 5.77536 1.2002 5.33353V3.33353C1.2002 2.76773 1.42496 2.22511 1.82503 1.82503ZM9.86686 2.0002C9.86686 1.55837 10.225 1.2002 10.6669 1.2002H12.6669C13.2327 1.2002 13.7753 1.42496 14.1754 1.82503C14.5754 2.22511 14.8002 2.76773 14.8002 3.33353V5.33353C14.8002 5.77536 14.442 6.13353 14.0002 6.13353C13.5584 6.13353 13.2002 5.77536 13.2002 5.33353V3.33353C13.2002 3.19208 13.144 3.05642 13.044 2.9564C12.944 2.85639 12.8083 2.8002 12.6669 2.8002H10.6669C10.225 2.8002 9.86686 2.44202 9.86686 2.0002ZM2.0002 9.86686C2.44202 9.86686 2.8002 10.225 2.8002 10.6669V12.6669C2.8002 12.8083 2.85639 12.944 2.9564 13.044C3.05642 13.144 3.19208 13.2002 3.33353 13.2002H5.33353C5.77536 13.2002 6.13353 13.5584 6.13353 14.0002C6.13353 14.442 5.77536 14.8002 5.33353 14.8002H3.33353C2.76773 14.8002 2.22511 14.5754 1.82503 14.1754C1.42496 13.7753 1.2002 13.2327 1.2002 12.6669V10.6669C1.2002 10.225 1.55837 9.86686 2.0002 9.86686ZM14.0002 9.86686C14.442 9.86686 14.8002 10.225 14.8002 10.6669V12.6669C14.8002 13.2327 14.5754 13.7753 14.1754 14.1754C13.7753 14.5754 13.2327 14.8002 12.6669 14.8002H10.6669C10.225 14.8002 9.86686 14.442 9.86686 14.0002C9.86686 13.5584 10.225 13.2002 10.6669 13.2002H12.6669C12.8083 13.2002 12.944 13.144 13.044 13.044C13.144 12.944 13.2002 12.8083 13.2002 12.6669V10.6669C13.2002 10.225 13.5584 9.86686 14.0002 9.86686Z" fill="#89929E"/>
</svg>
