<?xml version="1.0" encoding="UTF-8"?>
<svg width="19px" height="16px" viewBox="0 0 19 16" version="1.1" xmlns="http://www.w3.org/2000/svg" xmlns:xlink="http://www.w3.org/1999/xlink">
    <!-- Generator: Sketch 61.2 (89653) - https://sketch.com -->
    <title>presentation</title>
    <desc>Created with Sketch.</desc>
    <g id="White-desk-Copy" stroke="none" stroke-width="1" fill="none" fill-rule="evenodd">
        <g id="School-7" transform="translate(-673.000000, -358.000000)" fill="#FFFFFF" fill-rule="nonzero">
            <g id="Group-3" transform="translate(587.000000, 344.000000)">
                <g id="Group">
                    <g id="presentation" transform="translate(86.000000, 14.000000)">
                        <path d="M16.6025391,0 L8.56891743,0 C7.63922993,0 6.88574218,0.753627214 6.88574218,1.68317521 L6.88574218,5.640346 C7.31040736,5.851423 7.76925221,6.07965961 8.19754464,6.29255021 L8.85281807,4.98144532 C9.24958146,4.18861607 10.2167969,3.86648996 11.0093471,4.26255579 C11.8035714,4.66001675 12.1254185,5.62458146 11.7278181,6.41894532 L10.5597098,8.75571986 C10.5906808,9.06501114 10.5631975,9.37681361 10.4760045,9.67857143 L11.2472098,9.67857143 L9.21316964,15.2717634 C9.09249443,15.6035156 9.32575336,15.9906529 9.71679686,15.9906529 C9.93540736,15.9906529 10.1410435,15.8557478 10.2200056,15.6378348 L12.3871373,9.67857143 L12.7625558,9.67857143 L14.9517299,15.6396484 C15.0313895,15.8564453 15.2364676,15.9906529 15.4549386,15.9906529 C15.8203125,15.9906529 16.0881696,15.6256975 15.9574498,15.2703683 L13.9038784,9.67857143 L16.6025391,9.67857143 C17.5320871,9.67857143 18.2857143,8.92494421 18.2857143,7.99539621 L18.2857143,1.68317521 C18.2857143,0.753627214 17.5320871,0 16.6025391,0 L16.6025391,0 Z M15.4546596,7.38351004 L13.0510603,7.38351004 C12.7553014,7.38351004 12.515346,7.14355468 12.515346,6.84779575 C12.515346,6.55175782 12.7553014,6.31208146 13.0510603,6.31208146 L15.4546596,6.31208146 C15.7506975,6.31208146 15.9903739,6.55175782 15.9903739,6.84779575 C15.9903739,7.14355468 15.7506975,7.38351004 15.4546596,7.38351004 L15.4546596,7.38351004 Z M15.4546596,5.375 L13.0510603,5.375 C12.7553014,5.375 12.515346,5.13532364 12.515346,4.83928571 C12.515346,4.54352679 12.7553014,4.30357143 13.0510603,4.30357143 L15.4546596,4.30357143 C15.7506975,4.30357143 15.9903739,4.54352679 15.9903739,4.83928571 C15.9903739,5.13532364 15.7506975,5.375 15.4546596,5.375 L15.4546596,5.375 Z M15.4546596,3.36676896 L9.71679686,3.36676896 C9.42075893,3.36676896 9.18108257,3.12681361 9.18108257,2.83105468 C9.18108257,2.53529575 9.42075893,2.29534039 9.71679686,2.29534039 L15.4546596,2.29534039 C15.7506975,2.29534039 15.9903739,2.53529575 15.9903739,2.83105468 C15.9903739,3.12681361 15.7506975,3.36676896 15.4546596,3.36676896 L15.4546596,3.36676896 Z" id="Shape"></path>
                        <path d="M9.42578125,9.44880021 C9.52260043,9.16517857 9.52190289,8.86886161 9.44015068,8.59849329 L10.7696707,5.93973214 C10.9019252,5.67508371 10.7947824,5.35323661 10.5301339,5.22098214 C10.265625,5.08858818 9.94377789,5.19587054 9.81138393,5.46051896 L8.67745536,7.72809711 C7.999721,7.390625 6.97000557,6.87862721 6.1404855,6.46609932 C5.36872211,6.08231029 4.81794086,5.73814175 3.87820871,5.73814175 L3.40485493,5.73814175 C4.13657925,5.73814175 4.78962054,5.40136718 5.21707589,4.87430246 C5.54324779,4.47321429 5.73828125,3.96205357 5.73828125,3.40499443 C5.73828125,2.11607143 4.69363839,1.07142857 3.40457589,1.07142857 C2.11607143,1.07142857 1.07142857,2.11607143 1.07142857,3.40499443 C1.07142857,4.02399554 1.3125,4.58649554 1.70577568,5.00390625 C2.13099889,5.45605468 2.73493304,5.73814175 3.40443639,5.73828125 C2.50683593,5.73828125 1.62932479,6.10198104 0.998046857,6.73493304 C0.354492179,7.37681361 2.0301221e-15,8.23200336 2.0301221e-15,9.14299664 L2.0301221e-15,10.8643973 C2.0301221e-15,11.6054688 0.481166286,12.2360491 1.14760043,12.4603795 L1.14760043,15.4547991 C1.14760043,15.7506975 1.38741629,15.9905134 1.68331471,15.9905134 L5.12611607,15.9905134 C5.4220145,15.9905134 5.66183036,15.7506975 5.66183036,15.4547991 L5.66183036,9.43568639 C6.16978236,9.68959264 6.83705357,10.0231585 7.37695314,10.2932478 C7.75544086,10.4824219 8.19768414,10.499442 8.59207589,10.3390067 C8.98535157,10.1771764 9.28850446,9.85505021 9.42368861,9.45507814 C9.42438614,9.4529855 9.42508371,9.45089286 9.42578125,9.44880021 L9.42578125,9.44880021 Z" id="Path"></path>
                    </g>
                </g>
            </g>
        </g>
    </g>
</svg>