<?xml version="1.0" encoding="UTF-8"?>
<svg width="14px" height="13px" viewBox="0 0 14 13" version="1.1" xmlns="http://www.w3.org/2000/svg" xmlns:xlink="http://www.w3.org/1999/xlink">
    <!-- Generator: Sketch 61.2 (89653) - https://sketch.com -->
    <title>print-24px</title>
    <desc>Created with Sketch.</desc>
    <g id="Desktop-Entier" stroke="none" stroke-width="1" fill="none" fill-rule="evenodd">
        <g id="Preview-4" transform="translate(-439.000000, -201.000000)" fill="#89929E" fill-rule="nonzero">
            <g id="print-24px" transform="translate(439.000000, 201.000000)">
                <path d="M11.4975845,3.38164251 L2.02898551,3.38164251 C0.906280193,3.38164251 0,4.28792271 0,5.41062802 L0,9.46859903 L2.70531401,9.46859903 L2.70531401,12.173913 L10.821256,12.173913 L10.821256,9.46859903 L13.52657,9.46859903 L13.52657,5.41062802 C13.52657,4.28792271 12.6202899,3.38164251 11.4975845,3.38164251 Z M9.46859903,10.821256 L4.05797101,10.821256 L4.05797101,7.43961353 L9.46859903,7.43961353 L9.46859903,10.821256 Z M11.4975845,6.08695652 C11.1256039,6.08695652 10.821256,5.7826087 10.821256,5.41062802 C10.821256,5.03864734 11.1256039,4.73429952 11.4975845,4.73429952 C11.8695652,4.73429952 12.173913,5.03864734 12.173913,5.41062802 C12.173913,5.7826087 11.8695652,6.08695652 11.4975845,6.08695652 Z M10.821256,0 L2.70531401,0 L2.70531401,2.70531401 L10.821256,2.70531401 L10.821256,0 Z" id="Shape"></path>
            </g>
        </g>
    </g>
</svg>