<svg width="20" height="25" viewBox="0 0 20 25" fill="none" xmlns="http://www.w3.org/2000/svg">
<path fill-rule="evenodd" clip-rule="evenodd" d="M7.20776 3.29615C7.96802 2.45142 8.97517 2 10 2C11.0248 2 12.032 2.45142 12.7922 3.29615C13.5556 4.14436 14 5.31533 14 6.55556V7C14 7.55229 14.4477 8 15 8C15.5523 8 16 7.55229 16 7V6.55556C16 4.84893 15.3908 3.19375 14.2788 1.95822C13.1637 0.719214 11.6273 0 10 0C8.37266 0 6.83628 0.719214 5.72117 1.95822C4.6092 3.19375 4 4.84893 4 6.55556V10H3C1.19307 10 0 11.6691 0 13.3636V21.6364C0 23.3309 1.19307 25 3 25H17C18.8069 25 20 23.3309 20 21.6364V13.3636C20 11.6691 18.8069 10 17 10H6V6.55556C6 5.31533 6.44437 4.14436 7.20776 3.29615ZM12.5714 15.5714C12.5714 16.2236 12.3287 16.819 11.9286 17.2723V21.6C11.9286 21.8209 11.7495 22 11.5286 22H8.47143C8.25052 22 8.07143 21.8209 8.07143 21.6V17.2723C7.67134 16.819 7.42857 16.2236 7.42857 15.5714C7.42857 14.1513 8.57984 13 10 13C11.4202 13 12.5714 14.1513 12.5714 15.5714Z" fill="#89929E"/>
</svg>
