<?xml version="1.0" encoding="utf-8"?><!DOCTYPE svg PUBLIC "-//W3C//DTD SVG 1.1//EN" "http://www.w3.org/Graphics/SVG/1.1/DTD/svg11.dtd"><svg version="1.1" baseProfile="full" xmlns="http://www.w3.org/2000/svg" xmlns:xlink="http://www.w3.org/1999/xlink" xmlns:ev="http://www.w3.org/2001/xml-events"   height="54px"   width="54px" ><path fill="rgb( 255, 52, 102 )" d="M52.566,27.912 L46.951,33.527 C46.434,34.044 45.596,34.044 45.079,33.527 C44.563,33.01 44.563,32.172 45.079,31.655 L48.4349999999999,28.299 L48.4349999999999,25.653 L45.079,22.297 C44.563,21.78 44.563,20.942 45.079,20.426 C45.596,19.909 46.434,19.909 46.951,20.426 L52.566,26.04 C53.082,26.557 53.082,27.395 52.566,27.912 ZM27.912,52.566 C27.396,53.082 26.558,53.082 26.0410000000001,52.566 L20.426,46.951 C19.909,46.434 19.909,45.596 20.425,45.079 C20.942,44.563 21.78,44.563 22.297,45.079 L25.653,48.4349999999999 L28.3,48.4349999999999 L31.655,45.079 C32.172,44.563 33.01,44.563 33.527,45.079 C34.044,45.596 34.044,46.434 33.527,46.951 L27.912,52.566 ZM30.9880000000001,26.994 C30.9880000000001,29.2 29.2,30.9880000000001 26.994,30.9880000000001 C24.788,30.9880000000001 23,29.2 23,26.994 C23,24.788 24.788,23 26.994,23 C29.2,23 30.9880000000001,24.788 30.9880000000001,26.994 ZM31.655,8.87300000000005 L28.3,5.51800000000003 L25.653,5.51800000000003 L22.297,8.87300000000005 C21.78,9.38999999999999 20.942,9.38999999999999 20.426,8.87300000000005 C19.909,8.35599999999999 19.909,7.51800000000003 20.426,7.00099999999998 L26.04,1.38699999999994 C26.557,0.87 27.395,0.87 27.912,1.38699999999994 L33.527,7.00099999999998 C34.044,7.51800000000003 34.044,8.35599999999999 33.527,8.87300000000005 C33.01,9.38999999999999 32.172,9.38999999999999 31.655,8.87300000000005 ZM5.51800000000003,25.653 L5.51800000000003,28.3 L8.87300000000005,31.655 C9.38999999999999,32.172 9.38999999999999,33.01 8.87300000000005,33.527 C8.35599999999999,34.044 7.51800000000003,34.044 7.00199999999995,33.527 L1.38699999999994,27.912 C0.87,27.396 0.87,26.558 1.38699999999994,26.0410000000001 L7.00099999999998,20.426 C7.51800000000003,19.909 8.35599999999999,19.909 8.87300000000005,20.425 C9.38999999999999,20.942 9.38999999999999,21.78 8.87300000000005,22.297 L5.51800000000003,25.653 Z "/></svg>