<?xml version="1.0" encoding="utf-8"?>
<!-- Generator: Adobe Illustrator 21.0.0, SVG Export Plug-In . SVG Version: 6.00 Build 0)  -->
<svg version="1.1"
	 id="svg4" xmlns:cc="http://creativecommons.org/ns#" xmlns:dc="http://purl.org/dc/elements/1.1/" xmlns:rdf="http://www.w3.org/1999/02/22-rdf-syntax-ns#" xmlns:svg="http://www.w3.org/2000/svg"
	 xmlns="http://www.w3.org/2000/svg" xmlns:xlink="http://www.w3.org/1999/xlink" x="0px" y="0px" viewBox="0 0 100 100"
	 style="enable-background:new 0 0 100 100;" xml:space="preserve">
<g>
	<path d="M50,20.5c-16.3,0-29.5,13.2-29.5,29.5S33.7,79.5,50,79.5S79.5,66.3,79.5,50S66.3,20.5,50,20.5z M50,77.5
		c-15.2,0-27.5-12.3-27.5-27.5S34.8,22.5,50,22.5S77.5,34.8,77.5,50S65.2,77.5,50,77.5z"/>
</g>
<g>
	<path d="M58.4,34.5c-2.9,0-5.2,2.3-5.2,5.2s2.3,5.2,5.2,5.2s5.2-2.3,5.2-5.2S61.2,34.5,58.4,34.5z"/>
	<path d="M58.4,43.1c-1.9,0-3.4-1.5-3.4-3.4s1.5-3.4,3.4-3.4s3.4,1.5,3.4,3.4S60.2,43.1,58.4,43.1z"/>
</g>
</svg>
