<svg width="40" height="40" viewBox="0 0 40 40" fill="none" xmlns="http://www.w3.org/2000/svg">
<path fill-rule="evenodd" clip-rule="evenodd" d="M9 9C7.34315 9 6 10.3431 6 12V24C6 25.6569 7.34315 27 9 27H19V31H11.5455C10.9932 31 10.5455 31.4477 10.5455 32C10.5455 32.5523 10.9932 33 11.5455 33H28.4545C29.0068 33 29.4545 32.5523 29.4545 32C29.4545 31.4477 29.0068 31 28.4545 31H21V27H31C32.6569 27 34 25.6569 34 24V12C34 10.3431 32.6569 9 31 9H9ZM21.4541 13.0495L27.8769 17.2777C28.041 17.3857 28.041 17.6143 27.8769 17.7223L21.4541 21.9505C21.2628 22.0764 21 21.9477 21 21.7281V18.6667C19.4444 18.4444 16.0667 19.2 15 24C15 20.8606 15.7297 18.416 17 17.3333C18.2524 16.266 19.889 16 21 16V13.2719C21 13.0523 21.2628 12.9236 21.4541 13.0495Z" fill="#89929E"/>
</svg>