<?xml version="1.0" encoding="UTF-8"?>
<svg id="Calque_1" data-name="Calque 1" xmlns="http://www.w3.org/2000/svg" viewBox="0 0 46 50.27">
  <defs>
    <style>
      .cls-1 {
        fill: none;
      }

      .cls-2 {
        fill: #1d1d1c;
      }
    </style>
  </defs>
  <path class="cls-1" d="m22.95,39.5c12.02,0,19.53-2.22,20-3.91v-6.92c-2.73,1.84-10.64,3.17-20,3.17s-17.27-1.33-20-3.17v6.92c.48,1.69,7.98,3.91,20,3.91Z"/>
  <path class="cls-1" d="m37.6,25c-3.9-.85-9.11-1.32-14.65-1.32s-10.75.47-14.65,1.32c-4.41.96-5.37,2.04-5.37,2.26,0,.02,0,.04.02.07.15.32,1.28,1.3,5.35,2.19,3.9.85,9.11,1.32,14.65,1.32s10.75-.47,14.65-1.32c4.07-.88,5.19-1.87,5.35-2.19.01-.03.02-.05.02-.07,0-.22-.96-1.3-5.37-2.26Z"/>
  <path class="cls-1" d="m22.95,40.49c-8.32,0-17.06-1.18-20-3.41v6.5h0c0,.16.08.31.19.46,1.2,1.64,8.5,3.62,19.81,3.62s18.61-1.98,19.81-3.62c.11-.15.19-.3.19-.45h0v-6.51c-2.94,2.22-11.68,3.41-20,3.41Z"/>
  <polygon class="cls-2" points="14.73 13.38 22.95 27.63 31.18 13.38 25.45 13.38 25.45 1.93 20.45 1.93 20.45 13.38 14.73 13.38"/>
  <path class="cls-2" d="m43.86,26.79c-.14-.31-.43-.61-.84-.89-.41-.29-.94-.56-1.59-.82-.32-.13-.68-.26-1.05-.38-1.89-.61-4.43-1.11-7.41-1.46-1.19-.14-2.45-.26-3.77-.35-1.97-.13-4.07-.21-6.25-.21s-4.28.07-6.25.21c-1.32.09-2.58.21-3.77.35-2.98.35-5.52.86-7.41,1.46-.38.12-.73.25-1.05.38-.65.26-1.18.53-1.59.82-.41.29-.69.59-.84.89-.07.15-.11.31-.11.47v16.79c0,1.78,4.7,3.33,11.55,4.08,2.98.35,6.26.52,9.47.52s6.49-.18,9.47-.52c6.85-.75,11.55-2.3,11.55-4.08v-16.79c0-.16-.04-.31-.11-.47Zm-20.91,20.37c-10.5,0-17.11-1.69-18.97-3.03v-5.88c3.98,1.88,12.06,2.74,18.97,2.74s14.99-.86,18.97-2.74v5.88c-1.87,1.34-8.48,3.03-18.97,3.03Zm18.97-11.13c-1.88,1.27-8.52,2.97-18.97,2.97s-17.09-1.71-18.97-2.97v-6.26c3.61,1.56,10.87,2.57,18.97,2.57s15.36-1.01,18.97-2.57v6.26Zm-4.43-7c-3.87.84-9.03,1.31-14.54,1.31s-10.68-.46-14.54-1.31c-3.29-.72-4.47-1.46-4.85-1.77.38-.32,1.57-1.06,4.85-1.77,3.87-.84,9.03-1.31,14.54-1.31s10.68.46,14.54,1.31c3.27.71,4.46,1.45,4.85,1.77-.38.31-1.57,1.06-4.85,1.77Z"/>
</svg>