<svg version="1.1" xmlns="http://www.w3.org/2000/svg" xmlns:xlink="http://www.w3.org/1999/xlink" width="38" height="38" viewBox="0 0 38 38"><g id="parametres" ><path id="parametres-stroke" d="M34.039,14.875 C34.039,14.875 32.482,14.875 32.482,14.875 C32.217,14.006 31.868,13.176 31.446,12.387 C31.446,12.387 32.552,11.283 32.552,11.283 C33.835,9.999 34.755,8.708 33.471,7.423 C33.471,7.423 30.577,4.529 30.577,4.529 C29.960,3.912 29.915,4.484 29.042,4.484 C29.042,4.484 29.042,4.484 29.042,4.484 C28.168,4.484 27.333,4.831 26.714,5.447 C26.714,5.447 25.609,6.552 25.609,6.552 C24.821,6.133 23.991,5.784 23.123,5.516 C23.123,5.516 23.123,3.960 23.123,3.960 C23.123,2.142 22.747,0.670 20.930,0.670 C20.930,0.670 17.070,0.670 17.070,0.670 C15.252,0.670 14.871,2.142 14.871,3.960 C14.871,3.960 14.871,5.516 14.871,5.516 C14.004,5.781 13.173,6.130 12.385,6.552 C12.385,6.552 11.281,5.447 11.281,5.447 C9.996,4.162 8.708,3.244 7.423,4.529 C7.423,4.529 4.529,7.423 4.529,7.423 C3.244,8.707 4.161,9.998 5.446,11.282 C5.446,11.282 6.550,12.386 6.550,12.386 C6.131,13.176 5.781,14.006 5.514,14.874 C5.514,14.874 3.960,14.874 3.960,14.874 C2.142,14.874 0.670,15.252 0.670,17.070 C0.670,17.070 0.670,19.835 0.670,19.835 C0.670,21.651 2.142,23.125 3.960,23.125 C3.960,23.125 5.515,23.125 5.515,23.125 C5.781,23.992 6.130,24.824 6.551,25.612 C6.551,25.612 5.446,26.717 5.446,26.717 C4.162,28.001 3.246,29.292 4.529,30.577 C4.529,30.577 7.423,33.471 7.423,33.471 C7.536,33.584 8.232,33.778 8.955,33.514 C8.955,33.514 8.955,33.514 8.955,33.514 C9.829,33.514 10.665,33.167 11.282,32.553 C11.282,32.553 12.388,31.447 12.388,31.447 C13.175,31.867 14.006,32.216 14.873,32.483 C14.873,32.483 14.873,34.040 14.873,34.040 C14.873,35.856 15.252,37.330 17.070,37.330 C17.070,37.330 20.930,37.330 20.930,37.330 C22.747,37.330 23.125,35.856 23.125,34.040 C23.125,34.040 23.125,32.483 23.125,32.483 C23.993,32.217 24.823,31.868 25.610,31.447 C25.610,31.447 26.717,32.553 26.717,32.553 C27.333,33.169 28.171,33.514 29.045,33.514 C29.918,33.514 30.418,33.551 30.577,33.471 C30.577,33.471 33.471,30.577 33.471,30.577 C34.755,29.292 33.836,28.002 32.553,26.717 C32.553,26.717 31.447,25.614 31.447,25.614 C31.868,24.824 32.216,23.992 32.483,23.126 C32.483,23.126 34.040,23.126 34.040,23.126 C35.858,23.126 37.330,22.746 37.330,20.930 C37.330,20.930 37.330,17.070 37.330,17.070 C37.329,15.254 35.856,14.875 34.039,14.875 zM18.491,23.080 C15.961,23.080 13.902,21.022 13.902,18.491 C13.902,15.961 15.961,13.902 18.491,13.902 C21.022,13.902 23.080,15.961 23.080,18.491 C23.080,21.022 21.022,23.080 18.491,23.080 z" fill="none" stroke="#FFFFFF" stroke-width="1.41" /></g></svg>