<svg width="16" height="16" viewBox="0 0 16 16" fill="none" xmlns="http://www.w3.org/2000/svg">
<path d="M13.4991 8.13503C13.5016 8.04503 13.5016 7.95503 13.4991 7.86503L14.4316 6.70003C14.4804 6.63886 14.5143 6.56706 14.5304 6.49042C14.5464 6.41378 14.5443 6.33443 14.5241 6.25878C14.3709 5.68425 14.1423 5.13256 13.8441 4.61815C13.805 4.55085 13.7507 4.4936 13.6856 4.45096C13.6205 4.40832 13.5464 4.38146 13.4691 4.37253L11.9866 4.20753C11.9249 4.14253 11.8624 4.08003 11.7991 4.02003L11.6241 2.53378C11.6151 2.45641 11.5881 2.38222 11.5453 2.31711C11.5026 2.252 11.4452 2.19779 11.3778 2.15878C10.8634 1.86081 10.3117 1.63256 9.73718 1.48003C9.66152 1.45982 9.58218 1.45766 9.50554 1.47372C9.42889 1.48979 9.35709 1.52363 9.29593 1.57253L8.13405 2.50003C8.04405 2.50003 7.95405 2.50003 7.86405 2.50003L6.69905 1.5694C6.63788 1.52051 6.56609 1.48666 6.48944 1.4706C6.4128 1.45453 6.33346 1.45669 6.2578 1.4769C5.68327 1.63005 5.13159 1.85871 4.61718 2.1569C4.54988 2.19598 4.49263 2.25023 4.44998 2.31533C4.40734 2.38044 4.38049 2.45459 4.37155 2.5319L4.20655 4.0169C4.14155 4.07899 4.07905 4.14149 4.01905 4.2044L2.5328 4.37503C2.45543 4.38403 2.38124 4.41098 2.31613 4.45373C2.25103 4.49649 2.19681 4.55386 2.1578 4.62128C1.85989 5.13576 1.63145 5.68743 1.47843 6.2619C1.4583 6.33761 1.45624 6.41698 1.47242 6.49362C1.48859 6.57027 1.52255 6.64204 1.57155 6.70315L2.49905 7.86503C2.49905 7.95503 2.49905 8.04503 2.49905 8.13503L1.56843 9.30003C1.51953 9.3612 1.48569 9.43299 1.46962 9.50964C1.45355 9.58628 1.45571 9.66562 1.47593 9.74128C1.62907 10.3158 1.85773 10.8675 2.15593 11.3819C2.19501 11.4492 2.24926 11.5065 2.31436 11.5491C2.37946 11.5917 2.45362 11.6186 2.53093 11.6275L4.01343 11.7925C4.07551 11.8575 4.13801 11.92 4.20093 11.98L4.37405 13.4663C4.38305 13.5436 4.41 13.6178 4.45276 13.6829C4.49551 13.7481 4.55288 13.8023 4.6203 13.8413C5.13478 14.1392 5.68645 14.3676 6.26093 14.5207C6.33663 14.5408 6.416 14.5428 6.49265 14.5267C6.56929 14.5105 6.64106 14.4765 6.70218 14.4275L7.86405 13.5C7.95405 13.5025 8.04405 13.5025 8.13405 13.5L9.29905 14.4325C9.36022 14.4814 9.43202 14.5153 9.50866 14.5313C9.5853 14.5474 9.66465 14.5452 9.7403 14.525C10.3149 14.3722 10.8666 14.1435 11.3809 13.845C11.4482 13.806 11.5055 13.7517 11.5481 13.6866C11.5908 13.6215 11.6176 13.5473 11.6266 13.47L11.7916 11.9875C11.8566 11.9259 11.9191 11.8634 11.9791 11.8L13.4653 11.625C13.5427 11.616 13.6169 11.5891 13.682 11.5463C13.7471 11.5036 13.8013 11.4462 13.8403 11.3788C14.1382 10.8643 14.3667 10.3126 14.5197 9.73815C14.5398 9.66245 14.5419 9.58308 14.5257 9.50643C14.5095 9.42979 14.4756 9.35802 14.4266 9.2969L13.4991 8.13503ZM7.99905 10.5C7.5046 10.5 7.02125 10.3534 6.61013 10.0787C6.199 9.804 5.87857 9.41355 5.68935 8.95674C5.50013 8.49992 5.45063 7.99726 5.54709 7.5123C5.64355 7.02735 5.88165 6.58189 6.23129 6.23226C6.58092 5.88263 7.02637 5.64453 7.51133 5.54807C7.99628 5.4516 8.49895 5.50111 8.95576 5.69033C9.41258 5.87955 9.80302 6.19998 10.0777 6.6111C10.3524 7.02223 10.4991 7.50558 10.4991 8.00003C10.4991 8.66307 10.2357 9.29895 9.76682 9.7678C9.29798 10.2366 8.66209 10.5 7.99905 10.5Z" fill="#0A0C11"/>
</svg>
