<svg version="1.1" xmlns="http://www.w3.org/2000/svg" xmlns:xlink="http://www.w3.org/1999/xlink" width="19" height="17" viewBox="0 0 19 17"><path id="partage" d="M15.389,17.000 C15.389,17.000 3.611,17.000 3.611,17.000 C1.621,17.000 0.000,15.437 0.000,13.519 C0.000,13.519 0.000,8.734 0.000,8.734 C0.000,8.379 0.299,8.091 0.667,8.091 C1.032,8.091 1.330,8.379 1.330,8.734 C1.330,8.734 1.330,13.519 1.330,13.519 C1.330,14.731 2.350,15.714 3.611,15.718 C3.611,15.718 15.389,15.718 15.389,15.718 C16.646,15.718 17.670,14.731 17.670,13.519 C17.670,13.519 17.670,8.812 17.670,8.812 C17.670,8.457 17.968,8.169 18.337,8.169 C18.701,8.169 19.000,8.457 19.000,8.812 C19.000,8.812 19.000,13.519 19.000,13.519 C19.000,15.437 17.379,17.000 15.389,17.000 zM12.845,4.778 C12.845,4.778 10.165,2.195 10.165,2.195 C10.165,2.195 10.165,12.543 10.165,12.543 C10.165,12.899 9.866,13.187 9.498,13.187 C9.133,13.187 8.835,12.899 8.835,12.543 C8.835,12.543 8.835,2.198 8.835,2.198 C8.835,2.198 6.136,4.801 6.136,4.801 C5.876,5.051 5.453,5.051 5.193,4.801 C4.933,4.550 4.933,4.143 5.193,3.892 C5.193,3.892 9.025,0.194 9.025,0.194 C9.040,0.176 9.060,0.165 9.075,0.150 C9.079,0.146 9.079,0.146 9.083,0.142 C9.095,0.131 9.110,0.123 9.126,0.112 C9.130,0.108 9.133,0.108 9.137,0.105 C9.153,0.094 9.168,0.086 9.184,0.079 C9.184,0.079 9.188,0.075 9.192,0.075 C9.207,0.067 9.227,0.060 9.242,0.052 C9.246,0.049 9.246,0.049 9.250,0.049 C9.269,0.041 9.285,0.034 9.304,0.030 C9.304,0.026 9.308,0.026 9.312,0.026 C9.331,0.022 9.347,0.019 9.366,0.015 C9.374,0.011 9.378,0.011 9.386,0.011 C9.401,0.007 9.417,0.004 9.432,0.004 C9.455,0.000 9.475,0.000 9.498,0.000 C9.521,0.000 9.541,0.000 9.564,0.004 C9.580,0.007 9.595,0.007 9.611,0.011 C9.618,0.015 9.622,0.015 9.630,0.015 C9.649,0.015 9.665,0.022 9.684,0.026 C9.684,0.030 9.688,0.030 9.692,0.030 C9.711,0.037 9.731,0.041 9.746,0.049 C9.750,0.052 9.750,0.052 9.754,0.052 C9.773,0.060 9.789,0.067 9.804,0.075 C9.804,0.075 9.808,0.079 9.812,0.079 C9.828,0.086 9.843,0.097 9.859,0.105 C9.863,0.108 9.866,0.108 9.870,0.112 C9.886,0.120 9.898,0.131 9.913,0.142 C9.917,0.146 9.917,0.146 9.921,0.150 C9.936,0.165 9.952,0.180 9.975,0.198 C9.975,0.198 13.788,3.873 13.788,3.873 C13.915,3.997 13.981,4.161 13.981,4.326 C13.981,4.490 13.915,4.655 13.788,4.778 C13.528,5.029 13.105,5.029 12.845,4.778 z" fill="#5D5D5D" /></svg>