<svg version="1.1" xmlns="http://www.w3.org/2000/svg" xmlns:xlink="http://www.w3.org/1999/xlink" width="30" height="39" viewBox="0 0 30 39">
<path id="drag-and-drop" d="M0.058,1.008 C0.025,1.118 0.015,1.240 0.015,1.351 C0.015,1.827 0.264,2.281 0.687,2.536 C9.660,7.740 10.267,13.166 10.311,19.356 C10.311,19.356 4.935,19.356 4.935,19.356 C4.436,19.356 3.981,19.644 3.754,20.098 C3.526,20.552 3.569,21.095 3.851,21.505 C3.851,21.505 15.751,38.425 15.751,38.425 C16.000,38.779 16.401,38.990 16.835,38.990 C17.268,38.990 17.669,38.779 17.919,38.425 C17.919,38.425 29.754,21.505 29.754,21.505 C30.046,21.095 30.079,20.552 29.851,20.098 C29.624,19.644 29.169,19.367 28.670,19.367 C28.670,19.367 23.208,19.367 23.208,19.367 C22.557,11.594 19.588,6.068 14.375,2.957 C9.953,0.310 4.816,0.000 1.337,0.000 C0.741,0.000 0.210,0.421 0.058,1.008 zM20.639,20.785 C20.672,21.505 21.257,22.069 21.961,22.069 C21.961,22.069 26.080,22.069 26.080,22.069 L16.813,35.302 L7.514,22.069 C7.514,22.069 11.633,22.069 11.633,22.069 C11.980,22.069 12.326,21.925 12.576,21.671 C12.825,21.416 12.966,21.073 12.966,20.707 C12.966,20.707 12.966,20.707 12.966,20.707 C12.966,14.750 12.966,8.626 6.127,3.001 C12.977,3.975 20.000,7.718 20.639,20.785 z" fill="#FF3466" />
</svg>
