<?xml version="1.0" encoding="UTF-8" standalone="no"?>
<!-- Creator: CorelDRAW -->
<svg
   xmlns:dc="http://purl.org/dc/elements/1.1/"
   xmlns:cc="http://creativecommons.org/ns#"
   xmlns:rdf="http://www.w3.org/1999/02/22-rdf-syntax-ns#"
   xmlns:svg="http://www.w3.org/2000/svg"
   xmlns="http://www.w3.org/2000/svg"
   xmlns:sodipodi="http://sodipodi.sourceforge.net/DTD/sodipodi-0.dtd"
   xmlns:inkscape="http://www.inkscape.org/namespaces/inkscape"
   xml:space="preserve"
   width="220"
   height="205.92999"
   style="fill-rule:evenodd"
   viewBox="0 0 2480 3508"
   id="svg2447"
   sodipodi:version="0.32"
   inkscape:version="0.46"
   sodipodi:docname="Icon_sound_loudspeaker2.svg"
   inkscape:output_extension="org.inkscape.output.svg.inkscape"
   version="1.0"><metadata
   id="metadata2467"><rdf:RDF><cc:Work
       rdf:about=""><dc:format>image/svg+xml</dc:format><dc:type
         rdf:resource="http://purl.org/dc/dcmitype/StillImage" /></cc:Work></rdf:RDF></metadata><sodipodi:namedview
   inkscape:window-height="480"
   inkscape:window-width="640"
   inkscape:pageshadow="2"
   inkscape:pageopacity="0.50196078"
   guidetolerance="10.0"
   gridtolerance="10.0"
   objecttolerance="10.0"
   borderopacity="1.0"
   bordercolor="#666666"
   pagecolor="#ff8080"
   id="base"
   showgrid="false"
   inkscape:zoom="2.4571457"
   inkscape:cx="110"
   inkscape:cy="102.965"
   inkscape:current-layer="svg2447" />
 <defs
   id="defs2449"><inkscape:perspective
   sodipodi:type="inkscape:persp3d"
   inkscape:vp_x="0 : 1754 : 1"
   inkscape:vp_y="0 : 1000 : 0"
   inkscape:vp_z="2480 : 1754 : 1"
   inkscape:persp3d-origin="1240 : 1169.3333 : 1"
   id="perspective2469" />
  <style
   type="text/css"
   id="style2451">
   
    .fil0 {fill:#000000}
    .fil1 {fill:#FFFFFF}
   
  </style>
 </defs>
 <g
   id="Outline"
   transform="matrix(1.6293558,0,0,1.6293558,-779.58657,-1107.0881)">
  <path
   class="fil0"
   d="M 1073,2701 L 601,2229 L 268,2227 C 222,2227 194,2200 194,2159 L 194,1354 C 194,1319 221,1288 260,1287 L 601,1285 L 1082,805 C 1124,763 1216,788 1216,868 L 1216,2646 C 1216,2739 1118,2746 1073,2701 z"
   id="path2454"
   style="fill:#000000" />
  <path
   class="fil0"
   d="M 2000,784 C 2001,784 2002,784 2003,784 C 2003,785 2003,785 2019,786 C 2032,791 2032,791 2040,794 C 2045,797 2050,800 2055,804 C 2057,806 2060,809 2063,812 C 2067,818 2070,823 2075,829 C 2091,861 2091,861 2115,912 C 2125,938 2136,963 2147,989 C 2163,1032 2163,1032 2179,1079 C 2195,1130 2195,1130 2211,1186 C 2216,1207 2221,1228 2227,1250 C 2232,1275 2237,1299 2243,1324 C 2248,1354 2253,1384 2259,1415 C 2267,1470 2267,1470 2275,1539 C 2279,1584 2279,1584 2283,1646 C 2285,1695 2285,1695 2285,1695 C 2285,1737 2285,1779 2285,1821 C 2279,1929 2279,1929 2275,1973 C 2267,2043 2267,2043 2259,2099 C 2251,2147 2251,2147 2235,2229 C 2229,2252 2224,2275 2219,2298 C 2203,2358 2203,2358 2187,2412 C 2181,2428 2176,2445 2171,2461 C 2160,2490 2149,2518 2139,2547 C 2131,2566 2123,2584 2115,2603 C 2104,2626 2093,2648 2083,2671 C 2079,2676 2076,2682 2072,2687 C 2070,2690 2068,2692 2066,2695 C 2059,2699 2053,2704 2047,2708 C 2040,2711 2033,2714 2026,2716 C 2021,2717 2016,2717 2010,2718 C 2005,2718 2000,2717 1994,2717 C 1985,2715 1985,2715 1974,2711 C 1964,2706 1964,2706 1955,2700 C 1950,2694 1944,2689 1939,2683 C 1936,2678 1933,2673 1931,2668 C 1927,2657 1927,2657 1925,2647 C 1925,2639 1925,2630 1925,2623 C 1926,2618 1927,2614 1928,2610 C 1936,2591 1936,2591 1968,2523 C 1979,2496 1989,2469 2000,2443 C 2016,2397 2016,2397 2032,2347 C 2048,2291 2048,2291 2064,2228 C 2080,2154 2080,2154 2088,2110 C 2096,2059 2096,2059 2104,1999 C 2106,1971 2109,1944 2112,1916 C 2113,1894 2115,1872 2116,1851 C 2117,1827 2117,1804 2118,1781 C 2118,1762 2118,1744 2118,1725 C 2117,1704 2116,1683 2116,1662 C 2114,1626 2114,1626 2106,1534 C 2103,1513 2100,1491 2098,1470 C 2092,1438 2087,1405 2082,1373 C 2074,1333 2074,1333 2058,1263 C 2042,1203 2042,1203 2026,1149 C 2020,1133 2015,1117 2010,1101 C 2002,1079 1994,1057 1986,1036 C 1978,1017 1970,998 1962,979 C 1948,951 1935,923 1922,895 C 1920,889 1919,883 1918,877 C 1918,871 1918,865 1918,859 C 1919,854 1920,849 1921,844 C 1927,830 1927,830 1932,821 C 1936,815 1941,811 1945,806 C 1950,802 1955,799 1959,795 C 1967,791 1967,791 1978,788 C 1986,786 1993,785 2000,784 z"
   id="path2456"
   style="fill:#000000" />
  <path
   class="fil0"
   d="M 1720,2601 C 1704,2597 1704,2597 1693,2593 C 1687,2589 1681,2585 1675,2582 C 1663,2570 1663,2570 1658,2563 C 1655,2556 1652,2550 1649,2544 C 1647,2538 1646,2532 1645,2526 C 1645,2520 1645,2514 1645,2509 C 1645,2505 1646,2501 1647,2497 C 1648,2493 1649,2489 1651,2485 C 1661,2462 1672,2440 1683,2417 C 1699,2378 1699,2378 1715,2336 C 1720,2320 1725,2305 1731,2289 C 1739,2262 1747,2234 1755,2207 C 1771,2141 1771,2141 1779,2102 C 1784,2070 1789,2039 1795,2007 C 1803,1941 1803,1941 1807,1898 C 1808,1868 1810,1837 1812,1807 C 1812,1775 1812,1742 1812,1710 C 1811,1683 1809,1657 1808,1630 C 1806,1614 1805,1599 1804,1583 C 1796,1516 1796,1516 1788,1463 C 1780,1419 1780,1419 1764,1345 C 1748,1284 1748,1284 1732,1230 C 1716,1183 1716,1183 1700,1140 C 1684,1101 1684,1101 1668,1066 C 1660,1049 1652,1033 1644,1016 C 1643,1011 1641,1006 1640,1001 C 1639,995 1639,989 1639,983 C 1641,968 1641,968 1643,961 C 1647,951 1647,951 1654,938 C 1657,935 1659,932 1662,928 C 1679,915 1679,915 1684,912 C 1689,911 1695,908 1700,906 C 1708,905 1715,905 1723,903 C 1728,904 1734,905 1740,905 C 1745,907 1749,908 1753,909 C 1772,920 1772,920 1777,924 C 1779,926 1782,929 1785,932 C 1788,937 1792,943 1796,948 C 1802,959 1807,970 1813,981 C 1823,1005 1834,1029 1845,1053 C 1861,1093 1861,1093 1877,1136 C 1882,1152 1887,1168 1893,1184 C 1898,1202 1903,1220 1909,1238 C 1914,1258 1919,1279 1925,1299 C 1930,1323 1935,1346 1941,1370 C 1946,1400 1951,1430 1957,1460 C 1959,1479 1962,1497 1965,1516 C 1973,1591 1973,1591 1977,1645 C 1978,1670 1979,1696 1980,1721 C 1980,1741 1980,1762 1980,1783 C 1979,1804 1979,1826 1978,1848 C 1977,1869 1975,1890 1974,1911 C 1970,1947 1966,1984 1962,2021 C 1959,2038 1956,2055 1954,2073 C 1949,2101 1943,2129 1938,2158 C 1932,2181 1927,2205 1922,2228 C 1917,2248 1911,2268 1906,2288 C 1901,2305 1895,2322 1890,2340 C 1874,2387 1874,2387 1858,2430 C 1850,2449 1842,2469 1834,2489 C 1818,2524 1818,2524 1802,2556 C 1799,2560 1797,2564 1794,2569 C 1792,2570 1791,2572 1789,2573 C 1789,2574 1789,2575 1788,2576 C 1788,2576 1787,2576 1786,2576 C 1778,2584 1778,2584 1768,2590 C 1759,2594 1759,2594 1747,2598 C 1743,2599 1740,2599 1735,2600 C 1731,2600 1725,2600 1720,2601 z"
   id="path2458"
   style="fill:#000000" />
  <path
   class="fil0"
   d="M 1438,2500 C 1430,2497 1422,2495 1414,2492 C 1409,2489 1404,2486 1399,2483 C 1391,2476 1391,2476 1384,2468 C 1378,2459 1378,2459 1374,2451 C 1373,2447 1371,2444 1370,2440 C 1369,2434 1368,2429 1367,2423 C 1367,2419 1367,2414 1367,2410 C 1369,2398 1369,2398 1373,2385 C 1378,2374 1384,2363 1389,2352 C 1397,2334 1405,2315 1413,2297 C 1429,2254 1429,2254 1445,2207 C 1450,2189 1456,2170 1461,2152 C 1466,2130 1471,2109 1477,2087 C 1480,2074 1482,2061 1485,2048 C 1489,2024 1493,2000 1497,1976 C 1505,1909 1505,1909 1509,1861 C 1510,1841 1511,1822 1512,1802 C 1512,1773 1512,1743 1512,1714 C 1511,1689 1509,1664 1508,1639 C 1505,1613 1503,1588 1500,1562 C 1497,1544 1495,1525 1492,1507 C 1487,1480 1481,1452 1476,1425 C 1471,1403 1465,1382 1460,1360 C 1455,1342 1449,1324 1444,1306 C 1439,1290 1433,1274 1428,1258 C 1412,1216 1412,1216 1396,1179 C 1388,1162 1380,1146 1372,1129 C 1369,1122 1366,1115 1364,1108 C 1362,1095 1362,1095 1362,1084 C 1363,1079 1363,1075 1364,1070 C 1365,1066 1366,1061 1368,1057 C 1371,1051 1374,1046 1377,1040 C 1379,1037 1382,1034 1384,1031 C 1389,1027 1393,1024 1398,1020 C 1414,1011 1414,1011 1421,1008 C 1427,1007 1432,1006 1438,1005 C 1442,1005 1447,1005 1453,1005 C 1465,1007 1465,1007 1477,1011 C 1484,1015 1490,1019 1497,1023 C 1505,1030 1507,1033 1511,1037 C 1523,1057 1523,1057 1539,1089 C 1544,1101 1549,1113 1555,1125 C 1565,1152 1576,1179 1587,1206 C 1603,1254 1603,1254 1619,1307 C 1624,1328 1630,1349 1635,1370 C 1640,1395 1645,1420 1651,1445 C 1653,1460 1656,1476 1659,1491 C 1663,1521 1667,1552 1671,1582 C 1673,1605 1675,1629 1677,1652 C 1678,1675 1679,1699 1680,1723 C 1680,1742 1680,1762 1680,1782 C 1679,1802 1679,1822 1678,1843 C 1677,1862 1675,1881 1674,1901 C 1671,1925 1668,1950 1666,1974 C 1658,2029 1658,2029 1650,2074 C 1642,2110 1634,2146 1626,2182 C 1610,2238 1610,2238 1594,2289 C 1589,2304 1583,2318 1578,2333 C 1570,2353 1562,2373 1554,2393 C 1546,2410 1538,2427 1530,2444 C 1525,2452 1520,2461 1515,2469 C 1511,2473 1507,2477 1504,2481 C 1498,2484 1493,2488 1487,2491 C 1483,2493 1477,2495 1472,2497 C 1469,2498 1466,2499 1462,2499 C 1454,2499 1446,2499 1438,2500 z"
   id="path2460"
   style="fill:#000000" />
  <path
   class="fil1"
   d="M 1048,2439 L 719,2110 L 719,1403 L 1047,1075 L 1048,2439 z"
   id="path2462"
   style="fill:#ffffff" />
  <path
   class="fil1"
   d="M 361,2061 L 361,1453 L 551,1453 L 551,2061 L 361,2061 z"
   id="path2464"
   style="fill:#ffffff" />
 </g>
</svg>