<?xml version="1.0" encoding="UTF-8"?>
<svg width="22px" height="22px" viewBox="0 0 22 22" version="1.1" xmlns="http://www.w3.org/2000/svg" xmlns:xlink="http://www.w3.org/1999/xlink">
    <!-- Generator: sketchtool 64 (101010) - https://sketch.com -->
    <title>A4E6020B-ED02-49EA-AB7F-533B3E3B655D</title>
    <desc>Created with sketchtool.</desc>
    <g id="Contacts-02/2020" stroke="none" stroke-width="1" fill="none" fill-rule="evenodd">
        <g id="Contacts-tag-1" transform="translate(-721.000000, -281.000000)" fill="#89929E" fill-rule="nonzero">
            <g id="tag" transform="translate(721.000000, 281.000000)">
                <path d="M19.6316833,0 L11.282486,0 C11.111618,0 10.9476318,0.0679778945 10.8267822,0.188827504 L0.692367543,10.3229065 C-0.230789195,11.2463989 -0.230789195,12.7487946 0.692367543,13.6719513 L8.32788086,21.3072967 C8.77368164,21.7530975 9.36836244,21.9988251 10.0021515,21.9988251 L10.0023193,21.9988251 C10.6362762,21.9988251 11.230957,21.7530975 11.6769256,21.3071289 L21.8110046,11.1728821 C21.9318542,11.0520325 22,10.8880463 22,10.7171784 L22,2.36798096 C22,1.06230163 20.9373627,0 19.6316833,0 Z M20.7109375,10.4503021 L10.7653503,20.3957214 C10.5629272,20.5983124 10.2918548,20.7097626 10.0023193,20.7097626 C9.71261595,20.7097626 9.44171143,20.5983124 9.23928835,20.3958893 L1.60377504,12.7605438 C1.18315123,12.3399201 1.18315123,11.6551056 1.60377504,11.234314 L11.5493622,1.2890625 L19.6316833,1.2890625 C20.2266998,1.2890625 20.7109375,1.77313232 20.7109375,2.36814879 L20.7109375,10.4503021 Z" id="Shape"></path>
                <path d="M16.3188934,3.65570068 C15.7779236,3.65570068 15.2693481,3.86651611 14.8868256,4.24903871 C14.504303,4.63139342 14.2936554,5.13996888 14.2936554,5.68093874 C14.2936554,6.22190856 14.504303,6.73048402 14.8868256,7.11300657 C15.2693481,7.49552916 15.7779236,7.70617676 16.3188934,7.70617676 C16.8596954,7.70617676 17.3682709,7.49552916 17.7507935,7.11300657 C18.1333161,6.73048402 18.3439636,6.22190856 18.3439636,5.68093874 C18.3439636,5.13996888 18.1333161,4.63139342 17.7509613,4.24903871 C17.3684387,3.86651611 16.8598633,3.65570068 16.3188934,3.65570068 L16.3188934,3.65570068 Z M16.839386,6.20143129 C16.7004089,6.34057617 16.5154419,6.41711426 16.3188934,6.41711426 C16.1221771,6.41711426 15.9373779,6.34057617 15.7984009,6.20143129 C15.659256,6.06245423 15.5827179,5.87748717 15.5827179,5.68093874 C15.5827179,5.48439027 15.659256,5.29942321 15.7984009,5.16044616 C15.9373779,5.02130127 16.122345,4.94476318 16.3188934,4.94476318 C16.5154419,4.94476318 16.7002411,5.02130127 16.839386,5.16044616 C16.9785309,5.29942321 17.055069,5.48439027 17.055069,5.68093874 C17.055069,5.87748717 16.978363,6.06245423 16.839386,6.20143129 L16.839386,6.20143129 Z" id="Shape"></path>
            </g>
        </g>
    </g>
</svg>