<?xml version="1.0" encoding="UTF-8"?>
<svg width="18px" height="16px" viewBox="0 0 18 16" version="1.1" xmlns="http://www.w3.org/2000/svg" xmlns:xlink="http://www.w3.org/1999/xlink">
    <!-- Generator: Sketch 61.2 (89653) - https://sketch.com -->
    <title>tchat</title>
    <desc>Created with Sketch.</desc>
    <g id="White-desk-Copy" stroke="none" stroke-width="1" fill="none" fill-rule="evenodd">
        <g id="School-7" transform="translate(-639.000000, -358.000000)" fill="#FFFFFF" fill-rule="nonzero" stroke="#FFFFFF" stroke-width="0.914285714">
            <g id="Group-3" transform="translate(587.000000, 344.000000)">
                <g id="Group">
                    <g id="tchat" transform="translate(52.000000, 14.000000)">
                        <path d="M13.0147883,4.60296229 C12.1706053,2.24666645 9.6696602,0.457142857 6.88665082,0.457142857 C3.32858671,0.457142857 0.457142857,2.96559318 0.457142857,6.01555911 C0.457142857,7.35213812 1.00596673,8.63009686 2.01634306,9.63878028 L2.18271355,9.80487201 L2.14439445,10.0368144 L1.64441791,13.0631092 L4.42926595,11.1476173 L4.64520398,11.2194981 C4.80074741,11.2712749 4.86731884,11.2955984 5.21877348,11.4265819 C5.49524544,11.5296201 5.71559807,11.6063536 5.90525522,11.6618161 C5.75327842,11.0921675 5.66331691,10.4407901 5.66331691,9.88689655 C5.66331691,6.919615 8.45720689,4.48630542 11.2993103,4.48630542 C12.0193323,4.48630542 12.5800951,4.52830886 13.0147883,4.60296229 Z" id="Shape"></path>
                        <path d="M15.9702477,15.4963878 L15.9714933,15.4972486 C15.9710807,15.4969596 15.9706655,15.4966727 15.9702477,15.4963878 Z M15.7326174,15.3321737 L15.3538765,12.9988437 L15.5140054,12.8339704 C16.2248373,12.1020772 16.6095238,11.1784799 16.6095238,10.2120308 C16.6095238,7.9840888 14.5299665,6.14603175 11.9500616,6.14603175 C9.36652897,6.14603175 7.28380952,7.98435543 7.28380952,10.2120308 C7.28380952,12.4397062 9.36652897,14.2780299 11.9500616,14.2780299 C12.5066321,14.2780299 13.0397944,14.1961664 13.5360832,14.0337377 L13.7516059,13.9632 L13.9381666,14.0921215 L15.7326174,15.3321737 Z" id="Shape"></path>
                    </g>
                </g>
            </g>
        </g>
    </g>
</svg>