<?xml version="1.0" encoding="UTF-8"?>
<svg width="15px" height="15px" viewBox="0 0 15 15" version="1.1" xmlns="http://www.w3.org/2000/svg" xmlns:xlink="http://www.w3.org/1999/xlink">
    <title>E78FB4CA-B3B1-4603-AB48-61D5BF522B74</title>
    <g id="Tchat-06/2020" stroke="none" stroke-width="1" fill="none" fill-rule="evenodd">
        <g id="Tchat-S25" transform="translate(-1019.000000, -661.000000)" fill="#FFFFFF" fill-rule="nonzero">
            <g id="Group-20" transform="translate(799.000000, 320.000000)">
                <g id="Group-6">
                    <g id="Group-16" transform="translate(98.000000, 330.000000)">
                        <g id="Group-14" transform="translate(112.000000, 0.000000)">
                            <g id="Group-13">
                                <path d="M16.7966606,19.2043696 C15.4506791,17.8584013 15.1467634,16.5124331 15.0782001,15.9731705 C15.0590414,15.824063 15.1103539,15.6745303 15.2170287,15.568602 L16.3062624,14.4798654 C16.46649,14.3197383 16.4949242,14.0701853 16.3748257,13.8781184 L14.6405615,11.1852093 C14.5076936,10.972531 14.2348798,10.8957732 14.0106052,11.0079675 L11.2264949,12.3191682 C11.0451323,12.4084718 10.9384574,12.6011636 10.9590491,12.8022677 C11.1049286,14.1881093 11.7091129,17.5948483 15.0570475,20.942993 C18.4049822,24.2911377 21.8112686,24.8950729 23.1978533,25.0409509 C23.3989594,25.0615424 23.5916531,24.9548686 23.6809576,24.7735078 L24.9921712,21.989425 C25.1039467,21.7656365 25.0276963,21.4935566 24.8159002,21.3604474 L22.1229645,19.6266866 C21.9310051,19.5064639 21.681461,19.5346949 21.5212115,19.694763 L20.4324642,20.7839859 C20.3265348,20.8906597 20.1770007,20.9419717 20.0278917,20.9228132 C19.4886238,20.8542505 18.1426422,20.5503379 16.7966606,19.2043696 Z" id="Shape"></path>
                            </g>
                        </g>
                    </g>
                </g>
            </g>
        </g>
    </g>
</svg>