<svg width="100" height="100" viewBox="0 0 100 100" fill="none" xmlns="http://www.w3.org/2000/svg">
<path d="M78.7378 67.298C82.6829 51.9321 75.7031 35.5116 61.44 28.5819C44.9009 20.5976 24.5684 27.9793 16.0712 45.153C10.9122 55.6983 11.2157 67.75 16.6782 77.542C17.7403 79.3498 16.9816 81.6095 15.3126 82.5133C13.4917 83.5679 11.2157 82.8146 10.3053 81.1575C3.62897 69.2564 3.17376 54.6437 9.39489 41.9894C19.5611 21.2002 44.2939 12.1614 64.6264 21.9535C82.3794 30.5403 90.8766 50.7269 85.8693 69.5577L90.2696 66.6955C91.9387 65.6409 94.3665 66.0929 95.4286 67.75C96.4908 69.4071 96.0356 71.8174 94.3665 72.872L81.6207 81.1575C80.7103 81.7601 79.7999 81.9107 78.7378 81.6094C77.0687 81.7601 75.5513 80.7056 75.0961 79.0485L69.9371 64.2851C69.3302 62.3267 70.2406 60.2177 72.2132 59.6151C74.1857 59.0125 76.31 59.9164 76.917 61.8748L78.7378 67.298Z" fill="black"/>
<path d="M46.8734 68.3526C41.4109 68.3526 37.1624 63.9838 37.1624 58.7112C37.1624 53.4386 41.5627 49.0698 46.8734 49.0698C52.1841 49.0698 56.5844 53.4386 56.5844 58.7112C56.5844 63.9838 52.3359 68.3526 46.8734 68.3526ZM46.8734 61.8748C48.6942 61.8748 50.0598 60.3683 50.0598 58.7112C50.0598 57.0541 48.5425 55.5476 46.8734 55.5476C45.2043 55.5476 43.687 57.0541 43.687 58.7112C43.687 60.3683 45.0526 61.8748 46.8734 61.8748Z" fill="black"/>
</svg>
