<svg width="40" height="40" viewBox="0 0 40 40" fill="none" xmlns="http://www.w3.org/2000/svg">
<path fill-rule="evenodd" clip-rule="evenodd" d="M26.3298 5.08555L37.4237 12.3887C37.7072 12.5753 37.7072 12.9701 37.4237 13.1568L26.3298 20.4599C25.9994 20.6774 25.5455 20.4551 25.5455 20.0759L25.5455 15.7879C22.8586 15.404 17 16.5 15.1818 23C14 17.5 16.4422 13.3549 18.6364 11.4848C20.7995 9.64124 23.6264 9.18181 25.5455 9.18181L25.5455 5.46959C25.5455 5.09034 25.9994 4.86807 26.3298 5.08555Z" fill="#89929E"/>
<path d="M28.5 19.0313V15C28.5 14.7239 28.2761 14.5 28 14.5H16.2674C16.9509 13.2166 17.8012 12.2008 18.6186 11.5H28C29.933 11.5 31.5 13.067 31.5 15V17.0564L28.5 19.0313Z" fill="#89929E"/>
<path d="M12.9622 14.5H8C7.72386 14.5 7.5 14.7239 7.5 15V29C7.5 29.2761 7.72386 29.5 8 29.5H28C28.2761 29.5 28.5 29.2761 28.5 29V22.6229L31.5 20.648V29C31.5 30.933 29.933 32.5 28 32.5H8C6.067 32.5 4.5 30.933 4.5 29V15C4.5 13.067 6.067 11.5 8 11.5H14.6052C13.9825 12.3731 13.416 13.3782 12.9622 14.5Z" fill="#89929E"/>
</svg>
