<svg width="40" height="40" viewBox="0 0 40 40" fill="none" xmlns="http://www.w3.org/2000/svg">
<path fill-rule="evenodd" clip-rule="evenodd" d="M17.8412 10.6793L17.0438 23.9374C17.0234 24.2761 17.3396 24.5126 17.6588 24.3974L30.1521 19.8886C30.5242 19.7544 30.6181 19.2577 30.3144 19.0306L27.2138 16.7111C28.9631 14.1765 32.5872 9.15659 39.5 11C35 7.5 30 7.99999 28 8.5C25.389 9.15277 23.5229 11.1431 22.2147 12.5384C22.1414 12.6166 22.0698 12.6929 22 12.767L22.2254 12.9794L18.6186 10.2813C18.3149 10.0541 17.865 10.2845 17.8412 10.6793Z" fill="#89929E"/>
<path d="M30.3144 19.0306C30.6181 19.2577 30.5242 19.7544 30.1521 19.8886L28.5 20.4849V17.6732L30.3144 19.0306Z" fill="#89929E"/>
<path d="M28.499 14.9678C28.5659 14.8851 28.6344 14.802 28.7044 14.7186C28.8126 14.5897 28.9244 14.4601 29.0399 14.3306C29.5218 13.7903 30.0681 13.2501 30.6856 12.7554C30.0436 11.9881 29.0788 11.5 28 11.5H23.2129C23.0322 11.6797 22.8593 11.8575 22.6941 12.0305C22.5266 12.2058 22.3669 12.3761 22.2147 12.5384C22.1414 12.6166 22.0698 12.6929 22 12.767L22.2254 12.9794L20.2477 11.5H17.7919L17.6114 14.5H28C28.2653 14.5 28.4824 14.7066 28.499 14.9678Z" fill="#89929E"/>
<path d="M28.5 23.6743V29C28.5 29.2761 28.2761 29.5 28 29.5H8C7.72386 29.5 7.5 29.2761 7.5 29V15C7.5 14.7239 7.72386 14.5 8 14.5H14.606L14.7865 11.5H8C6.067 11.5 4.5 13.067 4.5 15V29C4.5 30.933 6.067 32.5 8 32.5H28C29.933 32.5 31.5 30.933 31.5 29V22.5705C31.3932 22.623 31.2833 22.6698 31.1705 22.7105L28.5 23.6743Z" fill="#89929E"/>
<path d="M31.5 16.1709V16.0849C31.4842 16.1017 31.4684 16.1186 31.4527 16.1356L31.5 16.1709Z" fill="#89929E"/>
</svg>
