<svg version="1.1" xmlns="http://www.w3.org/2000/svg" xmlns:xlink="http://www.w3.org/1999/xlink" width="20" height="21" viewBox="0 0 20 21"><path id="supprimer" d="M19.601,5.326 C19.520,5.407 19.417,5.447 19.291,5.447 C19.291,5.447 17.999,5.447 17.999,5.447 C17.999,5.447 17.999,18.248 17.999,18.248 C17.999,18.995 17.788,19.640 17.367,20.185 C16.945,20.730 16.438,21.002 15.846,21.002 C15.846,21.002 4.648,21.002 4.648,21.002 C4.056,21.002 3.549,20.739 3.127,20.212 C2.706,19.686 2.495,19.049 2.495,18.301 C2.495,18.301 2.495,5.447 2.495,5.447 C2.495,5.447 1.203,5.447 1.203,5.447 C1.077,5.447 0.974,5.407 0.893,5.326 C0.812,5.245 0.772,5.141 0.772,5.015 C0.772,5.015 0.772,4.151 0.772,4.151 C0.772,4.025 0.812,3.921 0.893,3.840 C0.974,3.760 1.077,3.719 1.203,3.719 C1.203,3.719 5.361,3.719 5.361,3.719 C5.361,3.719 6.303,1.464 6.303,1.464 C6.438,1.131 6.680,0.848 7.030,0.614 C7.380,0.380 7.735,0.263 8.094,0.263 C8.094,0.263 12.400,0.263 12.400,0.263 C12.759,0.263 13.114,0.380 13.464,0.614 C13.814,0.848 14.056,1.131 14.190,1.464 C14.190,1.464 15.132,3.719 15.132,3.719 C15.132,3.719 19.291,3.719 19.291,3.719 C19.417,3.719 19.520,3.760 19.601,3.840 C19.681,3.921 19.722,4.025 19.722,4.151 C19.722,4.151 19.722,5.015 19.722,5.015 C19.722,5.141 19.681,5.245 19.601,5.326 zM12.616,2.139 C12.553,2.058 12.476,2.009 12.387,1.991 C12.387,1.991 8.120,1.991 8.120,1.991 C8.031,2.009 7.954,2.058 7.892,2.139 C7.892,2.139 7.232,3.719 7.232,3.719 L13.262,3.719 C13.262,3.719 12.616,2.139 12.616,2.139 zM16.276,5.447 L4.217,5.447 C4.217,5.447 4.217,18.248 4.217,18.248 C4.217,18.445 4.249,18.628 4.312,18.794 C4.374,18.961 4.439,19.082 4.507,19.159 C4.574,19.235 4.621,19.274 4.648,19.274 C4.648,19.274 15.846,19.274 15.846,19.274 C15.873,19.274 15.920,19.235 15.987,19.159 C16.054,19.082 16.119,18.961 16.182,18.794 C16.245,18.628 16.276,18.446 16.276,18.248 C16.276,18.248 16.276,5.447 16.276,5.447 zM14.123,16.681 C14.123,16.681 13.262,16.681 13.262,16.681 C13.136,16.681 13.033,16.641 12.952,16.560 C12.871,16.479 12.831,16.375 12.831,16.249 C12.831,16.249 12.831,8.472 12.831,8.472 C12.831,8.346 12.871,8.242 12.952,8.161 C13.033,8.080 13.136,8.040 13.262,8.040 C13.262,8.040 14.123,8.040 14.123,8.040 C14.249,8.040 14.352,8.080 14.433,8.161 C14.513,8.242 14.554,8.346 14.554,8.472 C14.554,8.472 14.554,16.249 14.554,16.249 C14.554,16.375 14.513,16.479 14.433,16.560 C14.352,16.641 14.249,16.681 14.123,16.681 zM10.678,16.681 C10.678,16.681 9.816,16.681 9.816,16.681 C9.691,16.681 9.587,16.641 9.507,16.560 C9.426,16.479 9.386,16.375 9.386,16.249 C9.386,16.249 9.386,8.472 9.386,8.472 C9.386,8.346 9.426,8.242 9.507,8.161 C9.587,8.080 9.691,8.040 9.816,8.040 C9.816,8.040 10.678,8.040 10.678,8.040 C10.803,8.040 10.906,8.080 10.987,8.161 C11.068,8.242 11.108,8.346 11.108,8.472 C11.108,8.472 11.108,16.249 11.108,16.249 C11.108,16.375 11.068,16.479 10.987,16.560 C10.906,16.641 10.803,16.681 10.678,16.681 zM7.232,16.681 C7.232,16.681 6.371,16.681 6.371,16.681 C6.245,16.681 6.142,16.641 6.061,16.560 C5.981,16.479 5.940,16.375 5.940,16.249 C5.940,16.249 5.940,8.472 5.940,8.472 C5.940,8.346 5.981,8.242 6.061,8.161 C6.142,8.080 6.245,8.040 6.371,8.040 C6.371,8.040 7.232,8.040 7.232,8.040 C7.358,8.040 7.461,8.080 7.542,8.161 C7.622,8.242 7.663,8.346 7.663,8.472 C7.663,8.472 7.663,16.249 7.663,16.249 C7.663,16.375 7.622,16.479 7.542,16.560 C7.461,16.641 7.358,16.681 7.232,16.681 z" fill="#585858" /></svg>