<svg width="28" height="26" viewBox="0 0 28 26" fill="none" xmlns="http://www.w3.org/2000/svg">
<path fill-rule="evenodd" clip-rule="evenodd" d="M11.5 5C11.5 6.933 9.933 8.5 8 8.5C6.067 8.5 4.5 6.933 4.5 5C4.5 3.067 6.067 1.5 8 1.5C9.933 1.5 11.5 3.067 11.5 5ZM13 5C13 7.76142 10.7614 10 8 10C5.23858 10 3 7.76142 3 5C3 2.23858 5.23858 0 8 0C10.7614 0 13 2.23858 13 5ZM23.5 8C23.5 9.933 21.933 11.5 20 11.5C18.067 11.5 16.5 9.933 16.5 8C16.5 6.067 18.067 4.5 20 4.5C21.933 4.5 23.5 6.067 23.5 8ZM25 8C25 10.7614 22.7614 13 20 13C17.2386 13 15 10.7614 15 8C15 5.23858 17.2386 3 20 3C22.7614 3 25 5.23858 25 8ZM10 12.5C11.9075 12.5 13.5378 13.6869 14.1928 15.3624C12.8539 16.4628 12 18.1317 12 20V21.5H1.5V17C1.5 14.5147 3.51472 12.5 6 12.5H10ZM12 23H1C0.447715 23 0 22.5523 0 22V17C0 13.6863 2.68629 11 6 11H10C12.4422 11 14.5437 12.4592 15.4801 14.5532C16.2463 14.1982 17.1 14 18 14H22C25.3137 14 28 16.6863 28 20V25C28 25.5523 27.5523 26 27 26H13C12.4477 26 12 25.5523 12 25V23ZM13.5 20C13.5 17.5147 15.5147 15.5 18 15.5H22C24.4853 15.5 26.5 17.5147 26.5 20V24.5H13.5V20Z" fill="white"/>
</svg>