<svg version="1.1" xmlns="http://www.w3.org/2000/svg" xmlns:xlink="http://www.w3.org/1999/xlink" width="17" height="17" viewBox="0 0 17 17"><path id="femer---croix" d="M9.995,8.493 C9.995,8.493 16.673,1.807 16.673,1.807 C17.088,1.392 17.088,0.719 16.673,0.304 C16.258,-0.112 15.587,-0.112 15.172,0.304 C15.172,0.304 8.493,6.989 8.493,6.989 C8.493,6.989 1.815,0.304 1.815,0.304 C1.400,-0.112 0.728,-0.112 0.313,0.304 C-0.102,0.719 -0.102,1.392 0.313,1.807 C0.313,1.807 6.992,8.493 6.992,8.493 C6.992,8.493 0.313,15.178 0.313,15.178 C-0.102,15.593 -0.102,16.267 0.313,16.682 C0.521,16.889 0.792,16.993 1.064,16.993 C1.335,16.993 1.607,16.889 1.815,16.682 C1.815,16.682 8.493,9.996 8.493,9.996 C8.493,9.996 15.172,16.682 15.172,16.682 C15.379,16.889 15.651,16.993 15.923,16.993 C16.194,16.993 16.466,16.889 16.673,16.682 C17.088,16.267 17.088,15.593 16.673,15.178 C16.673,15.178 9.995,8.493 9.995,8.493 z" fill="#5D5D5D" /></svg>