<?xml version="1.0" encoding="UTF-8"?>
<svg width="28px" height="26px" viewBox="0 0 28 26" version="1.1" xmlns="http://www.w3.org/2000/svg" xmlns:xlink="http://www.w3.org/1999/xlink">
    <title>BF35E2B8-56C3-4853-B350-40ABBDF8E402</title>
    <g id="Administration-07/2020" stroke="none" stroke-width="1" fill="none" fill-rule="evenodd">
        <g id="Administration-S2" transform="translate(-1311.000000, -342.000000)" fill-rule="nonzero">
            <g id="pop-up" transform="translate(1163.000000, 70.000000)">
                <g id="Group-13" transform="translate(25.000000, 34.000000)">
                    <g id="Group-5" transform="translate(123.000000, 238.000000)">
                        <path d="M12.6632666,14.8577651 C6.57862449,14.8577651 1.54543045e-13,18.0429602 1.54543045e-13,23.9669395 C1.54543045e-13,24.4231368 0.380314998,24.7934097 0.848884722,24.7934097 C1.31745445,24.7934097 1.69776944,24.4230593 1.69776944,23.966862 C1.69776944,18.9536502 7.51409274,16.5106281 12.6632666,16.5106281 C14.2172035,16.5106281 16.3399967,16.444931 17.3291614,17.1816065 C18.2,17.8301592 18.8897302,16.931849 18.8897302,15.9933352 C18.8897302,14.777034 14.778064,14.8577651 12.6632666,14.8577651 Z" id="Shape" fill="#476390"></path>
                        <path d="M12.6632666,9.05941988e-14 C9.38670045,9.05941988e-14 6.72123266,2.59500962 6.72123266,5.78513669 C6.72123266,8.97526376 9.38662087,11.5702734 12.6632666,11.5702734 C15.9399122,11.5702734 18.6053004,8.97518628 18.6053004,5.78513669 C18.6053004,2.5950871 15.9399122,9.05941988e-14 12.6632666,9.05941988e-14 Z M12.6632666,9.9173329 C10.3238399,9.9173329 8.41900211,8.06279165 8.41900211,5.78513669 C8.41900211,3.50748172 10.3238399,1.65294047 12.6632666,1.65294047 C15.0026932,1.65294047 16.907531,3.50748172 16.907531,5.78513669 C16.907531,8.06279165 15.0027728,9.9173329 12.6632666,9.9173329 Z" id="Shape" fill="#476390"></path>
                        <g id="Shape-2" transform="translate(14.000000, 12.000000)">
                            <path d="M7.58925941,0 C8.01332207,0 8.37304419,0.304157092 8.44323388,0.722373094 L8.44323388,0.722373094 L8.6070098,1.69333612 C8.9491845,1.79569668 9.27966092,1.93315229 9.59551449,2.09985377 L9.59551449,2.09985377 L10.408545,1.52078546 C10.5547735,1.41550031 10.7273231,1.35993315 10.9086465,1.35993315 C11.1396875,1.35993315 11.3561057,1.45059536 11.5198816,1.61437226 L11.5198816,1.61437226 L12.3914035,2.48589931 C12.6926342,2.78420723 12.7306536,3.2550658 12.4849898,3.60016712 L12.4849898,3.60016712 L11.9059249,4.41027784 C12.0667762,4.71443493 12.1983819,5.03321496 12.3007418,5.36369334 L12.3007418,5.36369334 L13.2833974,5.53039482 C13.7016109,5.60058492 14.0057662,5.96030917 14,6.38437435 L14,6.38437435 L14,7.61562565 C14,8.03969083 13.6957618,8.39941508 13.2775482,8.46960518 L13.2775482,8.46960518 L12.2948927,8.63338208 C12.1954573,8.96093587 12.0609271,9.2797159 11.9000757,9.58679758 L11.9000757,9.58679758 L12.4791406,10.3998329 C12.7248045,10.7449342 12.6838605,11.2157928 12.3855544,11.5141007 L12.3855544,11.5141007 L11.5140325,12.3856277 C11.3502566,12.5494046 11.1338384,12.6400668 10.9027973,12.6400668 L10.9027973,12.6400668 L10.7948924,12.6334456 C10.6524541,12.6158513 10.5167541,12.5634427 10.3997713,12.4792145 L10.3997713,12.4792145 L9.58966535,11.9001462 C9.28551006,12.0609985 8.96673192,12.192605 8.6362555,12.2949655 L8.6362555,12.2949655 L8.46955501,13.2776269 C8.39936532,13.6958429 8.0396432,14 7.61558054,14 L7.61558054,14 L6.38141196,14 C5.95734929,14 5.59762717,13.6958429 5.52743749,13.2776269 L5.52743749,13.2776269 L5.36366156,12.2949655 C5.04488342,12.1955296 4.73487899,12.0697723 4.43949741,11.9147692 L4.43949741,11.9147692 L3.61769321,12.4996867 C3.47146471,12.6049718 3.29891507,12.660539 3.11759173,12.660539 C2.88655069,12.660539 2.6701325,12.5698767 2.50635657,12.4060999 L2.50635657,12.4060999 L1.63483469,11.5345728 C1.33360397,11.2362649 1.29558455,10.7654063 1.54124844,10.420305 L1.54124844,10.420305 L2.11738875,9.61896804 C1.95361283,9.31481095 1.8190826,8.99603092 1.71672265,8.66847713 L1.71672265,8.66847713 L0.722368814,8.49885105 C0.30415529,8.42866096 0,8.0689367 0,7.64487153 L0,7.64487153 L0,6.41362022 C0,5.98955504 0.30415529,5.62983079 0.722368814,5.55964069 L0.722368814,5.55964069 L1.69332609,5.3958638 C1.79276147,5.06538542 1.92144256,4.74660539 2.08229391,4.43952371 L2.08229391,4.43952371 L1.49737989,3.61771464 C1.251716,3.27261333 1.29265998,2.80175475 1.59096613,2.50344684 L1.59096613,2.50344684 L2.46541259,1.63191978 C2.62626395,1.46814289 2.84560671,1.37748068 3.07664774,1.37748068 C3.25797109,1.37748068 3.4334453,1.43304784 3.5796738,1.53833299 L3.5796738,1.53833299 L4.38393058,2.1174013 C4.68808587,1.9536244 5.00686401,1.81909338 5.33441586,1.71673282 L5.33441586,1.71673282 L5.50404093,0.722373094 C5.57423061,0.304157092 5.93395273,0 6.3580154,0 L6.3580154,0 Z M7,4.2 C5.45498548,4.2 4.2,5.45498548 4.2,7 C4.2,8.54501452 5.45498548,9.8 7,9.8 C8.54501452,9.8 9.8,8.54501452 9.8,7 C9.8,5.45498548 8.54501452,4.2 7,4.2 Z M7,4.93184898 C8.1411423,4.93184898 9.06815102,5.8588577 9.06815102,7 C9.06815102,8.1411423 8.1411423,9.06815102 7,9.06815102 C5.8588577,9.06815102 4.93184898,8.1411423 4.93184898,7 C4.93184898,5.8588577 5.8588577,4.93184898 7,4.93184898 Z" id="Shape" fill="#476390"></path>
                        </g>
                    </g>
                </g>
            </g>
        </g>
    </g>
</svg>