<svg width="40" height="40" viewBox="0 0 40 40" fill="none" xmlns="http://www.w3.org/2000/svg">
<path fill-rule="evenodd" clip-rule="evenodd" d="M10 10C10 6.68629 12.6863 4 16 4C19.3137 4 22 6.68629 22 10C22 13.3137 19.3137 16 16 16C12.6863 16 10 13.3137 10 10ZM16 6C13.7909 6 12 7.79086 12 10C12 12.2091 13.7909 14 16 14C18.2091 14 20 12.2091 20 10C20 7.79086 18.2091 6 16 6Z" fill="#89929E"/>
<path fill-rule="evenodd" clip-rule="evenodd" d="M27 38C33.0751 38 38 33.0751 38 27C38 20.9249 33.0751 16 27 16C24.0769 16 21.4201 17.1402 19.4501 19L19.4107 19.0374C18.7942 19.6251 18.246 20.2837 17.7789 21C16.6538 22.7256 16 24.7864 16 27C16 33.0751 20.9249 38 27 38ZM25.8318 30.5521C25.7809 31.055 26.1957 31.4701 26.7012 31.4701C27.2013 31.4701 27.595 31.062 27.6699 30.5675C27.7701 29.9067 27.989 29.3718 28.3268 28.963L29.402 27.8009C30.4673 26.5815 31 25.3441 31 24.0888C31 22.8191 30.6515 21.822 29.9544 21.0975C29.2639 20.3658 28.2972 20 27.0543 20C25.8574 20 24.8841 20.3587 24.1344 21.076C23.5966 21.59 23.2499 22.2223 23.0945 22.9729C22.992 23.4675 23.4125 23.8843 23.9176 23.8843C24.4187 23.8843 24.7961 23.4617 24.9812 22.9961C25.0831 22.7397 25.2349 22.5157 25.4365 22.3241C25.8442 21.9368 26.3835 21.7431 27.0543 21.7431C27.7448 21.7431 28.2709 21.9583 28.6326 22.3887C28.9942 22.8119 29.1751 23.4001 29.1751 24.1533C29.1751 24.9352 28.8989 25.6669 28.3465 26.3484L27.0543 27.8009C26.5479 28.4035 26.2125 28.9523 26.0481 29.4472C25.9479 29.7489 25.8758 30.1172 25.8318 30.5521ZM25.9692 34.074C25.7916 34.2892 25.7028 34.5582 25.7028 34.881C25.7028 35.2038 25.7916 35.4728 25.9692 35.688C26.1533 35.896 26.4229 36 26.7781 36C27.1332 36 27.4028 35.896 27.5869 35.688C27.7711 35.4728 27.8631 35.2038 27.8631 34.881C27.8631 34.5582 27.7711 34.2892 27.5869 34.074C27.4028 33.8516 27.1332 33.7404 26.7781 33.7404C26.4229 33.7404 26.1533 33.8516 25.9692 34.074Z" fill="#89929E"/>
<path d="M11 19C9.43011 19 7.91182 19.5814 6.78215 20.6358C5.65014 21.6923 5 23.1406 5 24.6667V27C5 27.5523 5.44772 28 6 28C6.55228 28 7 27.5523 7 27V24.6667C7 23.7173 7.40342 22.7917 8.14678 22.0979C8.89248 21.4019 9.91773 21 11 21H15.4644C15.8331 20.2927 16.2649 19.6235 16.7523 19H11Z" fill="#89929E"/>
</svg>