<?xml version="1.0" encoding="UTF-8"?>
<svg width="18px" height="11px" viewBox="0 0 18 11" version="1.1" xmlns="http://www.w3.org/2000/svg" xmlns:xlink="http://www.w3.org/1999/xlink">
    <title>45374471-FDCF-457E-AE9F-4E6166454417</title>
    <g id="Tchat-06/2020" stroke="none" stroke-width="1" fill="none" fill-rule="evenodd">
        <g id="Tchat-S25" transform="translate(-906.000000, -662.000000)" fill="#18AC72" fill-rule="nonzero">
            <g id="Group-20" transform="translate(799.000000, 320.000000)">
                <g id="Group-6">
                    <g id="Group-16" transform="translate(98.000000, 330.000000)">
                        <g id="Group-10">
                            <g id="Group-8" transform="translate(9.600000, 11.947826)">
                                <g id="film" transform="translate(0.000000, 0.226817)">
                                    <path d="M16.6256488,0.96326242 C16.5174788,0.897872322 16.3837262,0.895319149 16.2733316,0.95673758 L12.418697,3.10397164 L12.418697,1.81560284 C12.4175847,0.813333351 11.6214645,0.00113475177 10.639036,0 L1.77966102,0 C0.797232539,0.00113475177 0.00111228814,0.813333351 0,1.81560284 L0,8.98439716 C0.00111228814,9.98666668 0.797232539,10.7988652 1.77966102,10.8 L10.639036,10.8 C11.6214645,10.7988652 12.4175847,9.98666668 12.418697,8.98439716 L12.418697,7.71943264 L16.2734706,9.86666667 C16.3837262,9.9280851 16.5176178,9.92567376 16.6256488,9.8602837 C16.7338189,9.79475176 16.8,9.67602837 16.8,9.54794325 L16.8,1.27546099 C16.8,1.14723404 16.7336798,1.02865248 16.6256488,0.96326242 Z" id="Shape"></path>
                                </g>
                            </g>
                        </g>
                    </g>
                </g>
            </g>
        </g>
    </g>
</svg>