<svg width="16" height="16" viewBox="0 0 16 16" fill="none" xmlns="http://www.w3.org/2000/svg">
<path d="M14.3956 8.81615C14.2096 8.673 13.993 8.57468 13.7628 8.52883C13.5325 8.48298 13.2948 8.49083 13.0681 8.55178L10.4531 9.15303C10.514 8.89602 10.5158 8.62858 10.4586 8.37075C10.4014 8.11291 10.2866 7.87138 10.1227 7.66424C9.95887 7.4571 9.75026 7.28973 9.51253 7.17468C9.2748 7.05963 9.01411 6.99988 8.75 6.99991H5.62125C5.3585 6.99925 5.09822 7.05066 4.85546 7.15118C4.61269 7.2517 4.39225 7.39932 4.20687 7.58553L2.79312 8.9999H1C0.734784 8.9999 0.48043 9.10526 0.292893 9.2928C0.105357 9.48033 0 9.73469 0 9.9999L0 12.4999C0 12.7651 0.105357 13.0195 0.292893 13.207C0.48043 13.3945 0.734784 13.4999 1 13.4999H7.5C7.54088 13.4999 7.58161 13.4949 7.62125 13.4849L11.6213 12.4849C11.6469 12.4787 11.672 12.4704 11.6962 12.4599L14.125 11.4262L14.1525 11.4137C14.386 11.297 14.5859 11.1228 14.7335 10.9075C14.881 10.6922 14.9713 10.4429 14.9959 10.183C15.0205 9.9232 14.9785 9.66137 14.8739 9.42223C14.7693 9.1831 14.6056 8.97452 14.3981 8.81615H14.3956ZM2.5 12.4999H1V9.9999H2.5V12.4999ZM13.7144 10.513L11.3394 11.5243L7.4375 12.4999H3.5V9.70678L4.91437 8.29303C5.0069 8.19977 5.11703 8.12583 5.23839 8.0755C5.35974 8.02518 5.48988 7.99949 5.62125 7.99991H8.75C8.94891 7.99991 9.13968 8.07892 9.28033 8.21958C9.42098 8.36023 9.5 8.55099 9.5 8.74991C9.5 8.94882 9.42098 9.13958 9.28033 9.28023C9.13968 9.42089 8.94891 9.4999 8.75 9.4999H7C6.86739 9.4999 6.74021 9.55258 6.64645 9.64635C6.55268 9.74012 6.5 9.8673 6.5 9.9999C6.5 10.1325 6.55268 10.2597 6.64645 10.3535C6.74021 10.4472 6.86739 10.4999 7 10.4999H9C9.03763 10.4998 9.07514 10.4956 9.11187 10.4874L13.2994 9.52428L13.3188 9.51928C13.4466 9.48379 13.583 9.49683 13.7018 9.55589C13.8206 9.61495 13.9134 9.71586 13.9622 9.8392C14.0111 9.96253 14.0126 10.0996 13.9665 10.224C13.9204 10.3484 13.8299 10.4513 13.7125 10.513H13.7144ZM9.64625 3.85366C9.59976 3.80722 9.56288 3.75207 9.53772 3.69138C9.51256 3.63068 9.49961 3.56561 9.49961 3.49991C9.49961 3.4342 9.51256 3.36913 9.53772 3.30843C9.56288 3.24774 9.59976 3.19259 9.64625 3.14616L11.6462 1.14616C11.6927 1.09967 11.7478 1.06279 11.8085 1.03763C11.8692 1.01246 11.9343 0.999512 12 0.999512C12.0657 0.999512 12.1308 1.01246 12.1915 1.03763C12.2522 1.06279 12.3073 1.09967 12.3538 1.14616L14.3538 3.14616C14.4002 3.19261 14.4371 3.24776 14.4622 3.30846C14.4873 3.36915 14.5003 3.43421 14.5003 3.49991C14.5003 3.5656 14.4873 3.63066 14.4622 3.69135C14.4371 3.75205 14.4002 3.8072 14.3538 3.85366C14.3073 3.90011 14.2521 3.93696 14.1914 3.9621C14.1308 3.98724 14.0657 4.00018 14 4.00018C13.9343 4.00018 13.8692 3.98724 13.8086 3.9621C13.7479 3.93696 13.6927 3.90011 13.6462 3.85366L12.5 2.70678V6.49991C12.5 6.63251 12.4473 6.75969 12.3536 6.85346C12.2598 6.94723 12.1326 6.99991 12 6.99991C11.8674 6.99991 11.7402 6.94723 11.6464 6.85346C11.5527 6.75969 11.5 6.63251 11.5 6.49991V2.70678L10.3538 3.85366C10.3073 3.90014 10.2522 3.93702 10.1915 3.96218C10.1308 3.98735 10.0657 4.0003 10 4.0003C9.93429 4.0003 9.86923 3.98735 9.80853 3.96218C9.74783 3.93702 9.69269 3.90014 9.64625 3.85366Z" fill="#0A0C11"/>
</svg>
