<svg width="198" height="164" viewBox="0 0 198 164" fill="none" xmlns="http://www.w3.org/2000/svg">
<path d="M45 0C60.0143 -2.31344e-10 68.2093 6.74917 79.3887 17.4873C79.3887 17.4873 83.5033 21.2729 90.2451 18.7275C105.561 14.1821 129.556 7.18796 145.514 9.18359C165.33 11.6619 170.1 21.7015 173.52 27.6982C176.538 33.1365 180.133 40.7821 181.461 54.1152C191.384 62.1498 198 74.9746 198 88.4492C198 106.342 188.825 121.083 173.663 127.608C170.262 147.929 151.5 164 130.68 164C120.905 164 111.818 160.268 104.671 154.548C97.5236 160.268 88.6152 164 78.8398 164C61.1387 164 47.1082 152.425 40.876 136.588C18.6556 134.97 1.12313e-05 116.4 0 93.2402C4.91137e-05 80.6223 3.48124 71.6787 11.8135 63.6777C10.6121 54.7162 10.3914 36.0007 12.2285 28.9736C14.5616 12.5859 28.3448 0 45 0ZM104.445 45.083C96.9895 45.083 90.9453 51.6748 90.9453 59.2227V81.8174C90.9453 89.3653 96.9895 95.957 104.445 95.957C111.901 95.9569 117.945 89.3652 117.945 81.8174V59.2227C117.945 51.6748 111.901 45.0831 104.445 45.083ZM141.391 45.5557C133.935 45.5557 127.891 51.6748 127.891 59.2227V81.8174C127.891 89.3653 133.935 95.957 141.391 95.957C148.846 95.9568 154.891 89.3651 154.891 81.8174V59.2227C154.891 51.6749 148.846 45.5559 141.391 45.5557Z" fill="#433CC5"/>
</svg>
