<svg width="512" height="512" style="padding: 10px" viewBox="0 0 32 32" fill="none" xmlns="http://www.w3.org/2000/svg">
<rect x="1" y="3" width="30" height="26" fill="white"/>
<path d="M26.8726 0H5.12734C2.29651 0 0 2.47093 0 5.51678V26.4833C0 29.1458 1.75268 31.3674 4.08553 31.8847C4.24941 31.9237 4.4181 31.9509 4.58832 31.9711C4.64032 31.9763 4.69549 31.9814 4.74902 31.9847C4.87359 31.9949 5.00123 32 5.12734 32H26.8726C26.9498 32 27.027 31.9983 27.1043 31.9932C27.1484 31.9915 27.1957 31.9881 27.2415 31.9847C27.4085 31.9711 27.574 31.9509 27.7364 31.922C30.1574 31.4776 32 29.2137 32 26.4833V5.51678C32 2.47093 29.705 0 26.8726 0ZM26.2878 24.2955C26.2453 24.2955 26.2011 24.2938 26.1586 24.2904H26.157C25.6668 24.2599 25.2097 24.0547 24.8519 23.7223C24.5556 23.4476 24.3255 23.0864 24.1978 22.6658L21.6995 13.6962L21.6979 13.6995C21.6979 13.6978 21.6979 13.6962 21.6979 13.6962L20.3818 8.95776C20.4228 9.1884 20.4764 9.47671 20.5032 9.60559C20.7427 10.8029 20.8232 16.5538 20.7081 17.4255L18.8955 24.2973H13.0541L10.2137 13.6944L10.2106 13.6995V13.691L8.89443 8.95437C8.93548 9.18501 8.98901 9.47162 9.01583 9.60051C9.25381 10.7962 9.29486 16.4587 9.18288 17.3474L7.6776 22.6674C7.55467 23.0728 7.33562 23.4222 7.05352 23.6935C6.6925 24.0411 6.22595 24.2582 5.7247 24.2904C5.72163 24.2904 5.71999 24.2921 5.71682 24.2921C5.67434 24.2955 5.63176 24.2955 5.58918 24.2955H2.45097L7.11176 8.85093C7.41279 7.88764 8.25295 7.24151 9.1971 7.24151H10.9483C12.0516 7.24151 13.021 8.0284 13.3251 9.16976L14.9439 15.2462C15.0574 16.1195 14.9802 21.872 14.7406 23.0694C14.7138 23.1983 14.6602 23.4866 14.6192 23.7172L15.9354 18.9789C15.9354 18.9789 15.9354 18.972 15.9354 18.9704L15.9385 18.9771L18.5518 9.16976C18.8561 8.0284 19.8254 7.24151 20.9287 7.24151H22.7146C23.6587 7.24151 24.4972 7.88764 24.7999 8.85093L29.4229 24.2904H26.2878V24.2955Z" fill="#5065CF"/>
</svg>
