<svg preserveAspectRatio="none" overflow="visible" style="display: block;" width="46.3461" height="46.3461" viewBox="0 0 46.3461 46.3461" fill="none" xmlns="http://www.w3.org/2000/svg">
<g id="image 1775 [Vectorized]" clip-path="url(#clip0_0_492)">
<path id="Vector" d="M6.02304 -0.000244141H39.9838C40.165 0.0969129 40.3905 0.0858274 40.5981 0.135095C40.9483 0.219441 41.2944 0.319914 41.6353 0.436192C43.4739 1.07461 45.0534 2.674 45.7394 4.49792C45.9802 5.13847 46.0164 5.62533 46.1875 6.21552V40.1773C45.7304 42.3651 44.9416 43.9212 43.0154 45.2092C42.3573 45.6493 41.8449 45.8552 41.0827 46.0833C40.8819 46.1435 40.3487 46.2784 40.1948 46.3458H5.85205C5.33364 46.158 4.74178 46.0313 4.24932 45.8398C1.83828 44.9009 0.357885 42.8205 -0.146272 40.3415C-0.150379 40.3333 -0.154486 40.325 -0.158594 40.3168V6.17094C-0.109498 6.03819 -0.0512623 5.71223 -0.0182443 5.56034C0.573697 2.83791 2.69925 0.684497 5.44073 0.1319C5.64363 0.0909961 5.82222 0.0613065 6.02304 -0.000244141Z" fill="#4CB14F"/>
<path id="Vector_2" d="M14.1368 5.28727L14.159 5.21119C14.3056 5.09646 16.4335 5.14547 16.7432 5.1586L32.9789 5.15729L37.8063 5.15525C38.6313 5.15448 39.4796 5.13343 40.3001 5.1796C40.7631 5.20562 41.139 5.69543 41.1627 6.14821C41.2083 7.0229 41.1905 7.89931 41.1899 8.77531L41.1881 14.1214L41.1844 16.7469L41.1891 23.1874C41.1897 24.0209 41.2025 24.8854 41.1889 25.7163L41.1908 32.2265L41.1895 34.7637L41.1933 38.3468C41.1939 39.0445 41.2658 39.9007 41.0672 40.5702C40.9852 40.8468 40.6134 41.1311 40.3236 41.1681C39.4932 41.2062 38.6448 41.1901 37.8132 41.1896L32.8417 41.1861L16.7464 41.1873C15.8835 41.2014 15.0205 41.2044 14.1575 41.1963C14.201 39.82 14.1477 38.329 14.1697 36.9424C14.1771 36.4748 14.195 34.8034 14.1324 34.4176L14.1216 34.7756L14.1229 41.1849L8.57587 41.1872C7.76482 41.1877 6.85478 41.2249 6.07563 41.171C5.24859 41.1137 5.08964 40.1637 5.15192 39.5244C5.18487 39.1863 5.15314 38.7212 5.15414 38.3772L5.15436 34.7584L5.1564 32.231L5.15635 25.7122C5.1287 24.9264 5.15287 23.9953 5.15807 23.2023L5.15993 16.7457C5.16459 15.8794 5.16328 15.0131 5.15599 14.1468C5.44584 14.1517 6.30826 14.1772 6.55411 14.1291C6.34062 14.1043 5.42135 14.12 5.16043 14.1196L5.16111 8.61767C5.1612 7.86514 5.15608 7.11278 5.14952 6.36088C5.14513 5.86388 5.33024 5.52566 5.76152 5.27695C5.92057 5.1853 6.08997 5.1619 6.27178 5.16009C7.98012 5.14348 9.68958 5.16186 11.3981 5.16027C11.8241 5.16104 13.8814 5.12927 14.0879 5.18716L14.1368 5.28727Z" fill="#398E3C"/>
<path id="Vector_3" d="M16.7443 23.2063C17.6564 23.1162 19.5436 23.1724 20.5448 23.1731L27.8012 23.1745L36.7263 23.1752C37.9328 23.1752 40.0414 23.1103 41.189 23.1879C41.1896 24.0214 41.2024 24.8858 41.1888 25.7167L41.1907 32.227L41.1894 34.7642L41.1932 38.3473C41.1938 39.0449 41.2657 39.9012 41.0671 40.5706C40.9851 40.8472 40.6133 41.1316 40.3235 41.1685C39.4931 41.2066 38.6447 41.1906 37.8131 41.1901L32.8416 41.1866L16.7463 41.1878C16.721 39.0591 16.7418 36.8864 16.7416 34.7543C16.7296 33.9293 16.7429 33.0707 16.7437 32.2428L16.7418 25.7101L16.7443 23.2063Z" fill="#DEEDC7"/>
<path id="Vector_4" d="M16.7437 32.2429C17.8115 32.1854 19.1229 32.2171 20.2071 32.217L26.1435 32.2176C31.1252 32.2186 36.2251 32.1582 41.1907 32.2271L41.1894 34.7643L41.1932 38.3474C41.1938 39.045 41.2657 39.9013 41.0671 40.5707C40.9851 40.8473 40.6133 41.1317 40.3235 41.1686C39.4931 41.2067 38.6447 41.1907 37.8131 41.1902L32.8416 41.1867L16.7463 41.1879C16.721 39.0592 16.7418 36.8865 16.7416 34.7545C16.7296 33.9294 16.7429 33.0708 16.7437 32.2429Z" fill="#DEEDC7"/>
<path id="Vector_5" d="M16.7438 32.2429C17.8115 32.1854 19.1229 32.2171 20.2071 32.217L26.1435 32.2176C31.1252 32.2186 36.2251 32.1582 41.1907 32.2271L41.1895 34.7643L26.2659 34.7681C23.1056 34.7681 19.8971 34.7966 16.7416 34.7545C16.7296 33.9294 16.7429 33.0708 16.7438 32.2429Z" fill="#BDDD98"/>
<path id="Vector_6" d="M16.7443 23.2063C17.6564 23.1162 19.5436 23.1724 20.5448 23.1731L27.8012 23.1745L36.7263 23.1752C37.9328 23.1752 40.0414 23.1103 41.189 23.1879C41.1896 24.0214 41.2024 24.8858 41.1888 25.7167L16.7418 25.7101L16.7443 23.2063Z" fill="#BDDD98"/>
<path id="Vector_7" d="M16.7432 5.15836L32.9789 5.15705L37.8063 5.15501C38.6312 5.15424 39.4796 5.13319 40.3001 5.17936C40.763 5.20538 41.139 5.69518 41.1626 6.14796C41.2083 7.02266 41.1905 7.89907 41.1899 8.77507L41.1881 14.1212L16.7437 14.1249L16.7432 5.15836Z" fill="#BDDD98"/>
<path id="Vector_8" d="M5.15807 23.2024C6.17918 23.1205 8.09001 23.1636 9.17937 23.1726C10.7403 23.1856 12.593 23.1224 14.126 23.1869L14.1276 25.7213L14.126 32.2203C14.1247 32.9309 14.1078 33.7127 14.1324 34.4177L14.1216 34.7756L14.1229 41.1849L8.57587 41.1872C7.76482 41.1877 6.85478 41.2249 6.07563 41.171C5.24859 41.1138 5.08964 40.1637 5.15192 39.5244C5.18487 39.1863 5.15314 38.7212 5.15414 38.3772L5.15436 34.7584L5.1564 32.231L5.15635 25.7122C5.1287 24.9264 5.15287 23.9953 5.15807 23.2024Z" fill="#DEEDC7"/>
<path id="Vector_9" d="M5.15436 34.759L11.0666 34.7673C12.0475 34.767 13.1531 34.743 14.1216 34.7762L14.1229 41.1855L8.57587 41.1878C7.76482 41.1883 6.85478 41.2255 6.07563 41.1716C5.24859 41.1144 5.08964 40.1643 5.15192 39.525C5.18487 39.1869 5.15314 38.7218 5.15414 38.3778L5.15436 34.759Z" fill="#DEEDC7"/>
<path id="Vector_10" d="M14.1257 32.22C14.1245 32.9306 14.1076 33.7124 14.1322 34.4173L14.1214 34.7753C13.1529 34.7421 12.0473 34.7661 11.0664 34.7664L5.15415 34.7581L5.15619 32.2307C8.10183 32.1747 11.1749 32.2178 14.1257 32.22Z" fill="#BDDD98"/>
<path id="Vector_11" d="M5.158 23.2024C6.1791 23.1205 8.08993 23.1636 9.17929 23.1726C10.7403 23.1856 12.5929 23.1224 14.1259 23.1869L14.1275 25.7213C13.0955 25.6933 11.9632 25.7159 10.9249 25.7161L5.15628 25.7122C5.12862 24.9264 5.15279 23.9953 5.158 23.2024Z" fill="#BDDD98"/>
<path id="Vector_12" d="M16.7438 16.7469L41.1842 16.747L41.189 23.1875C40.0413 23.1099 37.9327 23.1748 36.7262 23.1748L27.8011 23.1741L20.5447 23.1727C19.5436 23.172 17.6563 23.1158 16.7442 23.2059L16.7438 16.7469Z" fill="#DEEDC7"/>
<path id="Vector_13" d="M5.16026 14.1192L5.16094 8.61727C5.16103 7.86474 5.15591 7.11238 5.14935 6.36048C5.14496 5.86348 5.33007 5.52525 5.76135 5.27655C5.9204 5.1849 6.0898 5.1615 6.27161 5.15969C7.97995 5.14308 9.68941 5.16145 11.3979 5.15987C11.824 5.16064 13.8812 5.12887 14.0877 5.18675L14.1366 5.28687C14.0475 8.13639 14.1474 11.2455 14.1247 14.1229C11.692 14.1232 8.9605 14.0593 6.55394 14.1287C6.34045 14.1039 5.42118 14.1196 5.16026 14.1192Z" fill="#BDDD98"/>
<path id="Vector_14" d="M5.15974 16.7458L14.123 16.7477L14.1258 23.187C12.5928 23.1225 10.7401 23.1856 9.17917 23.1727C8.08981 23.1636 6.17899 23.1206 5.15788 23.2024L5.15974 16.7458Z" fill="#DEEDC7"/>
</g>
<defs>
<clipPath id="clip0_0_492">
<rect width="46.3461" height="46.3461" fill="white"/>
</clipPath>
</defs>
</svg>
