<svg width="123" height="125" viewBox="0 0 123 125" fill="none" xmlns="http://www.w3.org/2000/svg">
<path fill-rule="evenodd" clip-rule="evenodd" d="M28.8949 0.431008C55.4616 -0.850771 55.4763 25.6782 61.6902 25.75C124.871 26.4725 125.366 45.6028 121.191 69.119C116.878 93.4154 105.917 109.425 97.7828 118.666C94.6749 122.196 90.3705 124.352 85.7673 124.487C65.9582 125.069 32.3045 118.414 9.02069 92.9921C3.05757 86.4814 0.532235 77.5076 0.840304 68.5161C1.76145 41.6326 6.65235 1.50437 28.8949 0.431008ZM62.5381 84.3009C64.3991 49.5172 39.787 47.2295 23.3732 50.4277C15.9214 51.8797 11.1802 58.8749 10.9347 66.6806C10.7004 74.131 12.8731 81.5756 17.9587 86.9893C37.8163 108.127 66.4256 113.745 83.2519 113.324C87.1619 113.226 90.8123 111.452 93.4416 108.536C94.0272 107.886 94.6301 107.196 95.2452 106.465C101.687 98.804 101.842 86.178 92.62 82.8693C82.7294 79.321 70.9127 82.9582 64.6767 85.8336C63.6573 86.3037 62.477 85.4473 62.5381 84.3009ZM98.8681 45.9195C92.9195 43.3338 86.0221 46.229 83.4626 52.3859C80.9032 58.5428 83.6508 65.6296 89.5994 68.2152C95.5479 70.8006 102.445 67.906 105.004 61.7495C107.564 55.5927 104.816 48.5054 98.8681 45.9195Z" fill="#B251FB"/>
</svg>
