<svg width="110" height="78" viewBox="0 0 110 78" fill="none" xmlns="http://www.w3.org/2000/svg">
<path d="M102.977 14.6467L56.1482 0.732622C54.1204 0.116482 51.944 0.191249 49.9627 0.945114C47.9813 1.69898 46.3081 3.08897 45.2072 4.89551L26.8771 34.5578C26.1056 33.8343 25.2626 33.1905 24.361 32.6362C21.6735 30.9838 18.5541 30.1632 15.3972 30.2783C12.2404 30.3933 9.18814 31.4387 6.62654 33.2823C4.06494 35.1259 2.10915 37.6848 1.00661 40.6353C-0.0959294 43.5858 -0.295672 46.7952 0.432654 49.8575C1.16098 52.9199 2.78465 55.6976 5.09823 57.8391C7.41181 59.9806 10.3113 61.3897 13.43 61.8882C16.5486 62.3868 19.7462 61.9522 22.6181 60.6396C25.4901 59.327 27.9074 57.1952 29.5643 54.5142L48.0477 24.6037C48.3231 24.1401 48.748 23.7832 49.2531 23.5913C49.7582 23.3994 50.3136 23.3839 50.8285 23.5473L86.5104 34.1457C86.872 34.2488 87.2046 34.4344 87.4816 34.6879C87.7587 34.9413 87.9727 35.2556 88.1066 35.6058C88.2406 35.956 88.2909 36.3325 88.2535 36.7056C88.216 37.0786 88.092 37.4379 87.8911 37.755L80.0991 50.3643C79.3297 49.6383 78.4865 48.9943 77.583 48.4427C74.8956 46.7904 71.7763 45.9698 68.6197 46.0847C65.463 46.1997 62.4108 47.245 59.8492 49.0883C57.2876 50.9317 55.3318 53.4904 54.229 56.4407C53.1263 59.3909 52.9263 62.6002 53.6543 65.6625C54.3823 68.7248 56.0055 71.5025 58.3188 73.6442C60.632 75.7859 63.5312 77.1954 66.6496 77.6944C69.768 78.1933 72.9655 77.7593 75.8376 76.4473C78.7097 75.1352 81.1273 73.0041 82.7846 70.3234L108.414 28.8487C109.193 27.5979 109.672 26.1849 109.813 24.72C109.954 23.255 109.753 21.7776 109.227 20.403C108.701 19.0284 107.863 17.7937 106.779 16.7952C105.695 15.7967 104.393 15.0615 102.977 14.6467Z" fill="#B251FB"/>
</svg>
