<svg width="133" height="133" viewBox="0 0 133 133" fill="none" xmlns="http://www.w3.org/2000/svg">
<path d="M100.985 64.0287C101.541 63.9004 102.126 63.9908 102.617 64.2797L132.464 82.917C132.628 83.6316 132.589 84.3946 132.652 85.1327C133.099 92.0355 131.372 98.9054 127.712 104.778C124.053 110.65 118.645 115.231 112.248 117.874C102.022 122.06 91.4667 125.397 80.6924 127.85C69.933 130.367 58.9836 131.996 47.9573 132.719C43.1615 133.005 38.3598 132.245 33.888 130.49C29.4165 128.735 25.3798 126.029 22.0607 122.558L39.2652 95.0742C39.5802 94.5987 40.0664 94.2615 40.6223 94.133C41.1781 94.0046 41.763 94.095 42.2546 94.3839L53.3264 101.298C55.7364 102.811 58.444 103.791 61.265 104.169C64.087 104.548 66.9597 104.317 69.685 103.491C74.5291 101.943 78.6458 98.6881 81.2696 94.3332L99.6277 64.9699C99.9427 64.4945 100.429 64.1574 100.985 64.0287Z" fill="#B251FB"/>
<path fill-rule="evenodd" clip-rule="evenodd" d="M20.8316 15.2412C41.2877 6.78458 63.0045 1.77022 85.0974 0.402107C92.0188 -0.0503871 98.9078 1.68135 104.791 5.35119C110.675 9.02148 115.259 14.4462 117.892 20.8594C122.078 31.0796 125.414 41.6287 127.866 52.3971L128.645 55.769L113.768 46.4791C110.976 44.7124 107.834 43.566 104.56 43.12C101.286 42.6744 97.9513 42.9389 94.7877 43.8949C89.1702 45.6802 84.3956 49.4512 81.3585 54.501L63.6683 82.7958L54.2335 76.9043C49.2275 73.6643 43.1992 72.3833 37.3066 73.3075C34.0619 73.8363 30.9671 75.053 28.232 76.8766C25.4964 78.7007 23.182 81.0915 21.447 83.8837L10.9698 100.638C5.04581 83.659 1.47323 65.9482 0.350479 48.0001C-0.0947657 41.0852 1.64032 34.2028 5.31463 28.3259C8.98895 22.4489 14.4177 17.873 20.8316 15.2412ZM46.955 30.9369C44.8819 31.0009 42.8738 31.6772 41.1851 32.8813C39.4965 34.0854 38.2023 35.7627 37.467 37.7013C36.7319 39.6403 36.5871 41.7556 37.0534 43.7758C37.6789 46.4845 39.3571 48.8338 41.7156 50.307C44.0743 51.7799 46.9228 52.2566 49.6332 51.6311C51.6546 51.1644 53.4937 50.1093 54.9153 48.5989C56.337 47.0883 57.2767 45.1888 57.6193 43.1435C57.9617 41.0988 57.6923 38.998 56.8407 37.1079C55.989 35.2182 54.5942 33.6223 52.8358 32.5239C51.0767 31.4257 49.0283 30.8733 46.955 30.9369Z" fill="#B251FB"/>
</svg>
