<?xml version="1.0" encoding="UTF-8"?>
<svg width="22px" height="22px" viewBox="0 0 22 22" version="1.1" xmlns="http://www.w3.org/2000/svg" xmlns:xlink="http://www.w3.org/1999/xlink">
    <!-- Generator: Sketch 54.1 (76490) - https://sketchapp.com -->
    <title>edit</title>
    <desc>Created with Sketch.</desc>
    <g id="AdressBook" stroke="none" stroke-width="1" fill="none" fill-rule="evenodd">
        <g id="Adressbook-S3-new" transform="translate(-697.000000, -526.000000)" fill="#89929E" fill-rule="nonzero">
            <g id="edit" transform="translate(697.000000, 526.000000)">
                <path d="M20.2810362,13.8034961 C19.9787585,13.8034961 19.7337726,14.049707 19.7337726,14.3534961 L19.7337726,19.2368945 C19.7327036,20.147832 18.998387,20.8860352 18.0919815,20.8868945 L2.73631841,20.8868945 C1.82991294,20.8860352 1.09559622,20.147832 1.09452736,19.2368945 L1.09452736,4.90445312 C1.09559622,3.99373045 1.82991294,3.25552733 2.73631841,3.25445312 L7.5954213,3.25445312 C7.897699,3.25445312 8.14268499,3.00824216 8.14268499,2.70445312 C8.14268499,2.40087892 7.897699,2.15445312 7.5954213,2.15445312 L2.73631841,2.15445312 C1.22578516,2.15617188 0.001710199,3.38636716 0,4.90445312 L0,19.2371094 C0.001710199,20.7551953 1.22578516,21.9853906 2.73631841,21.9871094 L18.0919815,21.9871094 C19.6025148,21.9853906 20.8265897,20.7551953 20.8282999,19.2371094 L20.8282999,14.3534961 C20.8282999,14.049707 20.5833139,13.8034961 20.2810362,13.8034961 Z" id="Path"></path>
                <path d="M20.6115322,0.73927733 C19.649759,-0.22730466 18.0904851,-0.22730466 17.1287119,0.73927733 L7.36518578,10.5516211 C7.29827425,10.6188672 7.2499611,10.7022266 7.2247357,10.79375 L5.94080382,15.452207 C5.88800141,15.6432031 5.94165887,15.8477344 6.08104014,15.9880273 C6.22063512,16.1281055 6.4241488,16.1820312 6.61419465,16.1291797 L11.2494753,14.8386133 C11.3405434,14.8132617 11.423488,14.764707 11.4903996,14.6974609 L21.2537119,4.88490233 C22.2139886,3.91767579 22.2139886,2.35189454 21.2537119,1.38466795 L20.6115322,0.73927733 Z M8.55762206,10.9091211 L16.5483131,2.8782617 L19.1253692,5.46820312 L11.1344644,13.4990625 L8.55762206,10.9091211 Z M8.04285216,11.9472461 L10.101718,14.0166211 L7.25380908,14.8096094 L8.04285216,11.9472461 Z M20.4798468,4.10716795 L19.8994481,4.69046875 L17.3221782,2.1003125 L17.9027907,1.5170117 C18.4370141,0.98011716 19.3032299,0.98011716 19.8374534,1.5170117 L20.4798468,2.16240233 C21.0132152,2.69994142 21.0132152,3.56984375 20.4798468,4.10716795 L20.4798468,4.10716795 Z" id="Shape"></path>
            </g>
        </g>
    </g>
</svg>