<svg width="27" height="34" viewBox="0 0 27 34" fill="none" xmlns="http://www.w3.org/2000/svg">
<path d="M15.8342 1.70226C14.434 -0.171055 11.5636 -0.0687409 10.3053 1.89934C5.05292 10.1141 2.303 16.2509 1.0617 19.4009C0.358106 21.1866 1.4181 23.1084 3.33267 23.4931C4.5714 23.742 6.20854 24.0187 8.08694 24.2079L7.59408 29.2212C7.40548 31.1396 8.52535 33.1468 10.7248 33.4363C11.6683 33.5605 12.8424 33.6366 14.2436 33.5867C15.6448 33.5367 16.8102 33.3772 17.7421 33.1862C19.9143 32.7408 20.8832 30.6592 20.5536 28.7592L19.6923 23.7942C21.5518 23.4718 23.1642 23.0792 24.3813 22.7428C26.2624 22.2228 27.1779 20.2306 26.3444 18.4997C24.874 15.4463 21.6786 9.52147 15.8342 1.70226Z" fill="#B251FB"/>
</svg>
