<?xml version="1.0" encoding="utf-8"?>
<!-- Generator: Adobe Illustrator 21.0.0, SVG Export Plug-In . SVG Version: 6.00 Build 0)  -->
<svg version="1.1" id="Слой_1" xmlns="http://www.w3.org/2000/svg" xmlns:xlink="http://www.w3.org/1999/xlink" x="0px" y="0px"
	 viewBox="0 0 34 31" style="enable-background:new 0 0 34 31;" xml:space="preserve">
<style type="text/css">
	.st0{fill:#D8D8D8;}
	.st1{fill:#212121;}
</style>
<title>Group 9</title>
<desc>Created with Sketch.</desc>
<g>
	<path class="st0" d="M17,12.7L17,12.7c-4.6,0-9.5,0.4-12,4.5l8.8,9.8c1-0.2,2.1-0.3,3.1-0.3h0c1.1,0,2.1,0.1,3.1,0.3l8.8-9.8
		C26.5,13.1,21.6,12.7,17,12.7z M14.1,19.9c0.2,0.2,0.2,0.5,0,0.7s-0.5,0.2-0.7,0L12,19.2l-1.4,1.4c-0.2,0.2-0.5,0.2-0.7,0
		s-0.2-0.5,0-0.7l1.4-1.4l-1.4-1.4c-0.2-0.2-0.2-0.5,0-0.7s0.5-0.2,0.7,0l1.4,1.4l1.4-1.4c0.2-0.2,0.5-0.2,0.7,0s0.2,0.5,0,0.7
		l-1.4,1.4L14.1,19.9z M24.2,19.2c0.2,0.2,0.2,0.5,0,0.7c-0.2,0.2-0.5,0.2-0.7,0l-1.1-1.1l-1,1c-0.2,0.2-0.5,0.2-0.7,0
		c-0.2-0.2-0.2-0.5,0-0.7l1-1l-1-1c-0.2-0.2-0.2-0.5,0-0.7c0.2-0.2,0.5-0.2,0.7,0l1,1l1.1-1.1c0.2-0.2,0.5-0.2,0.7,0
		c0.2,0.2,0.2,0.5,0,0.7l-1.1,1.1L24.2,19.2z"/>
	<path class="st0" d="M13.9,11.8L1,0L0,7.5l4.5,8.7C6.8,12.9,10.6,12,13.9,11.8z"/>
	<path class="st0" d="M33,0L20.1,11.8c3.2,0.2,7.1,1.1,9.4,4.4L34,7.5L33,0z"/>
	<path class="st1" d="M14.4,27.5l2.6,2.9h0l2.6-2.9c-0.9-0.1-1.8-0.2-2.6-0.2S15.2,27.4,14.4,27.5z"/>
</g>
</svg>
