<?xml version="1.0" encoding="utf-8"?>
<!-- Generator: Adobe Illustrator 21.0.0, SVG Export Plug-In . SVG Version: 6.00 Build 0)  -->
<svg version="1.1" id="Слой_1" xmlns="http://www.w3.org/2000/svg" xmlns:xlink="http://www.w3.org/1999/xlink" x="0px" y="0px"
	 viewBox="0 0 85 73" style="enable-background:new 0 0 85 73;" xml:space="preserve">
<style type="text/css">
	.bmodel0{fill:#F8F8F8;}
	.bmodel1{fill:#A5ACB5;}
	.bmodel2{fill:#E2E2E2;}
	.bmodel3{fill:#FA8540;}
</style>
<title>interface</title>
<desc>Created with Sketch.</desc>
<g>
	<path class="bmodel0" d="M0,71.4C0,72.3,0.7,73,1.5,73h81.6c0.9,0,1.5-0.7,1.5-1.5V15.5H0V71.4z M44.4,67h-0.8c-0.5,0-1-0.1-1.5-0.3
		l0.7-1.5c0.2,0.1,0.5,0.2,0.8,0.2h0.8V67z M45.6,56.8h-2c0,0,0,0,0,0c-0.4,0-0.9,0.2-1.2,0.5l-1.1-1.2c0.6-0.6,1.5-0.9,2.3-0.9
		c0,0,0,0,0,0h2V56.8z M41.8,43.9h25.3c0.4,0,0.7,0.3,0.7,0.8s-0.3,0.8-0.7,0.8H41.8c-0.4,0-0.7-0.3-0.7-0.8S41.4,43.9,41.8,43.9z
		 M41.1,40.3c0-0.4,0.3-0.8,0.7-0.8h25.3c0.4,0,0.7,0.3,0.7,0.8S67.5,41,67.1,41H41.8C41.4,41,41.1,40.7,41.1,40.3z M41.8,48.2h25.3
		c0.4,0,0.7,0.3,0.7,0.8s-0.3,0.8-0.7,0.8H41.8c-0.4,0-0.7-0.3-0.7-0.8S41.4,48.2,41.8,48.2z M48.4,67h-2v-1.7h2V67z M49.6,56.8h-2
		v-1.7h2V56.8z M52.4,67h-2v-1.7h2V67z M53.6,56.8h-2v-1.7h2V56.8z M56.4,67h-2v-1.7h2V67z M57.6,56.8h-2v-1.7h2V56.8z M60.4,67h-2
		v-1.7h2V67z M61.6,56.8h-2v-1.7h2V56.8z M64.4,67h-2v-1.7h2V67z M65.5,56.8l-2,0v-1.7l2,0L65.5,56.8z M66.7,66.8l-0.6-1.6
		c0.4-0.2,0.8-0.5,0.9-0.9l1.5,0.7C68.2,65.8,67.5,66.4,66.7,66.8z M68.8,62.7h-1.7v-2h1.7V62.7z M67.2,58.7c0-0.5-0.2-0.9-0.5-1.3
		l1.2-1.1c0.6,0.6,0.9,1.4,0.9,2.3L67.2,58.7z M56.1,25.7c0-1.9,1.5-3.4,3.4-3.4h5.3c1.9,0,3.4,1.5,3.4,3.4V31
		c0,1.9-1.5,3.4-3.4,3.4h-5.3c-1.9,0-3.4-1.5-3.4-3.4V25.7z M41,25.7c0-1.9,1.5-3.4,3.4-3.4h5.3c1.9,0,3.4,1.5,3.4,3.4V31
		c0,1.9-1.5,3.4-3.4,3.4h-5.3c-1.9,0-3.4-1.5-3.4-3.4V25.7z M40.2,58.4l1.7,0.1l0,2h-1.7L40.2,58.4z M40.2,62.5h1.7v1.1
		c0,0.2,0,0.4,0.1,0.6l-1.6,0.6c-0.1-0.4-0.2-0.7-0.2-1.1V62.5z M16,26c0-2.2,1.8-4,4-4h10c2.2,0,4,1.8,4,4v36c0,2.2-1.8,4-4,4H20
		c-2.2,0-4-1.8-4-4V26z"/>
	<path class="bmodel1" d="M20,66h10c2.2,0,4-1.8,4-4V26c0-2.2-1.8-4-4-4H20c-2.2,0-4,1.8-4,4v36C16,64.2,17.8,66,20,66z"/>
	<rect x="67.2" y="60.7" class="bmodel1" width="1.7" height="2"/>
	<polygon class="bmodel1" points="63.6,56.8 65.5,56.8 65.6,55.2 63.6,55.2 	"/>
	<rect x="62.4" y="65.3" class="bmodel1" width="2" height="1.7"/>
	<path class="bmodel1" d="M66.1,65.2l0.6,1.6c0.8-0.3,1.5-1,1.9-1.8L67,64.3C66.8,64.7,66.5,65,66.1,65.2z"/>
	<path class="bmodel1" d="M66.7,57.4c0.3,0.3,0.5,0.7,0.5,1.3l1.7-0.1c0-0.9-0.3-1.7-0.9-2.3L66.7,57.4z"/>
	<rect x="59.6" y="55.2" class="bmodel1" width="2" height="1.7"/>
	<path class="bmodel1" d="M41.9,64.2c-0.1-0.2-0.1-0.4-0.1-0.6v-1.1h-1.7v1.1c0,0.4,0.1,0.8,0.2,1.1L41.9,64.2z"/>
	<polygon class="bmodel1" points="41.8,58.5 40.2,58.4 40.2,60.5 41.8,60.5 	"/>
	<rect x="55.6" y="55.2" class="bmodel1" width="2" height="1.7"/>
	<rect x="47.6" y="55.2" class="bmodel1" width="2" height="1.7"/>
	<rect x="58.4" y="65.3" class="bmodel1" width="2" height="1.7"/>
	<rect x="50.4" y="65.3" class="bmodel1" width="2" height="1.7"/>
	<rect x="46.4" y="65.3" class="bmodel1" width="2" height="1.7"/>
	<rect x="51.6" y="55.2" class="bmodel1" width="2" height="1.7"/>
	<path class="bmodel1" d="M43.6,55.2c-0.9,0-1.7,0.3-2.3,0.9l1.1,1.2c0.3-0.3,0.7-0.5,1.2-0.5c0,0,0,0,0,0h2v-1.7H43.6
		C43.6,55.2,43.6,55.2,43.6,55.2z"/>
	<rect x="54.4" y="65.3" class="bmodel1" width="2" height="1.7"/>
	<path class="bmodel1" d="M42.8,65.1l-0.7,1.5c0.5,0.2,1,0.3,1.5,0.3h0.8v-1.7h-0.8C43.3,65.3,43,65.3,42.8,65.1z"/>
	<path class="bmodel1" d="M44.4,34.3h5.3c1.9,0,3.4-1.5,3.4-3.4v-5.3c0-1.9-1.5-3.4-3.4-3.4h-5.3c-1.9,0-3.4,1.5-3.4,3.4V31
		C41,32.8,42.5,34.3,44.4,34.3z"/>
	<path class="bmodel1" d="M59.4,34.3h5.3c1.9,0,3.4-1.5,3.4-3.4v-5.3c0-1.9-1.5-3.4-3.4-3.4h-5.3c-1.9,0-3.4,1.5-3.4,3.4V31
		C56.1,32.8,57.6,34.3,59.4,34.3z"/>
	<path class="bmodel1" d="M41.8,41h25.3c0.4,0,0.7-0.3,0.7-0.8s-0.3-0.8-0.7-0.8H41.8c-0.4,0-0.7,0.3-0.7,0.8S41.4,41,41.8,41z"/>
	<path class="bmodel1" d="M41.8,45.4h25.3c0.4,0,0.7-0.3,0.7-0.8s-0.3-0.8-0.7-0.8H41.8c-0.4,0-0.7,0.3-0.7,0.8S41.4,45.4,41.8,45.4z"/>
	<path class="bmodel1" d="M41.8,49.8h25.3c0.4,0,0.7-0.3,0.7-0.8s-0.3-0.8-0.7-0.8H41.8c-0.4,0-0.7,0.3-0.7,0.8S41.4,49.8,41.8,49.8z"/>
	<path class="bmodel2" d="M81.3,0H3.4C1.5,0,0,1.5,0,3.4v12.1h84.7V3.4C84.7,1.5,83.2,0,81.3,0z M84.7,12.8H0V3.4C0,1.5,1.5,0,3.4,0
		h77.9c1.9,0,3.4,1.5,3.4,3.4V12.8z"/>
	<path class="bmodel3" d="M81.3,0H3.4C1.5,0,0,1.5,0,3.4v9.4h84.7V3.4C84.7,1.5,83.2,0,81.3,0z M62.6,6.5c0,0.7-0.6,1.3-1.3,1.3
		c-0.7,0-1.3-0.6-1.3-1.3V6.3C60,5.6,60.6,5,61.3,5s1.3,0.6,1.3,1.3V6.5z M67.7,6.5c0,0.7-0.6,1.3-1.3,1.3c-0.7,0-1.3-0.6-1.3-1.3
		V6.3c0-0.7,0.6-1.3,1.3-1.3c0.7,0,1.3,0.6,1.3,1.3V6.5z M72.8,6.5c0,0.7-0.6,1.3-1.3,1.3s-1.3-0.6-1.3-1.3V6.3
		c0-0.7,0.6-1.3,1.3-1.3s1.3,0.6,1.3,1.3V6.5z"/>
</g>
</svg>
