<?xml version="1.0" encoding="utf-8"?>
<!-- Generator: Adobe Illustrator 21.0.0, SVG Export Plug-In . SVG Version: 6.00 Build 0)  -->
<svg version="1.1" id="Слой_1" xmlns="http://www.w3.org/2000/svg" xmlns:xlink="http://www.w3.org/1999/xlink" x="0px" y="0px"
	 viewBox="0 0 96 73" style="enable-background:new 0 0 96 73;" xml:space="preserve">
<style type="text/css">
	.bscratch0{fill:#F8F8F8;}
	.bscratch1{fill:#A5ACB5;}
	.bscratch2{fill:#D8D8D8;}
	.bscratch3{fill:#89929E;}
	.bscratch4{fill:#F2F2F2;}
	.bscratch5{fill:#E2E2E2;}
	.bscratch6{fill:#18A3AC;}
</style>
<title>maintenance</title>
<desc>Created with Sketch.</desc>
<g>
	<path class="bscratch0" d="M69.7,67.4C69.7,67.4,69.7,67.4,69.7,67.4l-5.3,1.1l1.1-5.3c0,0,0,0,0,0c0,0,0,0,0,0l1-4.7l14-14L83,42
		c0,0,0,0,0,0l1.8-1.8V15.5H0v55.9C0,72.3,0.7,73,1.5,73h81.6c0.9,0,1.5-0.7,1.5-1.5V56.1L74.4,66.4L69.7,67.4z"/>
	<path class="bscratch1" d="M87.4,45.4L71.3,61.6l0,0c1.3,1.3,2.4,3,3.1,4.8l0,0l10.3-10.3l3.7-3.7l2-2C89.8,48.5,88.8,46.8,87.4,45.4
		C87.4,45.4,87.4,45.4,87.4,45.4z"/>
	<path class="bscratch2" d="M80.5,44.5l-14,14l0,0c1.8,0.7,3.5,1.8,4.8,3.1l16.1-16.1c-1.4-1.4-3-2.4-4.9-3L83,42c0,0,0,0,0,0L80.5,44.5z"
		/>
	<path class="bscratch3" d="M95.1,45.7c-0.6-1.9-1.6-3.6-3-4.9c-1.4-1.4-3-2.4-4.9-3l-2.5,2.5L83,42l-0.4,0.4c1.9,0.6,3.6,1.6,4.9,3
		c0,0,0,0,0,0c1.4,1.4,2.4,3,3,4.9c0,0,0,0,0,0L95.1,45.7z"/>
	<path class="bscratch3" d="M68.2,64.6c-0.8-0.8-1.7-1.3-2.8-1.4c0,0,0,0,0,0l-1.1,5.3l5.3-1.1c0,0,0,0,0,0h0C69.5,66.4,69,65.4,68.2,64.6
		z"/>
	<path class="bscratch4" d="M66.5,58.5l-1,4.7c0,0,0,0,0,0c1,0.2,2,0.7,2.8,1.4c0.8,0.8,1.3,1.7,1.4,2.8h0l4.7-1l0,0
		c-0.7-1.8-1.8-3.5-3.1-4.8l0,0C69.9,60.2,68.3,59.2,66.5,58.5L66.5,58.5z"/>
	<path class="bscratch5" d="M84.7,3.4c0-1.9-1.5-3.4-3.4-3.4H3.4C1.5,0,0,1.5,0,3.4v12.1h84.7V3.4z M84.7,12.8H0V3.4C0,1.5,1.5,0,3.4,0
		h77.9c1.9,0,3.4,1.5,3.4,3.4V12.8z"/>
	<path class="bscratch6" d="M81.3,0H3.4C1.5,0,0,1.5,0,3.4v9.4h84.7V3.4C84.7,1.5,83.2,0,81.3,0z M64.4,6.5c0,0.7-0.6,1.3-1.3,1.3
		c-0.7,0-1.3-0.6-1.3-1.3V6.3c0-0.7,0.6-1.3,1.3-1.3s1.3,0.6,1.3,1.3V6.5z M69.5,6.5c0,0.7-0.6,1.3-1.3,1.3S67,7.2,67,6.5V6.3
		C67,5.6,67.5,5,68.2,5c0.7,0,1.3,0.6,1.3,1.3V6.5z M74.6,6.5c0,0.7-0.6,1.3-1.3,1.3s-1.3-0.6-1.3-1.3V6.3c0-0.7,0.6-1.3,1.3-1.3
		s1.3,0.6,1.3,1.3V6.5z"/>
</g>
</svg>
