<svg width="109" height="96" viewBox="0 0 109 96" fill="none" xmlns="http://www.w3.org/2000/svg">
<path fill-rule="evenodd" clip-rule="evenodd" d="M14.4964 9.28482C23.3829 0.344814 39.4702 -0.733822 56.4165 2.2393C74.3437 5.38453 92.225 12.8992 100.435 19.9606C115.202 33.64 108.206 71.6466 96.206 86.4612C87.202 96.4789 64.0912 97.6337 43.3217 93.9898C31.4777 91.9119 20.3985 88.2799 13.1363 83.848C1.98819 76.9091 -0.408391 62.8237 0.310277 47.9846C1.2971 33.1925 6.31842 17.808 14.4964 9.28482ZM73.504 48.9809C73.2705 43.3334 48.396 27.2244 42.7783 29.2487C37.1506 31.2884 37.2735 61.326 42.2168 65.3357C47.1602 69.3454 73.8024 55.8719 73.504 48.9809Z" fill="#B251FB"/>
</svg>
