<svg width="174" height="125" viewBox="0 0 174 125" fill="none" xmlns="http://www.w3.org/2000/svg">
<path fill-rule="evenodd" clip-rule="evenodd" d="M84.1427 7.91977C104.364 16.3479 123.21 29.847 130.772 40.2448C144.076 60.0851 124.33 102.431 105.682 116.47C92.0215 125.726 64.379 120.921 40.9521 111.157C27.5929 105.589 15.606 98.4163 8.36878 91.3292C-2.69985 80.2922 -1.27314 63.2711 4.05968 46.2023C9.69513 29.2594 20.274 12.7002 32.5075 4.96217C45.7038 -3.07206 65.0282 -0.0470715 84.1427 7.91977ZM56.3203 21.4854C49.4127 17.186 40.1185 19.43 35.5611 26.4975C31.0041 33.565 32.909 42.7799 39.8164 47.0791C46.7237 51.378 56.0181 49.1339 60.5756 42.067C65.1329 34.9996 63.2275 25.7849 56.3203 21.4854Z" fill="#B251FB"/>
<path d="M166.777 72.5779C170.922 72.4592 174.13 75.9456 173.68 80.0785L173.444 82.2494C171.907 96.341 163.818 112.339 153.989 122.846C151.449 125.561 147.227 125.669 144.745 123.082L128.992 105.078C128.026 103.973 128.019 102.309 128.929 101.089C134.613 93.4666 137.727 86.3367 139.188 76.856C139.424 75.3207 140.701 74.104 142.247 74.0136L166.777 72.5779Z" fill="#B251FB"/>
</svg>
