<svg width="150" height="141" viewBox="0 0 150 141" fill="none" xmlns="http://www.w3.org/2000/svg">
<path fill-rule="evenodd" clip-rule="evenodd" d="M95.3768 19.6598C109.977 33.1074 121.712 50.5058 124.766 61.7802C129.626 82.9497 98.5761 113.412 77.8698 119.811C63.0424 123.612 40.8533 111.018 23.9379 95.4384C14.2917 86.554 6.35915 76.7067 2.48502 68.385C-3.37437 55.4872 3.50447 41.2522 13.7601 28.1704C24.2344 15.2896 38.8347 4.25112 51.93 1.322C65.9521 -1.56805 81.5751 6.94816 95.3768 19.6598ZM66.9334 22.8454C62.4174 17.0275 53.6753 16.1198 47.4074 20.8181C41.1399 25.5165 39.7194 34.0417 44.2354 39.8595C48.7514 45.677 57.4937 46.5846 63.7614 41.8869C70.0292 37.1887 71.4491 28.6634 66.9334 22.8454Z" fill="#B251FB"/>
<path d="M145.011 100.659C148.617 101.824 150.22 105.81 148.46 109.235L147.536 111.034C141.535 122.71 129.264 134.026 117.318 140.077C114.231 141.641 110.562 140.443 109.286 137.454L101.709 117.119C101.244 115.871 101.791 114.434 102.979 113.661C110.401 108.829 115.447 103.636 119.852 95.9105C120.565 94.6596 122.068 94.0012 123.428 94.396L145.011 100.659Z" fill="#B251FB"/>
</svg>
