<svg height="509pt" viewBox="0 0 509.452 509" width="509pt" xmlns="http://www.w3.org/2000/svg"><g fill="#e64a19"><path d="m255.589844 463.515625h-.210938c-63.582031 0-122.125-29.503906-159.824218-79.746094-5.710938-7.617187-3.886719-18.480469 4.191406-23.503906 6.929687-4.304687 16.113281-2.800781 20.976562 3.746094 31.664063 42.511719 81.023438 67.503906 134.65625 67.503906zm0 0"/><path d="m361.363281 411.992188-.015625-.015626c-4.304687-6.925781-2.800781-16.125 3.761719-20.992187 42.621094-31.664063 67.664063-81.070313 67.664063-134.78125l32-.800781v.816406c0 63.679688-29.570313 122.269531-79.90625 159.984375-7.613282 5.695313-18.480469 3.871094-23.503907-4.210937zm0 0"/><path d="m47.605469 256.601562v-.382812c0-63.503906 29.4375-122 79.550781-159.695312 7.601562-5.730469 18.480469-3.90625 23.503906 4.160156v.015625c4.320313 6.925781 2.816406 16.109375-3.726562 20.992187-42.386719 31.628906-67.328125 80.957032-67.328125 134.527344zm0 0"/><path d="m389.84375 145.753906c-31.679688-42.335937-80.960938-67.214844-134.464844-67.214844l-.589844-32.015624 1.917969.078124h.160157c62.160156 0 120.433593 29.34375 158.113281 79.34375 5.726562 7.601563 3.917969 18.464844-4.144531 23.503907-6.929688 4.320312-16.113282 2.832031-20.992188-3.695313zm0 0"/></g><path d="m389.84375 292.777344c-6.253906-6.253906-6.253906-16.382813 0-22.625l57.472656-57.453125 57.457032 57.453125c6.238281 6.242187 6.238281 16.386718 0 22.625-6.242188 6.242187-16.386719 6.242187-22.625 0l-34.832032-34.832032-34.847656 34.832032c-6.242188 6.257812-16.367188 6.257812-22.625 0zm0 0" fill="#ff7043"/><path d="m62.164062 299.402344-57.472656-57.457032c-6.253906-6.238281-6.253906-16.382812 0-22.625 6.242188-6.238281 16.367188-6.238281 22.625 0l34.847656 34.832032 34.832032-34.832032c6.238281-6.238281 16.382812-6.238281 22.625 0 6.238281 6.242188 6.238281 16.386719 0 22.625zm0 0" fill="#ff7043"/><path d="m210.644531 504.808594c-6.257812-6.253906-6.242187-16.382813 0-22.621094l34.847657-34.832031-34.847657-34.847657c-6.242187-6.242187-6.242187-16.386718 0-22.625 6.238281-6.242187 16.382813-6.242187 22.625 0l57.46875 57.472657-57.46875 57.453125c-6.242187 6.257812-16.386719 6.257812-22.625 0zm0 0" fill="#ff7043"/><path d="m277.492188 119.835938-57.472657-57.457032 57.472657-57.472656c6.238281-6.242188 16.382812-6.242188 22.625 0 6.238281 6.238281 6.238281 16.382812 0 22.625l-34.847657 34.847656 34.847657 34.832032c6.253906 6.238281 6.253906 16.382812 0 22.625-6.257813 6.238281-16.386719 6.238281-22.625 0zm0 0" fill="#ff7043"/></svg>