<?xml version="1.0" encoding="utf-8"?>
<!-- Generator: Adobe Illustrator 26.0.3, SVG Export Plug-In . SVG Version: 6.00 Build 0)  -->
<svg version="1.1" id="Calque_1" xmlns="http://www.w3.org/2000/svg" xmlns:xlink="http://www.w3.org/1999/xlink" x="0px" y="0px"
	 viewBox="0 0 512 512" style="enable-background:new 0 0 512 512;" xml:space="preserve">
<path fill="#FFFFFF" d="M256,0C114.8,0,0,114.8,0,256s114.8,256,256,256s256-114.8,256-256S397.2,0,256,0L256,0z"/>
<path fill="#FF0000" d="M256,10C120.4,10,10,120.4,10,256s110.4,246,246,246s246-110.4,246-246S391.6,10,256,10z M377.8,388.4
	c-4.2,4.2-9.6,6.3-15.1,6.3s-10.9-2.1-15.1-6.3L240.9,281.8c-4-4-6.2-9.4-6.2-15.1V128c0-11.8,9.6-21.3,21.3-21.3
	s21.3,9.5,21.3,21.3v129.8l100.4,100.4C386.1,366.6,386.1,380.1,377.8,388.4z"/>
</svg>