<svg width="64" height="64" viewBox="0 0 64 64" fill="none" xmlns="http://www.w3.org/2000/svg">
<path fill-rule="evenodd" clip-rule="evenodd" d="M17.4588 19.4979C21.8963 19.4979 24.3888 17.067 24.3888 12.7511C24.3888 8.4309 21.8919 6 17.4588 6C13.0213 6 10.5244 8.4309 10.5244 12.7511C10.5244 17.0713 13.0213 19.4979 17.4588 19.4979ZM49.5244 22.8372C49.5416 23.2572 49.6437 23.6699 49.8247 24.0515C50.0058 24.4331 50.2623 24.7763 50.5796 25.0614C50.8968 25.3466 51.2687 25.5681 51.6739 25.7133C52.0791 25.8585 52.5097 25.9246 52.9412 25.9078C53.3726 25.891 53.7964 25.7916 54.1884 25.6154C54.5804 25.4391 54.9329 25.1894 55.2258 24.8805C55.5187 24.5716 55.7462 24.2096 55.8954 23.8151C56.0445 23.4206 56.1124 23.0014 56.0952 22.5813C56.0374 21.2003 55.9659 19.8199 55.8805 18.4403C55.7149 15.6745 54.5123 13.0642 52.5009 11.1044C50.4895 9.14462 47.8093 7.97174 44.9686 7.80825C42.7783 7.68031 40.6143 7.59501 38.4547 7.53104C37.5834 7.50672 36.7378 7.82039 36.104 8.40304C35.4702 8.98569 35.1001 9.7896 35.0751 10.6379C35.0502 11.4862 35.3723 12.3094 35.9708 12.9265C36.5693 13.5435 37.395 13.9038 38.2664 13.9282C40.3559 13.9836 42.4585 14.0732 44.5787 14.1968C45.8142 14.2659 46.9806 14.7746 47.8561 15.6261C48.7316 16.4777 49.2551 17.6128 49.3272 18.8155C49.4061 20.1675 49.4762 21.5023 49.5287 22.8372H49.5244ZM24.9714 57.9957C25.8314 58.0048 26.6608 57.6852 27.2815 57.1056C27.9022 56.5259 28.2646 55.7324 28.291 54.8955C28.3174 54.0585 28.0056 53.2449 27.4226 52.6293C26.8396 52.0136 26.0319 51.6451 25.1729 51.6029C23.2017 51.5432 21.2129 51.4579 19.211 51.3427C17.9748 51.2736 16.8078 50.7643 15.9322 49.9119C15.0567 49.0594 14.5336 47.9233 14.4625 46.7198C14.4262 46.1171 14.3926 45.5144 14.3617 44.9115C14.3093 44.0702 13.918 43.2831 13.2727 42.7212C12.6275 42.1593 11.7805 41.868 10.9159 41.9107C10.0513 41.9534 9.23895 42.3266 8.65543 42.9492C8.07191 43.5718 7.76438 44.3935 7.7997 45.2356L7.90483 47.0993C8.07162 49.865 9.27527 52.4749 11.2875 54.4338C13.2996 56.3928 15.9804 57.5647 18.8211 57.7271C20.8888 57.8465 22.9388 57.9403 24.9714 57.9957ZM46.5456 46.5875C52.2534 46.5875 56.1696 50.4685 56.98 55.8762C57.1553 57.0404 56.1521 58 54.9431 58H38.1437C36.9347 58 35.9315 57.0404 36.1068 55.8762C36.9172 50.4642 40.8334 46.5875 46.5456 46.5875ZM27.8932 31.661C27.0872 26.2575 23.171 22.3809 17.4588 22.3809C11.7466 22.3809 7.83036 26.2618 7.01996 31.6695C6.84474 32.8338 7.84788 33.7933 9.05691 33.7933H25.8607C27.0697 33.7933 28.0685 32.8338 27.8932 31.6695V31.661ZM53.4756 36.9663C53.4756 41.2865 50.9787 43.7174 46.5412 43.7174C42.1037 43.7174 39.6112 41.2865 39.6112 36.9663C39.6112 32.6461 42.1081 30.2152 46.5412 30.2152C50.9787 30.2152 53.4756 32.6461 53.4756 36.9663Z" fill="#B251FB"/>
</svg>
