<?xml version="1.0" encoding="utf-8"?>
<!-- Generator: Adobe Illustrator 21.0.0, SVG Export Plug-In . SVG Version: 6.00 Build 0)  -->
<svg version="1.1" id="Слой_1" xmlns="http://www.w3.org/2000/svg" xmlns:xlink="http://www.w3.org/1999/xlink" x="0px" y="0px"
	 viewBox="0 0 18 18" style="enable-background:new 0 0 18 18;" xml:space="preserve">
<style type="text/css">
	.common_placeholder{fill:#BF0000;}
</style>
<path class="common_placeholder" d="M6.8,7.3C6.9,7.5,7,7.7,7,8S6.9,8.5,6.8,8.7C6.6,8.9,6.4,9,6.1,9H5V7h1.1C6.4,7,6.6,7.1,6.8,7.3z M18,0v18H0V0
	H18z M8.1,8.1C8.1,6,6,6,6,6H4v7h1v-3h1C6,10,8.1,10.2,8.1,8.1z M14,6h-1v3h-2V6h-1v7h1v-3h2v3h1V6z"/>
</svg>
