<?xml version="1.0" encoding="utf-8"?>
<!-- Generator: Adobe Illustrator 23.0.3, SVG Export Plug-In . SVG Version: 6.00 Build 0)  -->
<svg version="1.1" id="Layer_1" xmlns="http://www.w3.org/2000/svg" xmlns:xlink="http://www.w3.org/1999/xlink" x="0px" y="0px"
	 viewBox="0 0 4 16" style="enable-background:new 0 0 4 16;" xml:space="preserve">
<style type="text/css">
	.desktop_threepoints0{fill:#FFFFFF;}
</style>
<g>
	<path class="desktop_threepoints0" d="M1.7,3.3c0.9,0,1.7-0.7,1.7-1.7S2.6,0,1.7,0S0,0.7,0,1.7S0.7,3.3,1.7,3.3z"/>
	<path class="desktop_threepoints0" d="M1.7,6.3C0.7,6.3,0,7.1,0,8s0.7,1.7,1.7,1.7S3.3,8.9,3.3,8S2.6,6.3,1.7,6.3z"/>
	<path class="desktop_threepoints0" d="M1.7,12.7c-0.9,0-1.7,0.7-1.7,1.7S0.7,16,1.7,16s1.7-0.7,1.7-1.7S2.6,12.7,1.7,12.7z"/>
</g>
</svg>
