<?xml version="1.0" encoding="utf-8"?>
<!-- Generator: Adobe Illustrator 23.0.3, SVG Export Plug-In . SVG Version: 6.00 Build 0)  -->
<svg version="1.1" id="Layer_1" xmlns="http://www.w3.org/2000/svg" xmlns:xlink="http://www.w3.org/1999/xlink" x="0px" y="0px"
	 viewBox="0 0 34 24" style="enable-background:new 0 0 34 24;" xml:space="preserve">
<style type="text/css">
	.st0{fill:#879BFF;}
</style>
<title>Group 3</title>
<desc>Created with Sketch.</desc>
<g>
	<path class="st0" d="M32.1,5.4c-0.7-0.3-1.4-0.2-1.9,0.4l-6.1,6V7c0-1.7-1.4-3.2-3-3.2H9.2c0.3,0.5,0.4,1,0.4,1.6h11.5
		c0.8,0,1.5,0.7,1.5,1.6v13.7c0,0.9-0.7,1.7-1.6,1.7H5.7c-0.8,0-1.4-0.7-1.4-1.5v-8.5c-0.5-0.6-1.1-1.3-1.5-1.9v10.5
		c0,1.7,1.3,3.1,2.9,3.1H21c1.7,0,3.1-1.5,3.1-3.3v-4.3l6.1,6.1c0.5,0.5,1.3,0.7,1.9,0.4c0.7-0.3,1.1-1,1.1-1.7V7.1
		C33.2,6.3,32.8,5.7,32.1,5.4z M31.7,7.1v14.1c0,0.2-0.1,0.2-0.1,0.2c-0.1,0-0.2,0-0.2-0.1l-7.1-7.1c0-0.1-0.1-0.1-0.1-0.2
		c0-0.1,0-0.1,0.1-0.2l7.1-6.9c0.1-0.1,0.1-0.1,0.1-0.1c0,0,0.1,0,0.1,0C31.6,6.9,31.7,6.9,31.7,7.1z"/>
	<path class="st0" d="M1.9,8.2c2.5,4,5.9,7.4,9.9,9.9c0.7,0.4,1.4,0.6,2.2,0.6c1.1,0,2.1-0.4,2.9-1.2l1.3-1.3
		c0.4-0.4,0.6-0.9,0.6-1.4s-0.2-1-0.6-1.4l-1.9-1.9c-0.8-0.8-2.1-0.8-2.9,0l-0.9,0.9c-0.2,0.2-0.6,0.3-0.8,0.1
		c-1.7-1-3.1-2.5-4.1-4.1C7.3,8.1,7.4,7.8,7.6,7.5l0.9-0.9c0.8-0.8,0.8-2.1,0-2.9L6.6,1.8C6.2,1.5,5.7,1.2,5.2,1.2s-1,0.2-1.4,0.6
		L2.5,3.1C1.1,4.5,0.9,6.6,1.9,8.2z M5.6,2.9l1.9,1.9C7.6,4.9,7.6,5,7.6,5.2c0,0.1-0.1,0.3-0.2,0.4L6.6,6.5C5.8,7.2,5.7,8.3,6.3,9.2
		c1.2,1.8,2.7,3.4,4.6,4.6c0.9,0.5,1.9,0.4,2.7-0.3l0.9-0.9c0.1-0.1,0.2-0.2,0.4-0.2s0.3,0.1,0.4,0.2l1.9,1.9
		c0.1,0.1,0.2,0.2,0.2,0.4s-0.1,0.3-0.2,0.4l-1.3,1.3c-0.9,0.9-2.2,1-3.3,0.4c-3.8-2.4-7.1-5.7-9.5-9.5C2.5,6.4,2.6,5,3.5,4.1
		l1.3-1.3C4.9,2.8,5,2.7,5.2,2.7C5.3,2.7,5.4,2.8,5.6,2.9z"/>
</g>
</svg>
