<?xml version="1.0" encoding="utf-8"?>
<!-- Generator: Adobe Illustrator 21.0.0, SVG Export Plug-In . SVG Version: 6.00 Build 0)  -->
<svg version="1.1" id="Слой_1" xmlns="http://www.w3.org/2000/svg" xmlns:xlink="http://www.w3.org/1999/xlink" x="0px" y="0px"
	 viewBox="0 0 18 14" style="enable-background:new 0 0 18 14;" xml:space="preserve">
<title>email</title>
<desc>Created with Sketch.</desc>
<g>
	<path d="M15.6,0H2.4C1.1,0,0,1,0,2.3v9.5C0,13,1.1,14,2.4,14h13.2c1.3,0,2.4-1,2.4-2.3V2.3C18,1,16.9,0,15.6,0z M2.4,1.4h13.2
		c0.4,0,0.7,0.2,0.9,0.6L9,6.9L1.5,2C1.7,1.6,2,1.4,2.4,1.4z M15.6,12.6H2.4c-0.5,0-0.9-0.4-0.9-0.9V3.6l7.1,4.8
		C8.7,8.4,8.9,8.5,9,8.5s0.3,0,0.4-0.1l7.1-4.8v8.1C16.5,12.2,16.1,12.6,15.6,12.6z"/>
</g>
</svg>
