<?xml version="1.0" encoding="utf-8"?>
<!-- Generator: Adobe Illustrator 21.0.0, SVG Export Plug-In . SVG Version: 6.00 Build 0)  -->
<svg version="1.1" id="Слой_1" xmlns="http://www.w3.org/2000/svg" xmlns:xlink="http://www.w3.org/1999/xlink" x="0px" y="0px"
	 viewBox="0 0 26 25" style="enable-background:new 0 0 26 25;" xml:space="preserve">
<style type="text/css">
	.st0{fill:#4A90E2;}
</style>
<title>Group 9</title>
<desc>Created with Sketch.</desc>
<g>
	<path class="st0" d="M12.7,14.9C6.6,14.9,0,18,0,24c0,0.5,0.4,0.8,0.8,0.8s0.8-0.4,0.8-0.8c0-5,5.8-7.5,11-7.5s11,2.4,11,7.5
		c0,0.5,0.4,0.8,0.8,0.8s0.8-0.4,0.8-0.8C25.3,18,18.7,14.9,12.7,14.9z"/>
	<path class="st0" d="M12.7,11.6c3.3,0,5.9-2.6,5.9-5.8c0-3.2-2.7-5.8-5.9-5.8C9.4,0,6.7,2.6,6.7,5.8S9.4,11.6,12.7,11.6z M12.7,1.7
		c2.3,0,4.2,1.9,4.2,4.1S15,9.9,12.7,9.9c-2.3,0-4.2-1.9-4.2-4.1S10.3,1.7,12.7,1.7z"/>
</g>
</svg>
