<svg xmlns="http://www.w3.org/2000/svg" width="28" height="29" viewBox="0 0 28 29" fill="none">
<path fill-rule="evenodd" clip-rule="evenodd" d="M4 4C4 1.79086 5.79087 -4.71121e-06 8.00001 0L19.5751 2.46853e-05C20.6643 2.7008e-05 21.7064 0.444174 22.4607 1.22988L26.8855 5.83911C27.6007 6.58402 28 7.57662 28 8.60923V25C28 27.2091 26.2091 29 24 29H8C5.79086 29 4 27.2091 4 25V4ZM24 27.5H8C6.61929 27.5 5.5 26.3807 5.5 25V4C5.5 2.61929 6.61929 1.5 8.00001 1.5L19.5751 1.50002C20.0883 1.50003 20.5847 1.65777 21 1.9458V8H26.4246C26.4743 8.19764 26.5 8.40215 26.5 8.60923V25C26.5 26.3807 25.3807 27.5 24 27.5Z" fill="#89929E"/>
<rect y="12" width="22" height="12" rx="6" fill="#FC6872"/>
<path d="M4.1981 21.048C4.04343 21.048 3.9181 21.0027 3.8221 20.912C3.73143 20.816 3.6861 20.688 3.6861 20.528V15.848C3.6861 15.6933 3.72876 15.5733 3.8141 15.488C3.90476 15.4027 4.02743 15.36 4.1821 15.36H6.1501C6.75276 15.36 7.2221 15.512 7.5581 15.816C7.8941 16.1147 8.0621 16.536 8.0621 17.08C8.0621 17.624 7.8941 18.048 7.5581 18.352C7.2221 18.656 6.75276 18.808 6.1501 18.808H4.7181V20.528C4.7181 20.688 4.6701 20.816 4.5741 20.912C4.48343 21.0027 4.3581 21.048 4.1981 21.048ZM6.0221 18.016C6.73143 18.016 7.0861 17.7067 7.0861 17.088C7.0861 16.4693 6.73143 16.16 6.0221 16.16H4.7181V18.016H6.0221Z" fill="white"/>
<path d="M9.46335 21C9.30868 21 9.18601 20.9573 9.09535 20.872C9.01001 20.7867 8.96735 20.6667 8.96735 20.512V15.848C8.96735 15.6933 9.01001 15.5733 9.09535 15.488C9.18601 15.4027 9.30868 15.36 9.46335 15.36H11.0473C11.97 15.36 12.6847 15.608 13.1913 16.104C13.7033 16.5947 13.9593 17.2853 13.9593 18.176C13.9593 19.072 13.7033 19.768 13.1913 20.264C12.6847 20.7547 11.97 21 11.0473 21H9.46335ZM10.9833 20.16C12.2793 20.16 12.9273 19.4987 12.9273 18.176C12.9273 16.8587 12.2793 16.2 10.9833 16.2H9.99935V20.16H10.9833Z" fill="white"/>
<path d="M15.5106 21.048C15.3559 21.048 15.2306 21 15.1346 20.904C15.0439 20.808 14.9986 20.6827 14.9986 20.528V15.848C14.9986 15.6933 15.0413 15.5733 15.1266 15.488C15.2173 15.4027 15.3399 15.36 15.4946 15.36H18.3026C18.6279 15.36 18.7906 15.4987 18.7906 15.776C18.7906 16.048 18.6279 16.184 18.3026 16.184H16.0146V17.72H18.1426C18.4679 17.72 18.6306 17.8587 18.6306 18.136C18.6306 18.408 18.4679 18.544 18.1426 18.544H16.0146V20.528C16.0146 20.6827 15.9693 20.808 15.8786 20.904C15.7879 21 15.6653 21.048 15.5106 21.048Z" fill="white"/>
</svg>