<svg width="35" height="33" viewBox="0 0 35 33" fill="none" xmlns="http://www.w3.org/2000/svg">
<path d="M16.75 5C16.75 4.30964 17.3096 3.75 18 3.75H33C33.6904 3.75 34.25 4.30964 34.25 5V28C34.25 28.6904 33.6904 29.25 33 29.25H18C17.3096 29.25 16.75 28.6904 16.75 28V5Z" stroke="#18AC72" stroke-opacity="0.4" stroke-width="1.5"/>
<path d="M24 10C24 9.44772 24.4477 9 25 9H29C29.5523 9 30 9.44772 30 10C30 10.5523 29.5523 11 29 11H25C24.4477 11 24 10.5523 24 10Z" fill="#18AC72" fill-opacity="0.4"/>
<path d="M24 17C24 16.4477 24.4477 16 25 16H29C29.5523 16 30 16.4477 30 17C30 17.5523 29.5523 18 29 18H25C24.4477 18 24 17.5523 24 17Z" fill="#18AC72" fill-opacity="0.4"/>
<path d="M24 24C24 23.4477 24.4477 23 25 23H29C29.5523 23 30 23.4477 30 24C30 24.5523 29.5523 25 29 25H25C24.4477 25 24 24.5523 24 24Z" fill="#18AC72" fill-opacity="0.4"/>
<path d="M0 5.34772C0 4.37587 0.698632 3.54468 1.656 3.37752L18.656 0.40927C19.8796 0.195623 21 1.13733 21 2.37946V30.6205C21 31.8627 19.8796 32.8044 18.656 32.5907L1.656 29.6225C0.698633 29.4553 0 28.6241 0 27.6523V5.34772Z" fill="#18AC72"/>
<path d="M13.5036 19.8961C13.6316 20.0481 13.6956 20.2001 13.6956 20.3521C13.6956 20.5441 13.6196 20.7121 13.4676 20.8561C13.3236 21.0001 13.1556 21.0721 12.9636 21.0721C12.7636 21.0721 12.5876 20.9841 12.4356 20.8081L9.99963 17.7841L7.55163 20.8081C7.40763 20.9761 7.23563 21.0601 7.03563 21.0601C6.84363 21.0601 6.67163 20.9921 6.51963 20.8561C6.37563 20.7121 6.30363 20.5441 6.30363 20.3521C6.30363 20.1921 6.36363 20.0401 6.48363 19.8961L9.09963 16.7041L6.59163 13.6441C6.47163 13.5161 6.41163 13.3641 6.41163 13.1881C6.41163 12.9961 6.48363 12.8321 6.62763 12.6961C6.77163 12.5521 6.93963 12.4801 7.13163 12.4801C7.33163 12.4801 7.50763 12.5681 7.65963 12.7441L9.99963 15.6361L12.3396 12.7441C12.4836 12.5681 12.6556 12.4801 12.8556 12.4801C13.0476 12.4801 13.2156 12.5521 13.3596 12.6961C13.5116 12.8321 13.5876 12.9961 13.5876 13.1881C13.5876 13.3641 13.5276 13.5161 13.4076 13.6441L10.8996 16.7041L13.5036 19.8961Z" fill="white"/>
<path fill-rule="evenodd" clip-rule="evenodd" d="M12.3396 12.7441C12.4836 12.5681 12.6556 12.4801 12.8556 12.4801C13.0476 12.4801 13.2156 12.5521 13.3596 12.6961C13.5116 12.8321 13.5876 12.9961 13.5876 13.1881C13.5876 13.3641 13.5276 13.5161 13.4076 13.6441L10.8996 16.7041L13.5036 19.8961C13.6316 20.0481 13.6956 20.2001 13.6956 20.3521C13.6956 20.5441 13.6196 20.7121 13.4676 20.8561C13.3236 21.0001 13.1556 21.0721 12.9636 21.0721C12.7636 21.0721 12.5876 20.9841 12.4356 20.8081L9.99963 17.7841L7.55163 20.8081C7.40763 20.9761 7.23563 21.0601 7.03563 21.0601C6.84363 21.0601 6.67163 20.9921 6.51963 20.8561C6.37563 20.7121 6.30363 20.5441 6.30363 20.3521C6.30363 20.1921 6.36363 20.0401 6.48363 19.8961L9.09963 16.7041L6.59163 13.6441C6.47163 13.5161 6.41163 13.3641 6.41163 13.1881C6.41163 12.9961 6.48363 12.8321 6.62763 12.6961C6.77163 12.5521 6.93963 12.4801 7.13163 12.4801C7.33163 12.4801 7.50763 12.5681 7.65963 12.7441L9.99963 15.6361L12.3396 12.7441ZM9.99963 15.1591L12.1064 12.5554L12.1074 12.5541C12.2996 12.3192 12.5526 12.1801 12.8556 12.1801C13.1296 12.1801 13.3704 12.2853 13.5659 12.4781C13.7731 12.6662 13.8876 12.9077 13.8876 13.1881C13.8876 13.4364 13.8013 13.659 13.6338 13.8413L11.2872 16.7045L13.7347 19.7047C13.8931 19.8935 13.9956 20.1108 13.9956 20.3521C13.9956 20.633 13.8808 20.8766 13.6769 21.071C13.4809 21.2657 13.2391 21.3721 12.9636 21.3721C12.6619 21.3721 12.4073 21.2342 12.2086 21.0041L12.2019 20.9964L9.99906 18.2616L7.7795 21.0034C7.58532 21.2299 7.33317 21.3601 7.03563 21.3601C6.76495 21.3601 6.52286 21.2615 6.31959 21.0796L6.31339 21.0741L6.3075 21.0682C6.11103 20.8717 6.00363 20.6288 6.00363 20.3521C6.00363 20.1106 6.096 19.893 6.25233 19.705C6.25261 19.7047 6.25289 19.7043 6.25317 19.704L8.71175 16.7041L6.36542 13.8413C6.19793 13.659 6.11163 13.4364 6.11163 13.1881C6.11163 12.9121 6.21866 12.6711 6.41852 12.4809C6.61446 12.2864 6.85628 12.1801 7.13163 12.1801C7.43339 12.1801 7.68796 12.3179 7.88668 12.548L7.89297 12.5553L9.99963 15.1591Z" fill="white"/>
</svg>