<svg width="35" height="33" viewBox="0 0 35 33" fill="none" xmlns="http://www.w3.org/2000/svg">
<path d="M16.75 5C16.75 4.30964 17.3096 3.75 18 3.75H33C33.6904 3.75 34.25 4.30964 34.25 5V28C34.25 28.6904 33.6904 29.25 33 29.25H18C17.3096 29.25 16.75 28.6904 16.75 28V5Z" stroke="#4A90E2" stroke-opacity="0.4" stroke-width="1.5"/>
<path d="M24 10C24 9.44772 24.4477 9 25 9H29C29.5523 9 30 9.44772 30 10C30 10.5523 29.5523 11 29 11H25C24.4477 11 24 10.5523 24 10Z" fill="#4A90E2" fill-opacity="0.4"/>
<path d="M24 17C24 16.4477 24.4477 16 25 16H29C29.5523 16 30 16.4477 30 17C30 17.5523 29.5523 18 29 18H25C24.4477 18 24 17.5523 24 17Z" fill="#4A90E2" fill-opacity="0.4"/>
<path d="M24 24C24 23.4477 24.4477 23 25 23H29C29.5523 23 30 23.4477 30 24C30 24.5523 29.5523 25 29 25H25C24.4477 25 24 24.5523 24 24Z" fill="#4A90E2" fill-opacity="0.4"/>
<path d="M0 5.34772C0 4.37587 0.698632 3.54468 1.656 3.37752L18.656 0.40927C19.8796 0.195623 21 1.13733 21 2.37946V30.6205C21 31.8627 19.8796 32.8044 18.656 32.5907L1.656 29.6225C0.698633 29.4553 0 28.6241 0 27.6523V5.34772Z" fill="#4A90E2"/>
<path d="M14.8579 12.948C14.9139 12.788 15.0019 12.668 15.1219 12.588C15.2499 12.508 15.3899 12.468 15.5419 12.468C15.7339 12.468 15.8979 12.528 16.0339 12.648C16.1779 12.768 16.2499 12.928 16.2499 13.128C16.2499 13.2 16.2299 13.304 16.1899 13.44L13.6099 20.58C13.5459 20.74 13.4379 20.864 13.2859 20.952C13.1419 21.04 12.9819 21.084 12.8059 21.084C12.6299 21.084 12.4659 21.04 12.3139 20.952C12.1619 20.864 12.0579 20.74 12.0019 20.58L10.0099 14.928L7.98189 20.58C7.91789 20.74 7.80989 20.864 7.65789 20.952C7.51389 21.04 7.35389 21.084 7.17789 21.084C7.00189 21.084 6.83789 21.04 6.68589 20.952C6.54189 20.864 6.44189 20.74 6.38589 20.58L3.80589 13.44C3.76589 13.32 3.74589 13.216 3.74589 13.128C3.74589 12.928 3.81789 12.768 3.96189 12.648C4.11389 12.528 4.28989 12.468 4.48989 12.468C4.64989 12.468 4.79389 12.508 4.92189 12.588C5.04989 12.668 5.14189 12.788 5.19789 12.948L7.23789 18.816L9.33789 12.984C9.39389 12.824 9.48589 12.7 9.61389 12.612C9.74189 12.516 9.88189 12.468 10.0339 12.468C10.1859 12.468 10.3259 12.516 10.4539 12.612C10.5899 12.7 10.6859 12.828 10.7419 12.996L12.7819 18.888L14.8579 12.948Z" fill="white"/>
<path fill-rule="evenodd" clip-rule="evenodd" d="M14.5747 12.8489C14.6484 12.6385 14.7722 12.4606 14.9555 12.3384L14.9628 12.3335C15.1389 12.2234 15.3341 12.168 15.5419 12.168C15.8009 12.168 16.0356 12.2508 16.2292 12.4203C16.4445 12.6012 16.5499 12.8472 16.5499 13.128C16.5499 13.2445 16.5196 13.3823 16.4777 13.5246L16.4751 13.5334L13.8886 20.6915C13.7996 20.914 13.6467 21.0889 13.4393 21.2098C13.2469 21.3266 13.0334 21.384 12.8059 21.384C12.5772 21.384 12.3614 21.3261 12.1636 21.2116C11.952 21.0891 11.7994 20.9094 11.7188 20.6792C11.7188 20.6792 11.7188 20.6792 11.7188 20.6792L10.0074 15.8233L8.26062 20.6915C8.1716 20.914 8.01865 21.0889 7.81131 21.2098C7.61892 21.3266 7.40542 21.384 7.17789 21.384C6.94922 21.384 6.73336 21.3261 6.53558 21.2116L6.52941 21.208C6.32651 21.084 6.18215 20.9049 6.10327 20.6806L3.5212 13.5349C3.47507 13.3965 3.44589 13.259 3.44589 13.128C3.44589 12.8457 3.55237 12.5987 3.76984 12.4175L3.77593 12.4124C3.98272 12.2492 4.22482 12.168 4.48989 12.168C4.70259 12.168 4.90231 12.222 5.08089 12.3336C5.27383 12.4542 5.40545 12.6329 5.48105 12.8489L7.24286 17.9167L9.05474 12.8849C9.0549 12.8844 9.05506 12.8839 9.05522 12.8835C9.12961 12.6717 9.2566 12.4952 9.4388 12.3683C9.61464 12.2379 9.81546 12.168 10.0339 12.168C10.2509 12.168 10.4506 12.237 10.6256 12.3658C10.819 12.4938 10.9515 12.6773 11.0259 12.8993L12.7832 17.9749L14.5747 12.8489ZM12.7819 18.888L10.7419 12.996C10.6859 12.828 10.5899 12.7 10.4539 12.612C10.3259 12.516 10.1859 12.468 10.0339 12.468C9.88189 12.468 9.74189 12.516 9.61389 12.612C9.48589 12.7 9.39389 12.824 9.33789 12.984L7.23789 18.816L5.19789 12.948C5.14189 12.788 5.04989 12.668 4.92189 12.588C4.79389 12.508 4.64989 12.468 4.48989 12.468C4.28989 12.468 4.11389 12.528 3.96189 12.648C3.81789 12.768 3.74589 12.928 3.74589 13.128C3.74589 13.216 3.76589 13.32 3.80589 13.44L6.38589 20.58C6.44189 20.74 6.54189 20.864 6.68589 20.952C6.83789 21.04 7.00189 21.084 7.17789 21.084C7.35389 21.084 7.51389 21.04 7.65789 20.952C7.80989 20.864 7.91789 20.74 7.98189 20.58L10.0099 14.928L12.0019 20.58C12.0579 20.74 12.1619 20.864 12.3139 20.952C12.4659 21.04 12.6299 21.084 12.8059 21.084C12.9819 21.084 13.1419 21.04 13.2859 20.952C13.4379 20.864 13.5459 20.74 13.6099 20.58L16.1899 13.44C16.2299 13.304 16.2499 13.2 16.2499 13.128C16.2499 12.928 16.1779 12.768 16.0339 12.648C15.8979 12.528 15.7339 12.468 15.5419 12.468C15.3899 12.468 15.2499 12.508 15.1219 12.588C15.0019 12.668 14.9139 12.788 14.8579 12.948L12.7819 18.888Z" fill="white"/>
</svg>
