<?xml version="1.0" encoding="utf-8"?>
<!-- Generator: Adobe Illustrator 23.0.2, SVG Export Plug-In . SVG Version: 6.00 Build 0)  -->
<svg version="1.1" id="Layer_1" xmlns="http://www.w3.org/2000/svg" xmlns:xlink="http://www.w3.org/1999/xlink" x="0px" y="0px"
	 viewBox="0 0 21 28" style="enable-background:new 0 0 21 28;" xml:space="preserve">
<style type="text/css">
	.documents_code0{fill:#2F2F2F;}
</style>
<g>
	<path class="documents_code0" d="M14.5,0h-11C1.6,0,0,1.6,0,3.6v19.7c0,2,1.6,3.6,3.5,3.6h2c0.5,0.6,1.2,1,2,1h11c1.4,0,2.5-1.1,2.5-2.5v-2.1
		v-4.9v-11L14.5,0z M15.3,4l2.9,3h-2.9V4z M1.9,23.3V3.7C1.9,2.8,2.7,2,3.6,2h9.6v5.8c0,0.6,0.4,1,1,1h4.9v7.3
		c-0.2,0-0.4-0.1-0.6-0.1h-11C6.1,16,5,17.1,5,18.5V25H3.6C2.7,25,1.9,24.2,1.9,23.3z M17.2,24.8C17,24.9,16.8,25,16.6,25
		c-0.2,0-0.4,0-0.5-0.1c-0.2-0.1-0.3-0.3-0.3-0.5c0-0.2,0.1-0.4,0.2-0.5l1.4-1.3L16,21.2c-0.2-0.1-0.2-0.3-0.2-0.5
		c0-0.2,0.1-0.4,0.3-0.5c0.3-0.2,0.8-0.2,1.1,0.1l1.9,1.8c0.1,0.1,0.2,0.3,0.2,0.5s-0.1,0.3-0.2,0.5L17.2,24.8z M11.3,25.8l1.6-7.1
		c0.1-0.5,0.5-0.7,0.9-0.6c0.4,0.1,0.6,0.6,0.5,1.1l-1.6,7.1c-0.1,0.4-0.4,0.7-0.7,0.7c-0.1,0-0.1,0-0.2,0
		C11.4,26.8,11.1,26.3,11.3,25.8z M8.9,24.8L7,23c-0.1-0.1-0.2-0.3-0.2-0.5c0-0.2,0.1-0.3,0.2-0.5l1.9-1.8C9.2,20,9.7,20,10,20.2
		c0.2,0.1,0.3,0.3,0.3,0.5c0,0.2-0.1,0.4-0.2,0.5l-1.4,1.3l1.4,1.3c0.2,0.1,0.2,0.3,0.2,0.5c0,0.2-0.1,0.4-0.3,0.5
		C9.9,25,9.7,25,9.5,25C9.3,25,9.1,24.9,8.9,24.8z"/>
	<path class="documents_code0" d="M6,14.8h9c0.4,0,0.8-0.3,0.8-0.8s-0.3-0.8-0.8-0.8H6c-0.4,0-0.8,0.3-0.8,0.8S5.6,14.8,6,14.8z"/>
</g>
</svg>
