<?xml version="1.0" encoding="UTF-8"?>
<svg width="21px" height="28px" viewBox="0 0 21 28" version="1.1" xmlns="http://www.w3.org/2000/svg" xmlns:xlink="http://www.w3.org/1999/xlink">
    <!-- Generator: Sketch 53.2 (72643) - https://sketchapp.com -->
    <title>files/kind/documents</title>
    <desc>Created with Sketch.</desc>
    <g id="files/kind/documents" stroke="none" stroke-width="1" fill="none" fill-rule="evenodd">
        <g id="Group" fill="#AB47BC" fill-rule="nonzero">
            <path d="M14.5206475,0 L3.52420056,0 C1.58082826,0 0,1.69033997 0,3.76793229 L0,24.2320677 C0,26.30966 1.58113786,28 3.52451017,28 L17.4757994,28 C19.4188621,28 21,26.309991 21,24.2320677 L21,7.74239917 L14.5206475,0 Z M15.0336582,3.5921793 L17.9937637,7.12908412 L15.0336582,7.12908412 L15.0336582,3.5921793 Z M17.4754898,26.0140905 L3.52420056,26.0140905 C2.60499197,26.0140905 1.85730292,25.2147619 1.85730292,24.2320677 L1.85730292,3.76793229 C1.85761253,2.78523807 2.60530157,1.9859095 3.52420056,1.9859095 L13.1760456,1.9859095 L13.1760456,8.11466263 C13.1760456,8.66694738 13.6237609,9.11466263 14.1760456,9.11466263 L19.1420779,9.11466263 L19.1420779,24.2320677 C19.1423875,25.2147619 18.3946984,26.0140905 17.4754898,26.0140905 Z" id="Shape"></path>
        </g>
    </g>
</svg>