<?xml version="1.0" encoding="utf-8"?>
<!-- Generator: Adobe Illustrator 21.0.0, SVG Export Plug-In . SVG Version: 6.00 Build 0)  -->
<svg version="1.1" id="Слой_1" xmlns="http://www.w3.org/2000/svg" xmlns:xlink="http://www.w3.org/1999/xlink" x="0px" y="0px"
	 viewBox="0 0 100 100" style="enable-background:new 0 0 100 100;" xml:space="preserve">
<title>Icons</title>
<desc>Created with Sketch.</desc>
<g id="Image-Drag-and-Drop" transform="translate(-534.000000, -303.000000)">
	<g id="Icons" transform="translate(534.000000, 303.000000)">
		<g id="drag-drop-ic">
			<g id="Group" transform="translate(10.000000, 0.000000)">
				<path id="Shape" d="M68.9,63.2L61,55.3l5.9-2.8c0.4-0.2,0.6-0.6,0.6-1.1c0-0.4-0.3-0.8-0.7-1l-9.6-3.3V27.9h2.4
					c0.6,0,1.1-0.5,1.1-1.1c0-0.6-0.5-1.1-1.1-1.1h-2.4V15.3c0-0.6-0.5-1.1-1.1-1.1h-46c-0.6,0-1.1,0.5-1.1,1.1v10.4H6.5
					c-0.6,0-1.1,0.5-1.1,1.1c0,0.6,0.5,1.1,1.1,1.1H9v25.9c0,0.6,0.5,1.1,1.1,1.1h37L51,66.1c0.1,0.4,0.5,0.7,1,0.7
					c0.4,0,0.9-0.2,1.1-0.6l2.8-5.9l7.9,7.9c0.2,0.2,0.5,0.3,0.8,0.3c0.1,0,0.1,0,0.2,0c0,0,0.1,0,0.1,0c0,0,0.1,0,0.1,0
					c0,0,0,0,0,0c0.1-0.1,0.3-0.1,0.4-0.2l3.6-3.6c0.2-0.2,0.3-0.5,0.3-0.8C69.2,63.7,69.1,63.4,68.9,63.2z M11.2,16.4H55v22.3
					L43.7,27.4c-0.4-0.4-1.1-0.4-1.6,0L26.9,42.7l-5.1-5.1c-0.4-0.4-1.1-0.4-1.6,0l-9,9L11.2,16.4L11.2,16.4z M11.2,52.7v-3l9.8-9.7
					l5.1,5.1c0.4,0.4,1.1,0.4,1.5,0l15.3-15.3L55,41.8v4.5l-10-3.4c-0.4-0.1-0.9,0-1.2,0.3c0,0,0,0,0,0c-0.3,0.3-0.4,0.7-0.3,1.1
					l2.9,8.3H11.2z M64.6,66l-8.2-8.2c-0.3-0.3-0.6-0.4-1-0.3c-0.4,0.1-0.6,0.3-0.8,0.6l-2.4,4.9L49,53.5c0,0,0-0.1,0-0.1l-2.6-7.7
					l17.2,5.9L58.7,54c-0.3,0.2-0.5,0.5-0.6,0.8c-0.1,0.4,0.1,0.7,0.3,1l8.2,8.2L64.6,66z"/>
				<path id="Shape_1_" d="M65.3,68.3c-0.1,0.1-0.2,0.2-0.4,0.2C65.1,68.5,65.2,68.4,65.3,68.3z"/>
			</g>
			<g id="Group_1_" transform="translate(0.000000, 11.000000)">
				<path id="Shape_2_" d="M83.6,16.9h-7c-0.6,0-1.1-0.5-1.1-1.1c0-0.6,0.5-1.1,1.1-1.1h7c0.6,0,1.1,0.5,1.1,1.1
					C84.7,16.4,84.2,16.9,83.6,16.9z"/>
				<path id="Shape_3_" d="M93.9,20.2c-0.6,0-1.1-0.5-1.1-1.1v-2.2h-2.2c-0.6,0-1.1-0.5-1.1-1.1c0-0.6,0.5-1.1,1.1-1.1h3.3
					c0.6,0,1.1,0.5,1.1,1.1v3.3C95,19.7,94.5,20.2,93.9,20.2z"/>
				<path id="Shape_4_" d="M93.9,64.2c-0.6,0-1.1-0.5-1.1-1.1v-7.3c0-0.6,0.5-1.1,1.1-1.1s1.1,0.5,1.1,1.1v7.3
					C95,63.7,94.5,64.2,93.9,64.2z M93.9,49.5c-0.6,0-1.1-0.5-1.1-1.1v-7.3c0-0.6,0.5-1.1,1.1-1.1s1.1,0.5,1.1,1.1v7.3
					C95,49,94.5,49.5,93.9,49.5z M93.9,34.9c-0.6,0-1.1-0.5-1.1-1.1v-7.3c0-0.6,0.5-1.1,1.1-1.1s1.1,0.5,1.1,1.1v7.3
					C95,34.4,94.5,34.9,93.9,34.9z"/>
				<path id="Shape_5_" d="M93.9,74.8h-3.3c-0.6,0-1.1-0.5-1.1-1.1s0.5-1.1,1.1-1.1h2.2v-2.2c0-0.6,0.5-1.1,1.1-1.1s1.1,0.5,1.1,1.1
					v3.3C95,74.3,94.5,74.8,93.9,74.8z"/>
				<path id="Shape_6_" d="M84.4,74.8h-6.2c-0.6,0-1.1-0.5-1.1-1.1s0.5-1.1,1.1-1.1h6.2c0.6,0,1.1,0.5,1.1,1.1S85,74.8,84.4,74.8z
					 M71.9,74.8h-6.2c-0.6,0-1.1-0.5-1.1-1.1s0.5-1.1,1.1-1.1h6.2c0.6,0,1.1,0.5,1.1,1.1S72.5,74.8,71.9,74.8z M59.4,74.8h-6.2
					c-0.6,0-1.1-0.5-1.1-1.1s0.5-1.1,1.1-1.1h6.2c0.6,0,1.1,0.5,1.1,1.1S60,74.8,59.4,74.8z M46.9,74.8h-6.2c-0.6,0-1.1-0.5-1.1-1.1
					s0.5-1.1,1.1-1.1h6.2c0.6,0,1.1,0.5,1.1,1.1S47.5,74.8,46.9,74.8z M34.4,74.8h-6.2c-0.6,0-1.1-0.5-1.1-1.1s0.5-1.1,1.1-1.1h6.2
					c0.6,0,1.1,0.5,1.1,1.1S35,74.8,34.4,74.8z M21.9,74.8h-6.2c-0.6,0-1.1-0.5-1.1-1.1s0.5-1.1,1.1-1.1h6.2c0.6,0,1.1,0.5,1.1,1.1
					S22.5,74.8,21.9,74.8z"/>
				<path id="Shape_7_" d="M9.4,74.8H6.1c-0.6,0-1.1-0.5-1.1-1.1v-3.3c0-0.6,0.5-1.1,1.1-1.1s1.1,0.5,1.1,1.1v2.2h2.2
					c0.6,0,1.1,0.5,1.1,1.1S10,74.8,9.4,74.8z"/>
				<path id="Shape_8_" d="M6.1,64.2c-0.6,0-1.1-0.5-1.1-1.1v-7.3c0-0.6,0.5-1.1,1.1-1.1s1.1,0.5,1.1,1.1v7.3
					C7.2,63.7,6.7,64.2,6.1,64.2z M6.1,49.5C5.5,49.5,5,49,5,48.4v-7.3C5,40.5,5.5,40,6.1,40s1.1,0.5,1.1,1.1v7.3
					C7.2,49,6.7,49.5,6.1,49.5z M6.1,34.9c-0.6,0-1.1-0.5-1.1-1.1v-7.3c0-0.6,0.5-1.1,1.1-1.1s1.1,0.5,1.1,1.1v7.3
					C7.2,34.4,6.7,34.9,6.1,34.9z"/>
				<path id="Shape_9_" d="M6.1,20.2c-0.6,0-1.1-0.5-1.1-1.1v-3.3c0-0.6,0.5-1.1,1.1-1.1h3.3c0.6,0,1.1,0.5,1.1,1.1
					c0,0.6-0.5,1.1-1.1,1.1H7.2v2.2C7.2,19.7,6.7,20.2,6.1,20.2z"/>
			</g>
			<path id="Shape_10_" d="M33.6,32.9c-3,0-5.4-2.4-5.4-5.4c0-3,2.4-5.4,5.4-5.4c3,0,5.4,2.4,5.4,5.4S36.6,32.9,33.6,32.9z
				 M33.6,24.2c-1.8,0-3.2,1.5-3.2,3.2c0,1.8,1.5,3.2,3.2,3.2c1.8,0,3.2-1.5,3.2-3.2C36.8,25.7,35.4,24.2,33.6,24.2z"/>
		</g>
	</g>
</g>
</svg>
