<?xml version="1.0" encoding="utf-8"?>
<!-- Generator: Adobe Illustrator 21.0.0, SVG Export Plug-In . SVG Version: 6.00 Build 0)  -->
<svg version="1.1" id="Слой_1" xmlns="http://www.w3.org/2000/svg" xmlns:xlink="http://www.w3.org/1999/xlink" x="0px" y="0px"
	 viewBox="0 0 100 100" style="enable-background:new 0 0 100 100;" xml:space="preserve">
<g>
	<path d="M23.3,97c-2,0-3.3,0-3.5-0.1l-2-0.1l0.1-2c1-18.4,9.6-33.5,25.7-44.8C27.5,38.7,18.8,23.6,17.8,5.1l-0.1-2l2-0.1
		C21.4,3,61,1.8,76.2,16.5c4,3.8,6,8.4,6,13.6v39.8c0,5.3-2,9.9-6,13.7C63.4,95.9,33.6,97,23.3,97z M22,93
		c8.3,0.1,39.3-0.6,51.4-12.3c3.2-3.1,4.8-6.6,4.8-10.8V30.1c0-4.2-1.6-7.7-4.8-10.8C61.3,7.6,30.3,7,22,7
		c1.5,17,10.3,30.9,26.3,41.3l2.6,1.7l-2.6,1.7C32.3,62.1,23.5,76,22,93z"/>
</g>
</svg>
