<svg width="30" height="22" viewBox="0 0 30 22" fill="none" xmlns="http://www.w3.org/2000/svg">
<path d="M28.8462 10.3846C28.8462 11.3149 28.7238 12.2166 28.4944 13.0745C29.4251 14.0129 30 15.3047 30 16.7308C30 19.5984 27.6753 21.9231 24.8077 21.9231H5.19231C2.32468 21.9231 0 19.5984 0 16.7308C0 14.4173 1.51299 12.4572 3.60346 11.7861C3.51042 11.3335 3.46154 10.8647 3.46154 10.3846C3.46154 6.56111 6.56111 3.46154 10.3846 3.46154C10.4951 3.46154 10.605 3.46413 10.7143 3.46925C12.616 1.34026 15.3822 0 18.4615 0C24.1968 0 28.8462 4.64935 28.8462 10.3846Z" fill="#E74C3D"/>
<path fill-rule="evenodd" clip-rule="evenodd" d="M21.9231 8.07694H10.3846L10.3846 13.8462H21.9231V8.07694ZM10.3846 6.9231C9.74737 6.9231 9.23077 7.43969 9.23077 8.07694V13.8462C9.23077 14.4834 9.74737 15 10.3846 15H21.9231C22.5603 15 23.0769 14.4834 23.0769 13.8462V8.07694C23.0769 7.43969 22.5603 6.9231 21.9231 6.9231H10.3846Z" fill="white"/>
<path d="M10.3846 12.6923H21.9231V13.8462H10.3846L10.3846 12.6923Z" fill="white"/>
<path d="M12.6923 18C12.6923 17.6177 13.0023 17.3077 13.3846 17.3077H18.9231C19.3054 17.3077 19.6154 17.6177 19.6154 18C19.6154 18.3824 19.3054 18.6923 18.9231 18.6923H13.3846C13.0023 18.6923 12.6923 18.3824 12.6923 18Z" fill="white"/>
<path d="M15.5769 15H16.7308V17.3077H15.5769V15Z" fill="white"/>
</svg>