<svg width="30" height="22" viewBox="0 0 30 22" fill="none" xmlns="http://www.w3.org/2000/svg">
<path fill-rule="evenodd" clip-rule="evenodd" d="M28.4944 13.0745C28.7238 12.2166 28.8462 11.3149 28.8462 10.3846C28.8462 4.64935 24.1968 0 18.4615 0C15.3822 0 12.616 1.34026 10.7143 3.46925C10.605 3.46413 10.4951 3.46154 10.3846 3.46154C6.56111 3.46154 3.46154 6.56111 3.46154 10.3846C3.46154 10.8647 3.51042 11.3335 3.60347 11.7861C1.51299 12.4572 0 14.4173 0 16.7308C0 19.5984 2.32468 21.9231 5.19231 21.9231H24.8077C27.6753 21.9231 30 19.5984 30 16.7308C30 15.3047 29.4251 14.0129 28.4944 13.0745ZM9.8077 8.0769C9.48907 8.0769 9.23077 8.3352 9.23077 8.65383C9.23077 8.97245 9.48907 9.23075 9.8077 9.23075H22.5C22.8186 9.23075 23.0769 8.97245 23.0769 8.65383C23.0769 8.3352 22.8186 8.0769 22.5 8.0769H9.8077ZM9.23077 12.1154C9.23077 11.7967 9.48907 11.5385 9.8077 11.5385H22.5C22.8186 11.5385 23.0769 11.7967 23.0769 12.1154C23.0769 12.434 22.8186 12.6923 22.5 12.6923H9.8077C9.48907 12.6923 9.23077 12.434 9.23077 12.1154ZM9.8077 15C9.48907 15 9.23077 15.2583 9.23077 15.5769C9.23077 15.8955 9.48907 16.1538 9.8077 16.1538H17.8846C18.2032 16.1538 18.4615 15.8955 18.4615 15.5769C18.4615 15.2583 18.2032 15 17.8846 15H9.8077Z" fill="#4A90E2"/>
</svg>