<?xml version="1.0" encoding="utf-8"?>
<!-- Generator: Adobe Illustrator 21.0.0, SVG Export Plug-In . SVG Version: 6.00 Build 0)  -->
<svg version="1.1" id="Слой_1" xmlns="http://www.w3.org/2000/svg" xmlns:xlink="http://www.w3.org/1999/xlink" x="0px" y="0px"
	 viewBox="0 0 100 100" style="enable-background:new 0 0 100 100;" xml:space="preserve">
<g>
	<path d="M89.8,9.8H10.2c-4.2,0-7.7,3.6-7.7,7.7v64.9c0,4.4,3.6,7.7,7.7,7.7h79.6c4.4,0,7.7-3.6,7.7-7.7V17.5
		C97.5,13.4,93.9,9.8,89.8,9.8z M10.2,13.8h79.6c2.2,0,3.8,1.8,3.8,3.8v12.7H6.5V17.5C6.5,15.6,8.2,13.8,10.2,13.8z M89.8,86.2H10.2
		c-2.2,0-3.8-1.8-3.8-3.8V34.2h87.1v48.3C93.5,84.4,91.8,86.2,89.8,86.2z"/>
	<path d="M14.4,26c2.2,0,3.9-1.8,3.9-3.9s-1.8-3.9-3.9-3.9s-3.9,1.8-3.9,3.9S12.3,26,14.4,26z"/>
</g>
<path d="M26.5,26c2.2,0,3.9-1.8,3.9-3.9s-1.8-3.9-3.9-3.9s-3.9,1.8-3.9,3.9S24.5,26,26.5,26z"/>
<path d="M38.3,26c2.2,0,3.9-1.8,3.9-3.9s-1.8-3.9-3.9-3.9c-2.2,0-3.9,1.8-3.9,3.9S36.3,26,38.3,26z"/>
<g>
	<path d="M67.8,61.5H32.2c-1.1,0-2-0.9-2-2s0.9-2,2-2h35.6c1.1,0,2,0.9,2,2S68.9,61.5,67.8,61.5z"/>
</g>
<g>
	<path d="M50,79.3c-1.1,0-2-0.9-2-2V41.7c0-1.1,0.9-2,2-2s2,0.9,2,2v35.6C52,78.4,51.1,79.3,50,79.3z"/>
</g>
</svg>
