<?xml version="1.0" encoding="UTF-8"?>
<svg width="16px" height="16px" viewBox="0 0 16 16" version="1.1" xmlns="http://www.w3.org/2000/svg" xmlns:xlink="http://www.w3.org/1999/xlink">
    <!-- Generator: Sketch 54.1 (76490) - https://sketchapp.com -->
    <title>Search Copy</title>
    <desc>Created with Sketch.</desc>
    <defs>
        <path d="M5.99011216,0.174222216 C2.686038,0.174222216 0,2.83041587 0,6.09777757 C0,9.3651445 2.686038,12.0213329 5.99011216,12.0213329 C7.51617903,12.0213329 8.90655153,11.4504489 9.9651682,10.5186663 L11.1323592,11.6728885 L10.6753929,12.1247774 C10.6084918,12.1902335 10.5708469,12.2794332 10.5708469,12.3724996 C10.5708469,12.465566 10.6084918,12.5547657 10.6753929,12.6202218 L13.4887636,15.4077773 C13.5549552,15.473935 13.6451571,15.5111616 13.7392692,15.5111616 C13.8333813,15.5111616 13.9235832,15.473935 13.9897748,15.4077773 L15.4047186,14.0085551 C15.4716197,13.943099 15.5092646,13.8538993 15.5092646,13.7608329 C15.5092646,13.6677665 15.4716197,13.5785668 15.4047186,13.5131107 L12.5858423,10.7309996 C12.4580398,10.5992515 12.2490777,10.5873756 12.1068535,10.7037774 C12.099058,10.7124825 12.091708,10.7215679 12.084831,10.7309996 L11.6278648,11.1828885 L10.4661794,10.0286663 C11.4069875,8.98214152 11.9802243,7.6055935 11.9802243,6.09777757 C11.9802243,2.83041587 9.29418632,0.174222216 5.99011216,0.174222216 Z M5.99011216,0.871111081 C8.91332776,0.871111081 11.2755052,3.20704249 11.2755052,6.09777757 C11.2755052,8.98851091 8.91332776,11.3244441 5.99011216,11.3244441 C3.06689655,11.3244441 0.704719077,8.98851091 0.704719077,6.09777757 C0.704719077,3.20704249 3.06689655,0.871111081 5.99011216,0.871111081 Z" id="path-1"></path>
    </defs>
    <g id="Symbols" stroke="none" stroke-width="1" fill="none" fill-rule="evenodd">
        <g id="header/searchbar" transform="translate(-12.000000, -12.000000)">
            <g id="Group-2">
                <g id="Icons/search_active" transform="translate(12.000000, 12.000000)">
                    <g id="Zoom">
                        <g id="Group" transform="translate(11.324444, 11.435566)"></g>
                        <g id="Path-+-Color_bg/icon_bg_active-Mask">
                            <mask id="mask-2" fill="white">
                                <use xlink:href="#path-1"></use>
                            </mask>
                            <use id="Mask" fill="#89929E" fill-rule="nonzero" xlink:href="#path-1"></use>
                            <polygon id="Path" fill="#89929E" mask="url(#mask-2)" points="12.3325838 11.4659996 14.6559546 13.7635551 13.742022 14.6673328 11.4186513 12.3697774"></polygon>
                            <g id="Color_bg/icon_normal" mask="url(#mask-2)" fill="#89929E">
                                <rect id="Rectangle-31" x="0" y="0" width="16.0284439" height="16.0284439"></rect>
                            </g>
                        </g>
                    </g>
                </g>
            </g>
        </g>
    </g>
</svg>