<?xml version="1.0" encoding="utf-8"?>
<!-- Generator: Adobe Illustrator 21.0.0, SVG Export Plug-In . SVG Version: 6.00 Build 0)  -->
<svg version="1.1" id="Слой_1" xmlns="http://www.w3.org/2000/svg" xmlns:xlink="http://www.w3.org/1999/xlink" x="0px" y="0px"
	 viewBox="0 0 15 15" style="enable-background:new 0 0 15 15;" xml:space="preserve">
<style type="text/css">
	.editbox_textshadow0{opacity:0.3414;fill:#B2C4D6;enable-background:new    ;}
	.editbox_textshadow1{fill:#89929E;}
</style>
<title>Group 5</title>
<desc>Created with Sketch.</desc>
<g id="Symbols">
	<g id="Panel_x2F_editbox_x5F_text" transform="translate(-217.000000, -231.000000)">
		<g id="Editor_x2F_text_x5F_panel" transform="translate(60.000000, 20.000000)">
			<g id="Styles" transform="translate(2.000000, 204.000000)">
				<g id="Group-5" transform="translate(155.000000, 7.000000)">
					<path id="A" class="editbox_textshadow0" d="M6,10.8l-1.3,3.6C4.5,14.8,4.3,15,4,15c-0.1,0-0.2,0-0.3-0.1C3.3,14.8,3,14.5,3,14.2
						c0-0.1,0-0.2,0.1-0.3L7.8,1.8C8,1.2,8.4,1,9,1c0.6,0,1,0.2,1.2,0.8l4.7,12.1C15,14,15,14.1,15,14.2c0,0.4-0.3,0.6-0.6,0.7
						c-0.1,0-0.2,0.1-0.3,0.1c-0.3,0-0.6-0.2-0.7-0.5L12,10.8H6z M6.5,9.4h5L9.5,4.2C9.3,3.7,9.1,3.1,9,2.5C8.8,3.1,8.7,3.7,8.5,4.2
						L6.5,9.4z"/>
					<path id="A_1_" class="editbox_textshadow1" d="M3,10.5l-1.4,3C1.5,13.8,1.3,14,1,14c-0.1,0-0.2,0-0.3-0.1C0.3,13.8,0,13.5,0,13.2
						c0-0.1,0-0.2,0.1-0.3L4.8,0.8C5,0.2,5.4,0,6,0c0.6,0,1,0.2,1.2,0.8l4.7,12.1C12,13,12,13.1,12,13.2c0,0.4-0.3,0.6-0.6,0.7
						c-0.1,0-0.2,0.1-0.3,0.1c-0.3,0-0.6-0.2-0.7-0.5l-1.4-3H3z M3.5,9h5C7,4.7,6.1,2.4,6,2C5.9,2.4,5.1,4.7,3.5,9z"/>
				</g>
			</g>
		</g>
	</g>
</g>
</svg>
