<svg width="106" height="99" viewBox="0 0 106 99" fill="none" xmlns="http://www.w3.org/2000/svg">
<path fill-rule="evenodd" clip-rule="evenodd" d="M40.0953 98.31C36.8129 99.276 33.287 99.123 30.0874 97.8755C26.8878 96.628 24.2014 94.3591 22.4624 91.4353C17.9988 83.8734 13.4205 76.0468 9.75981 67.599C7.06596 61.3824 4.96832 55.0443 3.068 48.7964C2.97518 48.4904 2.96706 48.1662 3.0445 47.8573C3.12194 47.5484 3.28211 47.2661 3.50842 47.0396C3.73473 46.8132 4.01895 46.6508 4.33162 46.5693C4.6443 46.4878 4.97405 46.4902 5.28673 46.5762L43.5762 57.0234C47.7306 58.156 52.1414 57.8829 56.098 56.2482C60.0546 54.6136 63.3267 51.7125 65.3869 48.0124L84.3758 13.9009C84.5311 13.6236 84.759 13.3925 85.036 13.2315C85.3131 13.0704 85.6293 12.9852 85.9522 12.9846C86.2751 12.984 86.5929 13.0679 86.8731 13.2279C87.1532 13.3879 87.3855 13.618 87.546 13.8947C90.8154 19.5769 94.0136 25.4603 96.7075 31.677C100.368 40.1247 102.936 48.7898 105.383 57.1768C106.322 60.4314 106.119 63.8939 104.808 67.0049C103.497 70.1159 101.154 72.6935 98.1588 74.3212L97.2997 74.7855C88.6175 79.4731 79.6304 84.3335 69.9934 88.315C60.3565 92.2965 50.5259 95.2105 41.0347 98.0311L40.0953 98.31ZM78.508 2.42306C78.883 2.65069 79.1534 3.01314 79.2613 3.43264C79.3691 3.85215 79.3057 4.2953 79.0848 4.66702L57.3754 43.6571C56.2981 45.5963 54.5848 47.1169 52.5122 47.9732C50.4397 48.8295 48.1289 48.9714 45.9533 48.3761L2.17678 36.4413C1.74971 36.3373 1.37985 36.0731 1.14657 35.7054C0.913284 35.3377 0.835154 34.8959 0.928941 34.4746C1.42066 32.4675 2.32978 30.5852 3.59921 28.9458C4.86865 27.3065 6.47098 25.9454 8.30558 24.9481L9.16756 24.4906C17.8469 19.7963 26.8368 14.9425 36.4738 10.961C46.1108 6.97954 55.9385 4.05891 65.4325 1.2449L66.372 0.966054C68.3816 0.374133 70.497 0.198011 72.5854 0.44874C74.6739 0.699469 76.6903 1.37164 78.508 2.42306Z" fill="#B251FB"/>
</svg>
