<svg width="80" height="80" viewBox="0 0 80 80" fill="none" xmlns="http://www.w3.org/2000/svg">
<path fill-rule="evenodd" clip-rule="evenodd" d="M29.2445 26.1769L18.922 5.62846C17.781 3.35778 15.7613 1.6268 13.3074 0.81631C10.8534 0.00581991 8.16622 0.182214 5.83688 1.30669C3.50754 2.43116 1.72688 4.41161 0.886627 6.81235C0.0463758 9.21308 0.215363 11.8375 1.35641 14.1081L22.0091 55.2036L15.1626 56.1552C12.6032 56.5109 10.2568 57.7553 8.55355 59.6603C6.8503 61.5653 5.90436 64.0033 5.88913 66.5272C5.87391 69.0512 6.79043 71.492 8.47066 73.4022C10.1509 75.3125 12.4823 76.5641 15.0373 76.9277L35.3099 79.8105C38.4529 80.2552 41.6641 79.7539 44.5164 78.3732L72.5848 64.8222C76.4905 62.9357 79.5458 59.5179 79.5034 55.2582C79.4513 48.6874 77.5304 40.8781 75.2948 36.425C69.2715 24.4427 56.0441 14.253 29.2445 26.1769Z" fill="#B251FB"/>
</svg>
