<?xml version="1.0" encoding="UTF-8"?>
<svg width="476px" height="355px" viewBox="0 0 476 355" version="1.1" xmlns="http://www.w3.org/2000/svg" xmlns:xlink="http://www.w3.org/1999/xlink">
    <!-- Generator: Sketch 51.3 (57544) - http://www.bohemiancoding.com/sketch -->
    <style type="text/css">
        .good1{fill:#787B7F;}
        .good2{fill:#879BFF;}
        .good3{fill:#AB47BC;}
        .good4{fill:#DDE2E8;}
        .good5{fill:#ECEDEE;}
    </style>
    <title>Group 3</title>
    <desc>Created with Sketch.</desc>
    <defs></defs>
    <g id="Tunnel-ver-7-Copy-2" stroke="none" stroke-width="1" >
        <g id="Logout" transform="translate(-445.000000, -227.000000)">
            <g id="Group-3" transform="translate(445.000000, 227.000000)">
                <g id="plug-2" transform="translate(151.000000, 63.000000)">
                    <path d="M11.8066004,180.940796 C11.3366345,180.455597 10.6319105,179.728031 10.1619446,179 L8.98725471,180.212766 C-2.99575157,192.584181 -2.99575157,213.203053 8.98725471,225.816836 C10.3971524,227.272434 12.2765663,228 13.9212221,228 C15.8010858,228 17.4457416,227.272434 18.8551896,225.816836 C21.6745353,222.906106 21.6745353,218.296947 19.0899476,215.628584 C12.5108747,208.593894 12.5108747,197.192876 19.0899476,190.400553 L20.2646375,189.187788 C19.5599136,188.702589 19.0899476,188.21739 18.3847739,187.489823 L11.8066004,180.940796 Z" id="Shape" fill="#787B7F" class="good1" opacity="0.298716518"></path>
                    <path d="M103.74917,119.887264 L83.5680595,139.834843 L62.1858128,118.44512 L82.1264202,98.2569534 C85.009239,95.3731267 85.009239,90.8065695 82.1264202,88.16287 C79.2436015,85.2790433 74.6786404,85.2790433 72.0358649,88.16287 L52.0952575,108.11045 L47.5302964,103.303765 L41.0436094,97.0549373 C38.1607907,94.4112378 33.5958295,94.4112378 30.9530541,97.2950645 C28.3102787,100.178891 28.3102787,104.745448 31.1930974,107.389148 L32.3942335,108.590704 L37.4392812,113.637516 L47.0492901,123.491012 L78.5220921,154.974818 L88.132101,164.34806 L93.1771487,169.635459 L94.3782848,170.837015 C95.8199241,172.279158 97.74165,173 99.6638357,173 C101.345518,173 103.267704,172.279158 104.708883,171.077142 C107.591702,168.433443 107.591702,163.867345 104.948927,160.983059 L98.4622397,154.253517 L93.8972785,149.686959 L113.837886,129.73938 C116.720705,126.855553 116.720705,122.288996 113.837886,119.645296 C111.19695,117.003437 106.631989,117.003437 103.74917,119.887264 Z" id="Shape" class="good1" opacity="0.298716518"></path>
                    <path d="M162.193652,47.0604698 C162.663608,47.5453523 163.368317,48.2724442 163.838273,49 L165.012938,47.7880256 C176.995687,35.4246806 176.995687,14.8192601 165.012938,2.21370581 C162.193652,-0.6960535 157.729297,-0.6960535 155.144765,1.97056853 C152.325479,4.87939984 152.325479,9.48555208 154.910011,12.1521741 C161.488944,19.1822751 161.488944,30.5758551 154.910011,37.3637468 L153.735347,38.5757211 C154.440056,39.0606037 154.910011,39.5454863 155.61517,40.2725781 L162.193652,47.0604698 Z" id="Shape" class="good1" opacity="0.298716518"></path>
                    <path d="M87.7286938,163.822471 L78.1454178,154.478524 L46.7601659,122.853739 L37.1768899,113.031039 L31.9060422,108 L12.2602805,127.645401 C5.07305281,134.832665 1,144.655824 1,154.718359 C1,164.062307 4.35400903,172.926583 10.583276,180.114305 C11.0624857,180.832894 11.5416953,181.312106 12.2602805,182.031153 L18.9687572,188.739663 C19.4479668,189.218875 20.166552,189.937464 20.8855958,190.416676 C27.833448,196.645974 36.6981388,200 46.2814148,200 C56.583276,200 66.166552,195.926927 73.3542383,188.739663 L93,169.093804 L87.7286938,163.822471 Z" id="Shape" fill="#879BFF" class="good2"></path>
                    <path d="M163.739719,44.9688467 L157.031243,38.2603367 C156.552033,37.7811246 155.833448,37.0625358 155.114404,36.5833238 C148.166552,30.3540258 139.301861,27 129.718585,27 C119.416724,27 109.833448,31.0730731 102.645762,38.2603367 L83,57.9061963 L88.0310135,63.1770702 L138.82311,113.968961 L144.093958,119 L163.739719,99.3541404 C170.926947,92.1668768 175,82.3437178 175,72.2811819 C175,62.9372349 171.645991,54.0729585 165.416724,46.8852363 C164.937514,46.1671061 164.458305,45.4480588 163.739719,44.9688467 Z" id="Shape" fill="#AB47BC" class="good3"></path>
                    <path d="M88.5535215,62.7209305 L83.2613941,57.4103237 L82.2991054,56.2034937 C79.6530417,53.3070091 75.0828611,53.3070091 72.195995,55.9623125 C69.3091289,58.6176159 69.3095893,63.203755 71.955653,66.1007016 L78.2100691,72.6181385 L129.206305,123.792447 L135.701063,130.068702 C137.144496,131.517176 138.828271,132 140.752388,132 C142.676966,132 144.601083,131.275994 146.044516,129.827521 C148.69058,126.931036 148.69058,122.344435 145.804174,119.689132 L144.601543,118.965126 L139.309416,113.896163 L88.5535215,62.7209305 Z" id="Shape" fill="#787B7F" class="good1" opacity="0.298716518"></path>
                </g>
                <circle id="Oval-2" fill="#DDE2E8" class="good4" cx="264" cy="317" r="12"></circle>
                <circle id="Oval" fill="#ECEDEE" class="good5" cx="417.5" cy="113.5" r="5.5"></circle>
                <circle id="Oval" fill="#ECEDEE" class="good5" cx="398.5" cy="291.5" r="5.5"></circle>
                <circle id="Oval" fill="#ECEDEE" class="good5" cx="124.5" cy="269.5" r="5.5"></circle>
                <circle id="Oval" fill="#ECEDEE" class="good5" cx="78.5" cy="141.5" r="6.5"></circle>
                <circle id="Oval" fill="#ECEDEE" class="good5" cx="339" cy="254" r="4"></circle>
                <circle id="Oval" fill="#ECEDEE" class="good5" cx="275.5" cy="33.5" r="6.5"></circle>
                <circle id="Oval" fill="#ECEDEE" class="good5" cx="164.5" cy="26.5" r="3.5"></circle>
                <circle id="Oval" fill="#ECEDEE" class="good5" cx="110.5" cy="76.5" r="3.5"></circle>
                <circle id="Oval" fill="#DDE2E8" class="good4" cx="150" cy="127" r="8"></circle>
                <circle id="Oval" fill="#ECEDEE" class="good5" cx="28.5" cy="78.5" r="5.5"></circle>
                <circle id="Oval" fill="#DDE2E8" class="good4" cx="42" cy="227" r="8"></circle>
                <circle id="Oval" fill="#DDE2E8" class="good4" cx="351" cy="162" r="8"></circle>
                <circle id="Oval" fill="#ECEDEE" class="good5" cx="392.5" cy="45.5" r="5.5"></circle>
                <circle id="Oval" fill="#DDE2E8" class="good4" cx="442" cy="196" r="8"></circle>
            </g>
        </g>
    </g>
</svg>