<svg width="121" height="104" viewBox="0 0 121 104" fill="none" xmlns="http://www.w3.org/2000/svg">
<path d="M20.0622 4.95054C40.3881 -2.20262 47.2184 15.6137 52.0646 14.2043C101.338 -0.130631 102.843 13.7799 109.046 31.0067C109.362 32.1312 109.602 33.309 109.778 34.5283C115.301 38.8606 118.819 45.3961 118.819 52.7082C118.819 62.2929 112.776 70.544 104.092 74.2466C100.703 86.6803 90.6686 95.6944 78.8164 95.6944C73.0092 95.6944 67.6387 93.5302 63.272 89.8602C59.0701 93.5301 53.9023 95.6944 48.3143 95.6944C38.7903 95.6944 30.4861 89.4082 26.1067 80.0941C25.8431 80.1018 25.5782 80.1061 25.3126 80.1061C11.5045 80.106 2.23782 69.5316 2.23779 56.4874C2.23783 48.8419 4.15732 42.0459 10.1207 37.7292C7.74504 23.088 8.73384 8.93735 20.0622 4.95054ZM64.2088 27.6171C59.9542 27.6171 56.5052 30.9912 56.5052 35.1534V48.2162C56.5052 52.3783 59.9543 55.7524 64.2088 55.7524C68.4634 55.7524 71.9125 52.3783 71.9125 48.2162V35.1534C71.9125 30.9912 68.4634 27.6171 64.2088 27.6171ZM85.779 27.6171C81.5244 27.6171 78.0754 30.9912 78.0754 35.1534V48.2162C78.0754 52.3783 81.5244 55.7524 85.779 55.7524C90.0336 55.7524 93.4826 52.3783 93.4826 48.2162V35.1534C93.4826 30.9912 90.0336 27.6171 85.779 27.6171Z" fill="#B251FB"/>
</svg>
