<svg width="160" height="40" viewBox="0 0 160 40" fill="none" xmlns="http://www.w3.org/2000/svg">
<path fill-rule="evenodd" clip-rule="evenodd" d="M133.172 17.515C138.002 17.515 141.357 20.9747 141.452 26.3981V27.0824C141.451 27.2897 141.282 27.4579 141.074 27.4579H129.511C129.424 27.4579 129.358 27.535 129.374 27.6199C129.769 29.7752 131.345 31.2293 133.549 31.2293C134.981 31.2293 136.087 30.6332 136.611 29.5925C136.681 29.4547 136.818 29.3592 136.973 29.3592H140.904C141.15 29.3592 141.33 29.5902 141.258 29.8239C140.197 33.2295 137.359 35 133.486 35C128.249 35 124.768 31.6033 124.768 26.4293C124.768 21.1618 128.123 17.515 133.172 17.515ZM133.172 21.5046C131.507 21.5046 130.193 22.5503 129.596 24.2211C129.564 24.3107 129.632 24.4033 129.728 24.4033H136.346C136.438 24.4033 136.506 24.3168 136.48 24.2285C135.98 22.4974 134.811 21.5046 133.172 21.5046Z" fill="#110945"/>
<path fill-rule="evenodd" clip-rule="evenodd" d="M151.721 17.515C156.55 17.515 159.906 20.9747 160 26.3981V27.0824C160 27.2897 159.831 27.4579 159.622 27.4579H148.06C147.973 27.4579 147.906 27.535 147.922 27.6199C148.318 29.7752 149.894 31.2293 152.097 31.2293C153.53 31.2293 154.635 30.6332 155.16 29.5925C155.229 29.4547 155.366 29.3592 155.522 29.3592H159.452C159.698 29.3592 159.879 29.5902 159.806 29.8239C158.746 33.2295 155.907 35 152.034 35C146.797 35 143.317 31.6033 143.317 26.4293C143.317 21.1618 146.672 17.515 151.721 17.515ZM151.721 21.5046C150.056 21.5046 148.741 22.5503 148.144 24.2211C148.112 24.3107 148.18 24.4033 148.276 24.4033H154.894C154.986 24.4033 155.054 24.3168 155.029 24.2285C154.529 22.4974 153.36 21.5046 151.721 21.5046Z" fill="#110945"/>
<path fill-rule="evenodd" clip-rule="evenodd" d="M64.6842 11.25C64.8928 11.25 65.062 11.4181 65.062 11.6255V34.2511C65.062 34.4585 64.8928 34.6267 64.6842 34.6267H61.5511C61.3424 34.6267 61.1733 34.4585 61.1733 34.2511V32.5572C61.1733 32.4026 60.9252 32.3459 60.8422 32.4767C59.8261 34.079 57.71 34.9999 55.3715 34.9999C50.8243 34.9999 47.5 31.541 47.5 26.2734C47.5 21.0994 50.7301 17.515 55.152 17.515C57.1058 17.515 59.5455 18.4307 60.8087 19.5951C60.9391 19.7152 61.1733 19.627 61.1733 19.4503V11.6255C61.1733 11.4181 61.3424 11.25 61.5511 11.25H64.6842ZM56.3124 21.4734C53.9917 21.4734 52.3923 23.4683 52.3923 26.3358C52.3923 29.2345 53.9917 31.2604 56.3124 31.2604C58.6331 31.2604 60.2324 29.2033 60.2325 26.2734C60.2325 23.4371 58.6331 21.4734 56.3124 21.4734Z" fill="#110945"/>
<path d="M84.4118 18.1071C84.6205 18.1071 84.7897 18.2752 84.7897 18.4826V28.7357C84.7897 30.1071 85.7305 31.0422 87.3612 31.0422C89.3056 31.0422 90.4652 29.7954 90.4652 28.0188V18.4826C90.4652 18.2752 90.6344 18.1071 90.8431 18.1071H94.9169C95.1256 18.1071 95.2948 18.2752 95.2948 18.4826V34.2511C95.2948 34.4585 95.1256 34.6266 94.9169 34.6266H91.7839C91.5752 34.6266 91.406 34.4584 91.406 34.2511V32.9024C91.406 32.7538 91.1832 32.6951 91.0962 32.816C90.1068 34.1911 88.1793 34.9998 86.0755 34.9998C82.2495 34.9998 79.9601 32.7565 79.9601 28.985V18.4826C79.9601 18.2752 80.1293 18.1071 80.338 18.1071H84.4118Z" fill="#110945"/>
<path d="M77.6482 17.8579C77.8568 17.8579 78.026 18.026 78.026 18.2334V22.0953C78.026 22.3027 77.8568 22.4708 77.6482 22.4709H77.3047C73.9178 22.4709 71.9106 24.154 71.9106 26.9904V34.2512C71.9106 34.4586 71.7415 34.6268 71.5328 34.6268H67.4589C67.2503 34.6268 67.0811 34.4586 67.0811 34.2512V18.4828C67.0811 18.2754 67.2503 18.1073 67.4589 18.1073H70.592C70.8007 18.1073 70.9698 18.2754 70.9698 18.4828V20.4273C70.9698 20.5792 71.1995 20.6331 71.2799 20.5038C72.4784 18.5752 74.8131 17.8579 77.3047 17.8579H77.6482Z" fill="#110945"/>
<path d="M117.285 17.515C120.734 17.515 122.93 19.9462 122.93 23.7176V34.2511C122.93 34.4585 122.761 34.6267 122.552 34.6267H118.478C118.269 34.6267 118.1 34.4585 118.1 34.2511V23.9669C118.1 22.5332 117.222 21.5981 115.842 21.5981C113.866 21.5981 112.486 22.8449 112.486 24.6527V34.2511C112.486 34.4585 112.317 34.6267 112.109 34.6267H108.035C107.826 34.6267 107.657 34.4585 107.657 34.2511V23.9669C107.657 22.5332 106.779 21.5981 105.399 21.5981C103.423 21.5981 102.043 22.8449 102.043 24.6527V34.2511C102.043 34.4585 101.874 34.6267 101.666 34.6267H97.5917C97.383 34.6267 97.2139 34.4585 97.2139 34.2511V18.4827C97.2139 18.2753 97.383 18.1072 97.5917 18.1072H100.725C100.933 18.1072 101.103 18.2753 101.103 18.4827V19.6294C101.103 19.724 101.234 19.7631 101.291 19.6878C102.299 18.3751 104.433 17.515 106.842 17.515C109.029 17.515 110.702 18.9692 111.64 20.7032C111.694 20.804 111.842 20.8073 111.901 20.7093C112.812 19.2043 114.723 17.515 117.285 17.515Z" fill="#110945"/>
<path d="M6.49792 3.14383C13.9077 0.435606 16.3977 7.18097 18.1644 6.64735C36.1271 1.22007 36.6756 6.48667 38.9372 13.0089C39.0522 13.4346 39.1399 13.8805 39.2038 14.3421C41.2175 15.9824 42.5 18.4568 42.5 21.2252C42.5 24.854 40.2968 27.9779 37.1312 29.3797C35.8957 34.0872 32.2376 37.5 27.9169 37.5C25.7998 37.5 23.842 36.6806 22.2501 35.2911C20.7183 36.6805 18.8344 37.5 16.7973 37.5C13.3253 37.5 10.298 35.12 8.70147 31.5936C8.60535 31.5965 8.50879 31.5982 8.41195 31.5982C3.3782 31.5981 1.14551e-05 27.5946 0 22.656C1.43176e-05 19.7614 0.699768 17.1883 2.87373 15.554C2.00768 10.0108 2.36815 4.65326 6.49792 3.14383ZM22.5917 11.7255C21.0406 11.7255 19.7833 13.003 19.7833 14.5788V19.5245C19.7833 21.1003 21.0406 22.3777 22.5917 22.3777C24.1427 22.3777 25.4 21.1003 25.4 19.5245V14.5788C25.4 13.003 24.1427 11.7255 22.5917 11.7255ZM30.4551 11.7255C28.9041 11.7255 27.6467 13.003 27.6467 14.5788V19.5245C27.6467 21.1003 28.9041 22.3777 30.4551 22.3777C32.0061 22.3777 33.2635 21.1003 33.2635 19.5245V14.5788C33.2635 13.003 32.0061 11.7255 30.4551 11.7255Z" fill="#B251FB"/>
</svg>
