<svg width="137" height="97" viewBox="0 0 137 97" fill="none" xmlns="http://www.w3.org/2000/svg">
<path d="M132.29 37.6913L84.8369 2.33217C82.7878 0.785494 80.2795 -0.0348749 77.7082 0.000653738C75.1368 0.0361824 72.6491 0.925583 70.6379 2.52836L37.3251 28.739C36.7509 27.5926 36.0617 26.5074 35.2683 25.4999C32.9035 22.4966 29.6978 20.2624 26.0569 19.08C22.4159 17.8976 18.5034 17.8201 14.8142 18.8574C11.125 19.8946 7.825 21.9999 5.33166 24.9069C2.83833 27.814 1.26373 31.3921 0.807072 35.1887C0.350414 38.9852 1.03222 42.8295 2.76624 46.2353C4.50026 49.641 7.20856 52.4551 10.5485 54.3215C13.8884 56.1879 17.7099 57.0227 21.5294 56.7204C25.3489 56.4181 28.9948 54.9921 32.0059 52.623L65.5973 26.1931C66.1052 25.7788 66.7387 25.5484 67.3941 25.5397C68.0495 25.531 68.6881 25.7444 69.2054 26.1451L105.365 53.0834C105.733 53.3516 106.033 53.7017 106.242 54.1061C106.451 54.5104 106.563 54.958 106.568 55.4133C106.574 55.8685 106.473 56.319 106.274 56.729C106.075 57.139 105.783 57.4973 105.421 57.7754L91.2598 68.9174C90.6889 67.7691 89.9996 66.6835 89.2029 65.6783C86.8382 62.6751 83.6327 60.441 79.992 59.2586C76.3512 58.0761 72.4388 57.9985 68.7498 59.0355C65.0607 60.0725 61.7607 62.1775 59.2672 65.0842C56.7738 67.991 55.1989 71.5688 54.7419 75.3651C54.2849 79.1615 54.9662 83.0057 56.6997 86.4115C58.4333 89.8173 61.141 92.6316 64.4805 94.4984C67.82 96.3653 71.6412 97.2007 75.4606 96.8991C79.28 96.5974 82.926 95.1723 85.9374 92.8039L132.516 56.1553C133.928 55.0526 135.066 53.6399 135.841 52.0273C136.617 50.4148 137.009 48.646 136.987 46.8588C136.965 45.0717 136.53 43.3145 135.715 41.7243C134.9 40.1341 133.728 38.7539 132.29 37.6913Z" fill="#B251FB"/>
</svg>
