<?xml version="1.0" encoding="utf-8"?>
<!-- Generator: Adobe Illustrator 21.0.0, SVG Export Plug-In . SVG Version: 6.00 Build 0)  -->
<svg version="1.1" id="Capa_1" xmlns="http://www.w3.org/2000/svg" xmlns:xlink="http://www.w3.org/1999/xlink" x="0px" y="0px"
	 viewBox="0 0 100 100" style="enable-background:new 0 0 100 100;" xml:space="preserve">
<g>
	<g>
		<path d="M92.4,49c-1.4,0-2.6,1.1-2.6,2.6V75c0,6.4-5.2,11.6-11.6,11.6H21.7c-6.4,0-11.6-5.2-11.6-11.6V51.2c0-1.4-1.1-2.6-2.6-2.6
			S5,49.7,5,51.2V75c0,9.2,7.5,16.7,16.7,16.7h56.6C87.5,91.7,95,84.2,95,75V51.5C95,50.1,93.9,49,92.4,49z"/>
		<path d="M48.2,71.2c0.5,0.5,1.2,0.8,1.8,0.8s1.3-0.2,1.8-0.8l16.4-16.4c1-1,1-2.6,0-3.6c-1-1-2.6-1-3.6,0l-12,12V10.9
			c0-1.4-1.1-2.6-2.6-2.6c-1.4,0-2.6,1.1-2.6,2.6v52.3l-12-12c-1-1-2.6-1-3.6,0c-1,1-1,2.6,0,3.6L48.2,71.2z"/>
	</g>
</g>
</svg>
