<svg width="20" height="20" viewBox="0 0 20 20" fill="none" xmlns="http://www.w3.org/2000/svg">
<g clip-path="url(#clip0)">
<path d="M2.58268 12.4683L1.07979 10.9654C0.939707 10.8264 0.830187 10.6598 0.758246 10.476C0.686305 10.2923 0.65353 10.0956 0.662018 9.89845C0.670507 9.70133 0.720073 9.50814 0.807542 9.33128C0.89501 9.15442 1.01845 8.99777 1.16997 8.87137C2.87901 7.49733 4.88654 6.54333 7.03123 6.08602C9.01079 5.64476 11.0632 5.64476 13.0428 6.08602C15.1963 6.54629 17.2112 7.50738 18.9241 8.89141C19.0751 9.01743 19.1983 9.17351 19.2857 9.34973C19.3731 9.52595 19.4229 9.71844 19.4319 9.91495C19.4408 10.1115 19.4088 10.3077 19.3377 10.4911C19.2667 10.6746 19.1582 10.8412 19.0193 10.9804L17.5164 12.4833C17.2756 12.7288 16.9539 12.8784 16.611 12.9042C16.2681 12.93 15.9276 12.8303 15.6528 12.6236C15.1084 12.2061 14.5185 11.8515 13.8944 11.5666C13.6477 11.4546 13.4383 11.2744 13.2909 11.0471C13.1435 10.8198 13.0643 10.555 13.0628 10.2841L13.0628 9.01164C11.0955 8.47061 9.0186 8.47061 7.05127 9.01164L7.05127 10.2841C7.04975 10.555 6.97061 10.8198 6.82322 11.0471C6.67583 11.2744 6.46638 11.4546 6.21967 11.5666C5.59556 11.8515 5.00568 12.2061 4.46129 12.6236C4.18361 12.8326 3.83879 12.9323 3.49241 12.9036C3.14604 12.875 2.82227 12.7201 2.58268 12.4683Z" stroke="#EA4D44" stroke-linecap="round" stroke-linejoin="round"/>
</g>
<defs>
<clipPath id="clip0">
<rect width="20" height="20" fill="white"/>
</clipPath>
</defs>
</svg>
