<svg width="64" height="64" viewBox="0 0 64 64" fill="none" xmlns="http://www.w3.org/2000/svg">
<path d="M31.9996 5.99973C32.8772 5.99973 33.7075 6.39823 34.2557 7.0834C36.7527 10.2046 39.1953 10.7403 41.0479 10.5835C43.1406 10.4061 44.8321 9.30296 45.364 8.77117C46.4921 7.64312 48.3214 7.6434 49.4496 8.77117C50.485 9.80661 52.6711 11.9946 54.5646 15.7819C56.4578 19.568 57.9998 24.8271 57.9998 31.9999C57.9998 40.8383 53.5183 46.9161 48.1779 50.9217C42.9186 54.866 36.7144 56.9105 32.7004 57.9139C32.2404 58.0291 31.7589 58.0291 31.2988 57.9139C27.2849 56.9104 21.0806 54.866 15.8214 50.9217C10.4811 46.9161 5.99951 40.8383 5.99951 31.9999C5.99951 24.8271 7.54164 19.568 9.43467 15.7819C11.3283 11.9946 13.5142 9.80661 14.5496 8.77117C15.6778 7.64341 17.5072 7.64324 18.6353 8.77117C19.1671 9.30296 20.8587 10.4061 22.9514 10.5835C24.804 10.7404 27.2465 10.2047 29.7435 7.0834C30.2918 6.3982 31.1221 5.99975 31.9996 5.99973Z" fill="#B251FB"/>
</svg>
