<?xml version="1.0" encoding="UTF-8"?>
<svg width="31px" height="31px" viewBox="0 0 31 31" version="1.1" xmlns="http://www.w3.org/2000/svg" xmlns:xlink="http://www.w3.org/1999/xlink">
    <!-- Generator: Sketch 48.2 (47327) - http://www.bohemiancoding.com/sketch -->
    <title>cross 4</title>
    <desc>Created with Sketch.</desc>
    <defs>
        <circle id="path-1" cx="13.5" cy="13.5" r="1.5"></circle>
        <path d="M24.2484757,1.23479293 C24.0900541,1.0820259 23.8750824,0.996187974 23.6509156,0.996187974 C23.4267489,0.996187974 23.2117772,1.0820259 23.0533555,1.23479293 L19.7439002,4.42393031 C19.5853022,4.57652749 19.496188,4.78359565 19.496188,4.9995208 C19.496188,5.21544594 19.5853022,5.4225141 19.7439002,5.57511128 L23.0547632,8.76289273 C23.3855548,9.07601878 23.9165918,9.07363998 24.2443456,8.75756395 C24.5720993,8.44148792 24.5739431,7.92997236 24.2484757,7.61171177 L21.5358767,4.99884283 L24.2484757,2.3859739 C24.4070737,2.23337672 24.496188,2.02630856 24.496188,1.81038342 C24.496188,1.59445828 24.4070737,1.38739011 24.2484757,1.23479293 Z" id="path-2"></path>
        <path d="M24.2484757,18.2347929 C24.0900541,18.0820259 23.8750824,17.996188 23.6509156,17.996188 C23.4267489,17.996188 23.2117772,18.0820259 23.0533555,18.2347929 L19.7439002,21.4239303 C19.5853022,21.5765275 19.496188,21.7835957 19.496188,21.9995208 C19.496188,22.2154459 19.5853022,22.4225141 19.7439002,22.5751113 L23.0547632,25.7628927 C23.3855548,26.0760188 23.9165918,26.07364 24.2443456,25.757564 C24.5720993,25.4414879 24.5739431,24.9299724 24.2484757,24.6117118 L21.5358767,21.9988428 L24.2484757,19.3859739 C24.4070737,19.2333767 24.496188,19.0263086 24.496188,18.8103834 C24.496188,18.5944583 24.4070737,18.3873901 24.2484757,18.2347929 Z" id="path-3"></path>
        <path d="M7.22927228,1.25260398 C7.07085064,1.09983695 6.85587893,1.01399902 6.63171218,1.01399902 C6.40754543,1.01399902 6.19257371,1.09983695 6.03415208,1.25260398 L2.72469674,4.44174136 C2.56609876,4.59433854 2.47698451,4.8014067 2.47698451,5.01733185 C2.47698451,5.23325699 2.56609876,5.44032515 2.72469674,5.59292233 L6.03555976,8.78070378 C6.36635134,9.09382983 6.89738831,9.09145103 7.22514209,8.775375 C7.55289587,8.45929897 7.55473961,7.94778341 7.22927228,7.62952281 L4.5166732,5.01665388 L7.22927228,2.40378495 C7.38787025,2.25118777 7.47698451,2.04411961 7.47698451,1.82819447 C7.47698451,1.61226933 7.38787025,1.40520116 7.22927228,1.25260398 Z" id="path-4"></path>
        <path d="M7.22927228,18.252604 C7.07085064,18.0998369 6.85587893,18.013999 6.63171218,18.013999 C6.40754543,18.013999 6.19257371,18.0998369 6.03415208,18.252604 L2.72469674,21.4417414 C2.56609876,21.5943385 2.47698451,21.8014067 2.47698451,22.0173318 C2.47698451,22.233257 2.56609876,22.4403252 2.72469674,22.5929223 L6.03555976,25.7807038 C6.36635134,26.0938298 6.89738831,26.091451 7.22514209,25.775375 C7.55289587,25.459299 7.55473961,24.9477834 7.22927228,24.6295228 L4.5166732,22.0166539 L7.22927228,19.4037849 C7.38787025,19.2511878 7.47698451,19.0441196 7.47698451,18.8281945 C7.47698451,18.6122693 7.38787025,18.4052012 7.22927228,18.252604 Z" id="path-5"></path>
    </defs>
    <g id="Cursors" stroke="none" stroke-width="1" fill="none" fill-rule="evenodd" transform="translate(-8.000000, -8.000000)">
        <g transform="translate(4.000000, 4.000000)" id="cross-4">
            <g>
                <g transform="translate(19.091883, 19.091883) rotate(45.000000) translate(-19.091883, -19.091883) translate(5.591883, 5.591883)">
                    <g id="Oval">
                        <use fill="#FF3466" fill-rule="evenodd" xlink:href="#path-1"></use>
                        <circle stroke="#FFFFFF" stroke-width="0.5" cx="13.5" cy="13.5" r="1.75"></circle>
                    </g>
                    <g id="Shape" fill-rule="nonzero" transform="translate(21.996188, 4.996188) rotate(-225.000000) translate(-21.996188, -4.996188) ">
                        <use fill="#FF3466" fill-rule="evenodd" xlink:href="#path-2"></use>
                        <path stroke="#FFFFFF" stroke-width="0.5" d="M24.4219116,1.05473729 C24.6291694,1.25420451 24.746188,1.52615768 24.746188,1.81038342 C24.746188,2.09465493 24.6291317,2.36664992 24.4219115,2.56602953 L21.8962402,4.99884317 L24.4232624,7.4329672 C24.8495122,7.84977861 24.8470833,8.52361351 24.4178873,8.93751741 C23.993922,9.34637707 23.3107355,9.34943743 22.8813657,8.94298521 L19.5705645,5.75526328 C19.3632443,5.55578729 19.246188,5.2837923 19.246188,4.9995208 C19.246188,4.71524929 19.3632443,4.4432543 19.5704262,4.24391154 L22.8798197,1.05483374 C23.0850792,0.856900637 23.362347,0.746187974 23.6509156,0.746187974 C23.9394374,0.746187974 24.216662,0.856864669 24.4219116,1.05473729 Z"></path>
                    </g>
                    <g id="Shape-Copy-4" fill-rule="nonzero" transform="translate(21.996188, 21.996188) rotate(-135.000000) translate(-21.996188, -21.996188) ">
                        <use fill="#FF3466" fill-rule="evenodd" xlink:href="#path-3"></use>
                        <path stroke="#FFFFFF" stroke-width="0.5" d="M24.4219116,18.0547373 C24.6291694,18.2542045 24.746188,18.5261577 24.746188,18.8103834 C24.746188,19.0946549 24.6291317,19.3666499 24.4219115,19.5660295 L21.8962402,21.9988432 L24.4232624,24.4329672 C24.8495122,24.8497786 24.8470833,25.5236135 24.4178873,25.9375174 C23.993922,26.3463771 23.3107355,26.3494374 22.8813657,25.9429852 L19.5705645,22.7552633 C19.3632443,22.5557873 19.246188,22.2837923 19.246188,21.9995208 C19.246188,21.7152493 19.3632443,21.4432543 19.5704262,21.2439115 L22.8798197,18.0548337 C23.0850792,17.8569006 23.362347,17.746188 23.6509156,17.746188 C23.9394374,17.746188 24.216662,17.8568647 24.4219116,18.0547373 Z"></path>
                    </g>
                    <g id="Shape-Copy-3" fill-rule="nonzero" transform="translate(4.976985, 5.013999) rotate(44.000000) translate(-4.976985, -5.013999) ">
                        <use fill="#FF3466" fill-rule="evenodd" xlink:href="#path-4"></use>
                        <path stroke="#FEFEFF" stroke-width="0.5" d="M7.40270809,1.07254834 C7.60996591,1.27201556 7.72698451,1.54396873 7.72698451,1.82819447 C7.72698451,2.11246598 7.60992822,2.38446096 7.40270806,2.58384058 L4.87703677,5.01665422 L7.40405895,7.45077825 C7.8303087,7.86758966 7.82787988,8.54142456 7.39868388,8.95532846 C6.97471849,9.36418812 6.29153203,9.36724848 5.86216224,8.96079626 L2.55136106,5.77307433 C2.3440408,5.57359834 2.22698451,5.30160335 2.22698451,5.01733185 C2.22698451,4.73306034 2.3440408,4.46106535 2.5512227,4.26172259 L5.86061623,1.07264479 C6.06587574,0.874711686 6.34314353,0.763999024 6.63171218,0.763999024 C6.92023395,0.763999024 7.19745854,0.874675719 7.40270808,1.07254834 Z"></path>
                    </g>
                    <g id="Shape" fill-rule="nonzero" transform="translate(4.976985, 22.013999) rotate(-44.000000) translate(-4.976985, -22.013999) ">
                        <use fill="#FF3466" fill-rule="evenodd" xlink:href="#path-5"></use>
                        <path stroke="#FFFFFF" stroke-width="0.5" d="M7.40270809,18.0725483 C7.60996591,18.2720156 7.72698451,18.5439687 7.72698451,18.8281945 C7.72698451,19.112466 7.60992822,19.384461 7.40270806,19.5838406 L4.87703677,22.0166542 L7.40405895,24.4507783 C7.8303087,24.8675897 7.82787988,25.5414246 7.39868388,25.9553285 C6.97471849,26.3641881 6.29153203,26.3672485 5.86216224,25.9607963 L2.55136106,22.7730743 C2.3440408,22.5735983 2.22698451,22.3016034 2.22698451,22.0173318 C2.22698451,21.7330603 2.3440408,21.4610653 2.5512227,21.2617226 L5.86061623,18.0726448 C6.06587574,17.8747117 6.34314353,17.763999 6.63171218,17.763999 C6.92023395,17.763999 7.19745854,17.8746757 7.40270808,18.0725483 Z"></path>
                    </g>
                </g>
            </g>
        </g>
    </g>
</svg>