<svg width="65" height="64" viewBox="0 0 65 64" fill="none" xmlns="http://www.w3.org/2000/svg">
<path fill-rule="evenodd" clip-rule="evenodd" d="M41.9741 8.33392C43.2337 5.22202 47.5833 5.22204 48.8431 8.33392L50.6559 12.813L55.6071 13.2527C58.9198 13.5469 60.2088 17.7667 57.6393 19.9054L54.0635 22.8817L55.2519 28.4573C55.9566 31.7622 52.334 34.2572 49.5602 32.3776L45.4086 29.5647L41.2571 32.3776C38.4831 34.2572 34.8606 31.7622 35.5652 28.4573L36.7538 22.8817L33.1779 19.9054C30.6083 17.7667 31.8973 13.5469 35.21 13.2527L40.1611 12.813L41.9741 8.33392ZM48.3829 41.7142L38.8261 44.0123L33.2361 45.4202C31.8481 45.7701 30.4005 45.8012 28.9992 45.5113L19.2706 43.4996C18.2343 43.2853 17.564 42.2624 17.7715 41.2116C17.979 40.1608 18.986 39.4777 20.0239 39.6838L24.3725 40.5473L25.3072 40.715C27.1268 41.0416 28.8627 39.8101 29.1823 37.966C29.4845 36.2222 28.4099 34.5369 26.7168 34.099L17.8688 31.811C16.0391 31.3379 14.1462 31.1662 12.2626 31.3027L8.78345 31.5547C7.77855 31.6275 7 32.4747 7 33.4955V50.4495C7 51.2737 7.5126 52.0084 8.27949 52.2836L19.8947 56.4501C26.0506 58.6581 32.792 58.5024 38.842 56.0119L51.2793 50.892C53.5035 49.9763 54.7092 47.5278 54.0935 45.1762C53.4305 42.6448 50.8979 41.1094 48.3829 41.7142Z" fill="#B251FB"/>
</svg>
