<svg width="42" height="43" viewBox="0 0 42 43" fill="none" xmlns="http://www.w3.org/2000/svg">
<path d="M3.38371 16.2055L11.9191 12.8562C12.1217 12.7641 12.3001 12.6528 12.446 12.5171C12.6134 12.3608 12.7583 12.1663 12.8762 11.926L16.8921 3.79831C17.3565 2.86443 18.052 2.11557 18.8977 1.61273C19.7433 1.10991 20.7308 0.847713 21.8084 0.888039C22.8568 0.940496 23.787 1.27225 24.5628 1.82216C25.3629 2.39118 25.9894 3.18975 26.3613 4.15526L29.6004 12.5605C29.6979 12.8095 29.8187 13.0188 29.9691 13.1771C30.124 13.3429 30.3173 13.4859 30.5537 13.6007L38.6509 17.539C39.5813 17.9944 40.3243 18.6824 40.8198 19.5229C41.3152 20.3634 41.5677 21.3509 41.5171 22.3921C41.468 23.4273 41.1272 24.3858 40.555 25.1852C39.9781 25.9899 39.1731 26.6233 38.2034 27.0038L29.6857 30.3477C29.4731 30.4406 29.2908 30.5541 29.1381 30.6914C28.9676 30.8469 28.8258 31.0422 28.7103 31.2734L24.6921 39.4096C24.2277 40.3435 23.5323 41.0923 22.6874 41.5921C21.8417 42.0949 20.8511 42.3564 19.8094 42.3153C18.7738 42.2759 17.8177 41.9441 17.026 41.3804C16.2313 40.816 15.6086 40.0151 15.2337 39.0489L11.9542 30.549C11.8638 30.3473 11.7541 30.17 11.6227 30.0263C11.4678 29.8605 11.2745 29.7175 11.0351 29.6019L2.93787 25.6637C2.00751 25.2082 1.26445 24.5202 0.769001 23.6797C0.273559 22.8393 0.0210647 21.8518 0.0717149 20.8105C0.12076 19.7753 0.461608 18.8168 1.03381 18.0174C1.61066 17.2127 2.41565 16.5793 3.38535 16.1988L3.38371 16.2055Z" fill="#B251FB"/>
</svg>
