<?xml version="1.0" encoding="utf-8"?>
<!-- Generator: Adobe Illustrator 21.0.0, SVG Export Plug-In . SVG Version: 6.00 Build 0)  -->
<svg version="1.1" id="Слой_1" xmlns="http://www.w3.org/2000/svg" xmlns:xlink="http://www.w3.org/1999/xlink" x="0px" y="0px"
	 viewBox="0 0 100 100" style="enable-background:new 0 0 100 100;" xml:space="preserve">
<g>
	<path d="M47.5,83.5H16.1V7.2h37.8v18.3c0,0.6,0.5,1.1,1.1,1.1h18.3v24.8c0,0.6,0.5,1.1,1.1,1.1c0.6,0,1.1-0.5,1.1-1.1V25.5
		c0,0,0-0.1,0-0.1c0-0.2-0.1-0.3-0.2-0.5c0-0.1-0.1-0.1-0.1-0.2L55.8,5.3c-0.1-0.1-0.2-0.1-0.3-0.2c0,0,0,0,0,0C55.3,5,55.2,5,55,5
		H14.9c-0.5,0-1,0.5-1.1,1.1v78.4c0,0.6,0.5,1.1,1.1,1.1h32.5c0.6,0,1.1-0.4,1.1-1S48.1,83.5,47.5,83.5z M56.1,8.7l7.9,7.8l7.8,7.8
		H56.1V8.7z"/>
	<path d="M21.5,17.6h6.7c0.6,0,1.1-0.5,1.1-1.1c0-0.6-0.5-1.1-1.1-1.1h-6.7c-0.6,0-1.1,0.5-1.1,1.1C20.4,17.1,20.9,17.6,21.5,17.6z"
		/>
	<path d="M38.7,17.6c0.6,0,1.1-0.5,1.1-1.1c0-0.6-0.5-1.1-1.1-1.1H32c-0.6,0-1.1,0.5-1.1,1.1c0,0.6,0.5,1.1,1.1,1.1H38.7z"/>
	<path d="M21.4,28.1h21.4c0.6,0,1-0.5,1-1.1s-0.5-1.1-1.1-1.1H21.4c-0.6,0-1.1,0.5-1.1,1.1S20.8,28.1,21.4,28.1z"/>
	<path d="M69.7,37.6c0-0.6-0.5-1.1-1.1-1.1H21.5c-0.6,0-1.1,0.5-1.1,1.1s0.5,1.1,1.1,1.1h47C69.1,38.8,69.7,38.2,69.7,37.6z"/>
	<path d="M21.5,47.4c-0.6,0-1.1,0.5-1.1,1.1s0.5,1.1,1.1,1.1h36.9c0.6,0,1.2-0.5,1.2-1.1s-0.5-1.1-1.1-1.1H21.5z"/>
	<path d="M67.6,56.7c-10.9,0-19.7,8.8-19.7,19.7c0,10.9,8.8,19.7,19.7,19.7c10.9,0,19.7-8.8,19.7-19.7
		C87.3,65.5,78.4,56.7,67.6,56.7z M67.6,93.9c-9.7,0-17.5-7.9-17.5-17.5c0-9.7,7.9-17.5,17.5-17.5c9.7,0,17.5,7.9,17.5,17.5
		C85.1,86,77.2,93.9,67.6,93.9z"/>
	<path d="M75.6,70.2l-9.4,12.2l-5.9-4.7c-0.5-0.4-1.2-0.3-1.5,0.2c-0.4,0.5-0.3,1.2,0.2,1.5l6.2,5c0.3,0.3,0.7,0.4,1.1,0.4
		c0.1,0,0.1,0,0.2,0c0.5-0.1,0.9-0.3,1.2-0.7l9.7-12.6c0.4-0.5,0.3-1.2-0.2-1.5C76.7,69.6,76,69.7,75.6,70.2z"/>
</g>
</svg>
