<?xml version="1.0" encoding="UTF-8"?>
<svg width="30px" height="30px" viewBox="0 0 30 30" version="1.1" xmlns="http://www.w3.org/2000/svg" xmlns:xlink="http://www.w3.org/1999/xlink">
    <!-- Generator: Sketch 61.2 (89653) - https://sketch.com -->
    <title>Shape@3x</title>
    <desc>Created with Sketch.</desc>
    <g id="Desktop-Entier" stroke="none" stroke-width="1" fill="none" fill-rule="evenodd">
        <g id="Desktop-Icons" transform="translate(-1230.000000, -361.000000)" fill="#FFFFFF" fill-rule="nonzero">
            <path d="M1245,361 C1236.71582,361 1230,367.71582 1230,376 C1230,384.28418 1236.71582,391 1245,391 C1253.28418,391 1260,384.28418 1260,376 C1259.99072,367.719727 1253.28027,361.009277 1245,361 Z M1241.78516,369.048828 C1241.95923,368.966064 1242.16528,368.990478 1242.31494,369.112061 L1242.31494,369.112061 L1250.31494,375.612061 C1250.43188,375.707031 1250.49951,375.849365 1250.49951,376 C1250.49951,376.150635 1250.43188,376.292969 1250.31494,376.387939 L1250.31494,376.387939 L1242.31494,382.887939 C1242.16528,383.009522 1241.95923,383.033936 1241.78516,382.951172 C1241.61108,382.868408 1241.5,382.692871 1241.5,382.5 L1241.5,382.5 L1241.5,369.5 C1241.5,369.307129 1241.61108,369.131592 1241.78516,369.048828 Z" id="Shape"></path>
        </g>
    </g>
</svg>