<?xml version="1.0" encoding="utf-8"?>
<!-- Generator: Adobe Illustrator 21.0.0, SVG Export Plug-In . SVG Version: 6.00 Build 0)  -->
<svg version="1.1" id="Слой_1" xmlns="http://www.w3.org/2000/svg" xmlns:xlink="http://www.w3.org/1999/xlink" x="0px" y="0px"
	 viewBox="0 0 353 271" style="enable-background:new 0 0 353 271;" xml:space="preserve">
<style type="text/css">
	.welcome0{fill:#DDE2E8;}
	.welcome1{fill:#F6F6F7;}
	.welcome2{fill:#ECEDEE;}
	.welcome3{fill:#879BFF;}
	.welcome4{fill:#B3B9C2;}
</style>
<title>Group 5</title>
<desc>Created with Sketch.</desc>
<g>
	<path class="welcome0" d="M319.7,42.6l3.3,2.3l-2.3,3.3c-1,1.4-0.6,3.2,0.7,4.2c1.4,1,3.2,0.6,4.2-0.7l2.3-3.3l3.3,2.3
		c1.4,1,3.2,0.6,4.2-0.7c1-1.4,0.6-3.2-0.7-4.2l-3.3-2.3l2.3-3.3c1-1.4,0.6-3.2-0.7-4.2c-1.4-1-3.2-0.6-4.2,0.7l-2.3,3.3l-3.3-2.3
		c-1.4-1-3.2-0.6-4.2,0.7S318.3,41.6,319.7,42.6z"/>
	<path class="welcome1" d="M291.6,132.4c-13.3-32.3,24.4-36.1,11.6-60.5l-0.1-0.1l-1.8,2.1c-0.7,0.9-2.1,1-3,0.3c-0.9-0.7-1-2.1-0.3-3
		l1.8-2.1l-2.1-1.8c-0.9-0.7-1-2.1-0.3-3c0.1-0.1,0.2-0.2,0.2-0.2c-14.4-15.3-38.2-10.3-58.6-30.2c-23.3-22.7-69.4-42.7-107.5-30
		c-38.1,12.7,3.1,24.7-13.5,38.5c-16.6,13.8-44.2,14.2-77.5,37.5C7.4,103.2,8.3,103.2,6.1,129c-0.1,0.7-0.1,1.4-0.1,2
		c0.2,0,0.3,0,0.5,0c3.6,0,6.5,2.9,6.5,6.5c0,2.5-1.4,4.6-3.4,5.7c6.8,7.8,21.1,5.9,24,20.7c1.1,5.4,5.6,14.5,13.3,25.1
		c2.8,0.2,5.1,2.6,5.1,5.5c0,0.3,0,0.7-0.1,1c22.9,28.2,65.8,62.5,121.7,62.5c82,0,178.5-22.5,178.5-67.5
		C352.1,145.5,305,164.9,291.6,132.4z M78,131c-4.4,0-8-3.6-8-8s3.6-8,8-8s8,3.6,8,8S82.4,131,78,131z M203.5,23
		c3.6,0,6.5,2.9,6.5,6.5s-2.9,6.5-6.5,6.5s-6.5-2.9-6.5-6.5S199.9,23,203.5,23z M235,215h-16h-80h-15c-2.8,0-5-2.2-5-5s2.3-5,5-5h15
		v-15v-1v-9.2c0-22.5,17.9-40.8,40-40.8s40,18.3,40,40.8v9.2v1v15h16c2.8,0,5,2.2,5,5S237.7,215,235,215z M235,73h-16v25.7
		c0,5.2-1,10.4-2.9,15.3h0.9c-6.2,15.1-21,25-37.5,25s-31.3-9.9-37.5-25h-0.1c-1.9-4.9-2.9-10.1-2.9-15.3V73h-15c-2.8,0-5-2.2-5-5
		s2.3-5,5-5h15h80h16c2.8,0,5,2.2,5,5S237.7,73,235,73z M267.9,89.9c-0.6-0.5-0.7-1.5-0.2-2.1l1.3-1.5l-1.5-1.3
		c-0.6-0.5-0.7-1.5-0.2-2.1c0.5-0.6,1.5-0.7,2.1-0.2l1.5,1.3l1.3-1.5c0.5-0.6,1.5-0.7,2.1-0.2c0.6,0.5,0.7,1.5,0.2,2.1l-1.3,1.5
		l1.5,1.3c0.6,0.5,0.7,1.5,0.2,2.1c-0.5,0.6-1.5,0.7-2.1,0.2l-1.5-1.3l-1.3,1.5C269.4,90.4,268.5,90.4,267.9,89.9z M279,166
		c-4.4,0-8-3.6-8-8s3.6-8,8-8s8,3.6,8,8S283.4,166,279,166z M304.5,223c-3,0-5.5-2.5-5.5-5.5c0-3,2.5-5.5,5.5-5.5
		c3,0,5.5,2.5,5.5,5.5C310,220.5,307.5,223,304.5,223z"/>
	<path class="welcome2" d="M46.9,189c-0.1,0-0.3,0-0.4,0c-3,0-5.5,2.5-5.5,5.5c0,3,2.5,5.5,5.5,5.5c2.7,0,5-2,5.4-4.5
		c0.1-0.3,0.1-0.6,0.1-1C52,191.6,49.8,189.2,46.9,189z"/>
	<circle class="welcome2" cx="304.5" cy="217.5" r="5.5"/>
	<circle class="welcome2" cx="52.5" cy="265.5" r="5.5"/>
	<path class="welcome2" d="M13,137.5c0-3.6-2.9-6.5-6.5-6.5c-0.2,0-0.3,0-0.5,0c-3.4,0.2-6,3-6,6.5c0,3.6,2.9,6.5,6.5,6.5
		c1.1,0,2.2-0.3,3.1-0.8C11.6,142.1,13,140,13,137.5z"/>
	<circle class="welcome2" cx="250.5" cy="258.5" r="6.5"/>
	<circle class="welcome2" cx="203.5" cy="29.5" r="6.5"/>
	<circle class="welcome2" cx="92.5" cy="22.5" r="3.5"/>
	<circle class="welcome2" cx="38.5" cy="72.5" r="3.5"/>
	<circle class="welcome0" cx="78" cy="123" r="8"/>
	<circle class="welcome0" cx="279" cy="158" r="8"/>
	<path class="welcome0" d="M272.8,89.5c0.6,0.5,1.6,0.4,2.1-0.2c0.5-0.6,0.4-1.6-0.2-2.1l-1.5-1.3l1.3-1.5c0.5-0.6,0.4-1.6-0.2-2.1
		c-0.6-0.5-1.6-0.4-2.1,0.2l-1.3,1.5l-1.5-1.3c-0.6-0.5-1.6-0.4-2.1,0.2c-0.5,0.6-0.4,1.6,0.2,2.1l1.5,1.3l-1.3,1.5
		c-0.5,0.6-0.4,1.6,0.2,2.1c0.6,0.5,1.6,0.4,2.1-0.2l1.3-1.5L272.8,89.5z"/>
	<path class="welcome0" d="M297.8,67.4l2.1,1.8l-1.8,2.1c-0.7,0.9-0.6,2.2,0.3,3c0.9,0.7,2.2,0.6,3-0.3l1.8-2.1l0.1,0.1l2.1,1.7
		c0.9,0.7,2.2,0.6,3-0.3c0.7-0.9,0.6-2.2-0.3-3l-2.1-1.8l1.8-2.1c0.7-0.9,0.6-2.2-0.3-3c-0.9-0.7-2.2-0.6-3,0.3l-1.8,2.1l-2.1-1.8
		c-0.8-0.7-2-0.6-2.7,0c-0.1,0.1-0.2,0.1-0.2,0.2C296.8,65.3,296.9,66.6,297.8,67.4z"/>
	<path class="welcome3" d="M179.5,139c16.5,0,31.3-9.9,37.5-25h-0.9H142C148.2,129.1,163,139,179.5,139z"/>
	<path class="welcome0" d="M139,98.7c0,5.2,1,10.4,2.9,15.3h0.1h74.1c1.9-4.9,2.9-10.1,2.9-15.3V73h-80V98.7z"/>
	<path class="welcome0" d="M219,179.8c0-22.5-17.9-40.8-40-40.8s-40,18.3-40,40.8v9.2h80V179.8z"/>
	<polygon class="welcome3" points="219,190 219,189 139,189 139,190 139,205 219,205 	"/>
	<path class="welcome4" d="M235,63h-16h-80h-15c-2.8,0-5,2.2-5,5s2.3,5,5,5h15h80h16c2.8,0,5-2.2,5-5S237.7,63,235,63z"/>
	<path class="welcome4" d="M235,205h-16h-80h-15c-2.8,0-5,2.2-5,5s2.3,5,5,5h15h80h16c2.8,0,5-2.2,5-5S237.7,205,235,205z"/>
</g>
</svg>
